  0
SECTION
  2
HEADER
  9
$ACADVER
  1
AC1015
  9
$ACADMAINTVER
 70
     6
  9
$DWGCODEPAGE
  3
ANSI_1252
  9
$INSBASE
 10
0.0
 20
0.0
 30
0.0
  9
$EXTMIN
 10
-106.6506350946
 20
-110.0
 30
0.0
  9
$EXTMAX
 10
106.6506350946
 20
118.88
 30
0.0
  9
$LIMMIN
 10
0.0
 20
0.0
  9
$LIMMAX
 10
420.0
 20
297.0
  9
$ORTHOMODE
 70
     0
  9
$REGENMODE
 70
     1
  9
$FILLMODE
 70
     1
  9
$QTEXTMODE
 70
     0
  9
$MIRRTEXT
 70
     1
  9
$LTSCALE
 40
1.0
  9
$ATTMODE
 70
     1
  9
$TEXTSIZE
 40
3.5
  9
$TRACEWID
 40
1.0
  9
$TEXTSTYLE
  7
Standard
  9
$CLAYER
  8
0
  9
$CELTYPE
  6
ByLayer
  9
$CECOLOR
 62
   256
  9
$CELTSCALE
 40
1.0
  9
$DISPSILH
 70
     0
  9
$DIMSCALE
 40
1.0
  9
$DIMASZ
 40
3.302
  9
$DIMEXO
 40
1.0
  9
$DIMDLI
 40
3.75
  9
$DIMRND
 40
0.0
  9
$DIMDLE
 40
0.0
  9
$DIMEXE
 40
1.0
  9
$DIMTP
 40
0.0
  9
$DIMTM
 40
0.0
  9
$DIMTXT
 40
3.5
  9
$DIMCEN
 40
2.5
  9
$DIMTSZ
 40
0.0
  9
$DIMTOL
 70
     0
  9
$DIMLIM
 70
     0
  9
$DIMTIH
 70
     1
  9
$DIMTOH
 70
     1
  9
$DIMSE1
 70
     0
  9
$DIMSE2
 70
     0
  9
$DIMTAD
 70
     1
  9
$DIMZIN
 70
     0
  9
$DIMBLK
  1

  9
$DIMASO
 70
     1
  9
$DIMSHO
 70
     1
  9
$DIMPOST
  1

  9
$DIMAPOST
  1

  9
$DIMALT
 70
     0
  9
$DIMALTD
 70
     3
  9
$DIMALTF
 40
0.0393700787
  9
$DIMLFAC
 40
1.0
  9
$DIMTOFL
 70
     1
  9
$DIMTVP
 40
0.0
  9
$DIMTIX
 70
     0
  9
$DIMSOXD
 70
     0
  9
$DIMSAH
 70
     0
  9
$DIMBLK1
  1

  9
$DIMBLK2
  1

  9
$DIMSTYLE
  2
ISO-25
  9
$DIMCLRD
 70
     0
  9
$DIMCLRE
 70
     0
  9
$DIMCLRT
 70
     0
  9
$DIMTFAC
 40
1.0
  9
$DIMGAP
 40
1.524
  9
$DIMJUST
 70
     0
  9
$DIMSD1
 70
     0
  9
$DIMSD2
 70
     0
  9
$DIMTOLJ
 70
     0
  9
$DIMTZIN
 70
     0
  9
$DIMALTZ
 70
     0
  9
$DIMALTTZ
 70
     0
  9
$DIMUPT
 70
     0
  9
$DIMDEC
 70
     2
  9
$DIMTDEC
 70
     2
  9
$DIMALTU
 70
     2
  9
$DIMALTTD
 70
     3
  9
$DIMTXSTY
  7
Standard
  9
$DIMAUNIT
 70
     0
  9
$DIMADEC
 70
     2
  9
$DIMALTRND
 40
0.0
  9
$DIMAZIN
 70
     0
  9
$DIMDSEP
 70
    44
  9
$DIMATFIT
 70
     3
  9
$DIMFRAC
 70
     0
  9
$DIMLDRBLK
  1

  9
$DIMLUNIT
 70
     2
  9
$DIMLWD
 70
    -2
  9
$DIMLWE
 70
    -2
  9
$DIMTMOVE
 70
     0
  9
$LUNITS
 70
     2
  9
$LUPREC
 70
     2
  9
$SKETCHINC
 40
1.0
  9
$FILLETRAD
 40
10.0
  9
$AUNITS
 70
     0
  9
$AUPREC
 70
     2
  9
$MENU
  1
.
  9
$ELEVATION
 40
0.0
  9
$PELEVATION
 40
0.0
  9
$THICKNESS
 40
0.0
  9
$LIMCHECK
 70
     0
  9
$CHAMFERA
 40
0.0
  9
$CHAMFERB
 40
0.0
  9
$CHAMFERC
 40
0.0
  9
$CHAMFERD
 40
0.0
  9
$SKPOLY
 70
     0
  9
$TDCREATE
 40
2457743.691883356
  9
$TDUCREATE
 40
2457743.90021669
  9
$TDUPDATE
 40
2457743.691924664
  9
$TDUUPDATE
 40
2457743.900257998
  9
$TDINDWG
 40
0.0000000116
  9
$TDUSRTIMER
 40
0.0000000116
  9
$USRTIMER
 70
     1
  9
$ANGBASE
 50
0.0
  9
$ANGDIR
 70
     0
  9
$PDMODE
 70
     0
  9
$PDSIZE
 40
-1.0
  9
$PLINEWID
 40
0.0
  9
$SPLFRAME
 70
     0
  9
$SPLINETYPE
 70
     6
  9
$SPLINESEGS
 70
     8
  9
$HANDSEED
  5
204
  9
$SURFTAB1
 70
     6
  9
$SURFTAB2
 70
     6
  9
$SURFTYPE
 70
     6
  9
$SURFU
 70
     6
  9
$SURFV
 70
     6
  9
$UCSBASE
  2

  9
$UCSNAME
  2

  9
$UCSORG
 10
0.0
 20
0.0
 30
0.0
  9
$UCSXDIR
 10
1.0
 20
0.0
 30
0.0
  9
$UCSYDIR
 10
0.0
 20
1.0
 30
0.0
  9
$UCSORTHOREF
  2

  9
$UCSORTHOVIEW
 70
     0
  9
$UCSORGTOP
 10
0.0
 20
0.0
 30
0.0
  9
$UCSORGBOTTOM
 10
0.0
 20
0.0
 30
0.0
  9
$UCSORGLEFT
 10
0.0
 20
0.0
 30
0.0
  9
$UCSORGRIGHT
 10
0.0
 20
0.0
 30
0.0
  9
$UCSORGFRONT
 10
0.0
 20
0.0
 30
0.0
  9
$UCSORGBACK
 10
0.0
 20
0.0
 30
0.0
  9
$PUCSBASE
  2

  9
$PUCSNAME
  2

  9
$PUCSORG
 10
0.0
 20
0.0
 30
0.0
  9
$PUCSXDIR
 10
1.0
 20
0.0
 30
0.0
  9
$PUCSYDIR
 10
0.0
 20
1.0
 30
0.0
  9
$PUCSORTHOREF
  2

  9
$PUCSORTHOVIEW
 70
     0
  9
$PUCSORGTOP
 10
0.0
 20
0.0
 30
0.0
  9
$PUCSORGBOTTOM
 10
0.0
 20
0.0
 30
0.0
  9
$PUCSORGLEFT
 10
0.0
 20
0.0
 30
0.0
  9
$PUCSORGRIGHT
 10
0.0
 20
0.0
 30
0.0
  9
$PUCSORGFRONT
 10
0.0
 20
0.0
 30
0.0
  9
$PUCSORGBACK
 10
0.0
 20
0.0
 30
0.0
  9
$USERI1
 70
     0
  9
$USERI2
 70
     0
  9
$USERI3
 70
     0
  9
$USERI4
 70
     0
  9
$USERI5
 70
     0
  9
$USERR1
 40
0.0
  9
$USERR2
 40
0.0
  9
$USERR3
 40
0.0
  9
$USERR4
 40
0.0
  9
$USERR5
 40
0.0
  9
$WORLDVIEW
 70
     1
  9
$SHADEDGE
 70
     3
  9
$SHADEDIF
 70
    70
  9
$TILEMODE
 70
     1
  9
$MAXACTVP
 70
    64
  9
$PINSBASE
 10
0.0
 20
0.0
 30
0.0
  9
$PLIMCHECK
 70
     0
  9
$PEXTMIN
 10
1.0000000000E+20
 20
1.0000000000E+20
 30
1.0000000000E+20
  9
$PEXTMAX
 10
-1.0000000000E+20
 20
-1.0000000000E+20
 30
-1.0000000000E+20
  9
$PLIMMIN
 10
0.0
 20
0.0
  9
$PLIMMAX
 10
420.0
 20
297.0
  9
$UNITMODE
 70
     0
  9
$VISRETAIN
 70
     1
  9
$PLINEGEN
 70
     0
  9
$PSLTSCALE
 70
     1
  9
$TREEDEPTH
 70
  3020
  9
$CMLSTYLE
  2
Standard
  9
$CMLJUST
 70
     0
  9
$CMLSCALE
 40
20.0
  9
$PROXYGRAPHICS
 70
     1
  9
$MEASUREMENT
 70
     1
  9
$CELWEIGHT
370
    -1
  9
$ENDCAPS
280
     0
  9
$JOINSTYLE
280
     0
  9
$LWDISPLAY
290
     1
  9
$INSUNITS
 70
     4
  9
$HYPERLINKBASE
  1

  9
$STYLESHEET
  1

  9
$XEDIT
290
     1
  9
$CEPSNTYPE
380
     0
  9
$PSTYLEMODE
290
     1
  9
$FINGERPRINTGUID
  2
{B4142932-D520-46AD-BEDF-DB26E30171D6}
  9
$VERSIONGUID
  2
{FAEB1C32-E019-11D5-929B-00C0DF256EC4}
  9
$EXTNAMES
290
     1
  9
$PSVPSCALE
 40
0.0
  9
$OLESTARTUP
290
     0
  0
ENDSEC
  0
SECTION
  2
CLASSES
  0
CLASS
  1
ACDBDICTIONARYWDFLT
  2
AcDbDictionaryWithDefault
  3
ObjectDBX Classes
 90
        0
280
     0
281
     0
  0
CLASS
  1
VISUALSTYLE
  2
AcDbVisualStyle
  3
ObjectDBX Classes
 90
     4095
280
     0
281
     0
  0
CLASS
  1
MATERIAL
  2
AcDbMaterial
  3
ObjectDBX Classes
 90
     1153
280
     0
281
     0
  0
CLASS
  1
SCALE
  2
AcDbScale
  3
ObjectDBX Classes
 90
     1153
280
     0
281
     0
  0
CLASS
  1
TABLESTYLE
  2
AcDbTableStyle
  3
ObjectDBX Classes
 90
     4095
280
     0
281
     0
  0
CLASS
  1
MLEADERSTYLE
  2
AcDbMLeaderStyle
  3
ACDB_MLEADERSTYLE_CLASS
 90
     4095
280
     0
281
     0
  0
CLASS
  1
SUN
  2
AcDbSun
  3
SCENEOE
 90
     1153
280
     0
281
     0
  0
CLASS
  1
ACDBPLACEHOLDER
  2
AcDbPlaceHolder
  3
ObjectDBX Classes
 90
        0
280
     0
281
     0
  0
CLASS
  1
LAYOUT
  2
AcDbLayout
  3
ObjectDBX Classes
 90
        0
280
     0
281
     0
  0
ENDSEC
  0
SECTION
  2
TABLES
  0
TABLE
  2
VPORT
  5
8
330
0
100
AcDbSymbolTable
 70
     1
  0
VPORT
  5
29
330
8
100
AcDbSymbolTableRecord
100
AcDbViewportTableRecord
  2
*Active
 70
     0
 10
0.0
 20
0.0
 11
1.0
 21
1.0
 12
0.0
 22
4.44
 13
0.0
 23
0.0
 14
10.0
 24
10.0
 15
10.0
 25
10.0
 16
0.0
 26
0.0
 36
1.0
 17
0.0
 27
0.0
 37
0.0
 40
233.4576
 41
0.9319349449
 42
50.0
 43
0.0
 44
0.0
 50
0.0
 51
0.0
 71
     0
 72
   100
 73
     1
 74
     3
 75
     0
 76
     0
 77
     0
 78
     0
281
     0
 65
     1
110
0.0
120
0.0
130
0.0
111
1.0
121
0.0
131
0.0
112
0.0
122
1.0
132
0.0
 79
     0
146
0.0
  0
ENDTAB
  0
TABLE
  2
LTYPE
  5
5
330
0
100
AcDbSymbolTable
 70
     6
  0
LTYPE
  5
14
330
5
100
AcDbSymbolTableRecord
100
AcDbLinetypeTableRecord
  2
ByBlock
 70
     0
  3

 72
    65
 73
     0
 40
0.0
  0
LTYPE
  5
15
330
5
100
AcDbSymbolTableRecord
100
AcDbLinetypeTableRecord
  2
ByLayer
 70
     0
  3

 72
    65
 73
     0
 40
0.0
  0
LTYPE
  5
16
330
5
100
AcDbSymbolTableRecord
100
AcDbLinetypeTableRecord
  2
Continuous
 70
     0
  3
Solid line
 72
    65
 73
     0
 40
0.0
  0
LTYPE
  5
6E
330
5
100
AcDbSymbolTableRecord
100
AcDbLinetypeTableRecord
  2
HIDDEN
 70
     0
  3
Hidden __ __ __ __ __ __ __ __ __ __ __ __ __ __
 72
    65
 73
     2
 40
1.905
 49
1.27
 74
     0
 49
-0.635
 74
     0
  0
LTYPE
  5
6F
330
5
100
AcDbSymbolTableRecord
100
AcDbLinetypeTableRecord
  2
PHANTOM
 70
     0
  3
Phantom ______  __  __  ______  __  __  ______
 72
    65
 73
     6
 40
12.7
 49
6.35
 74
     0
 49
-1.27
 74
     0
 49
1.27
 74
     0
 49
-1.27
 74
     0
 49
1.27
 74
     0
 49
-1.27
 74
     0
  0
LTYPE
  5
70
330
5
100
AcDbSymbolTableRecord
100
AcDbLinetypeTableRecord
  2
CENTER
 70
     0
  3
Center ____ _ ____ _ ____ _ ____ _ ____ _ ____
 72
    65
 73
     4
 40
10.16
 49
6.35
 74
     0
 49
-1.27
 74
     0
 49
1.27
 74
     0
 49
-1.27
 74
     0
  0
LTYPE
  5
71
330
5
100
AcDbSymbolTableRecord
100
AcDbLinetypeTableRecord
  2
CENTERX2
 70
     0
  3
Center (2x) ________  __  ________  __  _____
 72
    65
 73
     4
 40
20.32
 49
12.7
 74
     0
 49
-2.54
 74
     0
 49
2.54
 74
     0
 49
-2.54
 74
     0
  0
LTYPE
  5
72
330
5
100
AcDbSymbolTableRecord
100
AcDbLinetypeTableRecord
  2
DOT2
 70
     0
  3
Dot (.5x) ........................................
 72
    65
 73
     2
 40
0.635
 49
0.0
 74
     0
 49
-0.635
 74
     0
  0
ENDTAB
  0
TABLE
  2
LAYER
  5
2
330
0
100
AcDbSymbolTable
 70
     1
  0
LAYER
  5
10
330
2
100
AcDbSymbolTableRecord
100
AcDbLayerTableRecord
  2
0
 70
     0
 62
     7
  6
Continuous
370
    -3
390
F
  0
ENDTAB
  0
TABLE
  2
STYLE
  5
3
330
0
100
AcDbSymbolTable
 70
     1
  0
STYLE
  5
11
330
3
100
AcDbSymbolTableRecord
100
AcDbTextStyleTableRecord
  2
Standard
 70
     0
 40
0.0
 41
1.0
 50
0.0
 71
     0
 42
3.5
  3
txt
  4

  0
ENDTAB
  0
TABLE
  2
VIEW
  5
6
330
0
100
AcDbSymbolTable
 70
     0
  0
ENDTAB
  0
TABLE
  2
UCS
  5
7
330
0
100
AcDbSymbolTable
 70
     0
  0
ENDTAB
  0
TABLE
  2
APPID
  5
9
330
0
100
AcDbSymbolTable
 70
     1
  0
APPID
  5
12
330
9
100
AcDbSymbolTableRecord
100
AcDbRegAppTableRecord
  2
ACAD
 70
     0
  0
ENDTAB
  0
TABLE
  2
DIMSTYLE
  5
A
330
0
100
AcDbSymbolTable
 70
     1
100
AcDbDimStyleTable
  0
DIMSTYLE
105
27
330
A
100
AcDbSymbolTableRecord
100
AcDbDimStyleTableRecord
  2
ISO-25
 70
     0
 41
2.5
 42
0.625
 43
3.75
 44
1.25
 73
     0
 74
     0
 77
     1
 78
     8
140
2.5
141
2.5
143
0.0393700787
147
0.625
171
     3
172
     1
178
     0
271
     2
272
     2
274
     3
278
    44
283
     0
284
     8
340
11
  0
ENDTAB
  0
TABLE
  2
BLOCK_RECORD
  5
1
330
0
100
AcDbSymbolTable
 70
     1
  0
BLOCK_RECORD
  5
1F
330
1
100
AcDbSymbolTableRecord
100
AcDbBlockTableRecord
  2
*Model_Space
340
22
  0
BLOCK_RECORD
  5
1B
330
1
100
AcDbSymbolTableRecord
100
AcDbBlockTableRecord
  2
*Paper_Space
340
1E
  0
BLOCK_RECORD
  5
23
330
1
100
AcDbSymbolTableRecord
100
AcDbBlockTableRecord
  2
*Paper_Space0
340
26
  0
ENDTAB
  0
ENDSEC
  0
SECTION
  2
BLOCKS
  0
BLOCK
  5
20
330
1F
100
AcDbEntity
  8
0
100
AcDbBlockBegin
  2
*Model_Space
 70
     0
 10
0.0
 20
0.0
 30
0.0
  3
*Model_Space
  1

  0
ENDBLK
  5
21
330
1F
100
AcDbEntity
  8
0
100
AcDbBlockEnd
  0
BLOCK
  5
1C
330
1B
100
AcDbEntity
 67
     1
  8
0
100
AcDbBlockBegin
  2
*Paper_Space
 70
     0
 10
0.0
 20
0.0
 30
0.0
  3
*Paper_Space
  1

  0
ENDBLK
  5
1D
330
1B
100
AcDbEntity
 67
     1
  8
0
100
AcDbBlockEnd
  0
BLOCK
  5
24
330
23
100
AcDbEntity
  8
0
100
AcDbBlockBegin
  2
*Paper_Space0
 70
     0
 10
0.0
 20
0.0
 30
0.0
  3
*Paper_Space0
  1

  0
ENDBLK
  5
25
330
23
100
AcDbEntity
  8
0
100
AcDbBlockEnd
  0
ENDSEC
  0
SECTION
  2
ENTITIES
  0
CIRCLE
  5
73
330
1F
100
AcDbEntity
  8
0
  6
Continuous
 62
     7
370
    25
100
AcDbCircle
 10
-61.487803669
 20
35.4999999995
 30
0.0
 40
3.400000000000013
  0
CIRCLE
  5
80
330
1F
100
AcDbEntity
  8
0
  6
Continuous
 62
     7
370
    25
100
AcDbCircle
 10
61.4878036684
 20
35.5000000005
 30
0.0
 40
3.400000000000013
  0
CIRCLE
  5
89
330
1F
100
AcDbEntity
  8
0
  6
Continuous
 62
     7
370
    25
100
AcDbCircle
 10
0.0000000005
 20
-71.0
 30
0.0
 40
3.399999999999979
  0
CIRCLE
  5
FD
330
1F
100
AcDbEntity
  8
0
  6
Continuous
 62
     7
370
    25
100
AcDbCircle
 10
-53.7640831103
 20
-70.8778764306
 30
0.0
 40
1.77500000000002
  0
CIRCLE
  5
FE
330
1F
100
AcDbEntity
  8
0
  6
Continuous
 62
     7
370
    25
100
AcDbCircle
 10
-88.2640831103
 20
-11.1221235694
 30
0.0
 40
1.775000000000006
  0
CIRCLE
  5
FF
330
1F
100
AcDbEntity
  8
0
  6
Continuous
 62
     7
370
    25
100
AcDbCircle
 10
35.4365334795
 20
-19.3778764306
 30
0.0
 40
1.774999999999999
  0
CIRCLE
  5
100
330
1F
100
AcDbEntity
  8
0
  6
Continuous
 62
     7
370
    25
100
AcDbCircle
 10
0.9365334795
 20
40.3778764306
 30
0.0
 40
1.774999999999998
  0
CIRCLE
  5
101
330
1F
100
AcDbEntity
  8
0
  6
Continuous
 62
     7
370
    25
100
AcDbCircle
 10
0.0
 20
0.0
 30
0.0
 40
7.499999999999997
  0
CIRCLE
  5
102
330
1F
100
AcDbEntity
  8
0
  6
Continuous
 62
     7
370
    25
100
AcDbCircle
 10
93.2640831103
 20
-2.4618695316
 30
0.0
 40
1.5999999999962
  0
CIRCLE
  5
103
330
1F
100
AcDbEntity
  8
0
  6
Continuous
 62
     7
370
    25
100
AcDbCircle
 10
75.8538290724
 20
-12.6173140978
 30
0.0
 40
1.600000000041945
  0
CIRCLE
  5
104
330
1F
100
AcDbEntity
  8
0
  6
Continuous
 62
     7
370
    25
100
AcDbCircle
 10
80.7640831103
 20
-24.1125046262
 30
0.0
 40
1.600000000042101
  0
CIRCLE
  5
105
330
1F
100
AcDbEntity
  8
0
  6
Continuous
 62
     7
370
    25
100
AcDbCircle
 10
73.2640831103
 20
-37.102885683
 30
0.0
 40
1.600000000042129
  0
CIRCLE
  5
106
330
1F
100
AcDbEntity
  8
0
  6
Continuous
 62
     7
370
    25
100
AcDbCircle
 10
68.3538290724
 20
-25.6076951546
 30
0.0
 40
1.600000000042016
  0
CIRCLE
  5
107
330
1F
100
AcDbEntity
  8
0
  6
Continuous
 62
     7
370
    25
100
AcDbCircle
 10
88.2640831103
 20
-11.1221235695
 30
0.0
 40
1.600000000042016
  0
CIRCLE
  5
108
330
1F
100
AcDbEntity
  8
0
  6
Continuous
 62
     7
370
    25
100
AcDbCircle
 10
-93.2640831103
 20
-2.4618695316
 30
0.0
 40
1.600000000011221
  0
CIRCLE
  5
109
330
1F
100
AcDbEntity
  8
0
  6
Continuous
 62
     7
370
    25
100
AcDbCircle
 10
-48.7640831103
 20
-79.5381304684
 30
0.0
 40
1.599999999988562
  0
CIRCLE
  5
10A
330
1F
100
AcDbEntity
  8
0
  6
Continuous
 62
     7
370
    25
100
AcDbCircle
 10
48.7640831103
 20
-79.5381304684
 30
0.0
 40
1.600000000009487
  0
CIRCLE
  5
10B
330
1F
100
AcDbEntity
  8
0
  6
Continuous
 62
     7
370
    25
100
AcDbCircle
 10
-62.3538290725
 20
-36.0
 30
0.0
 40
1.600000000024394
  0
CIRCLE
  5
10C
330
1F
100
AcDbEntity
  8
0
  6
Continuous
 62
     7
370
    25
100
AcDbCircle
 10
-56.3538290725
 20
-46.3923048454
 30
0.0
 40
1.600000000024387
  0
CIRCLE
  5
10D
330
1F
100
AcDbEntity
  8
0
  6
Continuous
 62
     7
370
    25
100
AcDbCircle
 10
-68.7640831104
 20
-44.897114317
 30
0.0
 40
1.600000000024437
  0
CIRCLE
  5
10E
330
1F
100
AcDbEntity
  8
0
  6
Continuous
 62
     7
370
    25
100
AcDbCircle
 10
-75.8538290725
 20
-12.6173140978
 30
0.0
 40
1.600000000024423
  0
CIRCLE
  5
10F
330
1F
100
AcDbEntity
  8
0
  6
Continuous
 62
     7
370
    25
100
AcDbCircle
 10
-80.7640831104
 20
-24.1125046262
 30
0.0
 40
1.600000000024451
  0
CIRCLE
  5
110
330
1F
100
AcDbEntity
  8
0
  6
Continuous
 62
     7
370
    25
100
AcDbCircle
 10
-73.2640831104
 20
-37.102885683
 30
0.0
 40
1.600000000024451
  0
CIRCLE
  5
111
330
1F
100
AcDbEntity
  8
0
  6
Continuous
 62
     7
370
    25
100
AcDbCircle
 10
-68.3538290725
 20
-25.6076951546
 30
0.0
 40
1.600000000024409
  0
CIRCLE
  5
112
330
1F
100
AcDbEntity
  8
0
  6
Continuous
 62
     7
370
    25
100
AcDbCircle
 10
61.2640831103
 20
-57.8874953738
 30
0.0
 40
1.600000000042201
  0
CIRCLE
  5
113
330
1F
100
AcDbEntity
  8
0
  6
Continuous
 62
     7
370
    25
100
AcDbCircle
 10
68.7640831103
 20
-44.8971143171
 30
0.0
 40
1.600000000042158
  0
CIRCLE
  5
114
330
1F
100
AcDbEntity
  8
0
  6
Continuous
 62
     7
370
    25
100
AcDbCircle
 10
56.3538290724
 20
-46.3923048454
 30
0.0
 40
1.600000000042094
  0
CIRCLE
  5
115
330
1F
100
AcDbEntity
  8
0
  6
Continuous
 62
     7
370
    25
100
AcDbCircle
 10
62.3538290724
 20
-36.0
 30
0.0
 40
1.600000000042044
  0
CIRCLE
  5
116
330
1F
100
AcDbEntity
  8
0
  6
Continuous
 62
     7
370
    25
100
AcDbCircle
 10
48.8538290724
 20
-59.3826859022
 30
0.0
 40
1.600000000042151
  0
CIRCLE
  5
117
330
1F
100
AcDbEntity
  8
0
  6
Continuous
 62
     7
370
    25
100
AcDbCircle
 10
53.7640831103
 20
-70.8778764306
 30
0.0
 40
1.600000000042265
  0
CIRCLE
  5
118
330
1F
100
AcDbEntity
  8
0
  6
Continuous
 62
     7
370
    25
100
AcDbCircle
 10
-48.8538290725
 20
-59.3826859022
 30
0.0
 40
1.600000000024345
  0
CIRCLE
  5
119
330
1F
100
AcDbEntity
  8
0
  6
Continuous
 62
     7
370
    25
100
AcDbCircle
 10
53.3031550841
 20
96.6967818135
 30
0.0
 40
1.599999999999987
  0
CIRCLE
  5
11A
330
1F
100
AcDbEntity
  8
0
  6
Continuous
 62
     7
370
    25
100
AcDbCircle
 10
66.2355551577
 20
81.4405362617
 30
0.0
 40
1.599999999999994
  0
CIRCLE
  5
11B
330
1F
100
AcDbEntity
  8
0
  6
Continuous
 62
     7
370
    25
100
AcDbCircle
 10
-66.2355551577
 20
81.4405362617
 30
0.0
 40
1.599999999999994
  0
CIRCLE
  5
11C
330
1F
100
AcDbEntity
  8
0
  6
Continuous
 62
     7
370
    25
100
AcDbCircle
 10
-53.3031550841
 20
96.6967818135
 30
0.0
 40
1.600000000000016
  0
SPLINE
  5
11D
330
1F
100
AcDbEntity
  8
0
  6
Continuous
 62
     7
370
    25
100
AcDbSpline
210
0.0
220
0.0
230
1.0
 70
     8
 71
     3
 72
    11
 73
     7
 74
     0
 42
0.000000001
 43
0.00000001
 40
0.0
 40
0.0
 40
0.0
 40
0.0
 40
0.2707916818155511
 40
0.5250384008960726
 40
0.763041220742993
 40
0.9999999999999999
 40
0.9999999999999999
 40
0.9999999999999999
 40
0.9999999999999999
 10
2.176625593739176
 20
-90.68283361728595
 30
0.0
 10
2.195333818568337
 20
-90.6602140512104
 30
0.0
 10
2.231607223947882
 20
-90.61635694038027
 30
0.0
 10
2.268810389486922
 20
-90.54231723818725
 30
0.0
 10
2.294732103937161
 20
-90.46713384754587
 30
0.0
 10
2.297035618293373
 20
-90.41561232648462
 30
0.0
 10
2.298184843727341
 20
-90.38990819217321
 30
0.0
  0
SPLINE
  5
11E
330
1F
100
AcDbEntity
  8
0
  6
Continuous
 62
     7
370
    25
100
AcDbSpline
210
0.0
220
0.0
230
1.0
 70
     8
 71
     3
 72
    15
 73
    11
 74
     0
 42
0.000000001
 43
0.00000001
 40
0.0
 40
0.0
 40
0.0
 40
0.0
 40
0.1223738582470947
 40
0.2415974317247384
 40
0.3623845395050488
 40
0.4912450565005609
 40
0.6216346245644341
 40
0.7475632813047917
 40
0.8714680347351352
 40
0.9999999999999999
 40
0.9999999999999999
 40
0.9999999999999999
 40
0.9999999999999999
 10
2.29818484372734
 20
-90.38990819217321
 30
0.0
 10
2.296697069490692
 20
-90.36016199279253
 30
0.0
 10
2.293759820966303
 20
-90.30143535397539
 30
0.0
 10
2.264185348419408
 20
-90.21772646354492
 30
0.0
 10
2.219758682515396
 20
-90.13965109321408
 30
0.0
 10
2.157061921236286
 20
-90.07131869689383
 30
0.0
 10
2.083259901169854
 20
-90.01361270835778
 30
0.0
 10
2.0013087731633
 20
-89.97041974356759
 30
0.0
 10
1.912399231193625
 20
-89.94489600309964
 30
0.0
 10
1.851200080466301
 20
-89.9415343889401
 30
0.0
 10
1.820039609215607
 20
-89.93982277235507
 30
0.0
  0
SPLINE
  5
11F
330
1F
100
AcDbEntity
  8
0
  6
Continuous
 62
     7
370
    25
100
AcDbSpline
210
0.0
220
0.0
230
1.0
 70
     8
 71
     3
 72
    15
 73
    11
 74
     0
 42
0.000000001
 43
0.00000001
 40
0.0
 40
0.0
 40
0.0
 40
0.0
 40
0.0557669436261573
 40
0.127167170630464
 40
0.2188522822947268
 40
0.331346868213284
 40
0.4647394586375275
 40
0.6210745603082348
 40
0.7988383489181954
 40
1.0
 40
1.0
 40
1.0
 40
1.0
 10
1.820039609215611
 20
-89.93982277235507
 30
0.0
 10
1.797909945458323
 20
-89.94273020808461
 30
0.0
 10
1.747446955306278
 20
-89.94936012809588
 30
0.0
 10
1.669581612195804
 20
-89.99130881981299
 30
0.0
 10
1.580123033126879
 20
-90.05407677451835
 30
0.0
 10
1.47749199059876
 20
-90.1410006057044
 30
0.0
 10
1.363178841102965
 20
-90.25283376258118
 30
0.0
 10
1.236487788307421
 20
-90.38885611685453
 30
0.0
 10
1.096502545125236
 20
-90.54913538262127
 30
0.0
 10
1.001341246462534
 20
-90.66590203572851
 30
0.0
 10
0.9508225904080598
 20
-90.72789041198916
 30
0.0
  0
SPLINE
  5
120
330
1F
100
AcDbEntity
  8
0
  6
Continuous
 62
     7
370
    25
100
AcDbSpline
210
0.0
220
0.0
230
1.0
 70
     8
 71
     3
 72
     9
 73
     5
 74
     0
 42
0.000000001
 43
0.00000001
 40
0.0
 40
0.0
 40
0.0
 40
0.0
 40
0.4998135440524516
 40
1.0
 40
1.0
 40
1.0
 40
1.0
 10
0.9508225904080556
 20
-90.72789041198916
 30
0.0
 10
0.8143383576537135
 20
-90.91000588562302
 30
0.0
 10
0.5412680609831862
 20
-91.27437270961363
 30
0.0
 10
0.2671862835834089
 20
-91.63797929487451
 30
0.0
 10
0.1300942907059985
 20
-91.81985038411531
 30
0.0
  0
SPLINE
  5
121
330
1F
100
AcDbEntity
  8
0
  6
Continuous
 62
     7
370
    25
100
AcDbSpline
210
0.0
220
0.0
230
1.0
 70
     8
 71
     3
 72
     9
 73
     5
 74
     0
 42
0.000000001
 43
0.00000001
 40
0.0
 40
0.0
 40
0.0
 40
0.0
 40
0.4990308269963045
 40
1.0
 40
1.0
 40
1.0
 40
1.0
 10
0.1300942907059983
 20
-91.81985038411531
 30
0.0
 10
0.0343418101604391
 20
-91.6971381408967
 30
0.0
 10
-0.1575350747244074
 20
-91.45123701298989
 30
0.0
 10
-0.3582938229005557
 20
-91.21253193738816
 30
0.0
 10
-0.4588677669476042
 20
-91.09294805307222
 30
0.0
  0
SPLINE
  5
122
330
1F
100
AcDbEntity
  8
0
  6
Continuous
 62
     7
370
    25
100
AcDbSpline
210
0.0
220
0.0
230
1.0
 70
     8
 71
     3
 72
    15
 73
    11
 74
     0
 42
0.000000001
 43
0.00000001
 40
0.0
 40
0.0
 40
0.0
 40
0.0
 40
0.1762802545774066
 40
0.3301412107170248
 40
0.4613863626539785
 40
0.570119860806531
 40
0.670035565723567
 40
0.7750857792676149
 40
0.884583993603138
 40
1.0
 40
1.0
 40
1.0
 40
1.0
 10
-0.4588677669476042
 20
-91.09294805307222
 30
0.0
 10
-0.5001278306530492
 20
-91.03805647930996
 30
0.0
 10
-0.5774005088587316
 20
-90.93525443455752
 30
0.0
 10
-0.6862497903879563
 20
-90.79223365200546
 30
0.0
 10
-0.777579533591706
 20
-90.66894809531362
 30
0.0
 10
-0.8548964067895264
 20
-90.56147743696438
 30
0.0
 10
-0.928742554619194
 20
-90.46402998897807
 30
0.0
 10
-1.009565348699663
 20
-90.3719002212549
 30
0.0
 10
-1.097534372969812
 20
-90.27808557522523
 30
0.0
 10
-1.161981578386512
 20
-90.21868823235762
 30
0.0
 10
-1.195053026907707
 20
-90.18820814940845
 30
0.0
  0
SPLINE
  5
123
330
1F
100
AcDbEntity
  8
0
  6
Continuous
 62
     7
370
    25
100
AcDbSpline
210
0.0
220
0.0
230
1.0
 70
     8
 71
     3
 72
    15
 73
    11
 74
     0
 42
0.000000001
 43
0.00000001
 40
0.0
 40
0.0
 40
0.0
 40
0.0
 40
0.1709173277512879
 40
0.3267417817854612
 40
0.4692759198822225
 40
0.5990460294360218
 40
0.7154339520044489
 40
0.8203349494348365
 40
0.9145887736322394
 40
1.0
 40
1.0
 40
1.0
 40
1.0
 10
-1.195053026907707
 20
-90.18820814940845
 30
0.0
 10
-1.218438453440024
 20
-90.16860751399763
 30
0.0
 10
-1.26314425380275
 20
-90.13113707947517
 30
0.0
 10
-1.329077348280104
 20
-90.07929309429487
 30
0.0
 10
-1.393112167421453
 20
-90.03751099409516
 30
0.0
 10
-1.451959472495004
 20
-90.00052341788259
 30
0.0
 10
-1.509159030281898
 20
-89.97457137293588
 30
0.0
 10
-1.561649641900996
 20
-89.95409857389348
 30
0.0
 10
-1.611180957162679
 20
-89.94142170143277
 30
0.0
 10
-1.643284184825601
 20
-89.93980856098973
 30
0.0
 10
-1.658545784321043
 20
-89.93904168783826
 30
0.0
  0
SPLINE
  5
124
330
1F
100
AcDbEntity
  8
0
  6
Continuous
 62
     7
370
    25
100
AcDbSpline
210
0.0
220
0.0
230
1.0
 70
     8
 71
     3
 72
    15
 73
    11
 74
     0
 42
0.000000001
 43
0.00000001
 40
0.0
 40
0.0
 40
0.0
 40
0.0
 40
0.1333640369697578
 40
0.2600793682572051
 40
0.384988892239436
 40
0.5150814571640279
 40
0.6435000184217403
 40
0.7646354090729888
 40
0.8815209645470002
 40
1.0
 40
1.0
 40
1.0
 40
1.0
 10
-1.65854578432104
 20
-89.93904168783826
 30
0.0
 10
-1.690586978748642
 20
-89.94033998094524
 30
0.0
 10
-1.753071991907236
 20
-89.94287184229829
 30
0.0
 10
-1.841664894109957
 20
-89.97153541054628
 30
0.0
 10
-1.922742416464381
 20
-90.01502266873237
 30
0.0
 10
-1.991364052744173
 20
-90.07709910902827
 30
0.0
 10
-2.048419148476139
 20
-90.14831845280239
 30
0.0
 10
-2.090921595576151
 20
-90.22550529003739
 30
0.0
 10
-2.117721262978351
 20
-90.30753307012493
 30
0.0
 10
-2.120421831006672
 20
-90.36403774001772
 30
0.0
 10
-2.121781256797575
 20
-90.39248135067777
 30
0.0
  0
SPLINE
  5
125
330
1F
100
AcDbEntity
  8
0
  6
Continuous
 62
     7
370
    25
100
AcDbSpline
210
0.0
220
0.0
230
1.0
 70
     8
 71
     3
 72
    15
 73
    11
 74
     0
 42
0.000000001
 43
0.00000001
 40
0.0
 40
0.0
 40
0.0
 40
0.0
 40
0.0971764155503207
 40
0.194603921353145
 40
0.2957229902927253
 40
0.4065260512102833
 40
0.5307613947209169
 40
0.6710342206722567
 40
0.8269983154131673
 40
1.0
 40
1.0
 40
1.0
 40
1.0
 10
-2.121781256797572
 20
-90.39248135067777
 30
0.0
 10
-2.119403446622703
 20
-90.42538705151479
 30
0.0
 10
-2.114641682344362
 20
-90.49128347691284
 30
0.0
 10
-2.078233515748726
 20
-90.58587486433787
 30
0.0
 10
-2.018569646804835
 20
-90.67289723081844
 30
0.0
 10
-1.933633498577064
 20
-90.74906795016457
 30
0.0
 10
-1.837246790229826
 20
-90.83144371125951
 30
0.0
 10
-1.739342624549387
 20
-90.9347755207869
 30
0.0
 10
-1.63528105392771
 20
-91.05448490966045
 30
0.0
 10
-1.567380764003296
 20
-91.14256478472826
 30
0.0
 10
-1.531672294372022
 20
-91.18888561115607
 30
0.0
  0
SPLINE
  5
126
330
1F
100
AcDbEntity
  8
0
  6
Continuous
 62
     7
370
    25
100
AcDbSpline
210
0.0
220
0.0
230
1.0
 70
     8
 71
     3
 72
    15
 73
    11
 74
     0
 42
0.000000001
 43
0.00000001
 40
0.0
 40
0.0
 40
0.0
 40
0.0
 40
0.2179942161890822
 40
0.4101550477176947
 40
0.5764824983682184
 40
0.713601819965115
 40
0.8253029719139897
 40
0.9109526931113227
 40
0.9691826207194051
 40
1.0
 40
1.0
 40
1.0
 40
1.0
 10
-1.531672294372022
 20
-91.18888561115607
 30
0.0
 10
-1.505223685356435
 20
-91.22373016166746
 30
0.0
 10
-1.45546075731871
 20
-91.28929001241734
 30
0.0
 10
-1.385725699522357
 20
-91.38159399033589
 30
0.0
 10
-1.325052568106217
 20
-91.46040033325383
 30
0.0
 10
-1.276247504394876
 20
-91.5279470367284
 30
0.0
 10
-1.233900783771336
 20
-91.58004664997911
 30
0.0
 10
-1.202936250864463
 20
-91.62093365380296
 30
0.0
 10
-1.181519775915782
 20
-91.64869263072977
 30
0.0
 10
-1.170238794000661
 20
-91.66255162115417
 30
0.0
 10
-1.166334686055301
 20
-91.66734792302198
 30
0.0
  0
SPLINE
  5
127
330
1F
100
AcDbEntity
  8
0
  6
Continuous
 62
     7
370
    25
100
AcDbSpline
210
0.0
220
0.0
230
1.0
 70
     8
 71
     3
 72
     9
 73
     5
 74
     0
 42
0.000000001
 43
0.00000001
 40
0.0
 40
0.0
 40
0.0
 40
0.0
 40
0.5046291909082508
 40
1.0
 40
1.0
 40
1.0
 40
1.0
 10
-1.166334686055301
 20
-91.66734792302198
 30
0.0
 10
-1.048819903773868
 20
-91.80680784999325
 30
0.0
 10
-0.8159463712897121
 20
-92.08316904645963
 30
0.0
 10
-0.5939792883744853
 20
-92.36836301427142
 30
0.0
 10
-0.484023274919032
 20
-92.50963978085444
 30
0.0
  0
SPLINE
  5
128
330
1F
100
AcDbEntity
  8
0
  6
Continuous
 62
     7
370
    25
100
AcDbSpline
210
0.0
220
0.0
230
1.0
 70
     8
 71
     3
 72
    15
 73
    11
 74
     0
 42
0.000000001
 43
0.00000001
 40
0.0
 40
0.0
 40
0.0
 40
0.0
 40
0.1537145583800495
 40
0.299592870521185
 40
0.4365654261787795
 40
0.5657028887814839
 40
0.6870065665834981
 40
0.7992340353639608
 40
0.9038006519127815
 40
1.0
 40
1.0
 40
1.0
 40
1.0
 10
-0.484023274919032
 20
-92.50963978085444
 30
0.0
 10
-0.5422643992602781
 20
-92.5752614274158
 30
0.0
 10
-0.6557775616286079
 20
-92.70315938105686
 30
0.0
 10
-0.8219753361920766
 20
-92.88883026559985
 30
0.0
 10
-0.9784945810071486
 20
-93.06433666361833
 30
0.0
 10
-1.126423136218552
 20
-93.22870586476779
 30
0.0
 10
-1.265148756768586
 20
-93.38235726456128
 30
0.0
 10
-1.395785127912247
 20
-93.52440506439267
 30
0.0
 10
-1.516121890766713
 20
-93.65645362078156
 30
0.0
 10
-1.59380672857419
 20
-93.74069967323038
 30
0.0
 10
-1.631030322557805
 20
-93.78106714955634
 30
0.0
  0
SPLINE
  5
129
330
1F
100
AcDbEntity
  8
0
  6
Continuous
 62
     7
370
    25
100
AcDbSpline
210
0.0
220
0.0
230
1.0
 70
     8
 71
     3
 72
    15
 73
    11
 74
     0
 42
0.000000001
 43
0.00000001
 40
0.0
 40
0.0
 40
0.0
 40
0.0
 40
0.1611732393632219
 40
0.3117505723917456
 40
0.4528031579742281
 40
0.5825134327452064
 40
0.7026968212683522
 40
0.8122854016671819
 40
0.9112802497489619
 40
1.0
 40
1.0
 40
1.0
 40
1.0
 10
-1.631030322557805
 20
-93.78106714955634
 30
0.0
 10
-1.66270275808094
 20
-93.81494399238841
 30
0.0
 10
-1.72396540901721
 20
-93.88047053504178
 30
0.0
 10
-1.812933773790479
 20
-93.97565806699953
 30
0.0
 10
-1.896718322553247
 20
-94.06329187358604
 30
0.0
 10
-1.972991801765731
 20
-94.14598190639813
 30
0.0
 10
-2.04402232867814
 20
-94.22117752465212
 30
0.0
 10
-2.108916676949693
 20
-94.29001088816275
 30
0.0
 10
-2.168163730926639
 20
-94.35172313643375
 30
0.0
 10
-2.205027087426183
 20
-94.39120275651835
 30
0.0
 10
-2.22244985481402
 20
-94.40986205134685
 30
0.0
  0
SPLINE
  5
12A
330
1F
100
AcDbEntity
  8
0
  6
Continuous
 62
     7
370
    25
100
AcDbSpline
210
0.0
220
0.0
230
1.0
 70
     8
 71
     3
 72
    11
 73
     7
 74
     0
 42
0.000000001
 43
0.00000001
 40
0.0
 40
0.0
 40
0.0
 40
0.0
 40
0.2639521771687044
 40
0.5125225472434314
 40
0.7556140041079558
 40
1.0
 40
1.0
 40
1.0
 40
1.0
 10
-2.22244985481402
 20
-94.40986205134685
 30
0.0
 10
-2.239790508781161
 20
-94.43148062932501
 30
0.0
 10
-2.273461290501676
 20
-94.47345796314359
 30
0.0
 10
-2.309589914540611
 20
-94.54447254121678
 30
0.0
 10
-2.331718425225705
 20
-94.61902591554718
 30
0.0
 10
-2.334427380885226
 20
-94.67017144391615
 30
0.0
 10
-2.335785455649379
 20
-94.6958121188134
 30
0.0
  0
SPLINE
  5
12B
330
1F
100
AcDbEntity
  8
0
  6
Continuous
 62
     7
370
    25
100
AcDbSpline
210
0.0
220
0.0
230
1.0
 70
     8
 71
     3
 72
    15
 73
    11
 74
     0
 42
0.000000001
 43
0.00000001
 40
0.0
 40
0.0
 40
0.0
 40
0.0
 40
0.1137922408579182
 40
0.2269071409311715
 40
0.3437645925529266
 40
0.4713124378289538
 40
0.6032841885461537
 40
0.7319836224200146
 40
0.8634887106054356
 40
1.0
 40
1.0
 40
1.0
 40
1.0
 10
-2.335785455649379
 20
-94.6958121188134
 30
0.0
 10
-2.334131316009409
 20
-94.72543076077501
 30
0.0
 10
-2.330832882886241
 20
-94.78449174169168
 30
0.0
 10
-2.297877063026567
 20
-94.86885804833251
 30
0.0
 10
-2.244790484160389
 20
-94.94560953975476
 30
0.0
 10
-2.173758619412658
 20
-95.01331266340823
 30
0.0
 10
-2.090613595017082
 20
-95.0710312493223
 30
0.0
 10
-1.997031187302309
 20
-95.11200408510187
 30
0.0
 10
-1.896859514604679
 20
-95.13849569204834
 30
0.0
 10
-1.827212064956868
 20
-95.14106522723951
 30
0.0
 10
-1.791737877743699
 20
-95.1423739926413
 30
0.0
  0
SPLINE
  5
12C
330
1F
100
AcDbEntity
  8
0
  6
Continuous
 62
     7
370
    25
100
AcDbSpline
210
0.0
220
0.0
230
1.0
 70
     8
 71
     3
 72
    11
 73
     7
 74
     0
 42
0.000000001
 43
0.00000001
 40
0.0
 40
0.0
 40
0.0
 40
0.0
 40
0.2553624799083913
 40
0.4995849470563051
 40
0.7474705143764573
 40
0.9999999999999999
 40
0.9999999999999999
 40
0.9999999999999999
 40
0.9999999999999999
 10
-1.791737877743699
 20
-95.1423739926413
 30
0.0
 10
-1.756449750013669
 20
-95.14083150214125
 30
0.0
 10
-1.687412914884084
 20
-95.13781381122963
 30
0.0
 10
-1.587013573289831
 20
-95.11121109904049
 30
0.0
 10
-1.493174948396077
 20
-95.06768128947101
 30
0.0
 10
-1.437736568831914
 20
-95.02626702541637
 30
0.0
 10
-1.409760141278853
 20
-95.00536772844745
 30
0.0
  0
SPLINE
  5
12D
330
1F
100
AcDbEntity
  8
0
  6
Continuous
 62
     7
370
    25
100
AcDbSpline
210
0.0
220
0.0
230
1.0
 70
     8
 71
     3
 72
    15
 73
    11
 74
     0
 42
0.000000001
 43
0.00000001
 40
0.0
 40
0.0
 40
0.0
 40
0.0
 40
0.1609387097667464
 40
0.3125198003347007
 40
0.4522231143341424
 40
0.5822023871794729
 40
0.7028295408342025
 40
0.8119700639783318
 40
0.911383102766785
 40
1.0
 40
1.0
 40
1.0
 40
1.0
 10
-1.409760141278853
 20
-95.00536772844745
 30
0.0
 10
-1.379648692605012
 20
-94.97132926612223
 30
0.0
 10
-1.321176595115388
 20
-94.90523147358371
 30
0.0
 10
-1.237151628388486
 20
-94.80907121762435
 30
0.0
 10
-1.159301730064545
 20
-94.71912641891836
 30
0.0
 10
-1.0867189150277
 20
-94.63618776119674
 30
0.0
 10
-1.020210723000174
 20
-94.55939355627815
 30
0.0
 10
-0.9609965709494738
 20
-94.48773649020507
 30
0.0
 10
-0.906994310954097
 20
-94.42350709836688
 30
0.0
 10
-0.8731236783605586
 20
-94.3826176027608
 30
0.0
 10
-0.8571607395260749
 20
-94.36334673394754
 30
0.0
  0
SPLINE
  5
12E
330
1F
100
AcDbEntity
  8
0
  6
Continuous
 62
     7
370
    25
100
AcDbSpline
210
0.0
220
0.0
230
1.0
 70
     8
 71
     3
 72
    15
 73
    11
 74
     0
 42
0.000000001
 43
0.00000001
 40
0.0
 40
0.0
 40
0.0
 40
0.0
 40
0.1464792088204643
 40
0.2868772184740052
 40
0.4211981283538097
 40
0.5489913480604403
 40
0.6707093481364752
 40
0.786980090837948
 40
0.8963287493584391
 40
0.9999999999999999
 40
0.9999999999999999
 40
0.9999999999999999
 40
0.9999999999999999
 10
-0.8571607395260749
 20
-94.36334673394754
 30
0.0
 10
-0.810934546168554
 20
-94.30962632413238
 30
0.0
 10
-0.7204012761036076
 20
-94.20441574942251
 30
0.0
 10
-0.588286270902287
 20
-94.04924908187374
 30
0.0
 10
-0.4635096693895445
 20
-93.89972142518853
 30
0.0
 10
-0.3430085745431132
 20
-93.7584104547298
 30
0.0
 10
-0.2296977479810876
 20
-93.62246098892693
 30
0.0
 10
-0.1225259135341979
 20
-93.4930156527989
 30
0.0
 10
-0.0216195378589592
 20
-93.369721918038
 30
0.0
 10
0.0437573112615012
 20
-93.29004488384398
 30
0.0
 10
0.0755745237370141
 20
-93.25126814314025
 30
0.0
  0
SPLINE
  5
12F
330
1F
100
AcDbEntity
  8
0
  6
Continuous
 62
     7
370
    25
100
AcDbSpline
210
0.0
220
0.0
230
1.0
 70
     8
 71
     3
 72
    11
 73
     7
 74
     0
 42
0.000000001
 43
0.00000001
 40
0.0
 40
0.0
 40
0.0
 40
0.0
 40
0.3115560314365536
 40
0.5832430202740828
 40
0.8123004750757532
 40
1.0
 40
1.0
 40
1.0
 40
1.0
 10
0.0755745237370141
 20
-93.25126814314025
 30
0.0
 10
0.1141926615487386
 20
-93.31026790286228
 30
0.0
 10
0.1864870710994866
 20
-93.42071737128398
 30
0.0
 10
0.2861119141886818
 20
-93.57523439436702
 30
0.0
 10
0.3721079692549715
 20
-93.70517654358187
 30
0.0
 10
0.4227126555440553
 20
-93.78477967567117
 30
0.0
 10
0.4455040568581982
 20
-93.8206314329362
 30
0.0
  0
SPLINE
  5
130
330
1F
100
AcDbEntity
  8
0
  6
Continuous
 62
     7
370
    25
100
AcDbSpline
210
0.0
220
0.0
230
1.0
 70
     8
 71
     3
 72
    15
 73
    11
 74
     0
 42
0.000000001
 43
0.00000001
 40
0.0
 40
0.0
 40
0.0
 40
0.0
 40
0.1617597590123752
 40
0.3119720474796518
 40
0.4532033684708215
 40
0.5828375533530396
 40
0.7035085818114934
 40
0.8126088605786254
 40
0.9114423726384184
 40
1.0
 40
1.0
 40
1.0
 40
1.0
 10
0.4455040568581982
 20
-93.8206314329362
 30
0.0
 10
0.4665966245780072
 20
-93.85522974358551
 30
0.0
 10
0.5072760344530595
 20
-93.92195651097504
 30
0.0
 10
0.5663282413224461
 20
-94.018914876744
 30
0.0
 10
0.6223084838437379
 20
-94.10832779755623
 30
0.0
 10
0.6712068637194092
 20
-94.19336623103081
 30
0.0
 10
0.7186275667290174
 20
-94.26990670969101
 30
0.0
 10
0.760158949487902
 20
-94.34098039198742
 30
0.0
 10
0.798524836346834
 20
-94.40457861000218
 30
0.0
 10
0.8218501229420861
 20
-94.44531640624923
 30
0.0
 10
0.8328732270482045
 20
-94.46456834415154
 30
0.0
  0
SPLINE
  5
131
330
1F
100
AcDbEntity
  8
0
  6
Continuous
 62
     7
370
    25
100
AcDbSpline
210
0.0
220
0.0
230
1.0
 70
     8
 71
     3
 72
    15
 73
    11
 74
     0
 42
0.000000001
 43
0.00000001
 40
0.0
 40
0.0
 40
0.0
 40
0.0
 40
0.1799415336082308
 40
0.3416746938752586
 40
0.4858647890775256
 40
0.6140255510316375
 40
0.7278926262135301
 40
0.827562954706917
 40
0.9175827817260266
 40
1.0
 40
1.0
 40
1.0
 40
1.0
 10
0.8328732270482045
 20
-94.46456834415154
 30
0.0
 10
0.8705711894563887
 20
-94.52379461770407
 30
0.0
 10
0.9421524386947142
 20
-94.63625402871193
 30
0.0
 10
1.054507084217268
 20
-94.78913135131863
 30
0.0
 10
1.164430129306358
 20
-94.91806988434621
 30
0.0
 10
1.270483661562488
 20
-95.02546093839129
 30
0.0
 10
1.37587411782418
 20
-95.10772273593908
 30
0.0
 10
1.477576790582566
 20
-95.16881443508085
 30
0.0
 10
1.578157306328265
 20
-95.2067213633028
 30
0.0
 10
1.645517412660953
 20
-95.21173980075038
 30
0.0
 10
1.677712539741361
 20
-95.21413839006634
 30
0.0
  0
SPLINE
  5
132
330
1F
100
AcDbEntity
  8
0
  6
Continuous
 62
     7
370
    25
100
AcDbSpline
210
0.0
220
0.0
230
1.0
 70
     8
 71
     3
 72
    15
 73
    11
 74
     0
 42
0.000000001
 43
0.00000001
 40
0.0
 40
0.0
 40
0.0
 40
0.0
 40
0.1372234975463108
 40
0.2688688196347366
 40
0.3982993247944744
 40
0.5299675218304314
 40
0.6570735824854399
 40
0.7745185394804823
 40
0.8868585749610225
 40
1.0
 40
1.0
 40
1.0
 40
1.0
 10
1.677712539741361
 20
-95.21413839006634
 30
0.0
 10
1.713677710826714
 20
-95.21242918733921
 30
0.0
 10
1.784146058235021
 20
-95.20908026147755
 30
0.0
 10
1.886356688327366
 20
-95.18429281811343
 30
0.0
 10
1.980052264098288
 20
-95.14065884703149
 30
0.0
 10
2.065017204764402
 20
-95.08373385805605
 30
0.0
 10
2.134759704746643
 20
-95.01328715975238
 30
0.0
 10
2.188652440613531
 20
-94.93612990448604
 30
0.0
 10
2.220079732649115
 20
-94.85047416830514
 30
0.0
 10
2.224109271412318
 20
-94.79131840565586
 30
0.0
 10
2.2261312015385
 20
-94.76163540080931
 30
0.0
  0
SPLINE
  5
133
330
1F
100
AcDbEntity
  8
0
  6
Continuous
 62
     7
370
    25
100
AcDbSpline
210
0.0
220
0.0
230
1.0
 70
     8
 71
     3
 72
    11
 73
     7
 74
     0
 42
0.000000001
 43
0.00000001
 40
0.0
 40
0.0
 40
0.0
 40
0.0
 40
0.2400354279494449
 40
0.4788552951080807
 40
0.7298254568192184
 40
0.9999999999999999
 40
0.9999999999999999
 40
0.9999999999999999
 40
0.9999999999999999
 10
2.2261312015385
 20
-94.76163540080931
 30
0.0
 10
2.224909491318865
 20
-94.73535480056327
 30
0.0
 10
2.222472257728981
 20
-94.68292668737206
 30
0.0
 10
2.19678905535699
 20
-94.60686616247379
 30
0.0
 10
2.160678527349111
 20
-94.53175602661568
 30
0.0
 10
2.124598122091943
 20
-94.48755652235278
 30
0.0
 10
2.105893131104553
 20
-94.46464238591244
 30
0.0
  0
SPLINE
  5
134
330
1F
100
AcDbEntity
  8
0
  6
Continuous
 62
     7
370
    25
100
AcDbSpline
210
0.0
220
0.0
230
1.0
 70
     8
 71
     3
 72
    11
 73
     7
 74
     0
 42
0.000000001
 43
0.00000001
 40
0.0
 40
0.0
 40
0.0
 40
0.0
 40
0.2179538536356755
 40
0.4571577749432347
 40
0.7177931385285079
 40
1.0
 40
1.0
 40
1.0
 40
1.0
 10
2.105893131104549
 20
-94.46464238591244
 30
0.0
 10
2.049991651249611
 20
-94.39975975884579
 30
0.0
 10
1.932738408325842
 20
-94.26366857749032
 30
0.0
 10
1.757342860711136
 20
-94.04274183467787
 30
0.0
 10
1.571340343910557
 20
-93.79813449556191
 30
0.0
 10
1.446789060902988
 20
-93.62498097272436
 30
0.0
 10
1.382038706108583
 20
-93.53496381861001
 30
0.0
  0
SPLINE
  5
136
330
1F
100
AcDbEntity
  8
0
  6
Continuous
 62
     7
370
    25
100
AcDbSpline
210
0.0
220
0.0
230
1.0
 70
     8
 71
     3
 72
    15
 73
    11
 74
     0
 42
0.000000001
 43
0.00000001
 40
0.0
 40
0.0
 40
0.0
 40
0.0
 40
0.1622170392521
 40
0.3136735993967563
 40
0.4543708657770026
 40
0.5841992285916802
 40
0.7043298813668699
 40
0.8136202371245664
 40
0.9121743341390272
 40
1.0
 40
1.0
 40
1.0
 40
1.0
 10
0.6994317462017003
 20
-92.57256128985865
 30
0.0
 10
0.7440534567985405
 20
-92.51605498337152
 30
0.0
 10
0.8303369485863661
 20
-92.40679065068387
 30
0.0
 10
0.9544967890337993
 20
-92.24787417103225
 30
0.0
 10
1.070545054398419
 20
-92.10084063679419
 30
0.0
 10
1.173640188939289
 20
-91.96140869536373
 30
0.0
 10
1.2715723323723
 20
-91.83554979959
 30
0.0
 10
1.356773231749103
 20
-91.71749787687642
 30
0.0
 10
1.433636723388704
 20
-91.61113086760186
 30
0.0
 10
1.481075101950848
 20
-91.54335763926716
 30
0.0
 10
1.503428962264373
 20
-91.51142161351945
 30
0.0
  0
SPLINE
  5
137
330
1F
100
AcDbEntity
  8
0
  6
Continuous
 62
     7
370
    25
100
AcDbSpline
210
0.0
220
0.0
230
1.0
 70
     8
 71
     3
 72
    15
 73
    11
 74
     0
 42
0.000000001
 43
0.00000001
 40
0.0
 40
0.0
 40
0.0
 40
0.0
 40
0.0994936247352672
 40
0.2055078602951843
 40
0.3197179692777483
 40
0.4406433910811928
 40
0.5698099038983645
 40
0.7055317082635864
 40
0.849205340124082
 40
1.0
 40
1.0
 40
1.0
 40
1.0
 10
1.503428962264374
 20
-91.51142161351945
 30
0.0
 10
1.5244321968566
 20
-91.48290132351302
 30
0.0
 10
1.567815175532977
 20
-91.42399158140826
 30
0.0
 10
1.636204997793413
 20
-91.33301131420542
 30
0.0
 10
1.710177186499379
 20
-91.23667657633926
 30
0.0
 10
1.792193377102597
 20
-91.1361987754138
 30
0.0
 10
1.879753408306248
 20
-91.03038418909692
 30
0.0
 10
1.972439461047845
 20
-90.91829035995458
 30
0.0
 10
2.072138389549241
 20
-90.8020323163167
 30
0.0
 10
2.141239509268964
 20
-90.72320195966185
 30
0.0
 10
2.176625593739177
 20
-90.68283361728595
 30
0.0
  0
SPLINE
  5
138
330
1F
100
AcDbEntity
  8
0
  6
Continuous
 62
     7
370
    25
100
AcDbSpline
210
0.0
220
0.0
230
1.0
 70
     8
 71
     3
 72
    15
 73
    11
 74
     0
 42
0.000000001
 43
0.00000001
 40
0.0
 40
0.0
 40
0.0
 40
0.0
 40
0.1917733604152492
 40
0.3635313456523702
 40
0.516817976424665
 40
0.6502995038689732
 40
0.7654266826161273
 40
0.8629244523506585
 40
0.9403052461787976
 40
1.0
 40
1.0
 40
1.0
 40
1.0
 10
77.89692587324988
 20
47.07316539936073
 30
0.0
 10
77.86277924896169
 20
47.07078646395706
 30
0.0
 10
77.79804988170187
 20
47.06627688250819
 30
0.0
 10
77.70637765725563
 20
47.05610434498939
 30
0.0
 10
77.62492198826635
 20
47.04794658253599
 30
0.0
 10
77.5541358525612
 20
47.03639294766192
 30
0.0
 10
77.49302699329604
 20
47.02696691572385
 30
0.0
 10
77.44289872189695
 20
47.01408197998218
 30
0.0
 10
77.40259083806494
 20
47.00227397230906
 30
0.0
 10
77.38061390942693
 20
46.99143968913233
 30
0.0
 10
77.37104322109272
 20
46.98672148899995
 30
0.0
  0
SPLINE
  5
139
330
1F
100
AcDbEntity
  8
0
  6
Continuous
 62
     7
370
    25
100
AcDbSpline
210
0.0
220
0.0
230
1.0
 70
     8
 71
     3
 72
    11
 73
     7
 74
     0
 42
0.000000001
 43
0.00000001
 40
0.0
 40
0.0
 40
0.0
 40
0.0
 40
0.2568478676959582
 40
0.5011361000783245
 40
0.7437191108174181
 40
1.0
 40
1.0
 40
1.0
 40
1.0
 10
77.37104322109272
 20
46.98672148899995
 30
0.0
 10
77.34476776472007
 20
46.9699816073469
 30
0.0
 10
77.29350169873133
 20
46.93732040956226
 30
0.0
 10
77.23425005010463
 20
46.86854328745509
 30
0.0
 10
77.18957746017009
 20
46.78977029028015
 30
0.0
 10
77.17491567555388
 20
46.73110530957335
 30
0.0
 10
77.16738349052497
 20
46.70096740337933
 30
0.0
  0
SPLINE
  5
13A
330
1F
100
AcDbEntity
  8
0
  6
Continuous
 62
     7
370
    25
100
AcDbSpline
210
0.0
220
0.0
230
1.0
 70
     8
 71
     3
 72
    11
 73
     7
 74
     0
 42
0.000000001
 43
0.00000001
 40
0.0
 40
0.0
 40
0.0
 40
0.0
 40
0.2568630851445611
 40
0.5022881763937268
 40
0.7489880374907563
 40
1.0
 40
1.0
 40
1.0
 40
1.0
 10
77.16738349052497
 20
46.70096740337933
 30
0.0
 10
77.16330330218007
 20
46.67247999279486
 30
0.0
 10
77.1553246143825
 20
46.61677370278979
 30
0.0
 10
77.1587801958753
 20
46.53235102918519
 30
0.0
 10
77.1812509320179
 20
46.45152017070865
 30
0.0
 10
77.20623480952075
 20
46.40165826179057
 30
0.0
 10
77.21883497657657
 20
46.37651130924021
 30
0.0
  0
SPLINE
  5
13B
330
1F
100
AcDbEntity
  8
0
  6
Continuous
 62
     7
370
    25
100
AcDbSpline
210
0.0
220
0.0
230
1.0
 70
     8
 71
     3
 72
    15
 73
    11
 74
     0
 42
0.000000001
 43
0.00000001
 40
0.0
 40
0.0
 40
0.0
 40
0.0
 40
0.1305878572295457
 40
0.2527448716881615
 40
0.3713967853300421
 40
0.4874018549268708
 40
0.6050969370185934
 40
0.7278262404528524
 40
0.8595071054133725
 40
1.0
 40
1.0
 40
1.0
 40
1.0
 10
77.21883497657657
 20
46.37651130924021
 30
0.0
 10
77.23141885865061
 20
46.35660224477097
 30
0.0
 10
77.2557741986311
 20
46.31806945886376
 30
0.0
 10
77.30053145183889
 20
46.26784637125442
 30
0.0
 10
77.35082684039256
 20
46.22743533119633
 30
0.0
 10
77.40617544583016
 20
46.19566190629386
 30
0.0
 10
77.46729033891931
 20
46.1749362918848
 30
0.0
 10
77.53329482923759
 20
46.16235426064294
 30
0.0
 10
77.60465973550149
 20
46.15876222823169
 30
0.0
 10
77.6534825060717
 20
46.16383187265991
 30
0.0
 10
77.67868424620474
 20
46.16644876350724
 30
0.0
  0
SPLINE
  5
13C
330
1F
100
AcDbEntity
  8
0
  6
Continuous
 62
     7
370
    25
100
AcDbSpline
210
0.0
220
0.0
230
1.0
 70
     8
 71
     3
 72
    15
 73
    11
 74
     0
 42
0.000000001
 43
0.00000001
 40
0.0
 40
0.0
 40
0.0
 40
0.0
 40
0.1616103604228212
 40
0.3128164541803371
 40
0.4541353530097731
 40
0.584375449417593
 40
0.7035392510136327
 40
0.8128163915492221
 40
0.9122069785755629
 40
1.0
 40
1.0
 40
1.0
 40
1.0
 10
77.67868424620474
 20
46.16644876350724
 30
0.0
 10
77.71847166359254
 20
46.17077450723308
 30
0.0
 10
77.7954850357284
 20
46.17914750888024
 30
0.0
 10
77.90714389994483
 20
46.19258285283822
 30
0.0
 10
78.01111166630669
 20
46.20489430620309
 30
0.0
 10
78.10724359520299
 20
46.21590179306271
 30
0.0
 10
78.19555671206325
 20
46.22542176897441
 30
0.0
 10
78.27626102949304
 20
46.23424114529485
 30
0.0
 10
78.34928044982611
 20
46.24187057130953
 30
0.0
 10
78.39533170906252
 20
46.24716697123075
 30
0.0
 10
78.41693071135887
 20
46.24965109340154
 30
0.0
  0
SPLINE
  5
13D
330
1F
100
AcDbEntity
  8
0
  6
Continuous
 62
     7
370
    25
100
AcDbSpline
210
0.0
220
0.0
230
1.0
 70
     8
 71
     3
 72
    15
 73
    11
 74
     0
 42
0.000000001
 43
0.00000001
 40
0.0
 40
0.0
 40
0.0
 40
0.0
 40
0.1616231365861336
 40
0.3126656104123509
 40
0.452882125426964
 40
0.5830402078443463
 40
0.7033905570985421
 40
0.812397564446871
 40
0.911097550348578
 40
0.9999999999999999
 40
0.9999999999999999
 40
0.9999999999999999
 40
0.9999999999999999
 10
78.41693071135887
 20
46.24965109340154
 30
0.0
 10
78.50677402626057
 20
46.25743218352019
 30
0.0
 10
78.68057906116192
 20
46.27248497449436
 30
0.0
 10
78.9324418740794
 20
46.29293242624772
 30
0.0
 10
79.16677615412472
 20
46.31230832200007
 30
0.0
 10
79.38407147939365
 20
46.32995687004937
 30
0.0
 10
79.58414634285403
 20
46.34443541996351
 30
0.0
 10
79.76677366999641
 20
46.35675867866843
 30
0.0
 10
79.93181493435124
 20
46.36909096988492
 30
0.0
 10
80.03632054169495
 20
46.37507586894205
 30
0.0
 10
80.08584444295865
 20
46.37791203780907
 30
0.0
  0
SPLINE
  5
13E
330
1F
100
AcDbEntity
  8
0
  6
Continuous
 62
     7
370
    25
100
AcDbSpline
210
0.0
220
0.0
230
1.0
 70
     8
 71
     3
 72
    15
 73
    11
 74
     0
 42
0.000000001
 43
0.00000001
 40
0.0
 40
0.0
 40
0.0
 40
0.0
 40
0.1008965079273009
 40
0.2082084069713298
 40
0.3228658048672324
 40
0.4447167447931376
 40
0.5725837863619415
 40
0.7076942586211183
 40
0.850802837159803
 40
1.0
 40
1.0
 40
1.0
 40
1.0
 10
80.08584444295865
 20
46.37791203780907
 30
0.0
 10
80.07172112910187
 20
46.34332276519748
 30
0.0
 10
80.04257648634189
 20
46.2719448999304
 30
0.0
 10
79.99582073589197
 20
46.16188869402289
 30
0.0
 10
79.94170212902617
 20
46.04662833670988
 30
0.0
 10
79.88328078515099
 20
45.92500234886209
 30
0.0
 10
79.81919162120924
 20
45.7977173268367
 30
0.0
 10
79.75025985616212
 20
45.66407027213175
 30
0.0
 10
79.67554283424168
 20
45.5245354792898
 30
0.0
 10
79.6231675583749
 20
45.42980900682442
 30
0.0
 10
79.5964344448704
 20
45.38145921776099
 30
0.0
  0
SPLINE
  5
13F
330
1F
100
AcDbEntity
  8
0
  6
Continuous
 62
     7
370
    25
100
AcDbSpline
210
0.0
220
0.0
230
1.0
 70
     8
 71
     3
 72
    23
 73
    19
 74
     0
 42
0.000000001
 43
0.00000001
 40
0.0
 40
0.0
 40
0.0
 40
0.0
 40
0.1165520795813553
 40
0.2256783472470636
 40
0.3270867404308901
 40
0.4222576777430895
 40
0.5097132576197578
 40
0.5904814680494422
 40
0.6635316018985871
 40
0.7291557728726976
 40
0.7882539353306643
 40
0.8399226879240731
 40
0.8846146710261148
 40
0.9218811815225482
 40
0.9521692604336746
 40
0.9754796763499392
 40
0.9910867938381915
 40
1.0
 40
1.0
 40
1.0
 40
1.0
 10
79.5964344448704
 20
45.38145921776099
 30
0.0
 10
79.57574235976656
 20
45.34344177479418
 30
0.0
 10
79.53567653181992
 20
45.26982907113304
 30
0.0
 10
79.47638987019117
 20
45.1638077125205
 30
0.0
 10
79.42248491234938
 20
45.06388989825592
 30
0.0
 10
79.37117045036929
 20
44.9717283763578
 30
0.0
 10
79.32546113548536
 20
44.88523985092906
 30
0.0
 10
79.28122381731129
 20
44.8073106078562
 30
0.0
 10
79.24290937487488
 20
44.73537914445863
 30
0.0
 10
79.20655644350218
 20
44.67154958011847
 30
0.0
 10
79.17625689741344
 20
44.61346250970286
 30
0.0
 10
79.14810480843086
 20
44.56305593754573
 30
0.0
 10
79.12485070618393
 20
44.51921241148904
 30
0.0
 10
79.10415160848537
 20
44.48302354999833
 30
0.0
 10
79.08803470912109
 20
44.45338175348844
 30
0.0
 10
79.07508938870109
 20
44.4311574670045
 30
0.0
 10
79.06793341910988
 20
44.41484850788594
 30
0.0
 10
79.06311110324795
 20
44.40711460727527
 30
0.0
 10
79.06135817795756
 20
44.40430331279313
 30
0.0
  0
SPLINE
  5
141
330
1F
100
AcDbEntity
  8
0
  6
Continuous
 62
     7
370
    25
100
AcDbSpline
210
0.0
220
0.0
230
1.0
 70
     8
 71
     3
 72
    11
 73
     7
 74
     0
 42
0.000000001
 43
0.00000001
 40
0.0
 40
0.0
 40
0.0
 40
0.0
 40
0.2840675575820641
 40
0.5362929600324877
 40
0.7704250294455954
 40
1.0
 40
1.0
 40
1.0
 40
1.0
 10
78.84809977331206
 20
43.99049869243458
 30
0.0
 10
78.834173047489
 20
43.9485275905125
 30
0.0
 10
78.80788069267454
 20
43.86929007857271
 30
0.0
 10
78.79520307887627
 20
43.74940734437705
 30
0.0
 10
78.80943549163989
 20
43.63733681596672
 30
0.0
 10
78.84095940340585
 20
43.57215018003367
 30
0.0
 10
78.85656645805815
 20
43.53987717415927
 30
0.0
  0
SPLINE
  5
142
330
1F
100
AcDbEntity
  8
0
  6
Continuous
 62
     7
370
    25
100
AcDbSpline
210
0.0
220
0.0
230
1.0
 70
     8
 71
     3
 72
    11
 73
     7
 74
     0
 42
0.000000001
 43
0.00000001
 40
0.0
 40
0.0
 40
0.0
 40
0.0
 40
0.2534632684154429
 40
0.5004538092939792
 40
0.7447301702666487
 40
1.0
 40
1.0
 40
1.0
 40
1.0
 10
78.85656645805815
 20
43.53987717415927
 30
0.0
 10
78.87274570641172
 20
43.51490322694139
 30
0.0
 10
78.9046910313524
 20
43.46559309574789
 30
0.0
 10
78.96680133380171
 20
43.40343108262201
 30
0.0
 10
79.03961885150262
 20
43.35378008333522
 30
0.0
 10
79.09417266015339
 20
43.33220033087939
 30
0.0
 10
79.12204984489559
 20
43.32117300280126
 30
0.0
  0
SPLINE
  5
143
330
1F
100
AcDbEntity
  8
0
  6
Continuous
 62
     7
370
    25
100
AcDbSpline
210
0.0
220
0.0
230
1.0
 70
     8
 71
     3
 72
    11
 73
     7
 74
     0
 42
0.000000001
 43
0.00000001
 40
0.0
 40
0.0
 40
0.0
 40
0.0
 40
0.2596418608646816
 40
0.5054998336212788
 40
0.7485799879823998
 40
1.0
 40
1.0
 40
1.0
 40
1.0
 10
79.12204984489557
 20
43.32117300280126
 30
0.0
 10
79.15234297148416
 20
43.31256269685518
 30
0.0
 10
79.21132102070706
 20
43.29579918958147
 30
0.0
 10
79.302796499765
 20
43.29402611160862
 30
0.0
 10
79.39126726763354
 20
43.31283413166068
 30
0.0
 10
79.44499671193928
 20
43.33946160886592
 30
0.0
 10
79.47231451373494
 20
43.35299988669497
 30
0.0
  0
SPLINE
  5
144
330
1F
100
AcDbEntity
  8
0
  6
Continuous
 62
     7
370
    25
100
AcDbSpline
210
0.0
220
0.0
230
1.0
 70
     8
 71
     3
 72
    11
 73
     7
 74
     0
 42
0.000000001
 43
0.00000001
 40
0.0
 40
0.0
 40
0.0
 40
0.0
 40
0.2458344514642035
 40
0.4887538301338153
 40
0.7416207157049439
 40
0.9999999999999999
 40
0.9999999999999999
 40
0.9999999999999999
 40
0.9999999999999999
 10
79.47231451373496
 20
43.35299988669497
 30
0.0
 10
79.48932124425757
 20
43.36355817183231
 30
0.0
 10
79.52313304171511
 20
43.38454954334184
 30
0.0
 10
79.56747219705558
 20
43.42579357144206
 30
0.0
 10
79.6071358313762
 20
43.47276808587419
 30
0.0
 10
79.62863991893022
 20
43.50837832208206
 30
0.0
 10
79.63950789424058
 20
43.52637541993293
 30
0.0
  0
SPLINE
  5
145
330
1F
100
AcDbEntity
  8
0
  6
Continuous
 62
     7
370
    25
100
AcDbSpline
210
0.0
220
0.0
230
1.0
 70
     8
 71
     3
 72
    15
 73
    11
 74
     0
 42
0.000000001
 43
0.00000001
 40
0.0
 40
0.0
 40
0.0
 40
0.0
 40
0.1613828732243198
 40
0.3120467668630773
 40
0.4529442078986753
 40
0.5829751862129702
 40
0.7027023951358886
 40
0.8122496267815178
 40
0.9113484012425938
 40
1.0
 40
1.0
 40
1.0
 40
1.0
 10
79.63950789424058
 20
43.52637541993293
 30
0.0
 10
79.6874657951648
 20
43.6194451160444
 30
0.0
 10
79.78019625428936
 20
43.79940285991319
 30
0.0
 10
79.91543926176176
 20
44.06028389037388
 30
0.0
 10
80.04071713946932
 20
44.30342152926364
 30
0.0
 10
80.15501231114172
 20
44.52963134010427
 30
0.0
 10
80.26217577689387
 20
44.73664583834201
 30
0.0
 10
80.3579470060009
 20
44.92694346138731
 30
0.0
 10
80.44455440553675
 20
45.09928092891072
 30
0.0
 10
80.4986105266332
 20
45.20843479715028
 30
0.0
 10
80.5241346386532
 20
45.25997485411053
 30
0.0
  0
SPLINE
  5
146
330
1F
100
AcDbEntity
  8
0
  6
Continuous
 62
     7
370
    25
100
AcDbSpline
210
0.0
220
0.0
230
1.0
 70
     8
 71
     3
 72
    15
 73
    11
 74
     0
 42
0.000000001
 43
0.00000001
 40
0.0
 40
0.0
 40
0.0
 40
0.0
 40
0.1611035651899517
 40
0.3120965978698947
 40
0.451970917864161
 40
0.5823447155864727
 40
0.7020082152410947
 40
0.8115716361208644
 40
0.9110399762352503
 40
1.0
 40
1.0
 40
1.0
 40
1.0
 10
80.5241346386532
 20
45.25997485411053
 30
0.0
 10
80.55624039456444
 20
45.3233798415285
 30
0.0
 10
80.61843701436071
 20
45.44621064814535
 30
0.0
 10
80.70773789236158
 20
45.6244802787803
 30
0.0
 10
80.79044647865067
 20
45.79088757127855
 30
0.0
 10
80.8672894665148
 20
45.9447789709451
 30
0.0
 10
80.93646279567852
 20
46.08754157607502
 30
0.0
 10
80.99919477682727
 20
46.21827322439049
 30
0.0
 10
81.05489399727479
 20
46.33734905266173
 30
0.0
 10
81.09001945881194
 20
46.41268721494236
 30
0.0
 10
81.10660274717023
 20
46.44825555809889
 30
0.0
  0
SPLINE
  5
147
330
1F
100
AcDbEntity
  8
0
  6
Continuous
 62
     7
370
    25
100
AcDbSpline
210
0.0
220
0.0
230
1.0
 70
     8
 71
     3
 72
    23
 73
    19
 74
     0
 42
0.000000001
 43
0.00000001
 40
0.0
 40
0.0
 40
0.0
 40
0.0
 40
0.1099259285927657
 40
0.2135254802904317
 40
0.3102500418098868
 40
0.4015251399448933
 40
0.4862408855898945
 40
0.5637820354845651
 40
0.635887526480906
 40
0.7014350301952017
 40
0.7606994555236783
 40
0.8131281689376948
 40
0.8601618507505767
 40
0.9004004397878692
 40
0.9341188647646295
 40
0.9623246867960589
 40
0.9839581166279243
 40
1.0
 40
1.0
 40
1.0
 40
1.0
 10
81.10660274717023
 20
46.44825555809888
 30
0.0
 10
81.1620738526302
 20
46.4478878397234
 30
0.0
 10
81.26982363093286
 20
46.44717356563229
 30
0.0
 10
81.42638523249441
 20
46.44771961526563
 30
0.0
 10
81.5735344595917
 20
46.44849978195207
 30
0.0
 10
81.71113730488307
 20
46.45074904461637
 30
0.0
 10
81.83907660221223
 20
46.45176931439596
 30
0.0
 10
81.95730259562447
 20
46.45511133526633
 30
0.0
 10
82.06581246207323
 20
46.45933968172242
 30
0.0
 10
82.16513142012656
 20
46.46264550841546
 30
0.0
 10
82.2544380259193
 20
46.46768438462292
 30
0.0
 10
82.33433730725837
 20
46.47329717797186
 30
0.0
 10
82.40458894198548
 20
46.4793752910337
 30
0.0
 10
82.46517946965058
 20
46.4868313554483
 30
0.0
 10
82.51639463592687
 20
46.49305952668774
 30
0.0
 10
82.55770070700399
 20
46.50155648423061
 30
0.0
 10
82.5899140415717
 20
46.51023333561097
 30
0.0
 10
82.60723858179166
 20
46.51812588104647
 30
0.0
 10
82.61461524916476
 20
46.52148647138051
 30
0.0
  0
SPLINE
  5
148
330
1F
100
AcDbEntity
  8
0
  6
Continuous
 62
     7
370
    25
100
AcDbSpline
210
0.0
220
0.0
230
1.0
 70
     8
 71
     3
 72
    11
 73
     7
 74
     0
 42
0.000000001
 43
0.00000001
 40
0.0
 40
0.0
 40
0.0
 40
0.0
 40
0.2505997773508185
 40
0.4945052940320166
 40
0.7383825923389997
 40
1.0
 40
1.0
 40
1.0
 40
1.0
 10
82.61461524916476
 20
46.52148647138051
 30
0.0
 10
82.64040355350673
 20
46.53841272882879
 30
0.0
 10
82.6912912803676
 20
46.57181309336549
 30
0.0
 10
82.75079110423977
 20
46.64138502717903
 30
0.0
 10
82.79513654421002
 20
46.72282546395653
 30
0.0
 10
82.80981056776503
 20
46.78325775607814
 30
0.0
 10
82.81740506867092
 20
46.81453432419488
 30
0.0
  0
SPLINE
  5
149
330
1F
100
AcDbEntity
  8
0
  6
Continuous
 62
     7
370
    25
100
AcDbSpline
210
0.0
220
0.0
230
1.0
 70
     8
 71
     3
 72
    11
 73
     7
 74
     0
 42
0.000000001
 43
0.00000001
 40
0.0
 40
0.0
 40
0.0
 40
0.0
 40
0.2532192061797474
 40
0.4999143001575824
 40
0.7453735937821149
 40
1.0
 40
1.0
 40
1.0
 40
1.0
 10
82.81740506867092
 20
46.81453432419488
 30
0.0
 10
82.82122993822308
 20
46.84389755875348
 30
0.0
 10
82.82878113078152
 20
46.90186749348389
 30
0.0
 10
82.82043607997662
 20
46.98897623948684
 30
0.0
 10
82.79856242383514
 20
47.07385457232797
 30
0.0
 10
82.7718424322329
 20
47.12587036079225
 30
0.0
 10
82.75823753323662
 20
47.15235500789859
 30
0.0
  0
SPLINE
  5
14A
330
1F
100
AcDbEntity
  8
0
  6
Continuous
 62
     7
370
    25
100
AcDbSpline
210
0.0
220
0.0
230
1.0
 70
     8
 71
     3
 72
    15
 73
    11
 74
     0
 42
0.000000001
 43
0.00000001
 40
0.0
 40
0.0
 40
0.0
 40
0.0
 40
0.1131980866530576
 40
0.2265957586858699
 40
0.3397938453389331
 40
0.4586946346184116
 40
0.5806127051142097
 40
0.7109684313119533
 40
0.849976419166778
 40
1.0
 40
1.0
 40
1.0
 40
1.0
 10
82.75823753323662
 20
47.15235500789859
 30
0.0
 10
82.74680381195355
 20
47.16993876632424
 30
0.0
 10
82.72391621000436
 20
47.20513728600615
 30
0.0
 10
82.68225378653506
 20
47.25269852782159
 30
0.0
 10
82.63235746320699
 20
47.29314330262951
 30
0.0
 10
82.57598302089879
 20
47.32696377428748
 30
0.0
 10
82.51307982995485
 20
47.3549276726037
 30
0.0
 10
82.44423279739115
 20
47.37801110351555
 30
0.0
 10
82.36779558903262
 20
47.3927253898516
 30
0.0
 10
82.31458699667006
 20
47.39849308714883
 30
0.0
 10
82.28696875554309
 20
47.40148684525497
 30
0.0
  0
SPLINE
  5
14B
330
1F
100
AcDbEntity
  8
0
  6
Continuous
 62
     7
370
    25
100
AcDbSpline
210
0.0
220
0.0
230
1.0
 70
     8
 71
     3
 72
    23
 73
    19
 74
     0
 42
0.000000001
 43
0.00000001
 40
0.0
 40
0.0
 40
0.0
 40
0.0
 40
0.0111077491742613
 40
0.0286499683122536
 40
0.053060271983011
 40
0.084338817499475
 40
0.1224856772033309
 40
0.1678382079667241
 40
0.219721798151767
 40
0.278806376669495
 40
0.3447577346659503
 40
0.4171713997991732
 40
0.4976050760057291
 40
0.5837507080966831
 40
0.6779183432453677
 40
0.7785465741004458
 40
0.8856387228029545
 40
1.0
 40
1.0
 40
1.0
 40
1.0
 10
82.28696875554309
 20
47.40148684525497
 30
0.0
 10
82.2827814617088
 20
47.40172028394618
 30
0.0
 10
82.27198126863776
 20
47.40232238712662
 30
0.0
 10
82.2519539095683
 20
47.40148966077327
 30
0.0
 10
82.22432213565092
 20
47.40137800207108
 30
0.0
 10
82.18891345809222
 20
47.40080166724204
 30
0.0
 10
82.14558994708128
 20
47.40089720957269
 30
0.0
 10
82.09455239805189
 20
47.39805298436156
 30
0.0
 10
82.03553738576242
 20
47.39873475681129
 30
0.0
 10
81.96881424319284
 20
47.39602530480654
 30
0.0
 10
81.89430957568985
 20
47.39471714448414
 30
0.0
 10
81.81180187063987
 20
47.39135706650988
 30
0.0
 10
81.72162886405354
 20
47.38941268229549
 30
0.0
 10
81.62327998363611
 20
47.3861480709333
 30
0.0
 10
81.5172756022202
 20
47.38408872295967
 30
0.0
 10
81.40339791153424
 20
47.38066679287946
 30
0.0
 10
81.28194001965288
 20
47.37592876313465
 30
0.0
 10
81.19839019347467
 20
47.37391814350794
 30
0.0
 10
81.15524403399434
 20
47.37287983476408
 30
0.0
  0
SPLINE
  5
14C
330
1F
100
AcDbEntity
  8
0
  6
Continuous
 62
     7
370
    25
100
AcDbSpline
210
0.0
220
0.0
230
1.0
 70
     8
 71
     3
 72
    15
 73
    11
 74
     0
 42
0.000000001
 43
0.00000001
 40
0.0
 40
0.0
 40
0.0
 40
0.0
 40
0.0972087084602969
 40
0.201966164223401
 40
0.3148209753784343
 40
0.4357966891830101
 40
0.5648859793465126
 40
0.7016032110361767
 40
0.8469753661875046
 40
0.9999999999999999
 40
0.9999999999999999
 40
0.9999999999999999
 40
0.9999999999999999
 10
81.15524403399434
 20
47.37287983476408
 30
0.0
 10
81.10176482168445
 20
47.3712208932868
 30
0.0
 10
80.99065346605596
 20
47.36777418514568
 30
0.0
 10
80.81768890548737
 20
47.35727420967761
 30
0.0
 10
80.63163363572527
 20
47.34661584009738
 30
0.0
 10
80.43259599997317
 20
47.32967556940541
 30
0.0
 10
80.22040142934803
 20
47.31260313140105
 30
0.0
 10
79.99521469861162
 20
47.29005529354232
 30
0.0
 10
79.75689783862427
 20
47.26647197271321
 30
0.0
 10
79.59372483453154
 20
47.2478262378994
 30
0.0
 10
79.51004602121026
 20
47.23826428265196
 30
0.0
  0
SPLINE
  5
14D
330
1F
100
AcDbEntity
  8
0
  6
Continuous
 62
     7
370
    25
100
AcDbSpline
210
0.0
220
0.0
230
1.0
 70
     8
 71
     3
 72
    15
 73
    11
 74
     0
 42
0.000000001
 43
0.00000001
 40
0.0
 40
0.0
 40
0.0
 40
0.0
 40
0.1832294725851087
 40
0.349669190951147
 40
0.499319563266417
 40
0.6329669926470518
 40
0.7495833747333887
 40
0.8496581191238316
 40
0.9329496840914981
 40
1.0
 40
1.0
 40
1.0
 40
1.0
 10
79.51004602121026
 20
47.23826428265196
 30
0.0
 10
79.41160000275431
 20
47.2274199440305
 30
0.0
 10
79.22372880965317
 20
47.2067249594373
 30
0.0
 10
78.95538952447546
 20
47.17776177024685
 30
0.0
 10
78.71370100746361
 20
47.15160894981381
 30
0.0
 10
78.49858962460277
 20
47.13026464462653
 30
0.0
 10
78.31030228120648
 20
47.11002007109969
 30
0.0
 10
78.14884975952356
 20
47.0949610845739
 30
0.0
 10
78.01403132187771
 20
47.08288127539124
 30
0.0
 10
77.93304472866988
 20
47.07616206882177
 30
0.0
 10
77.89692587324988
 20
47.07316539936073
 30
0.0
  0
SPLINE
  5
14E
330
1F
100
AcDbEntity
  8
0
  6
Continuous
 62
     7
370
    25
100
AcDbSpline
210
0.0
220
0.0
230
1.0
 70
     8
 71
     3
 72
    15
 73
    11
 74
     0
 42
0.000000001
 43
0.00000001
 40
0.0
 40
0.0
 40
0.0
 40
0.0
 40
0.170363389201224
 40
0.3262975632507247
 40
0.4668429799247972
 40
0.5933827495072912
 40
0.7084045690763173
 40
0.8125610816897827
 40
0.9081712462541438
 40
1.0
 40
1.0
 40
1.0
 40
1.0
 10
-79.80885152009175
 20
43.97075765744149
 30
0.0
 10
-79.80534196394258
 20
43.93032551161883
 30
0.0
 10
-79.79862009943326
 20
43.85288568889174
 30
0.0
 10
-79.781153758154
 20
43.74293690704657
 30
0.0
 10
-79.75714016211921
 20
43.64499351753079
 30
0.0
 10
-79.72844146766799
 20
43.55845706991803
 30
0.0
 10
-79.6924633711051
 20
43.48407124124085
 30
0.0
 10
-79.6510690871082
 20
43.42140857758783
 30
0.0
 10
-79.60424993773962
 20
43.36922701162655
 30
0.0
 10
-79.56679085093084
 20
43.34464101701747
 30
0.0
 10
-79.54843915914175
 20
43.33259601982635
 30
0.0
  0
SPLINE
  5
14F
330
1F
100
AcDbEntity
  8
0
  6
Continuous
 62
     7
370
    25
100
AcDbSpline
210
0.0
220
0.0
230
1.0
 70
     8
 71
     3
 72
    23
 73
    19
 74
     0
 42
0.000000001
 43
0.00000001
 40
0.0
 40
0.0
 40
0.0
 40
0.0
 40
0.0430585255110614
 40
0.084833435512882
 40
0.1253367677955343
 40
0.1668381893581822
 40
0.2100699229309845
 40
0.2562546797772993
 40
0.3060578147442828
 40
0.3611273050777463
 40
0.4200732830617225
 40
0.4853447910221005
 40
0.5552496219336602
 40
0.6318720555962232
 40
0.7146215592234653
 40
0.803303753222278
 40
0.8983917137337016
 40
1.0
 40
1.0
 40
1.0
 40
1.0
 10
-79.54843915914175
 20
43.33259601982635
 30
0.0
 10
-79.53381454783
 20
43.32511673992874
 30
0.0
 10
-79.50500129874887
 20
43.3103811445653
 30
0.0
 10
-79.45896675080188
 20
43.29630138736156
 30
0.0
 10
-79.41175703159543
 20
43.29212515907185
 30
0.0
 10
-79.36388756716669
 20
43.29470208343089
 30
0.0
 10
-79.315198588546
 20
43.30655299404211
 30
0.0
 10
-79.26541501888258
 20
43.32517437327936
 30
0.0
 10
-79.21439853946386
 20
43.35233343385381
 30
0.0
 10
-79.16410564566364
 20
43.38946982394912
 30
0.0
 10
-79.11046570218296
 20
43.43188493027632
 30
0.0
 10
-79.05804665827094
 20
43.48425773729628
 30
0.0
 10
-79.00349002306552
 20
43.54374697906463
 30
0.0
 10
-78.94813181326828
 20
43.61142481103911
 30
0.0
 10
-78.89214669729006
 20
43.68761922100975
 30
0.0
 10
-78.83424755857072
 20
43.77108675060396
 30
0.0
 10
-78.7758085327001
 20
43.8628488336613
 30
0.0
 10
-78.73799985931633
 20
43.92757936449536
 30
0.0
 10
-78.71846885874331
 20
43.96101751298524
 30
0.0
  0
SPLINE
  5
150
330
1F
100
AcDbEntity
  8
0
  6
Continuous
 62
     7
370
    25
100
AcDbSpline
210
0.0
220
0.0
230
1.0
 70
     8
 71
     3
 72
    23
 73
    19
 74
     0
 42
0.000000001
 43
0.00000001
 40
0.0
 40
0.0
 40
0.0
 40
0.0
 40
0.0443133042895827
 40
0.0938731087181722
 40
0.1486794192455148
 40
0.2081689835502262
 40
0.2734683184082654
 40
0.3440141696935493
 40
0.4192429153564251
 40
0.5002818052608069
 40
0.5807569805613579
 40
0.6565493503284356
 40
0.7265316815917388
 40
0.7918310164497779
 40
0.8513205807544894
 40
0.9061268912818319
 40
0.9556866957104214
 40
1.0
 40
1.0
 40
1.0
 40
1.0
 10
-78.71846885874331
 20
43.96101751298524
 30
0.0
 10
-78.70750650283027
 20
43.97996807612088
 30
0.0
 10
-78.68428389632577
 20
44.02011286563778
 30
0.0
 10
-78.6475155718617
 20
44.08370262307676
 30
0.0
 10
-78.60676576891888
 20
44.15365159261195
 30
0.0
 10
-78.56297947113293
 20
44.23082526391616
 30
0.0
 10
-78.51438441985051
 20
44.31420280155074
 30
0.0
 10
-78.46192729433075
 20
44.4043289075197
 30
0.0
 10
-78.40643006109808
 20
44.50167913075391
 30
0.0
 10
-78.34727820850256
 20
44.60258335036496
 30
0.0
 10
-78.28924407318327
 20
44.70445500391487
 30
0.0
 10
-78.23270258989591
 20
44.80088054778798
 30
0.0
 10
-78.181202163063
 20
44.89155898973697
 30
0.0
 10
-78.13251821349861
 20
44.97456374506301
 30
0.0
 10
-78.08878579915444
 20
45.05176852172427
 30
0.0
 10
-78.04802334960573
 20
45.12171019073859
 30
0.0
 10
-78.0112578952536
 20
45.18530160501044
 30
0.0
 10
-77.98803495036141
 20
45.22544619918587
 30
0.0
 10
-77.97707243471065
 20
45.24439667010953
 30
0.0
  0
SPLINE
  5
151
330
1F
100
AcDbEntity
  8
0
  6
Continuous
 62
     7
370
    25
100
AcDbSpline
210
0.0
220
0.0
230
1.0
 70
     8
 71
     3
 72
    15
 73
    11
 74
     0
 42
0.000000001
 43
0.00000001
 40
0.0
 40
0.0
 40
0.0
 40
0.0
 40
0.0939632628488505
 40
0.2083016357243325
 40
0.3430952759243218
 40
0.4993475840601841
 40
0.6555998921960466
 40
0.790719897896762
 40
0.9060367371511591
 40
1.0
 40
1.0
 40
1.0
 40
1.0
 10
-77.97707243471065
 20
45.24439667010953
 30
0.0
 10
-77.95600853053766
 20
45.28027054432724
 30
0.0
 10
-77.90931319918215
 20
45.35979722797745
 30
0.0
 10
-77.82581397552741
 20
45.48670700450256
 30
0.0
 10
-77.72759460442548
 20
45.63688715031121
 30
0.0
 10
-77.61509765814822
 20
45.79984172215876
 30
0.0
 10
-77.50208690409927
 20
45.96263043270683
 30
0.0
 10
-77.40462622699893
 20
46.11400295092662
 30
0.0
 10
-77.32113528682915
 20
46.24160090865055
 30
0.0
 10
-77.27418244049566
 20
46.32147711880054
 30
0.0
 10
-77.25310139840329
 20
46.35734020016501
 30
0.0
  0
SPLINE
  5
152
330
1F
100
AcDbEntity
  8
0
  6
Continuous
 62
     7
370
    25
100
AcDbSpline
210
0.0
220
0.0
230
1.0
 70
     8
 71
     3
 72
    15
 73
    11
 74
     0
 42
0.000000001
 43
0.00000001
 40
0.0
 40
0.0
 40
0.0
 40
0.0
 40
0.1587899307213235
 40
0.2983721216378675
 40
0.4225905651820306
 40
0.5352049120319922
 40
0.6430465417737765
 40
0.7519704141920682
 40
0.8694992543334371
 40
1.0
 40
1.0
 40
1.0
 40
1.0
 10
-77.25310139840329
 20
46.35734020016501
 30
0.0
 10
-77.22882287499468
 20
46.402356994548
 30
0.0
 10
-77.18320263631364
 20
46.48694520734199
 30
0.0
 10
-77.13708459015366
 20
46.61554665447494
 30
0.0
 10
-77.11588756712597
 20
46.73548650882469
 30
0.0
 10
-77.11966746887381
 20
46.8473296672338
 30
0.0
 10
-77.15012252876525
 20
46.95016043247678
 30
0.0
 10
-77.20682677515244
 20
47.0427492468454
 30
0.0
 10
-77.28802710134593
 20
47.12559217357381
 30
0.0
 10
-77.35568328488372
 20
47.16832532299875
 30
0.0
 10
-77.39128058014946
 20
47.19080936596673
 30
0.0
  0
SPLINE
  5
153
330
1F
100
AcDbEntity
  8
0
  6
Continuous
 62
     7
370
    25
100
AcDbSpline
210
0.0
220
0.0
230
1.0
 70
     8
 71
     3
 72
    11
 73
     7
 74
     0
 42
0.000000001
 43
0.00000001
 40
0.0
 40
0.0
 40
0.0
 40
0.0
 40
0.274119847458592
 40
0.5263849978363389
 40
0.7642240093776917
 40
1.0
 40
1.0
 40
1.0
 40
1.0
 10
-77.39128058014946
 20
47.19080936596674
 30
0.0
 10
-77.4265875348629
 20
47.20937246266207
 30
0.0
 10
-77.49438653392399
 20
47.24501867983462
 30
0.0
 10
-77.60212948709895
 20
47.27403049468663
 30
0.0
 10
-77.70817068686296
 20
47.28342224606329
 30
0.0
 10
-77.77589049263273
 20
47.27002710860377
 30
0.0
 10
-77.80960290507146
 20
47.26335871383246
 30
0.0
  0
SPLINE
  5
154
330
1F
100
AcDbEntity
  8
0
  6
Continuous
 62
     7
370
    25
100
AcDbSpline
210
0.0
220
0.0
230
1.0
 70
     8
 71
     3
 72
    11
 73
     7
 74
     0
 42
0.000000001
 43
0.00000001
 40
0.0
 40
0.0
 40
0.0
 40
0.0
 40
0.2544423129582082
 40
0.499270032158408
 40
0.7420499633351072
 40
1.0
 40
1.0
 40
1.0
 40
1.0
 10
-77.80960290507146
 20
47.26335871383246
 30
0.0
 10
-77.83848574016137
 20
47.25453612781748
 30
0.0
 10
-77.89516001668605
 20
47.23722433422384
 30
0.0
 10
-77.97021537444446
 20
47.19032289067798
 30
0.0
 10
-78.03614234187773
 20
47.13061180946561
 30
0.0
 10
-78.06801117949287
 20
47.08042473206822
 30
0.0
 10
-78.08442834714656
 20
47.0545709600031
 30
0.0
  0
SPLINE
  5
155
330
1F
100
AcDbEntity
  8
0
  6
Continuous
 62
     7
370
    25
100
AcDbSpline
210
0.0
220
0.0
230
1.0
 70
     8
 71
     3
 72
    11
 73
     7
 74
     0
 42
0.000000001
 43
0.00000001
 40
0.0
 40
0.0
 40
0.0
 40
0.0
 40
0.2091648597069041
 40
0.5013728064776968
 40
0.7908351402931244
 40
0.9999999999999999
 40
0.9999999999999999
 40
0.9999999999999999
 40
0.9999999999999999
 10
-78.08442834714656
 20
47.0545709600031
 30
0.0
 10
-78.09101536585582
 20
47.04200929971526
 30
0.0
 10
-78.10680459575418
 20
47.01189872147872
 30
0.0
 10
-78.12781688509197
 20
46.96254378710005
 30
0.0
 10
-78.15030145448621
 20
46.9138638579745
 30
0.0
 10
-78.16585550546908
 20
46.8838500315866
 30
0.0
 10
-78.17238014137737
 20
46.87125978807952
 30
0.0
  0
SPLINE
  5
157
330
1F
100
AcDbEntity
  8
0
  6
Continuous
 62
     7
370
    25
100
AcDbSpline
210
0.0
220
0.0
230
1.0
 70
     8
 71
     3
 72
    15
 73
    11
 74
     0
 42
0.000000001
 43
0.00000001
 40
0.0
 40
0.0
 40
0.0
 40
0.0
 40
0.0906620342754256
 40
0.1911492429756003
 40
0.3014795012740159
 40
0.4223696349945117
 40
0.5520876898855276
 40
0.6906539500330882
 40
0.8408897905133426
 40
1.0
 40
1.0
 40
1.0
 40
1.0
 10
-78.81512060816671
 20
45.7584386857257
 30
0.0
 10
-78.82622201644735
 20
45.73836616293235
 30
0.0
 10
-78.84962790851408
 20
45.69604582931947
 30
0.0
 10
-78.88517576500465
 20
45.62855889705241
 30
0.0
 10
-78.9237627318444
 20
45.55403068265617
 30
0.0
 10
-78.96379649777144
 20
45.4719502956909
 30
0.0
 10
-79.00602965773942
 20
45.38300593618861
 30
0.0
 10
-79.05012343552534
 20
45.28673694759073
 30
0.0
 10
-79.09688035256504
 20
45.18351018809884
 30
0.0
 10
-79.12827255738348
 20
45.11181703281049
 30
0.0
 10
-79.1444189419436
 20
45.07494210598369
 30
0.0
  0
SPLINE
  5
158
330
1F
100
AcDbEntity
  8
0
  6
Continuous
 62
     7
370
    25
100
AcDbSpline
210
0.0
220
0.0
230
1.0
 70
     8
 71
     3
 72
    15
 73
    11
 74
     0
 42
0.000000001
 43
0.00000001
 40
0.0
 40
0.0
 40
0.0
 40
0.0
 40
0.1079619865600907
 40
0.2202489943108321
 40
0.33815725281146
 40
0.4605331989654827
 40
0.5874394726392356
 40
0.7201306353382684
 40
0.8574521848704235
 40
1.0
 40
1.0
 40
1.0
 40
1.0
 10
-79.1444189419436
 20
45.0749421059837
 30
0.0
 10
-79.15764628269247
 20
45.13585966408388
 30
0.0
 10
-79.18463085930293
 20
45.26013517377889
 30
0.0
 10
-79.23301457208349
 20
45.4493178605784
 30
0.0
 10
-79.28729173942065
 20
45.64551766608032
 30
0.0
 10
-79.34885330188621
 20
45.84840689122966
 30
0.0
 10
-79.4176058452795
 20
46.05796377621525
 30
0.0
 10
-79.49259481602489
 20
46.27452013275911
 30
0.0
 10
-79.57470329528086
 20
46.49813768313291
 30
0.0
 10
-79.63381151218034
 20
46.6485269917826
 30
0.0
 10
-79.66391751247592
 20
46.72512582707411
 30
0.0
  0
SPLINE
  5
159
330
1F
100
AcDbEntity
  8
0
  6
Continuous
 62
     7
370
    25
100
AcDbSpline
210
0.0
220
0.0
230
1.0
 70
     8
 71
     3
 72
     9
 73
     5
 74
     0
 42
0.000000001
 43
0.00000001
 40
0.0
 40
0.0
 40
0.0
 40
0.0
 40
0.4998329458244019
 40
1.0
 40
1.0
 40
1.0
 40
1.0
 10
-79.66391751247592
 20
46.7251258270741
 30
0.0
 10
-79.77265780886465
 20
46.99048157891621
 30
0.0
 10
-79.99021108800952
 20
47.52137045700822
 30
0.0
 10
-80.21053303428431
 20
48.05111631224199
 30
0.0
 10
-80.32073081312281
 20
48.316077736116
 30
0.0
  0
SPLINE
  5
15A
330
1F
100
AcDbEntity
  8
0
  6
Continuous
 62
     7
370
    25
100
AcDbSpline
210
0.0
220
0.0
230
1.0
 70
     8
 71
     3
 72
    15
 73
    11
 74
     0
 42
0.000000001
 43
0.00000001
 40
0.0
 40
0.0
 40
0.0
 40
0.0
 40
0.1918784694178074
 40
0.3640177520104776
 40
0.5178126384596459
 40
0.652086183045419
 40
0.7682373331659882
 40
0.8646626512422237
 40
0.9413714729595329
 40
1.0
 40
1.0
 40
1.0
 40
1.0
 10
-80.32073081312281
 20
48.316077736116
 30
0.0
 10
-80.3348299030208
 20
48.35137637123307
 30
0.0
 10
-80.36157766177472
 20
48.41834235153998
 30
0.0
 10
-80.39924968098467
 20
48.51375947428625
 30
0.0
 10
-80.43514814414236
 20
48.59756822056806
 30
0.0
 10
-80.46519872868012
 20
48.67179261169186
 30
0.0
 10
-80.49185525748258
 20
48.73512367968053
 30
0.0
 10
-80.51444284706874
 20
48.78778935224955
 30
0.0
 10
-80.5328530031911
 20
48.82985474328972
 30
0.0
 10
-80.54439832254454
 20
48.85405316734417
 30
0.0
 10
-80.54939978795021
 20
48.86453599394035
 30
0.0
  0
SPLINE
  5
15B
330
1F
100
AcDbEntity
  8
0
  6
Continuous
 62
     7
370
    25
100
AcDbSpline
210
0.0
220
0.0
230
1.0
 70
     8
 71
     3
 72
    11
 73
     7
 74
     0
 42
0.000000001
 43
0.00000001
 40
0.0
 40
0.0
 40
0.0
 40
0.0
 40
0.2991624162394753
 40
0.5627470200536273
 40
0.7950117883724583
 40
1.0
 40
1.0
 40
1.0
 40
1.0
 10
-80.54939978795021
 20
48.86453599394036
 30
0.0
 10
-80.5768747040666
 20
48.91516443783055
 30
0.0
 10
-80.6285570890569
 20
49.01040035110903
 30
0.0
 10
-80.71688345137477
 20
49.13551180268771
 30
0.0
 10
-80.80859066988388
 20
49.23580043388333
 30
0.0
 10
-80.8787056262601
 20
49.28272909133094
 30
0.0
 10
-80.91157616156819
 20
49.30472967681681
 30
0.0
  0
SPLINE
  5
15C
330
1F
100
AcDbEntity
  8
0
  6
Continuous
 62
     7
370
    25
100
AcDbSpline
210
0.0
220
0.0
230
1.0
 70
     8
 71
     3
 72
    11
 73
     7
 74
     0
 42
0.000000001
 43
0.00000001
 40
0.0
 40
0.0
 40
0.0
 40
0.0
 40
0.2642956074151037
 40
0.5123687578068536
 40
0.7496534277468899
 40
1.0
 40
1.0
 40
1.0
 40
1.0
 10
-80.91157616156819
 20
49.30472967681681
 30
0.0
 10
-80.94020397774293
 20
49.31935638776114
 30
0.0
 10
-80.9957024355328
 20
49.34771202253934
 30
0.0
 10
-81.08584219582197
 20
49.36614562557664
 30
0.0
 10
-81.1761361949039
 20
49.36123788589626
 30
0.0
 10
-81.23190864694647
 20
49.34089577143025
 30
0.0
 10
-81.2605418455336
 20
49.33045226783921
 30
0.0
  0
SPLINE
  5
15D
330
1F
100
AcDbEntity
  8
0
  6
Continuous
 62
     7
370
    25
100
AcDbSpline
210
0.0
220
0.0
230
1.0
 70
     8
 71
     3
 72
    11
 73
     7
 74
     0
 42
0.000000001
 43
0.00000001
 40
0.0
 40
0.0
 40
0.0
 40
0.0
 40
0.2340313784230988
 40
0.4730127189416525
 40
0.7273255071851668
 40
1.0
 40
1.0
 40
1.0
 40
1.0
 10
-81.2605418455336
 20
49.33045226783921
 30
0.0
 10
-81.28636133384164
 20
49.31789979821832
 30
0.0
 10
-81.3385464145285
 20
49.29252936360048
 30
0.0
 10
-81.40829127413767
 20
49.23619934496022
 30
0.0
 10
-81.47125254815128
 20
49.16622065234824
 30
0.0
 10
-81.50542891128896
 20
49.11142824116681
 30
0.0
 10
-81.52311249269555
 20
49.08307747547282
 30
0.0
  0
SPLINE
  5
15E
330
1F
100
AcDbEntity
  8
0
  6
Continuous
 62
     7
370
    25
100
AcDbSpline
210
0.0
220
0.0
230
1.0
 70
     8
 71
     3
 72
    23
 73
    19
 74
     0
 42
0.000000001
 43
0.00000001
 40
0.0
 40
0.0
 40
0.0
 40
0.0
 40
0.044176664562172
 40
0.0936170083673207
 40
0.148485421617479
 40
0.2081708577391292
 40
0.2734505376984132
 40
0.3435463217416664
 40
0.4190714571937633
 40
0.4998597618120025
 40
0.5806480664302394
 40
0.6561732018823387
 40
0.7265504398663174
 40
0.7916642121021383
 40
0.8515145783825232
 40
0.9063829916326792
 40
0.9558233354378299
 40
1.0
 40
1.0
 40
1.0
 40
1.0
 10
-81.52311249269555
 20
49.08307747547282
 30
0.0
 10
-81.54473593895783
 20
49.04532404072012
 30
0.0
 10
-81.59055927962261
 20
48.96531882411617
 30
0.0
 10
-81.6637025013398
 20
48.83868787079751
 30
0.0
 10
-81.74301933527563
 20
48.69799364956952
 30
0.0
 10
-81.83173993916985
 20
48.54470303201989
 30
0.0
 10
-81.92504620413773
 20
48.37677230237337
 30
0.0
 10
-82.02786808475233
 20
48.19630104755321
 30
0.0
 10
-82.13672935829054
 20
48.00170011855507
 30
0.0
 10
-82.25145810971905
 20
47.79831817019758
 30
0.0
 10
-82.36621402022483
 20
47.5949517021253
 30
0.0
 10
-82.47513610516714
 20
47.40006638752028
 30
0.0
 10
-82.57826239017864
 20
47.21963763937266
 30
0.0
 10
-82.67316295613907
 20
47.0522913452798
 30
0.0
 10
-82.76037368025342
 20
46.89814350150215
 30
0.0
 10
-82.8401243337017
 20
46.75750905331932
 30
0.0
 10
-82.91318763763539
 20
46.63083266835901
 30
0.0
 10
-82.95902038324134
 20
46.55083279827367
 30
0.0
 10
-82.98064826757464
 20
46.51308188647447
 30
0.0
  0
SPLINE
  5
15F
330
1F
100
AcDbEntity
  8
0
  6
Continuous
 62
     7
370
    25
100
AcDbSpline
210
0.0
220
0.0
230
1.0
 70
     8
 71
     3
 72
    15
 73
    11
 74
     0
 42
0.000000001
 43
0.00000001
 40
0.0
 40
0.0
 40
0.0
 40
0.0
 40
0.0942591275984931
 40
0.2083304530457859
 40
0.343845133593675
 40
0.4992281384805008
 40
0.6561401065665511
 40
0.7908634695720478
 40
0.905740872401519
 40
1.0
 40
1.0
 40
1.0
 40
1.0
 10
-82.98064826757464
 20
46.51308188647447
 30
0.0
 10
-82.98956206880985
 20
46.49778050160883
 30
0.0
 10
-83.00926325104018
 20
46.46396155460063
 30
0.0
 10
-83.04445261595498
 20
46.40978287006177
 30
0.0
 10
-83.08430658540945
 20
46.34498294315733
 30
0.0
 10
-83.13070824343504
 20
46.27480858836494
 30
0.0
 10
-83.1771206559251
 20
46.20483567780348
 30
0.0
 10
-83.21866579872476
 20
46.14075842328061
 30
0.0
 10
-83.2523984291069
 20
46.08566723358399
 30
0.0
 10
-83.27233375411106
 20
46.05181598519037
 30
0.0
 10
-83.28131872837376
 20
46.03655901819769
 30
0.0
  0
SPLINE
  5
160
330
1F
100
AcDbEntity
  8
0
  6
Continuous
 62
     7
370
    25
100
AcDbSpline
210
0.0
220
0.0
230
1.0
 70
     8
 71
     3
 72
    11
 73
     7
 74
     0
 42
0.000000001
 43
0.00000001
 40
0.0
 40
0.0
 40
0.0
 40
0.0
 40
0.2578207909293608
 40
0.5061403565129206
 40
0.7481497164438562
 40
1.0
 40
1.0
 40
1.0
 40
1.0
 10
-83.28131872837376
 20
46.03655901819769
 30
0.0
 10
-83.2951816410097
 20
46.00911709531852
 30
0.0
 10
-83.32239658949602
 20
45.95524454074523
 30
0.0
 10
-83.34576041948327
 20
45.8686017894872
 30
0.0
 10
-83.35086039841451
 20
45.77964887296413
 30
0.0
 10
-83.3411850730441
 20
45.72152880880645
 30
0.0
 10
-83.33625101238499
 20
45.69188971026612
 30
0.0
  0
SPLINE
  5
161
330
1F
100
AcDbEntity
  8
0
  6
Continuous
 62
     7
370
    25
100
AcDbSpline
210
0.0
220
0.0
230
1.0
 70
     8
 71
     3
 72
    11
 73
     7
 74
     0
 42
0.000000001
 43
0.00000001
 40
0.0
 40
0.0
 40
0.0
 40
0.0
 40
0.2407545131452224
 40
0.4772598430872829
 40
0.7274670659636844
 40
0.9999999999999999
 40
0.9999999999999999
 40
0.9999999999999999
 40
0.9999999999999999
 10
-83.33625101238499
 20
45.69188971026612
 30
0.0
 10
-83.32657408177087
 20
45.6580033758792
 30
0.0
 10
-83.3073910129838
 20
45.59082878205326
 30
0.0
 10
-83.24802629256024
 20
45.50135157141516
 30
0.0
 10
-83.16802595957594
 20
45.42372483117114
 30
0.0
 10
-83.10236348597721
 20
45.38476326317794
 30
0.0
 10
-83.06813005977243
 20
45.36445047431064
 30
0.0
  0
SPLINE
  5
162
330
1F
100
AcDbEntity
  8
0
  6
Continuous
 62
     7
370
    25
100
AcDbSpline
210
0.0
220
0.0
230
1.0
 70
     8
 71
     3
 72
    15
 73
    11
 74
     0
 42
0.000000001
 43
0.00000001
 40
0.0
 40
0.0
 40
0.0
 40
0.0
 40
0.1271428611464029
 40
0.2464598492711998
 40
0.3605166001678727
 40
0.4732627128947163
 40
0.5920460121353631
 40
0.7172193595433985
 40
0.851969522304533
 40
1.0
 40
1.0
 40
1.0
 40
1.0
 10
-83.06813005977243
 20
45.36445047431064
 30
0.0
 10
-83.04363043436004
 20
45.35263485162363
 30
0.0
 10
-82.99613917978314
 20
45.32973087919273
 30
0.0
 10
-82.920850880922
 20
45.31139787637238
 30
0.0
 10
-82.84678116630205
 20
45.30617090668022
 30
0.0
 10
-82.77318021858531
 20
45.31577402827168
 30
0.0
 10
-82.70028751218463
 20
45.3390505813524
 30
0.0
 10
-82.62833754128172
 20
45.37661874330512
 30
0.0
 10
-82.557660552982
 20
45.42801160874642
 30
0.0
 10
-82.51397454397654
 20
45.46972304057129
 30
0.0
 10
-82.49110571967779
 20
45.4915582099394
 30
0.0
  0
SPLINE
  5
163
330
1F
100
AcDbEntity
  8
0
  6
Continuous
 62
     7
370
    25
100
AcDbSpline
210
0.0
220
0.0
230
1.0
 70
     8
 71
     3
 72
    15
 73
    11
 74
     0
 42
0.000000001
 43
0.00000001
 40
0.0
 40
0.0
 40
0.0
 40
0.0
 40
0.074324924744488
 40
0.1633289077061247
 40
0.2672094891919642
 40
0.3847024111049867
 40
0.5159241970980784
 40
0.6636664229319161
 40
0.8245153931164108
 40
1.0
 40
1.0
 40
1.0
 40
1.0
 10
-82.49110571967779
 20
45.4915582099394
 30
0.0
 10
-82.48057229162002
 20
45.50301122372678
 30
0.0
 10
-82.45742509967879
 20
45.52817920389318
 30
0.0
 10
-82.42280194874289
 20
45.57215050067282
 30
0.0
 10
-82.38416178004046
 20
45.6243695814652
 30
0.0
 10
-82.34254247039526
 20
45.68533270729226
 30
0.0
 10
-82.2978013646489
 20
45.75521658794828
 30
0.0
 10
-82.24895896763522
 20
45.83323538176099
 30
0.0
 10
-82.19564128181096
 20
45.919398129495
 30
0.0
 10
-82.16074665872998
 20
45.98053858569182
 30
0.0
 10
-82.14254012322108
 20
46.01243908463668
 30
0.0
  0
SPLINE
  5
164
330
1F
100
AcDbEntity
  8
0
  6
Continuous
 62
     7
370
    25
100
AcDbSpline
210
0.0
220
0.0
230
1.0
 70
     8
 71
     3
 72
    15
 73
    11
 74
     0
 42
0.000000001
 43
0.00000001
 40
0.0
 40
0.0
 40
0.0
 40
0.0
 40
0.0973893037291678
 40
0.2021383042758215
 40
0.3146943583534307
 40
0.435802544916187
 40
0.565014679500754
 40
0.702330778325902
 40
0.8474765729874021
 40
1.0
 40
1.0
 40
1.0
 40
1.0
 10
-82.14254012322108
 20
46.01243908463668
 30
0.0
 10
-82.12438540251733
 20
46.04404499327021
 30
0.0
 10
-82.08670401126459
 20
46.10964526487749
 30
0.0
 10
-82.02867424369924
 20
46.21213856522589
 30
0.0
 10
-81.96795391425151
 20
46.32329335318467
 30
0.0
 10
-81.90363199550885
 20
46.44290570543309
 30
0.0
 10
-81.83485461832163
 20
46.5706437153067
 30
0.0
 10
-81.76146526264226
 20
46.70611810270543
 30
0.0
 10
-81.68580243696901
 20
46.8502680954502
 30
0.0
 10
-81.63411298086277
 20
46.94895660235478
 30
0.0
 10
-81.60762769984713
 20
46.99952383666671
 30
0.0
  0
SPLINE
  5
165
330
1F
100
AcDbEntity
  8
0
  6
Continuous
 62
     7
370
    25
100
AcDbSpline
210
0.0
220
0.0
230
1.0
 70
     8
 71
     3
 72
    15
 73
    11
 74
     0
 42
0.000000001
 43
0.00000001
 40
0.0
 40
0.0
 40
0.0
 40
0.0
 40
0.1892191716054927
 40
0.3593272270634812
 40
0.5117638113133604
 40
0.6455416987495108
 40
0.7621008037658433
 40
0.8590987549866668
 40
0.938881066506385
 40
1.0
 40
1.0
 40
1.0
 40
1.0
 10
-81.60762769984713
 20
46.99952383666671
 30
0.0
 10
-81.57437423444318
 20
47.06285791840035
 30
0.0
 10
-81.51122590009383
 20
47.18312934636855
 30
0.0
 10
-81.42187680963148
 20
47.35473382941056
 30
0.0
 10
-81.34031485731431
 20
47.50674875758364
 30
0.0
 10
-81.26976324778246
 20
47.64168492459977
 30
0.0
 10
-81.20862572856146
 20
47.75789258776097
 30
0.0
 10
-81.15613780485948
 20
47.8555814323834
 30
0.0
 10
-81.112909432558
 20
47.9344494022027
 30
0.0
 10
-81.08792689103915
 20
47.98149510791399
 30
0.0
 10
-81.07709017846472
 20
48.001902190607
 30
0.0
  0
SPLINE
  5
167
330
1F
100
AcDbEntity
  8
0
  6
Continuous
 62
     7
370
    25
100
AcDbSpline
210
0.0
220
0.0
230
1.0
 70
     8
 71
     3
 72
     9
 73
     5
 74
     0
 42
0.000000001
 43
0.00000001
 40
0.0
 40
0.0
 40
0.0
 40
0.0
 40
0.500735221222564
 40
1.0
 40
1.0
 40
1.0
 40
1.0
 10
-81.06946872419326
 20
47.98291440754423
 30
0.0
 10
-80.94897076237824
 20
47.69533609038852
 30
0.0
 10
-80.70832868906687
 20
47.12102394902649
 30
0.0
 10
-80.4689098101844
 20
46.54620080862869
 30
0.0
 10
-80.349376396584
 20
46.25921186060184
 30
0.0
  0
SPLINE
  5
168
330
1F
100
AcDbEntity
  8
0
  6
Continuous
 62
     7
370
    25
100
AcDbSpline
210
0.0
220
0.0
230
1.0
 70
     8
 71
     3
 72
    15
 73
    11
 74
     0
 42
0.000000001
 43
0.00000001
 40
0.0
 40
0.0
 40
0.0
 40
0.0
 40
0.1574185860612975
 40
0.3053481114972887
 40
0.4438578436922624
 40
0.5731457671413733
 40
0.6933490386601169
 40
0.8039904762090279
 40
0.9062341517135939
 40
1.0
 40
1.0
 40
1.0
 40
1.0
 10
-80.349376396584
 20
46.25921186060184
 30
0.0
 10
-80.31328645467235
 20
46.16860161008901
 30
0.0
 10
-80.24328204234409
 20
45.99284301913325
 30
0.0
 10
-80.14798634425334
 20
45.73486037019702
 30
0.0
 10
-80.06365552478546
 20
45.49146138193771
 30
0.0
 10
-79.99217115882716
 20
45.26190370704186
 30
0.0
 10
-79.93320791987341
 20
45.04664707123069
 30
0.0
 10
-79.88658299798821
 20
44.84560199334646
 30
0.0
 10
-79.84968218811615
 20
44.65909174509487
 30
0.0
 10
-79.83517160023693
 20
44.53848401138821
 30
0.0
 10
-79.82823011313307
 20
44.48078841455097
 30
0.0
  0
SPLINE
  5
169
330
1F
100
AcDbEntity
  8
0
  6
Continuous
 62
     7
370
    25
100
AcDbSpline
210
0.0
220
0.0
230
1.0
 70
     8
 71
     3
 72
    11
 73
     7
 74
     0
 42
0.000000001
 43
0.00000001
 40
0.0
 40
0.0
 40
0.0
 40
0.0
 40
0.286488216063304
 40
0.54770076804194
 40
0.7869078763327773
 40
1.0
 40
1.0
 40
1.0
 40
1.0
 10
-79.82823011313307
 20
44.48078841455097
 30
0.0
 10
-79.82547552112838
 20
44.43211969663244
 30
0.0
 10
-79.820209363318
 20
44.33907609941269
 30
0.0
 10
-79.81681473908668
 20
44.20522245091631
 30
0.0
 10
-79.81111867213897
 20
44.08395020626024
 30
0.0
 10
-79.80957757738167
 20
44.00700766340741
 30
0.0
 10
-79.80885152009175
 20
43.97075765744149
 30
0.0
  0
CIRCLE
  5
16F
330
1F
100
AcDbEntity
  8
0
  6
Continuous
 62
     7
370
    25
100
AcDbCircle
 10
-61.2640831104
 20
-57.8874953738
 30
0.0
 40
1.600000000024416
  0
LINE
  5
172
330
1F
100
AcDbEntity
  8
0
  6
Continuous
 62
     7
370
    25
100
AcDbLine
 10
-25.6929399406
 20
29.4985226271
 30
0.0
 11
-22.2529399406
 21
35.4567774052
 31
0.0
  0
LINE
  5
173
330
1F
100
AcDbEntity
  8
0
  6
Continuous
 62
     7
370
    25
100
AcDbLine
 10
-22.2529399406
 20
35.4567774052
 30
0.0
 11
-51.6978036692
 21
52.4567774052
 31
0.0
  0
LINE
  5
174
330
1F
100
AcDbEntity
  8
0
  6
Continuous
 62
     7
370
    25
100
AcDbLine
 10
-51.6978036692
 20
52.4567774052
 30
0.0
 11
-55.1378036692
 21
46.4985226271
 31
0.0
  0
LINE
  5
175
330
1F
100
AcDbEntity
  8
0
  6
Continuous
 62
     7
370
    25
100
AcDbLine
 10
-55.1378036692
 20
46.4985226271
 30
0.0
 11
-25.6929399406
 21
29.4985226271
 31
0.0
  0
LINE
  5
176
330
1F
100
AcDbEntity
  8
0
  6
Continuous
 62
     7
370
    25
100
AcDbLine
 10
-41.83293994
 20
1.5432225939
 30
0.0
 11
-38.39293994
 21
7.5014773719
 31
0.0
  0
LINE
  5
177
330
1F
100
AcDbEntity
  8
0
  6
Continuous
 62
     7
370
    25
100
AcDbLine
 10
-38.39293994
 20
7.5014773719
 30
0.0
 11
-67.8378036687
 21
24.5014773719
 31
0.0
  0
LINE
  5
178
330
1F
100
AcDbEntity
  8
0
  6
Continuous
 62
     7
370
    25
100
AcDbLine
 10
-67.8378036687
 20
24.5014773719
 30
0.0
 11
-71.2778036687
 21
18.5432225939
 31
0.0
  0
LINE
  5
179
330
1F
100
AcDbEntity
  8
0
  6
Continuous
 62
     7
370
    25
100
AcDbLine
 10
-71.2778036687
 20
18.5432225939
 30
0.0
 11
-41.83293994
 21
1.5432225939
 31
0.0
  0
LINE
  5
17A
330
1F
100
AcDbEntity
  8
0
  6
Continuous
 62
     7
370
    25
100
AcDbLine
 10
19.58
 20
-37.0
 30
0.0
 11
12.7
 21
-37.0
 31
0.0
  0
LINE
  5
17B
330
1F
100
AcDbEntity
  8
0
  6
Continuous
 62
     7
370
    25
100
AcDbLine
 10
12.7
 20
-37.0
 30
0.0
 11
12.7
 21
-71.0
 31
0.0
  0
LINE
  5
17C
330
1F
100
AcDbEntity
  8
0
  6
Continuous
 62
     7
370
    25
100
AcDbLine
 10
12.7
 20
-71.0
 30
0.0
 11
19.58
 21
-71.0
 31
0.0
  0
LINE
  5
17D
330
1F
100
AcDbEntity
  8
0
  6
Continuous
 62
     7
370
    25
100
AcDbLine
 10
19.58
 20
-71.0
 30
0.0
 11
19.58
 21
-37.0
 31
0.0
  0
LINE
  5
17E
330
1F
100
AcDbEntity
  8
0
  6
Continuous
 62
     7
370
    25
100
AcDbLine
 10
38.3929399395
 20
7.5014773729
 30
0.0
 11
41.8329399395
 21
1.5432225948
 31
0.0
  0
LINE
  5
17F
330
1F
100
AcDbEntity
  8
0
  6
Continuous
 62
     7
370
    25
100
AcDbLine
 10
41.8329399395
 20
1.5432225948
 30
0.0
 11
71.2778036682
 21
18.5432225948
 31
0.0
  0
LINE
  5
180
330
1F
100
AcDbEntity
  8
0
  6
Continuous
 62
     7
370
    25
100
AcDbLine
 10
71.2778036682
 20
18.5432225948
 30
0.0
 11
67.8378036682
 21
24.5014773729
 31
0.0
  0
LINE
  5
181
330
1F
100
AcDbEntity
  8
0
  6
Continuous
 62
     7
370
    25
100
AcDbLine
 10
67.8378036682
 20
24.5014773729
 30
0.0
 11
38.3929399395
 21
7.5014773729
 31
0.0
  0
LINE
  5
182
330
1F
100
AcDbEntity
  8
0
  6
Continuous
 62
     7
370
    25
100
AcDbLine
 10
22.25293994
 20
35.4567774061
 30
0.0
 11
25.69293994
 21
29.4985226281
 31
0.0
  0
LINE
  5
183
330
1F
100
AcDbEntity
  8
0
  6
Continuous
 62
     7
370
    25
100
AcDbLine
 10
25.69293994
 20
29.4985226281
 30
0.0
 11
55.1378036687
 21
46.4985226281
 31
0.0
  0
LINE
  5
184
330
1F
100
AcDbEntity
  8
0
  6
Continuous
 62
     7
370
    25
100
AcDbLine
 10
55.1378036687
 20
46.4985226281
 30
0.0
 11
51.6978036687
 21
52.4567774061
 31
0.0
  0
LINE
  5
185
330
1F
100
AcDbEntity
  8
0
  6
Continuous
 62
     7
370
    25
100
AcDbLine
 10
51.6978036687
 20
52.4567774061
 30
0.0
 11
22.25293994
 21
35.4567774061
 31
0.0
  0
LINE
  5
186
330
1F
100
AcDbEntity
  8
0
  6
Continuous
 62
     7
370
    25
100
AcDbLine
 10
-12.6999999989
 20
-37.0
 30
0.0
 11
-19.5799999989
 21
-37.0
 31
0.0
  0
LINE
  5
187
330
1F
100
AcDbEntity
  8
0
  6
Continuous
 62
     7
370
    25
100
AcDbLine
 10
-19.5799999989
 20
-37.0
 30
0.0
 11
-19.5799999989
 21
-71.0
 31
0.0
  0
LINE
  5
188
330
1F
100
AcDbEntity
  8
0
  6
Continuous
 62
     7
370
    25
100
AcDbLine
 10
-19.5799999989
 20
-71.0
 30
0.0
 11
-12.6999999989
 21
-71.0
 31
0.0
  0
LINE
  5
189
330
1F
100
AcDbEntity
  8
0
  6
Continuous
 62
     7
370
    25
100
AcDbLine
 10
-12.6999999989
 20
-71.0
 30
0.0
 11
-12.6999999989
 21
-37.0
 31
0.0
  0
LINE
  5
18A
330
1F
100
AcDbEntity
  8
0
  6
Continuous
 62
     7
370
    25
100
AcDbLine
 10
-20.3154840176
 20
65.5857864376
 30
0.0
 11
-21.1439111424
 21
66.4142135624
 31
0.0
  0
LINE
  5
18B
330
1F
100
AcDbEntity
  8
0
  6
Continuous
 62
     7
370
    25
100
AcDbLine
 10
-18.9012704553
 20
65.0
 30
0.0
 11
25.4418752952
 21
65.0
 31
0.0
  0
LINE
  5
18C
330
1F
100
AcDbEntity
  8
0
  6
Continuous
 62
     7
370
    25
100
AcDbLine
 10
27.6845159824
 20
66.4142135624
 30
0.0
 11
26.8560888576
 21
65.5857864376
 31
0.0
  0
LINE
  5
18D
330
1F
100
AcDbEntity
  8
0
  6
Continuous
 62
     7
370
    25
100
AcDbLine
 10
28.27030242
 20
109.1715728753
 30
0.0
 11
28.27030242
 21
67.8284271247
 31
0.0
  0
LINE
  5
18E
330
1F
100
AcDbEntity
  8
0
  6
Continuous
 62
     7
370
    25
100
AcDbLine
 10
29.6845159824
 20
111.4142135624
 30
0.0
 11
28.8560888576
 21
110.5857864376
 31
0.0
  0
LINE
  5
18F
330
1F
100
AcDbEntity
  8
0
  6
Continuous
 62
     7
370
    25
100
AcDbLine
 10
36.225
 20
112.0
 30
0.0
 11
31.0987295447
 21
112.0
 31
0.0
  0
LINE
  5
190
330
1F
100
AcDbEntity
  8
0
  6
Continuous
 62
     7
370
    25
100
AcDbLine
 10
38.225
 20
110.0
 30
0.0
 11
38.225
 21
101.0
 31
0.0
  0
LINE
  5
191
330
1F
100
AcDbEntity
  8
0
  6
Continuous
 62
     7
370
    25
100
AcDbLine
 10
38.225
 20
101.0
 30
0.0
 11
36.64
 21
101.0
 31
0.0
  0
LINE
  5
192
330
1F
100
AcDbEntity
  8
0
  6
Continuous
 62
     7
370
    25
100
AcDbLine
 10
36.14
 20
96.5
 30
0.0
 11
36.14
 21
100.5
 31
0.0
  0
LINE
  5
193
330
1F
100
AcDbEntity
  8
0
  6
Continuous
 62
     7
370
    25
100
AcDbLine
 10
38.225
 20
96.0
 30
0.0
 11
36.64
 21
96.0
 31
0.0
  0
LINE
  5
194
330
1F
100
AcDbEntity
  8
0
  6
Continuous
 62
     7
370
    25
100
AcDbLine
 10
38.225
 20
96.0
 30
0.0
 11
38.225
 21
91.5
 31
0.0
  0
LINE
  5
195
330
1F
100
AcDbEntity
  8
0
  6
Continuous
 62
     7
370
    25
100
AcDbLine
 10
41.275
 20
91.0
 30
0.0
 11
38.725
 21
91.0
 31
0.0
  0
LINE
  5
196
330
1F
100
AcDbEntity
  8
0
  6
Continuous
 62
     7
370
    25
100
AcDbLine
 10
41.775
 20
96.0
 30
0.0
 11
41.775
 21
91.5
 31
0.0
  0
LINE
  5
197
330
1F
100
AcDbEntity
  8
0
  6
Continuous
 62
     7
370
    25
100
AcDbLine
 10
43.36
 20
96.0
 30
0.0
 11
41.775
 21
96.0
 31
0.0
  0
LINE
  5
198
330
1F
100
AcDbEntity
  8
0
  6
Continuous
 62
     7
370
    25
100
AcDbLine
 10
43.86
 20
96.5
 30
0.0
 11
43.86
 21
100.5
 31
0.0
  0
LINE
  5
199
330
1F
100
AcDbEntity
  8
0
  6
Continuous
 62
     7
370
    25
100
AcDbLine
 10
43.36
 20
101.0
 30
0.0
 11
41.775
 21
101.0
 31
0.0
  0
LINE
  5
19A
330
1F
100
AcDbEntity
  8
0
  6
Continuous
 62
     7
370
    25
100
AcDbLine
 10
41.775
 20
110.0
 30
0.0
 11
41.775
 21
101.0
 31
0.0
  0
LINE
  5
19B
330
1F
100
AcDbEntity
  8
0
  6
Continuous
 62
     7
370
    25
100
AcDbLine
 10
51.1439111424
 20
110.5857864376
 30
0.0
 11
50.3154840176
 21
111.4142135624
 31
0.0
  0
LINE
  5
19C
330
1F
100
AcDbEntity
  8
0
  6
Continuous
 62
     7
370
    25
100
AcDbLine
 10
51.72969758
 20
107.0191165838
 30
0.0
 11
51.72969758
 21
109.1715728753
 31
0.0
  0
LINE
  5
19D
330
1F
100
AcDbEntity
  8
0
  6
Continuous
 62
     7
370
    25
100
AcDbLine
 10
75.3194858853
 20
78.4568149465
 30
0.0
 11
52.2040730248
 21
105.7258765765
 31
0.0
  0
LINE
  5
19E
330
1F
100
AcDbEntity
  8
0
  6
Continuous
 62
     7
370
    25
100
AcDbLine
 10
-52.2040730248
 20
105.7258765765
 30
0.0
 11
-75.3194858853
 21
78.4568149465
 31
0.0
  0
LINE
  5
19F
330
1F
100
AcDbEntity
  8
0
  6
Continuous
 62
     7
370
    25
100
AcDbLine
 10
-51.72969758
 20
109.1715728753
 30
0.0
 11
-51.72969758
 21
107.0191165838
 31
0.0
  0
LINE
  5
1A0
330
1F
100
AcDbEntity
  8
0
  6
Continuous
 62
     7
370
    25
100
AcDbLine
 10
-50.3154840176
 20
111.4142135624
 30
0.0
 11
-51.1439111424
 21
110.5857864376
 31
0.0
  0
LINE
  5
1A1
330
1F
100
AcDbEntity
  8
0
  6
Continuous
 62
     7
370
    25
100
AcDbLine
 10
-44.22969758
 20
116.0515728753
 30
0.0
 11
-44.22969758
 21
112.0
 31
0.0
  0
LINE
  5
1A2
330
1F
100
AcDbEntity
  8
0
  6
Continuous
 62
     7
370
    25
100
AcDbLine
 10
-42.8154840176
 20
118.2942135624
 30
0.0
 11
-43.6439111424
 21
117.4657864376
 31
0.0
  0
LINE
  5
1A3
330
1F
100
AcDbEntity
  8
0
  6
Continuous
 62
     7
370
    25
100
AcDbLine
 10
-32.0581247048
 20
118.88
 30
0.0
 11
-41.4012704553
 21
118.88
 31
0.0
  0
LINE
  5
1A4
330
1F
100
AcDbEntity
  8
0
  6
Continuous
 62
     7
370
    25
100
AcDbLine
 10
-29.8154840176
 20
117.4657864376
 30
0.0
 11
-30.6439111424
 21
118.2942135624
 31
0.0
  0
LINE
  5
1A5
330
1F
100
AcDbEntity
  8
0
  6
Continuous
 62
     7
370
    25
100
AcDbLine
 10
-29.22969758
 20
112.0
 30
0.0
 11
-29.22969758
 21
116.0515728753
 31
0.0
  0
LINE
  5
1A6
330
1F
100
AcDbEntity
  8
0
  6
Continuous
 62
     7
370
    25
100
AcDbLine
 10
-24.5581247048
 20
112.0
 30
0.0
 11
-29.22969758
 21
112.0
 31
0.0
  0
LINE
  5
1A7
330
1F
100
AcDbEntity
  8
0
  6
Continuous
 62
     7
370
    25
100
AcDbLine
 10
-22.3154840176
 20
110.5857864376
 30
0.0
 11
-23.1439111424
 21
111.4142135624
 31
0.0
  0
LINE
  5
1A8
330
1F
100
AcDbEntity
  8
0
  6
Continuous
 62
     7
370
    25
100
AcDbLine
 10
-21.72969758
 20
67.8284271247
 30
0.0
 11
-21.72969758
 21
109.1715728753
 31
0.0
  0
LINE
  5
1A9
330
1F
100
AcDbEntity
  8
0
  6
Continuous
 62
     7
370
    25
100
AcDbLine
 10
26.58
 20
-71.0
 30
0.0
 11
26.58
 21
-56.0
 31
0.0
  0
LINE
  5
1AA
330
1F
100
AcDbEntity
  8
0
  6
Continuous
 62
     7
370
    25
100
AcDbLine
 10
24.58
 20
-56.0
 30
0.0
 11
24.58
 21
-71.0
 31
0.0
  0
LINE
  5
1AB
330
1F
100
AcDbEntity
  8
0
  6
Continuous
 62
     7
370
    25
100
AcDbLine
 10
31.58
 20
-71.0
 30
0.0
 11
31.58
 21
-56.0
 31
0.0
  0
LINE
  5
1AC
330
1F
100
AcDbEntity
  8
0
  6
Continuous
 62
     7
370
    25
100
AcDbLine
 10
29.58
 20
-56.0
 30
0.0
 11
29.58
 21
-71.0
 31
0.0
  0
LINE
  5
1AD
330
1F
100
AcDbEntity
  8
0
  6
Continuous
 62
     7
370
    25
100
AcDbLine
 10
-24.58
 20
-71.0
 30
0.0
 11
-24.58
 21
-56.0
 31
0.0
  0
LINE
  5
1AE
330
1F
100
AcDbEntity
  8
0
  6
Continuous
 62
     7
370
    25
100
AcDbLine
 10
-26.58
 20
-56.0
 30
0.0
 11
-26.58
 21
-71.0
 31
0.0
  0
LINE
  5
1AF
330
1F
100
AcDbEntity
  8
0
  6
Continuous
 62
     7
370
    25
100
AcDbLine
 10
-29.58
 20
-71.0
 30
0.0
 11
-29.58
 21
-56.0
 31
0.0
  0
LINE
  5
1B0
330
1F
100
AcDbEntity
  8
0
  6
Continuous
 62
     7
370
    25
100
AcDbLine
 10
-31.58
 20
-56.0
 30
0.0
 11
-31.58
 21
-71.0
 31
0.0
  0
LINE
  5
1B1
330
1F
100
AcDbEntity
  8
0
  6
Continuous
 62
     7
370
    25
100
AcDbLine
 10
48.1978036687
 20
58.5189552326
 30
0.0
 11
35.2074226119
 21
51.0189552326
 31
0.0
  0
LINE
  5
1B2
330
1F
100
AcDbEntity
  8
0
  6
Continuous
 62
     7
370
    25
100
AcDbLine
 10
36.2074226119
 20
49.286904425
 30
0.0
 11
49.1978036687
 21
56.786904425
 31
0.0
  0
LINE
  5
1B3
330
1F
100
AcDbEntity
  8
0
  6
Continuous
 62
     7
370
    25
100
AcDbLine
 10
-77.2778036687
 20
8.1509177485
 30
0.0
 11
-64.2874226119
 21
0.6509177485
 31
0.0
  0
LINE
  5
1B4
330
1F
100
AcDbEntity
  8
0
  6
Continuous
 62
     7
370
    25
100
AcDbLine
 10
-63.2874226119
 20
2.3829685561
 30
0.0
 11
-76.2778036687
 21
9.8829685561
 31
0.0
  0
LINE
  5
1B5
330
1F
100
AcDbEntity
  8
0
  6
Continuous
 62
     7
370
    25
100
AcDbLine
 10
-49.1978036687
 20
56.786904425
 30
0.0
 11
-36.2074226119
 21
49.286904425
 31
0.0
  0
LINE
  5
1B6
330
1F
100
AcDbEntity
  8
0
  6
Continuous
 62
     7
370
    25
100
AcDbLine
 10
-35.2074226119
 20
51.0189552326
 30
0.0
 11
-48.1978036687
 21
58.5189552326
 31
0.0
  0
LINE
  5
1B7
330
1F
100
AcDbEntity
  8
0
  6
Continuous
 62
     7
370
    25
100
AcDbLine
 10
-46.6978036687
 20
61.1170314439
 30
0.0
 11
-33.7074226119
 21
53.6170314439
 31
0.0
  0
LINE
  5
1B8
330
1F
100
AcDbEntity
  8
0
  6
Continuous
 62
     7
370
    25
100
AcDbLine
 10
-32.7074226119
 20
55.3490822515
 30
0.0
 11
-45.6978036687
 21
62.8490822515
 31
0.0
  0
LINE
  5
1B9
330
1F
100
AcDbEntity
  8
0
  6
Continuous
 62
     7
370
    25
100
AcDbLine
 10
45.6978036687
 20
62.8490822515
 30
0.0
 11
32.7074226119
 21
55.3490822515
 31
0.0
  0
LINE
  5
1BA
330
1F
100
AcDbEntity
  8
0
  6
Continuous
 62
     7
370
    25
100
AcDbLine
 10
33.7074226119
 20
53.6170314439
 30
0.0
 11
46.6978036687
 21
61.1170314439
 31
0.0
  0
LINE
  5
1BB
330
1F
100
AcDbEntity
  8
0
  6
Continuous
 62
     7
370
    25
100
AcDbLine
 10
73.7778036687
 20
14.213095575
 30
0.0
 11
60.7874226119
 21
6.713095575
 31
0.0
  0
LINE
  5
1BC
330
1F
100
AcDbEntity
  8
0
  6
Continuous
 62
     7
370
    25
100
AcDbLine
 10
61.7874226119
 20
4.9810447674
 30
0.0
 11
74.7778036687
 21
12.4810447674
 31
0.0
  0
LINE
  5
1BD
330
1F
100
AcDbEntity
  8
0
  6
Continuous
 62
     7
370
    25
100
AcDbLine
 10
76.2778036687
 20
9.8829685561
 30
0.0
 11
63.2874226119
 21
2.3829685561
 31
0.0
  0
LINE
  5
1BE
330
1F
100
AcDbEntity
  8
0
  6
Continuous
 62
     7
370
    25
100
AcDbLine
 10
64.2874226119
 20
0.6509177485
 30
0.0
 11
77.2778036687
 21
8.1509177485
 31
0.0
  0
LINE
  5
1BF
330
1F
100
AcDbEntity
  8
0
  6
Continuous
 62
     7
370
    25
100
AcDbLine
 10
-74.7778036687
 20
12.4810447674
 30
0.0
 11
-61.7874226119
 21
4.9810447674
 31
0.0
  0
LINE
  5
1C0
330
1F
100
AcDbEntity
  8
0
  6
Continuous
 62
     7
370
    25
100
AcDbLine
 10
-60.7874226119
 20
6.713095575
 30
0.0
 11
-73.7778036687
 21
14.213095575
 31
0.0
  0
LINE
  5
1C1
330
1F
100
AcDbEntity
  8
0
  6
Continuous
 62
     7
370
    25
100
AcDbLine
 10
1.3820387061
 20
-93.5349638186
 30
0.0
 11
0.6994317462
 21
-92.5725612899
 31
0.0
  0
LINE
  5
1C2
330
1F
100
AcDbEntity
  8
0
  6
Continuous
 62
     7
370
    25
100
AcDbLine
 10
79.061358178
 20
44.4043033128
 30
0.0
 11
78.8480997733
 21
43.9904986924
 31
0.0
  0
LINE
  5
1C3
330
1F
100
AcDbEntity
  8
0
  6
Continuous
 62
     7
370
    25
100
AcDbLine
 10
-78.1723801414
 20
46.8712597881
 30
0.0
 11
-78.8151206082
 21
45.7584386857
 31
0.0
  0
LINE
  5
1C4
330
1F
100
AcDbEntity
  8
0
  6
Continuous
 62
     7
370
    25
100
AcDbLine
 10
-81.0770901785
 20
48.0019021906
 30
0.0
 11
-81.0694687242
 21
47.9829144075
 31
0.0
  0
LINE
  5
1C5
330
1F
100
AcDbEntity
  8
0
  6
Continuous
 62
     7
370
    25
100
AcDbLine
 10
53.9934650841
 20
-90.4805751976
 30
0.0
 11
105.3552092122
 21
-1.5194248024
 31
0.0
  0
LINE
  5
1C6
330
1F
100
AcDbEntity
  8
0
  6
Continuous
 62
     7
370
    25
100
AcDbLine
 10
-105.3552092122
 20
-1.5194248024
 30
0.0
 11
-53.9934650841
 21
-90.4805751976
 31
0.0
  0
LINE
  5
1C7
330
1F
100
AcDbEntity
  8
0
  6
Continuous
 62
     7
370
    25
100
AcDbLine
 10
48.9012704553
 20
112.0
 30
0.0
 11
43.775
 21
112.0
 31
0.0
  0
LINE
  5
1C8
330
1F
100
AcDbEntity
  8
0
  6
Continuous
 62
     7
370
    25
100
AcDbLine
 10
-44.22969758
 20
112.0
 30
0.0
 11
-48.9012704553
 21
112.0
 31
0.0
  0
ARC
  5
1C9
330
1F
100
AcDbEntity
  8
0
  6
Continuous
 62
     7
370
    25
100
AcDbCircle
 10
-19.72969758
 20
67.8284271247
 30
0.0
 40
2.000000000000103
100
AcDbArc
 50
180.0
 51
225.0
  0
ARC
  5
1CA
330
1F
100
AcDbEntity
  8
0
  6
Continuous
 62
     7
370
    25
100
AcDbCircle
 10
-18.9012704553
 20
67.0
 30
0.0
 40
1.999999999999986
100
AcDbArc
 50
225.0
 51
270.0
  0
ARC
  5
1CB
330
1F
100
AcDbEntity
  8
0
  6
Continuous
 62
     7
370
    25
100
AcDbCircle
 10
25.4418752952
 20
67.0
 30
0.0
 40
2.000000000000019
100
AcDbArc
 50
270.0
 51
315.0
  0
ARC
  5
1CC
330
1F
100
AcDbEntity
  8
0
  6
Continuous
 62
     7
370
    25
100
AcDbCircle
 10
26.27030242
 20
67.8284271247
 30
0.0
 40
1.999999999999972
100
AcDbArc
 50
315.0
 51
0.0
  0
ARC
  5
1CD
330
1F
100
AcDbEntity
  8
0
  6
Continuous
 62
     7
370
    25
100
AcDbCircle
 10
30.27030242
 20
109.1715728753
 30
0.0
 40
2.000000000000018
100
AcDbArc
 50
135.0
 51
180.0
  0
ARC
  5
1CE
330
1F
100
AcDbEntity
  8
0
  6
Continuous
 62
     7
370
    25
100
AcDbCircle
 10
31.0987295447
 20
110.0
 30
0.0
 40
1.999999999999961
100
AcDbArc
 50
90.0
 51
135.0
  0
ARC
  5
1CF
330
1F
100
AcDbEntity
  8
0
  6
Continuous
 62
     7
370
    25
100
AcDbCircle
 10
36.225
 20
110.0
 30
0.0
 40
2.0
100
AcDbArc
 50
0.0
 51
90.0
  0
ARC
  5
1D0
330
1F
100
AcDbEntity
  8
0
  6
Continuous
 62
     7
370
    25
100
AcDbCircle
 10
36.64
 20
100.5
 30
0.0
 40
0.5
100
AcDbArc
 50
90.0
 51
180.0
  0
ARC
  5
1D1
330
1F
100
AcDbEntity
  8
0
  6
Continuous
 62
     7
370
    25
100
AcDbCircle
 10
36.64
 20
96.5
 30
0.0
 40
0.5
100
AcDbArc
 50
180.0
 51
270.0
  0
ARC
  5
1D2
330
1F
100
AcDbEntity
  8
0
  6
Continuous
 62
     7
370
    25
100
AcDbCircle
 10
38.725
 20
91.5
 30
0.0
 40
0.5000000000000142
100
AcDbArc
 50
180.0
 51
270.0
  0
ARC
  5
1D3
330
1F
100
AcDbEntity
  8
0
  6
Continuous
 62
     7
370
    25
100
AcDbCircle
 10
41.275
 20
91.5
 30
0.0
 40
0.5
100
AcDbArc
 50
270.0
 51
0.0
  0
ARC
  5
1D4
330
1F
100
AcDbEntity
  8
0
  6
Continuous
 62
     7
370
    25
100
AcDbCircle
 10
43.36
 20
96.5
 30
0.0
 40
0.5000000000000213
100
AcDbArc
 50
270.0
 51
360.0
  0
ARC
  5
1D5
330
1F
100
AcDbEntity
  8
0
  6
Continuous
 62
     7
370
    25
100
AcDbCircle
 10
43.36
 20
100.5
 30
0.0
 40
0.5000000000000071
100
AcDbArc
 50
0.0
 51
90.0
  0
ARC
  5
1D6
330
1F
100
AcDbEntity
  8
0
  6
Continuous
 62
     7
370
    25
100
AcDbCircle
 10
43.775
 20
110.0
 30
0.0
 40
2.000000000000007
100
AcDbArc
 50
90.0
 51
180.0
  0
ARC
  5
1D7
330
1F
100
AcDbEntity
  8
0
  6
Continuous
 62
     7
370
    25
100
AcDbCircle
 10
48.9012704553
 20
110.0
 30
0.0
 40
2.000000000000071
100
AcDbArc
 50
45.0
 51
90.0
  0
ARC
  5
1D8
330
1F
100
AcDbEntity
  8
0
  6
Continuous
 62
     7
370
    25
100
AcDbCircle
 10
49.72969758
 20
109.1715728753
 30
0.0
 40
1.999999999999908
100
AcDbArc
 50
0.0
 51
45.0
  0
ARC
  5
1D9
330
1F
100
AcDbEntity
  8
0
  6
Continuous
 62
     7
370
    25
100
AcDbCircle
 10
53.72969758
 20
107.0191165838
 30
0.0
 40
2.000000000000038
100
AcDbArc
 50
180.0
 51
220.2872467228
  0
ARC
  5
1DA
330
1F
100
AcDbEntity
  8
0
  6
Continuous
 62
     7
370
    25
100
AcDbCircle
 10
76.8451104405
 20
79.7500549538
 30
0.0
 40
1.999999999993522
100
AcDbArc
 50
220.2872467227
 51
230.6230748698
  0
ARC
  5
1DB
330
1F
100
AcDbEntity
  8
0
  6
Continuous
 62
     7
370
    25
100
AcDbCircle
 10
103.6231584047
 20
-0.5194248024
 30
0.0
 40
2.000000000000947
100
AcDbArc
 50
330.0
 51
350.9752825678
  0
ARC
  5
1DC
330
1F
100
AcDbEntity
  8
0
  6
Continuous
 62
     7
370
    25
100
AcDbCircle
 10
52.2614142765
 20
-89.4805751976
 30
0.0
 40
1.999999999998556
100
AcDbArc
 50
309.0247174322
 51
330.0
  0
ARC
  5
1DD
330
1F
100
AcDbEntity
  8
0
  6
Continuous
 62
     7
370
    25
100
AcDbCircle
 10
-52.2614142765
 20
-89.4805751976
 30
0.0
 40
1.999999999999949
100
AcDbArc
 50
210.0
 51
230.9752825678
  0
ARC
  5
1DE
330
1F
100
AcDbEntity
  8
0
  6
Continuous
 62
     7
370
    25
100
AcDbCircle
 10
-103.6231584047
 20
-0.5194248024
 30
0.0
 40
2.000000000000391
100
AcDbArc
 50
189.0247174322
 51
210.0
  0
ARC
  5
1DF
330
1F
100
AcDbEntity
  8
0
  6
Continuous
 62
     7
370
    25
100
AcDbCircle
 10
-76.8451104405
 20
79.7500549539
 30
0.0
 40
2.000000000002374
100
AcDbArc
 50
309.3769251302
 51
319.7127532772
  0
ARC
  5
1E0
330
1F
100
AcDbEntity
  8
0
  6
Continuous
 62
     7
370
    25
100
AcDbCircle
 10
-53.72969758
 20
107.0191165838
 30
0.0
 40
2.000000000000097
100
AcDbArc
 50
319.7127532772
 51
0.0
  0
ARC
  5
1E1
330
1F
100
AcDbEntity
  8
0
  6
Continuous
 62
     7
370
    25
100
AcDbCircle
 10
-49.72969758
 20
109.1715728753
 30
0.0
 40
1.999999999999957
100
AcDbArc
 50
135.0
 51
180.0
  0
ARC
  5
1E2
330
1F
100
AcDbEntity
  8
0
  6
Continuous
 62
     7
370
    25
100
AcDbCircle
 10
-48.9012704553
 20
110.0
 30
0.0
 40
2.0
100
AcDbArc
 50
90.0
 51
135.0
  0
ARC
  5
1E3
330
1F
100
AcDbEntity
  8
0
  6
Continuous
 62
     7
370
    25
100
AcDbCircle
 10
-42.22969758
 20
116.0515728753
 30
0.0
 40
1.999999999999993
100
AcDbArc
 50
135.0
 51
180.0
  0
ARC
  5
1E4
330
1F
100
AcDbEntity
  8
0
  6
Continuous
 62
     7
370
    25
100
AcDbCircle
 10
-41.4012704553
 20
116.88
 30
0.0
 40
2.000000000000006
100
AcDbArc
 50
90.0
 51
135.0
  0
ARC
  5
1E5
330
1F
100
AcDbEntity
  8
0
  6
Continuous
 62
     7
370
    25
100
AcDbCircle
 10
-32.0581247048
 20
116.88
 30
0.0
 40
2.000000000000066
100
AcDbArc
 50
45.0
 51
90.0
  0
ARC
  5
1E6
330
1F
100
AcDbEntity
  8
0
  6
Continuous
 62
     7
370
    25
100
AcDbCircle
 10
-31.22969758
 20
116.0515728753
 30
0.0
 40
1.999999999999978
100
AcDbArc
 50
0.0
 51
45.0
  0
ARC
  5
1E7
330
1F
100
AcDbEntity
  8
0
  6
Continuous
 62
     7
370
    25
100
AcDbCircle
 10
-24.5581247048
 20
110.0
 30
0.0
 40
2.000000000000074
100
AcDbArc
 50
45.0
 51
90.0
  0
ARC
  5
1E8
330
1F
100
AcDbEntity
  8
0
  6
Continuous
 62
     7
370
    25
100
AcDbCircle
 10
-23.72969758
 20
109.1715728753
 30
0.0
 40
1.999999999999975
100
AcDbArc
 50
0.0
 51
45.0
  0
ARC
  5
1E9
330
1F
100
AcDbEntity
  8
0
  6
Continuous
 62
     7
370
    25
100
AcDbCircle
 10
25.58
 20
-56.0
 30
0.0
 40
1.0
100
AcDbArc
 50
0.0
 51
180.0
  0
ARC
  5
1EA
330
1F
100
AcDbEntity
  8
0
  6
Continuous
 62
     7
370
    25
100
AcDbCircle
 10
25.58
 20
-71.0
 30
0.0
 40
0.9999999999999964
100
AcDbArc
 50
180.0
 51
0.0
  0
ARC
  5
1EB
330
1F
100
AcDbEntity
  8
0
  6
Continuous
 62
     7
370
    25
100
AcDbCircle
 10
30.58
 20
-56.0
 30
0.0
 40
1.0
100
AcDbArc
 50
0.0
 51
180.0
  0
ARC
  5
1EC
330
1F
100
AcDbEntity
  8
0
  6
Continuous
 62
     7
370
    25
100
AcDbCircle
 10
30.58
 20
-71.0
 30
0.0
 40
1.000000000000004
100
AcDbArc
 50
180.0
 51
0.0
  0
ARC
  5
1ED
330
1F
100
AcDbEntity
  8
0
  6
Continuous
 62
     7
370
    25
100
AcDbCircle
 10
-25.58
 20
-56.0
 30
0.0
 40
1.0
100
AcDbArc
 50
0.0
 51
180.0
  0
ARC
  5
1EE
330
1F
100
AcDbEntity
  8
0
  6
Continuous
 62
     7
370
    25
100
AcDbCircle
 10
-25.58
 20
-71.0
 30
0.0
 40
0.9999999999999964
100
AcDbArc
 50
180.0
 51
0.0
  0
ARC
  5
1EF
330
1F
100
AcDbEntity
  8
0
  6
Continuous
 62
     7
370
    25
100
AcDbCircle
 10
-30.58
 20
-56.0
 30
0.0
 40
1.0
100
AcDbArc
 50
0.0
 51
180.0
  0
ARC
  5
1F0
330
1F
100
AcDbEntity
  8
0
  6
Continuous
 62
     7
370
    25
100
AcDbCircle
 10
-30.58
 20
-71.0
 30
0.0
 40
1.0
100
AcDbArc
 50
180.0
 51
0.0
  0
ARC
  5
1F1
330
1F
100
AcDbEntity
  8
0
  6
Continuous
 62
     7
370
    25
100
AcDbCircle
 10
35.7074226119
 20
50.1529298288
 30
0.0
 40
0.9999999999999984
100
AcDbArc
 50
120.0
 51
300.0
  0
ARC
  5
1F2
330
1F
100
AcDbEntity
  8
0
  6
Continuous
 62
     7
370
    25
100
AcDbCircle
 10
48.6978036687
 20
57.6529298288
 30
0.0
 40
0.9999999999999994
100
AcDbArc
 50
300.0
 51
120.0
  0
ARC
  5
1F3
330
1F
100
AcDbEntity
  8
0
  6
Continuous
 62
     7
370
    25
100
AcDbCircle
 10
-63.7874226119
 20
1.5169431523
 30
0.0
 40
0.9999999999999991
100
AcDbArc
 50
240.0
 51
60.0
  0
ARC
  5
1F4
330
1F
100
AcDbEntity
  8
0
  6
Continuous
 62
     7
370
    25
100
AcDbCircle
 10
-76.7778036687
 20
9.0169431523
 30
0.0
 40
0.999999999999999
100
AcDbArc
 50
60.0
 51
240.0
  0
ARC
  5
1F5
330
1F
100
AcDbEntity
  8
0
  6
Continuous
 62
     7
370
    25
100
AcDbCircle
 10
-35.7074226119
 20
50.1529298288
 30
0.0
 40
1.000000000000014
100
AcDbArc
 50
240.0
 51
60.0
  0
ARC
  5
1F6
330
1F
100
AcDbEntity
  8
0
  6
Continuous
 62
     7
370
    25
100
AcDbCircle
 10
-48.6978036687
 20
57.6529298288
 30
0.0
 40
1.000000000000006
100
AcDbArc
 50
60.0
 51
240.0
  0
ARC
  5
1F7
330
1F
100
AcDbEntity
  8
0
  6
Continuous
 62
     7
370
    25
100
AcDbCircle
 10
-33.2074226119
 20
54.4830568477
 30
0.0
 40
0.9999999999999992
100
AcDbArc
 50
240.0
 51
60.0
  0
ARC
  5
1F8
330
1F
100
AcDbEntity
  8
0
  6
Continuous
 62
     7
370
    25
100
AcDbCircle
 10
-46.1978036687
 20
61.9830568477
 30
0.0
 40
1.000000000000014
100
AcDbArc
 50
60.0
 51
240.0
  0
ARC
  5
1F9
330
1F
100
AcDbEntity
  8
0
  6
Continuous
 62
     7
370
    25
100
AcDbCircle
 10
33.2074226119
 20
54.4830568477
 30
0.0
 40
1.000000000000008
100
AcDbArc
 50
120.0
 51
300.0
  0
ARC
  5
1FA
330
1F
100
AcDbEntity
  8
0
  6
Continuous
 62
     7
370
    25
100
AcDbCircle
 10
46.1978036687
 20
61.9830568477
 30
0.0
 40
0.9999999999999988
100
AcDbArc
 50
300.0
 51
120.0
  0
ARC
  5
1FB
330
1F
100
AcDbEntity
  8
0
  6
Continuous
 62
     7
370
    25
100
AcDbCircle
 10
61.2874226119
 20
5.8470701712
 30
0.0
 40
1.000000000000003
100
AcDbArc
 50
120.0
 51
300.0
  0
ARC
  5
1FC
330
1F
100
AcDbEntity
  8
0
  6
Continuous
 62
     7
370
    25
100
AcDbCircle
 10
74.2778036687
 20
13.3470701712
 30
0.0
 40
1.000000000000006
100
AcDbArc
 50
300.0
 51
120.0
  0
ARC
  5
1FD
330
1F
100
AcDbEntity
  8
0
  6
Continuous
 62
     7
370
    25
100
AcDbCircle
 10
63.7874226119
 20
1.5169431523
 30
0.0
 40
1.000000000000004
100
AcDbArc
 50
120.0
 51
300.0
  0
ARC
  5
1FE
330
1F
100
AcDbEntity
  8
0
  6
Continuous
 62
     7
370
    25
100
AcDbCircle
 10
76.7778036687
 20
9.0169431523
 30
0.0
 40
1.00000000000001
100
AcDbArc
 50
300.0
 51
120.0
  0
ARC
  5
1FF
330
1F
100
AcDbEntity
  8
0
  6
Continuous
 62
     7
370
    25
100
AcDbCircle
 10
-61.2874226119
 20
5.8470701712
 30
0.0
 40
1.000000000000002
100
AcDbArc
 50
240.0
 51
60.0
  0
ARC
  5
200
330
1F
100
AcDbEntity
  8
0
  6
Continuous
 62
     7
370
    25
100
AcDbCircle
 10
-74.2778036687
 20
13.3470701712
 30
0.0
 40
0.999999999999999
100
AcDbArc
 50
60.0
 51
240.0
  0
ARC
  5
201
330
1F
100
AcDbEntity
  8
0
  6
Continuous
 62
     7
370
    25
100
AcDbCircle
 10
21.6506350946
 20
12.5
 30
0.0
 40
85.0000000000002
100
AcDbArc
 50
350.9752825678
 51
50.6230748698
  0
ARC
  5
202
330
1F
100
AcDbEntity
  8
0
  6
Continuous
 62
     7
370
    25
100
AcDbCircle
 10
0.0
 20
-25.0
 30
0.0
 40
84.9999999999999
100
AcDbArc
 50
230.9752825678
 51
309.0247174322
  0
ARC
  5
203
330
1F
100
AcDbEntity
  8
0
  6
Continuous
 62
     7
370
    25
100
AcDbCircle
 10
-21.6506350946
 20
12.5
 30
0.0
 40
85.00000000000043
100
AcDbArc
 50
129.3769251302
 51
189.0247174322
  0
ENDSEC
  0
SECTION
  2
OBJECTS
  0
DICTIONARY
  5
C
330
0
100
AcDbDictionary
281
     1
  3
ACAD_GROUP
350
D
  3
ACAD_LAYOUT
350
1A
  3
ACAD_MLINESTYLE
350
17
  3
ACAD_PLOTSETTINGS
350
19
  3
ACAD_PLOTSTYLENAME
350
E
  3
ACAD_SCALELIST
350
47
  0
DICTIONARY
  5
D
102
{ACAD_REACTORS
330
C
102
}
330
C
100
AcDbDictionary
281
     1
  0
DICTIONARY
  5
1A
102
{ACAD_REACTORS
330
C
102
}
330
C
100
AcDbDictionary
281
     1
  3
Layout1
350
1E
  3
Layout2
350
26
  3
Model
350
22
  0
DICTIONARY
  5
17
102
{ACAD_REACTORS
330
C
102
}
330
C
100
AcDbDictionary
281
     1
  3
Standard
350
18
  0
DICTIONARY
  5
19
102
{ACAD_REACTORS
330
C
102
}
330
C
100
AcDbDictionary
281
     1
  0
ACDBDICTIONARYWDFLT
  5
E
102
{ACAD_REACTORS
330
C
102
}
330
C
100
AcDbDictionary
281
     1
  3
Normal
350
F
100
AcDbDictionaryWithDefault
340
F
  0
DICTIONARY
  5
47
102
{ACAD_REACTORS
330
C
102
}
330
C
100
AcDbDictionary
281
     1
  3
A0
350
48
  3
A1
350
49
  3
A2
350
4A
  3
A3
350
4B
  3
A4
350
4C
  3
A5
350
4D
  3
A6
350
4E
  3
A7
350
4F
  3
A8
350
50
  3
A9
350
51
  3
B0
350
52
  3
B1
350
53
  3
B2
350
54
  3
B3
350
55
  3
B4
350
56
  3
B5
350
57
  3
B6
350
58
  3
B7
350
59
  3
B8
350
5A
  3
B9
350
5B
  3
C0
350
5C
  3
C1
350
5D
  3
C2
350
5E
  3
C3
350
5F
  3
C4
350
60
  3
C5
350
61
  3
C6
350
62
  3
C7
350
63
  3
C8
350
64
  3
C9
350
65
  3
D0
350
66
  3
D1
350
67
  3
D2
350
68
  0
LAYOUT
  5
1E
102
{ACAD_REACTORS
330
1A
102
}
330
1A
100
AcDbPlotSettings
  1

  2
none_device
  4

  6

 40
0.0
 41
0.0
 42
0.0
 43
0.0
 44
0.0
 45
0.0
 46
0.0
 47
0.0
 48
0.0
 49
0.0
140
0.0
141
0.0
142
1.0
143
1.0
 70
   688
 72
     1
 73
     0
 74
     5
  7

 75
    16
147
1.0
148
0.0
149
0.0
100
AcDbLayout
  1
Layout1
 70
     1
 71
     1
 10
0.0
 20
0.0
 11
420.0
 21
297.0
 12
0.0
 22
0.0
 32
0.0
 14
1.0000000000E+20
 24
1.0000000000E+20
 34
1.0000000000E+20
 15
-1.0000000000E+20
 25
-1.0000000000E+20
 35
-1.0000000000E+20
146
0.0
 13
0.0
 23
0.0
 33
0.0
 16
1.0
 26
0.0
 36
0.0
 17
0.0
 27
1.0
 37
0.0
 76
     0
330
1B
  0
LAYOUT
  5
26
102
{ACAD_REACTORS
330
1A
102
}
330
1A
100
AcDbPlotSettings
  1

  2
none_device
  4

  6

 40
0.0
 41
0.0
 42
0.0
 43
0.0
 44
0.0
 45
0.0
 46
0.0
 47
0.0
 48
0.0
 49
0.0
140
0.0
141
0.0
142
1.0
143
1.0
 70
   688
 72
     1
 73
     0
 74
     5
  7

 75
    16
147
1.0
148
0.0
149
0.0
100
AcDbLayout
  1
Layout2
 70
     1
 71
     2
 10
0.0
 20
0.0
 11
0.0
 21
0.0
 12
0.0
 22
0.0
 32
0.0
 14
0.0
 24
0.0
 34
0.0
 15
0.0
 25
0.0
 35
0.0
146
0.0
 13
0.0
 23
0.0
 33
0.0
 16
1.0
 26
0.0
 36
0.0
 17
0.0
 27
1.0
 37
0.0
 76
     0
330
23
  0
LAYOUT
  5
22
102
{ACAD_REACTORS
330
1A
102
}
330
1A
100
AcDbPlotSettings
  1

  2
none_device
  4
ANSI_A_(11.00_x_8.50_Inches)
  6

 40
6.35
 41
19.05
 42
6.35000508
 43
19.05000254
 44
279.4
 45
215.9
 46
133.34999746
 47
84.7536773389
 48
0.0
 49
0.0
140
0.0
141
0.0
142
0.0367659909
143
1.0
 70
  1696
 72
     0
 73
     0
 74
     0
  7

 75
     0
147
0.0179189148
148
-1300.4909072572
149
0.0
100
AcDbLayout
  1
Model
 70
     1
 71
     0
 10
0.0
 20
0.0
 11
420.0
 21
297.0
 12
0.0
 22
0.0
 32
0.0
 14
-106.6506350946
 24
-110.0
 34
0.0
 15
106.6506350946
 25
118.88
 35
0.0
146
0.0
 13
0.0
 23
0.0
 33
0.0
 16
1.0
 26
0.0
 36
0.0
 17
0.0
 27
1.0
 37
0.0
 76
     0
330
1F
331
29
  0
MLINESTYLE
  5
18
102
{ACAD_REACTORS
330
17
102
}
330
17
100
AcDbMlineStyle
  2
Standard
 70
     0
  3

 62
   256
 51
90.0
 52
90.0
 71
     2
 49
0.5
 62
   256
  6
BYLAYER
 49
-0.5
 62
   256
  6
BYLAYER
  0
ACDBPLACEHOLDER
  5
F
102
{ACAD_REACTORS
330
E
102
}
330
E
  0
SCALE
  5
48
102
{ACAD_REACTORS
330
47
102
}
330
47
100
AcDbScale
 70
     0
300
1:1
140
1.0
141
1.0
290
     1
  0
SCALE
  5
49
102
{ACAD_REACTORS
330
47
102
}
330
47
100
AcDbScale
 70
     0
300
1:2
140
1.0
141
2.0
290
     0
  0
SCALE
  5
4A
102
{ACAD_REACTORS
330
47
102
}
330
47
100
AcDbScale
 70
     0
300
1:4
140
1.0
141
4.0
290
     0
  0
SCALE
  5
4B
102
{ACAD_REACTORS
330
47
102
}
330
47
100
AcDbScale
 70
     0
300
1:5
140
1.0
141
5.0
290
     0
  0
SCALE
  5
4C
102
{ACAD_REACTORS
330
47
102
}
330
47
100
AcDbScale
 70
     0
300
1:8
140
1.0
141
8.0
290
     0
  0
SCALE
  5
4D
102
{ACAD_REACTORS
330
47
102
}
330
47
100
AcDbScale
 70
     0
300
1:10
140
1.0
141
10.0
290
     0
  0
SCALE
  5
4E
102
{ACAD_REACTORS
330
47
102
}
330
47
100
AcDbScale
 70
     0
300
1:16
140
1.0
141
16.0
290
     0
  0
SCALE
  5
4F
102
{ACAD_REACTORS
330
47
102
}
330
47
100
AcDbScale
 70
     0
300
1:20
140
1.0
141
20.0
290
     0
  0
SCALE
  5
50
102
{ACAD_REACTORS
330
47
102
}
330
47
100
AcDbScale
 70
     0
300
1:30
140
1.0
141
30.0
290
     0
  0
SCALE
  5
51
102
{ACAD_REACTORS
330
47
102
}
330
47
100
AcDbScale
 70
     0
300
1:40
140
1.0
141
40.0
290
     0
  0
SCALE
  5
52
102
{ACAD_REACTORS
330
47
102
}
330
47
100
AcDbScale
 70
     0
300
1:50
140
1.0
141
50.0
290
     0
  0
SCALE
  5
53
102
{ACAD_REACTORS
330
47
102
}
330
47
100
AcDbScale
 70
     0
300
1:100
140
1.0
141
100.0
290
     0
  0
SCALE
  5
54
102
{ACAD_REACTORS
330
47
102
}
330
47
100
AcDbScale
 70
     0
300
2:1
140
2.0
141
1.0
290
     0
  0
SCALE
  5
55
102
{ACAD_REACTORS
330
47
102
}
330
47
100
AcDbScale
 70
     0
300
4:1
140
4.0
141
1.0
290
     0
  0
SCALE
  5
56
102
{ACAD_REACTORS
330
47
102
}
330
47
100
AcDbScale
 70
     0
300
8:1
140
8.0
141
1.0
290
     0
  0
SCALE
  5
57
102
{ACAD_REACTORS
330
47
102
}
330
47
100
AcDbScale
 70
     0
300
10:1
140
10.0
141
1.0
290
     0
  0
SCALE
  5
58
102
{ACAD_REACTORS
330
47
102
}
330
47
100
AcDbScale
 70
     0
300
100:1
140
100.0
141
1.0
290
     0
  0
SCALE
  5
59
102
{ACAD_REACTORS
330
47
102
}
330
47
100
AcDbScale
 70
     0
300
1/128" = 1'-0"
140
0.0078125
141
12.0
290
     0
  0
SCALE
  5
5A
102
{ACAD_REACTORS
330
47
102
}
330
47
100
AcDbScale
 70
     0
300
1/64" = 1'-0"
140
0.015625
141
12.0
290
     0
  0
SCALE
  5
5B
102
{ACAD_REACTORS
330
47
102
}
330
47
100
AcDbScale
 70
     0
300
1/32" = 1'-0"
140
0.03125
141
12.0
290
     0
  0
SCALE
  5
5C
102
{ACAD_REACTORS
330
47
102
}
330
47
100
AcDbScale
 70
     0
300
1/16" = 1'-0"
140
0.0625
141
12.0
290
     0
  0
SCALE
  5
5D
102
{ACAD_REACTORS
330
47
102
}
330
47
100
AcDbScale
 70
     0
300
3/32" = 1'-0"
140
0.09375
141
12.0
290
     0
  0
SCALE
  5
5E
102
{ACAD_REACTORS
330
47
102
}
330
47
100
AcDbScale
 70
     0
300
1/8" = 1'-0"
140
0.125
141
12.0
290
     0
  0
SCALE
  5
5F
102
{ACAD_REACTORS
330
47
102
}
330
47
100
AcDbScale
 70
     0
300
3/16" = 1'-0"
140
0.1875
141
12.0
290
     0
  0
SCALE
  5
60
102
{ACAD_REACTORS
330
47
102
}
330
47
100
AcDbScale
 70
     0
300
1/4" = 1'-0"
140
0.25
141
12.0
290
     0
  0
SCALE
  5
61
102
{ACAD_REACTORS
330
47
102
}
330
47
100
AcDbScale
 70
     0
300
3/8" = 1'-0"
140
0.375
141
12.0
290
     0
  0
SCALE
  5
62
102
{ACAD_REACTORS
330
47
102
}
330
47
100
AcDbScale
 70
     0
300
1/2" = 1'-0"
140
0.5
141
12.0
290
     0
  0
SCALE
  5
63
102
{ACAD_REACTORS
330
47
102
}
330
47
100
AcDbScale
 70
     0
300
3/4" = 1'-0"
140
0.75
141
12.0
290
     0
  0
SCALE
  5
64
102
{ACAD_REACTORS
330
47
102
}
330
47
100
AcDbScale
 70
     0
300
1" = 1'-0"
140
1.0
141
12.0
290
     0
  0
SCALE
  5
65
102
{ACAD_REACTORS
330
47
102
}
330
47
100
AcDbScale
 70
     0
300
1-1/2" = 1'-0"
140
1.5
141
12.0
290
     0
  0
SCALE
  5
66
102
{ACAD_REACTORS
330
47
102
}
330
47
100
AcDbScale
 70
     0
300
3" = 1'-0"
140
3.0
141
12.0
290
     0
  0
SCALE
  5
67
102
{ACAD_REACTORS
330
47
102
}
330
47
100
AcDbScale
 70
     0
300
6" = 1'-0"
140
6.0
141
12.0
290
     0
  0
SCALE
  5
68
102
{ACAD_REACTORS
330
47
102
}
330
47
100
AcDbScale
 70
     0
300
1'-0" = 1'-0"
140
12.0
141
12.0
290
     0
  0
ENDSEC
  0
EOF
