  0
SECTION
  2
HEADER
  9
$ACADVER
  1
AC1015
  9
$ACADMAINTVER
 70
     6
  9
$DWGCODEPAGE
  3
ANSI_1252
  9
$INSBASE
 10
0.0
 20
0.0
 30
0.0
  9
$EXTMIN
 10
-117.787038122
 20
-130.0
 30
0.0
  9
$EXTMAX
 10
117.787038122
 20
91.9999999999
 30
0.0
  9
$LIMMIN
 10
0.0
 20
0.0
  9
$LIMMAX
 10
420.0
 20
297.0
  9
$ORTHOMODE
 70
     0
  9
$REGENMODE
 70
     1
  9
$FILLMODE
 70
     1
  9
$QTEXTMODE
 70
     0
  9
$MIRRTEXT
 70
     1
  9
$LTSCALE
 40
1.0
  9
$ATTMODE
 70
     1
  9
$TEXTSIZE
 40
3.5
  9
$TRACEWID
 40
1.0
  9
$TEXTSTYLE
  7
Standard
  9
$CLAYER
  8
0
  9
$CELTYPE
  6
ByLayer
  9
$CECOLOR
 62
   256
  9
$CELTSCALE
 40
1.0
  9
$DISPSILH
 70
     0
  9
$DIMSCALE
 40
1.0
  9
$DIMASZ
 40
3.302
  9
$DIMEXO
 40
1.0
  9
$DIMDLI
 40
3.75
  9
$DIMRND
 40
0.0
  9
$DIMDLE
 40
0.0
  9
$DIMEXE
 40
1.0
  9
$DIMTP
 40
0.0
  9
$DIMTM
 40
0.0
  9
$DIMTXT
 40
3.5
  9
$DIMCEN
 40
2.5
  9
$DIMTSZ
 40
0.0
  9
$DIMTOL
 70
     0
  9
$DIMLIM
 70
     0
  9
$DIMTIH
 70
     1
  9
$DIMTOH
 70
     1
  9
$DIMSE1
 70
     0
  9
$DIMSE2
 70
     0
  9
$DIMTAD
 70
     1
  9
$DIMZIN
 70
     0
  9
$DIMBLK
  1

  9
$DIMASO
 70
     1
  9
$DIMSHO
 70
     1
  9
$DIMPOST
  1

  9
$DIMAPOST
  1

  9
$DIMALT
 70
     0
  9
$DIMALTD
 70
     3
  9
$DIMALTF
 40
0.0393700787
  9
$DIMLFAC
 40
1.0
  9
$DIMTOFL
 70
     1
  9
$DIMTVP
 40
0.0
  9
$DIMTIX
 70
     0
  9
$DIMSOXD
 70
     0
  9
$DIMSAH
 70
     0
  9
$DIMBLK1
  1

  9
$DIMBLK2
  1

  9
$DIMSTYLE
  2
ISO-25
  9
$DIMCLRD
 70
     0
  9
$DIMCLRE
 70
     0
  9
$DIMCLRT
 70
     0
  9
$DIMTFAC
 40
1.0
  9
$DIMGAP
 40
1.524
  9
$DIMJUST
 70
     0
  9
$DIMSD1
 70
     0
  9
$DIMSD2
 70
     0
  9
$DIMTOLJ
 70
     0
  9
$DIMTZIN
 70
     0
  9
$DIMALTZ
 70
     0
  9
$DIMALTTZ
 70
     0
  9
$DIMUPT
 70
     0
  9
$DIMDEC
 70
     2
  9
$DIMTDEC
 70
     2
  9
$DIMALTU
 70
     2
  9
$DIMALTTD
 70
     3
  9
$DIMTXSTY
  7
Standard
  9
$DIMAUNIT
 70
     0
  9
$DIMADEC
 70
     2
  9
$DIMALTRND
 40
0.0
  9
$DIMAZIN
 70
     0
  9
$DIMDSEP
 70
    44
  9
$DIMATFIT
 70
     3
  9
$DIMFRAC
 70
     0
  9
$DIMLDRBLK
  1

  9
$DIMLUNIT
 70
     2
  9
$DIMLWD
 70
    -2
  9
$DIMLWE
 70
    -2
  9
$DIMTMOVE
 70
     0
  9
$LUNITS
 70
     2
  9
$LUPREC
 70
     2
  9
$SKETCHINC
 40
1.0
  9
$FILLETRAD
 40
10.0
  9
$AUNITS
 70
     0
  9
$AUPREC
 70
     2
  9
$MENU
  1
.
  9
$ELEVATION
 40
0.0
  9
$PELEVATION
 40
0.0
  9
$THICKNESS
 40
0.0
  9
$LIMCHECK
 70
     0
  9
$CHAMFERA
 40
0.0
  9
$CHAMFERB
 40
0.0
  9
$CHAMFERC
 40
0.0
  9
$CHAMFERD
 40
0.0
  9
$SKPOLY
 70
     0
  9
$TDCREATE
 40
2457743.693458542
  9
$TDUCREATE
 40
2457743.901791875
  9
$TDUPDATE
 40
2457743.69348956
  9
$TDUUPDATE
 40
2457743.901822893
  9
$TDINDWG
 40
0.0000000116
  9
$TDUSRTIMER
 40
0.0000000116
  9
$USRTIMER
 70
     1
  9
$ANGBASE
 50
0.0
  9
$ANGDIR
 70
     0
  9
$PDMODE
 70
     0
  9
$PDSIZE
 40
-1.0
  9
$PLINEWID
 40
0.0
  9
$SPLFRAME
 70
     0
  9
$SPLINETYPE
 70
     6
  9
$SPLINESEGS
 70
     8
  9
$HANDSEED
  5
212
  9
$SURFTAB1
 70
     6
  9
$SURFTAB2
 70
     6
  9
$SURFTYPE
 70
     6
  9
$SURFU
 70
     6
  9
$SURFV
 70
     6
  9
$UCSBASE
  2

  9
$UCSNAME
  2

  9
$UCSORG
 10
0.0
 20
0.0
 30
0.0
  9
$UCSXDIR
 10
1.0
 20
0.0
 30
0.0
  9
$UCSYDIR
 10
0.0
 20
1.0
 30
0.0
  9
$UCSORTHOREF
  2

  9
$UCSORTHOVIEW
 70
     0
  9
$UCSORGTOP
 10
0.0
 20
0.0
 30
0.0
  9
$UCSORGBOTTOM
 10
0.0
 20
0.0
 30
0.0
  9
$UCSORGLEFT
 10
0.0
 20
0.0
 30
0.0
  9
$UCSORGRIGHT
 10
0.0
 20
0.0
 30
0.0
  9
$UCSORGFRONT
 10
0.0
 20
0.0
 30
0.0
  9
$UCSORGBACK
 10
0.0
 20
0.0
 30
0.0
  9
$PUCSBASE
  2

  9
$PUCSNAME
  2

  9
$PUCSORG
 10
0.0
 20
0.0
 30
0.0
  9
$PUCSXDIR
 10
1.0
 20
0.0
 30
0.0
  9
$PUCSYDIR
 10
0.0
 20
1.0
 30
0.0
  9
$PUCSORTHOREF
  2

  9
$PUCSORTHOVIEW
 70
     0
  9
$PUCSORGTOP
 10
0.0
 20
0.0
 30
0.0
  9
$PUCSORGBOTTOM
 10
0.0
 20
0.0
 30
0.0
  9
$PUCSORGLEFT
 10
0.0
 20
0.0
 30
0.0
  9
$PUCSORGRIGHT
 10
0.0
 20
0.0
 30
0.0
  9
$PUCSORGFRONT
 10
0.0
 20
0.0
 30
0.0
  9
$PUCSORGBACK
 10
0.0
 20
0.0
 30
0.0
  9
$USERI1
 70
     0
  9
$USERI2
 70
     0
  9
$USERI3
 70
     0
  9
$USERI4
 70
     0
  9
$USERI5
 70
     0
  9
$USERR1
 40
0.0
  9
$USERR2
 40
0.0
  9
$USERR3
 40
0.0
  9
$USERR4
 40
0.0
  9
$USERR5
 40
0.0
  9
$WORLDVIEW
 70
     1
  9
$SHADEDGE
 70
     3
  9
$SHADEDIF
 70
    70
  9
$TILEMODE
 70
     1
  9
$MAXACTVP
 70
    64
  9
$PINSBASE
 10
0.0
 20
0.0
 30
0.0
  9
$PLIMCHECK
 70
     0
  9
$PEXTMIN
 10
1.0000000000E+20
 20
1.0000000000E+20
 30
1.0000000000E+20
  9
$PEXTMAX
 10
-1.0000000000E+20
 20
-1.0000000000E+20
 30
-1.0000000000E+20
  9
$PLIMMIN
 10
0.0
 20
0.0
  9
$PLIMMAX
 10
420.0
 20
297.0
  9
$UNITMODE
 70
     0
  9
$VISRETAIN
 70
     1
  9
$PLINEGEN
 70
     0
  9
$PSLTSCALE
 70
     1
  9
$TREEDEPTH
 70
  3020
  9
$CMLSTYLE
  2
Standard
  9
$CMLJUST
 70
     0
  9
$CMLSCALE
 40
20.0
  9
$PROXYGRAPHICS
 70
     1
  9
$MEASUREMENT
 70
     1
  9
$CELWEIGHT
370
    -1
  9
$ENDCAPS
280
     0
  9
$JOINSTYLE
280
     0
  9
$LWDISPLAY
290
     1
  9
$INSUNITS
 70
     4
  9
$HYPERLINKBASE
  1

  9
$STYLESHEET
  1

  9
$XEDIT
290
     1
  9
$CEPSNTYPE
380
     0
  9
$PSTYLEMODE
290
     1
  9
$FINGERPRINTGUID
  2
{886E478B-3B63-423B-AE6A-5DF6C5F5DABA}
  9
$VERSIONGUID
  2
{FAEB1C32-E019-11D5-929B-00C0DF256EC4}
  9
$EXTNAMES
290
     1
  9
$PSVPSCALE
 40
0.0
  9
$OLESTARTUP
290
     0
  0
ENDSEC
  0
SECTION
  2
CLASSES
  0
CLASS
  1
ACDBDICTIONARYWDFLT
  2
AcDbDictionaryWithDefault
  3
ObjectDBX Classes
 90
        0
280
     0
281
     0
  0
CLASS
  1
VISUALSTYLE
  2
AcDbVisualStyle
  3
ObjectDBX Classes
 90
     4095
280
     0
281
     0
  0
CLASS
  1
MATERIAL
  2
AcDbMaterial
  3
ObjectDBX Classes
 90
     1153
280
     0
281
     0
  0
CLASS
  1
SCALE
  2
AcDbScale
  3
ObjectDBX Classes
 90
     1153
280
     0
281
     0
  0
CLASS
  1
TABLESTYLE
  2
AcDbTableStyle
  3
ObjectDBX Classes
 90
     4095
280
     0
281
     0
  0
CLASS
  1
MLEADERSTYLE
  2
AcDbMLeaderStyle
  3
ACDB_MLEADERSTYLE_CLASS
 90
     4095
280
     0
281
     0
  0
CLASS
  1
SUN
  2
AcDbSun
  3
SCENEOE
 90
     1153
280
     0
281
     0
  0
CLASS
  1
ACDBPLACEHOLDER
  2
AcDbPlaceHolder
  3
ObjectDBX Classes
 90
        0
280
     0
281
     0
  0
CLASS
  1
LAYOUT
  2
AcDbLayout
  3
ObjectDBX Classes
 90
        0
280
     0
281
     0
  0
ENDSEC
  0
SECTION
  2
TABLES
  0
TABLE
  2
VPORT
  5
8
330
0
100
AcDbSymbolTable
 70
     1
  0
VPORT
  5
29
330
8
100
AcDbSymbolTableRecord
100
AcDbViewportTableRecord
  2
*Active
 70
     0
 10
0.0
 20
0.0
 11
1.0
 21
1.0
 12
0.0
 22
-19.0000000001
 13
0.0
 23
0.0
 14
10.0
 24
10.0
 15
10.0
 25
10.0
 16
0.0
 26
0.0
 36
1.0
 17
0.0
 27
0.0
 37
0.0
 40
226.4399999999
 41
1.0611444876
 42
50.0
 43
0.0
 44
0.0
 50
0.0
 51
0.0
 71
     0
 72
   100
 73
     1
 74
     3
 75
     0
 76
     0
 77
     0
 78
     0
281
     0
 65
     1
110
0.0
120
0.0
130
0.0
111
1.0
121
0.0
131
0.0
112
0.0
122
1.0
132
0.0
 79
     0
146
0.0
  0
ENDTAB
  0
TABLE
  2
LTYPE
  5
5
330
0
100
AcDbSymbolTable
 70
     6
  0
LTYPE
  5
14
330
5
100
AcDbSymbolTableRecord
100
AcDbLinetypeTableRecord
  2
ByBlock
 70
     0
  3

 72
    65
 73
     0
 40
0.0
  0
LTYPE
  5
15
330
5
100
AcDbSymbolTableRecord
100
AcDbLinetypeTableRecord
  2
ByLayer
 70
     0
  3

 72
    65
 73
     0
 40
0.0
  0
LTYPE
  5
16
330
5
100
AcDbSymbolTableRecord
100
AcDbLinetypeTableRecord
  2
Continuous
 70
     0
  3
Solid line
 72
    65
 73
     0
 40
0.0
  0
LTYPE
  5
6E
330
5
100
AcDbSymbolTableRecord
100
AcDbLinetypeTableRecord
  2
HIDDEN
 70
     0
  3
Hidden __ __ __ __ __ __ __ __ __ __ __ __ __ __
 72
    65
 73
     2
 40
1.905
 49
1.27
 74
     0
 49
-0.635
 74
     0
  0
LTYPE
  5
6F
330
5
100
AcDbSymbolTableRecord
100
AcDbLinetypeTableRecord
  2
PHANTOM
 70
     0
  3
Phantom ______  __  __  ______  __  __  ______
 72
    65
 73
     6
 40
12.7
 49
6.35
 74
     0
 49
-1.27
 74
     0
 49
1.27
 74
     0
 49
-1.27
 74
     0
 49
1.27
 74
     0
 49
-1.27
 74
     0
  0
LTYPE
  5
70
330
5
100
AcDbSymbolTableRecord
100
AcDbLinetypeTableRecord
  2
CENTER
 70
     0
  3
Center ____ _ ____ _ ____ _ ____ _ ____ _ ____
 72
    65
 73
     4
 40
10.16
 49
6.35
 74
     0
 49
-1.27
 74
     0
 49
1.27
 74
     0
 49
-1.27
 74
     0
  0
LTYPE
  5
71
330
5
100
AcDbSymbolTableRecord
100
AcDbLinetypeTableRecord
  2
CENTERX2
 70
     0
  3
Center (2x) ________  __  ________  __  _____
 72
    65
 73
     4
 40
20.32
 49
12.7
 74
     0
 49
-2.54
 74
     0
 49
2.54
 74
     0
 49
-2.54
 74
     0
  0
LTYPE
  5
72
330
5
100
AcDbSymbolTableRecord
100
AcDbLinetypeTableRecord
  2
DOT2
 70
     0
  3
Dot (.5x) ........................................
 72
    65
 73
     2
 40
0.635
 49
0.0
 74
     0
 49
-0.635
 74
     0
  0
ENDTAB
  0
TABLE
  2
LAYER
  5
2
330
0
100
AcDbSymbolTable
 70
     1
  0
LAYER
  5
10
330
2
100
AcDbSymbolTableRecord
100
AcDbLayerTableRecord
  2
0
 70
     0
 62
     7
  6
Continuous
370
    -3
390
F
  0
ENDTAB
  0
TABLE
  2
STYLE
  5
3
330
0
100
AcDbSymbolTable
 70
     1
  0
STYLE
  5
11
330
3
100
AcDbSymbolTableRecord
100
AcDbTextStyleTableRecord
  2
Standard
 70
     0
 40
0.0
 41
1.0
 50
0.0
 71
     0
 42
3.5
  3
txt
  4

  0
ENDTAB
  0
TABLE
  2
VIEW
  5
6
330
0
100
AcDbSymbolTable
 70
     0
  0
ENDTAB
  0
TABLE
  2
UCS
  5
7
330
0
100
AcDbSymbolTable
 70
     0
  0
ENDTAB
  0
TABLE
  2
APPID
  5
9
330
0
100
AcDbSymbolTable
 70
     1
  0
APPID
  5
12
330
9
100
AcDbSymbolTableRecord
100
AcDbRegAppTableRecord
  2
ACAD
 70
     0
  0
ENDTAB
  0
TABLE
  2
DIMSTYLE
  5
A
330
0
100
AcDbSymbolTable
 70
     1
100
AcDbDimStyleTable
  0
DIMSTYLE
105
27
330
A
100
AcDbSymbolTableRecord
100
AcDbDimStyleTableRecord
  2
ISO-25
 70
     0
 41
2.5
 42
0.625
 43
3.75
 44
1.25
 73
     0
 74
     0
 77
     1
 78
     8
140
2.5
141
2.5
143
0.0393700787
147
0.625
171
     3
172
     1
178
     0
271
     2
272
     2
274
     3
278
    44
283
     0
284
     8
340
11
  0
ENDTAB
  0
TABLE
  2
BLOCK_RECORD
  5
1
330
0
100
AcDbSymbolTable
 70
     1
  0
BLOCK_RECORD
  5
1F
330
1
100
AcDbSymbolTableRecord
100
AcDbBlockTableRecord
  2
*Model_Space
340
22
  0
BLOCK_RECORD
  5
1B
330
1
100
AcDbSymbolTableRecord
100
AcDbBlockTableRecord
  2
*Paper_Space
340
1E
  0
BLOCK_RECORD
  5
23
330
1
100
AcDbSymbolTableRecord
100
AcDbBlockTableRecord
  2
*Paper_Space0
340
26
  0
ENDTAB
  0
ENDSEC
  0
SECTION
  2
BLOCKS
  0
BLOCK
  5
20
330
1F
100
AcDbEntity
  8
0
100
AcDbBlockBegin
  2
*Model_Space
 70
     0
 10
0.0
 20
0.0
 30
0.0
  3
*Model_Space
  1

  0
ENDBLK
  5
21
330
1F
100
AcDbEntity
  8
0
100
AcDbBlockEnd
  0
BLOCK
  5
1C
330
1B
100
AcDbEntity
 67
     1
  8
0
100
AcDbBlockBegin
  2
*Paper_Space
 70
     0
 10
0.0
 20
0.0
 30
0.0
  3
*Paper_Space
  1

  0
ENDBLK
  5
1D
330
1B
100
AcDbEntity
 67
     1
  8
0
100
AcDbBlockEnd
  0
BLOCK
  5
24
330
23
100
AcDbEntity
  8
0
100
AcDbBlockBegin
  2
*Paper_Space0
 70
     0
 10
0.0
 20
0.0
 30
0.0
  3
*Paper_Space0
  1

  0
ENDBLK
  5
25
330
23
100
AcDbEntity
  8
0
100
AcDbBlockEnd
  0
ENDSEC
  0
SECTION
  2
ENTITIES
  0
CIRCLE
  5
73
330
1F
100
AcDbEntity
  8
0
  6
Continuous
 62
     7
370
    25
100
AcDbCircle
 10
-0.0000000005
 20
-37.0
 30
0.0
 40
3.399999999999971
  0
CIRCLE
  5
80
330
1F
100
AcDbEntity
  8
0
  6
Continuous
 62
     7
370
    25
100
AcDbCircle
 10
-32.0429399398
 20
18.5000000005
 30
0.0
 40
3.399999999999977
  0
CIRCLE
  5
89
330
1F
100
AcDbEntity
  8
0
  6
Continuous
 62
     7
370
    25
100
AcDbCircle
 10
32.0429399403
 20
18.4999999995
 30
0.0
 40
3.399999999999984
  0
CIRCLE
  5
8E
330
1F
100
AcDbEntity
  8
0
  6
Continuous
 62
     7
370
    25
100
AcDbCircle
 10
-101.3249722419
 20
58.4999999995
 30
0.0
 40
1.774999999999991
  0
CIRCLE
  5
CE
330
1F
100
AcDbEntity
  8
0
  6
Continuous
 62
     7
370
    25
100
AcDbCircle
 10
101.3249722419
 20
58.4999999995
 30
0.0
 40
1.775000000000026
  0
CIRCLE
  5
CF
330
1F
100
AcDbEntity
  8
0
  6
Continuous
 62
     7
370
    25
100
AcDbCircle
 10
0.0
 20
-116.999999999
 30
0.0
 40
1.774999999999981
  0
CIRCLE
  5
100
330
1F
100
AcDbEntity
  8
0
  6
Continuous
 62
     7
370
    25
100
AcDbCircle
 10
88.2640831103
 20
-11.1221235694
 30
0.0
 40
1.600000000000009
  0
CIRCLE
  5
101
330
1F
100
AcDbEntity
  8
0
  6
Continuous
 62
     7
370
    25
100
AcDbCircle
 10
53.7640831103
 20
-70.8778764306
 30
0.0
 40
1.599999999999994
  0
CIRCLE
  5
102
330
1F
100
AcDbEntity
  8
0
  6
Continuous
 62
     7
370
    25
100
AcDbCircle
 10
0.0
 20
0.0
 30
0.0
 40
7.5
  0
CIRCLE
  5
103
330
1F
100
AcDbEntity
  8
0
  6
Continuous
 62
     7
370
    25
100
AcDbCircle
 10
80.7640831103
 20
-24.1125046262
 30
0.0
 40
1.600000000000009
  0
CIRCLE
  5
104
330
1F
100
AcDbEntity
  8
0
  6
Continuous
 62
     7
370
    25
100
AcDbCircle
 10
48.7640831103
 20
-79.5381304684
 30
0.0
 40
1.600000000000016
  0
CIRCLE
  5
105
330
1F
100
AcDbEntity
  8
0
  6
Continuous
 62
     7
370
    25
100
AcDbCircle
 10
93.2640831103
 20
-2.4618695316
 30
0.0
 40
1.600000000000009
  0
CIRCLE
  5
106
330
1F
100
AcDbEntity
  8
0
  6
Continuous
 62
     7
370
    25
100
AcDbCircle
 10
75.8538290725
 20
-12.6173140978
 30
0.0
 40
1.600000000000009
  0
CIRCLE
  5
107
330
1F
100
AcDbEntity
  8
0
  6
Continuous
 62
     7
370
    25
100
AcDbCircle
 10
61.2640831103
 20
-57.8874953738
 30
0.0
 40
1.600000000000009
  0
CIRCLE
  5
108
330
1F
100
AcDbEntity
  8
0
  6
Continuous
 62
     7
370
    25
100
AcDbCircle
 10
68.7640831103
 20
-44.897114317
 30
0.0
 40
1.600000000000009
  0
CIRCLE
  5
109
330
1F
100
AcDbEntity
  8
0
  6
Continuous
 62
     7
370
    25
100
AcDbCircle
 10
73.2640831103
 20
-37.102885683
 30
0.0
 40
1.600000000000023
  0
CIRCLE
  5
10A
330
1F
100
AcDbEntity
  8
0
  6
Continuous
 62
     7
370
    25
100
AcDbCircle
 10
62.3538290725
 20
-36.0
 30
0.0
 40
1.600000000000009
  0
CIRCLE
  5
10B
330
1F
100
AcDbEntity
  8
0
  6
Continuous
 62
     7
370
    25
100
AcDbCircle
 10
48.8538290725
 20
-59.3826859022
 30
0.0
 40
1.60000000000003
  0
CIRCLE
  5
10C
330
1F
100
AcDbEntity
  8
0
  6
Continuous
 62
     7
370
    25
100
AcDbCircle
 10
68.3538290725
 20
-25.6076951546
 30
0.0
 40
1.600000000000009
  0
CIRCLE
  5
10D
330
1F
100
AcDbEntity
  8
0
  6
Continuous
 62
     7
370
    25
100
AcDbCircle
 10
56.3538290725
 20
-46.3923048454
 30
0.0
 40
1.600000000000001
  0
CIRCLE
  5
10E
330
1F
100
AcDbEntity
  8
0
  6
Continuous
 62
     7
370
    25
100
AcDbCircle
 10
34.5
 20
82.0
 30
0.0
 40
1.600000000000013
  0
CIRCLE
  5
10F
330
1F
100
AcDbEntity
  8
0
  6
Continuous
 62
     7
370
    25
100
AcDbCircle
 10
-34.5
 20
82.0
 30
0.0
 40
1.599999999999992
  0
CIRCLE
  5
110
330
1F
100
AcDbEntity
  8
0
  6
Continuous
 62
     7
370
    25
100
AcDbCircle
 10
12.0
 20
72.0
 30
0.0
 40
1.600000000000004
  0
CIRCLE
  5
111
330
1F
100
AcDbEntity
  8
0
  6
Continuous
 62
     7
370
    25
100
AcDbCircle
 10
44.5
 20
82.0
 30
0.0
 40
1.600000000000013
  0
CIRCLE
  5
112
330
1F
100
AcDbEntity
  8
0
  6
Continuous
 62
     7
370
    25
100
AcDbCircle
 10
-44.5
 20
82.0
 30
0.0
 40
1.600000000000005
  0
CIRCLE
  5
113
330
1F
100
AcDbEntity
  8
0
  6
Continuous
 62
     7
370
    25
100
AcDbCircle
 10
-27.0
 20
72.0
 30
0.0
 40
1.600000000000011
  0
CIRCLE
  5
114
330
1F
100
AcDbEntity
  8
0
  6
Continuous
 62
     7
370
    25
100
AcDbCircle
 10
19.5
 20
82.0
 30
0.0
 40
1.599999999999999
  0
CIRCLE
  5
115
330
1F
100
AcDbEntity
  8
0
  6
Continuous
 62
     7
370
    25
100
AcDbCircle
 10
4.5
 20
82.0
 30
0.0
 40
1.600000000000013
  0
CIRCLE
  5
116
330
1F
100
AcDbEntity
  8
0
  6
Continuous
 62
     7
370
    25
100
AcDbCircle
 10
-4.5
 20
82.0
 30
0.0
 40
1.600000000000013
  0
CIRCLE
  5
117
330
1F
100
AcDbEntity
  8
0
  6
Continuous
 62
     7
370
    25
100
AcDbCircle
 10
0.0
 20
72.0
 30
0.0
 40
1.600000000000014
  0
CIRCLE
  5
118
330
1F
100
AcDbEntity
  8
0
  6
Continuous
 62
     7
370
    25
100
AcDbCircle
 10
27.0
 20
72.0
 30
0.0
 40
1.600000000000013
  0
CIRCLE
  5
119
330
1F
100
AcDbEntity
  8
0
  6
Continuous
 62
     7
370
    25
100
AcDbCircle
 10
-12.0
 20
72.0
 30
0.0
 40
1.600000000000014
  0
CIRCLE
  5
11A
330
1F
100
AcDbEntity
  8
0
  6
Continuous
 62
     7
370
    25
100
AcDbCircle
 10
-48.7640831103
 20
-79.5381304684
 30
0.0
 40
1.600000000000001
  0
CIRCLE
  5
11B
330
1F
100
AcDbEntity
  8
0
  6
Continuous
 62
     7
370
    25
100
AcDbCircle
 10
-48.8538290725
 20
-59.3826859022
 30
0.0
 40
1.600000000000001
  0
CIRCLE
  5
11C
330
1F
100
AcDbEntity
  8
0
  6
Continuous
 62
     7
370
    25
100
AcDbCircle
 10
-53.7640831103
 20
-70.8778764306
 30
0.0
 40
1.600000000000037
  0
CIRCLE
  5
11D
330
1F
100
AcDbEntity
  8
0
  6
Continuous
 62
     7
370
    25
100
AcDbCircle
 10
-61.2640831103
 20
-57.8874953738
 30
0.0
 40
1.600000000000023
  0
CIRCLE
  5
11E
330
1F
100
AcDbEntity
  8
0
  6
Continuous
 62
     7
370
    25
100
AcDbCircle
 10
-56.3538290725
 20
-46.3923048454
 30
0.0
 40
1.600000000000023
  0
CIRCLE
  5
11F
330
1F
100
AcDbEntity
  8
0
  6
Continuous
 62
     7
370
    25
100
AcDbCircle
 10
-62.3538290725
 20
-36.0
 30
0.0
 40
1.600000000000037
  0
CIRCLE
  5
120
330
1F
100
AcDbEntity
  8
0
  6
Continuous
 62
     7
370
    25
100
AcDbCircle
 10
-68.7640831103
 20
-44.897114317
 30
0.0
 40
1.600000000000009
  0
CIRCLE
  5
121
330
1F
100
AcDbEntity
  8
0
  6
Continuous
 62
     7
370
    25
100
AcDbCircle
 10
-73.2640831103
 20
-37.102885683
 30
0.0
 40
1.600000000000009
  0
CIRCLE
  5
122
330
1F
100
AcDbEntity
  8
0
  6
Continuous
 62
     7
370
    25
100
AcDbCircle
 10
-68.3538290725
 20
-25.6076951546
 30
0.0
 40
1.600000000000037
  0
CIRCLE
  5
123
330
1F
100
AcDbEntity
  8
0
  6
Continuous
 62
     7
370
    25
100
AcDbCircle
 10
-80.7640831103
 20
-24.1125046262
 30
0.0
 40
1.600000000000009
  0
CIRCLE
  5
124
330
1F
100
AcDbEntity
  8
0
  6
Continuous
 62
     7
370
    25
100
AcDbCircle
 10
-75.8538290725
 20
-12.6173140978
 30
0.0
 40
1.600000000000009
  0
CIRCLE
  5
125
330
1F
100
AcDbEntity
  8
0
  6
Continuous
 62
     7
370
    25
100
AcDbCircle
 10
-88.2640831103
 20
-11.1221235694
 30
0.0
 40
1.599999999999994
  0
CIRCLE
  5
126
330
1F
100
AcDbEntity
  8
0
  6
Continuous
 62
     7
370
    25
100
AcDbCircle
 10
-93.2640831103
 20
-2.4618695316
 30
0.0
 40
1.600000000000009
  0
SPLINE
  5
127
330
1F
100
AcDbEntity
  8
0
  6
Continuous
 62
     7
370
    25
100
AcDbSpline
210
0.0
220
0.0
230
1.0
 70
     8
 71
     3
 72
    15
 73
    11
 74
     0
 42
0.000000001
 43
0.00000001
 40
0.0
 40
0.0
 40
0.0
 40
0.0
 40
0.1917733604152492
 40
0.3635313456523702
 40
0.516817976424665
 40
0.6502995038689732
 40
0.7654266826161273
 40
0.8629244523506585
 40
0.9403052461787976
 40
1.0
 40
1.0
 40
1.0
 40
1.0
 10
1.818094135860646
 20
-90.99729938271486
 30
0.0
 10
1.833107229511179
 20
-90.96653807092598
 30
0.0
 10
1.861566501045899
 20
-90.90822600378361
 30
0.0
 10
1.898592937356739
 20
-90.82374925983233
 30
0.0
 10
1.932255942328658
 20
-90.74912769997863
 30
0.0
 10
1.957643268874196
 20
-90.68204829078519
 30
0.0
 10
1.980034515391493
 20
-90.62441345029622
 30
0.0
 10
1.993939969412581
 20
-90.57455862594595
 30
0.0
 10
2.003867876715563
 20
-90.53374697073808
 30
0.0
 10
2.005473576571711
 20
-90.50929725065204
 30
0.0
 10
2.006172839564033
 20
-90.49864969135672
 30
0.0
  0
SPLINE
  5
128
330
1F
100
AcDbEntity
  8
0
  6
Continuous
 62
     7
370
    25
100
AcDbSpline
210
0.0
220
0.0
230
1.0
 70
     8
 71
     3
 72
    11
 73
     7
 74
     0
 42
0.000000001
 43
0.00000001
 40
0.0
 40
0.0
 40
0.0
 40
0.0
 40
0.2568478676959582
 40
0.5011361000783245
 40
0.7437191108174181
 40
1.0
 40
1.0
 40
1.0
 40
1.0
 10
2.006172839564032
 20
-90.49864969135672
 30
0.0
 10
2.004813404982451
 20
-90.46752453781545
 30
0.0
 10
2.00216101097725
 20
-90.4067962234248
 30
0.0
 10
1.972224100346541
 20
-90.3210942294444
 30
0.0
 10
1.92634097862803
 20
-90.24302013312078
 30
0.0
 10
1.882866507331493
 20
-90.20099016482496
 30
0.0
 10
1.86053240746504
 20
-90.17939814814693
 30
0.0
  0
SPLINE
  5
129
330
1F
100
AcDbEntity
  8
0
  6
Continuous
 62
     7
370
    25
100
AcDbSpline
210
0.0
220
0.0
230
1.0
 70
     8
 71
     3
 72
    11
 73
     7
 74
     0
 42
0.000000001
 43
0.00000001
 40
0.0
 40
0.0
 40
0.0
 40
0.0
 40
0.2568630851445611
 40
0.5022881763937268
 40
0.7489880374907563
 40
1.0
 40
1.0
 40
1.0
 40
1.0
 10
1.860532407465041
 20
-90.17939814814693
 30
0.0
 10
1.837901680383272
 20
-90.16162089609581
 30
0.0
 10
1.793647961987075
 20
-90.12685800477173
 30
0.0
 10
1.718807991243664
 20
-90.08763928932713
 30
0.0
 10
1.637571046321951
 20
-90.06668408843014
 30
0.0
 10
1.581897427766274
 20
-90.06338980657364
 30
0.0
 10
1.553819444501993
 20
-90.06172839506073
 30
0.0
  0
SPLINE
  5
12A
330
1F
100
AcDbEntity
  8
0
  6
Continuous
 62
     7
370
    25
100
AcDbSpline
210
0.0
220
0.0
230
1.0
 70
     8
 71
     3
 72
    15
 73
    11
 74
     0
 42
0.000000001
 43
0.00000001
 40
0.0
 40
0.0
 40
0.0
 40
0.0
 40
0.1305878572295457
 40
0.2527448716881615
 40
0.3713967853300421
 40
0.4874018549268708
 40
0.6050969370185934
 40
0.7278262404528524
 40
0.8595071054133725
 40
1.0
 40
1.0
 40
1.0
 40
1.0
 10
1.553819444501992
 20
-90.06172839506073
 30
0.0
 10
1.530285747869027
 20
-90.06267182438049
 30
0.0
 10
1.484737706404565
 20
-90.06449777456781
 30
0.0
 10
1.418864610074497
 20
-90.07814714904475
 30
0.0
 10
1.358719928514024
 20
-90.10149871319642
 30
0.0
 10
1.303529032664462
 20
-90.13354529911824
 30
0.0
 10
1.255022677532622
 20
-90.17610954187852
 30
0.0
 10
1.211124073686862
 20
-90.22698009163707
 30
0.0
 10
1.172330829235589
 20
-90.2869878971947
 30
0.0
 10
1.152309884813503
 20
-90.33180447900577
 30
0.0
 10
1.14197530869971
 20
-90.35493827160423
 30
0.0
  0
SPLINE
  5
12B
330
1F
100
AcDbEntity
  8
0
  6
Continuous
 62
     7
370
    25
100
AcDbSpline
210
0.0
220
0.0
230
1.0
 70
     8
 71
     3
 72
    15
 73
    11
 74
     0
 42
0.000000001
 43
0.00000001
 40
0.0
 40
0.0
 40
0.0
 40
0.0
 40
0.1616103604228212
 40
0.3128164541803371
 40
0.4541353530097731
 40
0.584375449417593
 40
0.7035392510136327
 40
0.8128163915492221
 40
0.9122069785755629
 40
1.0
 40
1.0
 40
1.0
 40
1.0
 10
1.141975308699712
 20
-90.35493827160423
 30
0.0
 10
1.125827803962678
 20
-90.39155805767597
 30
0.0
 10
1.094572350027154
 20
-90.46244009520034
 30
0.0
 10
1.050378267095195
 20
-90.5658571801485
 30
0.0
 10
1.009056415285809
 20
-90.66205163367505
 30
0.0
 10
0.9705232140899686
 20
-90.75080806964388
 30
0.0
 10
0.9346111966428418
 20
-90.83204946028812
 30
0.0
 10
0.9018968418670239
 20
-90.90635113753764
 30
0.0
 10
0.871994408445543
 20
-90.97340252352305
 30
0.0
 10
0.853555595707756
 20
-91.01593228385866
 30
0.0
 10
0.8449074074655929
 20
-91.0358796296291
 30
0.0
  0
SPLINE
  5
12C
330
1F
100
AcDbEntity
  8
0
  6
Continuous
 62
     7
370
    25
100
AcDbSpline
210
0.0
220
0.0
230
1.0
 70
     8
 71
     3
 72
    15
 73
    11
 74
     0
 42
0.000000001
 43
0.00000001
 40
0.0
 40
0.0
 40
0.0
 40
0.0
 40
0.1616231365861336
 40
0.3126656104123509
 40
0.452882125426964
 40
0.5830402078443463
 40
0.7033905570985421
 40
0.812397564446871
 40
0.911097550348578
 40
0.9999999999999999
 40
0.9999999999999999
 40
0.9999999999999999
 40
0.9999999999999999
 10
0.8449074074656019
 20
-91.03587962962908
 30
0.0
 10
0.8067243717266807
 20
-91.11757676775353
 30
0.0
 10
0.7328579536576064
 20
-91.27562273877085
 30
0.0
 10
0.6246345598600597
 20
-91.50396605890275
 30
0.0
 10
0.5242474377801433
 20
-91.71659344627577
 30
0.0
 10
0.4308838660964178
 20
-91.91360099210696
 30
0.0
 10
0.343385226401932
 20
-92.0941101814795
 30
0.0
 10
0.2627438179267095
 20
-92.25843171556254
 30
0.0
 10
0.1909032632297389
 20
-92.40752778877481
 30
0.0
 10
0.1438335341804963
 20
-92.50102474910098
 30
0.0
 10
0.1215277778369372
 20
-92.54533179012338
 30
0.0
  0
SPLINE
  5
12D
330
1F
100
AcDbEntity
  8
0
  6
Continuous
 62
     7
370
    25
100
AcDbSpline
210
0.0
220
0.0
230
1.0
 70
     8
 71
     3
 72
    15
 73
    11
 74
     0
 42
0.000000001
 43
0.00000001
 40
0.0
 40
0.0
 40
0.0
 40
0.0
 40
0.1008965079273009
 40
0.2082084069713298
 40
0.3228658048672324
 40
0.4447167447931376
 40
0.5725837863619415
 40
0.7076942586211183
 40
0.850802837159803
 40
1.0
 40
1.0
 40
1.0
 40
1.0
 10
0.1215277778369272
 20
-92.5453317901234
 30
0.0
 10
0.0986342459852355
 20
-92.51580600523202
 30
0.0
 10
0.0513915227759981
 20
-92.45487707158416
 30
0.0
 10
-0.0205420721591351
 20
-92.35935730096782
 30
0.0
 10
-0.0933011662086296
 20
-92.25485903394814
 30
0.0
 10
-0.1694216895076769
 20
-92.14345167210516
 30
0.0
 10
-0.2476091701321266
 20
-92.02430631701165
 30
0.0
 10
-0.3288850321240865
 20
-91.89778613000072
 30
0.0
 10
-0.4123671964768783
 20
-91.76331189450157
 30
0.0
 10
-0.4682150901094503
 20
-91.67059033883805
 30
0.0
 10
-0.4967206789537714
 20
-91.62326388888921
 30
0.0
  0
SPLINE
  5
12E
330
1F
100
AcDbEntity
  8
0
  6
Continuous
 62
     7
370
    25
100
AcDbSpline
210
0.0
220
0.0
230
1.0
 70
     8
 71
     3
 72
    23
 73
    19
 74
     0
 42
0.000000001
 43
0.00000001
 40
0.0
 40
0.0
 40
0.0
 40
0.0
 40
0.1165520795813553
 40
0.2256783472470636
 40
0.3270867404308901
 40
0.4222576777430895
 40
0.5097132576197578
 40
0.5904814680494422
 40
0.6635316018985871
 40
0.7291557728726976
 40
0.7882539353306643
 40
0.8399226879240731
 40
0.8846146710261148
 40
0.9218811815225482
 40
0.9521692604336746
 40
0.9754796763499392
 40
0.9910867938381915
 40
1.0
 40
1.0
 40
1.0
 40
1.0
 10
-0.4967206789537723
 20
-91.62326388888921
 30
0.0
 10
-0.5192987077980691
 20
-91.58633529604863
 30
0.0
 10
-0.5630162652365942
 20
-91.51483091939264
 30
0.0
 10
-0.625190124324478
 20
-91.41047648501032
 30
0.0
 10
-0.6847690108473774
 20
-91.31383451499717
 30
0.0
 10
-0.7389259990726029
 20
-91.22331412639184
 30
0.0
 10
-0.7909726017878292
 20
-91.14048443579843
 30
0.0
 10
-0.836342646899628
 20
-91.063209172928
 30
0.0
 10
-0.8794799003151577
 20
-90.99406216074748
 30
0.0
 10
-0.9165814588599291
 20
-90.93066481650662
 30
0.0
 10
-0.9517365644269182
 20
-90.87538110466285
 30
0.0
 10
-0.9813138919414233
 20
-90.82579739435579
 30
0.0
 10
-1.00765644817457
 20
-90.78373698803942
 30
0.0
 10
-1.028647372710297
 20
-90.7477166128517
 30
0.0
 10
-1.046259471819553
 20
-90.71893807031707
 30
0.0
 10
-1.059033608285633
 20
-90.69661495073126
 30
0.0
 10
-1.069579596396001
 20
-90.68226321971729
 30
0.0
 10
-1.073866192864224
 20
-90.67422002137045
 30
0.0
 10
-1.075424382658087
 20
-90.67129629629699
 30
0.0
  0
SPLINE
  5
130
330
1F
100
AcDbEntity
  8
0
  6
Continuous
 62
     7
370
    25
100
AcDbSpline
210
0.0
220
0.0
230
1.0
 70
     8
 71
     3
 72
    11
 73
     7
 74
     0
 42
0.000000001
 43
0.00000001
 40
0.0
 40
0.0
 40
0.0
 40
0.0
 40
0.2840675575820641
 40
0.5362929600324877
 40
0.7704250294455954
 40
1.0
 40
1.0
 40
1.0
 40
1.0
 10
-1.327160493769458
 20
-90.2797067901243
 30
0.0
 10
-1.35654517134728
 20
-90.24666034080896
 30
0.0
 10
-1.412020692212621
 20
-90.18427173764447
 30
0.0
 10
-1.509503378602115
 20
-90.11335123493804
 30
0.0
 10
-1.613675509602853
 20
-90.06964160174337
 30
0.0
 10
-1.685890748191096
 20
-90.06434879219287
 30
0.0
 10
-1.721643518460956
 20
-90.06172839506283
 30
0.0
  0
SPLINE
  5
131
330
1F
100
AcDbEntity
  8
0
  6
Continuous
 62
     7
370
    25
100
AcDbSpline
210
0.0
220
0.0
230
1.0
 70
     8
 71
     3
 72
    11
 73
     7
 74
     0
 42
0.000000001
 43
0.00000001
 40
0.0
 40
0.0
 40
0.0
 40
0.0
 40
0.2534632684154429
 40
0.5004538092939792
 40
0.7447301702666487
 40
1.0
 40
1.0
 40
1.0
 40
1.0
 10
-1.721643518460957
 20
-90.06172839506283
 30
0.0
 10
-1.751361215361202
 20
-90.06325306154223
 30
0.0
 10
-1.810037704109049
 20
-90.06626345887629
 30
0.0
 10
-1.894926737851091
 20
-90.08897155207126
 30
0.0
 10
-1.974334523407171
 20
-90.12720787259742
 30
0.0
 10
-2.020300041566658
 20
-90.1636629805343
 30
0.0
 10
-2.04378858018927
 20
-90.18229166666798
 30
0.0
  0
SPLINE
  5
132
330
1F
100
AcDbEntity
  8
0
  6
Continuous
 62
     7
370
    25
100
AcDbSpline
210
0.0
220
0.0
230
1.0
 70
     8
 71
     3
 72
    11
 73
     7
 74
     0
 42
0.000000001
 43
0.00000001
 40
0.0
 40
0.0
 40
0.0
 40
0.0
 40
0.2596418608646816
 40
0.5054998336212788
 40
0.7485799879823998
 40
1.0
 40
1.0
 40
1.0
 40
1.0
 10
-2.043788580189269
 20
-90.18229166666798
 30
0.0
 10
-2.066391887167207
 20
-90.20422113088074
 30
0.0
 10
-2.110398534934198
 20
-90.24691586613659
 30
0.0
 10
-2.15767180503048
 20
-90.32524941583769
 30
0.0
 10
-2.185618965804742
 20
-90.41127135833024
 30
0.0
 10
-2.189423616259141
 20
-90.47111616063286
 30
0.0
 10
-2.191358024633505
 20
-90.50154320987797
 30
0.0
  0
SPLINE
  5
133
330
1F
100
AcDbEntity
  8
0
  6
Continuous
 62
     7
370
    25
100
AcDbSpline
210
0.0
220
0.0
230
1.0
 70
     8
 71
     3
 72
    11
 73
     7
 74
     0
 42
0.000000001
 43
0.00000001
 40
0.0
 40
0.0
 40
0.0
 40
0.0
 40
0.2458344514642035
 40
0.4887538301338153
 40
0.7416207157049439
 40
0.9999999999999999
 40
0.9999999999999999
 40
0.9999999999999999
 40
0.9999999999999999
 10
-2.191358024633505
 20
-90.50154320987797
 30
0.0
 10
-2.190717646745467
 20
-90.52155061311454
 30
0.0
 10
-2.189444484486688
 20
-90.56132817441515
 30
0.0
 10
-2.175895686067693
 20
-90.62034902337243
 30
0.0
 10
-2.155046380399293
 20
-90.67818599551656
 30
0.0
 10
-2.134959054985508
 20
-90.71461419972746
 30
0.0
 10
-2.124807098707431
 20
-90.73302469135938
 30
0.0
  0
SPLINE
  5
134
330
1F
100
AcDbEntity
  8
0
  6
Continuous
 62
     7
370
    25
100
AcDbSpline
210
0.0
220
0.0
230
1.0
 70
     8
 71
     3
 72
    15
 73
    11
 74
     0
 42
0.000000001
 43
0.00000001
 40
0.0
 40
0.0
 40
0.0
 40
0.0
 40
0.1613828732243198
 40
0.3120467668630773
 40
0.4529442078986753
 40
0.5829751862129702
 40
0.7027023951358886
 40
0.8122496267815178
 40
0.9113484012425938
 40
1.0
 40
1.0
 40
1.0
 40
1.0
 10
-2.124807098707431
 20
-90.73302469135938
 30
0.0
 10
-2.06818532801445
 20
-90.8210922999276
 30
0.0
 10
-1.958702579778532
 20
-90.99137810516841
 30
0.0
 10
-1.800394483770149
 20
-91.23894250055396
 30
0.0
 10
-1.652470050729095
 20
-91.46900514462571
 30
0.0
 10
-1.513714193791915
 20
-91.68109257224414
 30
0.0
 10
-1.388016112242299
 20
-91.87740610506188
 30
0.0
 10
-1.271099150958666
 20
-92.05549523394279
 30
0.0
 10
-1.165154225827345
 20
-92.21666817585819
 30
0.0
 10
-1.097652263558724
 20
-92.31805908407752
 30
0.0
 10
-1.065779320928609
 20
-92.36593364197599
 30
0.0
  0
SPLINE
  5
135
330
1F
100
AcDbEntity
  8
0
  6
Continuous
 62
     7
370
    25
100
AcDbSpline
210
0.0
220
0.0
230
1.0
 70
     8
 71
     3
 72
    15
 73
    11
 74
     0
 42
0.000000001
 43
0.00000001
 40
0.0
 40
0.0
 40
0.0
 40
0.0
 40
0.1611035651899517
 40
0.3120965978698947
 40
0.451970917864161
 40
0.5823447155864727
 40
0.7020082152410947
 40
0.8115716361208644
 40
0.9110399762352503
 40
1.0
 40
1.0
 40
1.0
 40
1.0
 10
-1.065779320928609
 20
-92.36593364197599
 30
0.0
 10
-1.026921869053601
 20
-92.42544053591178
 30
0.0
 10
-0.9516455800541352
 20
-92.54071979199324
 30
0.0
 10
-0.8419099902013312
 20
-92.70719143623967
 30
0.0
 10
-0.7391513406673125
 20
-92.86202281932617
 30
0.0
 10
-0.6442989730641197
 20
-93.00551649875244
 30
0.0
 10
-0.5552495948929471
 20
-93.13680366163747
 30
0.0
 10
-0.4733986569474334
 20
-93.2564969750997
 30
0.0
 10
-0.3981255749115657
 20
-93.3642718291138
 30
0.0
 10
-0.3504435432706327
 20
-93.4323604522649
 30
0.0
 10
-0.3279320987056851
 20
-93.46450617283973
 30
0.0
  0
SPLINE
  5
136
330
1F
100
AcDbEntity
  8
0
  6
Continuous
 62
     7
370
    25
100
AcDbSpline
210
0.0
220
0.0
230
1.0
 70
     8
 71
     3
 72
    23
 73
    19
 74
     0
 42
0.000000001
 43
0.00000001
 40
0.0
 40
0.0
 40
0.0
 40
0.0
 40
0.1099259285927657
 40
0.2135254802904317
 40
0.3102500418098868
 40
0.4015251399448933
 40
0.4862408855898945
 40
0.5637820354845651
 40
0.635887526480906
 40
0.7014350301952017
 40
0.7606994555236783
 40
0.8131281689376948
 40
0.8601618507505767
 40
0.9004004397878692
 40
0.9341188647646295
 40
0.9623246867960589
 40
0.9839581166279243
 40
1.0
 40
1.0
 40
1.0
 40
1.0
 10
-0.3279320987056862
 20
-93.46450617283973
 30
0.0
 10
-0.355986104890248
 20
-93.51236170015635
 30
0.0
 10
-0.4104795735496844
 20
-93.60531860837308
 30
0.0
 10
-0.4882874814761881
 20
-93.74117795739926
 30
0.0
 10
-0.5611864508551078
 20
-93.86900300955604
 30
0.0
 10
-0.628039954893652
 20
-93.98929520054358
 30
0.0
 10
-0.6911260240103283
 20
-94.1006040170628
 30
0.0
 10
-0.7473447457426652
 20
-94.20466174118066
 30
0.0
 10
-0.7979378235200105
 20
-94.30074821531461
 30
0.0
 10
-0.8447343726499341
 20
-94.38841386941276
 30
0.0
 10
-0.8850238807440767
 20
-94.46827509685878
 30
0.0
 10
-0.9201126997871919
 20
-94.540276300917
 30
0.0
 10
-0.949974716832079
 20
-94.60415505777902
 30
0.0
 10
-0.973812839469301
 20
-94.66035602617303
 30
0.0
 10
-0.9940266680949399
 20
-94.70782374684707
 30
0.0
 10
-1.007321122546474
 20
-94.74784433250181
 30
0.0
 10
-1.015913416110058
 20
-94.78008032426825
 30
0.0
 10
-1.017740541372358
 20
-94.79903008892538
 30
0.0
 10
-1.018518518457919
 20
-94.80709876543277
 30
0.0
  0
SPLINE
  5
137
330
1F
100
AcDbEntity
  8
0
  6
Continuous
 62
     7
370
    25
100
AcDbSpline
210
0.0
220
0.0
230
1.0
 70
     8
 71
     3
 72
    11
 73
     7
 74
     0
 42
0.000000001
 43
0.00000001
 40
0.0
 40
0.0
 40
0.0
 40
0.0
 40
0.2505997773508185
 40
0.4945052940320166
 40
0.7383825923389997
 40
1.0
 40
1.0
 40
1.0
 40
1.0
 10
-1.018518518457918
 20
-94.80709876543277
 30
0.0
 10
-1.016754101687669
 20
-94.83789522083758
 30
0.0
 10
-1.013272400933618
 20
-94.89866546730828
 30
0.0
 10
-0.9827712507967097
 20
-94.98497979320902
 30
0.0
 10
-0.9344144836371835
 20
-95.064104289154
 30
0.0
 10
-0.8894155952284185
 20
-95.10702851238912
 30
0.0
 10
-0.8661265431490612
 20
-95.12924382716106
 30
0.0
  0
SPLINE
  5
138
330
1F
100
AcDbEntity
  8
0
  6
Continuous
 62
     7
370
    25
100
AcDbSpline
210
0.0
220
0.0
230
1.0
 70
     8
 71
     3
 72
    11
 73
     7
 74
     0
 42
0.000000001
 43
0.00000001
 40
0.0
 40
0.0
 40
0.0
 40
0.0
 40
0.2532192061797474
 40
0.4999143001575824
 40
0.7453735937821149
 40
1.0
 40
1.0
 40
1.0
 40
1.0
 10
-0.866126543149062
 20
-95.12924382716106
 30
0.0
 10
-0.8426096708600922
 20
-95.14723787863868
 30
0.0
 10
-0.7961818310070193
 20
-95.1827623705883
 30
0.0
 10
-0.7165709186741906
 20
-95.2190897175968
 30
0.0
 10
-0.632127298132148
 20
-95.24258574212516
 30
0.0
 10
-0.5737203081230857
 20
-95.2454534448408
 30
0.0
 10
-0.5439814814205868
 20
-95.24691358024725
 30
0.0
  0
SPLINE
  5
139
330
1F
100
AcDbEntity
  8
0
  6
Continuous
 62
     7
370
    25
100
AcDbSpline
210
0.0
220
0.0
230
1.0
 70
     8
 71
     3
 72
    15
 73
    11
 74
     0
 42
0.000000001
 43
0.00000001
 40
0.0
 40
0.0
 40
0.0
 40
0.0
 40
0.1131980866530576
 40
0.2265957586858699
 40
0.3397938453389331
 40
0.4586946346184116
 40
0.5806127051142097
 40
0.7109684313119533
 40
0.849976419166778
 40
1.0
 40
1.0
 40
1.0
 40
1.0
 10
-0.5439814814205839
 20
-95.24691358024725
 30
0.0
 10
-0.5230366392884409
 20
-95.24580356636915
 30
0.0
 10
-0.4811100260936899
 20
-95.24358158149036
 30
0.0
 10
-0.4190895707113523
 20
-95.23128148529041
 30
0.0
 10
-0.3591152066133345
 20
-95.20829238913679
 30
0.0
 10
-0.3016385978354727
 20
-95.17638092580266
 30
0.0
 10
-0.2459695560328367
 20
-95.13588711362416
 30
0.0
 10
-0.1915552021748596
 20
-95.08780554990473
 30
0.0
 10
-0.1405936522300526
 20
-95.02896612883985
 30
0.0
 10
-0.1089943836680498
 20
-94.98576998480287
 30
0.0
 10
-0.0925925925318749
 20
-94.96334876543214
 30
0.0
  0
SPLINE
  5
13A
330
1F
100
AcDbEntity
  8
0
  6
Continuous
 62
     7
370
    25
100
AcDbSpline
210
0.0
220
0.0
230
1.0
 70
     8
 71
     3
 72
    23
 73
    19
 74
     0
 42
0.000000001
 43
0.00000001
 40
0.0
 40
0.0
 40
0.0
 40
0.0
 40
0.0111077491742613
 40
0.0286499683122536
 40
0.053060271983011
 40
0.084338817499475
 40
0.1224856772033309
 40
0.1678382079667241
 40
0.219721798151767
 40
0.278806376669495
 40
0.3447577346659503
 40
0.4171713997991732
 40
0.4976050760057291
 40
0.5837507080966831
 40
0.6779183432453677
 40
0.7785465741004458
 40
0.8856387228029545
 40
1.0
 40
1.0
 40
1.0
 40
1.0
 10
-0.0925925925318758
 20
-94.96334876543214
 30
0.0
 10
-0.090296781777928
 20
-94.95983918194413
 30
0.0
 10
-0.0843752485924335
 20
-94.95078699196905
 30
0.0
 10
-0.075082731234123
 20
-94.9330264270675
 30
0.0
 10
-0.0613635435481001
 20
-94.90904077955234
 30
0.0
 10
-0.0441583253718213
 20
-94.87808779785756
 30
0.0
 10
-0.0224138277808869
 20
-94.84061630790626
 30
0.0
 10
0.0006417754468674
 20
-94.79499438129432
 30
0.0
 10
0.0307397138526183
 20
-94.74422676767186
 30
0.0
 10
0.0617548308709334
 20
-94.68508810518387
 30
0.0
 10
0.0978742645509732
 20
-94.61991109026454
 30
0.0
 10
0.1362182041915025
 20
-94.54677728269615
 30
0.0
 10
0.1796208213602471
 20
-94.46771297614954
 30
0.0
 10
0.2259680251957801
 20
-94.38090804159317
 30
0.0
 10
0.2771867682432855
 20
-94.28807588038768
 30
0.0
 10
0.3311621352067532
 20
-94.1877439422892
 30
0.0
 10
0.3877878270244777
 20
-94.0801893075574
 30
0.0
 10
0.4278214924394516
 20
-94.00682772579191
 30
0.0
 10
0.4484953704304485
 20
-93.96894290123427
 30
0.0
  0
SPLINE
  5
13B
330
1F
100
AcDbEntity
  8
0
  6
Continuous
 62
     7
370
    25
100
AcDbSpline
210
0.0
220
0.0
230
1.0
 70
     8
 71
     3
 72
    15
 73
    11
 74
     0
 42
0.000000001
 43
0.00000001
 40
0.0
 40
0.0
 40
0.0
 40
0.0
 40
0.0972087084602969
 40
0.201966164223401
 40
0.3148209753784343
 40
0.4357966891830101
 40
0.5648859793465126
 40
0.7016032110361767
 40
0.8469753661875046
 40
0.9999999999999999
 40
0.9999999999999999
 40
0.9999999999999999
 40
0.9999999999999999
 10
0.4484953704304399
 20
-93.96894290123429
 30
0.0
 10
0.4737982911226402
 20
-93.92179907406089
 30
0.0
 10
0.5263690321271849
 20
-93.8238504633671
 30
0.0
 10
0.6037580669169119
 20
-93.6688087722262
 30
0.0
 10
0.6875552829784636
 20
-93.5023509973141
 30
0.0
 10
0.7724033960881802
 20
-93.32150921309754
 30
0.0
 10
0.8637155163843195
 20
-93.1292071053888
 30
0.0
 10
0.956781881366319
 20
-92.9229157570465
 30
0.0
 10
1.05551655641626
 20
-92.7047356417327
 30
0.0
 10
1.120955378441536
 20
-92.55410080756961
 30
0.0
 10
1.154513888948004
 20
-92.47685185185112
 30
0.0
  0
SPLINE
  5
13C
330
1F
100
AcDbEntity
  8
0
  6
Continuous
 62
     7
370
    25
100
AcDbSpline
210
0.0
220
0.0
230
1.0
 70
     8
 71
     3
 72
    15
 73
    11
 74
     0
 42
0.000000001
 43
0.00000001
 40
0.0
 40
0.0
 40
0.0
 40
0.0
 40
0.1832294725851087
 40
0.349669190951147
 40
0.499319563266417
 40
0.6329669926470518
 40
0.7495833747333887
 40
0.8496581191238316
 40
0.9329496840914981
 40
1.0
 40
1.0
 40
1.0
 40
1.0
 10
1.154513888948004
 20
-92.47685185185112
 30
0.0
 10
1.194345425442497
 20
-92.38617292965608
 30
0.0
 10
1.270358639604323
 20
-92.21312421149453
 30
0.0
 10
1.379445424579471
 20
-91.966253979102
 30
0.0
 10
1.477640676209649
 20
-91.74386917335018
 30
0.0
 10
1.566711657121637
 20
-91.54690509855578
 30
0.0
 10
1.64332301385665
 20
-91.37372118920005
 30
0.0
 10
1.711007809811437
 20
-91.22636971065465
 30
0.0
 10
1.767955607009243
 20
-91.10357361416345
 30
0.0
 10
1.802629900030668
 20
-91.03007756379476
 30
0.0
 10
1.818094135860639
 20
-90.99729938271487
 30
0.0
  0
SPLINE
  5
13D
330
1F
100
AcDbEntity
  8
0
  6
Continuous
 62
     7
370
    25
100
AcDbSpline
210
0.0
220
0.0
230
1.0
 70
     8
 71
     3
 72
    15
 73
    11
 74
     0
 42
0.000000001
 43
0.00000001
 40
0.0
 40
0.0
 40
0.0
 40
0.0
 40
0.170363389201224
 40
0.3262975632507247
 40
0.4668429799247972
 40
0.5933827495072912
 40
0.7084045690763173
 40
0.8125610816897827
 40
0.9081712462541438
 40
1.0
 40
1.0
 40
1.0
 40
1.0
 10
77.98421891504752
 20
47.13111403449869
 30
0.0
 10
77.94744887156098
 20
47.1482907426288
 30
0.0
 10
77.87702308556008
 20
47.18118934856643
 30
0.0
 10
77.77307147672737
 20
47.22103744422995
 30
0.0
 10
77.67624321525653
 20
47.24921275478543
 30
0.0
 10
77.58695110604499
 20
47.26762718014156
 30
0.0
 10
77.50454204044755
 20
47.27366214887684
 30
0.0
 10
77.42957743985679
 20
47.26914497919049
 30
0.0
 10
77.36097730344079
 20
47.25468918943436
 30
0.0
 10
77.32095566412764
 20
47.2345416659599
 30
0.0
 10
77.30134854467708
 20
47.22467113326368
 30
0.0
  0
SPLINE
  5
13E
330
1F
100
AcDbEntity
  8
0
  6
Continuous
 62
     7
370
    25
100
AcDbSpline
210
0.0
220
0.0
230
1.0
 70
     8
 71
     3
 72
    23
 73
    19
 74
     0
 42
0.000000001
 43
0.00000001
 40
0.0
 40
0.0
 40
0.0
 40
0.0
 40
0.0430585255110614
 40
0.084833435512882
 40
0.1253367677955343
 40
0.1668381893581822
 40
0.2100699229309845
 40
0.2562546797772993
 40
0.3060578147442828
 40
0.3611273050777463
 40
0.4200732830617225
 40
0.4853447910221005
 40
0.5552496219336602
 40
0.6318720555962232
 40
0.7146215592234653
 40
0.803303753222278
 40
0.8983917137337016
 40
1.0
 40
1.0
 40
1.0
 40
1.0
 10
77.30134854467708
 20
47.22467113326368
 30
0.0
 10
77.28755899262786
 20
47.21574548829603
 30
0.0
 10
77.26039096816267
 20
47.19816028030789
 30
0.0
 10
77.22518026677163
 20
47.16533307093592
 30
0.0
 10
77.19795868737755
 20
47.12653636894243
 30
0.0
 10
77.17625563712177
 20
47.08379173450204
 30
0.0
 10
77.16217433745874
 20
47.0357003868266
 30
0.0
 10
77.15340914010004
 20
46.98327586118837
 30
0.0
 10
77.15142133679107
 20
46.9255147637129
 30
0.0
 10
77.1584359471184
 20
46.8633916450044
 30
0.0
 10
77.16834853496168
 20
46.79573053812901
 30
0.0
 10
77.18749519435252
 20
46.72414791094914
 30
0.0
 10
77.21173607137311
 20
46.64715585803207
 30
0.0
 10
77.24266768823747
 20
46.56537532605241
 30
0.0
 10
77.28066142490938
 20
46.47879358839617
 30
0.0
 10
77.32399685656948
 20
46.38691769861091
 30
0.0
 10
77.37424563866607
 20
46.29042697610587
 30
0.0
 10
77.41139958607698
 20
46.22531843905516
 30
0.0
 10
77.43059237183823
 20
46.19168502215265
 30
0.0
  0
SPLINE
  5
13F
330
1F
100
AcDbEntity
  8
0
  6
Continuous
 62
     7
370
    25
100
AcDbSpline
210
0.0
220
0.0
230
1.0
 70
     8
 71
     3
 72
    23
 73
    19
 74
     0
 42
0.000000001
 43
0.00000001
 40
0.0
 40
0.0
 40
0.0
 40
0.0
 40
0.0443133042895827
 40
0.0938731087181722
 40
0.1486794192455148
 40
0.2081689835502262
 40
0.2734683184082654
 40
0.3440141696935493
 40
0.4192429153564251
 40
0.5002818052608069
 40
0.5807569805613579
 40
0.6565493503284356
 40
0.7265316815917388
 40
0.7918310164497779
 40
0.8513205807544894
 40
0.9061268912818319
 40
0.9556866957104214
 40
1.0
 40
1.0
 40
1.0
 40
1.0
 10
77.43059237183823
 20
46.19168502215265
 30
0.0
 10
77.4415228629732
 20
46.17271606187882
 30
0.0
 10
77.46467796727222
 20
46.13253229994539
 30
0.0
 10
77.50136415040286
 20
46.06889511818544
 30
0.0
 10
77.5415668335175
 20
45.9986302688702
 30
0.0
 10
77.58650804447734
 20
45.9221233869978
 30
0.0
 10
77.63441758453273
 20
45.83835006927177
 30
0.0
 10
77.6862405190862
 20
45.7478578129777
 30
0.0
 10
77.74279966885481
 20
45.65112068754139
 30
0.0
 10
77.80060936008934
 20
45.54944157070727
 30
0.0
 10
77.8598157323295
 20
45.44824670845918
 30
0.0
 10
77.91505196125372
 20
45.35106757562815
 30
0.0
 10
77.96783158214075
 20
45.26112767671063
 30
0.0
 10
78.01537383410587
 20
45.17746376196833
 30
0.0
 10
78.06036892481596
 20
45.10098799184685
 30
0.0
 10
78.10055896219114
 20
45.03071584051003
 30
0.0
 10
78.13724801523713
 20
44.96708031592355
 30
0.0
 10
78.16040278117158
 20
44.92689635860851
 30
0.0
 10
78.17133311257979
 20
44.90792730610374
 30
0.0
  0
SPLINE
  5
140
330
1F
100
AcDbEntity
  8
0
  6
Continuous
 62
     7
370
    25
100
AcDbSpline
210
0.0
220
0.0
230
1.0
 70
     8
 71
     3
 72
    15
 73
    11
 74
     0
 42
0.000000001
 43
0.00000001
 40
0.0
 40
0.0
 40
0.0
 40
0.0
 40
0.0939632628488505
 40
0.2083016357243325
 40
0.3430952759243218
 40
0.4993475840601841
 40
0.6555998921960466
 40
0.790719897896762
 40
0.9060367371511591
 40
1.0
 40
1.0
 40
1.0
 40
1.0
 10
78.17133311257979
 20
44.90792730610374
 30
0.0
 10
78.19186884689803
 20
44.8717484928782
 30
0.0
 10
78.23739330954014
 20
44.79154580786111
 30
0.0
 10
78.3055507881722
 20
44.65577847071732
 30
0.0
 10
78.38650092403566
 20
44.49562792729504
 30
0.0
 10
78.47137524977994
 20
44.31672542804703
 30
0.0
 10
78.55584903153952
 20
44.13746088886582
 30
0.0
 10
78.6382111392026
 20
43.97737120751706
 30
0.0
 10
78.70696874197773
 20
43.84126695348224
 30
0.0
 10
78.75266714595895
 20
43.76066649070251
 30
0.0
 10
78.7731849644324
 20
43.72447823203004
 30
0.0
  0
SPLINE
  5
141
330
1F
100
AcDbEntity
  8
0
  6
Continuous
 62
     7
370
    25
100
AcDbSpline
210
0.0
220
0.0
230
1.0
 70
     8
 71
     3
 72
    15
 73
    11
 74
     0
 42
0.000000001
 43
0.00000001
 40
0.0
 40
0.0
 40
0.0
 40
0.0
 40
0.1587899307213235
 40
0.2983721216378675
 40
0.4225905651820306
 40
0.5352049120319922
 40
0.6430465417737765
 40
0.7519704141920682
 40
0.8694992543334371
 40
1.0
 40
1.0
 40
1.0
 40
1.0
 10
78.7731849644324
 20
43.72447823203004
 30
0.0
 10
78.80003139026074
 20
43.68094401680034
 30
0.0
 10
78.8504768120606
 20
43.59914162477886
 30
0.0
 10
78.93878990916124
 20
43.49490150166501
 30
0.0
 10
79.03206235844053
 20
43.41657441406362
 30
0.0
 10
79.13081132573626
 20
43.36392632579656
 30
0.0
 10
79.23509291067303
 20
43.33888579871488
 30
0.0
 10
79.3436292992161
 20
43.3416987094044
 30
0.0
 10
79.45597354138349
 20
43.3705987913194
 30
0.0
 10
79.52680962613809
 20
43.40782419027382
 30
0.0
 10
79.564080026161
 20
43.42741033079598
 30
0.0
  0
SPLINE
  5
142
330
1F
100
AcDbEntity
  8
0
  6
Continuous
 62
     7
370
    25
100
AcDbSpline
210
0.0
220
0.0
230
1.0
 70
     8
 71
     3
 72
    11
 73
     7
 74
     0
 42
0.000000001
 43
0.00000001
 40
0.0
 40
0.0
 40
0.0
 40
0.0
 40
0.274119847458592
 40
0.5263849978363389
 40
0.7642240093776917
 40
1.0
 40
1.0
 40
1.0
 40
1.0
 10
79.564080026161
 20
43.42741033079598
 30
0.0
 10
79.59780961682877
 20
43.44870550216047
 30
0.0
 10
79.66257964597952
 20
43.48959804911228
 30
0.0
 10
79.7415760912387
 20
43.56840027621459
 30
0.0
 10
79.80273018639886
 20
43.65553877336971
 30
0.0
 10
79.82498955995658
 20
43.72088341423545
 30
0.0
 10
79.83607076690153
 20
43.7534134172159
 30
0.0
  0
SPLINE
  5
143
330
1F
100
AcDbEntity
  8
0
  6
Continuous
 62
     7
370
    25
100
AcDbSpline
210
0.0
220
0.0
230
1.0
 70
     8
 71
     3
 72
    11
 73
     7
 74
     0
 42
0.000000001
 43
0.00000001
 40
0.0
 40
0.0
 40
0.0
 40
0.0
 40
0.2544423129582082
 40
0.499270032158408
 40
0.7420499633351072
 40
1.0
 40
1.0
 40
1.0
 40
1.0
 10
79.83607076690153
 20
43.7534134172159
 30
0.0
 10
79.84287160083039
 20
43.7828379791446
 30
0.0
 10
79.85621628605554
 20
43.8405752391529
 30
0.0
 10
79.85312612334981
 20
43.92902580743475
 30
0.0
 10
79.83437829384904
 20
44.01597577663259
 30
0.0
 10
79.80684942868875
 20
44.06866853829504
 30
0.0
 10
79.79266798912353
 20
44.0958131085739
 30
0.0
  0
SPLINE
  5
144
330
1F
100
AcDbEntity
  8
0
  6
Continuous
 62
     7
370
    25
100
AcDbSpline
210
0.0
220
0.0
230
1.0
 70
     8
 71
     3
 72
    11
 73
     7
 74
     0
 42
0.000000001
 43
0.00000001
 40
0.0
 40
0.0
 40
0.0
 40
0.0
 40
0.2091648597069041
 40
0.5013728064776968
 40
0.7908351402931244
 40
0.9999999999999999
 40
0.9999999999999999
 40
0.9999999999999999
 40
0.9999999999999999
 10
79.79266798912353
 20
44.0958131085739
 30
0.0
 10
79.78508278155518
 20
44.10779846425523
 30
0.0
 10
79.76690087082885
 20
44.13652762757166
 30
0.0
 10
79.73466438852368
 20
44.17940227111917
 30
0.0
 10
79.70374861794363
 20
44.2232144439705
 30
0.0
 10
79.68553290731835
 20
44.25169156044735
 30
0.0
 10
79.67789175455552
 20
44.2636371826479
 30
0.0
  0
SPLINE
  5
146
330
1F
100
AcDbEntity
  8
0
  6
Continuous
 62
     7
370
    25
100
AcDbSpline
210
0.0
220
0.0
230
1.0
 70
     8
 71
     3
 72
    15
 73
    11
 74
     0
 42
0.000000001
 43
0.00000001
 40
0.0
 40
0.0
 40
0.0
 40
0.0
 40
0.0906620342754256
 40
0.1911492429756003
 40
0.3014795012740159
 40
0.4223696349945117
 40
0.5520876898855276
 40
0.6906539500330882
 40
0.8408897905133426
 40
1.0
 40
1.0
 40
1.0
 40
1.0
 10
79.03553064344369
 20
45.37667730610428
 30
0.0
 10
79.02369803292692
 20
45.39632766908976
 30
0.0
 10
78.99875049495486
 20
45.43775793302422
 30
0.0
 10
78.95807902543336
 20
45.50228674592864
 30
0.0
 10
78.91282918188736
 20
45.57296814666495
 30
0.0
 10
78.86176236458644
 20
45.64867859844952
 30
0.0
 10
78.80585086971809
 20
45.72972576761502
 30
0.0
 10
78.74452636888859
 20
45.81604659362534
 30
0.0
 10
78.67850783133805
 20
45.90815265133026
 30
0.0
 10
78.63211583999005
 20
45.97118567582799
 30
0.0
 10
78.60825440887541
 20
46.0036063184497
 30
0.0
  0
SPLINE
  5
147
330
1F
100
AcDbEntity
  8
0
  6
Continuous
 62
     7
370
    25
100
AcDbSpline
210
0.0
220
0.0
230
1.0
 70
     8
 71
     3
 72
    15
 73
    11
 74
     0
 42
0.000000001
 43
0.00000001
 40
0.0
 40
0.0
 40
0.0
 40
0.0
 40
0.1079619865600907
 40
0.2202489943108321
 40
0.33815725281146
 40
0.4605331989654827
 40
0.5874394726392356
 40
0.7201306353382684
 40
0.8574521848704235
 40
1.0
 40
1.0
 40
1.0
 40
1.0
 10
78.60825440887541
 20
46.0036063184497
 30
0.0
 10
78.66762423210113
 20
45.98460275251268
 30
0.0
 10
78.78874226887054
 20
45.94583432652029
 30
0.0
 10
78.9767711379854
 20
45.89314450751801
 30
0.0
 10
79.17382373743624
 20
45.84205001052659
 30
0.0
 10
79.38031174180253
 20
45.79391927494389
 30
0.0
 10
79.59616959943466
 20
45.74868228160462
 30
0.0
 10
79.82120739092535
 20
45.70534645700196
 30
0.0
 10
80.05592010990911
 20
45.66464571071698
 30
0.0
 10
80.21571518010708
 20
45.64064027379959
 30
0.0
 10
80.29710471751763
 20
45.6284134172162
 30
0.0
  0
SPLINE
  5
148
330
1F
100
AcDbEntity
  8
0
  6
Continuous
 62
     7
370
    25
100
AcDbSpline
210
0.0
220
0.0
230
1.0
 70
     8
 71
     3
 72
     9
 73
     5
 74
     0
 42
0.000000001
 43
0.00000001
 40
0.0
 40
0.0
 40
0.0
 40
0.0
 40
0.4998329458244019
 40
1.0
 40
1.0
 40
1.0
 40
1.0
 10
80.29710471751763
 20
45.6284134172162
 30
0.0
 10
80.5812796878476
 20
45.58990740038301
 30
0.0
 10
81.14981958243436
 20
45.51286962775342
 30
0.0
 10
81.71875392375378
 20
45.43880110262209
 30
0.0
 10
82.00331613727084
 20
45.40175446660001
 30
0.0
  0
SPLINE
  5
149
330
1F
100
AcDbEntity
  8
0
  6
Continuous
 62
     7
370
    25
100
AcDbSpline
210
0.0
220
0.0
230
1.0
 70
     8
 71
     3
 72
    15
 73
    11
 74
     0
 42
0.000000001
 43
0.00000001
 40
0.0
 40
0.0
 40
0.0
 40
0.0
 40
0.1918784694178074
 40
0.3640177520104776
 40
0.5178126384596459
 40
0.652086183045419
 40
0.7682373331659882
 40
0.8646626512422237
 40
0.9413714729595329
 40
1.0
 40
1.0
 40
1.0
 40
1.0
 10
82.00331613727084
 20
45.40175446660001
 30
0.0
 10
82.04093519695014
 20
45.39631531906339
 30
0.0
 10
82.11230331646222
 20
45.38599656748518
 30
0.0
 10
82.21377297832149
 20
45.37091293175977
 30
0.0
 10
82.30430271323971
 20
45.36009753967031
 30
0.0
 10
82.38360821380223
 20
45.34900991371675
 30
0.0
 10
82.45178279193046
 20
45.34042961084207
 30
0.0
 10
82.50868639707572
 20
45.33365820094946
 30
0.0
 10
82.55432117239779
 20
45.32856916831901
 30
0.0
 10
82.58105028203722
 20
45.32646849614669
 30
0.0
 10
82.59262940887582
 20
45.32555847894606
 30
0.0
  0
SPLINE
  5
14A
330
1F
100
AcDbEntity
  8
0
  6
Continuous
 62
     7
370
    25
100
AcDbSpline
210
0.0
220
0.0
230
1.0
 70
     8
 71
     3
 72
    11
 73
     7
 74
     0
 42
0.000000001
 43
0.00000001
 40
0.0
 40
0.0
 40
0.0
 40
0.0
 40
0.2991624162394753
 40
0.5627470200536273
 40
0.7950117883724583
 40
1.0
 40
1.0
 40
1.0
 40
1.0
 10
82.59262940887582
 20
45.32555847894606
 30
0.0
 10
82.650212385497
 20
45.32403823232463
 30
0.0
 10
82.75853029824393
 20
45.32117853401522
 30
0.0
 10
82.91104317477435
 20
45.33511568181713
 30
0.0
 10
83.04374928635505
 20
45.3643921471587
 30
0.0
 10
83.11944817405826
 20
45.40164915184197
 30
0.0
 10
83.15493650764121
 20
45.41911557771186
 30
0.0
  0
SPLINE
  5
14B
330
1F
100
AcDbEntity
  8
0
  6
Continuous
 62
     7
370
    25
100
AcDbSpline
210
0.0
220
0.0
230
1.0
 70
     8
 71
     3
 72
    11
 73
     7
 74
     0
 42
0.000000001
 43
0.00000001
 40
0.0
 40
0.0
 40
0.0
 40
0.0
 40
0.2642956074151037
 40
0.5123687578068536
 40
0.7496534277468899
 40
1.0
 40
1.0
 40
1.0
 40
1.0
 10
83.15493650764121
 20
45.41911557771186
 30
0.0
 10
83.18191751898016
 20
45.43659463830191
 30
0.0
 10
83.23422344793342
 20
45.47047989522973
 30
0.0
 10
83.29525729659153
 20
45.53932641601259
 30
0.0
 10
83.33615406889409
 20
45.61997718286705
 30
0.0
 10
83.34642350702109
 20
45.67844860040025
 30
0.0
 10
83.35169576690026
 20
45.70846742956385
 30
0.0
  0
SPLINE
  5
14C
330
1F
100
AcDbEntity
  8
0
  6
Continuous
 62
     7
370
    25
100
AcDbSpline
210
0.0
220
0.0
230
1.0
 70
     8
 71
     3
 72
    11
 73
     7
 74
     0
 42
0.000000001
 43
0.00000001
 40
0.0
 40
0.0
 40
0.0
 40
0.0
 40
0.2340313784230988
 40
0.4730127189416525
 40
0.7273255071851668
 40
1.0
 40
1.0
 40
1.0
 40
1.0
 10
83.35169576690026
 20
45.70846742956385
 30
0.0
 10
83.35373475348234
 20
45.73710399716176
 30
0.0
 10
83.35785585294163
 20
45.79498282004405
 30
0.0
 10
83.34394505560806
 20
45.88354864956909
 30
0.0
 10
83.31482236708923
 20
45.97306405862549
 30
0.0
 10
83.28445892864032
 20
46.03005786290239
 30
0.0
 10
83.26874823603585
 20
46.05954767647735
 30
0.0
  0
SPLINE
  5
14D
330
1F
100
AcDbEntity
  8
0
  6
Continuous
 62
     7
370
    25
100
AcDbSpline
210
0.0
220
0.0
230
1.0
 70
     8
 71
     3
 72
    23
 73
    19
 74
     0
 42
0.000000001
 43
0.00000001
 40
0.0
 40
0.0
 40
0.0
 40
0.0
 40
0.044176664562172
 40
0.0936170083673207
 40
0.148485421617479
 40
0.2081708577391292
 40
0.2734505376984132
 40
0.3435463217416664
 40
0.4190714571937633
 40
0.4998597618120025
 40
0.5806480664302394
 40
0.6561732018823387
 40
0.7265504398663174
 40
0.7916642121021383
 40
0.8515145783825232
 40
0.9063829916326792
 40
0.9558233354378299
 40
1.0
 40
1.0
 40
1.0
 40
1.0
 10
83.26874823603585
 20
46.05954767647737
 30
0.0
 10
83.24686452559104
 20
46.0971508476342
 30
0.0
 10
83.20048964590906
 20
46.17683763303812
 30
0.0
 10
83.12739563428818
 20
46.30349699781912
 30
0.0
 10
83.0452092815069
 20
46.44253450156925
 30
0.0
 10
82.95681601449414
 20
46.59601410715553
 30
0.0
 10
82.85803686902801
 20
46.76078506777313
 30
0.0
 10
82.75315511800811
 20
46.94006705586028
 30
0.0
 10
82.63905640666465
 20
47.13164414873171
 30
0.0
 10
82.52028684843003
 20
47.33269313619194
 30
0.0
 10
82.40154427605427
 20
47.5337579039604
 30
0.0
 10
82.28722968525284
 20
47.72552985385607
 30
0.0
 10
82.18253694828961
 20
47.90505421054768
 30
0.0
 10
82.08506108935613
 20
48.07091365854931
 30
0.0
 10
81.9951705027632
 20
48.22351428300355
 30
0.0
 10
81.9132528247137
 20
48.36289759894953
 30
0.0
 10
81.84007950924526
 20
48.48951046872065
 30
0.0
 10
81.79371396225483
 20
48.56920272578321
 30
0.0
 10
81.77183465578732
 20
48.60680847894554
 30
0.0
  0
SPLINE
  5
14E
330
1F
100
AcDbEntity
  8
0
  6
Continuous
 62
     7
370
    25
100
AcDbSpline
210
0.0
220
0.0
230
1.0
 70
     8
 71
     3
 72
    15
 73
    11
 74
     0
 42
0.000000001
 43
0.00000001
 40
0.0
 40
0.0
 40
0.0
 40
0.0
 40
0.0942591275984931
 40
0.2083304530457859
 40
0.343845133593675
 40
0.4992281384805008
 40
0.6561401065665511
 40
0.7908634695720478
 40
0.905740872401519
 40
1.0
 40
1.0
 40
1.0
 40
1.0
 10
81.77183465578732
 20
48.60680847894554
 30
0.0
 10
81.76304016839816
 20
48.62217874969234
 30
0.0
 10
81.74360269227499
 20
48.65614994749248
 30
0.0
 10
81.71427725757808
 20
48.71371417372114
 30
0.0
 10
81.67808585944266
 20
48.78062868716258
 30
0.0
 10
81.640513914511
 20
48.85590087918661
 30
0.0
 10
81.60312180263304
 20
48.93108166273463
 30
0.0
 10
81.56840184381127
 20
48.99909943906443
 30
0.0
 10
81.5375577892003
 20
49.05585834876011
 30
0.0
 10
81.51820941064368
 20
49.09004847084321
 30
0.0
 10
81.50948897677465
 20
49.10545817030339
 30
0.0
  0
SPLINE
  5
14F
330
1F
100
AcDbEntity
  8
0
  6
Continuous
 62
     7
370
    25
100
AcDbSpline
210
0.0
220
0.0
230
1.0
 70
     8
 71
     3
 72
    11
 73
     7
 74
     0
 42
0.000000001
 43
0.00000001
 40
0.0
 40
0.0
 40
0.0
 40
0.0
 40
0.2578207909293608
 40
0.5061403565129206
 40
0.7481497164438562
 40
1.0
 40
1.0
 40
1.0
 40
1.0
 10
81.50948897677465
 20
49.10545817030339
 30
0.0
 10
81.49265503075056
 20
49.13118476625613
 30
0.0
 10
81.45960750416644
 20
49.18168988029458
 30
0.0
 10
81.39625459551682
 20
49.24524492622223
 30
0.0
 10
81.32176909953269
 20
49.29413809579692
 30
0.0
 10
81.26659798481734
 20
49.31481905031507
 30
0.0
 10
81.2384627422066
 20
49.32536557771063
 30
0.0
  0
SPLINE
  5
150
330
1F
100
AcDbEntity
  8
0
  6
Continuous
 62
     7
370
    25
100
AcDbSpline
210
0.0
220
0.0
230
1.0
 70
     8
 71
     3
 72
    11
 73
     7
 74
     0
 42
0.000000001
 43
0.00000001
 40
0.0
 40
0.0
 40
0.0
 40
0.0
 40
0.2407545131452224
 40
0.4772598430872829
 40
0.7274670659636844
 40
0.9999999999999999
 40
0.9999999999999999
 40
0.9999999999999999
 40
0.9999999999999999
 10
81.23846274220661
 20
49.32536557771063
 30
0.0
 10
81.20427785047933
 20
49.33392827716157
 30
0.0
 10
81.13651141134362
 20
49.35090254918236
 30
0.0
 10
81.02933951365948
 20
49.344229798526
 30
0.0
 10
80.92211261810303
 20
49.31376084797233
 30
0.0
 10
80.85553967365031
 20
49.27637626175703
 30
0.0
 10
80.82083156936713
 20
49.25688563943876
 30
0.0
  0
SPLINE
  5
151
330
1F
100
AcDbEntity
  8
0
  6
Continuous
 62
     7
370
    25
100
AcDbSpline
210
0.0
220
0.0
230
1.0
 70
     8
 71
     3
 72
    15
 73
    11
 74
     0
 42
0.000000001
 43
0.00000001
 40
0.0
 40
0.0
 40
0.0
 40
0.0
 40
0.1271428611464029
 40
0.2464598492711998
 40
0.3605166001678727
 40
0.4732627128947163
 40
0.5920460121353631
 40
0.7172193595433985
 40
0.851969522304533
 40
1.0
 40
1.0
 40
1.0
 40
1.0
 10
80.82083156936712
 20
49.25688563943876
 30
0.0
 10
80.79834912725246
 20
49.24157615279193
 30
0.0
 10
80.75476807799129
 20
49.21189950608616
 30
0.0
 10
80.70124708239068
 20
49.15586442807484
 30
0.0
 10
80.65968553654251
 20
49.09433165840894
 30
0.0
 10
80.63120160993802
 20
49.02578980714787
 30
0.0
 10
80.61491334301819
 20
48.95102459511393
 30
0.0
 10
80.61147334019134
 20
48.86993001153412
 30
0.0
 10
80.62064237308697
 20
48.7830255114829
 30
0.0
 10
80.63492252817284
 20
48.72433660198182
 30
0.0
 10
80.6423979273922
 20
48.69361403450036
 30
0.0
  0
SPLINE
  5
152
330
1F
100
AcDbEntity
  8
0
  6
Continuous
 62
     7
370
    25
100
AcDbSpline
210
0.0
220
0.0
230
1.0
 70
     8
 71
     3
 72
    15
 73
    11
 74
     0
 42
0.000000001
 43
0.00000001
 40
0.0
 40
0.0
 40
0.0
 40
0.0
 40
0.074324924744488
 40
0.1633289077061247
 40
0.2672094891919642
 40
0.3847024111049867
 40
0.5159241970980784
 40
0.6636664229319161
 40
0.8245153931164108
 40
1.0
 40
1.0
 40
1.0
 40
1.0
 10
80.6423979273922
 20
48.69361403450037
 30
0.0
 10
80.6470498142531
 20
48.67876531131972
 30
0.0
 10
80.65727232846854
 20
48.64613526498913
 30
0.0
 10
80.67804101304915
 20
48.5941650883298
 30
0.0
 10
80.70394397922642
 20
48.53459218023079
 30
0.0
 10
80.73592994006421
 20
48.46806723787657
 30
0.0
 10
80.77408060315422
 20
48.39437836337883
 30
0.0
 10
80.81722566206187
 20
48.31307020987692
 30
0.0
 10
80.86518594754732
 20
48.22381436561515
 30
0.0
 10
80.90068782427225
 20
48.16302450747313
 30
0.0
 10
80.91921119899749
 20
48.13130693573513
 30
0.0
  0
SPLINE
  5
153
330
1F
100
AcDbEntity
  8
0
  6
Continuous
 62
     7
370
    25
100
AcDbSpline
210
0.0
220
0.0
230
1.0
 70
     8
 71
     3
 72
    15
 73
    11
 74
     0
 42
0.000000001
 43
0.00000001
 40
0.0
 40
0.0
 40
0.0
 40
0.0
 40
0.0973893037291678
 40
0.2021383042758215
 40
0.3146943583534307
 40
0.435802544916187
 40
0.565014679500754
 40
0.702330778325902
 40
0.8474765729874021
 40
1.0
 40
1.0
 40
1.0
 40
1.0
 10
80.91921119899749
 20
48.13130693573511
 30
0.0
 10
80.93750535843196
 20
48.09978153209031
 30
0.0
 10
80.97547616451268
 20
48.03434835421186
 30
0.0
 10
81.0352230825495
 20
47.9328464511504
 30
0.0
 10
81.10112578795027
 20
47.82468370934315
 30
0.0
 10
81.17255216423257
 20
47.70917311756769
 30
0.0
 10
81.24878783721844
 20
47.58574115678113
 30
0.0
 10
81.32941742042827
 20
47.45444691669611
 30
0.0
 10
81.41642356326405
 20
47.31684599116863
 30
0.0
 10
81.47604558925191
 20
47.22273735562056
 30
0.0
 10
81.50659545825737
 20
47.1745168122787
 30
0.0
  0
SPLINE
  5
154
330
1F
100
AcDbEntity
  8
0
  6
Continuous
 62
     7
370
    25
100
AcDbSpline
210
0.0
220
0.0
230
1.0
 70
     8
 71
     3
 72
    15
 73
    11
 74
     0
 42
0.000000001
 43
0.00000001
 40
0.0
 40
0.0
 40
0.0
 40
0.0
 40
0.1892191716054927
 40
0.3593272270634812
 40
0.5117638113133604
 40
0.6455416987495108
 40
0.7621008037658433
 40
0.8590987549866668
 40
0.938881066506385
 40
1.0
 40
1.0
 40
1.0
 40
1.0
 10
81.50659545825737
 20
47.1745168122787
 30
0.0
 10
81.54481764926213
 20
47.11405142560823
 30
0.0
 10
81.61740159405743
 20
46.99922764987097
 30
0.0
 10
81.72134089054401
 20
46.83604682620461
 30
0.0
 10
81.81220870393788
 20
46.68940463942918
 30
0.0
 10
81.89379104769729
 20
46.56083706978871
 30
0.0
 10
81.96386107649887
 20
46.44978659343839
 30
0.0
 10
82.02221813575734
 20
46.35548629580942
 30
0.0
 10
82.06890561501505
 20
46.27861544232247
 30
0.0
 10
82.09715712054061
 20
46.23345707386041
 30
0.0
 10
82.10941181628266
 20
46.21386866413095
 30
0.0
  0
SPLINE
  5
156
330
1F
100
AcDbEntity
  8
0
  6
Continuous
 62
     7
370
    25
100
AcDbSpline
210
0.0
220
0.0
230
1.0
 70
     8
 71
     3
 72
     9
 73
     5
 74
     0
 42
0.000000001
 43
0.00000001
 40
0.0
 40
0.0
 40
0.0
 40
0.0
 40
0.500735221222564
 40
1.0
 40
1.0
 40
1.0
 40
1.0
 10
82.08915718665304
 20
46.21676218264946
 30
0.0
 10
81.77985807751107
 20
46.25619704519106
 30
0.0
 10
81.162168136734
 20
46.33495096716471
 30
0.0
 10
80.54464725502505
 20
46.41501970610541
 30
0.0
 10
80.2363408286282
 20
46.45499520733963
 30
0.0
  0
SPLINE
  5
157
330
1F
100
AcDbEntity
  8
0
  6
Continuous
 62
     7
370
    25
100
AcDbSpline
210
0.0
220
0.0
230
1.0
 70
     8
 71
     3
 72
    15
 73
    11
 74
     0
 42
0.000000001
 43
0.00000001
 40
0.0
 40
0.0
 40
0.0
 40
0.0
 40
0.1574185860612975
 40
0.3053481114972887
 40
0.4438578436922624
 40
0.5731457671413733
 40
0.6933490386601169
 40
0.8039904762090279
 40
0.9062341517135939
 40
1.0
 40
1.0
 40
1.0
 40
1.0
 10
80.2363408286282
 20
46.45499520733963
 30
0.0
 10
80.139825078885
 20
46.46904552607939
 30
0.0
 10
79.9526114680198
 20
46.49629922210388
 30
0.0
 10
79.68154409126002
 20
46.54276205115387
 30
0.0
 10
79.42858897443807
 20
46.59142891330225
 30
0.0
 10
79.19404401336539
 20
46.64430047385672
 30
0.0
 10
78.97814467894283
 20
46.7008651289388
 30
0.0
 10
78.78072207324662
 20
46.76100930107875
 30
0.0
 10
78.60074905525853
 20
46.82230738643501
 30
0.0
 10
78.48904440003606
 20
46.87004471556101
 30
0.0
 10
78.43560780393656
 20
46.89288100980761
 30
0.0
  0
SPLINE
  5
158
330
1F
100
AcDbEntity
  8
0
  6
Continuous
 62
     7
370
    25
100
AcDbSpline
210
0.0
220
0.0
230
1.0
 70
     8
 71
     3
 72
    11
 73
     7
 74
     0
 42
0.000000001
 43
0.00000001
 40
0.0
 40
0.0
 40
0.0
 40
0.0
 40
0.286488216063304
 40
0.54770076804194
 40
0.7869078763327773
 40
1.0
 40
1.0
 40
1.0
 40
1.0
 10
78.43560780393656
 20
46.89288100980761
 30
0.0
 10
78.39208216184713
 20
46.91482982211375
 30
0.0
 10
78.30887096409015
 20
46.95679099427942
 30
0.0
 10
78.19125299198733
 20
47.02077798770691
 30
0.0
 10
78.08338011386729
 20
47.07648117135651
 30
0.0
 10
78.01597536974633
 20
47.11361781557343
 30
0.0
 10
77.98421891504752
 20
47.13111403449869
 30
0.0
  0
SPLINE
  5
159
330
1F
100
AcDbEntity
  8
0
  6
Continuous
 62
     7
370
    25
100
AcDbSpline
210
0.0
220
0.0
230
1.0
 70
     8
 71
     3
 72
    11
 73
     7
 74
     0
 42
0.000000001
 43
0.00000001
 40
0.0
 40
0.0
 40
0.0
 40
0.0
 40
0.2707916818155511
 40
0.5250384008960726
 40
0.763041220742993
 40
0.9999999999999999
 40
0.9999999999999999
 40
0.9999999999999999
 40
0.9999999999999999
 10
-79.62195039658626
 20
43.45640374980092
 30
0.0
 10
-79.61171539015682
 20
43.42889216880139
 30
0.0
 10
-79.59187072073108
 20
43.37554992284588
 30
0.0
 10
-79.54635204051279
 20
43.30631118529141
 30
0.0
 10
-79.49420217149978
 20
43.24627062674717
 30
0.0
 10
-79.45073498259721
 20
43.21851496426612
 30
0.0
 10
-79.4290491620182
 20
43.20466763868993
 30
0.0
  0
SPLINE
  5
15A
330
1F
100
AcDbEntity
  8
0
  6
Continuous
 62
     7
370
    25
100
AcDbSpline
210
0.0
220
0.0
230
1.0
 70
     8
 71
     3
 72
    15
 73
    11
 74
     0
 42
0.000000001
 43
0.00000001
 40
0.0
 40
0.0
 40
0.0
 40
0.0
 40
0.1223738582470947
 40
0.2415974317247384
 40
0.3623845395050488
 40
0.4912450565005609
 40
0.6216346245644341
 40
0.7475632813047917
 40
0.8714680347351352
 40
0.9999999999999999
 40
0.9999999999999999
 40
0.9999999999999999
 40
0.9999999999999999
 10
-79.42904916201822
 20
43.20466763868993
 30
0.0
 10
-79.40254431057019
 20
43.19108298928364
 30
0.0
 10
-79.35021692521345
 20
43.16426340171445
 30
0.0
 10
-79.26293566330462
 20
43.1480212010284
 30
0.0
 10
-79.17310707623624
 20
43.14745813714136
 30
0.0
 10
-79.08258110448186
 20
43.167588926984
 30
0.0
 10
-78.99570524242596
 20
43.20265035694415
 30
0.0
 10
-78.91732347364965
 20
43.25202563327159
 30
0.0
 10
-78.85076449501997
 20
43.31626168502223
 30
0.0
 10
-78.81725367639646
 20
43.36758089716237
 30
0.0
 10
-78.80019113732696
 20
43.39371084856685
 30
0.0
  0
SPLINE
  5
15B
330
1F
100
AcDbEntity
  8
0
  6
Continuous
 62
     7
370
    25
100
AcDbSpline
210
0.0
220
0.0
230
1.0
 70
     8
 71
     3
 72
    15
 73
    11
 74
     0
 42
0.000000001
 43
0.00000001
 40
0.0
 40
0.0
 40
0.0
 40
0.0
 40
0.0557669436261573
 40
0.127167170630464
 40
0.2188522822947268
 40
0.331346868213284
 40
0.4647394586375275
 40
0.6210745603082348
 40
0.7988383489181954
 40
1.0
 40
1.0
 40
1.0
 40
1.0
 10
-78.80019113732696
 20
43.39371084856685
 30
0.0
 10
-78.79164421864998
 20
43.41432941742266
 30
0.0
 10
-78.77215440272879
 20
43.46134660885089
 30
0.0
 10
-78.76955036385614
 20
43.54975431991752
 30
0.0
 10
-78.77917971764019
 20
43.65861169933034
 30
0.0
 10
-78.80314244237759
 20
43.79095470496958
 30
0.0
 10
-78.84283622247047
 20
43.94586937485791
 30
0.0
 10
-78.89728951035612
 20
44.12359822214769
 30
0.0
 10
-78.96610280461906
 20
44.32496863178174
 30
0.0
 10
-79.01964504319355
 20
44.46576406043436
 30
0.0
 10
-79.04806922374745
 20
44.54050868807288
 30
0.0
  0
SPLINE
  5
15C
330
1F
100
AcDbEntity
  8
0
  6
Continuous
 62
     7
370
    25
100
AcDbSpline
210
0.0
220
0.0
230
1.0
 70
     8
 71
     3
 72
     9
 73
     5
 74
     0
 42
0.000000001
 43
0.00000001
 40
0.0
 40
0.0
 40
0.0
 40
0.0
 40
0.4998135440524516
 40
1.0
 40
1.0
 40
1.0
 40
1.0
 10
-79.04806922374745
 20
44.54050868807288
 30
0.0
 10
-79.13754373395955
 20
44.74976523767105
 30
0.0
 10
-79.31655951149666
 20
45.16843446360186
 30
0.0
 10
-79.49441116261627
 20
45.58759953817479
 30
0.0
 10
-79.5833701496742
 20
45.79726023128242
 30
0.0
  0
SPLINE
  5
15D
330
1F
100
AcDbEntity
  8
0
  6
Continuous
 62
     7
370
    25
100
AcDbSpline
210
0.0
220
0.0
230
1.0
 70
     8
 71
     3
 72
     9
 73
     5
 74
     0
 42
0.000000001
 43
0.00000001
 40
0.0
 40
0.0
 40
0.0
 40
0.0
 40
0.4990308269963045
 40
1.0
 40
1.0
 40
1.0
 40
1.0
 10
-79.5833701496742
 20
45.79726023128242
 30
0.0
 10
-79.4292219894187
 20
45.81882819030102
 30
0.0
 10
-79.12032692338977
 20
45.86204788305712
 30
0.0
 10
-78.81322288981836
 20
45.91655752120895
 30
0.0
 10
-78.65937323609401
 20
45.94386516955461
 30
0.0
  0
SPLINE
  5
15E
330
1F
100
AcDbEntity
  8
0
  6
Continuous
 62
     7
370
    25
100
AcDbSpline
210
0.0
220
0.0
230
1.0
 70
     8
 71
     3
 72
    15
 73
    11
 74
     0
 42
0.000000001
 43
0.00000001
 40
0.0
 40
0.0
 40
0.0
 40
0.0
 40
0.1762802545774066
 40
0.3301412107170248
 40
0.4613863626539785
 40
0.570119860806531
 40
0.670035565723567
 40
0.7750857792676149
 40
0.884583993603138
 40
1.0
 40
1.0
 40
1.0
 40
1.0
 10
-78.65937323609401
 20
45.94386516955461
 30
0.0
 10
-78.59120570690948
 20
45.9521516460042
 30
0.0
 10
-78.46354018549003
 20
45.96767072597263
 30
0.0
 10
-78.28525591376624
 20
45.99042657768472
 30
0.0
 10
-78.13282261814952
 20
46.00787767707444
 30
0.0
 10
-78.00109186125874
 20
46.02110072423039
 30
0.0
 10
-77.87977682185382
 20
46.03632964022943
 30
0.0
 10
-77.75957870552058
 20
46.06025934924644
 30
0.0
 10
-77.63434832667679
 20
46.08953543599577
 30
0.0
 10
-77.5506851161278
 20
46.11564968165578
 30
0.0
 10
-77.50775286572377
 20
46.12905035474054
 30
0.0
  0
SPLINE
  5
15F
330
1F
100
AcDbEntity
  8
0
  6
Continuous
 62
     7
370
    25
100
AcDbSpline
210
0.0
220
0.0
230
1.0
 70
     8
 71
     3
 72
    15
 73
    11
 74
     0
 42
0.000000001
 43
0.00000001
 40
0.0
 40
0.0
 40
0.0
 40
0.0
 40
0.1709173277512879
 40
0.3267417817854612
 40
0.4692759198822225
 40
0.5990460294360218
 40
0.7154339520044489
 40
0.8203349494348365
 40
0.9145887736322394
 40
1.0
 40
1.0
 40
1.0
 40
1.0
 10
-77.50775286572379
 20
46.12905035474054
 30
0.0
 10
-77.47908550426153
 20
46.13950241049046
 30
0.0
 10
-77.42428225589289
 20
46.15948355203989
 30
0.0
 10
-77.34641750045466
 20
46.1906612942173
 30
0.0
 10
-77.27821573068759
 20
46.22522602422063
 30
0.0
 10
-77.21675989752634
 20
46.25769549725232
 30
0.0
 10
-77.1656849884289
 20
46.29425574490768
 30
0.0
 10
-77.12170971856209
 20
46.32947754850884
 30
0.0
 10
-77.08596556733977
 20
46.36603448957798
 30
0.0
 10
-77.06851693290479
 20
46.39303013005604
 30
0.0
 10
-77.06022200152641
 20
46.40586362634574
 30
0.0
  0
SPLINE
  5
160
330
1F
100
AcDbEntity
  8
0
  6
Continuous
 62
     7
370
    25
100
AcDbSpline
210
0.0
220
0.0
230
1.0
 70
     8
 71
     3
 72
    15
 73
    11
 74
     0
 42
0.000000001
 43
0.00000001
 40
0.0
 40
0.0
 40
0.0
 40
0.0
 40
0.1333640369697578
 40
0.2600793682572051
 40
0.384988892239436
 40
0.5150814571640279
 40
0.6435000184217403
 40
0.7646354090729888
 40
0.8815209645470002
 40
1.0
 40
1.0
 40
1.0
 40
1.0
 10
-77.06022200152641
 20
46.40586362634574
 30
0.0
 10
-77.04532575912484
 20
46.43426126124115
 30
0.0
 10
-77.01627590879616
 20
46.48964080066884
 30
0.0
 10
-76.99680283596074
 20
46.58069628869539
 30
0.0
 10
-76.99392514511366
 20
46.67265511182327
 30
0.0
 10
-77.01337410124657
 20
46.76312141223877
 30
0.0
 10
-77.04652431432989
 20
46.84814224644503
 30
0.0
 10
-77.0921188526632
 20
46.92354386397411
 30
0.0
 10
-77.14975716033399
 20
46.98776694680114
 30
0.0
 10
-77.19734135587949
 20
47.01835804226469
 30
0.0
 10
-77.221294532391
 20
47.03375714486417
 30
0.0
  0
SPLINE
  5
161
330
1F
100
AcDbEntity
  8
0
  6
Continuous
 62
     7
370
    25
100
AcDbSpline
210
0.0
220
0.0
230
1.0
 70
     8
 71
     3
 72
    15
 73
    11
 74
     0
 42
0.000000001
 43
0.00000001
 40
0.0
 40
0.0
 40
0.0
 40
0.0
 40
0.0971764155503207
 40
0.194603921353145
 40
0.2957229902927253
 40
0.4065260512102833
 40
0.5307613947209169
 40
0.6710342206722567
 40
0.8269983154131673
 40
1.0
 40
1.0
 40
1.0
 40
1.0
 10
-77.22129453239101
 20
47.03375714486417
 30
0.0
 10
-77.25098061033265
 20
47.04815075126585
 30
0.0
 10
-77.31042947088514
 20
47.07697515513297
 30
0.0
 10
-77.41055209867223
 20
47.09274045166838
 30
0.0
 10
-77.51574761321379
 20
47.08458120871513
 30
0.0
 10
-77.62418146530595
 20
47.04910970632327
 30
0.0
 10
-77.74371432124383
 20
47.00682424885481
 30
0.0
 10
-77.88215437615376
 20
46.97370265900283
 30
0.0
 10
-78.03785653330058
 20
46.94343738972344
 30
0.0
 10
-78.14808608763369
 20
46.9286739512584
 30
0.0
 10
-78.20605533486007
 20
46.92090992264132
 30
0.0
  0
SPLINE
  5
162
330
1F
100
AcDbEntity
  8
0
  6
Continuous
 62
     7
370
    25
100
AcDbSpline
210
0.0
220
0.0
230
1.0
 70
     8
 71
     3
 72
    15
 73
    11
 74
     0
 42
0.000000001
 43
0.00000001
 40
0.0
 40
0.0
 40
0.0
 40
0.0
 40
0.2179942161890822
 40
0.4101550477176947
 40
0.5764824983682184
 40
0.713601819965115
 40
0.8253029719139897
 40
0.9109526931113227
 40
0.9691826207194051
 40
1.0
 40
1.0
 40
1.0
 40
1.0
 10
-78.20605533486005
 20
46.92090992264132
 30
0.0
 10
-78.24945590529417
 20
46.91542703059471
 30
0.0
 10
-78.33111386553074
 20
46.90511099612225
 30
0.0
 10
-78.44591898417671
 20
46.89087065349544
 30
0.0
 10
-78.54450384483106
 20
46.87772935182082
 30
0.0
 10
-78.62740353783762
 20
46.86923627855072
 30
0.0
 10
-78.69369648675183
 20
46.85861274934909
 30
0.0
 10
-78.74458793720135
 20
46.85224017914729
 30
0.0
 10
-78.77933615387738
 20
46.84757245624562
 30
0.0
 10
-78.79697888261326
 20
46.84473233453966
 30
0.0
 10
-78.8030846558477
 20
46.84374942881377
 30
0.0
  0
SPLINE
  5
163
330
1F
100
AcDbEntity
  8
0
  6
Continuous
 62
     7
370
    25
100
AcDbSpline
210
0.0
220
0.0
230
1.0
 70
     8
 71
     3
 72
     9
 73
     5
 74
     0
 42
0.000000001
 43
0.00000001
 40
0.0
 40
0.0
 40
0.0
 40
0.0
 40
0.5046291909082508
 40
1.0
 40
1.0
 40
1.0
 40
1.0
 10
-78.8030846558477
 20
46.84374942881377
 30
0.0
 10
-78.98261788655542
 20
46.81170860552338
 30
0.0
 10
-79.33839046955761
 20
46.74821480875606
 30
0.0
 10
-79.69635923214628
 20
46.69858266005322
 30
0.0
 10
-79.87368650769942
 20
46.67399634239333
 30
0.0
  0
SPLINE
  5
164
330
1F
100
AcDbEntity
  8
0
  6
Continuous
 62
     7
370
    25
100
AcDbSpline
210
0.0
220
0.0
230
1.0
 70
     8
 71
     3
 72
    15
 73
    11
 74
     0
 42
0.000000001
 43
0.00000001
 40
0.0
 40
0.0
 40
0.0
 40
0.0
 40
0.1537145583800495
 40
0.299592870521185
 40
0.4365654261787795
 40
0.5657028887814839
 40
0.6870065665834981
 40
0.7992340353639608
 40
0.9038006519127815
 40
1.0
 40
1.0
 40
1.0
 40
1.0
 10
-79.87368650769942
 20
46.67399634239333
 30
0.0
 10
-79.90139595848915
 20
46.75724545889848
 30
0.0
 10
-79.95540225425029
 20
46.91949971799388
 30
0.0
 10
-80.03309906972605
 20
47.15626665508972
 30
0.0
 10
-80.10683244652935
 20
47.37956949628992
 30
0.0
 10
-80.17521607271898
 20
47.58986398362282
 30
0.0
 10
-80.23891927799228
 20
47.78682959507162
 30
0.0
 10
-80.29661809562623
 20
47.97098791105588
 30
0.0
 10
-80.35080711856494
 20
48.14122688289145
 30
0.0
 10
-80.38492392125052
 20
48.25062695214599
 30
0.0
 10
-80.40127138424367
 20
48.30304726831893
 30
0.0
  0
SPLINE
  5
165
330
1F
100
AcDbEntity
  8
0
  6
Continuous
 62
     7
370
    25
100
AcDbSpline
210
0.0
220
0.0
230
1.0
 70
     8
 71
     3
 72
    15
 73
    11
 74
     0
 42
0.000000001
 43
0.00000001
 40
0.0
 40
0.0
 40
0.0
 40
0.0
 40
0.1611732393632219
 40
0.3117505723917456
 40
0.4528031579742281
 40
0.5825134327452064
 40
0.7026968212683522
 40
0.8122854016671819
 40
0.9112802497489619
 40
1.0
 40
1.0
 40
1.0
 40
1.0
 10
-80.40127138424367
 20
48.30304726831893
 30
0.0
 10
-80.41477337297472
 20
48.34741482349771
 30
0.0
 10
-80.44088969806663
 20
48.43323310683837
 30
0.0
 10
-80.47884033647904
 20
48.55787573684405
 30
0.0
 10
-80.51284116483195
 20
48.67425218781045
 30
0.0
 10
-80.54631609428083
 20
48.7816519748495
 30
0.0
 10
-80.57592214648591
 20
48.88076402472682
 30
0.0
 10
-80.60308641377833
 20
48.97138086064733
 30
0.0
 10
-80.62690726151725
 20
49.05354643862623
 30
0.0
 10
-80.64266593719252
 20
49.10521085186588
 30
0.0
 10
-80.6501139768368
 20
49.12962905844222
 30
0.0
  0
SPLINE
  5
166
330
1F
100
AcDbEntity
  8
0
  6
Continuous
 62
     7
370
    25
100
AcDbSpline
210
0.0
220
0.0
230
1.0
 70
     8
 71
     3
 72
    11
 73
     7
 74
     0
 42
0.000000001
 43
0.00000001
 40
0.0
 40
0.0
 40
0.0
 40
0.0
 40
0.2639521771687044
 40
0.5125225472434314
 40
0.7556140041079558
 40
1.0
 40
1.0
 40
1.0
 40
1.0
 10
-80.6501139768368
 20
49.12962905844222
 30
0.0
 10
-80.66016588757601
 20
49.15545579428508
 30
0.0
 10
-80.67968393418583
 20
49.2056042135296
 30
0.0
 10
-80.72312005081683
 20
49.27239980878765
 30
0.0
 10
-80.77662091158227
 20
49.32884034835404
 30
0.0
 10
-80.81955976061005
 20
49.35675913695738
 30
0.0
 10
-80.84108619905916
 20
49.37075560165198
 30
0.0
  0
SPLINE
  5
167
330
1F
100
AcDbEntity
  8
0
  6
Continuous
 62
     7
370
    25
100
AcDbSpline
210
0.0
220
0.0
230
1.0
 70
     8
 71
     3
 72
    15
 73
    11
 74
     0
 42
0.000000001
 43
0.00000001
 40
0.0
 40
0.0
 40
0.0
 40
0.0
 40
0.1137922408579182
 40
0.2269071409311715
 40
0.3437645925529266
 40
0.4713124378289538
 40
0.6032841885461537
 40
0.7319836224200146
 40
0.8634887106054356
 40
1.0
 40
1.0
 40
1.0
 40
1.0
 10
-80.84108619905916
 20
49.37075560165198
 30
0.0
 10
-80.86756376524353
 20
49.38413239568315
 30
0.0
 10
-80.92036129165136
 20
49.41080635926409
 30
0.0
 10
-81.00990256635566
 20
49.42444893538343
 30
0.0
 10
-81.10291459713874
 20
49.4168503551964
 30
0.0
 10
-81.19706315451207
 20
49.38918651767335
 30
0.0
 10
-81.28862142838192
 20
49.34604010730549
 30
0.0
 10
-81.37089614888947
 20
49.28548178276692
 30
0.0
 10
-81.44392438984096
 20
49.21197637294438
 30
0.0
 10
-81.48097339741628
 20
49.15294467983612
 30
0.0
 10
-81.4998439151084
 20
49.1228775152318
 30
0.0
  0
SPLINE
  5
168
330
1F
100
AcDbEntity
  8
0
  6
Continuous
 62
     7
370
    25
100
AcDbSpline
210
0.0
220
0.0
230
1.0
 70
     8
 71
     3
 72
    11
 73
     7
 74
     0
 42
0.000000001
 43
0.00000001
 40
0.0
 40
0.0
 40
0.0
 40
0.0
 40
0.2553624799083913
 40
0.4995849470563051
 40
0.7474705143764573
 40
0.9999999999999999
 40
0.9999999999999999
 40
0.9999999999999999
 40
0.9999999999999999
 10
-81.4998439151084
 20
49.1228775152318
 30
0.0
 10
-81.51615214301526
 20
49.09154585491558
 30
0.0
 10
-81.5480571635898
 20
49.03024935644066
 30
0.0
 10
-81.57521820982149
 20
48.92999962000221
 30
0.0
 10
-81.58443960135924
 20
48.82696808220329
 30
0.0
 10
-81.57629298639092
 20
48.75824990512875
 30
0.0
 10
-81.57218187807109
 20
48.72357195967621
 30
0.0
  0
SPLINE
  5
169
330
1F
100
AcDbEntity
  8
0
  6
Continuous
 62
     7
370
    25
100
AcDbSpline
210
0.0
220
0.0
230
1.0
 70
     8
 71
     3
 72
    15
 73
    11
 74
     0
 42
0.000000001
 43
0.00000001
 40
0.0
 40
0.0
 40
0.0
 40
0.0
 40
0.1609387097667464
 40
0.3125198003347007
 40
0.4522231143341424
 40
0.5822023871794729
 40
0.7028295408342025
 40
0.8119700639783318
 40
0.911383102766785
 40
1.0
 40
1.0
 40
1.0
 40
1.0
 10
-81.57218187807109
 20
48.72357195967621
 30
0.0
 10
-81.5577594293286
 20
48.68047544901731
 30
0.0
 10
-81.52975311060094
 20
48.5967882309095
 30
0.0
 10
-81.4884883694691
 20
48.4759403471922
 30
0.0
 10
-81.44951883801332
 20
48.36354795820864
 30
0.0
 10
-81.41398326098897
 20
48.25922006764778
 30
0.0
 10
-81.38073162467977
 20
48.1632251813329
 30
0.0
 10
-81.3482818611251
 20
48.0761156883569
 30
0.0
 10
-81.31965870612126
 20
47.99723366342005
 30
0.0
 10
-81.30118268047521
 20
47.94745608734878
 30
0.0
 10
-81.29247508794714
 20
47.92399634239243
 30
0.0
  0
SPLINE
  5
16A
330
1F
100
AcDbEntity
  8
0
  6
Continuous
 62
     7
370
    25
100
AcDbSpline
210
0.0
220
0.0
230
1.0
 70
     8
 71
     3
 72
    15
 73
    11
 74
     0
 42
0.000000001
 43
0.00000001
 40
0.0
 40
0.0
 40
0.0
 40
0.0
 40
0.1464792088204643
 40
0.2868772184740052
 40
0.4211981283538097
 40
0.5489913480604403
 40
0.6707093481364752
 40
0.786980090837948
 40
0.8963287493584391
 40
0.9999999999999999
 40
0.9999999999999999
 40
0.9999999999999999
 40
0.9999999999999999
 10
-81.29247508794714
 20
47.92399634239243
 30
0.0
 10
-81.26906494502421
 20
47.85710307971701
 30
0.0
 10
-81.2232165496111
 20
47.72609368059818
 30
0.0
 10
-81.15489577629384
 20
47.53409539609837
 30
0.0
 10
-81.08778932779234
 20
47.35127186104788
 30
0.0
 10
-81.02566098496474
 20
47.1762593664977
 30
0.0
 10
-80.96458070722946
 20
47.01015457926978
 30
0.0
 10
-80.90606367496451
 20
46.85261838000462
 30
0.0
 10
-80.84974135637164
 20
46.70358402788563
 30
0.0
 10
-80.81342744522159
 20
46.60712749863094
 30
0.0
 10
-80.79575440893393
 20
46.56018461399768
 30
0.0
  0
SPLINE
  5
16B
330
1F
100
AcDbEntity
  8
0
  6
Continuous
 62
     7
370
    25
100
AcDbSpline
210
0.0
220
0.0
230
1.0
 70
     8
 71
     3
 72
    11
 73
     7
 74
     0
 42
0.000000001
 43
0.00000001
 40
0.0
 40
0.0
 40
0.0
 40
0.0
 40
0.3115560314365536
 40
0.5832430202740828
 40
0.8123004750757532
 40
1.0
 40
1.0
 40
1.0
 40
1.0
 10
-80.79575440893393
 20
46.56018461399768
 30
0.0
 10
-80.86615876857626
 20
46.55624020546685
 30
0.0
 10
-80.99795801883931
 20
46.5488561444551
 30
0.0
 10
-81.18158610769095
 20
46.53983701103321
 30
0.0
 10
-81.3371173374665
 20
46.53033331732791
 30
0.0
 10
-81.43135801522116
 20
46.5263099394956
 30
0.0
 10
-81.47380224844007
 20
46.52449788560219
 30
0.0
  0
SPLINE
  5
16C
330
1F
100
AcDbEntity
  8
0
  6
Continuous
 62
     7
370
    25
100
AcDbSpline
210
0.0
220
0.0
230
1.0
 70
     8
 71
     3
 72
    15
 73
    11
 74
     0
 42
0.000000001
 43
0.00000001
 40
0.0
 40
0.0
 40
0.0
 40
0.0
 40
0.1617597590123752
 40
0.3119720474796518
 40
0.4532033684708215
 40
0.5828375533530396
 40
0.7035085818114934
 40
0.8126088605786254
 40
0.9114423726384184
 40
1.0
 40
1.0
 40
1.0
 40
1.0
 10
-81.47380224844007
 20
46.52449788560219
 30
0.0
 10
-81.51431154825032
 20
46.52353034145042
 30
0.0
 10
-81.59243832885959
 20
46.52166432278239
 30
0.0
 10
-81.70593284015963
 20
46.51900279436838
 30
0.0
 10
-81.81135682227024
 20
46.51522894264097
 30
0.0
 10
-81.90945145589508
 20
46.51540092020197
 30
0.0
 10
-81.99944780633744
 20
46.51260362606038
 30
0.0
 10
-82.08176511212608
 20
46.51217323468504
 30
0.0
 10
-82.15602572799172
 20
46.5107465110338
 30
0.0
 10
-82.2029683377335
 20
46.51091511841528
 30
0.0
 10
-82.22515255708203
 20
46.51099479918196
 30
0.0
  0
SPLINE
  5
16D
330
1F
100
AcDbEntity
  8
0
  6
Continuous
 62
     7
370
    25
100
AcDbSpline
210
0.0
220
0.0
230
1.0
 70
     8
 71
     3
 72
    15
 73
    11
 74
     0
 42
0.000000001
 43
0.00000001
 40
0.0
 40
0.0
 40
0.0
 40
0.0
 40
0.1799415336082308
 40
0.3416746938752586
 40
0.4858647890775256
 40
0.6140255510316375
 40
0.7278926262135301
 40
0.827562954706917
 40
0.9175827817260266
 40
1.0
 40
1.0
 40
1.0
 40
1.0
 10
-82.22515255708203
 20
46.51099479918196
 30
0.0
 10
-82.29529299575411
 20
46.50796054284177
 30
0.0
 10
-82.42847632720071
 20
46.50219906807061
 30
0.0
 10
-82.61704929500192
 20
46.48133575211811
 30
0.0
 10
-82.78367486267504
 20
46.45060886912332
 30
0.0
 10
-82.92970500974529
 20
46.41245934305088
 30
0.0
 10
-83.05364104431348
 20
46.36231942938564
 30
0.0
 10
-83.15739934410976
 20
46.30478818071493
 30
0.0
 10
-83.24051796480221
 20
46.23663636306434
 30
0.0
 10
-83.27854411228545
 20
46.18081001850238
 30
0.0
 10
-83.2967189151065
 20
46.15412751523066
 30
0.0
  0
SPLINE
  5
16E
330
1F
100
AcDbEntity
  8
0
  6
Continuous
 62
     7
370
    25
100
AcDbSpline
210
0.0
220
0.0
230
1.0
 70
     8
 71
     3
 72
    15
 73
    11
 74
     0
 42
0.000000001
 43
0.00000001
 40
0.0
 40
0.0
 40
0.0
 40
0.0
 40
0.1372234975463108
 40
0.2688688196347366
 40
0.3982993247944744
 40
0.5299675218304314
 40
0.6570735824854399
 40
0.7745185394804823
 40
0.8868585749610225
 40
1.0
 40
1.0
 40
1.0
 40
1.0
 10
-83.2967189151065
 20
46.15412751523066
 30
0.0
 10
-83.31322128766725
 20
46.1221261620557
 30
0.0
 10
-83.34555520649977
 20
46.05942432010655
 30
0.0
 10
-83.37519396589767
 20
45.95851359622768
 30
0.0
 10
-83.38425362635812
 20
45.85555386184688
 30
0.0
 10
-83.37743761012823
 20
45.75350957031128
 30
0.0
 10
-83.35130022977557
 20
45.6578874444514
 30
0.0
 10
-83.31142645456204
 20
45.57263633847809
 30
0.0
 10
-83.25296005706727
 20
45.50259163711269
 30
0.0
 10
-83.20374443321434
 20
45.46952407285362
 30
0.0
 10
-83.17904916201965
 20
45.45293152757642
 30
0.0
  0
SPLINE
  5
16F
330
1F
100
AcDbEntity
  8
0
  6
Continuous
 62
     7
370
    25
100
AcDbSpline
210
0.0
220
0.0
230
1.0
 70
     8
 71
     3
 72
    11
 73
     7
 74
     0
 42
0.000000001
 43
0.00000001
 40
0.0
 40
0.0
 40
0.0
 40
0.0
 40
0.2400354279494449
 40
0.4788552951080807
 40
0.7298254568192184
 40
0.9999999999999999
 40
0.9999999999999999
 40
0.9999999999999999
 40
0.9999999999999999
 10
-83.17904916201965
 20
45.45293152757642
 30
0.0
 10
-83.15567863947004
 20
45.44084925953968
 30
0.0
 10
-83.10905594477902
 20
45.41674590914789
 30
0.0
 10
-83.03034399680594
 20
45.40095795240349
 30
0.0
 10
-82.94724144706717
 20
45.39467551907337
 30
0.0
 10
-82.89092335091222
 20
45.4038223144735
 30
0.0
 10
-82.86172663115543
 20
45.408564243626
 30
0.0
  0
SPLINE
  5
170
330
1F
100
AcDbEntity
  8
0
  6
Continuous
 62
     7
370
    25
100
AcDbSpline
210
0.0
220
0.0
230
1.0
 70
     8
 71
     3
 72
    11
 73
     7
 74
     0
 42
0.000000001
 43
0.00000001
 40
0.0
 40
0.0
 40
0.0
 40
0.0
 40
0.2179538536356755
 40
0.4571577749432347
 40
0.7177931385285079
 40
1.0
 40
1.0
 40
1.0
 40
1.0
 10
-82.86172663115543
 20
45.408564243626
 30
0.0
 10
-82.77758588792396
 20
45.42453503175624
 30
0.0
 10
-82.60110084617725
 20
45.45803372812671
 30
0.0
 10
-82.32207490071897
 20
45.49946735666567
 30
0.0
 10
-82.01723747269219
 20
45.53824659182502
 30
0.0
 10
-81.8050064816563
 20
45.55953440556486
 30
0.0
 10
-81.69467416201971
 20
45.57060128066377
 30
0.0
  0
SPLINE
  5
172
330
1F
100
AcDbEntity
  8
0
  6
Continuous
 62
     7
370
    25
100
AcDbSpline
210
0.0
220
0.0
230
1.0
 70
     8
 71
     3
 72
    15
 73
    11
 74
     0
 42
0.000000001
 43
0.00000001
 40
0.0
 40
0.0
 40
0.0
 40
0.0
 40
0.1622170392521
 40
0.3136735993967563
 40
0.4543708657770026
 40
0.5841992285916802
 40
0.7043298813668699
 40
0.8136202371245664
 40
0.9121743341390272
 40
1.0
 40
1.0
 40
1.0
 40
1.0
 10
-80.51990564350127
 20
45.68055498436824
 30
0.0
 10
-80.49328060190776
 20
45.6136582961875
 30
0.0
 10
-80.44179665996654
 20
45.48430243402822
 30
0.0
 10
-80.36625087173185
 20
45.29731861824516
 30
0.0
 10
-80.29694022855568
 20
45.12330110525529
 30
0.0
 10
-80.22773619244825
 20
44.96430212902115
 30
0.0
 10
-80.16770526313235
 20
44.81656095707424
 30
0.0
 10
-80.10806974878513
 20
44.68374885243191
 30
0.0
 10
-80.05438496244851
 20
44.56399961141121
 30
0.0
 10
-80.01941081429518
 20
44.48903015629471
 30
0.0
 10
-80.0029303348585
 20
44.4537031325167
 30
0.0
  0
SPLINE
  5
173
330
1F
100
AcDbEntity
  8
0
  6
Continuous
 62
     7
370
    25
100
AcDbSpline
210
0.0
220
0.0
230
1.0
 70
     8
 71
     3
 72
    15
 73
    11
 74
     0
 42
0.000000001
 43
0.00000001
 40
0.0
 40
0.0
 40
0.0
 40
0.0
 40
0.0994936247352672
 40
0.2055078602951843
 40
0.3197179692777483
 40
0.4406433910811928
 40
0.5698099038983645
 40
0.7055317082635864
 40
0.849205340124082
 40
1.0
 40
1.0
 40
1.0
 40
1.0
 10
-80.00293033485852
 20
44.45370313251671
 30
0.0
 10
-79.98873265648574
 20
44.421253652795
 30
0.0
 10
-79.95940681263077
 20
44.35422802011706
 30
0.0
 10
-79.91481050112017
 20
44.24951056307781
 30
0.0
 10
-79.86836826521409
 20
44.13728139955187
 30
0.0
 10
-79.82236003239778
 20
44.01601439450516
 30
0.0
 10
-79.77450192815816
 20
43.88727788996822
 30
0.0
 10
-79.72376885088413
 20
43.75096249914635
 30
0.0
 10
-79.67293589595006
 20
43.60649167251515
 30
0.0
 10
-79.63921736435738
 20
43.50723316908051
 30
0.0
 10
-79.62195039658626
 20
43.45640374980091
 30
0.0
  0
CIRCLE
  5
17A
330
1F
100
AcDbEntity
  8
0
  6
Continuous
 62
     7
370
    25
100
AcDbCircle
 10
-19.5
 20
82.0
 30
0.0
 40
1.599999999999999
  0
LINE
  5
17E
330
1F
100
AcDbEntity
  8
0
  6
Continuous
 62
     7
370
    25
100
AcDbLine
 10
19.5799999989
 20
-25.0
 30
0.0
 11
12.6999999989
 21
-25.0
 31
0.0
  0
LINE
  5
17F
330
1F
100
AcDbEntity
  8
0
  6
Continuous
 62
     7
370
    25
100
AcDbLine
 10
12.6999999989
 20
-25.0
 30
0.0
 11
12.6999999989
 21
-40.0
 31
0.0
  0
LINE
  5
180
330
1F
100
AcDbEntity
  8
0
  6
Continuous
 62
     7
370
    25
100
AcDbLine
 10
12.6999999989
 20
-40.0
 30
0.0
 11
19.5799999989
 21
-40.0
 31
0.0
  0
LINE
  5
181
330
1F
100
AcDbEntity
  8
0
  6
Continuous
 62
     7
370
    25
100
AcDbLine
 10
19.5799999989
 20
-40.0
 30
0.0
 11
19.5799999989
 21
-25.0
 31
0.0
  0
LINE
  5
182
330
1F
100
AcDbEntity
  8
0
  6
Continuous
 62
     7
370
    25
100
AcDbLine
 10
-12.7
 20
-25.0
 30
0.0
 11
-19.58
 21
-25.0
 31
0.0
  0
LINE
  5
183
330
1F
100
AcDbEntity
  8
0
  6
Continuous
 62
     7
370
    25
100
AcDbLine
 10
-19.58
 20
-25.0
 30
0.0
 11
-19.58
 21
-40.0
 31
0.0
  0
LINE
  5
184
330
1F
100
AcDbEntity
  8
0
  6
Continuous
 62
     7
370
    25
100
AcDbLine
 10
-19.58
 20
-40.0
 30
0.0
 11
-12.7
 21
-40.0
 31
0.0
  0
LINE
  5
185
330
1F
100
AcDbEntity
  8
0
  6
Continuous
 62
     7
370
    25
100
AcDbLine
 10
-12.7
 20
-40.0
 30
0.0
 11
-12.7
 21
-25.0
 31
0.0
  0
LINE
  5
186
330
1F
100
AcDbEntity
  8
0
  6
Continuous
 62
     7
370
    25
100
AcDbLine
 10
28.0006350946
 20
1.5014773719
 30
0.0
 11
31.4406350946
 21
-4.4567774061
 31
0.0
  0
LINE
  5
187
330
1F
100
AcDbEntity
  8
0
  6
Continuous
 62
     7
370
    25
100
AcDbLine
 10
31.4406350946
 20
-4.4567774061
 30
0.0
 11
44.4310161514
 21
3.0432225939
 31
0.0
  0
LINE
  5
188
330
1F
100
AcDbEntity
  8
0
  6
Continuous
 62
     7
370
    25
100
AcDbLine
 10
44.4310161514
 20
3.0432225939
 30
0.0
 11
40.9910161514
 21
9.0014773719
 31
0.0
  0
LINE
  5
189
330
1F
100
AcDbEntity
  8
0
  6
Continuous
 62
     7
370
    25
100
AcDbLine
 10
40.9910161514
 20
9.0014773719
 30
0.0
 11
28.0006350946
 21
1.5014773719
 31
0.0
  0
LINE
  5
18A
330
1F
100
AcDbEntity
  8
0
  6
Continuous
 62
     7
370
    25
100
AcDbLine
 10
-31.4406350941
 20
-4.4567774052
 30
0.0
 11
-28.0006350941
 21
1.5014773729
 31
0.0
  0
LINE
  5
18B
330
1F
100
AcDbEntity
  8
0
  6
Continuous
 62
     7
370
    25
100
AcDbLine
 10
-28.0006350941
 20
1.5014773729
 30
0.0
 11
-40.9910161508
 21
9.0014773729
 31
0.0
  0
LINE
  5
18C
330
1F
100
AcDbEntity
  8
0
  6
Continuous
 62
     7
370
    25
100
AcDbLine
 10
-40.9910161508
 20
9.0014773729
 30
0.0
 11
-44.4310161508
 21
3.0432225948
 31
0.0
  0
LINE
  5
18D
330
1F
100
AcDbEntity
  8
0
  6
Continuous
 62
     7
370
    25
100
AcDbLine
 10
-44.4310161508
 20
3.0432225948
 30
0.0
 11
-31.4406350941
 21
-4.4567774052
 31
0.0
  0
LINE
  5
18E
330
1F
100
AcDbEntity
  8
0
  6
Continuous
 62
     7
370
    25
100
AcDbLine
 10
-15.3006350946
 20
23.4985226281
 30
0.0
 11
-11.8606350946
 21
29.4567774061
 31
0.0
  0
LINE
  5
18F
330
1F
100
AcDbEntity
  8
0
  6
Continuous
 62
     7
370
    25
100
AcDbLine
 10
-11.8606350946
 20
29.4567774061
 30
0.0
 11
-24.8510161514
 21
36.9567774061
 31
0.0
  0
LINE
  5
190
330
1F
100
AcDbEntity
  8
0
  6
Continuous
 62
     7
370
    25
100
AcDbLine
 10
-24.8510161514
 20
36.9567774061
 30
0.0
 11
-28.2910161514
 21
30.9985226281
 31
0.0
  0
LINE
  5
191
330
1F
100
AcDbEntity
  8
0
  6
Continuous
 62
     7
370
    25
100
AcDbLine
 10
-28.2910161514
 20
30.9985226281
 30
0.0
 11
-15.3006350946
 21
23.4985226281
 31
0.0
  0
LINE
  5
192
330
1F
100
AcDbEntity
  8
0
  6
Continuous
 62
     7
370
    25
100
AcDbLine
 10
11.8606350952
 20
29.4567774052
 30
0.0
 11
15.3006350952
 21
23.4985226271
 31
0.0
  0
LINE
  5
193
330
1F
100
AcDbEntity
  8
0
  6
Continuous
 62
     7
370
    25
100
AcDbLine
 10
15.3006350952
 20
23.4985226271
 30
0.0
 11
28.2910161519
 21
30.9985226271
 31
0.0
  0
LINE
  5
194
330
1F
100
AcDbEntity
  8
0
  6
Continuous
 62
     7
370
    25
100
AcDbLine
 10
28.2910161519
 20
30.9985226271
 30
0.0
 11
24.8510161519
 21
36.9567774052
 31
0.0
  0
LINE
  5
195
330
1F
100
AcDbEntity
  8
0
  6
Continuous
 62
     7
370
    25
100
AcDbLine
 10
24.8510161519
 20
36.9567774052
 30
0.0
 11
11.8606350952
 21
29.4567774052
 31
0.0
  0
LINE
  5
196
330
1F
100
AcDbEntity
  8
0
  6
Continuous
 62
     7
370
    25
100
AcDbLine
 10
82.0017248738
 20
71.1906599724
 30
0.0
 11
82.009316347
 21
71.4626072086
 31
0.0
  0
LINE
  5
197
330
1F
100
AcDbEntity
  8
0
  6
Continuous
 62
     7
370
    25
100
AcDbLine
 10
81.0025036794
 20
69.5144179104
 30
0.0
 11
75.8865149747
 21
66.5607004546
 31
0.0
  0
LINE
  5
198
330
1F
100
AcDbEntity
  8
0
  6
Continuous
 62
     7
370
    25
100
AcDbLine
 10
75.8865149747
 20
66.5607004546
 30
0.0
 11
79.3865149747
 21
60.4985226281
 31
0.0
  0
LINE
  5
199
330
1F
100
AcDbEntity
  8
0
  6
Continuous
 62
     7
370
    25
100
AcDbLine
 10
103.7838127492
 20
74.5843090657
 30
0.0
 11
79.3865149747
 21
60.4985226281
 31
0.0
  0
LINE
  5
19A
330
1F
100
AcDbEntity
  8
0
  6
Continuous
 62
     7
370
    25
100
AcDbLine
 10
106.433103337
 20
74.4808845379
 30
0.0
 11
105.3014508394
 21
74.7841099107
 31
0.0
  0
LINE
  5
19B
330
1F
100
AcDbEntity
  8
0
  6
Continuous
 62
     7
370
    25
100
AcDbLine
 10
117.5190889296
 20
56.4509671147
 30
0.0
 11
107.6475160543
 21
73.5490328853
 31
0.0
  0
LINE
  5
19C
330
1F
100
AcDbEntity
  8
0
  6
Continuous
 62
     7
370
    25
100
AcDbLine
 10
117.4156644018
 20
53.8016765269
 30
0.0
 11
117.7188897746
 21
54.9333290245
 31
0.0
  0
LINE
  5
19D
330
1F
100
AcDbEntity
  8
0
  6
Continuous
 62
     7
370
    25
100
AcDbLine
 10
92.0865149747
 20
38.5014773719
 30
0.0
 11
116.4838127492
 21
52.5872638096
 31
0.0
  0
LINE
  5
19E
330
1F
100
AcDbEntity
  8
0
  6
Continuous
 62
     7
370
    25
100
AcDbLine
 10
92.0865149747
 20
38.5014773719
 30
0.0
 11
95.5865149747
 21
32.4392995454
 31
0.0
  0
LINE
  5
19F
330
1F
100
AcDbEntity
  8
0
  6
Continuous
 62
     7
370
    25
100
AcDbLine
 10
95.5865149747
 20
32.4392995454
 30
0.0
 11
100.7025036794
 21
35.3930170013
 31
0.0
  0
LINE
  5
1A0
330
1F
100
AcDbEntity
  8
0
  6
Continuous
 62
     7
370
    25
100
AcDbLine
 10
102.8930914368
 20
35.2908476992
 30
0.0
 11
102.6537824851
 21
35.4202469086
 31
0.0
  0
LINE
  5
1A1
330
1F
100
AcDbEntity
  8
0
  6
Continuous
 62
     7
370
    25
100
AcDbLine
 10
20.6520576114
 20
-106.610906881
 30
0.0
 11
20.8837750898
 21
-106.7534549077
 31
0.0
  0
LINE
  5
1A2
330
1F
100
AcDbEntity
  8
0
  6
Continuous
 62
     7
370
    25
100
AcDbLine
 10
19.7
 20
-104.9074349117
 30
0.0
 11
19.7
 21
-99.0
 31
0.0
  0
LINE
  5
1A3
330
1F
100
AcDbEntity
  8
0
  6
Continuous
 62
     7
370
    25
100
AcDbLine
 10
19.7
 20
-99.0
 30
0.0
 11
12.7
 21
-99.0
 31
0.0
  0
LINE
  5
1A4
330
1F
100
AcDbEntity
  8
0
  6
Continuous
 62
     7
370
    25
100
AcDbLine
 10
12.7
 20
-127.1715728753
 30
0.0
 11
12.7
 21
-99.0
 31
0.0
  0
LINE
  5
1A5
330
1F
100
AcDbEntity
  8
0
  6
Continuous
 62
     7
370
    25
100
AcDbLine
 10
11.2857864376
 20
-129.4142135624
 30
0.0
 11
12.1142135624
 21
-128.5857864376
 31
0.0
  0
LINE
  5
1A6
330
1F
100
AcDbEntity
  8
0
  6
Continuous
 62
     7
370
    25
100
AcDbLine
 10
-9.8715728753
 20
-130.0
 30
0.0
 11
9.8715728753
 21
-130.0
 31
0.0
  0
LINE
  5
1A7
330
1F
100
AcDbEntity
  8
0
  6
Continuous
 62
     7
370
    25
100
AcDbLine
 10
-12.1142135624
 20
-128.5857864376
 30
0.0
 11
-11.2857864376
 21
-129.4142135624
 31
0.0
  0
LINE
  5
1A8
330
1F
100
AcDbEntity
  8
0
  6
Continuous
 62
     7
370
    25
100
AcDbLine
 10
-12.7
 20
-99.0
 30
0.0
 11
-12.7
 21
-127.1715728753
 31
0.0
  0
LINE
  5
1A9
330
1F
100
AcDbEntity
  8
0
  6
Continuous
 62
     7
370
    25
100
AcDbLine
 10
-12.7
 20
-99.0
 30
0.0
 11
-19.7
 21
-99.0
 31
0.0
  0
LINE
  5
1AA
330
1F
100
AcDbEntity
  8
0
  6
Continuous
 62
     7
370
    25
100
AcDbLine
 10
-19.7
 20
-99.0
 30
0.0
 11
-19.7
 21
-104.9074349117
 31
0.0
  0
LINE
  5
1AB
330
1F
100
AcDbEntity
  8
0
  6
Continuous
 62
     7
370
    25
100
AcDbLine
 10
-20.8837750898
 20
-106.7534549077
 30
0.0
 11
-20.6520576114
 21
-106.610906881
 31
0.0
  0
LINE
  5
1AC
330
1F
100
AcDbEntity
  8
0
  6
Continuous
 62
     7
370
    25
100
AcDbLine
 10
-102.6537824851
 20
35.4202469086
 30
0.0
 11
-102.8930914368
 21
35.2908476992
 31
0.0
  0
LINE
  5
1AD
330
1F
100
AcDbEntity
  8
0
  6
Continuous
 62
     7
370
    25
100
AcDbLine
 10
-100.7025036794
 20
35.3930170013
 30
0.0
 11
-95.5865149747
 21
32.4392995454
 31
0.0
  0
LINE
  5
1AE
330
1F
100
AcDbEntity
  8
0
  6
Continuous
 62
     7
370
    25
100
AcDbLine
 10
-95.5865149747
 20
32.4392995454
 30
0.0
 11
-92.0865149747
 21
38.5014773719
 31
0.0
  0
LINE
  5
1AF
330
1F
100
AcDbEntity
  8
0
  6
Continuous
 62
     7
370
    25
100
AcDbLine
 10
-116.4838127492
 20
52.5872638096
 30
0.0
 11
-92.0865149747
 21
38.5014773719
 31
0.0
  0
LINE
  5
1B0
330
1F
100
AcDbEntity
  8
0
  6
Continuous
 62
     7
370
    25
100
AcDbLine
 10
-117.7188897746
 20
54.9333290245
 30
0.0
 11
-117.4156644018
 21
53.8016765269
 31
0.0
  0
LINE
  5
1B1
330
1F
100
AcDbEntity
  8
0
  6
Continuous
 62
     7
370
    25
100
AcDbLine
 10
-107.6475160544
 20
73.5490328853
 30
0.0
 11
-117.5190889296
 21
56.4509671147
 31
0.0
  0
LINE
  5
1B2
330
1F
100
AcDbEntity
  8
0
  6
Continuous
 62
     7
370
    25
100
AcDbLine
 10
-105.3014508394
 20
74.7841099107
 30
0.0
 11
-106.433103337
 21
74.4808845379
 31
0.0
  0
LINE
  5
1B3
330
1F
100
AcDbEntity
  8
0
  6
Continuous
 62
     7
370
    25
100
AcDbLine
 10
-79.3865149747
 20
60.4985226281
 30
0.0
 11
-103.7838127492
 21
74.5843090657
 31
0.0
  0
LINE
  5
1B4
330
1F
100
AcDbEntity
  8
0
  6
Continuous
 62
     7
370
    25
100
AcDbLine
 10
-79.3865149747
 20
60.4985226281
 30
0.0
 11
-75.8865149747
 21
66.5607004546
 31
0.0
  0
LINE
  5
1B5
330
1F
100
AcDbEntity
  8
0
  6
Continuous
 62
     7
370
    25
100
AcDbLine
 10
-75.8865149747
 20
66.5607004546
 30
0.0
 11
-81.0025036794
 21
69.5144179104
 31
0.0
  0
LINE
  5
1B6
330
1F
100
AcDbEntity
  8
0
  6
Continuous
 62
     7
370
    25
100
AcDbLine
 10
-82.009316347
 20
71.4626072086
 30
0.0
 11
-82.0017248738
 21
71.1906599724
 31
0.0
  0
LINE
  5
1B7
330
1F
100
AcDbEntity
  8
0
  6
Continuous
 62
     7
370
    25
100
AcDbLine
 10
-63.2874226119
 20
2.3829685561
 30
0.0
 11
-76.2778036687
 21
9.8829685561
 31
0.0
  0
LINE
  5
1B8
330
1F
100
AcDbEntity
  8
0
  6
Continuous
 62
     7
370
    25
100
AcDbLine
 10
-77.2778036687
 20
8.1509177485
 30
0.0
 11
-64.2874226119
 21
0.6509177485
 31
0.0
  0
LINE
  5
1B9
330
1F
100
AcDbEntity
  8
0
  6
Continuous
 62
     7
370
    25
100
AcDbLine
 10
-35.2074226119
 20
51.0189552326
 30
0.0
 11
-48.1978036687
 21
58.5189552326
 31
0.0
  0
LINE
  5
1BA
330
1F
100
AcDbEntity
  8
0
  6
Continuous
 62
     7
370
    25
100
AcDbLine
 10
-49.1978036687
 20
56.786904425
 30
0.0
 11
-36.2074226119
 21
49.286904425
 31
0.0
  0
LINE
  5
1BB
330
1F
100
AcDbEntity
  8
0
  6
Continuous
 62
     7
370
    25
100
AcDbLine
 10
-32.7074226119
 20
55.3490822515
 30
0.0
 11
-45.6978036687
 21
62.8490822515
 31
0.0
  0
LINE
  5
1BC
330
1F
100
AcDbEntity
  8
0
  6
Continuous
 62
     7
370
    25
100
AcDbLine
 10
-46.6978036687
 20
61.1170314439
 30
0.0
 11
-33.7074226119
 21
53.6170314439
 31
0.0
  0
LINE
  5
1BD
330
1F
100
AcDbEntity
  8
0
  6
Continuous
 62
     7
370
    25
100
AcDbLine
 10
-60.7874226119
 20
6.713095575
 30
0.0
 11
-73.7778036687
 21
14.213095575
 31
0.0
  0
LINE
  5
1BE
330
1F
100
AcDbEntity
  8
0
  6
Continuous
 62
     7
370
    25
100
AcDbLine
 10
-74.7778036687
 20
12.4810447674
 30
0.0
 11
-61.7874226119
 21
4.9810447674
 31
0.0
  0
LINE
  5
1BF
330
1F
100
AcDbEntity
  8
0
  6
Continuous
 62
     7
370
    25
100
AcDbLine
 10
29.58
 20
-56.0
 30
0.0
 11
29.58
 21
-71.0
 31
0.0
  0
LINE
  5
1C0
330
1F
100
AcDbEntity
  8
0
  6
Continuous
 62
     7
370
    25
100
AcDbLine
 10
31.58
 20
-71.0
 30
0.0
 11
31.58
 21
-56.0
 31
0.0
  0
LINE
  5
1C1
330
1F
100
AcDbEntity
  8
0
  6
Continuous
 62
     7
370
    25
100
AcDbLine
 10
36.2074226119
 20
49.286904425
 30
0.0
 11
49.1978036687
 21
56.786904425
 31
0.0
  0
LINE
  5
1C2
330
1F
100
AcDbEntity
  8
0
  6
Continuous
 62
     7
370
    25
100
AcDbLine
 10
48.1978036687
 20
58.5189552326
 30
0.0
 11
35.2074226119
 21
51.0189552326
 31
0.0
  0
LINE
  5
1C3
330
1F
100
AcDbEntity
  8
0
  6
Continuous
 62
     7
370
    25
100
AcDbLine
 10
64.2874226119
 20
0.6509177485
 30
0.0
 11
77.2778036687
 21
8.1509177485
 31
0.0
  0
LINE
  5
1C4
330
1F
100
AcDbEntity
  8
0
  6
Continuous
 62
     7
370
    25
100
AcDbLine
 10
76.2778036687
 20
9.8829685561
 30
0.0
 11
63.2874226119
 21
2.3829685561
 31
0.0
  0
LINE
  5
1C5
330
1F
100
AcDbEntity
  8
0
  6
Continuous
 62
     7
370
    25
100
AcDbLine
 10
61.7874226119
 20
4.9810447674
 30
0.0
 11
74.7778036687
 21
12.4810447674
 31
0.0
  0
LINE
  5
1C6
330
1F
100
AcDbEntity
  8
0
  6
Continuous
 62
     7
370
    25
100
AcDbLine
 10
73.7778036687
 20
14.213095575
 30
0.0
 11
60.7874226119
 21
6.713095575
 31
0.0
  0
LINE
  5
1C7
330
1F
100
AcDbEntity
  8
0
  6
Continuous
 62
     7
370
    25
100
AcDbLine
 10
24.58
 20
-56.0
 30
0.0
 11
24.58
 21
-71.0
 31
0.0
  0
LINE
  5
1C8
330
1F
100
AcDbEntity
  8
0
  6
Continuous
 62
     7
370
    25
100
AcDbLine
 10
26.58
 20
-71.0
 30
0.0
 11
26.58
 21
-56.0
 31
0.0
  0
LINE
  5
1C9
330
1F
100
AcDbEntity
  8
0
  6
Continuous
 62
     7
370
    25
100
AcDbLine
 10
-31.58
 20
-56.0
 30
0.0
 11
-31.58
 21
-71.0
 31
0.0
  0
LINE
  5
1CA
330
1F
100
AcDbEntity
  8
0
  6
Continuous
 62
     7
370
    25
100
AcDbLine
 10
-29.58
 20
-71.0
 30
0.0
 11
-29.58
 21
-56.0
 31
0.0
  0
LINE
  5
1CB
330
1F
100
AcDbEntity
  8
0
  6
Continuous
 62
     7
370
    25
100
AcDbLine
 10
-26.58
 20
-56.0
 30
0.0
 11
-26.58
 21
-71.0
 31
0.0
  0
LINE
  5
1CC
330
1F
100
AcDbEntity
  8
0
  6
Continuous
 62
     7
370
    25
100
AcDbLine
 10
-24.58
 20
-71.0
 30
0.0
 11
-24.58
 21
-56.0
 31
0.0
  0
LINE
  5
1CD
330
1F
100
AcDbEntity
  8
0
  6
Continuous
 62
     7
370
    25
100
AcDbLine
 10
33.7074226119
 20
53.6170314439
 30
0.0
 11
46.6978036687
 21
61.1170314439
 31
0.0
  0
LINE
  5
1CE
330
1F
100
AcDbEntity
  8
0
  6
Continuous
 62
     7
370
    25
100
AcDbLine
 10
45.6978036687
 20
62.8490822515
 30
0.0
 11
32.7074226119
 21
55.3490822515
 31
0.0
  0
LINE
  5
1CF
330
1F
100
AcDbEntity
  8
0
  6
Continuous
 62
     7
370
    25
100
AcDbLine
 10
-1.0754243827
 20
-90.6712962963
 30
0.0
 11
-1.3271604938
 21
-90.2797067901
 31
0.0
  0
LINE
  5
1D0
330
1F
100
AcDbEntity
  8
0
  6
Continuous
 62
     7
370
    25
100
AcDbLine
 10
79.6778917546
 20
44.2636371826
 30
0.0
 11
79.0355306434
 21
45.3766773061
 31
0.0
  0
LINE
  5
1D1
330
1F
100
AcDbEntity
  8
0
  6
Continuous
 62
     7
370
    25
100
AcDbLine
 10
82.1094118163
 20
46.2138686641
 30
0.0
 11
82.0891571867
 21
46.2167621826
 31
0.0
  0
LINE
  5
1D2
330
1F
100
AcDbEntity
  8
0
  6
Continuous
 62
     7
370
    25
100
AcDbLine
 10
-81.694674162
 20
45.5706012807
 30
0.0
 11
-80.5199056435
 21
45.6805549844
 31
0.0
  0
LINE
  5
1D3
330
1F
100
AcDbEntity
  8
0
  6
Continuous
 62
     7
370
    25
100
AcDbLine
 10
53.9934650838
 20
-90.4805751979
 30
0.0
 11
105.3552092123
 21
-1.519424802
 31
0.0
  0
LINE
  5
1D4
330
1F
100
AcDbEntity
  8
0
  6
Continuous
 62
     7
370
    25
100
AcDbLine
 10
-105.3552092123
 20
-1.519424802
 30
0.0
 11
-53.9934650838
 21
-90.4805751979
 31
0.0
  0
LINE
  5
1D5
330
1F
100
AcDbEntity
  8
0
  6
Continuous
 62
     7
370
    25
100
AcDbLine
 10
51.3617441285
 20
91.9999999999
 30
0.0
 11
-51.3617441285
 21
91.9999999999
 31
0.0
  0
ARC
  5
1D6
330
1F
100
AcDbEntity
  8
0
  6
Continuous
 62
     7
370
    25
100
AcDbCircle
 10
80.0100951526
 20
71.5184159542
 30
0.0
 40
2.000000000000215
100
AcDbArc
 50
358.4009896503
 51
45.3216534187
  0
ARC
  5
1D7
330
1F
100
AcDbEntity
  8
0
  6
Continuous
 62
     7
370
    25
100
AcDbCircle
 10
80.0025036794
 20
71.246468718
 30
0.0
 40
1.999999999999962
100
AcDbArc
 50
300.0
 51
358.4009896503
  0
ARC
  5
1D8
330
1F
100
AcDbEntity
  8
0
  6
Continuous
 62
     7
370
    25
100
AcDbCircle
 10
104.7838127492
 20
72.8522582581
 30
0.0
 40
2.000000000000074
100
AcDbArc
 50
75.0
 51
120.0
  0
ARC
  5
1D9
330
1F
100
AcDbEntity
  8
0
  6
Continuous
 62
     7
370
    25
100
AcDbCircle
 10
105.9154652468
 20
72.5490328853
 30
0.0
 40
2.000000000000054
100
AcDbArc
 50
30.0
 51
75.0
  0
ARC
  5
1DA
330
1F
100
AcDbEntity
  8
0
  6
Continuous
 62
     7
370
    25
100
AcDbCircle
 10
115.787038122
 20
55.4509671147
 30
0.0
 40
1.999999999999803
100
AcDbArc
 50
345.0
 51
30.0
  0
ARC
  5
1DB
330
1F
100
AcDbEntity
  8
0
  6
Continuous
 62
     7
370
    25
100
AcDbCircle
 10
115.4838127492
 20
54.3193146171
 30
0.0
 40
2.000000000000163
100
AcDbArc
 50
300.0
 51
345.0
  0
ARC
  5
1DC
330
1F
100
AcDbEntity
  8
0
  6
Continuous
 62
     7
370
    25
100
AcDbCircle
 10
101.7025036794
 20
33.6609661937
 30
0.0
 40
1.999999999999937
100
AcDbArc
 50
61.5990103497
 51
120.0
  0
ARC
  5
1DD
330
1F
100
AcDbEntity
  8
0
  6
Continuous
 62
     7
370
    25
100
AcDbCircle
 10
101.941812631
 20
33.5315669843
 30
0.0
 40
2.000000000000193
100
AcDbArc
 50
14.6783465813
 51
61.5990103497
  0
ARC
  5
1DE
330
1F
100
AcDbEntity
  8
0
  6
Continuous
 62
     7
370
    25
100
AcDbCircle
 10
103.6231584047
 20
-0.519424802
 30
0.0
 40
2.000000000000276
100
AcDbArc
 50
330.0
 51
350.9752825681
  0
ARC
  5
1DF
330
1F
100
AcDbEntity
  8
0
  6
Continuous
 62
     7
370
    25
100
AcDbCircle
 10
52.2614142762
 20
-89.4805751979
 30
0.0
 40
1.999999999999625
100
AcDbArc
 50
309.0247174319
 51
330.0
  0
ARC
  5
1E0
330
1F
100
AcDbEntity
  8
0
  6
Continuous
 62
     7
370
    25
100
AcDbCircle
 10
21.9317174784
 20
-105.0499829385
 30
0.0
 40
2.000000000000139
100
AcDbArc
 50
238.4009896503
 51
285.3216534187
  0
ARC
  5
1E1
330
1F
100
AcDbEntity
  8
0
  6
Continuous
 62
     7
370
    25
100
AcDbCircle
 10
21.7
 20
-104.9074349117
 30
0.0
 40
1.999999999999986
100
AcDbArc
 50
180.0
 51
238.4009896503
  0
ARC
  5
1E2
330
1F
100
AcDbEntity
  8
0
  6
Continuous
 62
     7
370
    25
100
AcDbCircle
 10
10.7
 20
-127.1715728753
 30
0.0
 40
2.000000000000043
100
AcDbArc
 50
315.0
 51
0.0
  0
ARC
  5
1E3
330
1F
100
AcDbEntity
  8
0
  6
Continuous
 62
     7
370
    25
100
AcDbCircle
 10
9.8715728753
 20
-128.0
 30
0.0
 40
2.000000000000123
100
AcDbArc
 50
270.0
 51
315.0
  0
ARC
  5
1E4
330
1F
100
AcDbEntity
  8
0
  6
Continuous
 62
     7
370
    25
100
AcDbCircle
 10
-9.8715728753
 20
-128.0
 30
0.0
 40
1.999999999999747
100
AcDbArc
 50
225.0
 51
270.0
  0
ARC
  5
1E5
330
1F
100
AcDbEntity
  8
0
  6
Continuous
 62
     7
370
    25
100
AcDbCircle
 10
-10.7
 20
-127.1715728753
 30
0.0
 40
2.000000000000162
100
AcDbArc
 50
180.0
 51
225.0
  0
ARC
  5
1E6
330
1F
100
AcDbEntity
  8
0
  6
Continuous
 62
     7
370
    25
100
AcDbCircle
 10
-21.7
 20
-104.9074349117
 30
0.0
 40
1.999999999999948
100
AcDbArc
 50
301.5990103497
 51
0.0
  0
ARC
  5
1E7
330
1F
100
AcDbEntity
  8
0
  6
Continuous
 62
     7
370
    25
100
AcDbCircle
 10
-21.9317174784
 20
-105.0499829385
 30
0.0
 40
2.000000000000062
100
AcDbArc
 50
254.6783465813
 51
301.5990103497
  0
ARC
  5
1E8
330
1F
100
AcDbEntity
  8
0
  6
Continuous
 62
     7
370
    25
100
AcDbCircle
 10
-52.2614142762
 20
-89.4805751979
 30
0.0
 40
2.000000000000667
100
AcDbArc
 50
210.0
 51
230.9752825681
  0
ARC
  5
1E9
330
1F
100
AcDbEntity
  8
0
  6
Continuous
 62
     7
370
    25
100
AcDbCircle
 10
-103.6231584047
 20
-0.519424802
 30
0.0
 40
2.000000000000684
100
AcDbArc
 50
189.0247174319
 51
210.0
  0
ARC
  5
1EA
330
1F
100
AcDbEntity
  8
0
  6
Continuous
 62
     7
370
    25
100
AcDbCircle
 10
-101.941812631
 20
33.5315669843
 30
0.0
 40
2.000000000000199
100
AcDbArc
 50
118.4009896503
 51
165.3216534187
  0
ARC
  5
1EB
330
1F
100
AcDbEntity
  8
0
  6
Continuous
 62
     7
370
    25
100
AcDbCircle
 10
-101.7025036794
 20
33.6609661937
 30
0.0
 40
2.000000000000068
100
AcDbArc
 50
60.0
 51
118.4009896503
  0
ARC
  5
1EC
330
1F
100
AcDbEntity
  8
0
  6
Continuous
 62
     7
370
    25
100
AcDbCircle
 10
-115.4838127492
 20
54.3193146171
 30
0.0
 40
2.000000000000051
100
AcDbArc
 50
195.0
 51
240.0
  0
ARC
  5
1ED
330
1F
100
AcDbEntity
  8
0
  6
Continuous
 62
     7
370
    25
100
AcDbCircle
 10
-115.787038122
 20
55.4509671147
 30
0.0
 40
1.999999999999821
100
AcDbArc
 50
150.0
 51
195.0
  0
ARC
  5
1EE
330
1F
100
AcDbEntity
  8
0
  6
Continuous
 62
     7
370
    25
100
AcDbCircle
 10
-105.9154652468
 20
72.5490328853
 30
0.0
 40
2.000000000000079
100
AcDbArc
 50
105.0
 51
150.0
  0
ARC
  5
1EF
330
1F
100
AcDbEntity
  8
0
  6
Continuous
 62
     7
370
    25
100
AcDbCircle
 10
-104.7838127492
 20
72.8522582581
 30
0.0
 40
1.999999999999965
100
AcDbArc
 50
60.0
 51
105.0
  0
ARC
  5
1F0
330
1F
100
AcDbEntity
  8
0
  6
Continuous
 62
     7
370
    25
100
AcDbCircle
 10
-80.0025036794
 20
71.246468718
 30
0.0
 40
2.000000000000063
100
AcDbArc
 50
181.5990103497
 51
240.0
  0
ARC
  5
1F1
330
1F
100
AcDbEntity
  8
0
  6
Continuous
 62
     7
370
    25
100
AcDbCircle
 10
-80.0100951526
 20
71.5184159542
 30
0.0
 40
2.000000000000271
100
AcDbArc
 50
134.6783465813
 51
181.5990103497
  0
ARC
  5
1F2
330
1F
100
AcDbEntity
  8
0
  6
Continuous
 62
     7
370
    25
100
AcDbCircle
 10
-51.3617441285
 20
89.9999999999
 30
0.0
 40
1.999999999999758
100
AcDbArc
 50
90.0
 51
110.9752825681
  0
ARC
  5
1F3
330
1F
100
AcDbEntity
  8
0
  6
Continuous
 62
     7
370
    25
100
AcDbCircle
 10
51.3617441285
 20
89.9999999999
 30
0.0
 40
2.000000000000286
100
AcDbArc
 50
69.0247174319
 51
90.0
  0
ARC
  5
1F4
330
1F
100
AcDbEntity
  8
0
  6
Continuous
 62
     7
370
    25
100
AcDbCircle
 10
-76.7778036687
 20
9.0169431523
 30
0.0
 40
1.000000000000016
100
AcDbArc
 50
60.0
 51
240.0
  0
ARC
  5
1F5
330
1F
100
AcDbEntity
  8
0
  6
Continuous
 62
     7
370
    25
100
AcDbCircle
 10
-63.7874226119
 20
1.5169431523
 30
0.0
 40
1.000000000000002
100
AcDbArc
 50
240.0
 51
60.0
  0
ARC
  5
1F6
330
1F
100
AcDbEntity
  8
0
  6
Continuous
 62
     7
370
    25
100
AcDbCircle
 10
-48.6978036687
 20
57.6529298288
 30
0.0
 40
1.0
100
AcDbArc
 50
60.0
 51
240.0
  0
ARC
  5
1F7
330
1F
100
AcDbEntity
  8
0
  6
Continuous
 62
     7
370
    25
100
AcDbCircle
 10
-35.7074226119
 20
50.1529298288
 30
0.0
 40
1.000000000000008
100
AcDbArc
 50
240.0
 51
60.0
  0
ARC
  5
1F8
330
1F
100
AcDbEntity
  8
0
  6
Continuous
 62
     7
370
    25
100
AcDbCircle
 10
-46.1978036687
 20
61.9830568477
 30
0.0
 40
1.000000000000003
100
AcDbArc
 50
60.0
 51
240.0
  0
ARC
  5
1F9
330
1F
100
AcDbEntity
  8
0
  6
Continuous
 62
     7
370
    25
100
AcDbCircle
 10
-33.2074226119
 20
54.4830568477
 30
0.0
 40
1.000000000000003
100
AcDbArc
 50
240.0
 51
60.0
  0
ARC
  5
1FA
330
1F
100
AcDbEntity
  8
0
  6
Continuous
 62
     7
370
    25
100
AcDbCircle
 10
-74.2778036687
 20
13.3470701712
 30
0.0
 40
1.000000000000003
100
AcDbArc
 50
60.0
 51
240.0
  0
ARC
  5
1FB
330
1F
100
AcDbEntity
  8
0
  6
Continuous
 62
     7
370
    25
100
AcDbCircle
 10
-61.2874226119
 20
5.8470701712
 30
0.0
 40
1.000000000000003
100
AcDbArc
 50
240.0
 51
60.0
  0
ARC
  5
1FC
330
1F
100
AcDbEntity
  8
0
  6
Continuous
 62
     7
370
    25
100
AcDbCircle
 10
30.58
 20
-71.0
 30
0.0
 40
1.000000000000014
100
AcDbArc
 50
180.0
 51
0.0
  0
ARC
  5
1FD
330
1F
100
AcDbEntity
  8
0
  6
Continuous
 62
     7
370
    25
100
AcDbCircle
 10
30.58
 20
-56.0
 30
0.0
 40
1.0
100
AcDbArc
 50
0.0
 51
180.0
  0
ARC
  5
1FE
330
1F
100
AcDbEntity
  8
0
  6
Continuous
 62
     7
370
    25
100
AcDbCircle
 10
48.6978036687
 20
57.6529298288
 30
0.0
 40
0.9999999999999917
100
AcDbArc
 50
300.0
 51
120.0
  0
ARC
  5
1FF
330
1F
100
AcDbEntity
  8
0
  6
Continuous
 62
     7
370
    25
100
AcDbCircle
 10
35.7074226119
 20
50.1529298288
 30
0.0
 40
1.000000000000014
100
AcDbArc
 50
120.0
 51
300.0
  0
ARC
  5
200
330
1F
100
AcDbEntity
  8
0
  6
Continuous
 62
     7
370
    25
100
AcDbCircle
 10
76.7778036687
 20
9.0169431523
 30
0.0
 40
1.000000000000002
100
AcDbArc
 50
300.0
 51
120.0
  0
ARC
  5
201
330
1F
100
AcDbEntity
  8
0
  6
Continuous
 62
     7
370
    25
100
AcDbCircle
 10
63.7874226119
 20
1.5169431523
 30
0.0
 40
1.000000000000005
100
AcDbArc
 50
120.0
 51
300.0
  0
ARC
  5
202
330
1F
100
AcDbEntity
  8
0
  6
Continuous
 62
     7
370
    25
100
AcDbCircle
 10
74.2778036687
 20
13.3470701712
 30
0.0
 40
0.999999999999999
100
AcDbArc
 50
300.0
 51
120.0
  0
ARC
  5
203
330
1F
100
AcDbEntity
  8
0
  6
Continuous
 62
     7
370
    25
100
AcDbCircle
 10
61.2874226119
 20
5.8470701712
 30
0.0
 40
0.9999999999999996
100
AcDbArc
 50
120.0
 51
300.0
  0
ARC
  5
204
330
1F
100
AcDbEntity
  8
0
  6
Continuous
 62
     7
370
    25
100
AcDbCircle
 10
25.58
 20
-71.0
 30
0.0
 40
1.000000000000004
100
AcDbArc
 50
180.0
 51
0.0
  0
ARC
  5
205
330
1F
100
AcDbEntity
  8
0
  6
Continuous
 62
     7
370
    25
100
AcDbCircle
 10
25.58
 20
-56.0
 30
0.0
 40
0.9999999999999964
100
AcDbArc
 50
0.0
 51
180.0
  0
ARC
  5
206
330
1F
100
AcDbEntity
  8
0
  6
Continuous
 62
     7
370
    25
100
AcDbCircle
 10
-30.58
 20
-71.0
 30
0.0
 40
1.000000000000004
100
AcDbArc
 50
180.0
 51
0.0
  0
ARC
  5
207
330
1F
100
AcDbEntity
  8
0
  6
Continuous
 62
     7
370
    25
100
AcDbCircle
 10
-30.58
 20
-56.0
 30
0.0
 40
1.000000000000004
100
AcDbArc
 50
0.0
 51
180.0
  0
ARC
  5
208
330
1F
100
AcDbEntity
  8
0
  6
Continuous
 62
     7
370
    25
100
AcDbCircle
 10
-25.58
 20
-71.0
 30
0.0
 40
0.9999999999999964
100
AcDbArc
 50
180.0
 51
0.0
  0
ARC
  5
209
330
1F
100
AcDbEntity
  8
0
  6
Continuous
 62
     7
370
    25
100
AcDbCircle
 10
-25.58
 20
-56.0
 30
0.0
 40
1.000000000000004
100
AcDbArc
 50
0.0
 51
180.0
  0
ARC
  5
20A
330
1F
100
AcDbEntity
  8
0
  6
Continuous
 62
     7
370
    25
100
AcDbCircle
 10
46.1978036687
 20
61.9830568477
 30
0.0
 40
1.000000000000008
100
AcDbArc
 50
300.0
 51
120.0
  0
ARC
  5
20B
330
1F
100
AcDbEntity
  8
0
  6
Continuous
 62
     7
370
    25
100
AcDbCircle
 10
33.2074226119
 20
54.4830568477
 30
0.0
 40
1.000000000000009
100
AcDbArc
 50
120.0
 51
300.0
  0
ARC
  5
20C
330
1F
100
AcDbEntity
  8
0
  6
Continuous
 62
     7
370
    25
100
AcDbCircle
 10
21.6506350946
 20
12.5
 30
0.0
 40
84.99999999999822
100
AcDbArc
 50
45.3216534187
 51
69.0247174319
  0
ARC
  5
20D
330
1F
100
AcDbEntity
  8
0
  6
Continuous
 62
     7
370
    25
100
AcDbCircle
 10
0.0
 20
-25.0
 30
0.0
 40
85.00000000000043
100
AcDbArc
 50
285.3216534187
 51
309.0247174319
  0
ARC
  5
20E
330
1F
100
AcDbEntity
  8
0
  6
Continuous
 62
     7
370
    25
100
AcDbCircle
 10
-21.6506350946
 20
12.5
 30
0.0
 40
85.0000000000003
100
AcDbArc
 50
165.3216534187
 51
189.0247174319
  0
ARC
  5
20F
330
1F
100
AcDbEntity
  8
0
  6
Continuous
 62
     7
370
    25
100
AcDbCircle
 10
-21.6506350946
 20
12.5
 30
0.0
 40
85.00000000000001
100
AcDbArc
 50
110.9752825681
 51
134.6783465813
  0
ARC
  5
210
330
1F
100
AcDbEntity
  8
0
  6
Continuous
 62
     7
370
    25
100
AcDbCircle
 10
0.0
 20
-25.0
 30
0.0
 40
84.99999999999932
100
AcDbArc
 50
230.9752825681
 51
254.6783465813
  0
ARC
  5
211
330
1F
100
AcDbEntity
  8
0
  6
Continuous
 62
     7
370
    25
100
AcDbCircle
 10
21.6506350946
 20
12.5
 30
0.0
 40
85.00000000000115
100
AcDbArc
 50
350.9752825681
 51
14.6783465813
  0
ENDSEC
  0
SECTION
  2
OBJECTS
  0
DICTIONARY
  5
C
330
0
100
AcDbDictionary
281
     1
  3
ACAD_GROUP
350
D
  3
ACAD_LAYOUT
350
1A
  3
ACAD_MLINESTYLE
350
17
  3
ACAD_PLOTSETTINGS
350
19
  3
ACAD_PLOTSTYLENAME
350
E
  3
ACAD_SCALELIST
350
47
  0
DICTIONARY
  5
D
102
{ACAD_REACTORS
330
C
102
}
330
C
100
AcDbDictionary
281
     1
  0
DICTIONARY
  5
1A
102
{ACAD_REACTORS
330
C
102
}
330
C
100
AcDbDictionary
281
     1
  3
Layout1
350
1E
  3
Layout2
350
26
  3
Model
350
22
  0
DICTIONARY
  5
17
102
{ACAD_REACTORS
330
C
102
}
330
C
100
AcDbDictionary
281
     1
  3
Standard
350
18
  0
DICTIONARY
  5
19
102
{ACAD_REACTORS
330
C
102
}
330
C
100
AcDbDictionary
281
     1
  0
ACDBDICTIONARYWDFLT
  5
E
102
{ACAD_REACTORS
330
C
102
}
330
C
100
AcDbDictionary
281
     1
  3
Normal
350
F
100
AcDbDictionaryWithDefault
340
F
  0
DICTIONARY
  5
47
102
{ACAD_REACTORS
330
C
102
}
330
C
100
AcDbDictionary
281
     1
  3
A0
350
48
  3
A1
350
49
  3
A2
350
4A
  3
A3
350
4B
  3
A4
350
4C
  3
A5
350
4D
  3
A6
350
4E
  3
A7
350
4F
  3
A8
350
50
  3
A9
350
51
  3
B0
350
52
  3
B1
350
53
  3
B2
350
54
  3
B3
350
55
  3
B4
350
56
  3
B5
350
57
  3
B6
350
58
  3
B7
350
59
  3
B8
350
5A
  3
B9
350
5B
  3
C0
350
5C
  3
C1
350
5D
  3
C2
350
5E
  3
C3
350
5F
  3
C4
350
60
  3
C5
350
61
  3
C6
350
62
  3
C7
350
63
  3
C8
350
64
  3
C9
350
65
  3
D0
350
66
  3
D1
350
67
  3
D2
350
68
  0
LAYOUT
  5
1E
102
{ACAD_REACTORS
330
1A
102
}
330
1A
100
AcDbPlotSettings
  1

  2
none_device
  4

  6

 40
0.0
 41
0.0
 42
0.0
 43
0.0
 44
0.0
 45
0.0
 46
0.0
 47
0.0
 48
0.0
 49
0.0
140
0.0
141
0.0
142
1.0
143
1.0
 70
   688
 72
     1
 73
     0
 74
     5
  7

 75
    16
147
1.0
148
0.0
149
0.0
100
AcDbLayout
  1
Layout1
 70
     1
 71
     1
 10
0.0
 20
0.0
 11
420.0
 21
297.0
 12
0.0
 22
0.0
 32
0.0
 14
1.0000000000E+20
 24
1.0000000000E+20
 34
1.0000000000E+20
 15
-1.0000000000E+20
 25
-1.0000000000E+20
 35
-1.0000000000E+20
146
0.0
 13
0.0
 23
0.0
 33
0.0
 16
1.0
 26
0.0
 36
0.0
 17
0.0
 27
1.0
 37
0.0
 76
     0
330
1B
  0
LAYOUT
  5
26
102
{ACAD_REACTORS
330
1A
102
}
330
1A
100
AcDbPlotSettings
  1

  2
none_device
  4

  6

 40
0.0
 41
0.0
 42
0.0
 43
0.0
 44
0.0
 45
0.0
 46
0.0
 47
0.0
 48
0.0
 49
0.0
140
0.0
141
0.0
142
1.0
143
1.0
 70
   688
 72
     1
 73
     0
 74
     5
  7

 75
    16
147
1.0
148
0.0
149
0.0
100
AcDbLayout
  1
Layout2
 70
     1
 71
     2
 10
0.0
 20
0.0
 11
0.0
 21
0.0
 12
0.0
 22
0.0
 32
0.0
 14
0.0
 24
0.0
 34
0.0
 15
0.0
 25
0.0
 35
0.0
146
0.0
 13
0.0
 23
0.0
 33
0.0
 16
1.0
 26
0.0
 36
0.0
 17
0.0
 27
1.0
 37
0.0
 76
     0
330
23
  0
LAYOUT
  5
22
102
{ACAD_REACTORS
330
1A
102
}
330
1A
100
AcDbPlotSettings
  1

  2
none_device
  4
ANSI_A_(11.00_x_8.50_Inches)
  6

 40
6.35
 41
19.05
 42
6.35000508
 43
19.05000254
 44
279.4
 45
215.9
 46
133.34999746
 47
107.1931473787
 48
0.0
 49
0.0
140
0.0
141
0.0
142
0.0379054054
143
1.0
 70
  1696
 72
     0
 73
     0
 74
     0
  7

 75
     0
147
0.0179189148
148
-1300.4909072572
149
0.0
100
AcDbLayout
  1
Model
 70
     1
 71
     0
 10
0.0
 20
0.0
 11
420.0
 21
297.0
 12
0.0
 22
0.0
 32
0.0
 14
-117.787038122
 24
-130.0
 34
0.0
 15
117.787038122
 25
91.9999999999
 35
0.0
146
0.0
 13
0.0
 23
0.0
 33
0.0
 16
1.0
 26
0.0
 36
0.0
 17
0.0
 27
1.0
 37
0.0
 76
     0
330
1F
331
29
  0
MLINESTYLE
  5
18
102
{ACAD_REACTORS
330
17
102
}
330
17
100
AcDbMlineStyle
  2
Standard
 70
     0
  3

 62
   256
 51
90.0
 52
90.0
 71
     2
 49
0.5
 62
   256
  6
BYLAYER
 49
-0.5
 62
   256
  6
BYLAYER
  0
ACDBPLACEHOLDER
  5
F
102
{ACAD_REACTORS
330
E
102
}
330
E
  0
SCALE
  5
48
102
{ACAD_REACTORS
330
47
102
}
330
47
100
AcDbScale
 70
     0
300
1:1
140
1.0
141
1.0
290
     1
  0
SCALE
  5
49
102
{ACAD_REACTORS
330
47
102
}
330
47
100
AcDbScale
 70
     0
300
1:2
140
1.0
141
2.0
290
     0
  0
SCALE
  5
4A
102
{ACAD_REACTORS
330
47
102
}
330
47
100
AcDbScale
 70
     0
300
1:4
140
1.0
141
4.0
290
     0
  0
SCALE
  5
4B
102
{ACAD_REACTORS
330
47
102
}
330
47
100
AcDbScale
 70
     0
300
1:5
140
1.0
141
5.0
290
     0
  0
SCALE
  5
4C
102
{ACAD_REACTORS
330
47
102
}
330
47
100
AcDbScale
 70
     0
300
1:8
140
1.0
141
8.0
290
     0
  0
SCALE
  5
4D
102
{ACAD_REACTORS
330
47
102
}
330
47
100
AcDbScale
 70
     0
300
1:10
140
1.0
141
10.0
290
     0
  0
SCALE
  5
4E
102
{ACAD_REACTORS
330
47
102
}
330
47
100
AcDbScale
 70
     0
300
1:16
140
1.0
141
16.0
290
     0
  0
SCALE
  5
4F
102
{ACAD_REACTORS
330
47
102
}
330
47
100
AcDbScale
 70
     0
300
1:20
140
1.0
141
20.0
290
     0
  0
SCALE
  5
50
102
{ACAD_REACTORS
330
47
102
}
330
47
100
AcDbScale
 70
     0
300
1:30
140
1.0
141
30.0
290
     0
  0
SCALE
  5
51
102
{ACAD_REACTORS
330
47
102
}
330
47
100
AcDbScale
 70
     0
300
1:40
140
1.0
141
40.0
290
     0
  0
SCALE
  5
52
102
{ACAD_REACTORS
330
47
102
}
330
47
100
AcDbScale
 70
     0
300
1:50
140
1.0
141
50.0
290
     0
  0
SCALE
  5
53
102
{ACAD_REACTORS
330
47
102
}
330
47
100
AcDbScale
 70
     0
300
1:100
140
1.0
141
100.0
290
     0
  0
SCALE
  5
54
102
{ACAD_REACTORS
330
47
102
}
330
47
100
AcDbScale
 70
     0
300
2:1
140
2.0
141
1.0
290
     0
  0
SCALE
  5
55
102
{ACAD_REACTORS
330
47
102
}
330
47
100
AcDbScale
 70
     0
300
4:1
140
4.0
141
1.0
290
     0
  0
SCALE
  5
56
102
{ACAD_REACTORS
330
47
102
}
330
47
100
AcDbScale
 70
     0
300
8:1
140
8.0
141
1.0
290
     0
  0
SCALE
  5
57
102
{ACAD_REACTORS
330
47
102
}
330
47
100
AcDbScale
 70
     0
300
10:1
140
10.0
141
1.0
290
     0
  0
SCALE
  5
58
102
{ACAD_REACTORS
330
47
102
}
330
47
100
AcDbScale
 70
     0
300
100:1
140
100.0
141
1.0
290
     0
  0
SCALE
  5
59
102
{ACAD_REACTORS
330
47
102
}
330
47
100
AcDbScale
 70
     0
300
1/128" = 1'-0"
140
0.0078125
141
12.0
290
     0
  0
SCALE
  5
5A
102
{ACAD_REACTORS
330
47
102
}
330
47
100
AcDbScale
 70
     0
300
1/64" = 1'-0"
140
0.015625
141
12.0
290
     0
  0
SCALE
  5
5B
102
{ACAD_REACTORS
330
47
102
}
330
47
100
AcDbScale
 70
     0
300
1/32" = 1'-0"
140
0.03125
141
12.0
290
     0
  0
SCALE
  5
5C
102
{ACAD_REACTORS
330
47
102
}
330
47
100
AcDbScale
 70
     0
300
1/16" = 1'-0"
140
0.0625
141
12.0
290
     0
  0
SCALE
  5
5D
102
{ACAD_REACTORS
330
47
102
}
330
47
100
AcDbScale
 70
     0
300
3/32" = 1'-0"
140
0.09375
141
12.0
290
     0
  0
SCALE
  5
5E
102
{ACAD_REACTORS
330
47
102
}
330
47
100
AcDbScale
 70
     0
300
1/8" = 1'-0"
140
0.125
141
12.0
290
     0
  0
SCALE
  5
5F
102
{ACAD_REACTORS
330
47
102
}
330
47
100
AcDbScale
 70
     0
300
3/16" = 1'-0"
140
0.1875
141
12.0
290
     0
  0
SCALE
  5
60
102
{ACAD_REACTORS
330
47
102
}
330
47
100
AcDbScale
 70
     0
300
1/4" = 1'-0"
140
0.25
141
12.0
290
     0
  0
SCALE
  5
61
102
{ACAD_REACTORS
330
47
102
}
330
47
100
AcDbScale
 70
     0
300
3/8" = 1'-0"
140
0.375
141
12.0
290
     0
  0
SCALE
  5
62
102
{ACAD_REACTORS
330
47
102
}
330
47
100
AcDbScale
 70
     0
300
1/2" = 1'-0"
140
0.5
141
12.0
290
     0
  0
SCALE
  5
63
102
{ACAD_REACTORS
330
47
102
}
330
47
100
AcDbScale
 70
     0
300
3/4" = 1'-0"
140
0.75
141
12.0
290
     0
  0
SCALE
  5
64
102
{ACAD_REACTORS
330
47
102
}
330
47
100
AcDbScale
 70
     0
300
1" = 1'-0"
140
1.0
141
12.0
290
     0
  0
SCALE
  5
65
102
{ACAD_REACTORS
330
47
102
}
330
47
100
AcDbScale
 70
     0
300
1-1/2" = 1'-0"
140
1.5
141
12.0
290
     0
  0
SCALE
  5
66
102
{ACAD_REACTORS
330
47
102
}
330
47
100
AcDbScale
 70
     0
300
3" = 1'-0"
140
3.0
141
12.0
290
     0
  0
SCALE
  5
67
102
{ACAD_REACTORS
330
47
102
}
330
47
100
AcDbScale
 70
     0
300
6" = 1'-0"
140
6.0
141
12.0
290
     0
  0
SCALE
  5
68
102
{ACAD_REACTORS
330
47
102
}
330
47
100
AcDbScale
 70
     0
300
1'-0" = 1'-0"
140
12.0
141
12.0
290
     0
  0
ENDSEC
  0
EOF
