  0
SECTION
  2
HEADER
  9
$ACADVER
  1
AC1015
  9
$ACADMAINTVER
 70
     6
  9
$DWGCODEPAGE
  3
ANSI_1252
  9
$INSBASE
 10
0.0
 20
0.0
 30
0.0
  9
$EXTMIN
 10
-106.6506350946
 20
-110.0
 30
0.0
  9
$EXTMAX
 10
106.6506350946
 20
92.0
 30
0.0
  9
$LIMMIN
 10
0.0
 20
0.0
  9
$LIMMAX
 10
420.0
 20
297.0
  9
$ORTHOMODE
 70
     0
  9
$REGENMODE
 70
     1
  9
$FILLMODE
 70
     1
  9
$QTEXTMODE
 70
     0
  9
$MIRRTEXT
 70
     1
  9
$LTSCALE
 40
1.0
  9
$ATTMODE
 70
     1
  9
$TEXTSIZE
 40
3.5
  9
$TRACEWID
 40
1.0
  9
$TEXTSTYLE
  7
Standard
  9
$CLAYER
  8
0
  9
$CELTYPE
  6
ByLayer
  9
$CECOLOR
 62
   256
  9
$CELTSCALE
 40
1.0
  9
$DISPSILH
 70
     0
  9
$DIMSCALE
 40
1.0
  9
$DIMASZ
 40
3.302
  9
$DIMEXO
 40
1.0
  9
$DIMDLI
 40
3.75
  9
$DIMRND
 40
0.0
  9
$DIMDLE
 40
0.0
  9
$DIMEXE
 40
1.0
  9
$DIMTP
 40
0.0
  9
$DIMTM
 40
0.0
  9
$DIMTXT
 40
3.5
  9
$DIMCEN
 40
2.5
  9
$DIMTSZ
 40
0.0
  9
$DIMTOL
 70
     0
  9
$DIMLIM
 70
     0
  9
$DIMTIH
 70
     1
  9
$DIMTOH
 70
     1
  9
$DIMSE1
 70
     0
  9
$DIMSE2
 70
     0
  9
$DIMTAD
 70
     1
  9
$DIMZIN
 70
     0
  9
$DIMBLK
  1

  9
$DIMASO
 70
     1
  9
$DIMSHO
 70
     1
  9
$DIMPOST
  1

  9
$DIMAPOST
  1

  9
$DIMALT
 70
     0
  9
$DIMALTD
 70
     3
  9
$DIMALTF
 40
0.0393700787
  9
$DIMLFAC
 40
1.0
  9
$DIMTOFL
 70
     1
  9
$DIMTVP
 40
0.0
  9
$DIMTIX
 70
     0
  9
$DIMSOXD
 70
     0
  9
$DIMSAH
 70
     0
  9
$DIMBLK1
  1

  9
$DIMBLK2
  1

  9
$DIMSTYLE
  2
ISO-25
  9
$DIMCLRD
 70
     0
  9
$DIMCLRE
 70
     0
  9
$DIMCLRT
 70
     0
  9
$DIMTFAC
 40
1.0
  9
$DIMGAP
 40
1.524
  9
$DIMJUST
 70
     0
  9
$DIMSD1
 70
     0
  9
$DIMSD2
 70
     0
  9
$DIMTOLJ
 70
     0
  9
$DIMTZIN
 70
     0
  9
$DIMALTZ
 70
     0
  9
$DIMALTTZ
 70
     0
  9
$DIMUPT
 70
     0
  9
$DIMDEC
 70
     2
  9
$DIMTDEC
 70
     2
  9
$DIMALTU
 70
     2
  9
$DIMALTTD
 70
     3
  9
$DIMTXSTY
  7
Standard
  9
$DIMAUNIT
 70
     0
  9
$DIMADEC
 70
     2
  9
$DIMALTRND
 40
0.0
  9
$DIMAZIN
 70
     0
  9
$DIMDSEP
 70
    44
  9
$DIMATFIT
 70
     3
  9
$DIMFRAC
 70
     0
  9
$DIMLDRBLK
  1

  9
$DIMLUNIT
 70
     2
  9
$DIMLWD
 70
    -2
  9
$DIMLWE
 70
    -2
  9
$DIMTMOVE
 70
     0
  9
$LUNITS
 70
     2
  9
$LUPREC
 70
     2
  9
$SKETCHINC
 40
1.0
  9
$FILLETRAD
 40
10.0
  9
$AUNITS
 70
     0
  9
$AUPREC
 70
     2
  9
$MENU
  1
.
  9
$ELEVATION
 40
0.0
  9
$PELEVATION
 40
0.0
  9
$THICKNESS
 40
0.0
  9
$LIMCHECK
 70
     0
  9
$CHAMFERA
 40
0.0
  9
$CHAMFERB
 40
0.0
  9
$CHAMFERC
 40
0.0
  9
$CHAMFERD
 40
0.0
  9
$SKPOLY
 70
     0
  9
$TDCREATE
 40
2457743.691255555
  9
$TDUCREATE
 40
2457743.899588889
  9
$TDUPDATE
 40
2457743.691321227
  9
$TDUUPDATE
 40
2457743.89965456
  9
$TDINDWG
 40
0.0000000116
  9
$TDUSRTIMER
 40
0.0000000116
  9
$USRTIMER
 70
     1
  9
$ANGBASE
 50
0.0
  9
$ANGDIR
 70
     0
  9
$PDMODE
 70
     0
  9
$PDSIZE
 40
-1.0
  9
$PLINEWID
 40
0.0
  9
$SPLFRAME
 70
     0
  9
$SPLINETYPE
 70
     6
  9
$SPLINESEGS
 70
     8
  9
$HANDSEED
  5
135
  9
$SURFTAB1
 70
     6
  9
$SURFTAB2
 70
     6
  9
$SURFTYPE
 70
     6
  9
$SURFU
 70
     6
  9
$SURFV
 70
     6
  9
$UCSBASE
  2

  9
$UCSNAME
  2

  9
$UCSORG
 10
0.0
 20
0.0
 30
0.0
  9
$UCSXDIR
 10
1.0
 20
0.0
 30
0.0
  9
$UCSYDIR
 10
0.0
 20
1.0
 30
0.0
  9
$UCSORTHOREF
  2

  9
$UCSORTHOVIEW
 70
     0
  9
$UCSORGTOP
 10
0.0
 20
0.0
 30
0.0
  9
$UCSORGBOTTOM
 10
0.0
 20
0.0
 30
0.0
  9
$UCSORGLEFT
 10
0.0
 20
0.0
 30
0.0
  9
$UCSORGRIGHT
 10
0.0
 20
0.0
 30
0.0
  9
$UCSORGFRONT
 10
0.0
 20
0.0
 30
0.0
  9
$UCSORGBACK
 10
0.0
 20
0.0
 30
0.0
  9
$PUCSBASE
  2

  9
$PUCSNAME
  2

  9
$PUCSORG
 10
0.0
 20
0.0
 30
0.0
  9
$PUCSXDIR
 10
1.0
 20
0.0
 30
0.0
  9
$PUCSYDIR
 10
0.0
 20
1.0
 30
0.0
  9
$PUCSORTHOREF
  2

  9
$PUCSORTHOVIEW
 70
     0
  9
$PUCSORGTOP
 10
0.0
 20
0.0
 30
0.0
  9
$PUCSORGBOTTOM
 10
0.0
 20
0.0
 30
0.0
  9
$PUCSORGLEFT
 10
0.0
 20
0.0
 30
0.0
  9
$PUCSORGRIGHT
 10
0.0
 20
0.0
 30
0.0
  9
$PUCSORGFRONT
 10
0.0
 20
0.0
 30
0.0
  9
$PUCSORGBACK
 10
0.0
 20
0.0
 30
0.0
  9
$USERI1
 70
     0
  9
$USERI2
 70
     0
  9
$USERI3
 70
     0
  9
$USERI4
 70
     0
  9
$USERI5
 70
     0
  9
$USERR1
 40
0.0
  9
$USERR2
 40
0.0
  9
$USERR3
 40
0.0
  9
$USERR4
 40
0.0
  9
$USERR5
 40
0.0
  9
$WORLDVIEW
 70
     1
  9
$SHADEDGE
 70
     3
  9
$SHADEDIF
 70
    70
  9
$TILEMODE
 70
     1
  9
$MAXACTVP
 70
    64
  9
$PINSBASE
 10
0.0
 20
0.0
 30
0.0
  9
$PLIMCHECK
 70
     0
  9
$PEXTMIN
 10
1.0000000000E+20
 20
1.0000000000E+20
 30
1.0000000000E+20
  9
$PEXTMAX
 10
-1.0000000000E+20
 20
-1.0000000000E+20
 30
-1.0000000000E+20
  9
$PLIMMIN
 10
0.0
 20
0.0
  9
$PLIMMAX
 10
420.0
 20
297.0
  9
$UNITMODE
 70
     0
  9
$VISRETAIN
 70
     1
  9
$PLINEGEN
 70
     0
  9
$PSLTSCALE
 70
     1
  9
$TREEDEPTH
 70
  3020
  9
$CMLSTYLE
  2
Standard
  9
$CMLJUST
 70
     0
  9
$CMLSCALE
 40
20.0
  9
$PROXYGRAPHICS
 70
     1
  9
$MEASUREMENT
 70
     1
  9
$CELWEIGHT
370
    -1
  9
$ENDCAPS
280
     0
  9
$JOINSTYLE
280
     0
  9
$LWDISPLAY
290
     1
  9
$INSUNITS
 70
     4
  9
$HYPERLINKBASE
  1

  9
$STYLESHEET
  1

  9
$XEDIT
290
     1
  9
$CEPSNTYPE
380
     0
  9
$PSTYLEMODE
290
     1
  9
$FINGERPRINTGUID
  2
{857DABD5-C2B8-49C2-8FBC-8DB2D4436525}
  9
$VERSIONGUID
  2
{FAEB1C32-E019-11D5-929B-00C0DF256EC4}
  9
$EXTNAMES
290
     1
  9
$PSVPSCALE
 40
0.0
  9
$OLESTARTUP
290
     0
  0
ENDSEC
  0
SECTION
  2
CLASSES
  0
CLASS
  1
ACDBDICTIONARYWDFLT
  2
AcDbDictionaryWithDefault
  3
ObjectDBX Classes
 90
        0
280
     0
281
     0
  0
CLASS
  1
VISUALSTYLE
  2
AcDbVisualStyle
  3
ObjectDBX Classes
 90
     4095
280
     0
281
     0
  0
CLASS
  1
MATERIAL
  2
AcDbMaterial
  3
ObjectDBX Classes
 90
     1153
280
     0
281
     0
  0
CLASS
  1
SCALE
  2
AcDbScale
  3
ObjectDBX Classes
 90
     1153
280
     0
281
     0
  0
CLASS
  1
TABLESTYLE
  2
AcDbTableStyle
  3
ObjectDBX Classes
 90
     4095
280
     0
281
     0
  0
CLASS
  1
MLEADERSTYLE
  2
AcDbMLeaderStyle
  3
ACDB_MLEADERSTYLE_CLASS
 90
     4095
280
     0
281
     0
  0
CLASS
  1
SUN
  2
AcDbSun
  3
SCENEOE
 90
     1153
280
     0
281
     0
  0
CLASS
  1
ACDBPLACEHOLDER
  2
AcDbPlaceHolder
  3
ObjectDBX Classes
 90
        0
280
     0
281
     0
  0
CLASS
  1
LAYOUT
  2
AcDbLayout
  3
ObjectDBX Classes
 90
        0
280
     0
281
     0
  0
ENDSEC
  0
SECTION
  2
TABLES
  0
TABLE
  2
VPORT
  5
8
330
0
100
AcDbSymbolTable
 70
     1
  0
VPORT
  5
29
330
8
100
AcDbSymbolTableRecord
100
AcDbViewportTableRecord
  2
*Active
 70
     0
 10
0.0
 20
0.0
 11
1.0
 21
1.0
 12
0.0
 22
-9.0
 13
0.0
 23
0.0
 14
10.0
 24
10.0
 15
10.0
 25
10.0
 16
0.0
 26
0.0
 36
1.0
 17
0.0
 27
0.0
 37
0.0
 40
206.04
 41
1.0559468821
 42
50.0
 43
0.0
 44
0.0
 50
0.0
 51
0.0
 71
     0
 72
   100
 73
     1
 74
     3
 75
     0
 76
     0
 77
     0
 78
     0
281
     0
 65
     1
110
0.0
120
0.0
130
0.0
111
1.0
121
0.0
131
0.0
112
0.0
122
1.0
132
0.0
 79
     0
146
0.0
  0
ENDTAB
  0
TABLE
  2
LTYPE
  5
5
330
0
100
AcDbSymbolTable
 70
     6
  0
LTYPE
  5
14
330
5
100
AcDbSymbolTableRecord
100
AcDbLinetypeTableRecord
  2
ByBlock
 70
     0
  3

 72
    65
 73
     0
 40
0.0
  0
LTYPE
  5
15
330
5
100
AcDbSymbolTableRecord
100
AcDbLinetypeTableRecord
  2
ByLayer
 70
     0
  3

 72
    65
 73
     0
 40
0.0
  0
LTYPE
  5
16
330
5
100
AcDbSymbolTableRecord
100
AcDbLinetypeTableRecord
  2
Continuous
 70
     0
  3
Solid line
 72
    65
 73
     0
 40
0.0
  0
LTYPE
  5
6E
330
5
100
AcDbSymbolTableRecord
100
AcDbLinetypeTableRecord
  2
HIDDEN
 70
     0
  3
Hidden __ __ __ __ __ __ __ __ __ __ __ __ __ __
 72
    65
 73
     2
 40
1.905
 49
1.27
 74
     0
 49
-0.635
 74
     0
  0
LTYPE
  5
6F
330
5
100
AcDbSymbolTableRecord
100
AcDbLinetypeTableRecord
  2
PHANTOM
 70
     0
  3
Phantom ______  __  __  ______  __  __  ______
 72
    65
 73
     6
 40
12.7
 49
6.35
 74
     0
 49
-1.27
 74
     0
 49
1.27
 74
     0
 49
-1.27
 74
     0
 49
1.27
 74
     0
 49
-1.27
 74
     0
  0
LTYPE
  5
70
330
5
100
AcDbSymbolTableRecord
100
AcDbLinetypeTableRecord
  2
CENTER
 70
     0
  3
Center ____ _ ____ _ ____ _ ____ _ ____ _ ____
 72
    65
 73
     4
 40
10.16
 49
6.35
 74
     0
 49
-1.27
 74
     0
 49
1.27
 74
     0
 49
-1.27
 74
     0
  0
LTYPE
  5
71
330
5
100
AcDbSymbolTableRecord
100
AcDbLinetypeTableRecord
  2
CENTERX2
 70
     0
  3
Center (2x) ________  __  ________  __  _____
 72
    65
 73
     4
 40
20.32
 49
12.7
 74
     0
 49
-2.54
 74
     0
 49
2.54
 74
     0
 49
-2.54
 74
     0
  0
LTYPE
  5
72
330
5
100
AcDbSymbolTableRecord
100
AcDbLinetypeTableRecord
  2
DOT2
 70
     0
  3
Dot (.5x) ........................................
 72
    65
 73
     2
 40
0.635
 49
0.0
 74
     0
 49
-0.635
 74
     0
  0
ENDTAB
  0
TABLE
  2
LAYER
  5
2
330
0
100
AcDbSymbolTable
 70
     1
  0
LAYER
  5
10
330
2
100
AcDbSymbolTableRecord
100
AcDbLayerTableRecord
  2
0
 70
     0
 62
     7
  6
Continuous
370
    -3
390
F
  0
ENDTAB
  0
TABLE
  2
STYLE
  5
3
330
0
100
AcDbSymbolTable
 70
     1
  0
STYLE
  5
11
330
3
100
AcDbSymbolTableRecord
100
AcDbTextStyleTableRecord
  2
Standard
 70
     0
 40
0.0
 41
1.0
 50
0.0
 71
     0
 42
3.5
  3
txt
  4

  0
ENDTAB
  0
TABLE
  2
VIEW
  5
6
330
0
100
AcDbSymbolTable
 70
     0
  0
ENDTAB
  0
TABLE
  2
UCS
  5
7
330
0
100
AcDbSymbolTable
 70
     0
  0
ENDTAB
  0
TABLE
  2
APPID
  5
9
330
0
100
AcDbSymbolTable
 70
     1
  0
APPID
  5
12
330
9
100
AcDbSymbolTableRecord
100
AcDbRegAppTableRecord
  2
ACAD
 70
     0
  0
ENDTAB
  0
TABLE
  2
DIMSTYLE
  5
A
330
0
100
AcDbSymbolTable
 70
     1
100
AcDbDimStyleTable
  0
DIMSTYLE
105
27
330
A
100
AcDbSymbolTableRecord
100
AcDbDimStyleTableRecord
  2
ISO-25
 70
     0
 41
2.5
 42
0.625
 43
3.75
 44
1.25
 73
     0
 74
     0
 77
     1
 78
     8
140
2.5
141
2.5
143
0.0393700787
147
0.625
171
     3
172
     1
178
     0
271
     2
272
     2
274
     3
278
    44
283
     0
284
     8
340
11
  0
ENDTAB
  0
TABLE
  2
BLOCK_RECORD
  5
1
330
0
100
AcDbSymbolTable
 70
     1
  0
BLOCK_RECORD
  5
1F
330
1
100
AcDbSymbolTableRecord
100
AcDbBlockTableRecord
  2
*Model_Space
340
22
  0
BLOCK_RECORD
  5
1B
330
1
100
AcDbSymbolTableRecord
100
AcDbBlockTableRecord
  2
*Paper_Space
340
1E
  0
BLOCK_RECORD
  5
23
330
1
100
AcDbSymbolTableRecord
100
AcDbBlockTableRecord
  2
*Paper_Space0
340
26
  0
ENDTAB
  0
ENDSEC
  0
SECTION
  2
BLOCKS
  0
BLOCK
  5
20
330
1F
100
AcDbEntity
  8
0
100
AcDbBlockBegin
  2
*Model_Space
 70
     0
 10
0.0
 20
0.0
 30
0.0
  3
*Model_Space
  1

  0
ENDBLK
  5
21
330
1F
100
AcDbEntity
  8
0
100
AcDbBlockEnd
  0
BLOCK
  5
1C
330
1B
100
AcDbEntity
 67
     1
  8
0
100
AcDbBlockBegin
  2
*Paper_Space
 70
     0
 10
0.0
 20
0.0
 30
0.0
  3
*Paper_Space
  1

  0
ENDBLK
  5
1D
330
1B
100
AcDbEntity
 67
     1
  8
0
100
AcDbBlockEnd
  0
BLOCK
  5
24
330
23
100
AcDbEntity
  8
0
100
AcDbBlockBegin
  2
*Paper_Space0
 70
     0
 10
0.0
 20
0.0
 30
0.0
  3
*Paper_Space0
  1

  0
ENDBLK
  5
25
330
23
100
AcDbEntity
  8
0
100
AcDbBlockEnd
  0
ENDSEC
  0
SECTION
  2
ENTITIES
  0
SPLINE
  5
73
330
1F
100
AcDbEntity
  8
0
  6
Continuous
 62
     7
370
    25
100
AcDbSpline
210
0.0
220
0.0
230
1.0
 70
     8
 71
     3
 72
    11
 73
     7
 74
     0
 42
0.000000001
 43
0.00000001
 40
0.0
 40
0.0
 40
0.0
 40
0.0
 40
0.2562808891825818
 40
0.4988638999216755
 40
0.7431521323040418
 40
1.0
 40
1.0
 40
1.0
 40
1.0
 10
1.860532407407405
 20
-90.17939814814817
 30
0.0
 10
1.882866507273843
 20
-90.20099016482621
 30
0.0
 10
1.92634097857035
 20
-90.24302013312206
 30
0.0
 10
1.972224100288805
 20
-90.3210942294457
 30
0.0
 10
2.002161010919454
 20
-90.40679622342613
 30
0.0
 10
2.004813404924611
 20
-90.46752453781677
 30
0.0
 10
2.006172839506171
 20
-90.49864969135804
 30
0.0
  0
SPLINE
  5
74
330
1F
100
AcDbEntity
  8
0
  6
Continuous
 62
     7
370
    25
100
AcDbSpline
210
0.0
220
0.0
230
1.0
 70
     8
 71
     3
 72
    11
 73
     7
 74
     0
 42
0.000000001
 43
0.00000001
 40
0.0
 40
0.0
 40
0.0
 40
0.0
 40
0.2510119625092438
 40
0.4977118236062731
 40
0.7431369148554389
 40
1.0
 40
1.0
 40
1.0
 40
1.0
 10
1.553819444444443
 20
-90.06172839506173
 30
0.0
 10
1.581897427708723
 20
-90.06338980657466
 30
0.0
 10
1.637571046264398
 20
-90.06668408843119
 30
0.0
 10
1.718807991186095
 20
-90.08763928932824
 30
0.0
 10
1.793647961929478
 20
-90.12685800477293
 30
0.0
 10
1.837901680325649
 20
-90.16162089609703
 30
0.0
 10
1.860532407407405
 20
-90.17939814814817
 30
0.0
  0
SPLINE
  5
75
330
1F
100
AcDbEntity
  8
0
  6
Continuous
 62
     7
370
    25
100
AcDbSpline
210
0.0
220
0.0
230
1.0
 70
     8
 71
     3
 72
    15
 73
    11
 74
     0
 42
0.000000001
 43
0.00000001
 40
0.0
 40
0.0
 40
0.0
 40
0.0
 40
0.1404928945866275
 40
0.2721737595471477
 40
0.3949030629814066
 40
0.5125981450731292
 40
0.6286032146699579
 40
0.7472551283118385
 40
0.8694121427704543
 40
1.0
 40
1.0
 40
1.0
 40
1.0
 10
1.141975308641973
 20
-90.35493827160495
 30
0.0
 10
1.15230988475578
 20
-90.33180447900651
 30
0.0
 10
1.172330829177895
 20
-90.28698789719546
 30
0.0
 10
1.211124073629207
 20
-90.22698009163784
 30
0.0
 10
1.255022677475
 20
-90.17610954187933
 30
0.0
 10
1.303529032606867
 20
-90.13354529911908
 30
0.0
 10
1.35871992845645
 20
-90.1014987131973
 30
0.0
 10
1.418864610016938
 20
-90.07814714904566
 30
0.0
 10
1.484737706347014
 20
-90.06449777456876
 30
0.0
 10
1.530285747811478
 20
-90.06267182438148
 30
0.0
 10
1.553819444444443
 20
-90.06172839506173
 30
0.0
  0
SPLINE
  5
76
330
1F
100
AcDbEntity
  8
0
  6
Continuous
 62
     7
370
    25
100
AcDbSpline
210
0.0
220
0.0
230
1.0
 70
     8
 71
     3
 72
    15
 73
    11
 74
     0
 42
0.000000001
 43
0.00000001
 40
0.0
 40
0.0
 40
0.0
 40
0.0
 40
0.0877930214244371
 40
0.1871836084507778
 40
0.2964607489863674
 40
0.4156245505824069
 40
0.5458646469902269
 40
0.6871835458196629
 40
0.8383896395771788
 40
1.0
 40
1.0
 40
1.0
 40
1.0
 10
0.8449074074074058
 20
-91.03587962962963
 30
0.0
 10
0.8535555956495819
 20
-91.01593228385921
 30
0.0
 10
0.8719944083873968
 20
-90.9734025235236
 30
0.0
 10
0.901896841808922
 20
-90.90635113753822
 30
0.0
 10
0.934611196584789
 20
-90.83204946028872
 30
0.0
 10
0.9705232140319692
 20
-90.7508080696445
 30
0.0
 10
1.009056415227869
 20
-90.66205163367569
 30
0.0
 10
1.050378267037318
 20
-90.56585718014917
 30
0.0
 10
1.094572349969345
 20
-90.46244009520103
 30
0.0
 10
1.125827803904916
 20
-90.39155805767669
 30
0.0
 10
1.141975308641973
 20
-90.35493827160495
 30
0.0
  0
SPLINE
  5
77
330
1F
100
AcDbEntity
  8
0
  6
Continuous
 62
     7
370
    25
100
AcDbSpline
210
0.0
220
0.0
230
1.0
 70
     8
 71
     3
 72
    15
 73
    11
 74
     0
 42
0.000000001
 43
0.00000001
 40
0.0
 40
0.0
 40
0.0
 40
0.0
 40
0.088902449651422
 40
0.1876024355531289
 40
0.2966094429014578
 40
0.4169597921556536
 40
0.5471178745730358
 40
0.687334389587649
 40
0.8383768634138663
 40
0.9999999999999999
 40
0.9999999999999999
 40
0.9999999999999999
 40
0.9999999999999999
 10
0.121527777777776
 20
-92.54533179012347
 30
0.0
 10
0.1438335341213635
 20
-92.50102474910109
 30
0.0
 10
0.1909032631706657
 20
-92.40752778877496
 30
0.0
 10
0.2627438178677318
 20
-92.25843171556272
 30
0.0
 10
0.3433852263430593
 20
-92.09411018147972
 30
0.0
 10
0.4308838660376604
 20
-91.91360099210725
 30
0.0
 10
0.5242474377215118
 20
-91.71659344627611
 30
0.0
 10
0.6246345598015642
 20
-91.50396605890316
 30
0.0
 10
0.7328579535992569
 20
-91.27562273877133
 30
0.0
 10
0.8067243716684322
 20
-91.11757676775406
 30
0.0
 10
0.8449074074074058
 20
-91.03587962962963
 30
0.0
  0
SPLINE
  5
78
330
1F
100
AcDbEntity
  8
0
  6
Continuous
 62
     7
370
    25
100
AcDbSpline
210
0.0
220
0.0
230
1.0
 70
     8
 71
     3
 72
    15
 73
    11
 74
     0
 42
0.000000001
 43
0.00000001
 40
0.0
 40
0.0
 40
0.0
 40
0.0
 40
0.149197162840197
 40
0.2923057413788817
 40
0.4274162136380585
 40
0.5552832552068624
 40
0.6771341951327676
 40
0.7917915930286702
 40
0.8991034920726991
 40
1.0
 40
1.0
 40
1.0
 40
1.0
 10
-0.4967206790123474
 20
-91.6232638888889
 30
0.0
 10
-0.4682150901680558
 20
-91.67059033883775
 30
0.0
 10
-0.4123671965355415
 20
-91.7633118945013
 30
0.0
 10
-0.3288850321828338
 20
-91.89778613000053
 30
0.0
 10
-0.2476091701909528
 20
-92.0243063170115
 30
0.0
 10
-0.1694216895665775
 20
-92.14345167210506
 30
0.0
 10
-0.0933011662675996
 20
-92.25485903394808
 30
0.0
 10
-0.0205420722181703
 20
-92.3593573009678
 30
0.0
 10
0.0513915227169033
 20
-92.45487707158419
 30
0.0
 10
0.0986342459261027
 20
-92.5158060052321
 30
0.0
 10
0.121527777777776
 20
-92.54533179012347
 30
0.0
  0
SPLINE
  5
79
330
1F
100
AcDbEntity
  8
0
  6
Continuous
 62
     7
370
    25
100
AcDbSpline
210
0.0
220
0.0
230
1.0
 70
     8
 71
     3
 72
    23
 73
    19
 74
     0
 42
0.000000001
 43
0.00000001
 40
0.0
 40
0.0
 40
0.0
 40
0.0
 40
0.0089132061618084
 40
0.0245203236500608
 40
0.0478307395663254
 40
0.0781188184774518
 40
0.1153853289738852
 40
0.1600773120759268
 40
0.2117460646693357
 40
0.2708442271273024
 40
0.3364683981014129
 40
0.4095185319505578
 40
0.4902867423802422
 40
0.5777423222569105
 40
0.6729132595691099
 40
0.7743216527529364
 40
0.8834479204186447
 40
1.0
 40
1.0
 40
1.0
 40
1.0
 10
-1.075424382716051
 20
-90.6712962962963
 30
0.0
 10
-1.07386619292219
 20
-90.67422002136978
 30
0.0
 10
-1.069579596453972
 20
-90.68226321971662
 30
0.0
 10
-1.059033608343613
 20
-90.6966149507306
 30
0.0
 10
-1.046259471877548
 20
-90.71893807031641
 30
0.0
 10
-1.028647372768311
 20
-90.74771661285106
 30
0.0
 10
-1.007656448232606
 20
-90.7837369880388
 30
0.0
 10
-0.9813138919994866
 20
-90.82579739435518
 30
0.0
 10
-0.9517365644850136
 20
-90.87538110466225
 30
0.0
 10
-0.9165814589180601
 20
-90.93066481650605
 30
0.0
 10
-0.8794799003733291
 20
-90.99406216074692
 30
0.0
 10
-0.836342646957844
 20
-91.06320917292747
 30
0.0
 10
-0.7909726018460947
 20
-91.14048443579794
 30
0.0
 10
-0.7389259991309215
 20
-91.22331412639139
 30
0.0
 10
-0.684769010905754
 20
-91.31383451499674
 30
0.0
 10
-0.6251901243829167
 20
-91.41047648500994
 30
0.0
 10
-0.5630162652950998
 20
-91.5148309193923
 30
0.0
 10
-0.5192987078566206
 20
-91.58633529604832
 30
0.0
 10
-0.4967206790123474
 20
-91.6232638888889
 30
0.0
  0
SPLINE
  5
7B
330
1F
100
AcDbEntity
  8
0
  6
Continuous
 62
     7
370
    25
100
AcDbSpline
210
0.0
220
0.0
230
1.0
 70
     8
 71
     3
 72
    11
 73
     7
 74
     0
 42
0.000000001
 43
0.00000001
 40
0.0
 40
0.0
 40
0.0
 40
0.0
 40
0.2295749705544045
 40
0.4637070399675123
 40
0.7159324424179359
 40
1.0
 40
1.0
 40
1.0
 40
1.0
 10
-1.72164351851852
 20
-90.06172839506173
 30
0.0
 10
-1.685890748248662
 20
-90.0643487921918
 30
0.0
 10
-1.613675509660422
 20
-90.06964160174236
 30
0.0
 10
-1.509503378659713
 20
-90.11335123493708
 30
0.0
 10
-1.412020692270264
 20
-90.18427173764358
 30
0.0
 10
-1.356545171404963
 20
-90.2466603408081
 30
0.0
 10
-1.327160493827162
 20
-90.27970679012347
 30
0.0
  0
SPLINE
  5
7C
330
1F
100
AcDbEntity
  8
0
  6
Continuous
 62
     7
370
    25
100
AcDbSpline
210
0.0
220
0.0
230
1.0
 70
     8
 71
     3
 72
    11
 73
     7
 74
     0
 42
0.000000001
 43
0.00000001
 40
0.0
 40
0.0
 40
0.0
 40
0.0
 40
0.2552698297333513
 40
0.4995461907060207
 40
0.7465367315845571
 40
1.0
 40
1.0
 40
1.0
 40
1.0
 10
-2.043788580246916
 20
-90.18229166666667
 30
0.0
 10
-2.020300041624291
 20
-90.163662980533
 30
0.0
 10
-1.974334523464779
 20
-90.12720787259616
 30
0.0
 10
-1.894926737908674
 20
-90.08897155207005
 30
0.0
 10
-1.810037704166615
 20
-90.06626345887516
 30
0.0
 10
-1.751361215418766
 20
-90.06325306154112
 30
0.0
 10
-1.72164351851852
 20
-90.06172839506173
 30
0.0
  0
SPLINE
  5
7D
330
1F
100
AcDbEntity
  8
0
  6
Continuous
 62
     7
370
    25
100
AcDbSpline
210
0.0
220
0.0
230
1.0
 70
     8
 71
     3
 72
    11
 73
     7
 74
     0
 42
0.000000001
 43
0.00000001
 40
0.0
 40
0.0
 40
0.0
 40
0.0
 40
0.2514200120176003
 40
0.4945001663787212
 40
0.7403581391353184
 40
1.0
 40
1.0
 40
1.0
 40
1.0
 10
-2.19135802469136
 20
-90.50154320987656
 30
0.0
 10
-2.189423616316975
 20
-90.47111616063145
 30
0.0
 10
-2.185618965862538
 20
-90.41127135832885
 30
0.0
 10
-2.157671805088219
 20
-90.32524941583632
 30
0.0
 10
-2.110398534991886
 20
-90.24691586613524
 30
0.0
 10
-2.066391887224868
 20
-90.20422113087942
 30
0.0
 10
-2.043788580246916
 20
-90.18229166666667
 30
0.0
  0
SPLINE
  5
7E
330
1F
100
AcDbEntity
  8
0
  6
Continuous
 62
     7
370
    25
100
AcDbSpline
210
0.0
220
0.0
230
1.0
 70
     8
 71
     3
 72
    11
 73
     7
 74
     0
 42
0.000000001
 43
0.00000001
 40
0.0
 40
0.0
 40
0.0
 40
0.0
 40
0.2583792842950559
 40
0.5112461698661845
 40
0.7541655485357964
 40
0.9999999999999999
 40
0.9999999999999999
 40
0.9999999999999999
 40
0.9999999999999999
 10
-2.124807098765434
 20
-90.73302469135804
 30
0.0
 10
-2.134959055043499
 20
-90.71461419972613
 30
0.0
 10
-2.155046380457261
 20
-90.6781859955152
 30
0.0
 10
-2.175895686125624
 20
-90.62034902337106
 30
0.0
 10
-2.189444484544581
 20
-90.56132817441376
 30
0.0
 10
-2.190717646803334
 20
-90.52155061311315
 30
0.0
 10
-2.191358024691361
 20
-90.50154320987657
 30
0.0
  0
SPLINE
  5
7F
330
1F
100
AcDbEntity
  8
0
  6
Continuous
 62
     7
370
    25
100
AcDbSpline
210
0.0
220
0.0
230
1.0
 70
     8
 71
     3
 72
    15
 73
    11
 74
     0
 42
0.000000001
 43
0.00000001
 40
0.0
 40
0.0
 40
0.0
 40
0.0
 40
0.0886515987574063
 40
0.1877503732184822
 40
0.2972976048641114
 40
0.4170248137870298
 40
0.5470557921013247
 40
0.6879532331369227
 40
0.8386171267756802
 40
1.0
 40
1.0
 40
1.0
 40
1.0
 10
-1.065779320987656
 20
-92.36593364197532
 30
0.0
 10
-1.09765226361774
 20
-92.31805908407682
 30
0.0
 10
-1.165154225886296
 20
-92.21666817585745
 30
0.0
 10
-1.271099151017514
 20
-92.055495233942
 30
0.0
 10
-1.388016112301034
 20
-91.87740610506101
 30
0.0
 10
-1.513714193850523
 20
-91.68109257224317
 30
0.0
 10
-1.652470050787568
 20
-91.46900514462466
 30
0.0
 10
-1.800394483828475
 20
-91.23894250055282
 30
0.0
 10
-1.9587025798367
 20
-90.99137810516717
 30
0.0
 10
-2.068185328072509
 20
-90.82109229992629
 30
0.0
 10
-2.124807098765434
 20
-90.73302469135804
 30
0.0
  0
SPLINE
  5
80
330
1F
100
AcDbEntity
  8
0
  6
Continuous
 62
     7
370
    25
100
AcDbSpline
210
0.0
220
0.0
230
1.0
 70
     8
 71
     3
 72
    15
 73
    11
 74
     0
 42
0.000000001
 43
0.00000001
 40
0.0
 40
0.0
 40
0.0
 40
0.0
 40
0.0889600237647496
 40
0.1884283638791357
 40
0.2979917847589053
 40
0.4176552844135273
 40
0.548029082135839
 40
0.6879034021301053
 40
0.8388964348100483
 40
1.0
 40
1.0
 40
1.0
 40
1.0
 10
-0.327932098765434
 20
-93.46450617283953
 30
0.0
 10
-0.350443543330361
 20
-93.43236045226469
 30
0.0
 10
-0.3981255749712506
 20
-93.36427182911356
 30
0.0
 10
-0.4733986570070493
 20
-93.2564969750994
 30
0.0
 10
-0.5552495949524865
 20
-93.13680366163712
 30
0.0
 10
-0.6442989731235752
 20
-93.00551649875203
 30
0.0
 10
-0.7391513407266762
 20
-92.8620228193257
 30
0.0
 10
-0.8419099902605959
 20
-92.70719143623914
 30
0.0
 10
-0.9516455801132937
 20
-92.54071979199264
 30
0.0
 10
-1.026921869112686
 20
-92.42544053591114
 30
0.0
 10
-1.065779320987656
 20
-92.36593364197532
 30
0.0
  0
SPLINE
  5
81
330
1F
100
AcDbEntity
  8
0
  6
Continuous
 62
     7
370
    25
100
AcDbSpline
210
0.0
220
0.0
230
1.0
 70
     8
 71
     3
 72
    23
 73
    19
 74
     0
 42
0.000000001
 43
0.00000001
 40
0.0
 40
0.0
 40
0.0
 40
0.0
 40
0.0160418833720757
 40
0.0376753132039412
 40
0.0658811352353705
 40
0.0995995602121307
 40
0.1398381492494233
 40
0.1868718310623052
 40
0.2393005444763217
 40
0.2985649698047984
 40
0.364112473519094
 40
0.4362179645154349
 40
0.5137591144101055
 40
0.5984748600551067
 40
0.6897499581901132
 40
0.7864745197095683
 40
0.8900740714072343
 40
1.0
 40
1.0
 40
1.0
 40
1.0
 10
-1.01851851851852
 20
-94.80709876543212
 30
0.0
 10
-1.017740541432955
 20
-94.79903008892472
 30
0.0
 10
-1.015913416170643
 20
-94.7800803242676
 30
0.0
 10
-1.007321122607037
 20
-94.74784433250117
 30
0.0
 10
-0.9940266681554782
 20
-94.70782374684643
 30
0.0
 10
-0.9738128395298091
 20
-94.66035602617241
 30
0.0
 10
-0.9499747168925514
 20
-94.60415505777841
 30
0.0
 10
-0.9201126998476238
 20
-94.54027630091642
 30
0.0
 10
-0.8850238808044628
 20
-94.4682750968582
 30
0.0
 10
-0.8447343727102693
 20
-94.38841386941222
 30
0.0
 10
-0.79793782358029
 20
-94.3007482153141
 30
0.0
 10
-0.7473447458028836
 20
-94.20466174118017
 30
0.0
 10
-0.6911260240704804
 20
-94.10060401706235
 30
0.0
 10
-0.6280399549537335
 20
-93.98929520054318
 30
0.0
 10
-0.5611864509151128
 20
-93.86900300955568
 30
0.0
 10
-0.4882874815361118
 20
-93.74117795739896
 30
0.0
 10
-0.4104795736095217
 20
-93.60531860837281
 30
0.0
 10
-0.3559861049500262
 20
-93.51236170015613
 30
0.0
 10
-0.3279320987654339
 20
-93.46450617283952
 30
0.0
  0
SPLINE
  5
82
330
1F
100
AcDbEntity
  8
0
  6
Continuous
 62
     7
370
    25
100
AcDbSpline
210
0.0
220
0.0
230
1.0
 70
     8
 71
     3
 72
    11
 73
     7
 74
     0
 42
0.000000001
 43
0.00000001
 40
0.0
 40
0.0
 40
0.0
 40
0.0
 40
0.2616174076610003
 40
0.5054947059679834
 40
0.7494002226491815
 40
1.0
 40
1.0
 40
1.0
 40
1.0
 10
-0.8661265432098784
 20
-95.12924382716051
 30
0.0
 10
-0.8894155952892209
 20
-95.10702851238855
 30
0.0
 10
-0.9344144836979573
 20
-95.0641042891534
 30
0.0
 10
-0.9827712508574307
 20
-94.9849797932084
 30
0.0
 10
-1.013272400994282
 20
-94.89866546730764
 30
0.0
 10
-1.016754101748292
 20
-94.83789522083693
 30
0.0
 10
-1.01851851851852
 20
-94.80709876543212
 30
0.0
  0
SPLINE
  5
83
330
1F
100
AcDbEntity
  8
0
  6
Continuous
 62
     7
370
    25
100
AcDbSpline
210
0.0
220
0.0
230
1.0
 70
     8
 71
     3
 72
    11
 73
     7
 74
     0
 42
0.000000001
 43
0.00000001
 40
0.0
 40
0.0
 40
0.0
 40
0.0
 40
0.2546264062178851
 40
0.5000856998424176
 40
0.7467807938202526
 40
1.0
 40
1.0
 40
1.0
 40
1.0
 10
-0.5439814814814834
 20
-95.24691358024693
 30
0.0
 10
-0.5737203081839812
 20
-95.24545344484046
 30
0.0
 10
-0.6321272981930417
 20
-95.24258574212477
 30
0.0
 10
-0.7165709187350683
 20
-95.21908971759636
 30
0.0
 10
-0.7961818310678722
 20
-95.1827623705878
 30
0.0
 10
-0.8426096709209209
 20
-95.14723787863814
 30
0.0
 10
-0.8661265432098784
 20
-95.12924382716051
 30
0.0
  0
SPLINE
  5
84
330
1F
100
AcDbEntity
  8
0
  6
Continuous
 62
     7
370
    25
100
AcDbSpline
210
0.0
220
0.0
230
1.0
 70
     8
 71
     3
 72
    15
 73
    11
 74
     0
 42
0.000000001
 43
0.00000001
 40
0.0
 40
0.0
 40
0.0
 40
0.0
 40
0.150023580833222
 40
0.2890315686880466
 40
0.4193872948857903
 40
0.5413053653815884
 40
0.6602061546610669
 40
0.7734042413141301
 40
0.8868019133469424
 40
1.0
 40
1.0
 40
1.0
 40
1.0
 10
-0.0925925925925942
 20
-94.96334876543212
 30
0.0
 10
-0.1089943837287834
 20
-94.98576998480283
 30
0.0
 10
-0.1405936522908136
 20
-95.02896612883981
 30
0.0
 10
-0.1915552022356579
 20
-95.08780554990463
 30
0.0
 10
-0.2459695560936656
 20
-95.13588711362404
 30
0.0
 10
-0.3016385978963274
 20
-95.17638092580249
 30
0.0
 10
-0.3591152066742095
 20
-95.20829238913659
 30
0.0
 10
-0.4190895707722418
 20
-95.23128148529017
 30
0.0
 10
-0.4811100261545872
 20
-95.24358158149009
 30
0.0
 10
-0.5230366393493399
 20
-95.24580356636885
 30
0.0
 10
-0.5439814814814835
 20
-95.24691358024694
 30
0.0
  0
SPLINE
  5
85
330
1F
100
AcDbEntity
  8
0
  6
Continuous
 62
     7
370
    25
100
AcDbSpline
210
0.0
220
0.0
230
1.0
 70
     8
 71
     3
 72
    23
 73
    19
 74
     0
 42
0.000000001
 43
0.00000001
 40
0.0
 40
0.0
 40
0.0
 40
0.0
 40
0.1143612771970454
 40
0.2214534258995541
 40
0.3220816567546322
 40
0.4162492919033169
 40
0.5023949239942709
 40
0.5828286002008268
 40
0.6552422653340497
 40
0.721193623330505
 40
0.780278201848233
 40
0.8321617920332759
 40
0.8775143227966691
 40
0.915661182500525
 40
0.946939728016989
 40
0.9713500316877464
 40
0.9888922508257387
 40
1.0
 40
1.0
 40
1.0
 40
1.0
 10
0.4484953703703686
 20
-93.96894290123458
 30
0.0
 10
0.4278214923793475
 20
-94.00682772579222
 30
0.0
 10
0.3877878269643264
 20
-94.08018930755769
 30
0.0
 10
0.3311621351465329
 20
-94.18774394228944
 30
0.0
 10
0.2771867681830008
 20
-94.2880758803879
 30
0.0
 10
0.2259680251354358
 20
-94.38090804159334
 30
0.0
 10
0.179620821299847
 20
-94.46771297614968
 30
0.0
 10
0.1362182041310516
 20
-94.54677728269627
 30
0.0
 10
0.0978742644904754
 20
-94.61991109026464
 30
0.0
 10
0.0617548308103938
 20
-94.68508810518394
 30
0.0
 10
0.0307397137920406
 20
-94.7442267676719
 30
0.0
 10
0.0006417753862571
 20
-94.79499438129434
 30
0.0
 10
-0.0224138278415264
 20
-94.84061630790627
 30
0.0
 10
-0.044158325432485
 20
-94.87808779785756
 30
0.0
 10
-0.0613635436087836
 20
-94.90904077955233
 30
0.0
 10
-0.0750827312948219
 20
-94.9330264270675
 30
0.0
 10
-0.0843752486531438
 20
-94.95078699196903
 30
0.0
 10
-0.0902967818386441
 20
-94.9598391819441
 30
0.0
 10
-0.0925925925925942
 20
-94.96334876543212
 30
0.0
  0
SPLINE
  5
86
330
1F
100
AcDbEntity
  8
0
  6
Continuous
 62
     7
370
    25
100
AcDbSpline
210
0.0
220
0.0
230
1.0
 70
     8
 71
     3
 72
    15
 73
    11
 74
     0
 42
0.000000001
 43
0.00000001
 40
0.0
 40
0.0
 40
0.0
 40
0.0
 40
0.1530246338124954
 40
0.2983967889638231
 40
0.4351140206534873
 40
0.5642033108169898
 40
0.6851790246215655
 40
0.7980338357765989
 40
0.902791291539703
 40
0.9999999999999999
 40
0.9999999999999999
 40
0.9999999999999999
 40
0.9999999999999999
 10
1.154513888888887
 20
-92.47685185185186
 30
0.0
 10
1.120955378382369
 20
-92.55410080757035
 30
0.0
 10
1.055516556356997
 20
-92.70473564173338
 30
0.0
 10
0.9567818813069165
 20
-92.92291575704711
 30
0.0
 10
0.8637155163247852
 20
-93.12920710538937
 30
0.0
 10
0.7724033960285228
 20
-93.32150921309805
 30
0.0
 10
0.6875552829186906
 20
-93.50235099731455
 30
0.0
 10
0.6037580668570326
 20
-93.66880877222661
 30
0.0
 10
0.5263690320672064
 20
-93.82385046336744
 30
0.0
 10
0.4737982910625991
 20
-93.9217990740612
 30
0.0
 10
0.4484953703703686
 20
-93.96894290123458
 30
0.0
  0
SPLINE
  5
87
330
1F
100
AcDbEntity
  8
0
  6
Continuous
 62
     7
370
    25
100
AcDbSpline
210
0.0
220
0.0
230
1.0
 70
     8
 71
     3
 72
    15
 73
    11
 74
     0
 42
0.000000001
 43
0.00000001
 40
0.0
 40
0.0
 40
0.0
 40
0.0
 40
0.0670503159085019
 40
0.1503418808761684
 40
0.2504166252666113
 40
0.3670330073529482
 40
0.500680436733583
 40
0.650330809048853
 40
0.8167705274148913
 40
1.0
 40
1.0
 40
1.0
 40
1.0
 10
1.818094135802468
 20
-90.99729938271605
 30
0.0
 10
1.802629899972476
 20
-91.03007756379593
 30
0.0
 10
1.767955606951004
 20
-91.10357361416459
 30
0.0
 10
1.711007809753119
 20
-91.22636971065576
 30
0.0
 10
1.643323013798238
 20
-91.37372118920112
 30
0.0
 10
1.566711657063114
 20
-91.5469050985568
 30
0.0
 10
1.477640676151
 20
-91.74386917335113
 30
0.0
 10
1.37944542452068
 20
-91.9662539791029
 30
0.0
 10
1.270358639545374
 20
-92.21312421149537
 30
0.0
 10
1.194345425383438
 20
-92.38617292965685
 30
0.0
 10
1.154513888888887
 20
-92.47685185185186
 30
0.0
  0
SPLINE
  5
88
330
1F
100
AcDbEntity
  8
0
  6
Continuous
 62
     7
370
    25
100
AcDbSpline
210
0.0
220
0.0
230
1.0
 70
     8
 71
     3
 72
    15
 73
    11
 74
     0
 42
0.000000001
 43
0.00000001
 40
0.0
 40
0.0
 40
0.0
 40
0.0
 40
0.0596947538212024
 40
0.1370755476493415
 40
0.2345733173838727
 40
0.3497004961310268
 40
0.483182023575335
 40
0.6364686543476298
 40
0.8082266395847508
 40
1.0
 40
1.0
 40
1.0
 40
1.0
 10
2.006172839506171
 20
-90.49864969135804
 30
0.0
 10
2.005473576513842
 20
-90.50929725065336
 30
0.0
 10
2.003867876657679
 20
-90.5337469707394
 30
0.0
 10
1.99393996935467
 20
-90.57455862594728
 30
0.0
 10
1.980034515333551
 20
-90.62441345029752
 30
0.0
 10
1.957643268816218
 20
-90.68204829078648
 30
0.0
 10
1.932255942270637
 20
-90.74912769997991
 30
0.0
 10
1.898592937298671
 20
-90.82374925983358
 30
0.0
 10
1.861566500987778
 20
-90.90822600378485
 30
0.0
 10
1.83310722945302
 20
-90.96653807092719
 30
0.0
 10
1.818094135802468
 20
-90.99729938271606
 30
0.0
  0
SPLINE
  5
89
330
1F
100
AcDbEntity
  8
0
  6
Continuous
 62
     7
370
    25
100
AcDbSpline
210
0.0
220
0.0
230
1.0
 70
     8
 71
     3
 72
    15
 73
    11
 74
     0
 42
0.000000001
 43
0.00000001
 40
0.0
 40
0.0
 40
0.0
 40
0.0
 40
0.1285319652648647
 40
0.2524367186952083
 40
0.3783653754355658
 40
0.508754943499439
 40
0.6376154604949511
 40
0.7584025682752615
 40
0.8776261417529052
 40
0.9999999999999999
 40
0.9999999999999999
 40
0.9999999999999999
 40
0.9999999999999999
 10
-78.80019113729925
 20
43.39371084861725
 30
0.0
 10
-78.81725367636875
 20
43.36758089721277
 30
0.0
 10
-78.85076449499232
 20
43.31626168507265
 30
0.0
 10
-78.917323473622
 20
43.25202563332205
 30
0.0
 10
-78.99570524239833
 20
43.20265035699467
 30
0.0
 10
-79.08258110445428
 20
43.16758892703456
 30
0.0
 10
-79.17310707620864
 20
43.14745813719198
 30
0.0
 10
-79.26293566327702
 20
43.14802120107908
 30
0.0
 10
-79.35021692518586
 20
43.16426340176517
 30
0.0
 10
-79.40254431054257
 20
43.1910829893344
 30
0.0
 10
-79.4290491619906
 20
43.20466763874071
 30
0.0
  0
SPLINE
  5
8A
330
1F
100
AcDbEntity
  8
0
  6
Continuous
 62
     7
370
    25
100
AcDbSpline
210
0.0
220
0.0
230
1.0
 70
     8
 71
     3
 72
    15
 73
    11
 74
     0
 42
0.000000001
 43
0.00000001
 40
0.0
 40
0.0
 40
0.0
 40
0.0
 40
0.2011616510818047
 40
0.3789254396917652
 40
0.5352605413624725
 40
0.668653131786716
 40
0.7811477177052732
 40
0.872832829369536
 40
0.9442330563738427
 40
1.0
 40
1.0
 40
1.0
 40
1.0
 10
-79.048069223719
 20
44.54050868812342
 30
0.0
 10
-79.01964504316516
 20
44.46576406048487
 30
0.0
 10
-78.96610280459073
 20
44.32496863183222
 30
0.0
 10
-78.89728951032792
 20
44.12359822219813
 30
0.0
 10
-78.84283622244241
 20
43.94586937490832
 30
0.0
 10
-78.80314244234962
 20
43.79095470501996
 30
0.0
 10
-78.7791797176123
 20
43.65861169938071
 30
0.0
 10
-78.76955036382832
 20
43.54975431996787
 30
0.0
 10
-78.77215440270102
 20
43.46134660890125
 30
0.0
 10
-78.79164421862224
 20
43.41432941747303
 30
0.0
 10
-78.80019113729924
 20
43.39371084861724
 30
0.0
  0
SPLINE
  5
8B
330
1F
100
AcDbEntity
  8
0
  6
Continuous
 62
     7
370
    25
100
AcDbSpline
210
0.0
220
0.0
230
1.0
 70
     8
 71
     3
 72
     9
 73
     5
 74
     0
 42
0.000000001
 43
0.00000001
 40
0.0
 40
0.0
 40
0.0
 40
0.0
 40
0.5001864559475484
 40
1.0
 40
1.0
 40
1.0
 40
1.0
 10
-79.5833701496449
 20
45.79726023133329
 30
0.0
 10
-79.49441116258713
 20
45.58759953822561
 30
0.0
 10
-79.31655951146777
 20
45.16843446365255
 30
0.0
 10
-79.13754373393095
 20
44.74976523772163
 30
0.0
 10
-79.04806922371898
 20
44.54050868812341
 30
0.0
  0
SPLINE
  5
8C
330
1F
100
AcDbEntity
  8
0
  6
Continuous
 62
     7
370
    25
100
AcDbSpline
210
0.0
220
0.0
230
1.0
 70
     8
 71
     3
 72
     9
 73
     5
 74
     0
 42
0.000000001
 43
0.00000001
 40
0.0
 40
0.0
 40
0.0
 40
0.0
 40
0.5009691730036955
 40
1.0
 40
1.0
 40
1.0
 40
1.0
 10
-78.65937323606465
 20
45.9438651696049
 30
0.0
 10
-78.81322288978902
 20
45.91655752125934
 30
0.0
 10
-79.12032692336047
 20
45.8620478831077
 30
0.0
 10
-79.42922198938943
 20
45.81882819035181
 30
0.0
 10
-79.58337014964492
 20
45.7972602313333
 30
0.0
  0
SPLINE
  5
8D
330
1F
100
AcDbEntity
  8
0
  6
Continuous
 62
     7
370
    25
100
AcDbSpline
210
0.0
220
0.0
230
1.0
 70
     8
 71
     3
 72
    15
 73
    11
 74
     0
 42
0.000000001
 43
0.00000001
 40
0.0
 40
0.0
 40
0.0
 40
0.0
 40
0.115416006396862
 40
0.2249142207323851
 40
0.329964434276433
 40
0.429880139193469
 40
0.5386136373460215
 40
0.6698587892829752
 40
0.8237197454225934
 40
1.0
 40
1.0
 40
1.0
 40
1.0
 10
-77.5077528656943
 20
46.12905035479008
 30
0.0
 10
-77.55068511609834
 20
46.11564968170537
 30
0.0
 10
-77.63434832664734
 20
46.0895354360454
 30
0.0
 10
-77.75957870549115
 20
46.06025934929616
 30
0.0
 10
-77.8797768218244
 20
46.03632964027921
 30
0.0
 10
-78.00109186122933
 20
46.02110072428027
 30
0.0
 10
-78.13282261812013
 20
46.00787767712439
 30
0.0
 10
-78.28525591373685
 20
45.99042657773477
 30
0.0
 10
-78.46354018546067
 20
45.9676707260228
 30
0.0
 10
-78.5912057068801
 20
45.95215164605445
 30
0.0
 10
-78.65937323606465
 20
45.9438651696049
 30
0.0
  0
SPLINE
  5
8E
330
1F
100
AcDbEntity
  8
0
  6
Continuous
 62
     7
370
    25
100
AcDbSpline
210
0.0
220
0.0
230
1.0
 70
     8
 71
     3
 72
    15
 73
    11
 74
     0
 42
0.000000001
 43
0.00000001
 40
0.0
 40
0.0
 40
0.0
 40
0.0
 40
0.0854112263677605
 40
0.1796650505651635
 40
0.2845660479955511
 40
0.4009539705639782
 40
0.5307240801177775
 40
0.6732582182145388
 40
0.8290826722487121
 40
1.0
 40
1.0
 40
1.0
 40
1.0
 10
-77.06022200149675
 20
46.40586362639502
 30
0.0
 10
-77.06851693287514
 20
46.39303013010532
 30
0.0
 10
-77.08596556731014
 20
46.36603448962727
 30
0.0
 10
-77.12170971853249
 20
46.32947754855815
 30
0.0
 10
-77.16568498839932
 20
46.29425574495703
 30
0.0
 10
-77.21675989749679
 20
46.25769549730171
 30
0.0
 10
-77.27821573065806
 20
46.22522602427004
 30
0.0
 10
-77.34641750042515
 20
46.19066129426675
 30
0.0
 10
-77.42428225586339
 20
46.15948355208939
 30
0.0
 10
-77.47908550423205
 20
46.13950241053999
 30
0.0
 10
-77.5077528656943
 20
46.12905035479008
 30
0.0
  0
SPLINE
  5
8F
330
1F
100
AcDbEntity
  8
0
  6
Continuous
 62
     7
370
    25
100
AcDbSpline
210
0.0
220
0.0
230
1.0
 70
     8
 71
     3
 72
    15
 73
    11
 74
     0
 42
0.000000001
 43
0.00000001
 40
0.0
 40
0.0
 40
0.0
 40
0.0
 40
0.1184790354529997
 40
0.2353645909270112
 40
0.3564999815782597
 40
0.4849185428359721
 40
0.615011107760564
 40
0.7399206317427949
 40
0.8666359630302422
 40
1.0
 40
1.0
 40
1.0
 40
1.0
 10
-77.22129453236096
 20
47.03375714491354
 30
0.0
 10
-77.19734135584945
 20
47.01835804231403
 30
0.0
 10
-77.14975716030399
 20
46.98776694685046
 30
0.0
 10
-77.09211885263325
 20
46.92354386402342
 30
0.0
 10
-77.04652431429997
 20
46.8481422464943
 30
0.0
 10
-77.01337410121671
 20
46.76312141228802
 30
0.0
 10
-76.99392514508385
 20
46.6726551118725
 30
0.0
 10
-76.99680283593098
 20
46.58069628874463
 30
0.0
 10
-77.01627590876646
 20
46.48964080071808
 30
0.0
 10
-77.04532575909516
 20
46.43426126129041
 30
0.0
 10
-77.06022200149675
 20
46.40586362639502
 30
0.0
  0
SPLINE
  5
90
330
1F
100
AcDbEntity
  8
0
  6
Continuous
 62
     7
370
    25
100
AcDbSpline
210
0.0
220
0.0
230
1.0
 70
     8
 71
     3
 72
    15
 73
    11
 74
     0
 42
0.000000001
 43
0.00000001
 40
0.0
 40
0.0
 40
0.0
 40
0.0
 40
0.1730016845868327
 40
0.3289657793277433
 40
0.4692386052790832
 40
0.5934739487897167
 40
0.7042770097072747
 40
0.805396078646855
 40
0.9028235844496793
 40
1.0
 40
1.0
 40
1.0
 40
1.0
 10
-78.2060553348301
 20
46.92090992269132
 30
0.0
 10
-78.14808608760369
 20
46.92867395130836
 30
0.0
 10
-78.0378565332706
 20
46.94343738977332
 30
0.0
 10
-77.88215437612375
 20
46.97370265905263
 30
0.0
 10
-77.7437143212138
 20
47.00682424890451
 30
0.0
 10
-77.62418146527588
 20
47.0491097063729
 30
0.0
 10
-77.5157476131837
 20
47.08458120876469
 30
0.0
 10
-77.41055209864214
 20
47.09274045171787
 30
0.0
 10
-77.31042947085506
 20
47.0769751551824
 30
0.0
 10
-77.25098061030258
 20
47.04815075131524
 30
0.0
 10
-77.22129453236096
 20
47.03375714491354
 30
0.0
  0
SPLINE
  5
91
330
1F
100
AcDbEntity
  8
0
  6
Continuous
 62
     7
370
    25
100
AcDbSpline
210
0.0
220
0.0
230
1.0
 70
     8
 71
     3
 72
    15
 73
    11
 74
     0
 42
0.000000001
 43
0.00000001
 40
0.0
 40
0.0
 40
0.0
 40
0.0
 40
0.0308173792805949
 40
0.0890473068886773
 40
0.1746970280860103
 40
0.286398180034885
 40
0.4235175016317815
 40
0.5898449522823053
 40
0.7820057838109178
 40
1.0
 40
1.0
 40
1.0
 40
1.0
 10
-78.80308465581777
 20
46.84374942886416
 30
0.0
 10
-78.79697888258335
 20
46.84473233459005
 30
0.0
 10
-78.77933615384745
 20
46.84757245629599
 30
0.0
 10
-78.74458793717143
 20
46.85224017919764
 30
0.0
 10
-78.6936964867219
 20
46.8586127493994
 30
0.0
 10
-78.62740353780768
 20
46.86923627860099
 30
0.0
 10
-78.54450384480111
 20
46.87772935187103
 30
0.0
 10
-78.44591898414677
 20
46.89087065354558
 30
0.0
 10
-78.33111386550078
 20
46.90511099617233
 30
0.0
 10
-78.24945590526421
 20
46.91542703064475
 30
0.0
 10
-78.2060553348301
 20
46.92090992269132
 30
0.0
  0
SPLINE
  5
92
330
1F
100
AcDbEntity
  8
0
  6
Continuous
 62
     7
370
    25
100
AcDbSpline
210
0.0
220
0.0
230
1.0
 70
     8
 71
     3
 72
     9
 73
     5
 74
     0
 42
0.000000001
 43
0.00000001
 40
0.0
 40
0.0
 40
0.0
 40
0.0
 40
0.4953708090917492
 40
1.0
 40
1.0
 40
1.0
 40
1.0
 10
-79.8736865076696
 20
46.6739963424444
 30
0.0
 10
-79.69635923211645
 20
46.69858266010417
 30
0.0
 10
-79.33839046952774
 20
46.74821480880677
 30
0.0
 10
-78.98261788652552
 20
46.81170860557388
 30
0.0
 10
-78.80308465581776
 20
46.84374942886416
 30
0.0
  0
SPLINE
  5
93
330
1F
100
AcDbEntity
  8
0
  6
Continuous
 62
     7
370
    25
100
AcDbSpline
210
0.0
220
0.0
230
1.0
 70
     8
 71
     3
 72
    15
 73
    11
 74
     0
 42
0.000000001
 43
0.00000001
 40
0.0
 40
0.0
 40
0.0
 40
0.0
 40
0.0961993480872185
 40
0.2007659646360393
 40
0.3129934334165019
 40
0.4342971112185161
 40
0.5634345738212205
 40
0.700407129478815
 40
0.8462854416199505
 40
1.0
 40
1.0
 40
1.0
 40
1.0
 10
-80.4012713842128
 20
48.30304726837033
 30
0.0
 10
-80.38492392121968
 20
48.25062695219739
 30
0.0
 10
-80.35080711853418
 20
48.14122688294282
 30
0.0
 10
-80.29661809559558
 20
47.97098791110722
 30
0.0
 10
-80.23891927796174
 20
47.78682959512291
 30
0.0
 10
-80.17521607268857
 20
47.58986398367407
 30
0.0
 10
-80.10683244649908
 20
47.37956949634114
 30
0.0
 10
-80.03309906969592
 20
47.15626665514089
 30
0.0
 10
-79.9554022542203
 20
46.91949971804499
 30
0.0
 10
-79.90139595845928
 20
46.75724545894956
 30
0.0
 10
-79.8736865076696
 20
46.6739963424444
 30
0.0
  0
SPLINE
  5
94
330
1F
100
AcDbEntity
  8
0
  6
Continuous
 62
     7
370
    25
100
AcDbSpline
210
0.0
220
0.0
230
1.0
 70
     8
 71
     3
 72
    15
 73
    11
 74
     0
 42
0.000000001
 43
0.00000001
 40
0.0
 40
0.0
 40
0.0
 40
0.0
 40
0.0887197502510381
 40
0.1877145983328181
 40
0.2973031787316478
 40
0.4174865672547936
 40
0.5471968420257719
 40
0.6882494276082544
 40
0.8388267606367781
 40
1.0
 40
1.0
 40
1.0
 40
1.0
 10
-80.65011397680541
 20
49.12962905849379
 30
0.0
 10
-80.64266593716114
 20
49.10521085191744
 30
0.0
 10
-80.6269072614859
 20
49.05354643867778
 30
0.0
 10
-80.60308641374702
 20
48.97138086069886
 30
0.0
 10
-80.57592214645467
 20
48.88076402477834
 30
0.0
 10
-80.54631609424966
 20
48.781651974901
 30
0.0
 10
-80.51284116480086
 20
48.67425218786192
 30
0.0
 10
-80.478840336448
 20
48.55787573689549
 30
0.0
 10
-80.44088969803568
 20
48.43323310688979
 30
0.0
 10
-80.41477337294383
 20
48.34741482354912
 30
0.0
 10
-80.4012713842128
 20
48.30304726837033
 30
0.0
  0
SPLINE
  5
95
330
1F
100
AcDbEntity
  8
0
  6
Continuous
 62
     7
370
    25
100
AcDbSpline
210
0.0
220
0.0
230
1.0
 70
     8
 71
     3
 72
    11
 73
     7
 74
     0
 42
0.000000001
 43
0.00000001
 40
0.0
 40
0.0
 40
0.0
 40
0.0
 40
0.2443859958920442
 40
0.4874774527565687
 40
0.7360478228312956
 40
1.0
 40
1.0
 40
1.0
 40
1.0
 10
-80.84108619902761
 20
49.37075560170366
 30
0.0
 10
-80.8195597605785
 20
49.35675913700904
 30
0.0
 10
-80.77662091155076
 20
49.32884034840568
 30
0.0
 10
-80.72312005078534
 20
49.27239980883927
 30
0.0
 10
-80.67968393415438
 20
49.20560421358118
 30
0.0
 10
-80.66016588754461
 20
49.15545579433665
 30
0.0
 10
-80.65011397680541
 20
49.12962905849379
 30
0.0
  0
SPLINE
  5
96
330
1F
100
AcDbEntity
  8
0
  6
Continuous
 62
     7
370
    25
100
AcDbSpline
210
0.0
220
0.0
230
1.0
 70
     8
 71
     3
 72
    15
 73
    11
 74
     0
 42
0.000000001
 43
0.00000001
 40
0.0
 40
0.0
 40
0.0
 40
0.0
 40
0.1365112893945644
 40
0.2680163775799854
 40
0.3967158114538463
 40
0.5286875621710462
 40
0.6562354074470734
 40
0.7730928590688285
 40
0.8862077591420818
 40
1.0
 40
1.0
 40
1.0
 40
1.0
 10
-81.49984391507701
 20
49.12287751528391
 30
0.0
 10
-81.48097339738487
 20
49.15294467988823
 30
0.0
 10
-81.44392438980951
 20
49.21197637299645
 30
0.0
 10
-81.37089614885798
 20
49.28548178281895
 30
0.0
 10
-81.28862142835038
 20
49.34604010735746
 30
0.0
 10
-81.19706315448052
 20
49.38918651772526
 30
0.0
 10
-81.10291459710717
 20
49.41685035524824
 30
0.0
 10
-81.00990256632409
 20
49.42444893543523
 30
0.0
 10
-80.9203612916198
 20
49.41080635931583
 30
0.0
 10
-80.86756376521197
 20
49.38413239573485
 30
0.0
 10
-80.84108619902761
 20
49.37075560170366
 30
0.0
  0
SPLINE
  5
97
330
1F
100
AcDbEntity
  8
0
  6
Continuous
 62
     7
370
    25
100
AcDbSpline
210
0.0
220
0.0
230
1.0
 70
     8
 71
     3
 72
    11
 73
     7
 74
     0
 42
0.000000001
 43
0.00000001
 40
0.0
 40
0.0
 40
0.0
 40
0.0
 40
0.2525294856235427
 40
0.5004150529436948
 40
0.7446375200916086
 40
0.9999999999999999
 40
0.9999999999999999
 40
0.9999999999999999
 40
0.9999999999999999
 10
-81.57218187803997
 20
48.72357195972835
 30
0.0
 10
-81.57629298635976
 20
48.7582499051809
 30
0.0
 10
-81.58443960132804
 20
48.82696808225543
 30
0.0
 10
-81.57521820979022
 20
48.92999962005436
 30
0.0
 10
-81.54805716355847
 20
49.03024935649279
 30
0.0
 10
-81.5161521429839
 20
49.0915458549677
 30
0.0
 10
-81.49984391507701
 20
49.12287751528391
 30
0.0
  0
SPLINE
  5
98
330
1F
100
AcDbEntity
  8
0
  6
Continuous
 62
     7
370
    25
100
AcDbSpline
210
0.0
220
0.0
230
1.0
 70
     8
 71
     3
 72
    15
 73
    11
 74
     0
 42
0.000000001
 43
0.00000001
 40
0.0
 40
0.0
 40
0.0
 40
0.0
 40
0.088616897233215
 40
0.1880299360216682
 40
0.2971704591657976
 40
0.4177976128205271
 40
0.5477768856658576
 40
0.6874801996652993
 40
0.8390612902332536
 40
1.0
 40
1.0
 40
1.0
 40
1.0
 10
-81.29247508791651
 20
47.9239963424444
 30
0.0
 10
-81.30118268044455
 20
47.94745608740076
 30
0.0
 10
-81.31965870609059
 20
47.99723366347205
 30
0.0
 10
-81.34828186109436
 20
48.07611568840891
 30
0.0
 10
-81.38073162464899
 20
48.16322518138492
 30
0.0
 10
-81.41398326095813
 20
48.25922006769983
 30
0.0
 10
-81.44951883798242
 20
48.36354795826072
 30
0.0
 10
-81.48848836943812
 20
48.4759403472443
 30
0.0
 10
-81.52975311056989
 20
48.59678823096162
 30
0.0
 10
-81.55775942929749
 20
48.68047544906945
 30
0.0
 10
-81.57218187803997
 20
48.72357195972835
 30
0.0
  0
SPLINE
  5
99
330
1F
100
AcDbEntity
  8
0
  6
Continuous
 62
     7
370
    25
100
AcDbSpline
210
0.0
220
0.0
230
1.0
 70
     8
 71
     3
 72
    15
 73
    11
 74
     0
 42
0.000000001
 43
0.00000001
 40
0.0
 40
0.0
 40
0.0
 40
0.0
 40
0.1036712506415608
 40
0.213019909162052
 40
0.3292906518635246
 40
0.4510086519395596
 40
0.5788018716461902
 40
0.7131227815259947
 40
0.8535207911795356
 40
0.9999999999999999
 40
0.9999999999999999
 40
0.9999999999999999
 40
0.9999999999999999
 10
-80.79575440890417
 20
46.56018461404934
 30
0.0
 10
-80.8134274451918
 20
46.60712749868261
 30
0.0
 10
-80.84974135634181
 20
46.70358402793732
 30
0.0
 10
-80.90606367493459
 20
46.85261838005636
 30
0.0
 10
-80.96458070719943
 20
47.01015457932156
 30
0.0
 10
-81.0256609849346
 20
47.17625936654951
 30
0.0
 10
-81.0877893277621
 20
47.35127186109973
 30
0.0
 10
-81.15489577626346
 20
47.53409539615026
 30
0.0
 10
-81.2232165495806
 20
47.7260936806501
 30
0.0
 10
-81.26906494499364
 20
47.85710307976897
 30
0.0
 10
-81.29247508791651
 20
47.9239963424444
 30
0.0
  0
SPLINE
  5
9A
330
1F
100
AcDbEntity
  8
0
  6
Continuous
 62
     7
370
    25
100
AcDbSpline
210
0.0
220
0.0
230
1.0
 70
     8
 71
     3
 72
    11
 73
     7
 74
     0
 42
0.000000001
 43
0.00000001
 40
0.0
 40
0.0
 40
0.0
 40
0.0
 40
0.1876995249242468
 40
0.4167569797259171
 40
0.6884439685634464
 40
1.0
 40
1.0
 40
1.0
 40
1.0
 10
-81.47380224841035
 20
46.52449788565428
 30
0.0
 10
-81.43135801519144
 20
46.52630993954765
 30
0.0
 10
-81.33711733743678
 20
46.5303333173799
 30
0.0
 10
-81.18158610766122
 20
46.53983701108512
 30
0.0
 10
-80.99795801880957
 20
46.54885614450688
 30
0.0
 10
-80.8661587685465
 20
46.55624020551856
 30
0.0
 10
-80.79575440890417
 20
46.56018461404934
 30
0.0
  0
SPLINE
  5
9B
330
1F
100
AcDbEntity
  8
0
  6
Continuous
 62
     7
370
    25
100
AcDbSpline
210
0.0
220
0.0
230
1.0
 70
     8
 71
     3
 72
    15
 73
    11
 74
     0
 42
0.000000001
 43
0.00000001
 40
0.0
 40
0.0
 40
0.0
 40
0.0
 40
0.0885576273615815
 40
0.1873911394213747
 40
0.2964914181885066
 40
0.4171624466469604
 40
0.5467966315291785
 40
0.6880279525203482
 40
0.8382402409876248
 40
1.0
 40
1.0
 40
1.0
 40
1.0
 10
-82.22515255705231
 20
46.51099479923452
 30
0.0
 10
-82.20296833770378
 20
46.51091511846784
 30
0.0
 10
-82.156025727962
 20
46.51074651108634
 30
0.0
 10
-82.08176511209635
 20
46.51217323473752
 30
0.0
 10
-81.99944780630771
 20
46.51260362611281
 30
0.0
 10
-81.90945145586535
 20
46.51540092025434
 30
0.0
 10
-81.81135682224051
 20
46.51522894269328
 30
0.0
 10
-81.7059328401299
 20
46.51900279442062
 30
0.0
 10
-81.59243832882986
 20
46.52166432283455
 30
0.0
 10
-81.51431154822059
 20
46.52353034150254
 30
0.0
 10
-81.47380224841035
 20
46.52449788565428
 30
0.0
  0
SPLINE
  5
9C
330
1F
100
AcDbEntity
  8
0
  6
Continuous
 62
     7
370
    25
100
AcDbSpline
210
0.0
220
0.0
230
1.0
 70
     8
 71
     3
 72
    15
 73
    11
 74
     0
 42
0.000000001
 43
0.00000001
 40
0.0
 40
0.0
 40
0.0
 40
0.0
 40
0.0824172182739734
 40
0.172437045293083
 40
0.2721073737864699
 40
0.3859744489683625
 40
0.5141352109224744
 40
0.6583253061247414
 40
0.8200584663917692
 40
1.0
 40
1.0
 40
1.0
 40
1.0
 10
-83.29671891507701
 20
46.15412751528391
 30
0.0
 10
-83.27854411225594
 20
46.18081001855563
 30
0.0
 10
-83.24051796477266
 20
46.23663636311755
 30
0.0
 10
-83.15739934408018
 20
46.30478818076809
 30
0.0
 10
-83.05364104428385
 20
46.36231942943875
 30
0.0
 10
-82.92970500971563
 20
46.4124593431039
 30
0.0
 10
-82.78367486264536
 20
46.45060886917625
 30
0.0
 10
-82.61704929497222
 20
46.48133575217094
 30
0.0
 10
-82.428476327171
 20
46.50219906812331
 30
0.0
 10
-82.2952929957244
 20
46.50796054289439
 30
0.0
 10
-82.22515255705231
 20
46.51099479923452
 30
0.0
  0
SPLINE
  5
9D
330
1F
100
AcDbEntity
  8
0
  6
Continuous
 62
     7
370
    25
100
AcDbSpline
210
0.0
220
0.0
230
1.0
 70
     8
 71
     3
 72
    15
 73
    11
 74
     0
 42
0.000000001
 43
0.00000001
 40
0.0
 40
0.0
 40
0.0
 40
0.0
 40
0.1131414250389775
 40
0.2254814605195177
 40
0.34292641751456
 40
0.4700324781695686
 40
0.6017006752055256
 40
0.7311311803652634
 40
0.8627765024536892
 40
1.0
 40
1.0
 40
1.0
 40
1.0
 10
-83.1790491619906
 20
45.45293152762959
 30
0.0
 10
-83.20374443318528
 20
45.46952407290681
 30
0.0
 10
-83.2529600570382
 20
45.50259163716593
 30
0.0
 10
-83.31142645453292
 20
45.57263633853135
 30
0.0
 10
-83.3513002297464
 20
45.65788744450469
 30
0.0
 10
-83.37743761009898
 20
45.75350957036458
 30
0.0
 10
-83.38425362632881
 20
45.8555538619002
 30
0.0
 10
-83.3751939658683
 20
45.95851359628099
 30
0.0
 10
-83.34555520647032
 20
46.05942432015983
 30
0.0
 10
-83.31322128763777
 20
46.12212616210897
 30
0.0
 10
-83.29671891507701
 20
46.15412751528391
 30
0.0
  0
SPLINE
  5
9E
330
1F
100
AcDbEntity
  8
0
  6
Continuous
 62
     7
370
    25
100
AcDbSpline
210
0.0
220
0.0
230
1.0
 70
     8
 71
     3
 72
    11
 73
     7
 74
     0
 42
0.000000001
 43
0.00000001
 40
0.0
 40
0.0
 40
0.0
 40
0.0
 40
0.2701745431807815
 40
0.5211447048919192
 40
0.759964572050555
 40
0.9999999999999999
 40
0.9999999999999999
 40
0.9999999999999999
 40
0.9999999999999999
 10
-82.8617266311264
 20
45.40856424367897
 30
0.0
 10
-82.8909233508832
 20
45.40382231452649
 30
0.0
 10
-82.94724144703815
 20
45.3946755191264
 30
0.0
 10
-83.03034399677692
 20
45.40095795245658
 30
0.0
 10
-83.10905594474998
 20
45.41674590920103
 30
0.0
 10
-83.15567863944099
 20
45.44084925959283
 30
0.0
 10
-83.17904916199059
 20
45.45293152762959
 30
0.0
  0
SPLINE
  5
9F
330
1F
100
AcDbEntity
  8
0
  6
Continuous
 62
     7
370
    25
100
AcDbSpline
210
0.0
220
0.0
230
1.0
 70
     8
 71
     3
 72
    11
 73
     7
 74
     0
 42
0.000000001
 43
0.00000001
 40
0.0
 40
0.0
 40
0.0
 40
0.0
 40
0.282206861471492
 40
0.5428422250567653
 40
0.7820461463643245
 40
1.0
 40
1.0
 40
1.0
 40
1.0
 10
-81.69467416199059
 20
45.57060128071601
 30
0.0
 10
-81.8050064816272
 20
45.55953440561717
 30
0.0
 10
-82.01723747266308
 20
45.53824659187746
 30
0.0
 10
-82.32207490068991
 20
45.49946735671831
 30
0.0
 10
-82.6011008461482
 20
45.45803372817952
 30
0.0
 10
-82.77758588789494
 20
45.42453503180916
 30
0.0
 10
-82.86172663112642
 20
45.40856424367898
 30
0.0
  0
SPLINE
  5
A0
330
1F
100
AcDbEntity
  8
0
  6
Continuous
 62
     7
370
    25
100
AcDbSpline
210
0.0
220
0.0
230
1.0
 70
     8
 71
     3
 72
     9
 73
     5
 74
     0
 42
0.000000001
 43
0.00000001
 40
0.0
 40
0.0
 40
0.0
 40
0.0
 40
0.4991861117982144
 40
1.0
 40
1.0
 40
1.0
 40
1.0
 10
-80.51990564347207
 20
45.68055498441971
 30
0.0
 10
-80.71537750304891
 20
45.66221450060974
 30
0.0
 10
-81.10695862871904
 20
45.62547372722582
 30
0.0
 10
-81.49855650630514
 20
45.58891193436052
 30
0.0
 10
-81.69467416199059
 20
45.57060128071601
 30
0.0
  0
SPLINE
  5
A1
330
1F
100
AcDbEntity
  8
0
  6
Continuous
 62
     7
370
    25
100
AcDbSpline
210
0.0
220
0.0
230
1.0
 70
     8
 71
     3
 72
    15
 73
    11
 74
     0
 42
0.000000001
 43
0.00000001
 40
0.0
 40
0.0
 40
0.0
 40
0.0
 40
0.0878256658609728
 40
0.1863797628754336
 40
0.2956701186331301
 40
0.4158007714083199
 40
0.5456291342229974
 40
0.6863264006032437
 40
0.8377829607479
 40
1.0
 40
1.0
 40
1.0
 40
1.0
 10
-80.0029303348301
 20
44.45370313256786
 30
0.0
 10
-80.01941081426676
 20
44.48903015634587
 30
0.0
 10
-80.05438496242004
 20
44.56399961146239
 30
0.0
 10
-80.10806974875658
 20
44.68374885248313
 30
0.0
 10
-80.16770526310371
 20
44.81656095712551
 30
0.0
 10
-80.22773619241951
 20
44.96430212907244
 30
0.0
 10
-80.29694022852685
 20
45.12330110530664
 30
0.0
 10
-80.3662508717029
 20
45.29731861829655
 30
0.0
 10
-80.44179665993748
 20
45.48430243407965
 30
0.0
 10
-80.49328060187862
 20
45.61365829623896
 30
0.0
 10
-80.51990564347209
 20
45.68055498441971
 30
0.0
  0
SPLINE
  5
A2
330
1F
100
AcDbEntity
  8
0
  6
Continuous
 62
     7
370
    25
100
AcDbSpline
210
0.0
220
0.0
230
1.0
 70
     8
 71
     3
 72
    15
 73
    11
 74
     0
 42
0.000000001
 43
0.00000001
 40
0.0
 40
0.0
 40
0.0
 40
0.0
 40
0.1507946598759179
 40
0.2944682917364137
 40
0.4301900961016355
 40
0.5593566089188072
 40
0.6802820307222517
 40
0.7944921397048157
 40
0.9005063752647328
 40
1.0
 40
1.0
 40
1.0
 40
1.0
 10
-79.62195039655849
 20
43.45640374985181
 30
0.0
 10
-79.63921736432958
 20
43.50723316913142
 30
0.0
 10
-79.6729358959222
 20
43.60649167256609
 30
0.0
 10
-79.72376885085617
 20
43.75096249919733
 30
0.0
 10
-79.7745019281301
 20
43.88727789001922
 30
0.0
 10
-79.82236003236966
 20
44.01601439455619
 30
0.0
 10
-79.86836826518588
 20
44.13728139960293
 30
0.0
 10
-79.9148105010919
 20
44.24951056312891
 30
0.0
 10
-79.95940681260244
 20
44.35422802016818
 30
0.0
 10
-79.98873265645736
 20
44.42125365284614
 30
0.0
 10
-80.00293033483011
 20
44.45370313256787
 30
0.0
  0
SPLINE
  5
A3
330
1F
100
AcDbEntity
  8
0
  6
Continuous
 62
     7
370
    25
100
AcDbSpline
210
0.0
220
0.0
230
1.0
 70
     8
 71
     3
 72
    11
 73
     7
 74
     0
 42
0.000000001
 43
0.00000001
 40
0.0
 40
0.0
 40
0.0
 40
0.0
 40
0.2369587792570069
 40
0.4749615991039273
 40
0.7292083181844488
 40
0.9999999999999999
 40
0.9999999999999999
 40
0.9999999999999999
 40
0.9999999999999999
 10
-79.42904916199059
 20
43.2046676387407
 30
0.0
 10
-79.45073498256957
 20
43.2185149643169
 30
0.0
 10
-79.49420217147212
 20
43.24627062679799
 30
0.0
 10
-79.5463520404851
 20
43.30631118534224
 30
0.0
 10
-79.59187072070335
 20
43.37554992289675
 30
0.0
 10
-79.61171539012906
 20
43.42889216885227
 30
0.0
 10
-79.62195039655849
 20
43.45640374985181
 30
0.0
  0
CIRCLE
  5
A4
330
1F
100
AcDbEntity
  8
0
  6
Continuous
 62
     7
370
    25
100
AcDbCircle
 10
-44.5
 20
82.0
 30
0.0
 40
1.599999999996207
  0
CIRCLE
  5
A5
330
1F
100
AcDbEntity
  8
0
  6
Continuous
 62
     7
370
    25
100
AcDbCircle
 10
44.5
 20
82.0
 30
0.0
 40
1.600000000009459
  0
CIRCLE
  5
A6
330
1F
100
AcDbEntity
  8
0
  6
Continuous
 62
     7
370
    25
100
AcDbCircle
 10
34.5
 20
82.0
 30
0.0
 40
1.60000000004225
  0
CIRCLE
  5
A7
330
1F
100
AcDbEntity
  8
0
  6
Continuous
 62
     7
370
    25
100
AcDbCircle
 10
4.5
 20
82.0
 30
0.0
 40
1.600000000042172
  0
CIRCLE
  5
A8
330
1F
100
AcDbEntity
  8
0
  6
Continuous
 62
     7
370
    25
100
AcDbCircle
 10
19.5
 20
82.0
 30
0.0
 40
1.600000000042211
  0
CIRCLE
  5
A9
330
1F
100
AcDbEntity
  8
0
  6
Continuous
 62
     7
370
    25
100
AcDbCircle
 10
27.0
 20
72.0
 30
0.0
 40
1.600000000042144
  0
CIRCLE
  5
AA
330
1F
100
AcDbEntity
  8
0
  6
Continuous
 62
     7
370
    25
100
AcDbCircle
 10
12.0
 20
72.0
 30
0.0
 40
1.60000000004209
  0
CIRCLE
  5
AB
330
1F
100
AcDbEntity
  8
0
  6
Continuous
 62
     7
370
    25
100
AcDbCircle
 10
-4.5
 20
82.0
 30
0.0
 40
1.600000000042122
  0
CIRCLE
  5
AC
330
1F
100
AcDbEntity
  8
0
  6
Continuous
 62
     7
370
    25
100
AcDbCircle
 10
0.0
 20
72.0
 30
0.0
 40
1.600000000042022
  0
CIRCLE
  5
AD
330
1F
100
AcDbEntity
  8
0
  6
Continuous
 62
     7
370
    25
100
AcDbCircle
 10
-12.0
 20
72.0
 30
0.0
 40
1.60000000004201
  0
CIRCLE
  5
AE
330
1F
100
AcDbEntity
  8
0
  6
Continuous
 62
     7
370
    25
100
AcDbCircle
 10
-19.5
 20
82.0
 30
0.0
 40
1.600000000042069
  0
CIRCLE
  5
AF
330
1F
100
AcDbEntity
  8
0
  6
Continuous
 62
     7
370
    25
100
AcDbCircle
 10
-27.0
 20
72.0
 30
0.0
 40
1.600000000041987
  0
CIRCLE
  5
B0
330
1F
100
AcDbEntity
  8
0
  6
Continuous
 62
     7
370
    25
100
AcDbCircle
 10
-34.5
 20
82.0
 30
0.0
 40
1.600000000042037
  0
CIRCLE
  5
B1
330
1F
100
AcDbEntity
  8
0
  6
Continuous
 62
     7
370
    25
100
AcDbCircle
 10
48.8538290725
 20
-59.3826859022
 30
0.0
 40
1.600000000024345
  0
CIRCLE
  5
B2
330
1F
100
AcDbEntity
  8
0
  6
Continuous
 62
     7
370
    25
100
AcDbCircle
 10
53.7640831104
 20
-70.8778764305
 30
0.0
 40
1.600000000024401
  0
CIRCLE
  5
B3
330
1F
100
AcDbEntity
  8
0
  6
Continuous
 62
     7
370
    25
100
AcDbCircle
 10
-53.7640831103
 20
-70.8778764306
 30
0.0
 40
1.600000000042257
  0
CIRCLE
  5
B4
330
1F
100
AcDbEntity
  8
0
  6
Continuous
 62
     7
370
    25
100
AcDbCircle
 10
-48.8538290724
 20
-59.3826859022
 30
0.0
 40
1.600000000042129
  0
CIRCLE
  5
B5
330
1F
100
AcDbEntity
  8
0
  6
Continuous
 62
     7
370
    25
100
AcDbCircle
 10
-62.3538290724
 20
-36.0
 30
0.0
 40
1.600000000042037
  0
CIRCLE
  5
B6
330
1F
100
AcDbEntity
  8
0
  6
Continuous
 62
     7
370
    25
100
AcDbCircle
 10
-56.3538290724
 20
-46.3923048454
 30
0.0
 40
1.600000000042101
  0
CIRCLE
  5
B7
330
1F
100
AcDbEntity
  8
0
  6
Continuous
 62
     7
370
    25
100
AcDbCircle
 10
-68.7640831103
 20
-44.8971143171
 30
0.0
 40
1.600000000042158
  0
CIRCLE
  5
B8
330
1F
100
AcDbEntity
  8
0
  6
Continuous
 62
     7
370
    25
100
AcDbCircle
 10
-61.2640831103
 20
-57.8874953738
 30
0.0
 40
1.600000000042193
  0
CIRCLE
  5
B9
330
1F
100
AcDbEntity
  8
0
  6
Continuous
 62
     7
370
    25
100
AcDbCircle
 10
68.3538290725
 20
-25.6076951546
 30
0.0
 40
1.600000000024423
  0
CIRCLE
  5
BA
330
1F
100
AcDbEntity
  8
0
  6
Continuous
 62
     7
370
    25
100
AcDbCircle
 10
73.2640831104
 20
-37.102885683
 30
0.0
 40
1.600000000024451
  0
CIRCLE
  5
BB
330
1F
100
AcDbEntity
  8
0
  6
Continuous
 62
     7
370
    25
100
AcDbCircle
 10
80.7640831104
 20
-24.1125046262
 30
0.0
 40
1.600000000024465
  0
CIRCLE
  5
BC
330
1F
100
AcDbEntity
  8
0
  6
Continuous
 62
     7
370
    25
100
AcDbCircle
 10
75.8538290725
 20
-12.6173140978
 30
0.0
 40
1.600000000024423
  0
CIRCLE
  5
BD
330
1F
100
AcDbEntity
  8
0
  6
Continuous
 62
     7
370
    25
100
AcDbCircle
 10
61.2640831104
 20
-57.8874953738
 30
0.0
 40
1.600000000024416
  0
CIRCLE
  5
BE
330
1F
100
AcDbEntity
  8
0
  6
Continuous
 62
     7
370
    25
100
AcDbCircle
 10
68.7640831104
 20
-44.897114317
 30
0.0
 40
1.600000000024437
  0
CIRCLE
  5
BF
330
1F
100
AcDbEntity
  8
0
  6
Continuous
 62
     7
370
    25
100
AcDbCircle
 10
56.3538290725
 20
-46.3923048454
 30
0.0
 40
1.600000000024387
  0
CIRCLE
  5
C0
330
1F
100
AcDbEntity
  8
0
  6
Continuous
 62
     7
370
    25
100
AcDbCircle
 10
62.3538290725
 20
-36.0
 30
0.0
 40
1.600000000024387
  0
CIRCLE
  5
C1
330
1F
100
AcDbEntity
  8
0
  6
Continuous
 62
     7
370
    25
100
AcDbCircle
 10
-48.7640831103
 20
-79.5381304684
 30
0.0
 40
1.60000000000948
  0
CIRCLE
  5
C2
330
1F
100
AcDbEntity
  8
0
  6
Continuous
 62
     7
370
    25
100
AcDbCircle
 10
48.7640831103
 20
-79.5381304684
 30
0.0
 40
1.599999999988533
  0
CIRCLE
  5
C3
330
1F
100
AcDbEntity
  8
0
  6
Continuous
 62
     7
370
    25
100
AcDbCircle
 10
93.2640831103
 20
-2.4618695316
 30
0.0
 40
1.600000000011221
  0
CIRCLE
  5
C4
330
1F
100
AcDbEntity
  8
0
  6
Continuous
 62
     7
370
    25
100
AcDbCircle
 10
-88.2640831103
 20
-11.1221235695
 30
0.0
 40
1.600000000042044
  0
CIRCLE
  5
C5
330
1F
100
AcDbEntity
  8
0
  6
Continuous
 62
     7
370
    25
100
AcDbCircle
 10
-68.3538290724
 20
-25.6076951546
 30
0.0
 40
1.600000000042016
  0
CIRCLE
  5
C6
330
1F
100
AcDbEntity
  8
0
  6
Continuous
 62
     7
370
    25
100
AcDbCircle
 10
-73.2640831103
 20
-37.102885683
 30
0.0
 40
1.600000000042144
  0
CIRCLE
  5
C7
330
1F
100
AcDbEntity
  8
0
  6
Continuous
 62
     7
370
    25
100
AcDbCircle
 10
-80.7640831103
 20
-24.1125046262
 30
0.0
 40
1.600000000042101
  0
CIRCLE
  5
C8
330
1F
100
AcDbEntity
  8
0
  6
Continuous
 62
     7
370
    25
100
AcDbCircle
 10
-75.8538290724
 20
-12.6173140978
 30
0.0
 40
1.600000000041945
  0
CIRCLE
  5
C9
330
1F
100
AcDbEntity
  8
0
  6
Continuous
 62
     7
370
    25
100
AcDbCircle
 10
-93.2640831103
 20
-2.4618695316
 30
0.0
 40
1.5999999999962
  0
CIRCLE
  5
CA
330
1F
100
AcDbEntity
  8
0
  6
Continuous
 62
     7
370
    25
100
AcDbCircle
 10
88.2640831104
 20
-11.1221235694
 30
0.0
 40
1.600000000024465
  0
CIRCLE
  5
CF
330
1F
100
AcDbEntity
  8
0
  6
Continuous
 62
     7
370
    25
100
AcDbCircle
 10
-0.0000000005
 20
-71.0
 30
0.0
 40
3.399999999999988
  0
CIRCLE
  5
D8
330
1F
100
AcDbEntity
  8
0
  6
Continuous
 62
     7
370
    25
100
AcDbCircle
 10
-61.4878036684
 20
35.5000000005
 30
0.0
 40
3.40000000000002
  0
CIRCLE
  5
E5
330
1F
100
AcDbEntity
  8
0
  6
Continuous
 62
     7
370
    25
100
AcDbCircle
 10
61.487803669
 20
35.4999999995
 30
0.0
 40
3.40000000000002
  0
SPLINE
  5
F2
330
1F
100
AcDbEntity
  8
0
  6
Continuous
 62
     7
370
    25
100
AcDbSpline
210
0.0
220
0.0
230
1.0
 70
     8
 71
     3
 72
    23
 73
    19
 74
     0
 42
0.000000001
 43
0.00000001
 40
0.0
 40
0.0
 40
0.0
 40
0.0
 40
0.1016082862662983
 40
0.196696246777722
 40
0.2853784407765347
 40
0.3681279444037769
 40
0.4447503780663397
 40
0.5146552089778995
 40
0.5799267169382775
 40
0.6388726949222537
 40
0.6939421852557172
 40
0.7437453202227007
 40
0.7899300770690155
 40
0.8331618106418178
 40
0.8746632322044657
 40
0.915166564487118
 40
0.9569414744889386
 40
1.0
 40
1.0
 40
1.0
 40
1.0
 10
77.43059237186777
 20
46.19168502210316
 30
0.0
 10
77.41139958610654
 20
46.22531843900568
 30
0.0
 10
77.37424563869567
 20
46.29042697605642
 30
0.0
 10
77.32399685659915
 20
46.38691769856148
 30
0.0
 10
77.28066142493911
 20
46.47879358834676
 30
0.0
 10
77.24266768826726
 20
46.56537532600304
 30
0.0
 10
77.21173607140294
 20
46.64715585798273
 30
0.0
 10
77.1874951943824
 20
46.72414791089981
 30
0.0
 10
77.16834853499162
 20
46.79573053807969
 30
0.0
 10
77.15843594714839
 20
46.86339164495509
 30
0.0
 10
77.1514213368211
 20
46.92551476366359
 30
0.0
 10
77.15340914013008
 20
46.98327586113906
 30
0.0
 10
77.16217433748884
 20
47.03570038677729
 30
0.0
 10
77.17625563715188
 20
47.08379173445272
 30
0.0
 10
77.19795868740769
 20
47.12653636889308
 30
0.0
 10
77.2251802668018
 20
47.16533307088655
 30
0.0
 10
77.26039096819285
 20
47.19816028025851
 30
0.0
 10
77.28755899265806
 20
47.21574548824663
 30
0.0
 10
77.30134854470728
 20
47.22467113321427
 30
0.0
  0
SPLINE
  5
F3
330
1F
100
AcDbEntity
  8
0
  6
Continuous
 62
     7
370
    25
100
AcDbSpline
210
0.0
220
0.0
230
1.0
 70
     8
 71
     3
 72
    23
 73
    19
 74
     0
 42
0.000000001
 43
0.00000001
 40
0.0
 40
0.0
 40
0.0
 40
0.0
 40
0.0443133042895786
 40
0.0938731087181682
 40
0.1486794192455106
 40
0.2081689835502221
 40
0.2734683184082612
 40
0.3434506496715644
 40
0.4192430194386421
 40
0.4997181947391931
 40
0.5807570846435749
 40
0.6559858303064507
 40
0.7265316815917346
 40
0.7918310164497738
 40
0.8513205807544852
 40
0.9061268912818278
 40
0.9556866957104173
 40
1.0
 40
1.0
 40
1.0
 40
1.0
 10
78.17133311260852
 20
44.90792730605377
 30
0.0
 10
78.16040278120033
 20
44.92689635855854
 30
0.0
 10
78.1372480152659
 20
44.96708031587359
 30
0.0
 10
78.10055896221995
 20
45.03071584046013
 30
0.0
 10
78.06036892484482
 20
45.10098799179695
 30
0.0
 10
78.01537383413476
 20
45.17746376191847
 30
0.0
 10
77.9678315821697
 20
45.2611276766608
 30
0.0
 10
77.91505196128273
 20
45.35106757557835
 30
0.0
 10
77.85981573235856
 20
45.44824670840941
 30
0.0
 10
77.80060936011847
 20
45.54944157065753
 30
0.0
 10
77.74279966888402
 20
45.6511206874917
 30
0.0
 10
77.68624051911544
 20
45.74785781292805
 30
0.0
 10
77.63441758456203
 20
45.83835006922214
 30
0.0
 10
77.5865080445067
 20
45.92212338694821
 30
0.0
 10
77.54156683354694
 20
45.99863026882063
 30
0.0
 10
77.50136415043232
 20
46.06889511813591
 30
0.0
 10
77.46467796730172
 20
46.13253229989589
 30
0.0
 10
77.44152286300273
 20
46.17271606182931
 30
0.0
 10
77.43059237186777
 20
46.19168502210316
 30
0.0
  0
SPLINE
  5
F4
330
1F
100
AcDbEntity
  8
0
  6
Continuous
 62
     7
370
    25
100
AcDbSpline
210
0.0
220
0.0
230
1.0
 70
     8
 71
     3
 72
    15
 73
    11
 74
     0
 42
0.000000001
 43
0.00000001
 40
0.0
 40
0.0
 40
0.0
 40
0.0
 40
0.0939632628488409
 40
0.209280102103238
 40
0.3444001078039534
 40
0.5006524159398159
 40
0.6569047240756782
 40
0.7916983642756675
 40
0.9060367371511495
 40
1.0
 40
1.0
 40
1.0
 40
1.0
 10
78.77318496446037
 20
43.7244782319797
 30
0.0
 10
78.75266714598695
 20
43.76066649065218
 30
0.0
 10
78.70696874200578
 20
43.84126695343194
 30
0.0
 10
78.63821113923072
 20
43.9773712074668
 30
0.0
 10
78.55584903156775
 20
44.13746088881562
 30
0.0
 10
78.47137524980828
 20
44.31672542799687
 30
0.0
 10
78.38650092406412
 20
44.49562792724494
 30
0.0
 10
78.30555078820076
 20
44.65577847066728
 30
0.0
 10
78.23739330956877
 20
44.79154580781111
 30
0.0
 10
78.19186884692674
 20
44.87174849282822
 30
0.0
 10
78.17133311260852
 20
44.90792730605377
 30
0.0
  0
SPLINE
  5
F5
330
1F
100
AcDbEntity
  8
0
  6
Continuous
 62
     7
370
    25
100
AcDbSpline
210
0.0
220
0.0
230
1.0
 70
     8
 71
     3
 72
    15
 73
    11
 74
     0
 42
0.000000001
 43
0.00000001
 40
0.0
 40
0.0
 40
0.0
 40
0.0
 40
0.1305007456665629
 40
0.2480295858079318
 40
0.3569534582262235
 40
0.4647950879680078
 40
0.5774094348179694
 40
0.7016278783621325
 40
0.8412100692786765
 40
1.0
 40
1.0
 40
1.0
 40
1.0
 10
79.56408002618876
 20
43.42741033074513
 30
0.0
 10
79.52680962616586
 20
43.40782419022299
 30
0.0
 10
79.45597354141124
 20
43.37059879126862
 30
0.0
 10
79.34362929924383
 20
43.34169870935369
 30
0.0
 10
79.23509291070074
 20
43.33888579866424
 30
0.0
 10
79.13081132576401
 20
43.36392632574599
 30
0.0
 10
79.0320623584683
 20
43.4165744140131
 30
0.0
 10
78.93878990918907
 20
43.49490150161455
 30
0.0
 10
78.85047681208849
 20
43.59914162472846
 30
0.0
 10
78.80003139028868
 20
43.68094401674997
 30
0.0
 10
78.77318496446037
 20
43.7244782319797
 30
0.0
  0
SPLINE
  5
F6
330
1F
100
AcDbEntity
  8
0
  6
Continuous
 62
     7
370
    25
100
AcDbSpline
210
0.0
220
0.0
230
1.0
 70
     8
 71
     3
 72
    11
 73
     7
 74
     0
 42
0.000000001
 43
0.00000001
 40
0.0
 40
0.0
 40
0.0
 40
0.0
 40
0.2357759906223082
 40
0.4736150021636611
 40
0.725880152541408
 40
1.0
 40
1.0
 40
1.0
 40
1.0
 10
79.8360707669295
 20
43.75341341716489
 30
0.0
 10
79.82498955998454
 20
43.72088341418443
 30
0.0
 10
79.80273018642679
 20
43.65553877331871
 30
0.0
 10
79.74157609126655
 20
43.56840027616362
 30
0.0
 10
79.66257964600733
 20
43.48959804906136
 30
0.0
 10
79.59780961685655
 20
43.4487055021096
 30
0.0
 10
79.56408002618876
 20
43.42741033074513
 30
0.0
  0
SPLINE
  5
F7
330
1F
100
AcDbEntity
  8
0
  6
Continuous
 62
     7
370
    25
100
AcDbSpline
210
0.0
220
0.0
230
1.0
 70
     8
 71
     3
 72
    11
 73
     7
 74
     0
 42
0.000000001
 43
0.00000001
 40
0.0
 40
0.0
 40
0.0
 40
0.0
 40
0.2579500366648928
 40
0.500729967841592
 40
0.7455576870417918
 40
1.0
 40
1.0
 40
1.0
 40
1.0
 10
79.79266798915172
 20
44.0958131085229
 30
0.0
 10
79.80684942871693
 20
44.06866853824404
 30
0.0
 10
79.8343782938772
 20
44.01597577658157
 30
0.0
 10
79.85312612337792
 20
43.92902580738371
 30
0.0
 10
79.85621628608358
 20
43.84057523910186
 30
0.0
 10
79.8428716008584
 20
43.78283797909356
 30
0.0
 10
79.8360707669295
 20
43.75341341716489
 30
0.0
  0
SPLINE
  5
F8
330
1F
100
AcDbEntity
  8
0
  6
Continuous
 62
     7
370
    25
100
AcDbSpline
210
0.0
220
0.0
230
1.0
 70
     8
 71
     3
 72
    11
 73
     7
 74
     0
 42
0.000000001
 43
0.00000001
 40
0.0
 40
0.0
 40
0.0
 40
0.0
 40
0.2091648597068755
 40
0.4986271935223032
 40
0.7908351402930958
 40
0.9999999999999999
 40
0.9999999999999999
 40
0.9999999999999999
 40
0.9999999999999999
 10
79.67789175458383
 20
44.26363718259698
 30
0.0
 10
79.68553290734664
 20
44.25169156039642
 30
0.0
 10
79.70374861797191
 20
44.22321444391956
 30
0.0
 10
79.73466438855193
 20
44.17940227106821
 30
0.0
 10
79.76690087085709
 20
44.13652762752068
 30
0.0
 10
79.78508278158338
 20
44.10779846420424
 30
0.0
 10
79.79266798915172
 20
44.0958131085229
 30
0.0
  0
SPLINE
  5
FA
330
1F
100
AcDbEntity
  8
0
  6
Continuous
 62
     7
370
    25
100
AcDbSpline
210
0.0
220
0.0
230
1.0
 70
     8
 71
     3
 72
    15
 73
    11
 74
     0
 42
0.000000001
 43
0.00000001
 40
0.0
 40
0.0
 40
0.0
 40
0.0
 40
0.1591102094866574
 40
0.3093460499669118
 40
0.4479123101144724
 40
0.5776303650054883
 40
0.6985204987259841
 40
0.8088507570243997
 40
0.9093379657245744
 40
1.0
 40
1.0
 40
1.0
 40
1.0
 10
78.60825440890483
 20
46.00360631839946
 30
0.0
 10
78.63211584001947
 20
45.97118567577773
 30
0.0
 10
78.67850783136741
 20
45.90815265127997
 30
0.0
 10
78.74452636891787
 20
45.81604659357501
 30
0.0
 10
78.80585086974733
 20
45.72972576756464
 30
0.0
 10
78.86176236461564
 20
45.64867859839912
 30
0.0
 10
78.91282918191649
 20
45.57296814661451
 30
0.0
 10
78.95807902546247
 20
45.50228674587818
 30
0.0
 10
78.99875049498392
 20
45.43775793297374
 30
0.0
 10
79.02369803295595
 20
45.39632766903924
 30
0.0
 10
79.03553064347271
 20
45.37667730605377
 30
0.0
  0
SPLINE
  5
FB
330
1F
100
AcDbEntity
  8
0
  6
Continuous
 62
     7
370
    25
100
AcDbSpline
210
0.0
220
0.0
230
1.0
 70
     8
 71
     3
 72
    15
 73
    11
 74
     0
 42
0.000000001
 43
0.00000001
 40
0.0
 40
0.0
 40
0.0
 40
0.0
 40
0.1425478151295764
 40
0.2798693646617316
 40
0.4125605273607644
 40
0.5394668010345173
 40
0.66184274718854
 40
0.7797510056891679
 40
0.8920380134399093
 40
1.0
 40
1.0
 40
1.0
 40
1.0
 10
80.29710471754679
 20
45.62841341716488
 30
0.0
 10
80.21571518013626
 20
45.64064027374832
 30
0.0
 10
80.0559201099383
 20
45.6646457106658
 30
0.0
 10
79.82120739095457
 20
45.70534645695093
 30
0.0
 10
79.5961695994639
 20
45.74868228155374
 30
0.0
 10
79.3803117418318
 20
45.79391927489315
 30
0.0
 10
79.17382373746555
 20
45.84205001047599
 30
0.0
 10
78.97677113801474
 20
45.89314450746753
 30
0.0
 10
78.7887422688999
 20
45.94583432646991
 30
0.0
 10
78.66762423213054
 20
45.98460275246239
 30
0.0
 10
78.60825440890481
 20
46.00360631839945
 30
0.0
  0
SPLINE
  5
FC
330
1F
100
AcDbEntity
  8
0
  6
Continuous
 62
     7
370
    25
100
AcDbSpline
210
0.0
220
0.0
230
1.0
 70
     8
 71
     3
 72
     9
 73
     5
 74
     0
 42
0.000000001
 43
0.00000001
 40
0.0
 40
0.0
 40
0.0
 40
0.0
 40
0.5001670541755981
 40
1.0
 40
1.0
 40
1.0
 40
1.0
 10
82.00331613729988
 20
45.40175446654759
 30
0.0
 10
81.71875392378284
 20
45.43880110256985
 30
0.0
 10
81.14981958246348
 20
45.51286962770155
 30
0.0
 10
80.58127968787676
 20
45.58990740033151
 30
0.0
 10
80.2971047175468
 20
45.62841341716489
 30
0.0
  0
SPLINE
  5
FD
330
1F
100
AcDbEntity
  8
0
  6
Continuous
 62
     7
370
    25
100
AcDbSpline
210
0.0
220
0.0
230
1.0
 70
     8
 71
     3
 72
    15
 73
    11
 74
     0
 42
0.000000001
 43
0.00000001
 40
0.0
 40
0.0
 40
0.0
 40
0.0
 40
0.0586285270404671
 40
0.1353373487577762
 40
0.2317626668340118
 40
0.347913816954581
 40
0.4821873615403541
 40
0.6359822479895224
 40
0.8081215305821926
 40
1.0
 40
1.0
 40
1.0
 40
1.0
 10
82.59262940890481
 20
45.32555847889327
 30
0.0
 10
82.58105028206622
 20
45.3264684960939
 30
0.0
 10
82.55432117242678
 20
45.32856916826624
 30
0.0
 10
82.50868639710471
 20
45.33365820089674
 30
0.0
 10
82.45178279195946
 20
45.34042961078938
 30
0.0
 10
82.38360821383124
 20
45.34900991366408
 30
0.0
 10
82.30430271326871
 20
45.3600975396177
 30
0.0
 10
82.2137729783505
 20
45.37091293170722
 30
0.0
 10
82.11230331649125
 20
45.3859965674327
 30
0.0
 10
82.04093519697918
 20
45.39631531901097
 30
0.0
 10
82.00331613729988
 20
45.40175446654759
 30
0.0
  0
SPLINE
  5
FE
330
1F
100
AcDbEntity
  8
0
  6
Continuous
 62
     7
370
    25
100
AcDbSpline
210
0.0
220
0.0
230
1.0
 70
     8
 71
     3
 72
    11
 73
     7
 74
     0
 42
0.000000001
 43
0.00000001
 40
0.0
 40
0.0
 40
0.0
 40
0.0
 40
0.2049882116275416
 40
0.4372529799463727
 40
0.7008375837605247
 40
1.0
 40
1.0
 40
1.0
 40
1.0
 10
83.15493650767026
 20
45.41911557765871
 30
0.0
 10
83.1194481740873
 20
45.40164915178884
 30
0.0
 10
83.04374928638407
 20
45.36439214710563
 30
0.0
 10
82.91104317480334
 20
45.33511568176414
 30
0.0
 10
82.75853029827292
 20
45.32117853396233
 30
0.0
 10
82.65021238552599
 20
45.3240382322718
 30
0.0
 10
82.59262940890481
 20
45.32555847889327
 30
0.0
  0
SPLINE
  5
FF
330
1F
100
AcDbEntity
  8
0
  6
Continuous
 62
     7
370
    25
100
AcDbSpline
210
0.0
220
0.0
230
1.0
 70
     8
 71
     3
 72
    11
 73
     7
 74
     0
 42
0.000000001
 43
0.00000001
 40
0.0
 40
0.0
 40
0.0
 40
0.0
 40
0.2503465722531101
 40
0.4876312421931464
 40
0.7357043925848963
 40
1.0
 40
1.0
 40
1.0
 40
1.0
 10
83.35169576692951
 20
45.70846742951056
 30
0.0
 10
83.34642350705029
 20
45.67844860034698
 30
0.0
 10
83.33615406892326
 20
45.61997718281378
 30
0.0
 10
83.29525729662066
 20
45.53932641595934
 30
0.0
 10
83.2342234479625
 20
45.47047989517653
 30
0.0
 10
83.18191751900922
 20
45.43659463824874
 30
0.0
 10
83.15493650767026
 20
45.41911557765871
 30
0.0
  0
SPLINE
  5
100
330
1F
100
AcDbEntity
  8
0
  6
Continuous
 62
     7
370
    25
100
AcDbSpline
210
0.0
220
0.0
230
1.0
 70
     8
 71
     3
 72
    11
 73
     7
 74
     0
 42
0.000000001
 43
0.00000001
 40
0.0
 40
0.0
 40
0.0
 40
0.0
 40
0.2726744928148332
 40
0.5269872810583475
 40
0.7659686215769012
 40
1.0
 40
1.0
 40
1.0
 40
1.0
 10
83.2687482360653
 20
46.05954767642414
 30
0.0
 10
83.28445892866976
 20
46.03005786284916
 30
0.0
 10
83.31482236711864
 20
45.97306405857225
 30
0.0
 10
83.34394505563742
 20
45.88354864951582
 30
0.0
 10
83.35785585297094
 20
45.79498281999076
 30
0.0
 10
83.35373475351162
 20
45.73710399710848
 30
0.0
 10
83.35169576692952
 20
45.70846742951057
 30
0.0
  0
SPLINE
  5
101
330
1F
100
AcDbEntity
  8
0
  6
Continuous
 62
     7
370
    25
100
AcDbSpline
210
0.0
220
0.0
230
1.0
 70
     8
 71
     3
 72
    23
 73
    19
 74
     0
 42
0.000000001
 43
0.00000001
 40
0.0
 40
0.0
 40
0.0
 40
0.0
 40
0.0441766645621701
 40
0.0936170083673208
 40
0.1484854216174768
 40
0.2083357878978616
 40
0.2734495601336826
 40
0.3438267981176613
 40
0.4193519335697606
 40
0.5001402381879975
 40
0.5809285428062367
 40
0.6564536782583336
 40
0.7265494623015868
 40
0.7918291422608708
 40
0.851514578382521
 40
0.9063829916326793
 40
0.955823335437828
 40
1.0
 40
1.0
 40
1.0
 40
1.0
 10
81.7718346558184
 20
48.60680847889327
 30
0.0
 10
81.79371396228588
 20
48.56920272573094
 30
0.0
 10
81.84007950927626
 20
48.48951046866833
 30
0.0
 10
81.91325282474463
 20
48.36289759889716
 30
0.0
 10
81.99517050279404
 20
48.22351428295114
 30
0.0
 10
82.08506108938687
 20
48.07091365849684
 30
0.0
 10
82.18253694832026
 20
47.90505421049515
 30
0.0
 10
82.28722968528336
 20
47.72552985380348
 30
0.0
 10
82.40154427608468
 20
47.53375790390774
 30
0.0
 10
82.5202868484603
 20
47.33269313613919
 30
0.0
 10
82.63905640669479
 20
47.13164414867889
 30
0.0
 10
82.75315511803812
 20
46.94006705580738
 30
0.0
 10
82.85803686905791
 20
46.76078506772016
 30
0.0
 10
82.95681601452392
 20
46.5960141071025
 30
0.0
 10
83.0452092815366
 20
46.44253450151616
 30
0.0
 10
83.12739563431779
 20
46.303496997766
 30
0.0
 10
83.2004896459386
 20
46.17683763298494
 30
0.0
 10
83.24686452562051
 20
46.09715084758099
 30
0.0
 10
83.2687482360653
 20
46.05954767642414
 30
0.0
  0
SPLINE
  5
102
330
1F
100
AcDbEntity
  8
0
  6
Continuous
 62
     7
370
    25
100
AcDbSpline
210
0.0
220
0.0
230
1.0
 70
     8
 71
     3
 72
    15
 73
    11
 74
     0
 42
0.000000001
 43
0.00000001
 40
0.0
 40
0.0
 40
0.0
 40
0.0
 40
0.0942591275984809
 40
0.2091365304279522
 40
0.3438598934334489
 40
0.5007718615194992
 40
0.656154866406325
 40
0.7916695469542141
 40
0.9057408724015069
 40
1.0
 40
1.0
 40
1.0
 40
1.0
 10
81.50948897680605
 20
49.1054581702513
 30
0.0
 10
81.51820941067507
 20
49.09004847079111
 30
0.0
 10
81.53755778923168
 20
49.055858348708
 30
0.0
 10
81.56840184384261
 20
48.9990994390123
 30
0.0
 10
81.60312180266433
 20
48.93108166268248
 30
0.0
 10
81.64051391454224
 20
48.85590087913443
 30
0.0
 10
81.67808585947385
 20
48.78062868711038
 30
0.0
 10
81.71427725760924
 20
48.71371417366893
 30
0.0
 10
81.74360269230611
 20
48.65614994744025
 30
0.0
 10
81.76304016842928
 20
48.62217874964009
 30
0.0
 10
81.77183465581841
 20
48.60680847889328
 30
0.0
  0
SPLINE
  5
103
330
1F
100
AcDbEntity
  8
0
  6
Continuous
 62
     7
370
    25
100
AcDbSpline
210
0.0
220
0.0
230
1.0
 70
     8
 71
     3
 72
    11
 73
     7
 74
     0
 42
0.000000001
 43
0.00000001
 40
0.0
 40
0.0
 40
0.0
 40
0.0
 40
0.2518502835561438
 40
0.4938596434870794
 40
0.7421792090706392
 40
1.0
 40
1.0
 40
1.0
 40
1.0
 10
81.23846274223814
 20
49.32536557765871
 30
0.0
 10
81.26659798484889
 20
49.31481905026313
 30
0.0
 10
81.32176909956422
 20
49.29413809574495
 30
0.0
 10
81.3962545955483
 20
49.24524492617021
 30
0.0
 10
81.4596075041979
 20
49.18168988024252
 30
0.0
 10
81.49265503078198
 20
49.13118476620405
 30
0.0
 10
81.50948897680605
 20
49.1054581702513
 30
0.0
  0
SPLINE
  5
104
330
1F
100
AcDbEntity
  8
0
  6
Continuous
 62
     7
370
    25
100
AcDbSpline
210
0.0
220
0.0
230
1.0
 70
     8
 71
     3
 72
    11
 73
     7
 74
     0
 42
0.000000001
 43
0.00000001
 40
0.0
 40
0.0
 40
0.0
 40
0.0
 40
0.2725329340363156
 40
0.522740156912717
 40
0.7592454868547774
 40
0.9999999999999999
 40
0.9999999999999999
 40
0.9999999999999999
 40
0.9999999999999999
 10
80.82083156939865
 20
49.25688563938711
 30
0.0
 10
80.85553967368183
 20
49.27637626170537
 30
0.0
 10
80.92211261813459
 20
49.31376084792061
 30
0.0
 10
81.02933951369104
 20
49.34422979847422
 30
0.0
 10
81.13651141137518
 20
49.35090254913052
 30
0.0
 10
81.20427785051089
 20
49.33392827710968
 30
0.0
 10
81.23846274223816
 20
49.32536557765872
 30
0.0
  0
SPLINE
  5
105
330
1F
100
AcDbEntity
  8
0
  6
Continuous
 62
     7
370
    25
100
AcDbSpline
210
0.0
220
0.0
230
1.0
 70
     8
 71
     3
 72
    15
 73
    11
 74
     0
 42
0.000000001
 43
0.00000001
 40
0.0
 40
0.0
 40
0.0
 40
0.0
 40
0.148030477695467
 40
0.2827806404566015
 40
0.4079539878646369
 40
0.5267372871052837
 40
0.6394833998321273
 40
0.7535401507288002
 40
0.8728571388535971
 40
1.0
 40
1.0
 40
1.0
 40
1.0
 10
80.64239792742333
 20
48.69361403444883
 30
0.0
 10
80.63492252820399
 20
48.72433660193029
 30
0.0
 10
80.62064237311817
 20
48.7830255114314
 30
0.0
 10
80.61147334022259
 20
48.8699300114826
 30
0.0
 10
80.61491334304951
 20
48.95102459506241
 30
0.0
 10
80.6312016099694
 20
49.02578980709636
 30
0.0
 10
80.65968553657393
 20
49.0943316583574
 30
0.0
 10
80.70124708242214
 20
49.15586442802326
 30
0.0
 10
80.75476807802279
 20
49.21189950603455
 30
0.0
 10
80.79834912728398
 20
49.24157615274028
 30
0.0
 10
80.82083156939865
 20
49.25688563938711
 30
0.0
  0
SPLINE
  5
106
330
1F
100
AcDbEntity
  8
0
  6
Continuous
 62
     7
370
    25
100
AcDbSpline
210
0.0
220
0.0
230
1.0
 70
     8
 71
     3
 72
    15
 73
    11
 74
     0
 42
0.000000001
 43
0.00000001
 40
0.0
 40
0.0
 40
0.0
 40
0.0
 40
0.1754846068835893
 40
0.3363335770680839
 40
0.4840758029019217
 40
0.6152975888950133
 40
0.7327905108080358
 40
0.8366710922938753
 40
0.925675075255512
 40
1.0
 40
1.0
 40
1.0
 40
1.0
 10
80.91921119902827
 20
48.1313069356834
 30
0.0
 10
80.90068782430306
 20
48.16302450742143
 30
0.0
 10
80.86518594757814
 20
48.22381436556346
 30
0.0
 10
80.81722566209277
 20
48.31307020982527
 30
0.0
 10
80.77408060318517
 20
48.39437836332721
 30
0.0
 10
80.7359299400952
 20
48.46806723782497
 30
0.0
 10
80.70394397925747
 20
48.5345921801792
 30
0.0
 10
80.67804101308022
 20
48.59416508827822
 30
0.0
 10
80.65727232849964
 20
48.64613526493757
 30
0.0
 10
80.64704981428422
 20
48.67876531126817
 30
0.0
 10
80.64239792742333
 20
48.69361403444883
 30
0.0
  0
SPLINE
  5
107
330
1F
100
AcDbEntity
  8
0
  6
Continuous
 62
     7
370
    25
100
AcDbSpline
210
0.0
220
0.0
230
1.0
 70
     8
 71
     3
 72
    15
 73
    11
 74
     0
 42
0.000000001
 43
0.00000001
 40
0.0
 40
0.0
 40
0.0
 40
0.0
 40
0.1525234270125979
 40
0.297669221674098
 40
0.434985320499246
 40
0.564197455083813
 40
0.6853056416465693
 40
0.7978616957241785
 40
0.9026106962708322
 40
1.0
 40
1.0
 40
1.0
 40
1.0
 10
81.50659545828753
 20
47.17451681222661
 30
0.0
 10
81.47604558928211
 20
47.22273735556849
 30
0.0
 10
81.41642356329432
 20
47.3168459911166
 30
0.0
 10
81.32941742045863
 20
47.45444691664413
 30
0.0
 10
81.24878783724888
 20
47.58574115672921
 30
0.0
 10
81.17255216426308
 20
47.7091731175158
 30
0.0
 10
81.10112578798086
 20
47.82468370929131
 30
0.0
 10
81.03522308258017
 20
47.93284645109861
 30
0.0
 10
80.97547616454341
 20
48.03434835416011
 30
0.0
 10
80.93750535846273
 20
48.09978153203858
 30
0.0
 10
80.91921119902827
 20
48.1313069356834
 30
0.0
  0
SPLINE
  5
108
330
1F
100
AcDbEntity
  8
0
  6
Continuous
 62
     7
370
    25
100
AcDbSpline
210
0.0
220
0.0
230
1.0
 70
     8
 71
     3
 72
    15
 73
    11
 74
     0
 42
0.000000001
 43
0.00000001
 40
0.0
 40
0.0
 40
0.0
 40
0.0
 40
0.061118933493615
 40
0.1409012450133333
 40
0.2378991962341567
 40
0.3544583012504892
 40
0.4882361886866396
 40
0.6406727729365188
 40
0.8107808283945073
 40
1.0
 40
1.0
 40
1.0
 40
1.0
 10
82.10941181631222
 20
46.21386866407846
 30
0.0
 10
82.09715712057019
 20
46.23345707380794
 30
0.0
 10
82.06890561504466
 20
46.27861544227
 30
0.0
 10
82.02221813578699
 20
46.355486295757
 30
0.0
 10
81.96386107652859
 20
46.44978659338601
 30
0.0
 10
81.89379104772708
 20
46.56083706973636
 30
0.0
 10
81.81220870396774
 20
46.6894046393769
 30
0.0
 10
81.72134089057397
 20
46.83604682615237
 30
0.0
 10
81.61740159408748
 20
46.9992276498188
 30
0.0
 10
81.54481764929226
 20
47.11405142555611
 30
0.0
 10
81.50659545828753
 20
47.17451681222661
 30
0.0
  0
SPLINE
  5
10A
330
1F
100
AcDbEntity
  8
0
  6
Continuous
 62
     7
370
    25
100
AcDbSpline
210
0.0
220
0.0
230
1.0
 70
     8
 71
     3
 72
     9
 73
     5
 74
     0
 42
0.000000001
 43
0.00000001
 40
0.0
 40
0.0
 40
0.0
 40
0.0
 40
0.499264778777436
 40
1.0
 40
1.0
 40
1.0
 40
1.0
 10
80.23634082865792
 20
46.45499520728834
 30
0.0
 10
80.54464725505474
 20
46.41501970605393
 30
0.0
 10
81.16216813676363
 20
46.33495096711282
 30
0.0
 10
81.77985807754065
 20
46.25619704513879
 30
0.0
 10
82.0891571866826
 20
46.21676218259698
 30
0.0
  0
SPLINE
  5
10B
330
1F
100
AcDbEntity
  8
0
  6
Continuous
 62
     7
370
    25
100
AcDbSpline
210
0.0
220
0.0
230
1.0
 70
     8
 71
     3
 72
    15
 73
    11
 74
     0
 42
0.000000001
 43
0.00000001
 40
0.0
 40
0.0
 40
0.0
 40
0.0
 40
0.0937658482864061
 40
0.1960095237909721
 40
0.3066509613398832
 40
0.4268542328586266
 40
0.5561421563077376
 40
0.6946518885027113
 40
0.8425814139387025
 40
1.0
 40
1.0
 40
1.0
 40
1.0
 10
78.43560780396655
 20
46.89288100975747
 30
0.0
 10
78.48904440006605
 20
46.87004471551084
 30
0.0
 10
78.60074905528847
 20
46.82230738638476
 30
0.0
 10
78.78072207327654
 20
46.76100930102839
 30
0.0
 10
78.9781446789727
 20
46.7008651288883
 30
0.0
 10
79.19404401339521
 20
46.64430047380608
 30
0.0
 10
79.42858897446786
 20
46.59142891325146
 30
0.0
 10
79.6815440912898
 20
46.54276205110294
 30
0.0
 10
79.95261146804954
 20
46.49629922205278
 30
0.0
 10
80.13982507891473
 20
46.46904552602817
 30
0.0
 10
80.23634082865792
 20
46.45499520728834
 30
0.0
  0
SPLINE
  5
10C
330
1F
100
AcDbEntity
  8
0
  6
Continuous
 62
     7
370
    25
100
AcDbSpline
210
0.0
220
0.0
230
1.0
 70
     8
 71
     3
 72
    11
 73
     7
 74
     0
 42
0.000000001
 43
0.00000001
 40
0.0
 40
0.0
 40
0.0
 40
0.0
 40
0.2130921236672227
 40
0.45229923195806
 40
0.713511783936696
 40
1.0
 40
1.0
 40
1.0
 40
1.0
 10
77.98421891507768
 20
47.13111403444884
 30
0.0
 10
78.01597536977647
 20
47.11361781552357
 30
0.0
 10
78.08338011389743
 20
47.0764811713066
 30
0.0
 10
78.1912529920174
 20
47.02077798765694
 30
0.0
 10
78.30887096412017
 20
46.95679099422938
 30
0.0
 10
78.39208216187714
 20
46.91482982206363
 30
0.0
 10
78.43560780396655
 20
46.89288100975747
 30
0.0
  0
SPLINE
  5
10D
330
1F
100
AcDbEntity
  8
0
  6
Continuous
 62
     7
370
    25
100
AcDbSpline
210
0.0
220
0.0
230
1.0
 70
     8
 71
     3
 72
    15
 73
    11
 74
     0
 42
0.000000001
 43
0.00000001
 40
0.0
 40
0.0
 40
0.0
 40
0.0
 40
0.0918287537458562
 40
0.1874389183102173
 40
0.2915954309236827
 40
0.4066172504927088
 40
0.5331570200752028
 40
0.6737024367492753
 40
0.829636610798776
 40
1.0
 40
1.0
 40
1.0
 40
1.0
 10
77.30134854470728
 20
47.22467113321427
 30
0.0
 10
77.32095566415785
 20
47.23454166591048
 30
0.0
 10
77.360977303471
 20
47.25468918938491
 30
0.0
 10
77.42957743988701
 20
47.269144979141
 30
0.0
 10
77.50454204047779
 20
47.2736621488273
 30
0.0
 10
77.58695110607522
 20
47.26762718009196
 30
0.0
 10
77.67624321528675
 20
47.24921275473579
 30
0.0
 10
77.77307147675756
 20
47.22103744418024
 30
0.0
 10
77.87702308559025
 20
47.18118934851665
 30
0.0
 10
77.94744887159113
 20
47.14829074257898
 30
0.0
 10
77.98421891507766
 20
47.13111403444884
 30
0.0
  0
LINE
  5
10E
330
1F
100
AcDbEntity
  8
0
  6
Continuous
 62
     7
370
    25
100
AcDbLine
 10
-1.3271604938
 20
-90.2797067901
 30
0.0
 11
-1.0754243827
 21
-90.6712962963
 31
0.0
  0
LINE
  5
10F
330
1F
100
AcDbEntity
  8
0
  6
Continuous
 62
     7
370
    25
100
AcDbLine
 10
19.5799999989
 20
-71.0
 30
0.0
 11
19.5799999989
 21
-37.0
 31
0.0
  0
LINE
  5
110
330
1F
100
AcDbEntity
  8
0
  6
Continuous
 62
     7
370
    25
100
AcDbLine
 10
19.5799999989
 20
-37.0
 30
0.0
 11
12.6999999989
 21
-37.0
 31
0.0
  0
LINE
  5
111
330
1F
100
AcDbEntity
  8
0
  6
Continuous
 62
     7
370
    25
100
AcDbLine
 10
12.6999999989
 20
-37.0
 30
0.0
 11
12.6999999989
 21
-71.0
 31
0.0
  0
LINE
  5
112
330
1F
100
AcDbEntity
  8
0
  6
Continuous
 62
     7
370
    25
100
AcDbLine
 10
12.6999999989
 20
-71.0
 30
0.0
 11
19.5799999989
 21
-71.0
 31
0.0
  0
LINE
  5
113
330
1F
100
AcDbEntity
  8
0
  6
Continuous
 62
     7
370
    25
100
AcDbLine
 10
-55.1378036687
 20
46.4985226281
 30
0.0
 11
-25.69293994
 21
29.4985226281
 31
0.0
  0
LINE
  5
114
330
1F
100
AcDbEntity
  8
0
  6
Continuous
 62
     7
370
    25
100
AcDbLine
 10
-25.69293994
 20
29.4985226281
 30
0.0
 11
-22.25293994
 21
35.4567774061
 31
0.0
  0
LINE
  5
115
330
1F
100
AcDbEntity
  8
0
  6
Continuous
 62
     7
370
    25
100
AcDbLine
 10
-22.25293994
 20
35.4567774061
 30
0.0
 11
-51.6978036687
 21
52.4567774061
 31
0.0
  0
LINE
  5
116
330
1F
100
AcDbEntity
  8
0
  6
Continuous
 62
     7
370
    25
100
AcDbLine
 10
-51.6978036687
 20
52.4567774061
 30
0.0
 11
-55.1378036687
 21
46.4985226281
 31
0.0
  0
LINE
  5
117
330
1F
100
AcDbEntity
  8
0
  6
Continuous
 62
     7
370
    25
100
AcDbLine
 10
-71.2778036682
 20
18.5432225948
 30
0.0
 11
-41.8329399395
 21
1.5432225948
 31
0.0
  0
LINE
  5
118
330
1F
100
AcDbEntity
  8
0
  6
Continuous
 62
     7
370
    25
100
AcDbLine
 10
-41.8329399395
 20
1.5432225948
 30
0.0
 11
-38.3929399395
 21
7.5014773729
 31
0.0
  0
LINE
  5
119
330
1F
100
AcDbEntity
  8
0
  6
Continuous
 62
     7
370
    25
100
AcDbLine
 10
-38.3929399395
 20
7.5014773729
 30
0.0
 11
-67.8378036682
 21
24.5014773729
 31
0.0
  0
LINE
  5
11A
330
1F
100
AcDbEntity
  8
0
  6
Continuous
 62
     7
370
    25
100
AcDbLine
 10
-67.8378036682
 20
24.5014773729
 30
0.0
 11
-71.2778036682
 21
18.5432225948
 31
0.0
  0
LINE
  5
11B
330
1F
100
AcDbEntity
  8
0
  6
Continuous
 62
     7
370
    25
100
AcDbLine
 10
-12.7
 20
-71.0
 30
0.0
 11
-12.7
 21
-37.0
 31
0.0
  0
LINE
  5
11C
330
1F
100
AcDbEntity
  8
0
  6
Continuous
 62
     7
370
    25
100
AcDbLine
 10
-12.7
 20
-37.0
 30
0.0
 11
-19.58
 21
-37.0
 31
0.0
  0
LINE
  5
11D
330
1F
100
AcDbEntity
  8
0
  6
Continuous
 62
     7
370
    25
100
AcDbLine
 10
-19.58
 20
-37.0
 30
0.0
 11
-19.58
 21
-71.0
 31
0.0
  0
LINE
  5
11E
330
1F
100
AcDbEntity
  8
0
  6
Continuous
 62
     7
370
    25
100
AcDbLine
 10
-19.58
 20
-71.0
 30
0.0
 11
-12.7
 21
-71.0
 31
0.0
  0
LINE
  5
11F
330
1F
100
AcDbEntity
  8
0
  6
Continuous
 62
     7
370
    25
100
AcDbLine
 10
67.8378036687
 20
24.5014773719
 30
0.0
 11
38.39293994
 21
7.5014773719
 31
0.0
  0
LINE
  5
120
330
1F
100
AcDbEntity
  8
0
  6
Continuous
 62
     7
370
    25
100
AcDbLine
 10
38.39293994
 20
7.5014773719
 30
0.0
 11
41.83293994
 21
1.5432225939
 31
0.0
  0
LINE
  5
121
330
1F
100
AcDbEntity
  8
0
  6
Continuous
 62
     7
370
    25
100
AcDbLine
 10
41.83293994
 20
1.5432225939
 30
0.0
 11
71.2778036687
 21
18.5432225939
 31
0.0
  0
LINE
  5
122
330
1F
100
AcDbEntity
  8
0
  6
Continuous
 62
     7
370
    25
100
AcDbLine
 10
71.2778036687
 20
18.5432225939
 30
0.0
 11
67.8378036687
 21
24.5014773719
 31
0.0
  0
LINE
  5
123
330
1F
100
AcDbEntity
  8
0
  6
Continuous
 62
     7
370
    25
100
AcDbLine
 10
51.6978036692
 20
52.4567774052
 30
0.0
 11
22.2529399406
 21
35.4567774052
 31
0.0
  0
LINE
  5
124
330
1F
100
AcDbEntity
  8
0
  6
Continuous
 62
     7
370
    25
100
AcDbLine
 10
22.2529399406
 20
35.4567774052
 30
0.0
 11
25.6929399406
 21
29.4985226271
 31
0.0
  0
LINE
  5
125
330
1F
100
AcDbEntity
  8
0
  6
Continuous
 62
     7
370
    25
100
AcDbLine
 10
25.6929399406
 20
29.4985226271
 30
0.0
 11
55.1378036692
 21
46.4985226271
 31
0.0
  0
LINE
  5
126
330
1F
100
AcDbEntity
  8
0
  6
Continuous
 62
     7
370
    25
100
AcDbLine
 10
55.1378036692
 20
46.4985226271
 30
0.0
 11
51.6978036692
 21
52.4567774052
 31
0.0
  0
LINE
  5
127
330
1F
100
AcDbEntity
  8
0
  6
Continuous
 62
     7
370
    25
100
AcDbLine
 10
105.3552092122
 20
-1.5194248024
 30
0.0
 11
53.9934650841
 21
-90.4805751976
 31
0.0
  0
LINE
  5
128
330
1F
100
AcDbEntity
  8
0
  6
Continuous
 62
     7
370
    25
100
AcDbLine
 10
-53.9934650841
 20
-90.4805751976
 30
0.0
 11
-105.3552092122
 21
-1.5194248024
 31
0.0
  0
LINE
  5
129
330
1F
100
AcDbEntity
  8
0
  6
Continuous
 62
     7
370
    25
100
AcDbLine
 10
-51.3617441281
 20
92.0
 30
0.0
 11
51.3617441281
 21
92.0
 31
0.0
  0
LINE
  5
12A
330
1F
100
AcDbEntity
  8
0
  6
Continuous
 62
     7
370
    25
100
AcDbLine
 10
79.0355306435
 20
45.3766773061
 30
0.0
 11
79.6778917546
 21
44.2636371826
 31
0.0
  0
LINE
  5
12B
330
1F
100
AcDbEntity
  8
0
  6
Continuous
 62
     7
370
    25
100
AcDbLine
 10
82.0891571867
 20
46.2167621826
 30
0.0
 11
82.1094118163
 21
46.2138686641
 31
0.0
  0
ARC
  5
12C
330
1F
100
AcDbEntity
  8
0
  6
Continuous
 62
     7
370
    25
100
AcDbCircle
 10
103.6231584047
 20
-0.5194248024
 30
0.0
 40
1.999999999999631
100
AcDbArc
 50
330.0
 51
350.9752825678
  0
ARC
  5
12D
330
1F
100
AcDbEntity
  8
0
  6
Continuous
 62
     7
370
    25
100
AcDbCircle
 10
52.2614142765
 20
-89.4805751976
 30
0.0
 40
1.999999999999949
100
AcDbArc
 50
309.0247174322
 51
330.0
  0
ARC
  5
12E
330
1F
100
AcDbEntity
  8
0
  6
Continuous
 62
     7
370
    25
100
AcDbCircle
 10
0.0
 20
-25.0
 30
0.0
 40
85.00000000000011
100
AcDbArc
 50
230.9752825678
 51
309.0247174322
  0
ARC
  5
12F
330
1F
100
AcDbEntity
  8
0
  6
Continuous
 62
     7
370
    25
100
AcDbCircle
 10
-52.2614142765
 20
-89.4805751976
 30
0.0
 40
2.000000000001182
100
AcDbArc
 50
210.0
 51
230.9752825678
  0
ARC
  5
130
330
1F
100
AcDbEntity
  8
0
  6
Continuous
 62
     7
370
    25
100
AcDbCircle
 10
-103.6231584047
 20
-0.5194248024
 30
0.0
 40
1.999999999999192
100
AcDbArc
 50
189.0247174322
 51
210.0
  0
ARC
  5
131
330
1F
100
AcDbEntity
  8
0
  6
Continuous
 62
     7
370
    25
100
AcDbCircle
 10
-21.6506350946
 20
12.5
 30
0.0
 40
85.00000000000026
100
AcDbArc
 50
110.9752825678
 51
189.0247174322
  0
ARC
  5
132
330
1F
100
AcDbEntity
  8
0
  6
Continuous
 62
     7
370
    25
100
AcDbCircle
 10
-51.3617441281
 20
90.0
 30
0.0
 40
1.999999999999987
100
AcDbArc
 50
90.0
 51
110.9752825678
  0
ARC
  5
133
330
1F
100
AcDbEntity
  8
0
  6
Continuous
 62
     7
370
    25
100
AcDbCircle
 10
51.3617441281
 20
90.0
 30
0.0
 40
1.999999999999987
100
AcDbArc
 50
69.0247174322
 51
90.0
  0
ARC
  5
134
330
1F
100
AcDbEntity
  8
0
  6
Continuous
 62
     7
370
    25
100
AcDbCircle
 10
21.6506350946
 20
12.5
 30
0.0
 40
85.00000000000028
100
AcDbArc
 50
350.9752825678
 51
69.0247174322
  0
ENDSEC
  0
SECTION
  2
OBJECTS
  0
DICTIONARY
  5
C
330
0
100
AcDbDictionary
281
     1
  3
ACAD_GROUP
350
D
  3
ACAD_LAYOUT
350
1A
  3
ACAD_MLINESTYLE
350
17
  3
ACAD_PLOTSETTINGS
350
19
  3
ACAD_PLOTSTYLENAME
350
E
  3
ACAD_SCALELIST
350
47
  0
DICTIONARY
  5
D
102
{ACAD_REACTORS
330
C
102
}
330
C
100
AcDbDictionary
281
     1
  0
DICTIONARY
  5
1A
102
{ACAD_REACTORS
330
C
102
}
330
C
100
AcDbDictionary
281
     1
  3
Layout1
350
1E
  3
Layout2
350
26
  3
Model
350
22
  0
DICTIONARY
  5
17
102
{ACAD_REACTORS
330
C
102
}
330
C
100
AcDbDictionary
281
     1
  3
Standard
350
18
  0
DICTIONARY
  5
19
102
{ACAD_REACTORS
330
C
102
}
330
C
100
AcDbDictionary
281
     1
  0
ACDBDICTIONARYWDFLT
  5
E
102
{ACAD_REACTORS
330
C
102
}
330
C
100
AcDbDictionary
281
     1
  3
Normal
350
F
100
AcDbDictionaryWithDefault
340
F
  0
DICTIONARY
  5
47
102
{ACAD_REACTORS
330
C
102
}
330
C
100
AcDbDictionary
281
     1
  3
A0
350
48
  3
A1
350
49
  3
A2
350
4A
  3
A3
350
4B
  3
A4
350
4C
  3
A5
350
4D
  3
A6
350
4E
  3
A7
350
4F
  3
A8
350
50
  3
A9
350
51
  3
B0
350
52
  3
B1
350
53
  3
B2
350
54
  3
B3
350
55
  3
B4
350
56
  3
B5
350
57
  3
B6
350
58
  3
B7
350
59
  3
B8
350
5A
  3
B9
350
5B
  3
C0
350
5C
  3
C1
350
5D
  3
C2
350
5E
  3
C3
350
5F
  3
C4
350
60
  3
C5
350
61
  3
C6
350
62
  3
C7
350
63
  3
C8
350
64
  3
C9
350
65
  3
D0
350
66
  3
D1
350
67
  3
D2
350
68
  0
LAYOUT
  5
1E
102
{ACAD_REACTORS
330
1A
102
}
330
1A
100
AcDbPlotSettings
  1

  2
none_device
  4

  6

 40
0.0
 41
0.0
 42
0.0
 43
0.0
 44
0.0
 45
0.0
 46
0.0
 47
0.0
 48
0.0
 49
0.0
140
0.0
141
0.0
142
1.0
143
1.0
 70
   688
 72
     1
 73
     0
 74
     5
  7

 75
    16
147
1.0
148
0.0
149
0.0
100
AcDbLayout
  1
Layout1
 70
     1
 71
     1
 10
0.0
 20
0.0
 11
420.0
 21
297.0
 12
0.0
 22
0.0
 32
0.0
 14
1.0000000000E+20
 24
1.0000000000E+20
 34
1.0000000000E+20
 15
-1.0000000000E+20
 25
-1.0000000000E+20
 35
-1.0000000000E+20
146
0.0
 13
0.0
 23
0.0
 33
0.0
 16
1.0
 26
0.0
 36
0.0
 17
0.0
 27
1.0
 37
0.0
 76
     0
330
1B
  0
LAYOUT
  5
26
102
{ACAD_REACTORS
330
1A
102
}
330
1A
100
AcDbPlotSettings
  1

  2
none_device
  4

  6

 40
0.0
 41
0.0
 42
0.0
 43
0.0
 44
0.0
 45
0.0
 46
0.0
 47
0.0
 48
0.0
 49
0.0
140
0.0
141
0.0
142
1.0
143
1.0
 70
   688
 72
     1
 73
     0
 74
     5
  7

 75
    16
147
1.0
148
0.0
149
0.0
100
AcDbLayout
  1
Layout2
 70
     1
 71
     2
 10
0.0
 20
0.0
 11
0.0
 21
0.0
 12
0.0
 22
0.0
 32
0.0
 14
0.0
 24
0.0
 34
0.0
 15
0.0
 25
0.0
 35
0.0
146
0.0
 13
0.0
 23
0.0
 33
0.0
 16
1.0
 26
0.0
 36
0.0
 17
0.0
 27
1.0
 37
0.0
 76
     0
330
23
  0
LAYOUT
  5
22
102
{ACAD_REACTORS
330
1A
102
}
330
1A
100
AcDbPlotSettings
  1

  2
none_device
  4
ANSI_A_(11.00_x_8.50_Inches)
  6

 40
6.35
 41
19.05
 42
6.35000508
 43
19.05000254
 44
279.4
 45
215.9
 46
133.34999746
 47
98.4231125914
 48
0.0
 49
0.0
140
0.0
141
0.0
142
0.0416584158
143
1.0
 70
  1696
 72
     0
 73
     0
 74
     0
  7

 75
     0
147
0.0179189148
148
-1300.4909072572
149
0.0
100
AcDbLayout
  1
Model
 70
     1
 71
     0
 10
0.0
 20
0.0
 11
420.0
 21
297.0
 12
0.0
 22
0.0
 32
0.0
 14
-106.6506350946
 24
-110.0
 34
0.0
 15
106.6506350946
 25
92.0
 35
0.0
146
0.0
 13
0.0
 23
0.0
 33
0.0
 16
1.0
 26
0.0
 36
0.0
 17
0.0
 27
1.0
 37
0.0
 76
     0
330
1F
331
29
  0
MLINESTYLE
  5
18
102
{ACAD_REACTORS
330
17
102
}
330
17
100
AcDbMlineStyle
  2
Standard
 70
     0
  3

 62
   256
 51
90.0
 52
90.0
 71
     2
 49
0.5
 62
   256
  6
BYLAYER
 49
-0.5
 62
   256
  6
BYLAYER
  0
ACDBPLACEHOLDER
  5
F
102
{ACAD_REACTORS
330
E
102
}
330
E
  0
SCALE
  5
48
102
{ACAD_REACTORS
330
47
102
}
330
47
100
AcDbScale
 70
     0
300
1:1
140
1.0
141
1.0
290
     1
  0
SCALE
  5
49
102
{ACAD_REACTORS
330
47
102
}
330
47
100
AcDbScale
 70
     0
300
1:2
140
1.0
141
2.0
290
     0
  0
SCALE
  5
4A
102
{ACAD_REACTORS
330
47
102
}
330
47
100
AcDbScale
 70
     0
300
1:4
140
1.0
141
4.0
290
     0
  0
SCALE
  5
4B
102
{ACAD_REACTORS
330
47
102
}
330
47
100
AcDbScale
 70
     0
300
1:5
140
1.0
141
5.0
290
     0
  0
SCALE
  5
4C
102
{ACAD_REACTORS
330
47
102
}
330
47
100
AcDbScale
 70
     0
300
1:8
140
1.0
141
8.0
290
     0
  0
SCALE
  5
4D
102
{ACAD_REACTORS
330
47
102
}
330
47
100
AcDbScale
 70
     0
300
1:10
140
1.0
141
10.0
290
     0
  0
SCALE
  5
4E
102
{ACAD_REACTORS
330
47
102
}
330
47
100
AcDbScale
 70
     0
300
1:16
140
1.0
141
16.0
290
     0
  0
SCALE
  5
4F
102
{ACAD_REACTORS
330
47
102
}
330
47
100
AcDbScale
 70
     0
300
1:20
140
1.0
141
20.0
290
     0
  0
SCALE
  5
50
102
{ACAD_REACTORS
330
47
102
}
330
47
100
AcDbScale
 70
     0
300
1:30
140
1.0
141
30.0
290
     0
  0
SCALE
  5
51
102
{ACAD_REACTORS
330
47
102
}
330
47
100
AcDbScale
 70
     0
300
1:40
140
1.0
141
40.0
290
     0
  0
SCALE
  5
52
102
{ACAD_REACTORS
330
47
102
}
330
47
100
AcDbScale
 70
     0
300
1:50
140
1.0
141
50.0
290
     0
  0
SCALE
  5
53
102
{ACAD_REACTORS
330
47
102
}
330
47
100
AcDbScale
 70
     0
300
1:100
140
1.0
141
100.0
290
     0
  0
SCALE
  5
54
102
{ACAD_REACTORS
330
47
102
}
330
47
100
AcDbScale
 70
     0
300
2:1
140
2.0
141
1.0
290
     0
  0
SCALE
  5
55
102
{ACAD_REACTORS
330
47
102
}
330
47
100
AcDbScale
 70
     0
300
4:1
140
4.0
141
1.0
290
     0
  0
SCALE
  5
56
102
{ACAD_REACTORS
330
47
102
}
330
47
100
AcDbScale
 70
     0
300
8:1
140
8.0
141
1.0
290
     0
  0
SCALE
  5
57
102
{ACAD_REACTORS
330
47
102
}
330
47
100
AcDbScale
 70
     0
300
10:1
140
10.0
141
1.0
290
     0
  0
SCALE
  5
58
102
{ACAD_REACTORS
330
47
102
}
330
47
100
AcDbScale
 70
     0
300
100:1
140
100.0
141
1.0
290
     0
  0
SCALE
  5
59
102
{ACAD_REACTORS
330
47
102
}
330
47
100
AcDbScale
 70
     0
300
1/128" = 1'-0"
140
0.0078125
141
12.0
290
     0
  0
SCALE
  5
5A
102
{ACAD_REACTORS
330
47
102
}
330
47
100
AcDbScale
 70
     0
300
1/64" = 1'-0"
140
0.015625
141
12.0
290
     0
  0
SCALE
  5
5B
102
{ACAD_REACTORS
330
47
102
}
330
47
100
AcDbScale
 70
     0
300
1/32" = 1'-0"
140
0.03125
141
12.0
290
     0
  0
SCALE
  5
5C
102
{ACAD_REACTORS
330
47
102
}
330
47
100
AcDbScale
 70
     0
300
1/16" = 1'-0"
140
0.0625
141
12.0
290
     0
  0
SCALE
  5
5D
102
{ACAD_REACTORS
330
47
102
}
330
47
100
AcDbScale
 70
     0
300
3/32" = 1'-0"
140
0.09375
141
12.0
290
     0
  0
SCALE
  5
5E
102
{ACAD_REACTORS
330
47
102
}
330
47
100
AcDbScale
 70
     0
300
1/8" = 1'-0"
140
0.125
141
12.0
290
     0
  0
SCALE
  5
5F
102
{ACAD_REACTORS
330
47
102
}
330
47
100
AcDbScale
 70
     0
300
3/16" = 1'-0"
140
0.1875
141
12.0
290
     0
  0
SCALE
  5
60
102
{ACAD_REACTORS
330
47
102
}
330
47
100
AcDbScale
 70
     0
300
1/4" = 1'-0"
140
0.25
141
12.0
290
     0
  0
SCALE
  5
61
102
{ACAD_REACTORS
330
47
102
}
330
47
100
AcDbScale
 70
     0
300
3/8" = 1'-0"
140
0.375
141
12.0
290
     0
  0
SCALE
  5
62
102
{ACAD_REACTORS
330
47
102
}
330
47
100
AcDbScale
 70
     0
300
1/2" = 1'-0"
140
0.5
141
12.0
290
     0
  0
SCALE
  5
63
102
{ACAD_REACTORS
330
47
102
}
330
47
100
AcDbScale
 70
     0
300
3/4" = 1'-0"
140
0.75
141
12.0
290
     0
  0
SCALE
  5
64
102
{ACAD_REACTORS
330
47
102
}
330
47
100
AcDbScale
 70
     0
300
1" = 1'-0"
140
1.0
141
12.0
290
     0
  0
SCALE
  5
65
102
{ACAD_REACTORS
330
47
102
}
330
47
100
AcDbScale
 70
     0
300
1-1/2" = 1'-0"
140
1.5
141
12.0
290
     0
  0
SCALE
  5
66
102
{ACAD_REACTORS
330
47
102
}
330
47
100
AcDbScale
 70
     0
300
3" = 1'-0"
140
3.0
141
12.0
290
     0
  0
SCALE
  5
67
102
{ACAD_REACTORS
330
47
102
}
330
47
100
AcDbScale
 70
     0
300
6" = 1'-0"
140
6.0
141
12.0
290
     0
  0
SCALE
  5
68
102
{ACAD_REACTORS
330
47
102
}
330
47
100
AcDbScale
 70
     0
300
1'-0" = 1'-0"
140
12.0
141
12.0
290
     0
  0
ENDSEC
  0
EOF
