  0
SECTION
  2
HEADER
  9
$ACADVER
  1
AC1015
  9
$ACADMAINTVER
 70
     6
  9
$DWGCODEPAGE
  3
ANSI_1252
  9
$INSBASE
 10
0.0
 20
0.0
 30
0.0
  9
$EXTMIN
 10
-117.787038122
 20
-130.0
 30
0.0
  9
$EXTMAX
 10
121.713429644
 20
91.9999999999
 30
0.0
  9
$LIMMIN
 10
0.0
 20
0.0
  9
$LIMMAX
 10
420.0
 20
297.0
  9
$ORTHOMODE
 70
     0
  9
$REGENMODE
 70
     1
  9
$FILLMODE
 70
     1
  9
$QTEXTMODE
 70
     0
  9
$MIRRTEXT
 70
     1
  9
$LTSCALE
 40
1.0
  9
$ATTMODE
 70
     1
  9
$TEXTSIZE
 40
3.5
  9
$TRACEWID
 40
1.0
  9
$TEXTSTYLE
  7
Standard
  9
$CLAYER
  8
0
  9
$CELTYPE
  6
ByLayer
  9
$CECOLOR
 62
   256
  9
$CELTSCALE
 40
1.0
  9
$DISPSILH
 70
     0
  9
$DIMSCALE
 40
1.0
  9
$DIMASZ
 40
3.302
  9
$DIMEXO
 40
1.0
  9
$DIMDLI
 40
3.75
  9
$DIMRND
 40
0.0
  9
$DIMDLE
 40
0.0
  9
$DIMEXE
 40
1.0
  9
$DIMTP
 40
0.0
  9
$DIMTM
 40
0.0
  9
$DIMTXT
 40
3.5
  9
$DIMCEN
 40
2.5
  9
$DIMTSZ
 40
0.0
  9
$DIMTOL
 70
     0
  9
$DIMLIM
 70
     0
  9
$DIMTIH
 70
     1
  9
$DIMTOH
 70
     1
  9
$DIMSE1
 70
     0
  9
$DIMSE2
 70
     0
  9
$DIMTAD
 70
     1
  9
$DIMZIN
 70
     0
  9
$DIMBLK
  1

  9
$DIMASO
 70
     1
  9
$DIMSHO
 70
     1
  9
$DIMPOST
  1

  9
$DIMAPOST
  1

  9
$DIMALT
 70
     0
  9
$DIMALTD
 70
     3
  9
$DIMALTF
 40
0.0393700787
  9
$DIMLFAC
 40
1.0
  9
$DIMTOFL
 70
     1
  9
$DIMTVP
 40
0.0
  9
$DIMTIX
 70
     0
  9
$DIMSOXD
 70
     0
  9
$DIMSAH
 70
     0
  9
$DIMBLK1
  1

  9
$DIMBLK2
  1

  9
$DIMSTYLE
  2
ISO-25
  9
$DIMCLRD
 70
     0
  9
$DIMCLRE
 70
     0
  9
$DIMCLRT
 70
     0
  9
$DIMTFAC
 40
1.0
  9
$DIMGAP
 40
1.524
  9
$DIMJUST
 70
     0
  9
$DIMSD1
 70
     0
  9
$DIMSD2
 70
     0
  9
$DIMTOLJ
 70
     0
  9
$DIMTZIN
 70
     0
  9
$DIMALTZ
 70
     0
  9
$DIMALTTZ
 70
     0
  9
$DIMUPT
 70
     0
  9
$DIMDEC
 70
     2
  9
$DIMTDEC
 70
     2
  9
$DIMALTU
 70
     2
  9
$DIMALTTD
 70
     3
  9
$DIMTXSTY
  7
Standard
  9
$DIMAUNIT
 70
     0
  9
$DIMADEC
 70
     2
  9
$DIMALTRND
 40
0.0
  9
$DIMAZIN
 70
     0
  9
$DIMDSEP
 70
    44
  9
$DIMATFIT
 70
     3
  9
$DIMFRAC
 70
     0
  9
$DIMLDRBLK
  1

  9
$DIMLUNIT
 70
     2
  9
$DIMLWD
 70
    -2
  9
$DIMLWE
 70
    -2
  9
$DIMTMOVE
 70
     0
  9
$LUNITS
 70
     2
  9
$LUPREC
 70
     2
  9
$SKETCHINC
 40
1.0
  9
$FILLETRAD
 40
10.0
  9
$AUNITS
 70
     0
  9
$AUPREC
 70
     2
  9
$MENU
  1
.
  9
$ELEVATION
 40
0.0
  9
$PELEVATION
 40
0.0
  9
$THICKNESS
 40
0.0
  9
$LIMCHECK
 70
     0
  9
$CHAMFERA
 40
0.0
  9
$CHAMFERB
 40
0.0
  9
$CHAMFERC
 40
0.0
  9
$CHAMFERD
 40
0.0
  9
$SKPOLY
 70
     0
  9
$TDCREATE
 40
2457743.692999028
  9
$TDUCREATE
 40
2457743.901332361
  9
$TDUPDATE
 40
2457743.69309956
  9
$TDUUPDATE
 40
2457743.901432894
  9
$TDINDWG
 40
0.0000000116
  9
$TDUSRTIMER
 40
0.0000000116
  9
$USRTIMER
 70
     1
  9
$ANGBASE
 50
0.0
  9
$ANGDIR
 70
     0
  9
$PDMODE
 70
     0
  9
$PDSIZE
 40
-1.0
  9
$PLINEWID
 40
0.0
  9
$SPLFRAME
 70
     0
  9
$SPLINETYPE
 70
     6
  9
$SPLINESEGS
 70
     8
  9
$HANDSEED
  5
1F9
  9
$SURFTAB1
 70
     6
  9
$SURFTAB2
 70
     6
  9
$SURFTYPE
 70
     6
  9
$SURFU
 70
     6
  9
$SURFV
 70
     6
  9
$UCSBASE
  2

  9
$UCSNAME
  2

  9
$UCSORG
 10
0.0
 20
0.0
 30
0.0
  9
$UCSXDIR
 10
1.0
 20
0.0
 30
0.0
  9
$UCSYDIR
 10
0.0
 20
1.0
 30
0.0
  9
$UCSORTHOREF
  2

  9
$UCSORTHOVIEW
 70
     0
  9
$UCSORGTOP
 10
0.0
 20
0.0
 30
0.0
  9
$UCSORGBOTTOM
 10
0.0
 20
0.0
 30
0.0
  9
$UCSORGLEFT
 10
0.0
 20
0.0
 30
0.0
  9
$UCSORGRIGHT
 10
0.0
 20
0.0
 30
0.0
  9
$UCSORGFRONT
 10
0.0
 20
0.0
 30
0.0
  9
$UCSORGBACK
 10
0.0
 20
0.0
 30
0.0
  9
$PUCSBASE
  2

  9
$PUCSNAME
  2

  9
$PUCSORG
 10
0.0
 20
0.0
 30
0.0
  9
$PUCSXDIR
 10
1.0
 20
0.0
 30
0.0
  9
$PUCSYDIR
 10
0.0
 20
1.0
 30
0.0
  9
$PUCSORTHOREF
  2

  9
$PUCSORTHOVIEW
 70
     0
  9
$PUCSORGTOP
 10
0.0
 20
0.0
 30
0.0
  9
$PUCSORGBOTTOM
 10
0.0
 20
0.0
 30
0.0
  9
$PUCSORGLEFT
 10
0.0
 20
0.0
 30
0.0
  9
$PUCSORGRIGHT
 10
0.0
 20
0.0
 30
0.0
  9
$PUCSORGFRONT
 10
0.0
 20
0.0
 30
0.0
  9
$PUCSORGBACK
 10
0.0
 20
0.0
 30
0.0
  9
$USERI1
 70
     0
  9
$USERI2
 70
     0
  9
$USERI3
 70
     0
  9
$USERI4
 70
     0
  9
$USERI5
 70
     0
  9
$USERR1
 40
0.0
  9
$USERR2
 40
0.0
  9
$USERR3
 40
0.0
  9
$USERR4
 40
0.0
  9
$USERR5
 40
0.0
  9
$WORLDVIEW
 70
     1
  9
$SHADEDGE
 70
     3
  9
$SHADEDIF
 70
    70
  9
$TILEMODE
 70
     1
  9
$MAXACTVP
 70
    64
  9
$PINSBASE
 10
0.0
 20
0.0
 30
0.0
  9
$PLIMCHECK
 70
     0
  9
$PEXTMIN
 10
1.0000000000E+20
 20
1.0000000000E+20
 30
1.0000000000E+20
  9
$PEXTMAX
 10
-1.0000000000E+20
 20
-1.0000000000E+20
 30
-1.0000000000E+20
  9
$PLIMMIN
 10
0.0
 20
0.0
  9
$PLIMMAX
 10
420.0
 20
297.0
  9
$UNITMODE
 70
     0
  9
$VISRETAIN
 70
     1
  9
$PLINEGEN
 70
     0
  9
$PSLTSCALE
 70
     1
  9
$TREEDEPTH
 70
  3020
  9
$CMLSTYLE
  2
Standard
  9
$CMLJUST
 70
     0
  9
$CMLSCALE
 40
20.0
  9
$PROXYGRAPHICS
 70
     1
  9
$MEASUREMENT
 70
     1
  9
$CELWEIGHT
370
    -1
  9
$ENDCAPS
280
     0
  9
$JOINSTYLE
280
     0
  9
$LWDISPLAY
290
     1
  9
$INSUNITS
 70
     4
  9
$HYPERLINKBASE
  1

  9
$STYLESHEET
  1

  9
$XEDIT
290
     1
  9
$CEPSNTYPE
380
     0
  9
$PSTYLEMODE
290
     1
  9
$FINGERPRINTGUID
  2
{74658CF5-616F-4C03-A8ED-6B53F98346A0}
  9
$VERSIONGUID
  2
{FAEB1C32-E019-11D5-929B-00C0DF256EC4}
  9
$EXTNAMES
290
     1
  9
$PSVPSCALE
 40
0.0
  9
$OLESTARTUP
290
     0
  0
ENDSEC
  0
SECTION
  2
CLASSES
  0
CLASS
  1
ACDBDICTIONARYWDFLT
  2
AcDbDictionaryWithDefault
  3
ObjectDBX Classes
 90
        0
280
     0
281
     0
  0
CLASS
  1
VISUALSTYLE
  2
AcDbVisualStyle
  3
ObjectDBX Classes
 90
     4095
280
     0
281
     0
  0
CLASS
  1
MATERIAL
  2
AcDbMaterial
  3
ObjectDBX Classes
 90
     1153
280
     0
281
     0
  0
CLASS
  1
SCALE
  2
AcDbScale
  3
ObjectDBX Classes
 90
     1153
280
     0
281
     0
  0
CLASS
  1
TABLESTYLE
  2
AcDbTableStyle
  3
ObjectDBX Classes
 90
     4095
280
     0
281
     0
  0
CLASS
  1
MLEADERSTYLE
  2
AcDbMLeaderStyle
  3
ACDB_MLEADERSTYLE_CLASS
 90
     4095
280
     0
281
     0
  0
CLASS
  1
SUN
  2
AcDbSun
  3
SCENEOE
 90
     1153
280
     0
281
     0
  0
CLASS
  1
ACDBPLACEHOLDER
  2
AcDbPlaceHolder
  3
ObjectDBX Classes
 90
        0
280
     0
281
     0
  0
CLASS
  1
LAYOUT
  2
AcDbLayout
  3
ObjectDBX Classes
 90
        0
280
     0
281
     0
  0
ENDSEC
  0
SECTION
  2
TABLES
  0
TABLE
  2
VPORT
  5
8
330
0
100
AcDbSymbolTable
 70
     1
  0
VPORT
  5
29
330
8
100
AcDbSymbolTableRecord
100
AcDbViewportTableRecord
  2
*Active
 70
     0
 10
0.0
 20
0.0
 11
1.0
 21
1.0
 12
1.963195761
 22
-19.0000000001
 13
0.0
 23
0.0
 14
10.0
 24
10.0
 15
10.0
 25
10.0
 16
0.0
 26
0.0
 36
1.0
 17
0.0
 27
0.0
 37
0.0
 40
226.4399999999
 41
1.0788309359
 42
50.0
 43
0.0
 44
0.0
 50
0.0
 51
0.0
 71
     0
 72
   100
 73
     1
 74
     3
 75
     0
 76
     0
 77
     0
 78
     0
281
     0
 65
     1
110
0.0
120
0.0
130
0.0
111
1.0
121
0.0
131
0.0
112
0.0
122
1.0
132
0.0
 79
     0
146
0.0
  0
ENDTAB
  0
TABLE
  2
LTYPE
  5
5
330
0
100
AcDbSymbolTable
 70
     6
  0
LTYPE
  5
14
330
5
100
AcDbSymbolTableRecord
100
AcDbLinetypeTableRecord
  2
ByBlock
 70
     0
  3

 72
    65
 73
     0
 40
0.0
  0
LTYPE
  5
15
330
5
100
AcDbSymbolTableRecord
100
AcDbLinetypeTableRecord
  2
ByLayer
 70
     0
  3

 72
    65
 73
     0
 40
0.0
  0
LTYPE
  5
16
330
5
100
AcDbSymbolTableRecord
100
AcDbLinetypeTableRecord
  2
Continuous
 70
     0
  3
Solid line
 72
    65
 73
     0
 40
0.0
  0
LTYPE
  5
6E
330
5
100
AcDbSymbolTableRecord
100
AcDbLinetypeTableRecord
  2
HIDDEN
 70
     0
  3
Hidden __ __ __ __ __ __ __ __ __ __ __ __ __ __
 72
    65
 73
     2
 40
1.905
 49
1.27
 74
     0
 49
-0.635
 74
     0
  0
LTYPE
  5
6F
330
5
100
AcDbSymbolTableRecord
100
AcDbLinetypeTableRecord
  2
PHANTOM
 70
     0
  3
Phantom ______  __  __  ______  __  __  ______
 72
    65
 73
     6
 40
12.7
 49
6.35
 74
     0
 49
-1.27
 74
     0
 49
1.27
 74
     0
 49
-1.27
 74
     0
 49
1.27
 74
     0
 49
-1.27
 74
     0
  0
LTYPE
  5
70
330
5
100
AcDbSymbolTableRecord
100
AcDbLinetypeTableRecord
  2
CENTER
 70
     0
  3
Center ____ _ ____ _ ____ _ ____ _ ____ _ ____
 72
    65
 73
     4
 40
10.16
 49
6.35
 74
     0
 49
-1.27
 74
     0
 49
1.27
 74
     0
 49
-1.27
 74
     0
  0
LTYPE
  5
71
330
5
100
AcDbSymbolTableRecord
100
AcDbLinetypeTableRecord
  2
CENTERX2
 70
     0
  3
Center (2x) ________  __  ________  __  _____
 72
    65
 73
     4
 40
20.32
 49
12.7
 74
     0
 49
-2.54
 74
     0
 49
2.54
 74
     0
 49
-2.54
 74
     0
  0
LTYPE
  5
72
330
5
100
AcDbSymbolTableRecord
100
AcDbLinetypeTableRecord
  2
DOT2
 70
     0
  3
Dot (.5x) ........................................
 72
    65
 73
     2
 40
0.635
 49
0.0
 74
     0
 49
-0.635
 74
     0
  0
ENDTAB
  0
TABLE
  2
LAYER
  5
2
330
0
100
AcDbSymbolTable
 70
     1
  0
LAYER
  5
10
330
2
100
AcDbSymbolTableRecord
100
AcDbLayerTableRecord
  2
0
 70
     0
 62
     7
  6
Continuous
370
    -3
390
F
  0
ENDTAB
  0
TABLE
  2
STYLE
  5
3
330
0
100
AcDbSymbolTable
 70
     1
  0
STYLE
  5
11
330
3
100
AcDbSymbolTableRecord
100
AcDbTextStyleTableRecord
  2
Standard
 70
     0
 40
0.0
 41
1.0
 50
0.0
 71
     0
 42
3.5
  3
txt
  4

  0
ENDTAB
  0
TABLE
  2
VIEW
  5
6
330
0
100
AcDbSymbolTable
 70
     0
  0
ENDTAB
  0
TABLE
  2
UCS
  5
7
330
0
100
AcDbSymbolTable
 70
     0
  0
ENDTAB
  0
TABLE
  2
APPID
  5
9
330
0
100
AcDbSymbolTable
 70
     1
  0
APPID
  5
12
330
9
100
AcDbSymbolTableRecord
100
AcDbRegAppTableRecord
  2
ACAD
 70
     0
  0
ENDTAB
  0
TABLE
  2
DIMSTYLE
  5
A
330
0
100
AcDbSymbolTable
 70
     1
100
AcDbDimStyleTable
  0
DIMSTYLE
105
27
330
A
100
AcDbSymbolTableRecord
100
AcDbDimStyleTableRecord
  2
ISO-25
 70
     0
 41
2.5
 42
0.625
 43
3.75
 44
1.25
 73
     0
 74
     0
 77
     1
 78
     8
140
2.5
141
2.5
143
0.0393700787
147
0.625
171
     3
172
     1
178
     0
271
     2
272
     2
274
     3
278
    44
283
     0
284
     8
340
11
  0
ENDTAB
  0
TABLE
  2
BLOCK_RECORD
  5
1
330
0
100
AcDbSymbolTable
 70
     1
  0
BLOCK_RECORD
  5
1F
330
1
100
AcDbSymbolTableRecord
100
AcDbBlockTableRecord
  2
*Model_Space
340
22
  0
BLOCK_RECORD
  5
1B
330
1
100
AcDbSymbolTableRecord
100
AcDbBlockTableRecord
  2
*Paper_Space
340
1E
  0
BLOCK_RECORD
  5
23
330
1
100
AcDbSymbolTableRecord
100
AcDbBlockTableRecord
  2
*Paper_Space0
340
26
  0
ENDTAB
  0
ENDSEC
  0
SECTION
  2
BLOCKS
  0
BLOCK
  5
20
330
1F
100
AcDbEntity
  8
0
100
AcDbBlockBegin
  2
*Model_Space
 70
     0
 10
0.0
 20
0.0
 30
0.0
  3
*Model_Space
  1

  0
ENDBLK
  5
21
330
1F
100
AcDbEntity
  8
0
100
AcDbBlockEnd
  0
BLOCK
  5
1C
330
1B
100
AcDbEntity
 67
     1
  8
0
100
AcDbBlockBegin
  2
*Paper_Space
 70
     0
 10
0.0
 20
0.0
 30
0.0
  3
*Paper_Space
  1

  0
ENDBLK
  5
1D
330
1B
100
AcDbEntity
 67
     1
  8
0
100
AcDbBlockEnd
  0
BLOCK
  5
24
330
23
100
AcDbEntity
  8
0
100
AcDbBlockBegin
  2
*Paper_Space0
 70
     0
 10
0.0
 20
0.0
 30
0.0
  3
*Paper_Space0
  1

  0
ENDBLK
  5
25
330
23
100
AcDbEntity
  8
0
100
AcDbBlockEnd
  0
ENDSEC
  0
SECTION
  2
ENTITIES
  0
CIRCLE
  5
73
330
1F
100
AcDbEntity
  8
0
  6
Continuous
 62
     7
370
    25
100
AcDbCircle
 10
0.0000000005
 20
-37.0
 30
0.0
 40
3.399999999999971
  0
CIRCLE
  5
80
330
1F
100
AcDbEntity
  8
0
  6
Continuous
 62
     7
370
    25
100
AcDbCircle
 10
32.0429399398
 20
18.5000000005
 30
0.0
 40
3.399999999999995
  0
CIRCLE
  5
89
330
1F
100
AcDbEntity
  8
0
  6
Continuous
 62
     7
370
    25
100
AcDbCircle
 10
-32.0429399403
 20
18.4999999995
 30
0.0
 40
3.399999999999982
  0
CIRCLE
  5
8E
330
1F
100
AcDbEntity
  8
0
  6
Continuous
 62
     7
370
    25
100
AcDbCircle
 10
101.3249722419
 20
58.4999999995
 30
0.0
 40
1.774999999999991
  0
CIRCLE
  5
8F
330
1F
100
AcDbEntity
  8
0
  6
Continuous
 62
     7
370
    25
100
AcDbCircle
 10
-101.3249722419
 20
58.4999999995
 30
0.0
 40
1.775000000000026
  0
CIRCLE
  5
90
330
1F
100
AcDbEntity
  8
0
  6
Continuous
 62
     7
370
    25
100
AcDbCircle
 10
0.0
 20
-116.999999999
 30
0.0
 40
1.774999999999981
  0
CIRCLE
  5
FC
330
1F
100
AcDbEntity
  8
0
  6
Continuous
 62
     7
370
    25
100
AcDbCircle
 10
-88.2640831103
 20
-11.1221235694
 30
0.0
 40
1.600000000000009
  0
CIRCLE
  5
FD
330
1F
100
AcDbEntity
  8
0
  6
Continuous
 62
     7
370
    25
100
AcDbCircle
 10
-53.7640831103
 20
-70.8778764306
 30
0.0
 40
1.600000000000009
  0
CIRCLE
  5
FE
330
1F
100
AcDbEntity
  8
0
  6
Continuous
 62
     7
370
    25
100
AcDbCircle
 10
0.0
 20
0.0
 30
0.0
 40
7.499999999999998
  0
CIRCLE
  5
FF
330
1F
100
AcDbEntity
  8
0
  6
Continuous
 62
     7
370
    25
100
AcDbCircle
 10
-80.7640831103
 20
-24.1125046262
 30
0.0
 40
1.600000000000009
  0
CIRCLE
  5
100
330
1F
100
AcDbEntity
  8
0
  6
Continuous
 62
     7
370
    25
100
AcDbCircle
 10
-48.7640831103
 20
-79.5381304684
 30
0.0
 40
1.600000000000009
  0
CIRCLE
  5
101
330
1F
100
AcDbEntity
  8
0
  6
Continuous
 62
     7
370
    25
100
AcDbCircle
 10
-93.2640831103
 20
-2.4618695316
 30
0.0
 40
1.600000000000009
  0
CIRCLE
  5
102
330
1F
100
AcDbEntity
  8
0
  6
Continuous
 62
     7
370
    25
100
AcDbCircle
 10
-75.8538290725
 20
-12.6173140978
 30
0.0
 40
1.600000000000009
  0
CIRCLE
  5
103
330
1F
100
AcDbEntity
  8
0
  6
Continuous
 62
     7
370
    25
100
AcDbCircle
 10
-61.2640831103
 20
-57.8874953738
 30
0.0
 40
1.600000000000001
  0
CIRCLE
  5
104
330
1F
100
AcDbEntity
  8
0
  6
Continuous
 62
     7
370
    25
100
AcDbCircle
 10
-68.7640831103
 20
-44.897114317
 30
0.0
 40
1.599999999999994
  0
CIRCLE
  5
105
330
1F
100
AcDbEntity
  8
0
  6
Continuous
 62
     7
370
    25
100
AcDbCircle
 10
-73.2640831103
 20
-37.102885683
 30
0.0
 40
1.600000000000023
  0
CIRCLE
  5
106
330
1F
100
AcDbEntity
  8
0
  6
Continuous
 62
     7
370
    25
100
AcDbCircle
 10
-62.3538290725
 20
-36.0
 30
0.0
 40
1.600000000000001
  0
CIRCLE
  5
107
330
1F
100
AcDbEntity
  8
0
  6
Continuous
 62
     7
370
    25
100
AcDbCircle
 10
-48.8538290725
 20
-59.3826859022
 30
0.0
 40
1.60000000000003
  0
CIRCLE
  5
108
330
1F
100
AcDbEntity
  8
0
  6
Continuous
 62
     7
370
    25
100
AcDbCircle
 10
-68.3538290725
 20
-25.6076951546
 30
0.0
 40
1.600000000000009
  0
CIRCLE
  5
109
330
1F
100
AcDbEntity
  8
0
  6
Continuous
 62
     7
370
    25
100
AcDbCircle
 10
-56.3538290725
 20
-46.3923048454
 30
0.0
 40
1.600000000000016
  0
CIRCLE
  5
10A
330
1F
100
AcDbEntity
  8
0
  6
Continuous
 62
     7
370
    25
100
AcDbCircle
 10
-34.5
 20
82.0
 30
0.0
 40
1.600000000000013
  0
CIRCLE
  5
10B
330
1F
100
AcDbEntity
  8
0
  6
Continuous
 62
     7
370
    25
100
AcDbCircle
 10
34.5
 20
82.0
 30
0.0
 40
1.599999999999992
  0
CIRCLE
  5
10C
330
1F
100
AcDbEntity
  8
0
  6
Continuous
 62
     7
370
    25
100
AcDbCircle
 10
-12.0
 20
72.0
 30
0.0
 40
1.600000000000013
  0
CIRCLE
  5
10D
330
1F
100
AcDbEntity
  8
0
  6
Continuous
 62
     7
370
    25
100
AcDbCircle
 10
19.5
 20
82.0
 30
0.0
 40
1.599999999999999
  0
CIRCLE
  5
10E
330
1F
100
AcDbEntity
  8
0
  6
Continuous
 62
     7
370
    25
100
AcDbCircle
 10
-44.5
 20
82.0
 30
0.0
 40
1.600000000000017
  0
CIRCLE
  5
10F
330
1F
100
AcDbEntity
  8
0
  6
Continuous
 62
     7
370
    25
100
AcDbCircle
 10
44.5
 20
82.0
 30
0.0
 40
1.600000000000005
  0
CIRCLE
  5
110
330
1F
100
AcDbEntity
  8
0
  6
Continuous
 62
     7
370
    25
100
AcDbCircle
 10
27.0
 20
72.0
 30
0.0
 40
1.600000000000011
  0
CIRCLE
  5
111
330
1F
100
AcDbEntity
  8
0
  6
Continuous
 62
     7
370
    25
100
AcDbCircle
 10
-19.5
 20
82.0
 30
0.0
 40
1.600000000000001
  0
CIRCLE
  5
112
330
1F
100
AcDbEntity
  8
0
  6
Continuous
 62
     7
370
    25
100
AcDbCircle
 10
-4.5
 20
82.0
 30
0.0
 40
1.600000000000013
  0
CIRCLE
  5
113
330
1F
100
AcDbEntity
  8
0
  6
Continuous
 62
     7
370
    25
100
AcDbCircle
 10
4.5
 20
82.0
 30
0.0
 40
1.600000000000013
  0
CIRCLE
  5
114
330
1F
100
AcDbEntity
  8
0
  6
Continuous
 62
     7
370
    25
100
AcDbCircle
 10
0.0
 20
72.0
 30
0.0
 40
1.600000000000014
  0
CIRCLE
  5
115
330
1F
100
AcDbEntity
  8
0
  6
Continuous
 62
     7
370
    25
100
AcDbCircle
 10
-27.0
 20
72.0
 30
0.0
 40
1.600000000000011
  0
CIRCLE
  5
116
330
1F
100
AcDbEntity
  8
0
  6
Continuous
 62
     7
370
    25
100
AcDbCircle
 10
12.0
 20
72.0
 30
0.0
 40
1.600000000000014
  0
CIRCLE
  5
117
330
1F
100
AcDbEntity
  8
0
  6
Continuous
 62
     7
370
    25
100
AcDbCircle
 10
103.6473508793
 20
16.6414052695
 30
0.0
 40
1.600000000000009
  0
CIRCLE
  5
118
330
1F
100
AcDbEntity
  8
0
  6
Continuous
 62
     7
370
    25
100
AcDbCircle
 10
37.4117957217
 20
-98.0819415311
 30
0.0
 40
1.599999999999994
  0
CIRCLE
  5
119
330
1F
100
AcDbEntity
  8
0
  6
Continuous
 62
     7
370
    25
100
AcDbCircle
 10
57.0902919727
 20
-94.5102773114
 30
0.0
 40
1.600000000000016
  0
CIRCLE
  5
11A
330
1F
100
AcDbEntity
  8
0
  6
Continuous
 62
     7
370
    25
100
AcDbCircle
 10
110.3934470567
 20
-2.186504502
 30
0.0
 40
1.600000000000009
  0
SPLINE
  5
11B
330
1F
100
AcDbEntity
  8
0
  6
Continuous
 62
     7
370
    25
100
AcDbSpline
210
0.0
220
0.0
230
1.0
 70
     8
 71
     3
 72
    15
 73
    11
 74
     0
 42
0.000000001
 43
0.00000001
 40
0.0
 40
0.0
 40
0.0
 40
0.0
 40
0.1223738582470947
 40
0.2415974317247384
 40
0.3623845395050488
 40
0.4912450565005609
 40
0.6216346245644341
 40
0.7475632813047917
 40
0.8714680347351352
 40
0.9999999999999999
 40
0.9999999999999999
 40
0.9999999999999999
 40
0.9999999999999999
 10
-79.42904916199063
 20
43.2046676387407
 30
0.0
 10
-79.4025443105426
 20
43.19108298933439
 30
0.0
 10
-79.35021692518589
 20
43.16426340176516
 30
0.0
 10
-79.26293566327705
 20
43.14802120107907
 30
0.0
 10
-79.17310707620867
 20
43.14745813719197
 30
0.0
 10
-79.0825811044543
 20
43.16758892703455
 30
0.0
 10
-78.99570524239836
 20
43.20265035699466
 30
0.0
 10
-78.91732347362203
 20
43.25202563332203
 30
0.0
 10
-78.85076449499233
 20
43.31626168507263
 30
0.0
 10
-78.81725367636876
 20
43.36758089721275
 30
0.0
 10
-78.80019113729927
 20
43.39371084861722
 30
0.0
  0
SPLINE
  5
11C
330
1F
100
AcDbEntity
  8
0
  6
Continuous
 62
     7
370
    25
100
AcDbSpline
210
0.0
220
0.0
230
1.0
 70
     8
 71
     3
 72
    15
 73
    11
 74
     0
 42
0.000000001
 43
0.00000001
 40
0.0
 40
0.0
 40
0.0
 40
0.0
 40
0.0557669436261573
 40
0.127167170630464
 40
0.2188522822947268
 40
0.331346868213284
 40
0.4647394586375275
 40
0.6210745603082348
 40
0.7988383489181954
 40
1.0
 40
1.0
 40
1.0
 40
1.0
 10
-78.80019113729927
 20
43.39371084861722
 30
0.0
 10
-78.79164421862227
 20
43.41432941747301
 30
0.0
 10
-78.77215440270105
 20
43.46134660890124
 30
0.0
 10
-78.76955036382834
 20
43.54975431996787
 30
0.0
 10
-78.77917971761232
 20
43.65861169938069
 30
0.0
 10
-78.80314244234964
 20
43.79095470501994
 30
0.0
 10
-78.84283622244243
 20
43.94586937490831
 30
0.0
 10
-78.89728951032794
 20
44.12359822219812
 30
0.0
 10
-78.96610280459075
 20
44.32496863183221
 30
0.0
 10
-79.01964504316517
 20
44.46576406048486
 30
0.0
 10
-79.04806922371901
 20
44.54050868812341
 30
0.0
  0
SPLINE
  5
11D
330
1F
100
AcDbEntity
  8
0
  6
Continuous
 62
     7
370
    25
100
AcDbSpline
210
0.0
220
0.0
230
1.0
 70
     8
 71
     3
 72
     9
 73
     5
 74
     0
 42
0.000000001
 43
0.00000001
 40
0.0
 40
0.0
 40
0.0
 40
0.0
 40
0.4998135440524516
 40
1.0
 40
1.0
 40
1.0
 40
1.0
 10
-79.04806922371901
 20
44.54050868812341
 30
0.0
 10
-79.137543733931
 20
44.74976523772163
 30
0.0
 10
-79.31655951146782
 20
45.16843446365255
 30
0.0
 10
-79.49441116258717
 20
45.5875995382256
 30
0.0
 10
-79.58337014964495
 20
45.79726023133328
 30
0.0
  0
SPLINE
  5
11E
330
1F
100
AcDbEntity
  8
0
  6
Continuous
 62
     7
370
    25
100
AcDbSpline
210
0.0
220
0.0
230
1.0
 70
     8
 71
     3
 72
     9
 73
     5
 74
     0
 42
0.000000001
 43
0.00000001
 40
0.0
 40
0.0
 40
0.0
 40
0.0
 40
0.4990308269963045
 40
1.0
 40
1.0
 40
1.0
 40
1.0
 10
-79.58337014964495
 20
45.79726023133328
 30
0.0
 10
-79.42922198938945
 20
45.81882819035179
 30
0.0
 10
-79.1203269233605
 20
45.86204788310769
 30
0.0
 10
-78.81322288978905
 20
45.91655752125932
 30
0.0
 10
-78.65937323606468
 20
45.94386516960488
 30
0.0
  0
SPLINE
  5
11F
330
1F
100
AcDbEntity
  8
0
  6
Continuous
 62
     7
370
    25
100
AcDbSpline
210
0.0
220
0.0
230
1.0
 70
     8
 71
     3
 72
    15
 73
    11
 74
     0
 42
0.000000001
 43
0.00000001
 40
0.0
 40
0.0
 40
0.0
 40
0.0
 40
0.1762802545774066
 40
0.3301412107170248
 40
0.4613863626539785
 40
0.570119860806531
 40
0.670035565723567
 40
0.7750857792676149
 40
0.884583993603138
 40
1.0
 40
1.0
 40
1.0
 40
1.0
 10
-78.65937323606468
 20
45.94386516960488
 30
0.0
 10
-78.59120570688013
 20
45.95215164605443
 30
0.0
 10
-78.4635401854607
 20
45.96767072602279
 30
0.0
 10
-78.28525591373688
 20
45.99042657773475
 30
0.0
 10
-78.13282261812016
 20
46.00787767712437
 30
0.0
 10
-78.00109186122936
 20
46.02110072428025
 30
0.0
 10
-77.87977682182442
 20
46.03632964027919
 30
0.0
 10
-77.75957870549118
 20
46.06025934929615
 30
0.0
 10
-77.63434832664737
 20
46.0895354360454
 30
0.0
 10
-77.55068511609836
 20
46.11564968170536
 30
0.0
 10
-77.50775286569431
 20
46.12905035479007
 30
0.0
  0
SPLINE
  5
120
330
1F
100
AcDbEntity
  8
0
  6
Continuous
 62
     7
370
    25
100
AcDbSpline
210
0.0
220
0.0
230
1.0
 70
     8
 71
     3
 72
    15
 73
    11
 74
     0
 42
0.000000001
 43
0.00000001
 40
0.0
 40
0.0
 40
0.0
 40
0.0
 40
0.1709173277512879
 40
0.3267417817854612
 40
0.4692759198822225
 40
0.5990460294360218
 40
0.7154339520044489
 40
0.8203349494348365
 40
0.9145887736322394
 40
1.0
 40
1.0
 40
1.0
 40
1.0
 10
-77.50775286569431
 20
46.12905035479006
 30
0.0
 10
-77.47908550423207
 20
46.13950241053998
 30
0.0
 10
-77.42428225586342
 20
46.15948355208936
 30
0.0
 10
-77.34641750042518
 20
46.19066129426673
 30
0.0
 10
-77.27821573065809
 20
46.22522602427002
 30
0.0
 10
-77.21675989749681
 20
46.25769549730169
 30
0.0
 10
-77.16568498839935
 20
46.29425574495701
 30
0.0
 10
-77.12170971853251
 20
46.32947754855814
 30
0.0
 10
-77.08596556731017
 20
46.36603448962724
 30
0.0
 10
-77.06851693287517
 20
46.3930301301053
 30
0.0
 10
-77.06022200149678
 20
46.405863626395
 30
0.0
  0
SPLINE
  5
121
330
1F
100
AcDbEntity
  8
0
  6
Continuous
 62
     7
370
    25
100
AcDbSpline
210
0.0
220
0.0
230
1.0
 70
     8
 71
     3
 72
    15
 73
    11
 74
     0
 42
0.000000001
 43
0.00000001
 40
0.0
 40
0.0
 40
0.0
 40
0.0
 40
0.1333640369697578
 40
0.2600793682572051
 40
0.384988892239436
 40
0.5150814571640279
 40
0.6435000184217403
 40
0.7646354090729888
 40
0.8815209645470002
 40
1.0
 40
1.0
 40
1.0
 40
1.0
 10
-77.06022200149678
 20
46.405863626395
 30
0.0
 10
-77.04532575909519
 20
46.43426126129039
 30
0.0
 10
-77.01627590876649
 20
46.48964080071806
 30
0.0
 10
-76.99680283593099
 20
46.5806962887446
 30
0.0
 10
-76.99392514508386
 20
46.67265511187248
 30
0.0
 10
-77.01337410121673
 20
46.76312141228799
 30
0.0
 10
-77.04652431429999
 20
46.84814224649428
 30
0.0
 10
-77.09211885263326
 20
46.92354386402339
 30
0.0
 10
-77.149757160304
 20
46.98776694685046
 30
0.0
 10
-77.19734135584946
 20
47.01835804231402
 30
0.0
 10
-77.22129453236097
 20
47.03375714491352
 30
0.0
  0
SPLINE
  5
122
330
1F
100
AcDbEntity
  8
0
  6
Continuous
 62
     7
370
    25
100
AcDbSpline
210
0.0
220
0.0
230
1.0
 70
     8
 71
     3
 72
    15
 73
    11
 74
     0
 42
0.000000001
 43
0.00000001
 40
0.0
 40
0.0
 40
0.0
 40
0.0
 40
0.0971764155503207
 40
0.194603921353145
 40
0.2957229902927253
 40
0.4065260512102833
 40
0.5307613947209169
 40
0.6710342206722567
 40
0.8269983154131673
 40
1.0
 40
1.0
 40
1.0
 40
1.0
 10
-77.22129453236099
 20
47.03375714491352
 30
0.0
 10
-77.2509806103026
 20
47.04815075131523
 30
0.0
 10
-77.31042947085508
 20
47.07697515518237
 30
0.0
 10
-77.41055209864217
 20
47.09274045171785
 30
0.0
 10
-77.51574761318373
 20
47.08458120876467
 30
0.0
 10
-77.62418146527591
 20
47.0491097063729
 30
0.0
 10
-77.74371432121383
 20
47.00682424890449
 30
0.0
 10
-77.88215437612378
 20
46.97370265905261
 30
0.0
 10
-78.03785653327063
 20
46.94343738977332
 30
0.0
 10
-78.14808608760372
 20
46.92867395130835
 30
0.0
 10
-78.20605533483013
 20
46.92090992269131
 30
0.0
  0
SPLINE
  5
123
330
1F
100
AcDbEntity
  8
0
  6
Continuous
 62
     7
370
    25
100
AcDbSpline
210
0.0
220
0.0
230
1.0
 70
     8
 71
     3
 72
    15
 73
    11
 74
     0
 42
0.000000001
 43
0.00000001
 40
0.0
 40
0.0
 40
0.0
 40
0.0
 40
0.2179942161890822
 40
0.4101550477176947
 40
0.5764824983682184
 40
0.713601819965115
 40
0.8253029719139897
 40
0.9109526931113227
 40
0.9691826207194051
 40
1.0
 40
1.0
 40
1.0
 40
1.0
 10
-78.20605533483011
 20
46.92090992269131
 30
0.0
 10
-78.24945590526423
 20
46.91542703064474
 30
0.0
 10
-78.3311138655008
 20
46.90511099617233
 30
0.0
 10
-78.44591898414679
 20
46.89087065354557
 30
0.0
 10
-78.54450384480113
 20
46.87772935187103
 30
0.0
 10
-78.6274035378077
 20
46.86923627860097
 30
0.0
 10
-78.69369648672192
 20
46.85861274939938
 30
0.0
 10
-78.74458793717145
 20
46.85224017919763
 30
0.0
 10
-78.77933615384747
 20
46.84757245629596
 30
0.0
 10
-78.79697888258336
 20
46.84473233459003
 30
0.0
 10
-78.80308465581778
 20
46.84374942886414
 30
0.0
  0
SPLINE
  5
124
330
1F
100
AcDbEntity
  8
0
  6
Continuous
 62
     7
370
    25
100
AcDbSpline
210
0.0
220
0.0
230
1.0
 70
     8
 71
     3
 72
     9
 73
     5
 74
     0
 42
0.000000001
 43
0.00000001
 40
0.0
 40
0.0
 40
0.0
 40
0.0
 40
0.5046291909082508
 40
1.0
 40
1.0
 40
1.0
 40
1.0
 10
-78.80308465581778
 20
46.84374942886414
 30
0.0
 10
-78.98261788652553
 20
46.81170860557386
 30
0.0
 10
-79.33839046952777
 20
46.74821480880676
 30
0.0
 10
-79.69635923211648
 20
46.69858266010417
 30
0.0
 10
-79.87368650766963
 20
46.67399634244439
 30
0.0
  0
SPLINE
  5
125
330
1F
100
AcDbEntity
  8
0
  6
Continuous
 62
     7
370
    25
100
AcDbSpline
210
0.0
220
0.0
230
1.0
 70
     8
 71
     3
 72
    15
 73
    11
 74
     0
 42
0.000000001
 43
0.00000001
 40
0.0
 40
0.0
 40
0.0
 40
0.0
 40
0.1537145583800495
 40
0.299592870521185
 40
0.4365654261787795
 40
0.5657028887814839
 40
0.6870065665834981
 40
0.7992340353639608
 40
0.9038006519127815
 40
1.0
 40
1.0
 40
1.0
 40
1.0
 10
-79.87368650766963
 20
46.67399634244439
 30
0.0
 10
-79.9013959584593
 20
46.75724545894955
 30
0.0
 10
-79.95540225422033
 20
46.91949971804497
 30
0.0
 10
-80.03309906969595
 20
47.15626665514088
 30
0.0
 10
-80.10683244649911
 20
47.37956949634113
 30
0.0
 10
-80.1752160726886
 20
47.58986398367406
 30
0.0
 10
-80.23891927796177
 20
47.7868295951229
 30
0.0
 10
-80.2966180955956
 20
47.97098791110721
 30
0.0
 10
-80.3508071185342
 20
48.1412268829428
 30
0.0
 10
-80.38492392121971
 20
48.25062695219738
 30
0.0
 10
-80.40127138421283
 20
48.30304726837031
 30
0.0
  0
SPLINE
  5
126
330
1F
100
AcDbEntity
  8
0
  6
Continuous
 62
     7
370
    25
100
AcDbSpline
210
0.0
220
0.0
230
1.0
 70
     8
 71
     3
 72
    15
 73
    11
 74
     0
 42
0.000000001
 43
0.00000001
 40
0.0
 40
0.0
 40
0.0
 40
0.0
 40
0.1611732393632219
 40
0.3117505723917456
 40
0.4528031579742281
 40
0.5825134327452064
 40
0.7026968212683522
 40
0.8122854016671819
 40
0.9112802497489619
 40
1.0
 40
1.0
 40
1.0
 40
1.0
 10
-80.40127138421283
 20
48.30304726837031
 30
0.0
 10
-80.41477337294386
 20
48.34741482354911
 30
0.0
 10
-80.4408896980357
 20
48.43323310688978
 30
0.0
 10
-80.47884033644803
 20
48.55787573689548
 30
0.0
 10
-80.51284116480089
 20
48.67425218786191
 30
0.0
 10
-80.54631609424969
 20
48.78165197490099
 30
0.0
 10
-80.5759221464547
 20
48.88076402477832
 30
0.0
 10
-80.60308641374705
 20
48.97138086069884
 30
0.0
 10
-80.62690726148593
 20
49.05354643867776
 30
0.0
 10
-80.64266593716117
 20
49.10521085191742
 30
0.0
 10
-80.65011397680544
 20
49.12962905849378
 30
0.0
  0
SPLINE
  5
127
330
1F
100
AcDbEntity
  8
0
  6
Continuous
 62
     7
370
    25
100
AcDbSpline
210
0.0
220
0.0
230
1.0
 70
     8
 71
     3
 72
    11
 73
     7
 74
     0
 42
0.000000001
 43
0.00000001
 40
0.0
 40
0.0
 40
0.0
 40
0.0
 40
0.2639521771687044
 40
0.5125225472434314
 40
0.7556140041079558
 40
1.0
 40
1.0
 40
1.0
 40
1.0
 10
-80.65011397680544
 20
49.12962905849378
 30
0.0
 10
-80.66016588754464
 20
49.15545579433662
 30
0.0
 10
-80.67968393415441
 20
49.20560421358117
 30
0.0
 10
-80.72312005078537
 20
49.27239980883925
 30
0.0
 10
-80.7766209115508
 20
49.32884034840566
 30
0.0
 10
-80.81955976057853
 20
49.35675913700903
 30
0.0
 10
-80.84108619902764
 20
49.37075560170365
 30
0.0
  0
SPLINE
  5
128
330
1F
100
AcDbEntity
  8
0
  6
Continuous
 62
     7
370
    25
100
AcDbSpline
210
0.0
220
0.0
230
1.0
 70
     8
 71
     3
 72
    15
 73
    11
 74
     0
 42
0.000000001
 43
0.00000001
 40
0.0
 40
0.0
 40
0.0
 40
0.0
 40
0.1137922408579182
 40
0.2269071409311715
 40
0.3437645925529266
 40
0.4713124378289538
 40
0.6032841885461537
 40
0.7319836224200146
 40
0.8634887106054356
 40
1.0
 40
1.0
 40
1.0
 40
1.0
 10
-80.84108619902764
 20
49.37075560170365
 30
0.0
 10
-80.867563765212
 20
49.38413239573485
 30
0.0
 10
-80.92036129161983
 20
49.41080635931581
 30
0.0
 10
-81.0099025663241
 20
49.42444893543522
 30
0.0
 10
-81.1029145971072
 20
49.41685035524823
 30
0.0
 10
-81.19706315448055
 20
49.38918651772525
 30
0.0
 10
-81.28862142835041
 20
49.34604010735745
 30
0.0
 10
-81.37089614885801
 20
49.28548178281893
 30
0.0
 10
-81.44392438980954
 20
49.21197637299645
 30
0.0
 10
-81.4809733973849
 20
49.15294467988822
 30
0.0
 10
-81.49984391507704
 20
49.1228775152839
 30
0.0
  0
SPLINE
  5
129
330
1F
100
AcDbEntity
  8
0
  6
Continuous
 62
     7
370
    25
100
AcDbSpline
210
0.0
220
0.0
230
1.0
 70
     8
 71
     3
 72
    11
 73
     7
 74
     0
 42
0.000000001
 43
0.00000001
 40
0.0
 40
0.0
 40
0.0
 40
0.0
 40
0.2553624799083913
 40
0.4995849470563051
 40
0.7474705143764573
 40
0.9999999999999999
 40
0.9999999999999999
 40
0.9999999999999999
 40
0.9999999999999999
 10
-81.49984391507704
 20
49.1228775152839
 30
0.0
 10
-81.51615214298393
 20
49.09154585496768
 30
0.0
 10
-81.5480571635585
 20
49.03024935649277
 30
0.0
 10
-81.57521820979025
 20
48.92999962005435
 30
0.0
 10
-81.58443960132807
 20
48.82696808225543
 30
0.0
 10
-81.57629298635979
 20
48.75824990518089
 30
0.0
 10
-81.57218187804
 20
48.72357195972833
 30
0.0
  0
SPLINE
  5
12A
330
1F
100
AcDbEntity
  8
0
  6
Continuous
 62
     7
370
    25
100
AcDbSpline
210
0.0
220
0.0
230
1.0
 70
     8
 71
     3
 72
    15
 73
    11
 74
     0
 42
0.000000001
 43
0.00000001
 40
0.0
 40
0.0
 40
0.0
 40
0.0
 40
0.1609387097667464
 40
0.3125198003347007
 40
0.4522231143341424
 40
0.5822023871794729
 40
0.7028295408342025
 40
0.8119700639783318
 40
0.911383102766785
 40
1.0
 40
1.0
 40
1.0
 40
1.0
 10
-81.57218187804
 20
48.72357195972833
 30
0.0
 10
-81.55775942929752
 20
48.68047544906943
 30
0.0
 10
-81.52975311056991
 20
48.5967882309616
 30
0.0
 10
-81.48848836943814
 20
48.47594034724428
 30
0.0
 10
-81.44951883798245
 20
48.36354795826071
 30
0.0
 10
-81.41398326095816
 20
48.25922006769982
 30
0.0
 10
-81.38073162464902
 20
48.16322518138491
 30
0.0
 10
-81.34828186109439
 20
48.0761156884089
 30
0.0
 10
-81.31965870609062
 20
47.99723366347204
 30
0.0
 10
-81.30118268044458
 20
47.94745608740074
 30
0.0
 10
-81.29247508791654
 20
47.92399634244439
 30
0.0
  0
SPLINE
  5
12B
330
1F
100
AcDbEntity
  8
0
  6
Continuous
 62
     7
370
    25
100
AcDbSpline
210
0.0
220
0.0
230
1.0
 70
     8
 71
     3
 72
    15
 73
    11
 74
     0
 42
0.000000001
 43
0.00000001
 40
0.0
 40
0.0
 40
0.0
 40
0.0
 40
0.1464792088204643
 40
0.2868772184740052
 40
0.4211981283538097
 40
0.5489913480604403
 40
0.6707093481364752
 40
0.786980090837948
 40
0.8963287493584391
 40
0.9999999999999999
 40
0.9999999999999999
 40
0.9999999999999999
 40
0.9999999999999999
 10
-81.29247508791654
 20
47.92399634244439
 30
0.0
 10
-81.26906494499367
 20
47.85710307976895
 30
0.0
 10
-81.22321654958063
 20
47.72609368065009
 30
0.0
 10
-81.15489577626349
 20
47.53409539615025
 30
0.0
 10
-81.08778932776211
 20
47.35127186109972
 30
0.0
 10
-81.02566098493463
 20
47.17625936654949
 30
0.0
 10
-80.96458070719946
 20
47.01015457932155
 30
0.0
 10
-80.90606367493461
 20
46.85261838005635
 30
0.0
 10
-80.84974135634184
 20
46.70358402793731
 30
0.0
 10
-80.81342744519183
 20
46.60712749868259
 30
0.0
 10
-80.7957544089042
 20
46.56018461404933
 30
0.0
  0
SPLINE
  5
12C
330
1F
100
AcDbEntity
  8
0
  6
Continuous
 62
     7
370
    25
100
AcDbSpline
210
0.0
220
0.0
230
1.0
 70
     8
 71
     3
 72
    11
 73
     7
 74
     0
 42
0.000000001
 43
0.00000001
 40
0.0
 40
0.0
 40
0.0
 40
0.0
 40
0.3115560314365536
 40
0.5832430202740828
 40
0.8123004750757532
 40
1.0
 40
1.0
 40
1.0
 40
1.0
 10
-80.7957544089042
 20
46.56018461404933
 30
0.0
 10
-80.86615876854653
 20
46.55624020551855
 30
0.0
 10
-80.9979580188096
 20
46.54885614450686
 30
0.0
 10
-81.18158610766125
 20
46.5398370110851
 30
0.0
 10
-81.3371173374368
 20
46.53033331737989
 30
0.0
 10
-81.43135801519146
 20
46.52630993954764
 30
0.0
 10
-81.47380224841038
 20
46.52449788565426
 30
0.0
  0
SPLINE
  5
12D
330
1F
100
AcDbEntity
  8
0
  6
Continuous
 62
     7
370
    25
100
AcDbSpline
210
0.0
220
0.0
230
1.0
 70
     8
 71
     3
 72
    15
 73
    11
 74
     0
 42
0.000000001
 43
0.00000001
 40
0.0
 40
0.0
 40
0.0
 40
0.0
 40
0.1617597590123752
 40
0.3119720474796518
 40
0.4532033684708215
 40
0.5828375533530396
 40
0.7035085818114934
 40
0.8126088605786254
 40
0.9114423726384184
 40
1.0
 40
1.0
 40
1.0
 40
1.0
 10
-81.47380224841038
 20
46.52449788565426
 30
0.0
 10
-81.51431154822062
 20
46.52353034150251
 30
0.0
 10
-81.59243832882989
 20
46.52166432283454
 30
0.0
 10
-81.70593284012993
 20
46.5190027944206
 30
0.0
 10
-81.81135682224054
 20
46.51522894269326
 30
0.0
 10
-81.90945145586538
 20
46.51540092025432
 30
0.0
 10
-81.99944780630774
 20
46.5126036261128
 30
0.0
 10
-82.08176511209638
 20
46.51217323473751
 30
0.0
 10
-82.15602572796203
 20
46.51074651108632
 30
0.0
 10
-82.20296833770381
 20
46.51091511846782
 30
0.0
 10
-82.22515255705234
 20
46.51099479923451
 30
0.0
  0
SPLINE
  5
12E
330
1F
100
AcDbEntity
  8
0
  6
Continuous
 62
     7
370
    25
100
AcDbSpline
210
0.0
220
0.0
230
1.0
 70
     8
 71
     3
 72
    15
 73
    11
 74
     0
 42
0.000000001
 43
0.00000001
 40
0.0
 40
0.0
 40
0.0
 40
0.0
 40
0.1799415336082308
 40
0.3416746938752586
 40
0.4858647890775256
 40
0.6140255510316375
 40
0.7278926262135301
 40
0.827562954706917
 40
0.9175827817260266
 40
1.0
 40
1.0
 40
1.0
 40
1.0
 10
-82.22515255705234
 20
46.51099479923451
 30
0.0
 10
-82.29529299572442
 20
46.50796054289438
 30
0.0
 10
-82.42847632717103
 20
46.50219906812329
 30
0.0
 10
-82.61704929497225
 20
46.48133575217093
 30
0.0
 10
-82.78367486264538
 20
46.45060886917624
 30
0.0
 10
-82.92970500971566
 20
46.41245934310388
 30
0.0
 10
-83.05364104428388
 20
46.36231942943873
 30
0.0
 10
-83.1573993440802
 20
46.30478818076808
 30
0.0
 10
-83.24051796477269
 20
46.23663636311755
 30
0.0
 10
-83.27854411225596
 20
46.1808100185556
 30
0.0
 10
-83.29671891507704
 20
46.1541275152839
 30
0.0
  0
SPLINE
  5
12F
330
1F
100
AcDbEntity
  8
0
  6
Continuous
 62
     7
370
    25
100
AcDbSpline
210
0.0
220
0.0
230
1.0
 70
     8
 71
     3
 72
    15
 73
    11
 74
     0
 42
0.000000001
 43
0.00000001
 40
0.0
 40
0.0
 40
0.0
 40
0.0
 40
0.1372234975463108
 40
0.2688688196347366
 40
0.3982993247944744
 40
0.5299675218304314
 40
0.6570735824854399
 40
0.7745185394804823
 40
0.8868585749610225
 40
1.0
 40
1.0
 40
1.0
 40
1.0
 10
-83.29671891507704
 20
46.1541275152839
 30
0.0
 10
-83.3132212876378
 20
46.12212616210896
 30
0.0
 10
-83.34555520647035
 20
46.05942432015982
 30
0.0
 10
-83.37519396586833
 20
45.95851359628097
 30
0.0
 10
-83.38425362632884
 20
45.85555386190018
 30
0.0
 10
-83.37743761009901
 20
45.75350957036457
 30
0.0
 10
-83.35130022974643
 20
45.65788744450468
 30
0.0
 10
-83.31142645453295
 20
45.57263633853132
 30
0.0
 10
-83.25296005703822
 20
45.50259163716591
 30
0.0
 10
-83.2037444331853
 20
45.4695240729068
 30
0.0
 10
-83.17904916199063
 20
45.45293152762958
 30
0.0
  0
SPLINE
  5
130
330
1F
100
AcDbEntity
  8
0
  6
Continuous
 62
     7
370
    25
100
AcDbSpline
210
0.0
220
0.0
230
1.0
 70
     8
 71
     3
 72
    11
 73
     7
 74
     0
 42
0.000000001
 43
0.00000001
 40
0.0
 40
0.0
 40
0.0
 40
0.0
 40
0.2400354279494449
 40
0.4788552951080807
 40
0.7298254568192184
 40
0.9999999999999999
 40
0.9999999999999999
 40
0.9999999999999999
 40
0.9999999999999999
 10
-83.17904916199063
 20
45.45293152762958
 30
0.0
 10
-83.15567863944104
 20
45.44084925959282
 30
0.0
 10
-83.10905594475003
 20
45.41674590920101
 30
0.0
 10
-83.03034399677696
 20
45.40095795245657
 30
0.0
 10
-82.9472414470382
 20
45.39467551912639
 30
0.0
 10
-82.89092335088324
 20
45.40382231452649
 30
0.0
 10
-82.86172663112644
 20
45.40856424367897
 30
0.0
  0
SPLINE
  5
131
330
1F
100
AcDbEntity
  8
0
  6
Continuous
 62
     7
370
    25
100
AcDbSpline
210
0.0
220
0.0
230
1.0
 70
     8
 71
     3
 72
    11
 73
     7
 74
     0
 42
0.000000001
 43
0.00000001
 40
0.0
 40
0.0
 40
0.0
 40
0.0
 40
0.2179538536356755
 40
0.4571577749432347
 40
0.7177931385285079
 40
1.0
 40
1.0
 40
1.0
 40
1.0
 10
-82.86172663112644
 20
45.40856424367897
 30
0.0
 10
-82.77758588789497
 20
45.42453503180914
 30
0.0
 10
-82.60110084614823
 20
45.45803372817951
 30
0.0
 10
-82.32207490068994
 20
45.4994673567183
 30
0.0
 10
-82.01723747266311
 20
45.53824659187745
 30
0.0
 10
-81.80500648162722
 20
45.55953440561715
 30
0.0
 10
-81.69467416199062
 20
45.57060128071599
 30
0.0
  0
SPLINE
  5
133
330
1F
100
AcDbEntity
  8
0
  6
Continuous
 62
     7
370
    25
100
AcDbSpline
210
0.0
220
0.0
230
1.0
 70
     8
 71
     3
 72
    15
 73
    11
 74
     0
 42
0.000000001
 43
0.00000001
 40
0.0
 40
0.0
 40
0.0
 40
0.0
 40
0.1622170392521
 40
0.3136735993967563
 40
0.4543708657770026
 40
0.5841992285916802
 40
0.7043298813668699
 40
0.8136202371245664
 40
0.9121743341390272
 40
1.0
 40
1.0
 40
1.0
 40
1.0
 10
-80.51990564347213
 20
45.68055498441974
 30
0.0
 10
-80.49328060187865
 20
45.61365829623898
 30
0.0
 10
-80.44179665993752
 20
45.48430243407968
 30
0.0
 10
-80.36625087170295
 20
45.29731861829657
 30
0.0
 10
-80.29694022852689
 20
45.12330110530666
 30
0.0
 10
-80.22773619241956
 20
44.96430212907246
 30
0.0
 10
-80.16770526310376
 20
44.81656095712554
 30
0.0
 10
-80.10806974875662
 20
44.68374885248315
 30
0.0
 10
-80.05438496242009
 20
44.5639996114624
 30
0.0
 10
-80.01941081426682
 20
44.48903015634588
 30
0.0
 10
-80.00293033483015
 20
44.45370313256787
 30
0.0
  0
SPLINE
  5
134
330
1F
100
AcDbEntity
  8
0
  6
Continuous
 62
     7
370
    25
100
AcDbSpline
210
0.0
220
0.0
230
1.0
 70
     8
 71
     3
 72
    15
 73
    11
 74
     0
 42
0.000000001
 43
0.00000001
 40
0.0
 40
0.0
 40
0.0
 40
0.0
 40
0.0994936247352672
 40
0.2055078602951843
 40
0.3197179692777483
 40
0.4406433910811928
 40
0.5698099038983645
 40
0.7055317082635864
 40
0.849205340124082
 40
1.0
 40
1.0
 40
1.0
 40
1.0
 10
-80.00293033483014
 20
44.45370313256785
 30
0.0
 10
-79.98873265645739
 20
44.42125365284612
 30
0.0
 10
-79.95940681260247
 20
44.35422802016816
 30
0.0
 10
-79.91481050109194
 20
44.24951056312889
 30
0.0
 10
-79.86836826518591
 20
44.13728139960292
 30
0.0
 10
-79.82236003236969
 20
44.01601439455617
 30
0.0
 10
-79.77450192813014
 20
43.88727789001921
 30
0.0
 10
-79.7237688508562
 20
43.75096249919731
 30
0.0
 10
-79.67293589592222
 20
43.60649167256607
 30
0.0
 10
-79.63921736432961
 20
43.50723316913141
 30
0.0
 10
-79.62195039655852
 20
43.45640374985179
 30
0.0
  0
SPLINE
  5
135
330
1F
100
AcDbEntity
  8
0
  6
Continuous
 62
     7
370
    25
100
AcDbSpline
210
0.0
220
0.0
230
1.0
 70
     8
 71
     3
 72
    11
 73
     7
 74
     0
 42
0.000000001
 43
0.00000001
 40
0.0
 40
0.0
 40
0.0
 40
0.0
 40
0.2707916818155511
 40
0.5250384008960726
 40
0.763041220742993
 40
0.9999999999999999
 40
0.9999999999999999
 40
0.9999999999999999
 40
0.9999999999999999
 10
-79.62195039655853
 20
43.45640374985182
 30
0.0
 10
-79.6117153901291
 20
43.42889216885228
 30
0.0
 10
-79.5918707207034
 20
43.37554992289675
 30
0.0
 10
-79.54635204048515
 20
43.30631118534224
 30
0.0
 10
-79.49420217147217
 20
43.24627062679799
 30
0.0
 10
-79.4507349825696
 20
43.2185149643169
 30
0.0
 10
-79.42904916199063
 20
43.2046676387407
 30
0.0
  0
SPLINE
  5
136
330
1F
100
AcDbEntity
  8
0
  6
Continuous
 62
     7
370
    25
100
AcDbSpline
210
0.0
220
0.0
230
1.0
 70
     8
 71
     3
 72
    11
 73
     7
 74
     0
 42
0.000000001
 43
0.00000001
 40
0.0
 40
0.0
 40
0.0
 40
0.0
 40
0.2568478676959582
 40
0.5011361000783245
 40
0.7437191108174181
 40
1.0
 40
1.0
 40
1.0
 40
1.0
 10
2.006172839506152
 20
-90.49864969135803
 30
0.0
 10
2.00481340492459
 20
-90.46752453781676
 30
0.0
 10
2.002161010919428
 20
-90.40679622342611
 30
0.0
 10
1.972224100288774
 20
-90.32109422944569
 30
0.0
 10
1.926340978570313
 20
-90.24302013312204
 30
0.0
 10
1.882866507273803
 20
-90.2009901648262
 30
0.0
 10
1.860532407407363
 20
-90.17939814814815
 30
0.0
  0
SPLINE
  5
137
330
1F
100
AcDbEntity
  8
0
  6
Continuous
 62
     7
370
    25
100
AcDbSpline
210
0.0
220
0.0
230
1.0
 70
     8
 71
     3
 72
    11
 73
     7
 74
     0
 42
0.000000001
 43
0.00000001
 40
0.0
 40
0.0
 40
0.0
 40
0.0
 40
0.2568630851445611
 40
0.5022881763937268
 40
0.7489880374907563
 40
1.0
 40
1.0
 40
1.0
 40
1.0
 10
1.860532407407365
 20
-90.17939814814815
 30
0.0
 10
1.837901680325607
 20
-90.16162089609702
 30
0.0
 10
1.793647961929432
 20
-90.12685800477291
 30
0.0
 10
1.718807991186046
 20
-90.08763928932825
 30
0.0
 10
1.637571046264347
 20
-90.0666840884312
 30
0.0
 10
1.581897427708672
 20
-90.06338980657468
 30
0.0
 10
1.553819444444392
 20
-90.06172839506175
 30
0.0
  0
SPLINE
  5
138
330
1F
100
AcDbEntity
  8
0
  6
Continuous
 62
     7
370
    25
100
AcDbSpline
210
0.0
220
0.0
230
1.0
 70
     8
 71
     3
 72
    15
 73
    11
 74
     0
 42
0.000000001
 43
0.00000001
 40
0.0
 40
0.0
 40
0.0
 40
0.0
 40
0.1305878572295457
 40
0.2527448716881615
 40
0.3713967853300421
 40
0.4874018549268708
 40
0.6050969370185934
 40
0.7278262404528524
 40
0.8595071054133725
 40
1.0
 40
1.0
 40
1.0
 40
1.0
 10
1.55381944444439
 20
-90.06172839506175
 30
0.0
 10
1.530285747811426
 20
-90.0626718243815
 30
0.0
 10
1.484737706346962
 20
-90.06449777456879
 30
0.0
 10
1.418864610016886
 20
-90.07814714904569
 30
0.0
 10
1.358719928456397
 20
-90.10149871319732
 30
0.0
 10
1.303529032606815
 20
-90.1335452991191
 30
0.0
 10
1.255022677474948
 20
-90.17610954187936
 30
0.0
 10
1.211124073629155
 20
-90.22698009163787
 30
0.0
 10
1.172330829177843
 20
-90.28698789719549
 30
0.0
 10
1.152309884755728
 20
-90.33180447900654
 30
0.0
 10
1.141975308641922
 20
-90.35493827160498
 30
0.0
  0
SPLINE
  5
139
330
1F
100
AcDbEntity
  8
0
  6
Continuous
 62
     7
370
    25
100
AcDbSpline
210
0.0
220
0.0
230
1.0
 70
     8
 71
     3
 72
    15
 73
    11
 74
     0
 42
0.000000001
 43
0.00000001
 40
0.0
 40
0.0
 40
0.0
 40
0.0
 40
0.1616103604228212
 40
0.3128164541803371
 40
0.4541353530097731
 40
0.584375449417593
 40
0.7035392510136327
 40
0.8128163915492221
 40
0.9122069785755629
 40
1.0
 40
1.0
 40
1.0
 40
1.0
 10
1.141975308641923
 20
-90.35493827160498
 30
0.0
 10
1.125827803904867
 20
-90.39155805767672
 30
0.0
 10
1.094572349969297
 20
-90.46244009520106
 30
0.0
 10
1.050378267037272
 20
-90.56585718014918
 30
0.0
 10
1.009056415227825
 20
-90.66205163367572
 30
0.0
 10
0.9705232140319268
 20
-90.75080806964453
 30
0.0
 10
0.9346111965847481
 20
-90.83204946028874
 30
0.0
 10
0.9018968418088827
 20
-90.90635113753825
 30
0.0
 10
0.8719944083873588
 20
-90.97340252352363
 30
0.0
 10
0.8535555956495446
 20
-91.01593228385923
 30
0.0
 10
0.8449074074073689
 20
-91.03587962962966
 30
0.0
  0
SPLINE
  5
13A
330
1F
100
AcDbEntity
  8
0
  6
Continuous
 62
     7
370
    25
100
AcDbSpline
210
0.0
220
0.0
230
1.0
 70
     8
 71
     3
 72
    15
 73
    11
 74
     0
 42
0.000000001
 43
0.00000001
 40
0.0
 40
0.0
 40
0.0
 40
0.0
 40
0.1616231365861336
 40
0.3126656104123509
 40
0.452882125426964
 40
0.5830402078443463
 40
0.7033905570985421
 40
0.812397564446871
 40
0.911097550348578
 40
0.9999999999999999
 40
0.9999999999999999
 40
0.9999999999999999
 40
0.9999999999999999
 10
0.844907407407378
 20
-91.03587962962965
 30
0.0
 10
0.8067243716684044
 20
-91.11757676775407
 30
0.0
 10
0.732857953599229
 20
-91.27562273877135
 30
0.0
 10
0.6246345598015365
 20
-91.50396605890317
 30
0.0
 10
0.5242474377214841
 20
-91.71659344627612
 30
0.0
 10
0.4308838660376326
 20
-91.91360099210726
 30
0.0
 10
0.3433852263430314
 20
-92.09411018147973
 30
0.0
 10
0.2627438178677041
 20
-92.25843171556274
 30
0.0
 10
0.1909032631706379
 20
-92.40752778877497
 30
0.0
 10
0.1438335341213356
 20
-92.5010247491011
 30
0.0
 10
0.1215277777777482
 20
-92.54533179012348
 30
0.0
  0
SPLINE
  5
13B
330
1F
100
AcDbEntity
  8
0
  6
Continuous
 62
     7
370
    25
100
AcDbSpline
210
0.0
220
0.0
230
1.0
 70
     8
 71
     3
 72
    15
 73
    11
 74
     0
 42
0.000000001
 43
0.00000001
 40
0.0
 40
0.0
 40
0.0
 40
0.0
 40
0.1008965079273009
 40
0.2082084069713298
 40
0.3228658048672324
 40
0.4447167447931376
 40
0.5725837863619415
 40
0.7076942586211183
 40
0.850802837159803
 40
1.0
 40
1.0
 40
1.0
 40
1.0
 10
0.121527777777738
 20
-92.5453317901235
 30
0.0
 10
0.0986342459260653
 20
-92.51580600523212
 30
0.0
 10
0.0513915227168668
 20
-92.45487707158422
 30
0.0
 10
-0.0205420722182055
 20
-92.35935730096783
 30
0.0
 10
-0.093301166267633
 20
-92.25485903394811
 30
0.0
 10
-0.169421689566609
 20
-92.14345167210509
 30
0.0
 10
-0.2476091701909826
 20
-92.02430631701152
 30
0.0
 10
-0.3288850321828615
 20
-91.89778613000055
 30
0.0
 10
-0.4123671965355672
 20
-91.76331189450133
 30
0.0
 10
-0.4682150901680802
 20
-91.67059033883777
 30
0.0
 10
-0.496720679012371
 20
-91.62326388888891
 30
0.0
  0
SPLINE
  5
13C
330
1F
100
AcDbEntity
  8
0
  6
Continuous
 62
     7
370
    25
100
AcDbSpline
210
0.0
220
0.0
230
1.0
 70
     8
 71
     3
 72
    23
 73
    19
 74
     0
 42
0.000000001
 43
0.00000001
 40
0.0
 40
0.0
 40
0.0
 40
0.0
 40
0.1165520795813553
 40
0.2256783472470636
 40
0.3270867404308901
 40
0.4222576777430895
 40
0.5097132576197578
 40
0.5904814680494422
 40
0.6635316018985871
 40
0.7291557728726976
 40
0.7882539353306643
 40
0.8399226879240731
 40
0.8846146710261148
 40
0.9218811815225482
 40
0.9521692604336746
 40
0.9754796763499392
 40
0.9910867938381915
 40
1.0
 40
1.0
 40
1.0
 40
1.0
 10
-0.4967206790123749
 20
-91.62326388888891
 30
0.0
 10
-0.5192987078566483
 20
-91.58633529604833
 30
0.0
 10
-0.5630162652951274
 20
-91.51483091939231
 30
0.0
 10
-0.6251901243829443
 20
-91.41047648500995
 30
0.0
 10
-0.6847690109057819
 20
-91.31383451499676
 30
0.0
 10
-0.7389259991309495
 20
-91.2233141263914
 30
0.0
 10
-0.7909726018461225
 20
-91.14048443579796
 30
0.0
 10
-0.8363426469578717
 20
-91.06320917292749
 30
0.0
 10
-0.8794799003733569
 20
-90.99406216074694
 30
0.0
 10
-0.9165814589180881
 20
-90.93066481650607
 30
0.0
 10
-0.9517365644850415
 20
-90.87538110466227
 30
0.0
 10
-0.9813138919995144
 20
-90.82579739435519
 30
0.0
 10
-1.007656448232634
 20
-90.78373698803881
 30
0.0
 10
-1.028647372768339
 20
-90.74771661285108
 30
0.0
 10
-1.046259471877575
 20
-90.71893807031643
 30
0.0
 10
-1.059033608343641
 20
-90.69661495073062
 30
0.0
 10
-1.069579596454
 20
-90.68226321971663
 30
0.0
 10
-1.073866192922218
 20
-90.67422002136979
 30
0.0
 10
-1.075424382716079
 20
-90.67129629629632
 30
0.0
  0
SPLINE
  5
13E
330
1F
100
AcDbEntity
  8
0
  6
Continuous
 62
     7
370
    25
100
AcDbSpline
210
0.0
220
0.0
230
1.0
 70
     8
 71
     3
 72
    11
 73
     7
 74
     0
 42
0.000000001
 43
0.00000001
 40
0.0
 40
0.0
 40
0.0
 40
0.0
 40
0.2840675575820641
 40
0.5362929600324877
 40
0.7704250294455954
 40
1.0
 40
1.0
 40
1.0
 40
1.0
 10
-1.327160493827199
 20
-90.27970679012348
 30
0.0
 10
-1.356545171404999
 20
-90.24666034080812
 30
0.0
 10
-1.412020692270301
 20
-90.1842717376436
 30
0.0
 10
-1.50950337865975
 20
-90.1133512349371
 30
0.0
 10
-1.613675509660459
 20
-90.06964160174238
 30
0.0
 10
-1.685890748248699
 20
-90.06434879219181
 30
0.0
 10
-1.721643518518557
 20
-90.06172839506175
 30
0.0
  0
SPLINE
  5
13F
330
1F
100
AcDbEntity
  8
0
  6
Continuous
 62
     7
370
    25
100
AcDbSpline
210
0.0
220
0.0
230
1.0
 70
     8
 71
     3
 72
    11
 73
     7
 74
     0
 42
0.000000001
 43
0.00000001
 40
0.0
 40
0.0
 40
0.0
 40
0.0
 40
0.2534632684154429
 40
0.5004538092939792
 40
0.7447301702666487
 40
1.0
 40
1.0
 40
1.0
 40
1.0
 10
-1.721643518518558
 20
-90.06172839506175
 30
0.0
 10
-1.751361215418804
 20
-90.06325306154113
 30
0.0
 10
-1.810037704166653
 20
-90.06626345887517
 30
0.0
 10
-1.894926737908711
 20
-90.08897155207008
 30
0.0
 10
-1.974334523464814
 20
-90.12720787259619
 30
0.0
 10
-2.020300041624325
 20
-90.16366298053303
 30
0.0
 10
-2.043788580246949
 20
-90.1822916666667
 30
0.0
  0
SPLINE
  5
140
330
1F
100
AcDbEntity
  8
0
  6
Continuous
 62
     7
370
    25
100
AcDbSpline
210
0.0
220
0.0
230
1.0
 70
     8
 71
     3
 72
    11
 73
     7
 74
     0
 42
0.000000001
 43
0.00000001
 40
0.0
 40
0.0
 40
0.0
 40
0.0
 40
0.2596418608646816
 40
0.5054998336212788
 40
0.7485799879823998
 40
1.0
 40
1.0
 40
1.0
 40
1.0
 10
-2.043788580246947
 20
-90.1822916666667
 30
0.0
 10
-2.0663918872249
 20
-90.20422113087945
 30
0.0
 10
-2.110398534991918
 20
-90.24691586613527
 30
0.0
 10
-2.15767180508825
 20
-90.32524941583635
 30
0.0
 10
-2.185618965862567
 20
-90.41127135832886
 30
0.0
 10
-2.189423616317004
 20
-90.47111616063148
 30
0.0
 10
-2.191358024691389
 20
-90.50154320987659
 30
0.0
  0
SPLINE
  5
141
330
1F
100
AcDbEntity
  8
0
  6
Continuous
 62
     7
370
    25
100
AcDbSpline
210
0.0
220
0.0
230
1.0
 70
     8
 71
     3
 72
    11
 73
     7
 74
     0
 42
0.000000001
 43
0.00000001
 40
0.0
 40
0.0
 40
0.0
 40
0.0
 40
0.2458344514642035
 40
0.4887538301338153
 40
0.7416207157049439
 40
0.9999999999999999
 40
0.9999999999999999
 40
0.9999999999999999
 40
0.9999999999999999
 10
-2.191358024691389
 20
-90.50154320987659
 30
0.0
 10
-2.190717646803363
 20
-90.52155061311316
 30
0.0
 10
-2.189444484544609
 20
-90.56132817441377
 30
0.0
 10
-2.175895686125652
 20
-90.62034902337108
 30
0.0
 10
-2.155046380457289
 20
-90.67818599551521
 30
0.0
 10
-2.134959055043526
 20
-90.71461419972614
 30
0.0
 10
-2.124807098765462
 20
-90.73302469135805
 30
0.0
  0
SPLINE
  5
142
330
1F
100
AcDbEntity
  8
0
  6
Continuous
 62
     7
370
    25
100
AcDbSpline
210
0.0
220
0.0
230
1.0
 70
     8
 71
     3
 72
    15
 73
    11
 74
     0
 42
0.000000001
 43
0.00000001
 40
0.0
 40
0.0
 40
0.0
 40
0.0
 40
0.1613828732243198
 40
0.3120467668630773
 40
0.4529442078986753
 40
0.5829751862129702
 40
0.7027023951358886
 40
0.8122496267815178
 40
0.9113484012425938
 40
1.0
 40
1.0
 40
1.0
 40
1.0
 10
-2.124807098765462
 20
-90.73302469135805
 30
0.0
 10
-2.068185328072537
 20
-90.8210922999263
 30
0.0
 10
-1.958702579836728
 20
-90.99137810516719
 30
0.0
 10
-1.800394483828503
 20
-91.23894250055284
 30
0.0
 10
-1.652470050787596
 20
-91.46900514462467
 30
0.0
 10
-1.513714193850551
 20
-91.68109257224319
 30
0.0
 10
-1.388016112301061
 20
-91.87740610506103
 30
0.0
 10
-1.271099151017542
 20
-92.05549523394201
 30
0.0
 10
-1.165154225886324
 20
-92.21666817585746
 30
0.0
 10
-1.097652263617768
 20
-92.31805908407684
 30
0.0
 10
-1.065779320987684
 20
-92.36593364197533
 30
0.0
  0
SPLINE
  5
143
330
1F
100
AcDbEntity
  8
0
  6
Continuous
 62
     7
370
    25
100
AcDbSpline
210
0.0
220
0.0
230
1.0
 70
     8
 71
     3
 72
    15
 73
    11
 74
     0
 42
0.000000001
 43
0.00000001
 40
0.0
 40
0.0
 40
0.0
 40
0.0
 40
0.1611035651899517
 40
0.3120965978698947
 40
0.451970917864161
 40
0.5823447155864727
 40
0.7020082152410947
 40
0.8115716361208644
 40
0.9110399762352503
 40
1.0
 40
1.0
 40
1.0
 40
1.0
 10
-1.065779320987684
 20
-92.36593364197533
 30
0.0
 10
-1.026921869112714
 20
-92.42544053591115
 30
0.0
 10
-0.9516455801133212
 20
-92.54071979199266
 30
0.0
 10
-0.8419099902606235
 20
-92.70719143623916
 30
0.0
 10
-0.7391513407267042
 20
-92.86202281932572
 30
0.0
 10
-0.6442989731236032
 20
-93.00551649875204
 30
0.0
 10
-0.5552495949525141
 20
-93.13680366163713
 30
0.0
 10
-0.4733986570070771
 20
-93.25649697509941
 30
0.0
 10
-0.3981255749712781
 20
-93.36427182911358
 30
0.0
 10
-0.3504435433303887
 20
-93.4323604522647
 30
0.0
 10
-0.3279320987654619
 20
-93.46450617283955
 30
0.0
  0
SPLINE
  5
144
330
1F
100
AcDbEntity
  8
0
  6
Continuous
 62
     7
370
    25
100
AcDbSpline
210
0.0
220
0.0
230
1.0
 70
     8
 71
     3
 72
    23
 73
    19
 74
     0
 42
0.000000001
 43
0.00000001
 40
0.0
 40
0.0
 40
0.0
 40
0.0
 40
0.1099259285927657
 40
0.2135254802904317
 40
0.3102500418098868
 40
0.4015251399448933
 40
0.4862408855898945
 40
0.5637820354845651
 40
0.635887526480906
 40
0.7014350301952017
 40
0.7606994555236783
 40
0.8131281689376948
 40
0.8601618507505767
 40
0.9004004397878692
 40
0.9341188647646295
 40
0.9623246867960589
 40
0.9839581166279243
 40
1.0
 40
1.0
 40
1.0
 40
1.0
 10
-0.3279320987654628
 20
-93.46450617283955
 30
0.0
 10
-0.3559861049500551
 20
-93.51236170015616
 30
0.0
 10
-0.410479573609551
 20
-93.60531860837284
 30
0.0
 10
-0.4882874815361417
 20
-93.74117795739899
 30
0.0
 10
-0.5611864509151429
 20
-93.86900300955571
 30
0.0
 10
-0.628039954953764
 20
-93.98929520054321
 30
0.0
 10
-0.6911260240705115
 20
-94.10060401706238
 30
0.0
 10
-0.7473447458029151
 20
-94.2046617411802
 30
0.0
 10
-0.7979378235803218
 20
-94.30074821531413
 30
0.0
 10
-0.8447343727103016
 20
-94.38841386941225
 30
0.0
 10
-0.8850238808044949
 20
-94.46827509685824
 30
0.0
 10
-0.9201126998476562
 20
-94.54027630091645
 30
0.0
 10
-0.9499747168925841
 20
-94.60415505777844
 30
0.0
 10
-0.973812839529842
 20
-94.66035602617244
 30
0.0
 10
-0.9940266681555112
 20
-94.70782374684646
 30
0.0
 10
-1.007321122607071
 20
-94.7478443325012
 30
0.0
 10
-1.015913416170676
 20
-94.78008032426763
 30
0.0
 10
-1.017740541432988
 20
-94.79903008892475
 30
0.0
 10
-1.018518518518554
 20
-94.80709876543214
 30
0.0
  0
SPLINE
  5
145
330
1F
100
AcDbEntity
  8
0
  6
Continuous
 62
     7
370
    25
100
AcDbSpline
210
0.0
220
0.0
230
1.0
 70
     8
 71
     3
 72
    11
 73
     7
 74
     0
 42
0.000000001
 43
0.00000001
 40
0.0
 40
0.0
 40
0.0
 40
0.0
 40
0.2505997773508185
 40
0.4945052940320166
 40
0.7383825923389997
 40
1.0
 40
1.0
 40
1.0
 40
1.0
 10
-1.018518518518553
 20
-94.80709876543214
 30
0.0
 10
-1.016754101748324
 20
-94.83789522083696
 30
0.0
 10
-1.013272400994312
 20
-94.89866546730765
 30
0.0
 10
-0.9827712508574584
 20
-94.98497979320842
 30
0.0
 10
-0.9344144836979829
 20
-95.06410428915343
 30
0.0
 10
-0.8894155952892452
 20
-95.10702851238858
 30
0.0
 10
-0.866126543209902
 20
-95.12924382716054
 30
0.0
  0
SPLINE
  5
146
330
1F
100
AcDbEntity
  8
0
  6
Continuous
 62
     7
370
    25
100
AcDbSpline
210
0.0
220
0.0
230
1.0
 70
     8
 71
     3
 72
    11
 73
     7
 74
     0
 42
0.000000001
 43
0.00000001
 40
0.0
 40
0.0
 40
0.0
 40
0.0
 40
0.2532192061797474
 40
0.4999143001575824
 40
0.7453735937821149
 40
1.0
 40
1.0
 40
1.0
 40
1.0
 10
-0.8661265432099025
 20
-95.12924382716054
 30
0.0
 10
-0.8426096709209445
 20
-95.14723787863815
 30
0.0
 10
-0.7961818310678942
 20
-95.18276237058781
 30
0.0
 10
-0.716570918735089
 20
-95.21908971759638
 30
0.0
 10
-0.6321272981930611
 20
-95.24258574212479
 30
0.0
 10
-0.5737203081840007
 20
-95.24545344484048
 30
0.0
 10
-0.5439814814815029
 20
-95.24691358024694
 30
0.0
  0
SPLINE
  5
147
330
1F
100
AcDbEntity
  8
0
  6
Continuous
 62
     7
370
    25
100
AcDbSpline
210
0.0
220
0.0
230
1.0
 70
     8
 71
     3
 72
    15
 73
    11
 74
     0
 42
0.000000001
 43
0.00000001
 40
0.0
 40
0.0
 40
0.0
 40
0.0
 40
0.1131980866530576
 40
0.2265957586858699
 40
0.3397938453389331
 40
0.4586946346184116
 40
0.5806127051142097
 40
0.7109684313119533
 40
0.849976419166778
 40
1.0
 40
1.0
 40
1.0
 40
1.0
 10
-0.5439814814814998
 20
-95.24691358024694
 30
0.0
 10
-0.5230366393493566
 20
-95.24580356636885
 30
0.0
 10
-0.4811100261546035
 20
-95.24358158149009
 30
0.0
 10
-0.4190895707722581
 20
-95.23128148529017
 30
0.0
 10
-0.359115206674226
 20
-95.20829238913659
 30
0.0
 10
-0.3016385978963435
 20
-95.17638092580249
 30
0.0
 10
-0.2459695560936815
 20
-95.13588711362404
 30
0.0
 10
-0.1915552022356739
 20
-95.08780554990463
 30
0.0
 10
-0.140593652290829
 20
-95.02896612883981
 30
0.0
 10
-0.1089943837287986
 20
-94.98576998480283
 30
0.0
 10
-0.0925925925926094
 20
-94.96334876543212
 30
0.0
  0
SPLINE
  5
148
330
1F
100
AcDbEntity
  8
0
  6
Continuous
 62
     7
370
    25
100
AcDbSpline
210
0.0
220
0.0
230
1.0
 70
     8
 71
     3
 72
    23
 73
    19
 74
     0
 42
0.000000001
 43
0.00000001
 40
0.0
 40
0.0
 40
0.0
 40
0.0
 40
0.0111077491742613
 40
0.0286499683122536
 40
0.053060271983011
 40
0.084338817499475
 40
0.1224856772033309
 40
0.1678382079667241
 40
0.219721798151767
 40
0.278806376669495
 40
0.3447577346659503
 40
0.4171713997991732
 40
0.4976050760057291
 40
0.5837507080966831
 40
0.6779183432453677
 40
0.7785465741004458
 40
0.8856387228029545
 40
1.0
 40
1.0
 40
1.0
 40
1.0
 10
-0.0925925925926107
 20
-94.96334876543212
 30
0.0
 10
-0.0902967818386603
 20
-94.9598391819441
 30
0.0
 10
-0.0843752486531599
 20
-94.95078699196903
 30
0.0
 10
-0.0750827312948382
 20
-94.9330264270675
 30
0.0
 10
-0.0613635436087999
 20
-94.90904077955233
 30
0.0
 10
-0.0441583254325016
 20
-94.87808779785756
 30
0.0
 10
-0.0224138278415429
 20
-94.84061630790627
 30
0.0
 10
0.0006417753862405
 20
-94.79499438129434
 30
0.0
 10
0.0307397137920236
 20
-94.7442267676719
 30
0.0
 10
0.0617548308103767
 20
-94.68508810518394
 30
0.0
 10
0.0978742644904581
 20
-94.61991109026464
 30
0.0
 10
0.1362182041310341
 20
-94.54677728269627
 30
0.0
 10
0.1796208212998293
 20
-94.46771297614968
 30
0.0
 10
0.2259680251354178
 20
-94.38090804159334
 30
0.0
 10
0.2771867681829825
 20
-94.2880758803879
 30
0.0
 10
0.3311621351465145
 20
-94.18774394228944
 30
0.0
 10
0.3877878269643077
 20
-94.08018930755769
 30
0.0
 10
0.4278214923793284
 20
-94.00682772579222
 30
0.0
 10
0.4484953703703495
 20
-93.96894290123458
 30
0.0
  0
SPLINE
  5
149
330
1F
100
AcDbEntity
  8
0
  6
Continuous
 62
     7
370
    25
100
AcDbSpline
210
0.0
220
0.0
230
1.0
 70
     8
 71
     3
 72
    15
 73
    11
 74
     0
 42
0.000000001
 43
0.00000001
 40
0.0
 40
0.0
 40
0.0
 40
0.0
 40
0.0972087084602969
 40
0.201966164223401
 40
0.3148209753784343
 40
0.4357966891830101
 40
0.5648859793465126
 40
0.7016032110361767
 40
0.8469753661875046
 40
0.9999999999999999
 40
0.9999999999999999
 40
0.9999999999999999
 40
0.9999999999999999
 10
0.4484953703703409
 20
-93.9689429012346
 30
0.0
 10
0.4737982910625713
 20
-93.92179907406121
 30
0.0
 10
0.5263690320671788
 20
-93.82385046336745
 30
0.0
 10
0.603758066857005
 20
-93.66880877222663
 30
0.0
 10
0.6875552829186627
 20
-93.50235099731457
 30
0.0
 10
0.7724033960284952
 20
-93.32150921309807
 30
0.0
 10
0.8637155163247574
 20
-93.12920710538938
 30
0.0
 10
0.9567818813068889
 20
-92.92291575704712
 30
0.0
 10
1.05551655635697
 20
-92.7047356417334
 30
0.0
 10
1.120955378382342
 20
-92.55410080757036
 30
0.0
 10
1.15451388888886
 20
-92.47685185185188
 30
0.0
  0
SPLINE
  5
14A
330
1F
100
AcDbEntity
  8
0
  6
Continuous
 62
     7
370
    25
100
AcDbSpline
210
0.0
220
0.0
230
1.0
 70
     8
 71
     3
 72
    15
 73
    11
 74
     0
 42
0.000000001
 43
0.00000001
 40
0.0
 40
0.0
 40
0.0
 40
0.0
 40
0.1832294725851087
 40
0.349669190951147
 40
0.499319563266417
 40
0.6329669926470518
 40
0.7495833747333887
 40
0.8496581191238316
 40
0.9329496840914981
 40
1.0
 40
1.0
 40
1.0
 40
1.0
 10
1.15451388888886
 20
-92.47685185185188
 30
0.0
 10
1.19434542538341
 20
-92.38617292965687
 30
0.0
 10
1.270358639545347
 20
-92.21312421149538
 30
0.0
 10
1.379445424520652
 20
-91.96625397910292
 30
0.0
 10
1.477640676150973
 20
-91.74386917335114
 30
0.0
 10
1.566711657063086
 20
-91.54690509855682
 30
0.0
 10
1.64332301379821
 20
-91.37372118920113
 30
0.0
 10
1.711007809753091
 20
-91.22636971065577
 30
0.0
 10
1.767955606950976
 20
-91.1035736141646
 30
0.0
 10
1.802629899972448
 20
-91.03007756379594
 30
0.0
 10
1.81809413580244
 20
-90.99729938271606
 30
0.0
  0
SPLINE
  5
14B
330
1F
100
AcDbEntity
  8
0
  6
Continuous
 62
     7
370
    25
100
AcDbSpline
210
0.0
220
0.0
230
1.0
 70
     8
 71
     3
 72
    15
 73
    11
 74
     0
 42
0.000000001
 43
0.00000001
 40
0.0
 40
0.0
 40
0.0
 40
0.0
 40
0.1917733604152492
 40
0.3635313456523702
 40
0.516817976424665
 40
0.6502995038689732
 40
0.7654266826161273
 40
0.8629244523506585
 40
0.9403052461787976
 40
1.0
 40
1.0
 40
1.0
 40
1.0
 10
1.818094135802446
 20
-90.99729938271605
 30
0.0
 10
1.833107229452999
 20
-90.96653807092717
 30
0.0
 10
1.861566500987757
 20
-90.90822600378483
 30
0.0
 10
1.898592937298651
 20
-90.82374925983356
 30
0.0
 10
1.932255942270617
 20
-90.7491276999799
 30
0.0
 10
1.957643268816199
 20
-90.68204829078647
 30
0.0
 10
1.980034515333533
 20
-90.62441345029751
 30
0.0
 10
1.993939969354652
 20
-90.57455862594726
 30
0.0
 10
2.00386787665766
 20
-90.53374697073939
 30
0.0
 10
2.005473576513824
 20
-90.50929725065335
 30
0.0
 10
2.006172839506153
 20
-90.49864969135803
 30
0.0
  0
SPLINE
  5
14C
330
1F
100
AcDbEntity
  8
0
  6
Continuous
 62
     7
370
    25
100
AcDbSpline
210
0.0
220
0.0
230
1.0
 70
     8
 71
     3
 72
    23
 73
    19
 74
     0
 42
0.000000001
 43
0.00000001
 40
0.0
 40
0.0
 40
0.0
 40
0.0
 40
0.0430585255110614
 40
0.084833435512882
 40
0.1253367677955343
 40
0.1668381893581822
 40
0.2100699229309845
 40
0.2562546797772993
 40
0.3060578147442828
 40
0.3611273050777463
 40
0.4200732830617225
 40
0.4853447910221005
 40
0.5552496219336602
 40
0.6318720555962232
 40
0.7146215592234653
 40
0.803303753222278
 40
0.8983917137337016
 40
1.0
 40
1.0
 40
1.0
 40
1.0
 10
77.30134854470725
 20
47.22467113321426
 30
0.0
 10
77.28755899265803
 20
47.21574548824661
 30
0.0
 10
77.26039096819282
 20
47.1981602802585
 30
0.0
 10
77.22518026680179
 20
47.16533307088654
 30
0.0
 10
77.19795868740766
 20
47.12653636889306
 30
0.0
 10
77.17625563715185
 20
47.08379173445271
 30
0.0
 10
77.1621743374888
 20
47.03570038677728
 30
0.0
 10
77.15340914013005
 20
46.98327586113906
 30
0.0
 10
77.15142133682107
 20
46.92551476366356
 30
0.0
 10
77.15843594714836
 20
46.86339164495508
 30
0.0
 10
77.1683485349916
 20
46.79573053807967
 30
0.0
 10
77.18749519438236
 20
46.7241479108998
 30
0.0
 10
77.21173607140291
 20
46.64715585798272
 30
0.0
 10
77.24266768826723
 20
46.56537532600304
 30
0.0
 10
77.28066142493908
 20
46.47879358834675
 30
0.0
 10
77.32399685659912
 20
46.38691769856148
 30
0.0
 10
77.37424563869564
 20
46.29042697605641
 30
0.0
 10
77.41139958610651
 20
46.22531843900567
 30
0.0
 10
77.43059237186775
 20
46.19168502210315
 30
0.0
  0
SPLINE
  5
14D
330
1F
100
AcDbEntity
  8
0
  6
Continuous
 62
     7
370
    25
100
AcDbSpline
210
0.0
220
0.0
230
1.0
 70
     8
 71
     3
 72
    23
 73
    19
 74
     0
 42
0.000000001
 43
0.00000001
 40
0.0
 40
0.0
 40
0.0
 40
0.0
 40
0.0443133042895827
 40
0.0938731087181722
 40
0.1486794192455148
 40
0.2081689835502262
 40
0.2734683184082654
 40
0.3440141696935493
 40
0.4192429153564251
 40
0.5002818052608069
 40
0.5807569805613579
 40
0.6565493503284356
 40
0.7265316815917388
 40
0.7918310164497779
 40
0.8513205807544894
 40
0.9061268912818319
 40
0.9556866957104214
 40
1.0
 40
1.0
 40
1.0
 40
1.0
 10
77.43059237186775
 20
46.19168502210315
 30
0.0
 10
77.4415228630027
 20
46.17271606182931
 30
0.0
 10
77.4646779673017
 20
46.13253229989588
 30
0.0
 10
77.5013641504323
 20
46.06889511813591
 30
0.0
 10
77.54156683354691
 20
45.99863026882062
 30
0.0
 10
77.58650804450667
 20
45.92212338694819
 30
0.0
 10
77.634417584562
 20
45.83835006922213
 30
0.0
 10
77.68624051911542
 20
45.74785781292803
 30
0.0
 10
77.74279966888399
 20
45.65112068749168
 30
0.0
 10
77.80060936011844
 20
45.54944157065751
 30
0.0
 10
77.85981573235853
 20
45.4482467084094
 30
0.0
 10
77.9150519612827
 20
45.35106757557834
 30
0.0
 10
77.96783158216967
 20
45.26112767666078
 30
0.0
 10
78.01537383413473
 20
45.17746376191846
 30
0.0
 10
78.0603689248448
 20
45.10098799179693
 30
0.0
 10
78.10055896221992
 20
45.0307158404601
 30
0.0
 10
78.13724801526587
 20
44.96708031587358
 30
0.0
 10
78.1604027812003
 20
44.92689635855852
 30
0.0
 10
78.1713331126085
 20
44.90792730605376
 30
0.0
  0
SPLINE
  5
14E
330
1F
100
AcDbEntity
  8
0
  6
Continuous
 62
     7
370
    25
100
AcDbSpline
210
0.0
220
0.0
230
1.0
 70
     8
 71
     3
 72
    15
 73
    11
 74
     0
 42
0.000000001
 43
0.00000001
 40
0.0
 40
0.0
 40
0.0
 40
0.0
 40
0.0939632628488505
 40
0.2083016357243325
 40
0.3430952759243218
 40
0.4993475840601841
 40
0.6555998921960466
 40
0.790719897896762
 40
0.9060367371511591
 40
1.0
 40
1.0
 40
1.0
 40
1.0
 10
78.1713331126085
 20
44.90792730605376
 30
0.0
 10
78.19186884692671
 20
44.8717484928282
 30
0.0
 10
78.23739330956874
 20
44.7915458078111
 30
0.0
 10
78.30555078820073
 20
44.65577847066726
 30
0.0
 10
78.3865009240641
 20
44.49562792724492
 30
0.0
 10
78.47137524980825
 20
44.31672542799685
 30
0.0
 10
78.55584903156772
 20
44.13746088881561
 30
0.0
 10
78.63821113923069
 20
43.97737120746678
 30
0.0
 10
78.70696874200576
 20
43.84126695343192
 30
0.0
 10
78.75266714598692
 20
43.76066649065216
 30
0.0
 10
78.77318496446034
 20
43.72447823197968
 30
0.0
  0
SPLINE
  5
14F
330
1F
100
AcDbEntity
  8
0
  6
Continuous
 62
     7
370
    25
100
AcDbSpline
210
0.0
220
0.0
230
1.0
 70
     8
 71
     3
 72
    15
 73
    11
 74
     0
 42
0.000000001
 43
0.00000001
 40
0.0
 40
0.0
 40
0.0
 40
0.0
 40
0.1587899307213235
 40
0.2983721216378675
 40
0.4225905651820306
 40
0.5352049120319922
 40
0.6430465417737765
 40
0.7519704141920682
 40
0.8694992543334371
 40
1.0
 40
1.0
 40
1.0
 40
1.0
 10
78.77318496446034
 20
43.72447823197968
 30
0.0
 10
78.80003139028865
 20
43.68094401674995
 30
0.0
 10
78.85047681208846
 20
43.59914162472845
 30
0.0
 10
78.93878990918904
 20
43.49490150161454
 30
0.0
 10
79.03206235846827
 20
43.41657441401308
 30
0.0
 10
79.13081132576399
 20
43.36392632574597
 30
0.0
 10
79.23509291070071
 20
43.33888579866422
 30
0.0
 10
79.3436292992438
 20
43.34169870935367
 30
0.0
 10
79.45597354141121
 20
43.37059879126861
 30
0.0
 10
79.52680962616583
 20
43.40782419022297
 30
0.0
 10
79.56408002618875
 20
43.42741033074511
 30
0.0
  0
SPLINE
  5
150
330
1F
100
AcDbEntity
  8
0
  6
Continuous
 62
     7
370
    25
100
AcDbSpline
210
0.0
220
0.0
230
1.0
 70
     8
 71
     3
 72
    11
 73
     7
 74
     0
 42
0.000000001
 43
0.00000001
 40
0.0
 40
0.0
 40
0.0
 40
0.0
 40
0.274119847458592
 40
0.5263849978363389
 40
0.7642240093776917
 40
1.0
 40
1.0
 40
1.0
 40
1.0
 10
79.56408002618875
 20
43.42741033074511
 30
0.0
 10
79.59780961685652
 20
43.44870550210958
 30
0.0
 10
79.6625796460073
 20
43.48959804906135
 30
0.0
 10
79.74157609126652
 20
43.56840027616362
 30
0.0
 10
79.80273018642676
 20
43.6555387733187
 30
0.0
 10
79.82498955998452
 20
43.72088341418441
 30
0.0
 10
79.83607076692947
 20
43.75341341716486
 30
0.0
  0
SPLINE
  5
151
330
1F
100
AcDbEntity
  8
0
  6
Continuous
 62
     7
370
    25
100
AcDbSpline
210
0.0
220
0.0
230
1.0
 70
     8
 71
     3
 72
    11
 73
     7
 74
     0
 42
0.000000001
 43
0.00000001
 40
0.0
 40
0.0
 40
0.0
 40
0.0
 40
0.2544423129582082
 40
0.499270032158408
 40
0.7420499633351072
 40
1.0
 40
1.0
 40
1.0
 40
1.0
 10
79.83607076692947
 20
43.75341341716486
 30
0.0
 10
79.84287160085837
 20
43.78283797909355
 30
0.0
 10
79.85621628608355
 20
43.84057523910185
 30
0.0
 10
79.85312612337789
 20
43.9290258073837
 30
0.0
 10
79.83437829387717
 20
44.01597577658155
 30
0.0
 10
79.8068494287169
 20
44.06866853824403
 30
0.0
 10
79.79266798915171
 20
44.09581310852288
 30
0.0
  0
SPLINE
  5
152
330
1F
100
AcDbEntity
  8
0
  6
Continuous
 62
     7
370
    25
100
AcDbSpline
210
0.0
220
0.0
230
1.0
 70
     8
 71
     3
 72
    11
 73
     7
 74
     0
 42
0.000000001
 43
0.00000001
 40
0.0
 40
0.0
 40
0.0
 40
0.0
 40
0.2091648597069041
 40
0.5013728064776968
 40
0.7908351402931244
 40
0.9999999999999999
 40
0.9999999999999999
 40
0.9999999999999999
 40
0.9999999999999999
 10
79.79266798915171
 20
44.09581310852288
 30
0.0
 10
79.78508278158336
 20
44.10779846420422
 30
0.0
 10
79.76690087085706
 20
44.13652762752067
 30
0.0
 10
79.7346643885519
 20
44.1794022710682
 30
0.0
 10
79.70374861797188
 20
44.22321444391954
 30
0.0
 10
79.68553290734661
 20
44.2516915603964
 30
0.0
 10
79.6778917545838
 20
44.26363718259697
 30
0.0
  0
SPLINE
  5
154
330
1F
100
AcDbEntity
  8
0
  6
Continuous
 62
     7
370
    25
100
AcDbSpline
210
0.0
220
0.0
230
1.0
 70
     8
 71
     3
 72
    15
 73
    11
 74
     0
 42
0.000000001
 43
0.00000001
 40
0.0
 40
0.0
 40
0.0
 40
0.0
 40
0.0906620342754256
 40
0.1911492429756003
 40
0.3014795012740159
 40
0.4223696349945117
 40
0.5520876898855276
 40
0.6906539500330882
 40
0.8408897905133426
 40
1.0
 40
1.0
 40
1.0
 40
1.0
 10
79.03553064347268
 20
45.37667730605376
 30
0.0
 10
79.02369803295592
 20
45.39632766903924
 30
0.0
 10
78.9987504949839
 20
45.43775793297372
 30
0.0
 10
78.95807902546244
 20
45.50228674587817
 30
0.0
 10
78.91282918191648
 20
45.57296814661451
 30
0.0
 10
78.86176236461561
 20
45.64867859839911
 30
0.0
 10
78.8058508697473
 20
45.72972576756462
 30
0.0
 10
78.74452636891785
 20
45.816046593575
 30
0.0
 10
78.67850783136738
 20
45.90815265127996
 30
0.0
 10
78.63211584001944
 20
45.97118567577773
 30
0.0
 10
78.6082544089048
 20
46.00360631839943
 30
0.0
  0
SPLINE
  5
155
330
1F
100
AcDbEntity
  8
0
  6
Continuous
 62
     7
370
    25
100
AcDbSpline
210
0.0
220
0.0
230
1.0
 70
     8
 71
     3
 72
    15
 73
    11
 74
     0
 42
0.000000001
 43
0.00000001
 40
0.0
 40
0.0
 40
0.0
 40
0.0
 40
0.1079619865600907
 40
0.2202489943108321
 40
0.33815725281146
 40
0.4605331989654827
 40
0.5874394726392356
 40
0.7201306353382684
 40
0.8574521848704235
 40
1.0
 40
1.0
 40
1.0
 40
1.0
 10
78.6082544089048
 20
46.00360631839943
 30
0.0
 10
78.66762423213052
 20
45.98460275246239
 30
0.0
 10
78.78874226889988
 20
45.94583432646991
 30
0.0
 10
78.97677113801473
 20
45.89314450746753
 30
0.0
 10
79.17382373746554
 20
45.84205001047597
 30
0.0
 10
79.38031174183179
 20
45.79391927489314
 30
0.0
 10
79.59616959946389
 20
45.74868228155373
 30
0.0
 10
79.82120739095456
 20
45.70534645695091
 30
0.0
 10
80.05592010993828
 20
45.66464571066579
 30
0.0
 10
80.21571518013624
 20
45.6406402737483
 30
0.0
 10
80.29710471754677
 20
45.62841341716486
 30
0.0
  0
SPLINE
  5
156
330
1F
100
AcDbEntity
  8
0
  6
Continuous
 62
     7
370
    25
100
AcDbSpline
210
0.0
220
0.0
230
1.0
 70
     8
 71
     3
 72
     9
 73
     5
 74
     0
 42
0.000000001
 43
0.00000001
 40
0.0
 40
0.0
 40
0.0
 40
0.0
 40
0.4998329458244019
 40
1.0
 40
1.0
 40
1.0
 40
1.0
 10
80.29710471754677
 20
45.62841341716486
 30
0.0
 10
80.58127968787673
 20
45.58990740033149
 30
0.0
 10
81.14981958246345
 20
45.51286962770154
 30
0.0
 10
81.71875392378281
 20
45.43880110256984
 30
0.0
 10
82.00331613729985
 20
45.40175446654758
 30
0.0
  0
SPLINE
  5
157
330
1F
100
AcDbEntity
  8
0
  6
Continuous
 62
     7
370
    25
100
AcDbSpline
210
0.0
220
0.0
230
1.0
 70
     8
 71
     3
 72
    15
 73
    11
 74
     0
 42
0.000000001
 43
0.00000001
 40
0.0
 40
0.0
 40
0.0
 40
0.0
 40
0.1918784694178074
 40
0.3640177520104776
 40
0.5178126384596459
 40
0.652086183045419
 40
0.7682373331659882
 40
0.8646626512422237
 40
0.9413714729595329
 40
1.0
 40
1.0
 40
1.0
 40
1.0
 10
82.00331613729985
 20
45.40175446654758
 30
0.0
 10
82.04093519697915
 20
45.39631531901095
 30
0.0
 10
82.11230331649122
 20
45.38599656743268
 30
0.0
 10
82.21377297835048
 20
45.37091293170721
 30
0.0
 10
82.30430271326868
 20
45.36009753961768
 30
0.0
 10
82.38360821383121
 20
45.34900991366407
 30
0.0
 10
82.45178279195943
 20
45.34042961078936
 30
0.0
 10
82.50868639710468
 20
45.33365820089673
 30
0.0
 10
82.55432117242675
 20
45.32856916826623
 30
0.0
 10
82.58105028206619
 20
45.32646849609388
 30
0.0
 10
82.59262940890478
 20
45.32555847889326
 30
0.0
  0
SPLINE
  5
158
330
1F
100
AcDbEntity
  8
0
  6
Continuous
 62
     7
370
    25
100
AcDbSpline
210
0.0
220
0.0
230
1.0
 70
     8
 71
     3
 72
    11
 73
     7
 74
     0
 42
0.000000001
 43
0.00000001
 40
0.0
 40
0.0
 40
0.0
 40
0.0
 40
0.2991624162394753
 40
0.5627470200536273
 40
0.7950117883724583
 40
1.0
 40
1.0
 40
1.0
 40
1.0
 10
82.59262940890478
 20
45.32555847889326
 30
0.0
 10
82.65021238552596
 20
45.32403823227178
 30
0.0
 10
82.75853029827289
 20
45.32117853396232
 30
0.0
 10
82.91104317480331
 20
45.33511568176412
 30
0.0
 10
83.04374928638404
 20
45.36439214710561
 30
0.0
 10
83.11944817408727
 20
45.40164915178883
 30
0.0
 10
83.15493650767023
 20
45.41911557765869
 30
0.0
  0
SPLINE
  5
159
330
1F
100
AcDbEntity
  8
0
  6
Continuous
 62
     7
370
    25
100
AcDbSpline
210
0.0
220
0.0
230
1.0
 70
     8
 71
     3
 72
    11
 73
     7
 74
     0
 42
0.000000001
 43
0.00000001
 40
0.0
 40
0.0
 40
0.0
 40
0.0
 40
0.2642956074151037
 40
0.5123687578068536
 40
0.7496534277468899
 40
1.0
 40
1.0
 40
1.0
 40
1.0
 10
83.15493650767023
 20
45.41911557765869
 30
0.0
 10
83.18191751900919
 20
45.43659463824873
 30
0.0
 10
83.23422344796248
 20
45.47047989517651
 30
0.0
 10
83.29525729662063
 20
45.53932641595933
 30
0.0
 10
83.33615406892324
 20
45.61997718281377
 30
0.0
 10
83.34642350705026
 20
45.67844860034696
 30
0.0
 10
83.35169576692948
 20
45.70846742951056
 30
0.0
  0
SPLINE
  5
15A
330
1F
100
AcDbEntity
  8
0
  6
Continuous
 62
     7
370
    25
100
AcDbSpline
210
0.0
220
0.0
230
1.0
 70
     8
 71
     3
 72
    11
 73
     7
 74
     0
 42
0.000000001
 43
0.00000001
 40
0.0
 40
0.0
 40
0.0
 40
0.0
 40
0.2340313784230988
 40
0.4730127189416525
 40
0.7273255071851668
 40
1.0
 40
1.0
 40
1.0
 40
1.0
 10
83.35169576692948
 20
45.70846742951056
 30
0.0
 10
83.35373475351157
 20
45.73710399710847
 30
0.0
 10
83.3578558529709
 20
45.79498281999074
 30
0.0
 10
83.34394505563738
 20
45.88354864951581
 30
0.0
 10
83.31482236711861
 20
45.97306405857223
 30
0.0
 10
83.28445892866974
 20
46.03005786284914
 30
0.0
 10
83.26874823606528
 20
46.05954767642413
 30
0.0
  0
SPLINE
  5
15B
330
1F
100
AcDbEntity
  8
0
  6
Continuous
 62
     7
370
    25
100
AcDbSpline
210
0.0
220
0.0
230
1.0
 70
     8
 71
     3
 72
    23
 73
    19
 74
     0
 42
0.000000001
 43
0.00000001
 40
0.0
 40
0.0
 40
0.0
 40
0.0
 40
0.044176664562172
 40
0.0936170083673207
 40
0.148485421617479
 40
0.2081708577391292
 40
0.2734505376984132
 40
0.3435463217416664
 40
0.4190714571937633
 40
0.4998597618120025
 40
0.5806480664302394
 40
0.6561732018823387
 40
0.7265504398663174
 40
0.7916642121021383
 40
0.8515145783825232
 40
0.9063829916326792
 40
0.9558233354378299
 40
1.0
 40
1.0
 40
1.0
 40
1.0
 10
83.26874823606528
 20
46.05954767642413
 30
0.0
 10
83.24686452562048
 20
46.09715084758097
 30
0.0
 10
83.20048964593857
 20
46.17683763298493
 30
0.0
 10
83.12739563431778
 20
46.30349699776598
 30
0.0
 10
83.04520928153657
 20
46.44253450151616
 30
0.0
 10
82.9568160145239
 20
46.59601410710248
 30
0.0
 10
82.8580368690579
 20
46.76078506772015
 30
0.0
 10
82.75315511803811
 20
46.94006705580738
 30
0.0
 10
82.63905640669476
 20
47.13164414867887
 30
0.0
 10
82.52028684846027
 20
47.33269313613918
 30
0.0
 10
82.40154427608465
 20
47.53375790390772
 30
0.0
 10
82.28722968528334
 20
47.72552985380347
 30
0.0
 10
82.18253694832023
 20
47.90505421049514
 30
0.0
 10
82.08506108938684
 20
48.07091365849682
 30
0.0
 10
81.99517050279401
 20
48.22351428295111
 30
0.0
 10
81.9132528247446
 20
48.36289759889716
 30
0.0
 10
81.84007950927624
 20
48.48951046866831
 30
0.0
 10
81.79371396228585
 20
48.56920272573092
 30
0.0
 10
81.77183465581837
 20
48.60680847889326
 30
0.0
  0
SPLINE
  5
15C
330
1F
100
AcDbEntity
  8
0
  6
Continuous
 62
     7
370
    25
100
AcDbSpline
210
0.0
220
0.0
230
1.0
 70
     8
 71
     3
 72
    15
 73
    11
 74
     0
 42
0.000000001
 43
0.00000001
 40
0.0
 40
0.0
 40
0.0
 40
0.0
 40
0.0942591275984931
 40
0.2083304530457859
 40
0.343845133593675
 40
0.4992281384805008
 40
0.6561401065665511
 40
0.7908634695720478
 40
0.905740872401519
 40
1.0
 40
1.0
 40
1.0
 40
1.0
 10
81.77183465581837
 20
48.60680847889326
 30
0.0
 10
81.76304016842924
 20
48.62217874964007
 30
0.0
 10
81.74360269230607
 20
48.65614994744023
 30
0.0
 10
81.7142772576092
 20
48.7137141736689
 30
0.0
 10
81.67808585947382
 20
48.78062868711037
 30
0.0
 10
81.64051391454221
 20
48.85590087913442
 30
0.0
 10
81.6031218026643
 20
48.93108166268247
 30
0.0
 10
81.56840184384258
 20
48.99909943901228
 30
0.0
 10
81.53755778923167
 20
49.05585834870799
 30
0.0
 10
81.51820941067504
 20
49.0900484707911
 30
0.0
 10
81.50948897680603
 20
49.10545817025129
 30
0.0
  0
SPLINE
  5
15D
330
1F
100
AcDbEntity
  8
0
  6
Continuous
 62
     7
370
    25
100
AcDbSpline
210
0.0
220
0.0
230
1.0
 70
     8
 71
     3
 72
    11
 73
     7
 74
     0
 42
0.000000001
 43
0.00000001
 40
0.0
 40
0.0
 40
0.0
 40
0.0
 40
0.2578207909293608
 40
0.5061403565129206
 40
0.7481497164438562
 40
1.0
 40
1.0
 40
1.0
 40
1.0
 10
81.50948897680603
 20
49.10545817025129
 30
0.0
 10
81.49265503078195
 20
49.13118476620404
 30
0.0
 10
81.45960750419788
 20
49.1816898802425
 30
0.0
 10
81.39625459554829
 20
49.2452449261702
 30
0.0
 10
81.3217690995642
 20
49.29413809574494
 30
0.0
 10
81.26659798484886
 20
49.31481905026311
 30
0.0
 10
81.23846274223811
 20
49.32536557765869
 30
0.0
  0
SPLINE
  5
15E
330
1F
100
AcDbEntity
  8
0
  6
Continuous
 62
     7
370
    25
100
AcDbSpline
210
0.0
220
0.0
230
1.0
 70
     8
 71
     3
 72
    11
 73
     7
 74
     0
 42
0.000000001
 43
0.00000001
 40
0.0
 40
0.0
 40
0.0
 40
0.0
 40
0.2407545131452224
 40
0.4772598430872829
 40
0.7274670659636844
 40
0.9999999999999999
 40
0.9999999999999999
 40
0.9999999999999999
 40
0.9999999999999999
 10
81.23846274223813
 20
49.32536557765869
 30
0.0
 10
81.20427785051086
 20
49.33392827710966
 30
0.0
 10
81.13651141137515
 20
49.3509025491305
 30
0.0
 10
81.02933951369101
 20
49.34422979847421
 30
0.0
 10
80.92211261813455
 20
49.31376084792059
 30
0.0
 10
80.85553967368179
 20
49.27637626170535
 30
0.0
 10
80.8208315693986
 20
49.25688563938709
 30
0.0
  0
SPLINE
  5
15F
330
1F
100
AcDbEntity
  8
0
  6
Continuous
 62
     7
370
    25
100
AcDbSpline
210
0.0
220
0.0
230
1.0
 70
     8
 71
     3
 72
    15
 73
    11
 74
     0
 42
0.000000001
 43
0.00000001
 40
0.0
 40
0.0
 40
0.0
 40
0.0
 40
0.1271428611464029
 40
0.2464598492711998
 40
0.3605166001678727
 40
0.4732627128947163
 40
0.5920460121353631
 40
0.7172193595433985
 40
0.851969522304533
 40
1.0
 40
1.0
 40
1.0
 40
1.0
 10
80.82083156939859
 20
49.25688563938709
 30
0.0
 10
80.79834912728393
 20
49.24157615274026
 30
0.0
 10
80.75476807802274
 20
49.21189950603453
 30
0.0
 10
80.70124708242209
 20
49.15586442802324
 30
0.0
 10
80.65968553657387
 20
49.09433165835738
 30
0.0
 10
80.63120160996934
 20
49.02578980709634
 30
0.0
 10
80.61491334304948
 20
48.95102459506239
 30
0.0
 10
80.61147334022256
 20
48.86993001148257
 30
0.0
 10
80.62064237311814
 20
48.78302551143136
 30
0.0
 10
80.63492252820396
 20
48.72433660193026
 30
0.0
 10
80.6423979274233
 20
48.6936140344488
 30
0.0
  0
SPLINE
  5
160
330
1F
100
AcDbEntity
  8
0
  6
Continuous
 62
     7
370
    25
100
AcDbSpline
210
0.0
220
0.0
230
1.0
 70
     8
 71
     3
 72
    15
 73
    11
 74
     0
 42
0.000000001
 43
0.00000001
 40
0.0
 40
0.0
 40
0.0
 40
0.0
 40
0.074324924744488
 40
0.1633289077061247
 40
0.2672094891919642
 40
0.3847024111049867
 40
0.5159241970980784
 40
0.6636664229319161
 40
0.8245153931164108
 40
1.0
 40
1.0
 40
1.0
 40
1.0
 10
80.6423979274233
 20
48.69361403444881
 30
0.0
 10
80.64704981428419
 20
48.67876531126815
 30
0.0
 10
80.65727232849962
 20
48.64613526493756
 30
0.0
 10
80.67804101308019
 20
48.59416508827821
 30
0.0
 10
80.70394397925745
 20
48.53459218017919
 30
0.0
 10
80.73592994009518
 20
48.46806723782495
 30
0.0
 10
80.77408060318514
 20
48.39437836332719
 30
0.0
 10
80.81722566209274
 20
48.31307020982526
 30
0.0
 10
80.86518594757811
 20
48.22381436556346
 30
0.0
 10
80.90068782430305
 20
48.16302450742143
 30
0.0
 10
80.91921119902824
 20
48.13130693568339
 30
0.0
  0
SPLINE
  5
161
330
1F
100
AcDbEntity
  8
0
  6
Continuous
 62
     7
370
    25
100
AcDbSpline
210
0.0
220
0.0
230
1.0
 70
     8
 71
     3
 72
    15
 73
    11
 74
     0
 42
0.000000001
 43
0.00000001
 40
0.0
 40
0.0
 40
0.0
 40
0.0
 40
0.0973893037291678
 40
0.2021383042758215
 40
0.3146943583534307
 40
0.435802544916187
 40
0.565014679500754
 40
0.702330778325902
 40
0.8474765729874021
 40
1.0
 40
1.0
 40
1.0
 40
1.0
 10
80.91921119902824
 20
48.13130693568338
 30
0.0
 10
80.9375053584627
 20
48.09978153203856
 30
0.0
 10
80.97547616454338
 20
48.03434835416008
 30
0.0
 10
81.03522308258015
 20
47.93284645109859
 30
0.0
 10
81.10112578798083
 20
47.82468370929129
 30
0.0
 10
81.17255216426305
 20
47.70917311751578
 30
0.0
 10
81.24878783724886
 20
47.58574115672918
 30
0.0
 10
81.3294174204586
 20
47.45444691664412
 30
0.0
 10
81.41642356329429
 20
47.31684599111659
 30
0.0
 10
81.47604558928208
 20
47.22273735556846
 30
0.0
 10
81.5065954582875
 20
47.17451681222659
 30
0.0
  0
SPLINE
  5
162
330
1F
100
AcDbEntity
  8
0
  6
Continuous
 62
     7
370
    25
100
AcDbSpline
210
0.0
220
0.0
230
1.0
 70
     8
 71
     3
 72
    15
 73
    11
 74
     0
 42
0.000000001
 43
0.00000001
 40
0.0
 40
0.0
 40
0.0
 40
0.0
 40
0.1892191716054927
 40
0.3593272270634812
 40
0.5117638113133604
 40
0.6455416987495108
 40
0.7621008037658433
 40
0.8590987549866668
 40
0.938881066506385
 40
1.0
 40
1.0
 40
1.0
 40
1.0
 10
81.5065954582875
 20
47.17451681222661
 30
0.0
 10
81.54481764929223
 20
47.11405142555609
 30
0.0
 10
81.61740159408745
 20
46.99922764981878
 30
0.0
 10
81.72134089057394
 20
46.83604682615235
 30
0.0
 10
81.81220870396771
 20
46.68940463937689
 30
0.0
 10
81.89379104772705
 20
46.56083706973634
 30
0.0
 10
81.96386107652856
 20
46.44978659338599
 30
0.0
 10
82.02221813578696
 20
46.35548629575699
 30
0.0
 10
82.06890561504463
 20
46.27861544226998
 30
0.0
 10
82.09715712057016
 20
46.23345707380793
 30
0.0
 10
82.10941181631219
 20
46.21386866407845
 30
0.0
  0
SPLINE
  5
164
330
1F
100
AcDbEntity
  8
0
  6
Continuous
 62
     7
370
    25
100
AcDbSpline
210
0.0
220
0.0
230
1.0
 70
     8
 71
     3
 72
     9
 73
     5
 74
     0
 42
0.000000001
 43
0.00000001
 40
0.0
 40
0.0
 40
0.0
 40
0.0
 40
0.500735221222564
 40
1.0
 40
1.0
 40
1.0
 40
1.0
 10
82.08915718668257
 20
46.21676218259697
 30
0.0
 10
81.77985807754062
 20
46.25619704513877
 30
0.0
 10
81.1621681367636
 20
46.3349509671128
 30
0.0
 10
80.54464725505471
 20
46.41501970605391
 30
0.0
 10
80.23634082865789
 20
46.45499520728833
 30
0.0
  0
SPLINE
  5
165
330
1F
100
AcDbEntity
  8
0
  6
Continuous
 62
     7
370
    25
100
AcDbSpline
210
0.0
220
0.0
230
1.0
 70
     8
 71
     3
 72
    15
 73
    11
 74
     0
 42
0.000000001
 43
0.00000001
 40
0.0
 40
0.0
 40
0.0
 40
0.0
 40
0.1574185860612975
 40
0.3053481114972887
 40
0.4438578436922624
 40
0.5731457671413733
 40
0.6933490386601169
 40
0.8039904762090279
 40
0.9062341517135939
 40
1.0
 40
1.0
 40
1.0
 40
1.0
 10
80.23634082865789
 20
46.45499520728833
 30
0.0
 10
80.1398250789147
 20
46.46904552602815
 30
0.0
 10
79.95261146804951
 20
46.49629922205277
 30
0.0
 10
79.68154409128977
 20
46.54276205110293
 30
0.0
 10
79.42858897446783
 20
46.59142891325145
 30
0.0
 10
79.1940440133952
 20
46.64430047380606
 30
0.0
 10
78.97814467897267
 20
46.70086512888828
 30
0.0
 10
78.78072207327651
 20
46.76100930102837
 30
0.0
 10
78.60074905528845
 20
46.82230738638475
 30
0.0
 10
78.48904440006602
 20
46.87004471551083
 30
0.0
 10
78.43560780396652
 20
46.89288100975747
 30
0.0
  0
SPLINE
  5
166
330
1F
100
AcDbEntity
  8
0
  6
Continuous
 62
     7
370
    25
100
AcDbSpline
210
0.0
220
0.0
230
1.0
 70
     8
 71
     3
 72
    11
 73
     7
 74
     0
 42
0.000000001
 43
0.00000001
 40
0.0
 40
0.0
 40
0.0
 40
0.0
 40
0.286488216063304
 40
0.54770076804194
 40
0.7869078763327773
 40
1.0
 40
1.0
 40
1.0
 40
1.0
 10
78.43560780396652
 20
46.89288100975747
 30
0.0
 10
78.39208216187711
 20
46.91482982206362
 30
0.0
 10
78.30887096412015
 20
46.95679099422937
 30
0.0
 10
78.19125299201737
 20
47.02077798765693
 30
0.0
 10
78.08338011389739
 20
47.07648117130658
 30
0.0
 10
78.01597536977643
 20
47.11361781552355
 30
0.0
 10
77.98421891507763
 20
47.13111403444882
 30
0.0
  0
SPLINE
  5
167
330
1F
100
AcDbEntity
  8
0
  6
Continuous
 62
     7
370
    25
100
AcDbSpline
210
0.0
220
0.0
230
1.0
 70
     8
 71
     3
 72
    15
 73
    11
 74
     0
 42
0.000000001
 43
0.00000001
 40
0.0
 40
0.0
 40
0.0
 40
0.0
 40
0.170363389201224
 40
0.3262975632507247
 40
0.4668429799247972
 40
0.5933827495072912
 40
0.7084045690763173
 40
0.8125610816897827
 40
0.9081712462541438
 40
1.0
 40
1.0
 40
1.0
 40
1.0
 10
77.98421891507763
 20
47.13111403444882
 30
0.0
 10
77.9474488715911
 20
47.14829074257896
 30
0.0
 10
77.87702308559022
 20
47.18118934851663
 30
0.0
 10
77.77307147675754
 20
47.22103744418023
 30
0.0
 10
77.67624321528673
 20
47.24921275473577
 30
0.0
 10
77.58695110607519
 20
47.26762718009195
 30
0.0
 10
77.50454204047776
 20
47.27366214882729
 30
0.0
 10
77.42957743988698
 20
47.26914497914099
 30
0.0
 10
77.36097730347099
 20
47.2546891893849
 30
0.0
 10
77.32095566415782
 20
47.23454166591047
 30
0.0
 10
77.30134854470725
 20
47.22467113321426
 30
0.0
  0
LINE
  5
16D
330
1F
100
AcDbEntity
  8
0
  6
Continuous
 62
     7
370
    25
100
AcDbLine
 10
-12.6999999989
 20
-40.0
 30
0.0
 11
-12.6999999989
 21
-25.0
 31
0.0
  0
LINE
  5
16E
330
1F
100
AcDbEntity
  8
0
  6
Continuous
 62
     7
370
    25
100
AcDbLine
 10
-12.6999999989
 20
-25.0
 30
0.0
 11
-19.5799999989
 21
-25.0
 31
0.0
  0
LINE
  5
16F
330
1F
100
AcDbEntity
  8
0
  6
Continuous
 62
     7
370
    25
100
AcDbLine
 10
-19.5799999989
 20
-25.0
 30
0.0
 11
-19.5799999989
 21
-40.0
 31
0.0
  0
LINE
  5
170
330
1F
100
AcDbEntity
  8
0
  6
Continuous
 62
     7
370
    25
100
AcDbLine
 10
-19.5799999989
 20
-40.0
 30
0.0
 11
-12.6999999989
 21
-40.0
 31
0.0
  0
LINE
  5
171
330
1F
100
AcDbEntity
  8
0
  6
Continuous
 62
     7
370
    25
100
AcDbLine
 10
19.58
 20
-40.0
 30
0.0
 11
19.58
 21
-25.0
 31
0.0
  0
LINE
  5
172
330
1F
100
AcDbEntity
  8
0
  6
Continuous
 62
     7
370
    25
100
AcDbLine
 10
19.58
 20
-25.0
 30
0.0
 11
12.7
 21
-25.0
 31
0.0
  0
LINE
  5
173
330
1F
100
AcDbEntity
  8
0
  6
Continuous
 62
     7
370
    25
100
AcDbLine
 10
12.7
 20
-25.0
 30
0.0
 11
12.7
 21
-40.0
 31
0.0
  0
LINE
  5
174
330
1F
100
AcDbEntity
  8
0
  6
Continuous
 62
     7
370
    25
100
AcDbLine
 10
12.7
 20
-40.0
 30
0.0
 11
19.58
 21
-40.0
 31
0.0
  0
LINE
  5
175
330
1F
100
AcDbEntity
  8
0
  6
Continuous
 62
     7
370
    25
100
AcDbLine
 10
-44.4310161514
 20
3.0432225939
 30
0.0
 11
-31.4406350946
 21
-4.4567774061
 31
0.0
  0
LINE
  5
176
330
1F
100
AcDbEntity
  8
0
  6
Continuous
 62
     7
370
    25
100
AcDbLine
 10
-31.4406350946
 20
-4.4567774061
 30
0.0
 11
-28.0006350946
 21
1.5014773719
 31
0.0
  0
LINE
  5
177
330
1F
100
AcDbEntity
  8
0
  6
Continuous
 62
     7
370
    25
100
AcDbLine
 10
-28.0006350946
 20
1.5014773719
 30
0.0
 11
-40.9910161514
 21
9.0014773719
 31
0.0
  0
LINE
  5
178
330
1F
100
AcDbEntity
  8
0
  6
Continuous
 62
     7
370
    25
100
AcDbLine
 10
-40.9910161514
 20
9.0014773719
 30
0.0
 11
-44.4310161514
 21
3.0432225939
 31
0.0
  0
LINE
  5
179
330
1F
100
AcDbEntity
  8
0
  6
Continuous
 62
     7
370
    25
100
AcDbLine
 10
40.9910161508
 20
9.0014773729
 30
0.0
 11
28.0006350941
 21
1.5014773729
 31
0.0
  0
LINE
  5
17A
330
1F
100
AcDbEntity
  8
0
  6
Continuous
 62
     7
370
    25
100
AcDbLine
 10
28.0006350941
 20
1.5014773729
 30
0.0
 11
31.4406350941
 21
-4.4567774052
 31
0.0
  0
LINE
  5
17B
330
1F
100
AcDbEntity
  8
0
  6
Continuous
 62
     7
370
    25
100
AcDbLine
 10
31.4406350941
 20
-4.4567774052
 30
0.0
 11
44.4310161508
 21
3.0432225948
 31
0.0
  0
LINE
  5
17C
330
1F
100
AcDbEntity
  8
0
  6
Continuous
 62
     7
370
    25
100
AcDbLine
 10
44.4310161508
 20
3.0432225948
 30
0.0
 11
40.9910161508
 21
9.0014773729
 31
0.0
  0
LINE
  5
17D
330
1F
100
AcDbEntity
  8
0
  6
Continuous
 62
     7
370
    25
100
AcDbLine
 10
24.8510161514
 20
36.9567774061
 30
0.0
 11
11.8606350946
 21
29.4567774061
 31
0.0
  0
LINE
  5
17E
330
1F
100
AcDbEntity
  8
0
  6
Continuous
 62
     7
370
    25
100
AcDbLine
 10
11.8606350946
 20
29.4567774061
 30
0.0
 11
15.3006350946
 21
23.4985226281
 31
0.0
  0
LINE
  5
17F
330
1F
100
AcDbEntity
  8
0
  6
Continuous
 62
     7
370
    25
100
AcDbLine
 10
15.3006350946
 20
23.4985226281
 30
0.0
 11
28.2910161514
 21
30.9985226281
 31
0.0
  0
LINE
  5
180
330
1F
100
AcDbEntity
  8
0
  6
Continuous
 62
     7
370
    25
100
AcDbLine
 10
28.2910161514
 20
30.9985226281
 30
0.0
 11
24.8510161514
 21
36.9567774061
 31
0.0
  0
LINE
  5
181
330
1F
100
AcDbEntity
  8
0
  6
Continuous
 62
     7
370
    25
100
AcDbLine
 10
-28.2910161519
 20
30.9985226271
 30
0.0
 11
-15.3006350952
 21
23.4985226271
 31
0.0
  0
LINE
  5
182
330
1F
100
AcDbEntity
  8
0
  6
Continuous
 62
     7
370
    25
100
AcDbLine
 10
-15.3006350952
 20
23.4985226271
 30
0.0
 11
-11.8606350952
 21
29.4567774052
 31
0.0
  0
LINE
  5
183
330
1F
100
AcDbEntity
  8
0
  6
Continuous
 62
     7
370
    25
100
AcDbLine
 10
-11.8606350952
 20
29.4567774052
 30
0.0
 11
-24.8510161519
 21
36.9567774052
 31
0.0
  0
LINE
  5
184
330
1F
100
AcDbEntity
  8
0
  6
Continuous
 62
     7
370
    25
100
AcDbLine
 10
-24.8510161519
 20
36.9567774052
 30
0.0
 11
-28.2910161519
 21
30.9985226271
 31
0.0
  0
LINE
  5
185
330
1F
100
AcDbEntity
  8
0
  6
Continuous
 62
     7
370
    25
100
AcDbLine
 10
-117.5190889296
 20
56.4509671147
 30
0.0
 11
-107.6475160543
 21
73.5490328853
 31
0.0
  0
LINE
  5
186
330
1F
100
AcDbEntity
  8
0
  6
Continuous
 62
     7
370
    25
100
AcDbLine
 10
-105.3014508394
 20
74.7841099107
 30
0.0
 11
-106.433103337
 21
74.4808845379
 31
0.0
  0
LINE
  5
187
330
1F
100
AcDbEntity
  8
0
  6
Continuous
 62
     7
370
    25
100
AcDbLine
 10
-103.7838127492
 20
74.5843090657
 30
0.0
 11
-79.3865149747
 21
60.4985226281
 31
0.0
  0
LINE
  5
188
330
1F
100
AcDbEntity
  8
0
  6
Continuous
 62
     7
370
    25
100
AcDbLine
 10
-75.8865149747
 20
66.5607004546
 30
0.0
 11
-79.3865149747
 21
60.4985226281
 31
0.0
  0
LINE
  5
189
330
1F
100
AcDbEntity
  8
0
  6
Continuous
 62
     7
370
    25
100
AcDbLine
 10
-81.0025036794
 20
69.5144179104
 30
0.0
 11
-75.8865149747
 21
66.5607004546
 31
0.0
  0
LINE
  5
18A
330
1F
100
AcDbEntity
  8
0
  6
Continuous
 62
     7
370
    25
100
AcDbLine
 10
-82.009316347
 20
71.4626072086
 30
0.0
 11
-82.0017248738
 21
71.1906599724
 31
0.0
  0
LINE
  5
18B
330
1F
100
AcDbEntity
  8
0
  6
Continuous
 62
     7
370
    25
100
AcDbLine
 10
-51.3617441285
 20
91.9999999999
 30
0.0
 11
51.3617441285
 21
91.9999999999
 31
0.0
  0
LINE
  5
18C
330
1F
100
AcDbEntity
  8
0
  6
Continuous
 62
     7
370
    25
100
AcDbLine
 10
82.0017248738
 20
71.1906599724
 30
0.0
 11
82.009316347
 21
71.4626072086
 31
0.0
  0
LINE
  5
18D
330
1F
100
AcDbEntity
  8
0
  6
Continuous
 62
     7
370
    25
100
AcDbLine
 10
75.8865149747
 20
66.5607004546
 30
0.0
 11
81.0025036794
 21
69.5144179104
 31
0.0
  0
LINE
  5
18E
330
1F
100
AcDbEntity
  8
0
  6
Continuous
 62
     7
370
    25
100
AcDbLine
 10
79.3865149747
 20
60.4985226281
 30
0.0
 11
75.8865149747
 21
66.5607004546
 31
0.0
  0
LINE
  5
18F
330
1F
100
AcDbEntity
  8
0
  6
Continuous
 62
     7
370
    25
100
AcDbLine
 10
79.3865149747
 20
60.4985226281
 30
0.0
 11
103.7838127492
 21
74.5843090657
 31
0.0
  0
LINE
  5
190
330
1F
100
AcDbEntity
  8
0
  6
Continuous
 62
     7
370
    25
100
AcDbLine
 10
106.433103337
 20
74.4808845379
 30
0.0
 11
105.3014508394
 21
74.7841099107
 31
0.0
  0
LINE
  5
191
330
1F
100
AcDbEntity
  8
0
  6
Continuous
 62
     7
370
    25
100
AcDbLine
 10
107.6475160544
 20
73.5490328853
 30
0.0
 11
117.5190889296
 21
56.4509671147
 31
0.0
  0
LINE
  5
192
330
1F
100
AcDbEntity
  8
0
  6
Continuous
 62
     7
370
    25
100
AcDbLine
 10
117.4156644018
 20
53.8016765269
 30
0.0
 11
117.7188897746
 21
54.9333290245
 31
0.0
  0
LINE
  5
193
330
1F
100
AcDbEntity
  8
0
  6
Continuous
 62
     7
370
    25
100
AcDbLine
 10
116.4838127492
 20
52.5872638096
 30
0.0
 11
92.0865149747
 21
38.5014773719
 31
0.0
  0
LINE
  5
194
330
1F
100
AcDbEntity
  8
0
  6
Continuous
 62
     7
370
    25
100
AcDbLine
 10
95.5865149747
 20
32.4392995454
 30
0.0
 11
92.0865149747
 21
38.5014773719
 31
0.0
  0
LINE
  5
195
330
1F
100
AcDbEntity
  8
0
  6
Continuous
 62
     7
370
    25
100
AcDbLine
 10
100.7025036794
 20
35.3930170013
 30
0.0
 11
95.5865149747
 21
32.4392995454
 31
0.0
  0
LINE
  5
196
330
1F
100
AcDbEntity
  8
0
  6
Continuous
 62
     7
370
    25
100
AcDbLine
 10
102.8930914368
 20
35.2908476992
 30
0.0
 11
102.6537824851
 21
35.4202469086
 31
0.0
  0
LINE
  5
197
330
1F
100
AcDbEntity
  8
0
  6
Continuous
 62
     7
370
    25
100
AcDbLine
 10
117.663331465
 20
-7.6528848673
 30
0.0
 11
105.6053377862
 21
26.000180704
 31
0.0
  0
LINE
  5
198
330
1F
100
AcDbEntity
  8
0
  6
Continuous
 62
     7
370
    25
100
AcDbLine
 10
120.4102042711
 20
-9.7865542029
 30
0.0
 11
118.5461224421
 21
-8.7103260571
 31
0.0
  0
LINE
  5
199
330
1F
100
AcDbEntity
  8
0
  6
Continuous
 62
     7
370
    25
100
AcDbLine
 10
121.6452812966
 20
-12.1326194178
 30
0.0
 11
121.3420559237
 21
-11.0009669202
 31
0.0
  0
LINE
  5
19A
330
1F
100
AcDbEntity
  8
0
  6
Continuous
 62
     7
370
    25
100
AcDbLine
 10
116.2471940139
 20
-22.6539537303
 30
0.0
 11
121.4454804515
 21
-13.650257508
 31
0.0
  0
LINE
  5
19B
330
1F
100
AcDbEntity
  8
0
  6
Continuous
 62
     7
370
    25
100
AcDbLine
 10
116.2471940139
 20
-22.6539537303
 30
0.0
 11
106.7209145723
 21
-17.1539537303
 31
0.0
  0
LINE
  5
19C
330
1F
100
AcDbEntity
  8
0
  6
Continuous
 62
     7
370
    25
100
AcDbLine
 10
106.7209145723
 20
-17.1539537303
 30
0.0
 11
107.5134145723
 21
-15.7813034653
 31
0.0
  0
LINE
  5
19D
330
1F
100
AcDbEntity
  8
0
  6
Continuous
 62
     7
370
    25
100
AcDbLine
 10
107.3304018704
 20
-15.0982907634
 30
0.0
 11
103.8663002553
 21
-13.0982907634
 31
0.0
  0
LINE
  5
19E
330
1F
100
AcDbEntity
  8
0
  6
Continuous
 62
     7
370
    25
100
AcDbLine
 10
102.3907875534
 20
-14.6539537303
 30
0.0
 11
103.1832875534
 21
-13.2813034653
 31
0.0
  0
LINE
  5
19F
330
1F
100
AcDbEntity
  8
0
  6
Continuous
 62
     7
370
    25
100
AcDbLine
 10
102.3907875534
 20
-14.6539537303
 30
0.0
 11
98.4936732363
 21
-12.4039537303
 31
0.0
  0
LINE
  5
1A0
330
1F
100
AcDbEntity
  8
0
  6
Continuous
 62
     7
370
    25
100
AcDbLine
 10
97.8106605344
 20
-12.5869664322
 30
0.0
 11
96.5356605344
 21
-14.7953312118
 31
0.0
  0
LINE
  5
1A1
330
1F
100
AcDbEntity
  8
0
  6
Continuous
 62
     7
370
    25
100
AcDbLine
 10
100.6157875534
 20
-17.7283439137
 30
0.0
 11
96.7186732363
 21
-15.4783439137
 31
0.0
  0
LINE
  5
1A2
330
1F
100
AcDbEntity
  8
0
  6
Continuous
 62
     7
370
    25
100
AcDbLine
 10
99.8232875534
 20
-19.1009941787
 30
0.0
 11
100.6157875534
 21
-17.7283439137
 31
0.0
  0
LINE
  5
1A3
330
1F
100
AcDbEntity
  8
0
  6
Continuous
 62
     7
370
    25
100
AcDbLine
 10
103.4704018704
 20
-21.7840068806
 30
0.0
 11
100.0063002553
 21
-19.7840068806
 31
0.0
  0
LINE
  5
1A4
330
1F
100
AcDbEntity
  8
0
  6
Continuous
 62
     7
370
    25
100
AcDbLine
 10
104.1534145723
 20
-21.6009941787
 30
0.0
 11
104.9459145723
 21
-20.2283439137
 31
0.0
  0
LINE
  5
1A5
330
1F
100
AcDbEntity
  8
0
  6
Continuous
 62
     7
370
    25
100
AcDbLine
 10
114.4721940139
 20
-25.7283439137
 30
0.0
 11
104.9459145723
 21
-20.2283439137
 31
0.0
  0
LINE
  5
1A6
330
1F
100
AcDbEntity
  8
0
  6
Continuous
 62
     7
370
    25
100
AcDbLine
 10
85.8887614688
 20
-83.3394470871
 30
0.0
 11
82.3799964335
 21
-81.3136606495
 31
0.0
  0
LINE
  5
1A7
330
1F
100
AcDbEntity
  8
0
  6
Continuous
 62
     7
370
    25
100
AcDbLine
 10
87.1238384942
 20
-85.685512302
 30
0.0
 11
86.8206131214
 21
-84.5538598045
 31
0.0
  0
LINE
  5
1A8
330
1F
100
AcDbEntity
  8
0
  6
Continuous
 62
     7
370
    25
100
AcDbLine
 10
82.252464774
 20
-95.2945519635
 30
0.0
 11
86.9240376492
 21
-87.2031503923
 31
0.0
  0
LINE
  5
1A9
330
1F
100
AcDbEntity
  8
0
  6
Continuous
 62
     7
370
    25
100
AcDbLine
 10
79.906399559
 20
-96.5296289889
 30
0.0
 11
81.0380520566
 21
-96.226403616
 31
0.0
  0
LINE
  5
1AA
330
1F
100
AcDbEntity
  8
0
  6
Continuous
 62
     7
370
    25
100
AcDbLine
 10
74.8799964335
 20
-94.3040417062
 30
0.0
 11
78.3887614688
 21
-96.3298281439
 31
0.0
  0
LINE
  5
1AB
330
1F
100
AcDbEntity
  8
0
  6
Continuous
 62
     7
370
    25
100
AcDbLine
 10
70.198144781
 20
-99.5848195173
 30
0.0
 11
71.3297972786
 21
-99.2815941444
 31
0.0
  0
LINE
  5
1AC
330
1F
100
AcDbEntity
  8
0
  6
Continuous
 62
     7
370
    25
100
AcDbLine
 10
66.8164248617
 20
-98.3087905265
 30
0.0
 11
68.6805066908
 21
-99.3850186722
 31
0.0
  0
LINE
  5
1AD
330
1F
100
AcDbEntity
  8
0
  6
Continuous
 62
     7
370
    25
100
AcDbLine
 10
30.2858519004
 20
-104.4569956501
 30
0.0
 11
65.4592584398
 21
-98.0729917089
 31
0.0
  0
LINE
  5
1AE
330
1F
100
AcDbEntity
  8
0
  6
Continuous
 62
     7
370
    25
100
AcDbLine
 10
20.6520576114
 20
-106.610906881
 30
0.0
 11
20.8837750898
 21
-106.7534549077
 31
0.0
  0
LINE
  5
1AF
330
1F
100
AcDbEntity
  8
0
  6
Continuous
 62
     7
370
    25
100
AcDbLine
 10
19.7
 20
-99.0
 30
0.0
 11
19.7
 21
-104.9074349117
 31
0.0
  0
LINE
  5
1B0
330
1F
100
AcDbEntity
  8
0
  6
Continuous
 62
     7
370
    25
100
AcDbLine
 10
12.7
 20
-99.0
 30
0.0
 11
19.7
 21
-99.0
 31
0.0
  0
LINE
  5
1B1
330
1F
100
AcDbEntity
  8
0
  6
Continuous
 62
     7
370
    25
100
AcDbLine
 10
12.7
 20
-99.0
 30
0.0
 11
12.7
 21
-127.1715728753
 31
0.0
  0
LINE
  5
1B2
330
1F
100
AcDbEntity
  8
0
  6
Continuous
 62
     7
370
    25
100
AcDbLine
 10
11.2857864376
 20
-129.4142135624
 30
0.0
 11
12.1142135624
 21
-128.5857864376
 31
0.0
  0
LINE
  5
1B3
330
1F
100
AcDbEntity
  8
0
  6
Continuous
 62
     7
370
    25
100
AcDbLine
 10
9.8715728753
 20
-130.0
 30
0.0
 11
-9.8715728753
 21
-130.0
 31
0.0
  0
LINE
  5
1B4
330
1F
100
AcDbEntity
  8
0
  6
Continuous
 62
     7
370
    25
100
AcDbLine
 10
-12.1142135624
 20
-128.5857864376
 30
0.0
 11
-11.2857864376
 21
-129.4142135624
 31
0.0
  0
LINE
  5
1B5
330
1F
100
AcDbEntity
  8
0
  6
Continuous
 62
     7
370
    25
100
AcDbLine
 10
-12.7
 20
-127.1715728753
 30
0.0
 11
-12.7
 21
-99.0
 31
0.0
  0
LINE
  5
1B6
330
1F
100
AcDbEntity
  8
0
  6
Continuous
 62
     7
370
    25
100
AcDbLine
 10
-19.7
 20
-99.0
 30
0.0
 11
-12.7
 21
-99.0
 31
0.0
  0
LINE
  5
1B7
330
1F
100
AcDbEntity
  8
0
  6
Continuous
 62
     7
370
    25
100
AcDbLine
 10
-19.7
 20
-104.9074349117
 30
0.0
 11
-19.7
 21
-99.0
 31
0.0
  0
LINE
  5
1B8
330
1F
100
AcDbEntity
  8
0
  6
Continuous
 62
     7
370
    25
100
AcDbLine
 10
-20.8837750898
 20
-106.7534549077
 30
0.0
 11
-20.6520576114
 21
-106.610906881
 31
0.0
  0
LINE
  5
1B9
330
1F
100
AcDbEntity
  8
0
  6
Continuous
 62
     7
370
    25
100
AcDbLine
 10
-53.9934650838
 20
-90.4805751979
 30
0.0
 11
-105.3552092123
 21
-1.519424802
 31
0.0
  0
LINE
  5
1BA
330
1F
100
AcDbEntity
  8
0
  6
Continuous
 62
     7
370
    25
100
AcDbLine
 10
-102.6537824851
 20
35.4202469086
 30
0.0
 11
-102.8930914368
 21
35.2908476992
 31
0.0
  0
LINE
  5
1BB
330
1F
100
AcDbEntity
  8
0
  6
Continuous
 62
     7
370
    25
100
AcDbLine
 10
-95.5865149747
 20
32.4392995454
 30
0.0
 11
-100.7025036794
 21
35.3930170013
 31
0.0
  0
LINE
  5
1BC
330
1F
100
AcDbEntity
  8
0
  6
Continuous
 62
     7
370
    25
100
AcDbLine
 10
-92.0865149747
 20
38.5014773719
 30
0.0
 11
-95.5865149747
 21
32.4392995454
 31
0.0
  0
LINE
  5
1BD
330
1F
100
AcDbEntity
  8
0
  6
Continuous
 62
     7
370
    25
100
AcDbLine
 10
-92.0865149747
 20
38.5014773719
 30
0.0
 11
-116.4838127492
 21
52.5872638096
 31
0.0
  0
LINE
  5
1BE
330
1F
100
AcDbEntity
  8
0
  6
Continuous
 62
     7
370
    25
100
AcDbLine
 10
-117.7188897746
 20
54.9333290245
 30
0.0
 11
-117.4156644018
 21
53.8016765269
 31
0.0
  0
LINE
  5
1BF
330
1F
100
AcDbEntity
  8
0
  6
Continuous
 62
     7
370
    25
100
AcDbLine
 10
-81.694674162
 20
45.5706012807
 30
0.0
 11
-80.5199056435
 21
45.6805549844
 31
0.0
  0
LINE
  5
1C0
330
1F
100
AcDbEntity
  8
0
  6
Continuous
 62
     7
370
    25
100
AcDbLine
 10
-1.0754243827
 20
-90.6712962963
 30
0.0
 11
-1.3271604938
 21
-90.2797067901
 31
0.0
  0
LINE
  5
1C1
330
1F
100
AcDbEntity
  8
0
  6
Continuous
 62
     7
370
    25
100
AcDbLine
 10
79.6778917546
 20
44.2636371826
 30
0.0
 11
79.0355306435
 21
45.3766773061
 31
0.0
  0
LINE
  5
1C2
330
1F
100
AcDbEntity
  8
0
  6
Continuous
 62
     7
370
    25
100
AcDbLine
 10
82.1094118163
 20
46.2138686641
 30
0.0
 11
82.0891571867
 21
46.2167621826
 31
0.0
  0
LINE
  5
1C3
330
1F
100
AcDbEntity
  8
0
  6
Continuous
 62
     7
370
    25
100
AcDbLine
 10
72.5442099959
 20
-98.3497424918
 30
0.0
 11
74.8799964335
 21
-94.3040417062
 31
0.0
  0
LINE
  5
1C4
330
1F
100
AcDbEntity
  8
0
  6
Continuous
 62
     7
370
    25
100
AcDbLine
 10
82.3799964335
 20
-81.3136606495
 30
0.0
 11
114.4721940139
 21
-25.7283439137
 31
0.0
  0
ARC
  5
1C5
330
1F
100
AcDbEntity
  8
0
  6
Continuous
 62
     7
370
    25
100
AcDbCircle
 10
-115.787038122
 20
55.4509671147
 30
0.0
 40
1.99999999999992
100
AcDbArc
 50
150.0
 51
195.0
  0
ARC
  5
1C6
330
1F
100
AcDbEntity
  8
0
  6
Continuous
 62
     7
370
    25
100
AcDbCircle
 10
-105.9154652468
 20
72.5490328853
 30
0.0
 40
2.00000000000032
100
AcDbArc
 50
105.0
 51
150.0
  0
ARC
  5
1C7
330
1F
100
AcDbEntity
  8
0
  6
Continuous
 62
     7
370
    25
100
AcDbCircle
 10
-104.7838127492
 20
72.8522582581
 30
0.0
 40
1.999999999999911
100
AcDbArc
 50
60.0
 51
105.0
  0
ARC
  5
1C8
330
1F
100
AcDbEntity
  8
0
  6
Continuous
 62
     7
370
    25
100
AcDbCircle
 10
-80.0025036794
 20
71.246468718
 30
0.0
 40
2.00000000000002
100
AcDbArc
 50
181.5990103497
 51
240.0
  0
ARC
  5
1C9
330
1F
100
AcDbEntity
  8
0
  6
Continuous
 62
     7
370
    25
100
AcDbCircle
 10
-80.0100951526
 20
71.5184159542
 30
0.0
 40
1.999999999999978
100
AcDbArc
 50
134.6783465813
 51
181.5990103497
  0
ARC
  5
1CA
330
1F
100
AcDbEntity
  8
0
  6
Continuous
 62
     7
370
    25
100
AcDbCircle
 10
-21.6506350946
 20
12.5
 30
0.0
 40
84.9999999999984
100
AcDbArc
 50
110.9752825681
 51
134.6783465813
  0
ARC
  5
1CB
330
1F
100
AcDbEntity
  8
0
  6
Continuous
 62
     7
370
    25
100
AcDbCircle
 10
-51.3617441285
 20
89.9999999999
 30
0.0
 40
1.999999999999247
100
AcDbArc
 50
90.0
 51
110.9752825681
  0
ARC
  5
1CC
330
1F
100
AcDbEntity
  8
0
  6
Continuous
 62
     7
370
    25
100
AcDbCircle
 10
51.3617441285
 20
89.9999999999
 30
0.0
 40
1.999999999999773
100
AcDbArc
 50
69.0247174319
 51
90.0
  0
ARC
  5
1CD
330
1F
100
AcDbEntity
  8
0
  6
Continuous
 62
     7
370
    25
100
AcDbCircle
 10
80.0100951526
 20
71.5184159542
 30
0.0
 40
2.000000000000018
100
AcDbArc
 50
358.4009896503
 51
45.3216534187
  0
ARC
  5
1CE
330
1F
100
AcDbEntity
  8
0
  6
Continuous
 62
     7
370
    25
100
AcDbCircle
 10
80.0025036794
 20
71.246468718
 30
0.0
 40
2.000000000000025
100
AcDbArc
 50
300.0
 51
358.4009896503
  0
ARC
  5
1CF
330
1F
100
AcDbEntity
  8
0
  6
Continuous
 62
     7
370
    25
100
AcDbCircle
 10
104.7838127492
 20
72.8522582581
 30
0.0
 40
1.999999999999927
100
AcDbArc
 50
75.0
 51
120.0
  0
ARC
  5
1D0
330
1F
100
AcDbEntity
  8
0
  6
Continuous
 62
     7
370
    25
100
AcDbCircle
 10
105.9154652468
 20
72.5490328853
 30
0.0
 40
2.000000000000135
100
AcDbArc
 50
30.0
 51
75.0
  0
ARC
  5
1D1
330
1F
100
AcDbEntity
  8
0
  6
Continuous
 62
     7
370
    25
100
AcDbCircle
 10
115.787038122
 20
55.4509671147
 30
0.0
 40
2.000000000000046
100
AcDbArc
 50
345.0
 51
30.0
  0
ARC
  5
1D2
330
1F
100
AcDbEntity
  8
0
  6
Continuous
 62
     7
370
    25
100
AcDbCircle
 10
115.4838127492
 20
54.3193146171
 30
0.0
 40
1.999999999999978
100
AcDbArc
 50
300.0
 51
345.0
  0
ARC
  5
1D3
330
1F
100
AcDbEntity
  8
0
  6
Continuous
 62
     7
370
    25
100
AcDbCircle
 10
101.7025036794
 20
33.6609661937
 30
0.0
 40
2.000000000000046
100
AcDbArc
 50
61.5990103497
 51
120.0
  0
ARC
  5
1D4
330
1F
100
AcDbEntity
  8
0
  6
Continuous
 62
     7
370
    25
100
AcDbCircle
 10
101.941812631
 20
33.5315669843
 30
0.0
 40
1.999999999999999
100
AcDbArc
 50
14.6783465813
 51
61.5990103497
  0
ARC
  5
1D5
330
1F
100
AcDbEntity
  8
0
  6
Continuous
 62
     7
370
    25
100
AcDbCircle
 10
21.6506350946
 20
12.5
 30
0.0
 40
84.99999999999733
100
AcDbArc
 50
9.3769251306
 51
14.6783465813
  0
ARC
  5
1D6
330
1F
100
AcDbEntity
  8
0
  6
Continuous
 62
     7
370
    25
100
AcDbCircle
 10
107.4881287634
 20
26.6747903218
 30
0.0
 40
2.000000000001863
100
AcDbArc
 50
189.3769251306
 51
199.7127532772
  0
ARC
  5
1D7
330
1F
100
AcDbEntity
  8
0
  6
Continuous
 62
     7
370
    25
100
AcDbCircle
 10
119.5461224421
 20
-6.9782752495
 30
0.0
 40
2.000000000000048
100
AcDbArc
 50
199.7127532772
 51
240.0
  0
ARC
  5
1D8
330
1F
100
AcDbEntity
  8
0
  6
Continuous
 62
     7
370
    25
100
AcDbCircle
 10
119.4102042711
 20
-11.5186050104
 30
0.0
 40
1.999999999999863
100
AcDbArc
 50
15.0
 51
60.0
  0
ARC
  5
1D9
330
1F
100
AcDbEntity
  8
0
  6
Continuous
 62
     7
370
    25
100
AcDbCircle
 10
119.713429644
 20
-12.650257508
 30
0.0
 40
2.000000000000059
100
AcDbArc
 50
330.0
 51
15.0
  0
ARC
  5
1DA
330
1F
100
AcDbEntity
  8
0
  6
Continuous
 62
     7
370
    25
100
AcDbCircle
 10
107.0804018704
 20
-15.5313034653
 30
0.0
 40
0.4999999999999998
100
AcDbArc
 50
330.0
 51
60.0
  0
ARC
  5
1DB
330
1F
100
AcDbEntity
  8
0
  6
Continuous
 62
     7
370
    25
100
AcDbCircle
 10
103.6163002553
 20
-13.5313034653
 30
0.0
 40
0.499999999999966
100
AcDbArc
 50
60.0
 51
150.0
  0
ARC
  5
1DC
330
1F
100
AcDbEntity
  8
0
  6
Continuous
 62
     7
370
    25
100
AcDbCircle
 10
98.2436732363
 20
-12.8369664322
 30
0.0
 40
0.5000000000000508
100
AcDbArc
 50
60.0
 51
150.0
  0
ARC
  5
1DD
330
1F
100
AcDbEntity
  8
0
  6
Continuous
 62
     7
370
    25
100
AcDbCircle
 10
96.9686732363
 20
-15.0453312118
 30
0.0
 40
0.4999999999999734
100
AcDbArc
 50
150.0
 51
240.0
  0
ARC
  5
1DE
330
1F
100
AcDbEntity
  8
0
  6
Continuous
 62
     7
370
    25
100
AcDbCircle
 10
100.2563002553
 20
-19.3509941787
 30
0.0
 40
0.499999999999987
100
AcDbArc
 50
150.0
 51
240.0
  0
ARC
  5
1DF
330
1F
100
AcDbEntity
  8
0
  6
Continuous
 62
     7
370
    25
100
AcDbCircle
 10
103.7204018704
 20
-21.3509941787
 30
0.0
 40
0.4999999999999934
100
AcDbArc
 50
240.0
 51
330.0
  0
ARC
  5
1E0
330
1F
100
AcDbEntity
  8
0
  6
Continuous
 62
     7
370
    25
100
AcDbCircle
 10
84.8887614688
 20
-85.0714978947
 30
0.0
 40
1.99999999999996
100
AcDbArc
 50
15.0
 51
60.0
  0
ARC
  5
1E1
330
1F
100
AcDbEntity
  8
0
  6
Continuous
 62
     7
370
    25
100
AcDbCircle
 10
85.1919868416
 20
-86.2031503923
 30
0.0
 40
1.999999999999941
100
AcDbArc
 50
330.0
 51
15.0
  0
ARC
  5
1E2
330
1F
100
AcDbEntity
  8
0
  6
Continuous
 62
     7
370
    25
100
AcDbCircle
 10
80.5204139664
 20
-94.2945519635
 30
0.0
 40
2.000000000000094
100
AcDbArc
 50
285.0
 51
330.0
  0
ARC
  5
1E3
330
1F
100
AcDbEntity
  8
0
  6
Continuous
 62
     7
370
    25
100
AcDbCircle
 10
79.3887614688
 20
-94.5977773363
 30
0.0
 40
1.999999999999946
100
AcDbArc
 50
240.0
 51
285.0
  0
ARC
  5
1E4
330
1F
100
AcDbEntity
  8
0
  6
Continuous
 62
     7
370
    25
100
AcDbCircle
 10
70.8121591884
 20
-97.3497424918
 30
0.0
 40
1.999999999999981
100
AcDbArc
 50
285.0
 51
330.0
  0
ARC
  5
1E5
330
1F
100
AcDbEntity
  8
0
  6
Continuous
 62
     7
370
    25
100
AcDbCircle
 10
69.6805066908
 20
-97.6529678647
 30
0.0
 40
2.000000000000091
100
AcDbArc
 50
240.0
 51
285.0
  0
ARC
  5
1E6
330
1F
100
AcDbEntity
  8
0
  6
Continuous
 62
     7
370
    25
100
AcDbCircle
 10
65.8164248617
 20
-100.040841334
 30
0.0
 40
1.999999999999867
100
AcDbArc
 50
60.0
 51
100.2872467228
  0
ARC
  5
1E7
330
1F
100
AcDbEntity
  8
0
  6
Continuous
 62
     7
370
    25
100
AcDbCircle
 10
30.6430183224
 20
-106.4248452752
 30
0.0
 40
1.999999999992529
100
AcDbArc
 50
100.2872467228
 51
110.6230748694
  0
ARC
  5
1E8
330
1F
100
AcDbEntity
  8
0
  6
Continuous
 62
     7
370
    25
100
AcDbCircle
 10
21.9317174784
 20
-105.0499829385
 30
0.0
 40
1.999999999999984
100
AcDbArc
 50
238.4009896503
 51
285.3216534187
  0
ARC
  5
1E9
330
1F
100
AcDbEntity
  8
0
  6
Continuous
 62
     7
370
    25
100
AcDbCircle
 10
21.7
 20
-104.9074349117
 30
0.0
 40
1.999999999999968
100
AcDbArc
 50
180.0
 51
238.4009896503
  0
ARC
  5
1EA
330
1F
100
AcDbEntity
  8
0
  6
Continuous
 62
     7
370
    25
100
AcDbCircle
 10
10.7
 20
-127.1715728753
 30
0.0
 40
2.000000000000046
100
AcDbArc
 50
315.0
 51
0.0
  0
ARC
  5
1EB
330
1F
100
AcDbEntity
  8
0
  6
Continuous
 62
     7
370
    25
100
AcDbCircle
 10
9.8715728753
 20
-128.0
 30
0.0
 40
1.999999999999943
100
AcDbArc
 50
270.0
 51
315.0
  0
ARC
  5
1EC
330
1F
100
AcDbEntity
  8
0
  6
Continuous
 62
     7
370
    25
100
AcDbCircle
 10
-9.8715728753
 20
-128.0
 30
0.0
 40
2.000000000000068
100
AcDbArc
 50
225.0
 51
270.0
  0
ARC
  5
1ED
330
1F
100
AcDbEntity
  8
0
  6
Continuous
 62
     7
370
    25
100
AcDbCircle
 10
-10.7
 20
-127.1715728753
 30
0.0
 40
2.000000000000004
100
AcDbArc
 50
180.0
 51
225.0
  0
ARC
  5
1EE
330
1F
100
AcDbEntity
  8
0
  6
Continuous
 62
     7
370
    25
100
AcDbCircle
 10
-21.7
 20
-104.9074349117
 30
0.0
 40
1.999999999999957
100
AcDbArc
 50
301.5990103497
 51
0.0
  0
ARC
  5
1EF
330
1F
100
AcDbEntity
  8
0
  6
Continuous
 62
     7
370
    25
100
AcDbCircle
 10
-21.9317174784
 20
-105.0499829385
 30
0.0
 40
1.999999999999939
100
AcDbArc
 50
254.6783465813
 51
301.5990103497
  0
ARC
  5
1F0
330
1F
100
AcDbEntity
  8
0
  6
Continuous
 62
     7
370
    25
100
AcDbCircle
 10
0.0
 20
-25.0
 30
0.0
 40
85.00000000000011
100
AcDbArc
 50
230.9752825681
 51
254.6783465813
  0
ARC
  5
1F1
330
1F
100
AcDbEntity
  8
0
  6
Continuous
 62
     7
370
    25
100
AcDbCircle
 10
-52.2614142762
 20
-89.4805751979
 30
0.0
 40
2.000000000000186
100
AcDbArc
 50
210.0
 51
230.9752825681
  0
ARC
  5
1F2
330
1F
100
AcDbEntity
  8
0
  6
Continuous
 62
     7
370
    25
100
AcDbCircle
 10
-103.6231584047
 20
-0.519424802
 30
0.0
 40
2.000000000000744
100
AcDbArc
 50
189.0247174319
 51
210.0
  0
ARC
  5
1F3
330
1F
100
AcDbEntity
  8
0
  6
Continuous
 62
     7
370
    25
100
AcDbCircle
 10
-101.941812631
 20
33.5315669843
 30
0.0
 40
2.000000000000025
100
AcDbArc
 50
118.4009896503
 51
165.3216534187
  0
ARC
  5
1F4
330
1F
100
AcDbEntity
  8
0
  6
Continuous
 62
     7
370
    25
100
AcDbCircle
 10
-101.7025036794
 20
33.6609661937
 30
0.0
 40
2.000000000000037
100
AcDbArc
 50
60.0
 51
118.4009896503
  0
ARC
  5
1F5
330
1F
100
AcDbEntity
  8
0
  6
Continuous
 62
     7
370
    25
100
AcDbCircle
 10
-115.4838127492
 20
54.3193146171
 30
0.0
 40
2.000000000000042
100
AcDbArc
 50
195.0
 51
240.0
  0
ARC
  5
1F6
330
1F
100
AcDbEntity
  8
0
  6
Continuous
 62
     7
370
    25
100
AcDbCircle
 10
21.6506350946
 20
12.5
 30
0.0
 40
85.0
100
AcDbArc
 50
45.3216534187
 51
69.0247174319
  0
ARC
  5
1F7
330
1F
100
AcDbEntity
  8
0
  6
Continuous
 62
     7
370
    25
100
AcDbCircle
 10
0.0
 20
-25.0
 30
0.0
 40
85.00000000000901
100
AcDbArc
 50
285.3216534187
 51
290.6230748694
  0
ARC
  5
1F8
330
1F
100
AcDbEntity
  8
0
  6
Continuous
 62
     7
370
    25
100
AcDbCircle
 10
-21.6506350946
 20
12.5
 30
0.0
 40
85.0000000000011
100
AcDbArc
 50
165.3216534187
 51
189.0247174319
  0
ENDSEC
  0
SECTION
  2
OBJECTS
  0
DICTIONARY
  5
C
330
0
100
AcDbDictionary
281
     1
  3
ACAD_GROUP
350
D
  3
ACAD_LAYOUT
350
1A
  3
ACAD_MLINESTYLE
350
17
  3
ACAD_PLOTSETTINGS
350
19
  3
ACAD_PLOTSTYLENAME
350
E
  3
ACAD_SCALELIST
350
47
  0
DICTIONARY
  5
D
102
{ACAD_REACTORS
330
C
102
}
330
C
100
AcDbDictionary
281
     1
  0
DICTIONARY
  5
1A
102
{ACAD_REACTORS
330
C
102
}
330
C
100
AcDbDictionary
281
     1
  3
Layout1
350
1E
  3
Layout2
350
26
  3
Model
350
22
  0
DICTIONARY
  5
17
102
{ACAD_REACTORS
330
C
102
}
330
C
100
AcDbDictionary
281
     1
  3
Standard
350
18
  0
DICTIONARY
  5
19
102
{ACAD_REACTORS
330
C
102
}
330
C
100
AcDbDictionary
281
     1
  0
ACDBDICTIONARYWDFLT
  5
E
102
{ACAD_REACTORS
330
C
102
}
330
C
100
AcDbDictionary
281
     1
  3
Normal
350
F
100
AcDbDictionaryWithDefault
340
F
  0
DICTIONARY
  5
47
102
{ACAD_REACTORS
330
C
102
}
330
C
100
AcDbDictionary
281
     1
  3
A0
350
48
  3
A1
350
49
  3
A2
350
4A
  3
A3
350
4B
  3
A4
350
4C
  3
A5
350
4D
  3
A6
350
4E
  3
A7
350
4F
  3
A8
350
50
  3
A9
350
51
  3
B0
350
52
  3
B1
350
53
  3
B2
350
54
  3
B3
350
55
  3
B4
350
56
  3
B5
350
57
  3
B6
350
58
  3
B7
350
59
  3
B8
350
5A
  3
B9
350
5B
  3
C0
350
5C
  3
C1
350
5D
  3
C2
350
5E
  3
C3
350
5F
  3
C4
350
60
  3
C5
350
61
  3
C6
350
62
  3
C7
350
63
  3
C8
350
64
  3
C9
350
65
  3
D0
350
66
  3
D1
350
67
  3
D2
350
68
  0
LAYOUT
  5
1E
102
{ACAD_REACTORS
330
1A
102
}
330
1A
100
AcDbPlotSettings
  1

  2
none_device
  4

  6

 40
0.0
 41
0.0
 42
0.0
 43
0.0
 44
0.0
 45
0.0
 46
0.0
 47
0.0
 48
0.0
 49
0.0
140
0.0
141
0.0
142
1.0
143
1.0
 70
   688
 72
     1
 73
     0
 74
     5
  7

 75
    16
147
1.0
148
0.0
149
0.0
100
AcDbLayout
  1
Layout1
 70
     1
 71
     1
 10
0.0
 20
0.0
 11
420.0
 21
297.0
 12
0.0
 22
0.0
 32
0.0
 14
1.0000000000E+20
 24
1.0000000000E+20
 34
1.0000000000E+20
 15
-1.0000000000E+20
 25
-1.0000000000E+20
 35
-1.0000000000E+20
146
0.0
 13
0.0
 23
0.0
 33
0.0
 16
1.0
 26
0.0
 36
0.0
 17
0.0
 27
1.0
 37
0.0
 76
     0
330
1B
  0
LAYOUT
  5
26
102
{ACAD_REACTORS
330
1A
102
}
330
1A
100
AcDbPlotSettings
  1

  2
none_device
  4

  6

 40
0.0
 41
0.0
 42
0.0
 43
0.0
 44
0.0
 45
0.0
 46
0.0
 47
0.0
 48
0.0
 49
0.0
140
0.0
141
0.0
142
1.0
143
1.0
 70
   688
 72
     1
 73
     0
 74
     5
  7

 75
    16
147
1.0
148
0.0
149
0.0
100
AcDbLayout
  1
Layout2
 70
     1
 71
     2
 10
0.0
 20
0.0
 11
0.0
 21
0.0
 12
0.0
 22
0.0
 32
0.0
 14
0.0
 24
0.0
 34
0.0
 15
0.0
 25
0.0
 35
0.0
146
0.0
 13
0.0
 23
0.0
 33
0.0
 16
1.0
 26
0.0
 36
0.0
 17
0.0
 27
1.0
 37
0.0
 76
     0
330
23
  0
LAYOUT
  5
22
102
{ACAD_REACTORS
330
1A
102
}
330
1A
100
AcDbPlotSettings
  1

  2
none_device
  4
ANSI_A_(11.00_x_8.50_Inches)
  6

 40
6.35
 41
19.05
 42
6.35000508
 43
19.05000254
 44
279.4
 45
215.9
 46
131.4598378873
 47
107.1931473787
 48
0.0
 49
0.0
140
0.0
141
0.0
142
0.0379054054
143
1.0
 70
  1696
 72
     0
 73
     0
 74
     0
  7

 75
     0
147
0.0179189148
148
-1300.4909072572
149
0.0
100
AcDbLayout
  1
Model
 70
     1
 71
     0
 10
0.0
 20
0.0
 11
420.0
 21
297.0
 12
0.0
 22
0.0
 32
0.0
 14
-117.787038122
 24
-130.0
 34
0.0
 15
121.713429644
 25
91.9999999999
 35
0.0
146
0.0
 13
0.0
 23
0.0
 33
0.0
 16
1.0
 26
0.0
 36
0.0
 17
0.0
 27
1.0
 37
0.0
 76
     0
330
1F
331
29
  0
MLINESTYLE
  5
18
102
{ACAD_REACTORS
330
17
102
}
330
17
100
AcDbMlineStyle
  2
Standard
 70
     0
  3

 62
   256
 51
90.0
 52
90.0
 71
     2
 49
0.5
 62
   256
  6
BYLAYER
 49
-0.5
 62
   256
  6
BYLAYER
  0
ACDBPLACEHOLDER
  5
F
102
{ACAD_REACTORS
330
E
102
}
330
E
  0
SCALE
  5
48
102
{ACAD_REACTORS
330
47
102
}
330
47
100
AcDbScale
 70
     0
300
1:1
140
1.0
141
1.0
290
     1
  0
SCALE
  5
49
102
{ACAD_REACTORS
330
47
102
}
330
47
100
AcDbScale
 70
     0
300
1:2
140
1.0
141
2.0
290
     0
  0
SCALE
  5
4A
102
{ACAD_REACTORS
330
47
102
}
330
47
100
AcDbScale
 70
     0
300
1:4
140
1.0
141
4.0
290
     0
  0
SCALE
  5
4B
102
{ACAD_REACTORS
330
47
102
}
330
47
100
AcDbScale
 70
     0
300
1:5
140
1.0
141
5.0
290
     0
  0
SCALE
  5
4C
102
{ACAD_REACTORS
330
47
102
}
330
47
100
AcDbScale
 70
     0
300
1:8
140
1.0
141
8.0
290
     0
  0
SCALE
  5
4D
102
{ACAD_REACTORS
330
47
102
}
330
47
100
AcDbScale
 70
     0
300
1:10
140
1.0
141
10.0
290
     0
  0
SCALE
  5
4E
102
{ACAD_REACTORS
330
47
102
}
330
47
100
AcDbScale
 70
     0
300
1:16
140
1.0
141
16.0
290
     0
  0
SCALE
  5
4F
102
{ACAD_REACTORS
330
47
102
}
330
47
100
AcDbScale
 70
     0
300
1:20
140
1.0
141
20.0
290
     0
  0
SCALE
  5
50
102
{ACAD_REACTORS
330
47
102
}
330
47
100
AcDbScale
 70
     0
300
1:30
140
1.0
141
30.0
290
     0
  0
SCALE
  5
51
102
{ACAD_REACTORS
330
47
102
}
330
47
100
AcDbScale
 70
     0
300
1:40
140
1.0
141
40.0
290
     0
  0
SCALE
  5
52
102
{ACAD_REACTORS
330
47
102
}
330
47
100
AcDbScale
 70
     0
300
1:50
140
1.0
141
50.0
290
     0
  0
SCALE
  5
53
102
{ACAD_REACTORS
330
47
102
}
330
47
100
AcDbScale
 70
     0
300
1:100
140
1.0
141
100.0
290
     0
  0
SCALE
  5
54
102
{ACAD_REACTORS
330
47
102
}
330
47
100
AcDbScale
 70
     0
300
2:1
140
2.0
141
1.0
290
     0
  0
SCALE
  5
55
102
{ACAD_REACTORS
330
47
102
}
330
47
100
AcDbScale
 70
     0
300
4:1
140
4.0
141
1.0
290
     0
  0
SCALE
  5
56
102
{ACAD_REACTORS
330
47
102
}
330
47
100
AcDbScale
 70
     0
300
8:1
140
8.0
141
1.0
290
     0
  0
SCALE
  5
57
102
{ACAD_REACTORS
330
47
102
}
330
47
100
AcDbScale
 70
     0
300
10:1
140
10.0
141
1.0
290
     0
  0
SCALE
  5
58
102
{ACAD_REACTORS
330
47
102
}
330
47
100
AcDbScale
 70
     0
300
100:1
140
100.0
141
1.0
290
     0
  0
SCALE
  5
59
102
{ACAD_REACTORS
330
47
102
}
330
47
100
AcDbScale
 70
     0
300
1/128" = 1'-0"
140
0.0078125
141
12.0
290
     0
  0
SCALE
  5
5A
102
{ACAD_REACTORS
330
47
102
}
330
47
100
AcDbScale
 70
     0
300
1/64" = 1'-0"
140
0.015625
141
12.0
290
     0
  0
SCALE
  5
5B
102
{ACAD_REACTORS
330
47
102
}
330
47
100
AcDbScale
 70
     0
300
1/32" = 1'-0"
140
0.03125
141
12.0
290
     0
  0
SCALE
  5
5C
102
{ACAD_REACTORS
330
47
102
}
330
47
100
AcDbScale
 70
     0
300
1/16" = 1'-0"
140
0.0625
141
12.0
290
     0
  0
SCALE
  5
5D
102
{ACAD_REACTORS
330
47
102
}
330
47
100
AcDbScale
 70
     0
300
3/32" = 1'-0"
140
0.09375
141
12.0
290
     0
  0
SCALE
  5
5E
102
{ACAD_REACTORS
330
47
102
}
330
47
100
AcDbScale
 70
     0
300
1/8" = 1'-0"
140
0.125
141
12.0
290
     0
  0
SCALE
  5
5F
102
{ACAD_REACTORS
330
47
102
}
330
47
100
AcDbScale
 70
     0
300
3/16" = 1'-0"
140
0.1875
141
12.0
290
     0
  0
SCALE
  5
60
102
{ACAD_REACTORS
330
47
102
}
330
47
100
AcDbScale
 70
     0
300
1/4" = 1'-0"
140
0.25
141
12.0
290
     0
  0
SCALE
  5
61
102
{ACAD_REACTORS
330
47
102
}
330
47
100
AcDbScale
 70
     0
300
3/8" = 1'-0"
140
0.375
141
12.0
290
     0
  0
SCALE
  5
62
102
{ACAD_REACTORS
330
47
102
}
330
47
100
AcDbScale
 70
     0
300
1/2" = 1'-0"
140
0.5
141
12.0
290
     0
  0
SCALE
  5
63
102
{ACAD_REACTORS
330
47
102
}
330
47
100
AcDbScale
 70
     0
300
3/4" = 1'-0"
140
0.75
141
12.0
290
     0
  0
SCALE
  5
64
102
{ACAD_REACTORS
330
47
102
}
330
47
100
AcDbScale
 70
     0
300
1" = 1'-0"
140
1.0
141
12.0
290
     0
  0
SCALE
  5
65
102
{ACAD_REACTORS
330
47
102
}
330
47
100
AcDbScale
 70
     0
300
1-1/2" = 1'-0"
140
1.5
141
12.0
290
     0
  0
SCALE
  5
66
102
{ACAD_REACTORS
330
47
102
}
330
47
100
AcDbScale
 70
     0
300
3" = 1'-0"
140
3.0
141
12.0
290
     0
  0
SCALE
  5
67
102
{ACAD_REACTORS
330
47
102
}
330
47
100
AcDbScale
 70
     0
300
6" = 1'-0"
140
6.0
141
12.0
290
     0
  0
SCALE
  5
68
102
{ACAD_REACTORS
330
47
102
}
330
47
100
AcDbScale
 70
     0
300
1'-0" = 1'-0"
140
12.0
141
12.0
290
     0
  0
ENDSEC
  0
EOF
