  0
SECTION
  2
HEADER
  9
$ACADVER
  1
AC1015
  9
$ACADMAINTVER
 70
     6
  9
$DWGCODEPAGE
  3
ANSI_1252
  9
$INSBASE
 10
0.0
 20
0.0
 30
0.0
  9
$EXTMIN
 10
-39.8066017178
 20
-65.675
 30
0.0
  9
$EXTMAX
 10
130.0
 20
72.7116017178
 30
0.0
  9
$LIMMIN
 10
0.0
 20
0.0
  9
$LIMMAX
 10
420.0
 20
297.0
  9
$ORTHOMODE
 70
     0
  9
$REGENMODE
 70
     1
  9
$FILLMODE
 70
     1
  9
$QTEXTMODE
 70
     0
  9
$MIRRTEXT
 70
     1
  9
$LTSCALE
 40
1.0
  9
$ATTMODE
 70
     1
  9
$TEXTSIZE
 40
3.175
  9
$TRACEWID
 40
1.0
  9
$TEXTSTYLE
  7
Standard
  9
$CLAYER
  8
0
  9
$CELTYPE
  6
ByLayer
  9
$CECOLOR
 62
   256
  9
$CELTSCALE
 40
1.0
  9
$DISPSILH
 70
     0
  9
$DIMSCALE
 40
1.0
  9
$DIMASZ
 40
3.302
  9
$DIMEXO
 40
1.27
  9
$DIMDLI
 40
3.75
  9
$DIMRND
 40
0.0
  9
$DIMDLE
 40
0.0
  9
$DIMEXE
 40
3.175
  9
$DIMTP
 40
0.0
  9
$DIMTM
 40
0.0
  9
$DIMTXT
 40
3.175
  9
$DIMCEN
 40
2.5
  9
$DIMTSZ
 40
0.0
  9
$DIMTOL
 70
     0
  9
$DIMLIM
 70
     0
  9
$DIMTIH
 70
     1
  9
$DIMTOH
 70
     1
  9
$DIMSE1
 70
     0
  9
$DIMSE2
 70
     0
  9
$DIMTAD
 70
     0
  9
$DIMZIN
 70
     0
  9
$DIMBLK
  1

  9
$DIMASO
 70
     1
  9
$DIMSHO
 70
     1
  9
$DIMPOST
  1

  9
$DIMAPOST
  1

  9
$DIMALT
 70
     0
  9
$DIMALTD
 70
     3
  9
$DIMALTF
 40
0.0393700787
  9
$DIMLFAC
 40
1.0
  9
$DIMTOFL
 70
     1
  9
$DIMTVP
 40
0.0
  9
$DIMTIX
 70
     0
  9
$DIMSOXD
 70
     0
  9
$DIMSAH
 70
     0
  9
$DIMBLK1
  1

  9
$DIMBLK2
  1

  9
$DIMSTYLE
  2
ISO-25
  9
$DIMCLRD
 70
     0
  9
$DIMCLRE
 70
     0
  9
$DIMCLRT
 70
     0
  9
$DIMTFAC
 40
1.0
  9
$DIMGAP
 40
1.524
  9
$DIMJUST
 70
     0
  9
$DIMSD1
 70
     0
  9
$DIMSD2
 70
     0
  9
$DIMTOLJ
 70
     0
  9
$DIMTZIN
 70
     0
  9
$DIMALTZ
 70
     0
  9
$DIMALTTZ
 70
     0
  9
$DIMUPT
 70
     0
  9
$DIMDEC
 70
     2
  9
$DIMTDEC
 70
     2
  9
$DIMALTU
 70
     2
  9
$DIMALTTD
 70
     3
  9
$DIMTXSTY
  7
Standard
  9
$DIMAUNIT
 70
     0
  9
$DIMADEC
 70
     2
  9
$DIMALTRND
 40
0.0
  9
$DIMAZIN
 70
     0
  9
$DIMDSEP
 70
    44
  9
$DIMATFIT
 70
     3
  9
$DIMFRAC
 70
     0
  9
$DIMLDRBLK
  1

  9
$DIMLUNIT
 70
     2
  9
$DIMLWD
 70
    -2
  9
$DIMLWE
 70
    -2
  9
$DIMTMOVE
 70
     0
  9
$LUNITS
 70
     2
  9
$LUPREC
 70
     2
  9
$SKETCHINC
 40
1.0
  9
$FILLETRAD
 40
10.0
  9
$AUNITS
 70
     0
  9
$AUPREC
 70
     2
  9
$MENU
  1
.
  9
$ELEVATION
 40
0.0
  9
$PELEVATION
 40
0.0
  9
$THICKNESS
 40
0.0
  9
$LIMCHECK
 70
     0
  9
$CHAMFERA
 40
0.0
  9
$CHAMFERB
 40
0.0
  9
$CHAMFERC
 40
0.0
  9
$CHAMFERD
 40
0.0
  9
$SKPOLY
 70
     0
  9
$TDCREATE
 40
2457743.696118298
  9
$TDUCREATE
 40
2457743.904451632
  9
$TDUPDATE
 40
2457743.69614544
  9
$TDUUPDATE
 40
2457743.904478773
  9
$TDINDWG
 40
0.0000000116
  9
$TDUSRTIMER
 40
0.0000000116
  9
$USRTIMER
 70
     1
  9
$ANGBASE
 50
0.0
  9
$ANGDIR
 70
     0
  9
$PDMODE
 70
     0
  9
$PDSIZE
 40
-1.0
  9
$PLINEWID
 40
0.0
  9
$SPLFRAME
 70
     0
  9
$SPLINETYPE
 70
     6
  9
$SPLINESEGS
 70
     8
  9
$HANDSEED
  5
146
  9
$SURFTAB1
 70
     6
  9
$SURFTAB2
 70
     6
  9
$SURFTYPE
 70
     6
  9
$SURFU
 70
     6
  9
$SURFV
 70
     6
  9
$UCSBASE
  2

  9
$UCSNAME
  2

  9
$UCSORG
 10
0.0
 20
0.0
 30
0.0
  9
$UCSXDIR
 10
1.0
 20
0.0
 30
0.0
  9
$UCSYDIR
 10
0.0
 20
1.0
 30
0.0
  9
$UCSORTHOREF
  2

  9
$UCSORTHOVIEW
 70
     0
  9
$UCSORGTOP
 10
0.0
 20
0.0
 30
0.0
  9
$UCSORGBOTTOM
 10
0.0
 20
0.0
 30
0.0
  9
$UCSORGLEFT
 10
0.0
 20
0.0
 30
0.0
  9
$UCSORGRIGHT
 10
0.0
 20
0.0
 30
0.0
  9
$UCSORGFRONT
 10
0.0
 20
0.0
 30
0.0
  9
$UCSORGBACK
 10
0.0
 20
0.0
 30
0.0
  9
$PUCSBASE
  2

  9
$PUCSNAME
  2

  9
$PUCSORG
 10
0.0
 20
0.0
 30
0.0
  9
$PUCSXDIR
 10
1.0
 20
0.0
 30
0.0
  9
$PUCSYDIR
 10
0.0
 20
1.0
 30
0.0
  9
$PUCSORTHOREF
  2

  9
$PUCSORTHOVIEW
 70
     0
  9
$PUCSORGTOP
 10
0.0
 20
0.0
 30
0.0
  9
$PUCSORGBOTTOM
 10
0.0
 20
0.0
 30
0.0
  9
$PUCSORGLEFT
 10
0.0
 20
0.0
 30
0.0
  9
$PUCSORGRIGHT
 10
0.0
 20
0.0
 30
0.0
  9
$PUCSORGFRONT
 10
0.0
 20
0.0
 30
0.0
  9
$PUCSORGBACK
 10
0.0
 20
0.0
 30
0.0
  9
$USERI1
 70
     0
  9
$USERI2
 70
     0
  9
$USERI3
 70
     0
  9
$USERI4
 70
     0
  9
$USERI5
 70
     0
  9
$USERR1
 40
0.0
  9
$USERR2
 40
0.0
  9
$USERR3
 40
0.0
  9
$USERR4
 40
0.0
  9
$USERR5
 40
0.0
  9
$WORLDVIEW
 70
     1
  9
$SHADEDGE
 70
     3
  9
$SHADEDIF
 70
    70
  9
$TILEMODE
 70
     1
  9
$MAXACTVP
 70
    64
  9
$PINSBASE
 10
0.0
 20
0.0
 30
0.0
  9
$PLIMCHECK
 70
     0
  9
$PEXTMIN
 10
1.0000000000E+20
 20
1.0000000000E+20
 30
1.0000000000E+20
  9
$PEXTMAX
 10
-1.0000000000E+20
 20
-1.0000000000E+20
 30
-1.0000000000E+20
  9
$PLIMMIN
 10
0.0
 20
0.0
  9
$PLIMMAX
 10
420.0
 20
297.0
  9
$UNITMODE
 70
     0
  9
$VISRETAIN
 70
     1
  9
$PLINEGEN
 70
     0
  9
$PSLTSCALE
 70
     1
  9
$TREEDEPTH
 70
  3020
  9
$CMLSTYLE
  2
Standard
  9
$CMLJUST
 70
     0
  9
$CMLSCALE
 40
20.0
  9
$PROXYGRAPHICS
 70
     1
  9
$MEASUREMENT
 70
     1
  9
$CELWEIGHT
370
    -1
  9
$ENDCAPS
280
     0
  9
$JOINSTYLE
280
     0
  9
$LWDISPLAY
290
     1
  9
$INSUNITS
 70
     4
  9
$HYPERLINKBASE
  1

  9
$STYLESHEET
  1

  9
$XEDIT
290
     1
  9
$CEPSNTYPE
380
     0
  9
$PSTYLEMODE
290
     1
  9
$FINGERPRINTGUID
  2
{79C640DF-F937-49D3-ABA7-927473F37DC3}
  9
$VERSIONGUID
  2
{FAEB1C32-E019-11D5-929B-00C0DF256EC4}
  9
$EXTNAMES
290
     1
  9
$PSVPSCALE
 40
0.0
  9
$OLESTARTUP
290
     0
  0
ENDSEC
  0
SECTION
  2
CLASSES
  0
CLASS
  1
ACDBDICTIONARYWDFLT
  2
AcDbDictionaryWithDefault
  3
ObjectDBX Classes
 90
        0
280
     0
281
     0
  0
CLASS
  1
VISUALSTYLE
  2
AcDbVisualStyle
  3
ObjectDBX Classes
 90
     4095
280
     0
281
     0
  0
CLASS
  1
MATERIAL
  2
AcDbMaterial
  3
ObjectDBX Classes
 90
     1153
280
     0
281
     0
  0
CLASS
  1
SCALE
  2
AcDbScale
  3
ObjectDBX Classes
 90
     1153
280
     0
281
     0
  0
CLASS
  1
TABLESTYLE
  2
AcDbTableStyle
  3
ObjectDBX Classes
 90
     4095
280
     0
281
     0
  0
CLASS
  1
MLEADERSTYLE
  2
AcDbMLeaderStyle
  3
ACDB_MLEADERSTYLE_CLASS
 90
     4095
280
     0
281
     0
  0
CLASS
  1
SUN
  2
AcDbSun
  3
SCENEOE
 90
     1153
280
     0
281
     0
  0
CLASS
  1
ACDBPLACEHOLDER
  2
AcDbPlaceHolder
  3
ObjectDBX Classes
 90
        0
280
     0
281
     0
  0
CLASS
  1
LAYOUT
  2
AcDbLayout
  3
ObjectDBX Classes
 90
        0
280
     0
281
     0
  0
ENDSEC
  0
SECTION
  2
TABLES
  0
TABLE
  2
VPORT
  5
8
330
0
100
AcDbSymbolTable
 70
     1
  0
VPORT
  5
29
330
8
100
AcDbSymbolTableRecord
100
AcDbViewportTableRecord
  2
*Active
 70
     0
 10
0.0
 20
0.0
 11
1.0
 21
1.0
 12
45.0966991411
 22
3.5183008589
 13
0.0
 23
0.0
 14
10.0
 24
10.0
 15
10.0
 25
10.0
 16
0.0
 26
0.0
 36
1.0
 17
0.0
 27
0.0
 37
0.0
 40
141.1543337522
 41
1.2270451013
 42
50.0
 43
0.0
 44
0.0
 50
0.0
 51
0.0
 71
     0
 72
   100
 73
     1
 74
     3
 75
     0
 76
     0
 77
     0
 78
     0
281
     0
 65
     1
110
0.0
120
0.0
130
0.0
111
1.0
121
0.0
131
0.0
112
0.0
122
1.0
132
0.0
 79
     0
146
0.0
  0
ENDTAB
  0
TABLE
  2
LTYPE
  5
5
330
0
100
AcDbSymbolTable
 70
     6
  0
LTYPE
  5
14
330
5
100
AcDbSymbolTableRecord
100
AcDbLinetypeTableRecord
  2
ByBlock
 70
     0
  3

 72
    65
 73
     0
 40
0.0
  0
LTYPE
  5
15
330
5
100
AcDbSymbolTableRecord
100
AcDbLinetypeTableRecord
  2
ByLayer
 70
     0
  3

 72
    65
 73
     0
 40
0.0
  0
LTYPE
  5
16
330
5
100
AcDbSymbolTableRecord
100
AcDbLinetypeTableRecord
  2
Continuous
 70
     0
  3
Solid line
 72
    65
 73
     0
 40
0.0
  0
LTYPE
  5
6E
330
5
100
AcDbSymbolTableRecord
100
AcDbLinetypeTableRecord
  2
HIDDEN
 70
     0
  3
Hidden __ __ __ __ __ __ __ __ __ __ __ __ __ __
 72
    65
 73
     2
 40
1.905
 49
1.27
 74
     0
 49
-0.635
 74
     0
  0
LTYPE
  5
6F
330
5
100
AcDbSymbolTableRecord
100
AcDbLinetypeTableRecord
  2
PHANTOM
 70
     0
  3
Phantom ______  __  __  ______  __  __  ______
 72
    65
 73
     6
 40
12.7
 49
6.35
 74
     0
 49
-1.27
 74
     0
 49
1.27
 74
     0
 49
-1.27
 74
     0
 49
1.27
 74
     0
 49
-1.27
 74
     0
  0
LTYPE
  5
70
330
5
100
AcDbSymbolTableRecord
100
AcDbLinetypeTableRecord
  2
CENTER
 70
     0
  3
Center ____ _ ____ _ ____ _ ____ _ ____ _ ____
 72
    65
 73
     4
 40
10.16
 49
6.35
 74
     0
 49
-1.27
 74
     0
 49
1.27
 74
     0
 49
-1.27
 74
     0
  0
LTYPE
  5
71
330
5
100
AcDbSymbolTableRecord
100
AcDbLinetypeTableRecord
  2
CENTERX2
 70
     0
  3
Center (2x) ________  __  ________  __  _____
 72
    65
 73
     4
 40
20.32
 49
12.7
 74
     0
 49
-2.54
 74
     0
 49
2.54
 74
     0
 49
-2.54
 74
     0
  0
LTYPE
  5
72
330
5
100
AcDbSymbolTableRecord
100
AcDbLinetypeTableRecord
  2
DOT2
 70
     0
  3
Dot (.5x) ........................................
 72
    65
 73
     2
 40
0.635
 49
0.0
 74
     0
 49
-0.635
 74
     0
  0
ENDTAB
  0
TABLE
  2
LAYER
  5
2
330
0
100
AcDbSymbolTable
 70
     1
  0
LAYER
  5
10
330
2
100
AcDbSymbolTableRecord
100
AcDbLayerTableRecord
  2
0
 70
     0
 62
     7
  6
Continuous
370
    -3
390
F
  0
ENDTAB
  0
TABLE
  2
STYLE
  5
3
330
0
100
AcDbSymbolTable
 70
     1
  0
STYLE
  5
11
330
3
100
AcDbSymbolTableRecord
100
AcDbTextStyleTableRecord
  2
Standard
 70
     0
 40
0.0
 41
1.0
 50
0.0
 71
     0
 42
3.175
  3
txt
  4

  0
ENDTAB
  0
TABLE
  2
VIEW
  5
6
330
0
100
AcDbSymbolTable
 70
     0
  0
ENDTAB
  0
TABLE
  2
UCS
  5
7
330
0
100
AcDbSymbolTable
 70
     0
  0
ENDTAB
  0
TABLE
  2
APPID
  5
9
330
0
100
AcDbSymbolTable
 70
     1
  0
APPID
  5
12
330
9
100
AcDbSymbolTableRecord
100
AcDbRegAppTableRecord
  2
ACAD
 70
     0
  0
ENDTAB
  0
TABLE
  2
DIMSTYLE
  5
A
330
0
100
AcDbSymbolTable
 70
     1
100
AcDbDimStyleTable
  0
DIMSTYLE
105
27
330
A
100
AcDbSymbolTableRecord
100
AcDbDimStyleTableRecord
  2
ISO-25
 70
     0
 41
2.5
 42
0.625
 43
3.75
 44
1.25
 73
     0
 74
     0
 77
     1
 78
     8
140
2.5
141
2.5
143
0.0393700787
147
0.625
171
     3
172
     1
178
     0
271
     2
272
     2
274
     3
278
    44
283
     0
284
     8
340
11
  0
ENDTAB
  0
TABLE
  2
BLOCK_RECORD
  5
1
330
0
100
AcDbSymbolTable
 70
     1
  0
BLOCK_RECORD
  5
1F
330
1
100
AcDbSymbolTableRecord
100
AcDbBlockTableRecord
  2
*Model_Space
340
22
  0
BLOCK_RECORD
  5
1B
330
1
100
AcDbSymbolTableRecord
100
AcDbBlockTableRecord
  2
*Paper_Space
340
1E
  0
BLOCK_RECORD
  5
23
330
1
100
AcDbSymbolTableRecord
100
AcDbBlockTableRecord
  2
*Paper_Space0
340
26
  0
ENDTAB
  0
ENDSEC
  0
SECTION
  2
BLOCKS
  0
BLOCK
  5
20
330
1F
100
AcDbEntity
  8
0
100
AcDbBlockBegin
  2
*Model_Space
 70
     0
 10
0.0
 20
0.0
 30
0.0
  3
*Model_Space
  1

  0
ENDBLK
  5
21
330
1F
100
AcDbEntity
  8
0
100
AcDbBlockEnd
  0
BLOCK
  5
1C
330
1B
100
AcDbEntity
 67
     1
  8
0
100
AcDbBlockBegin
  2
*Paper_Space
 70
     0
 10
0.0
 20
0.0
 30
0.0
  3
*Paper_Space
  1

  0
ENDBLK
  5
1D
330
1B
100
AcDbEntity
 67
     1
  8
0
100
AcDbBlockEnd
  0
BLOCK
  5
24
330
23
100
AcDbEntity
  8
0
100
AcDbBlockBegin
  2
*Paper_Space0
 70
     0
 10
0.0
 20
0.0
 30
0.0
  3
*Paper_Space0
  1

  0
ENDBLK
  5
25
330
23
100
AcDbEntity
  8
0
100
AcDbBlockEnd
  0
ENDSEC
  0
SECTION
  2
ENTITIES
  0
SPLINE
  5
74
330
1F
100
AcDbEntity
  8
0
  6
Continuous
 62
     7
370
    25
100
AcDbSpline
210
0.0
220
0.0
230
1.0
 70
     8
 71
     3
 72
    15
 73
    11
 74
     0
 42
0.000000001
 43
0.00000001
 40
0.0
 40
0.0
 40
0.0
 40
0.0
 40
0.0939620674543896
 40
0.2082309094739321
 40
0.3435688342971847
 40
0.4992783191507875
 40
0.6557089833509727
 40
0.7910469081742357
 40
0.9060379325456105
 40
1.0
 40
1.0
 40
1.0
 40
1.0
 10
106.4654706790123
 20
26.96327160493828
 30
0.0
 10
106.5072706849486
 20
26.96282525166972
 30
0.0
 10
106.5999043773306
 20
26.96183608072472
 30
0.0
 10
106.7526293684214
 20
26.95542353307545
 30
0.0
 10
106.9326850688533
 20
26.9458345287427
 30
0.0
 10
107.131298485871
 20
26.93236131107905
 30
0.0
 10
107.3299208224804
 20
26.91902855700083
 30
0.0
 10
107.5106149472482
 20
26.9093544816551
 30
0.0
 10
107.6636637323799
 20
26.9029950775449
 30
0.0
 10
107.756618356299
 20
26.90199356861104
 30
0.0
 10
107.7984182098765
 20
26.90154320987655
 30
0.0
  0
SPLINE
  5
75
330
1F
100
AcDbEntity
  8
0
  6
Continuous
 62
     7
370
    25
100
AcDbSpline
210
0.0
220
0.0
230
1.0
 70
     8
 71
     3
 72
    15
 73
    11
 74
     0
 42
0.000000001
 43
0.00000001
 40
0.0
 40
0.0
 40
0.0
 40
0.0
 40
0.1197944734076421
 40
0.2285712279256729
 40
0.3324798089192102
 40
0.4385201243697789
 40
0.5537190561108362
 40
0.6835185025022172
 40
0.830966611557026
 40
1.0
 40
1.0
 40
1.0
 40
1.0
 10
105.8086419753086
 20
26.49837962962964
 30
0.0
 10
105.8105086705631
 20
26.53495657466728
 30
0.0
 10
105.814070377663
 20
26.60474641557735
 30
0.0
 10
105.8457793358468
 20
26.70233535015099
 30
0.0
 10
105.8983601128773
 20
26.78515200442882
 30
0.0
 10
105.9723977148555
 20
26.85285952315158
 30
0.0
 10
106.0681871241769
 20
26.90232690356356
 30
0.0
 10
106.1825033832625
 20
26.93890606432088
 30
0.0
 10
106.3175344003853
 20
26.95902452884266
 30
0.0
 10
106.4139662428476
 20
26.96179297331605
 30
0.0
 10
106.4654706790123
 20
26.96327160493828
 30
0.0
  0
SPLINE
  5
76
330
1F
100
AcDbEntity
  8
0
  6
Continuous
 62
     7
370
    25
100
AcDbSpline
210
0.0
220
0.0
230
1.0
 70
     8
 71
     3
 72
    11
 73
     7
 74
     0
 42
0.000000001
 43
0.00000001
 40
0.0
 40
0.0
 40
0.0
 40
0.0
 40
0.2436179155803866
 40
0.4849266044890914
 40
0.7319552988217504
 40
1.0
 40
1.0
 40
1.0
 40
1.0
 10
105.9552469135802
 20
26.15308641975309
 30
0.0
 10
105.9328848675418
 20
26.17531066980625
 30
0.0
 10
105.8883727427705
 20
26.2195485087596
 30
0.0
 10
105.8416912341717
 20
26.30289804332004
 30
0.0
 10
105.8139862399099
 20
26.39729247192293
 30
0.0
 10
105.8104712036384
 20
26.46377964133284
 30
0.0
 10
105.8086419753086
 20
26.49837962962964
 30
0.0
  0
SPLINE
  5
77
330
1F
100
AcDbEntity
  8
0
  6
Continuous
 62
     7
370
    25
100
AcDbSpline
210
0.0
220
0.0
230
1.0
 70
     8
 71
     3
 72
    11
 73
     7
 74
     0
 42
0.000000001
 43
0.00000001
 40
0.0
 40
0.0
 40
0.0
 40
0.0
 40
0.2623554864689838
 40
0.5092197675395261
 40
0.7530104389005658
 40
0.9999999999999999
 40
0.9999999999999999
 40
0.9999999999999999
 40
0.9999999999999999
 10
106.2744984567901
 20
26.03734567901235
 30
0.0
 10
106.2441478479939
 20
26.03888664970986
 30
0.0
 10
106.1852387313451
 20
26.04187760198965
 30
0.0
 10
106.1002895609036
 20
26.06353206451867
 30
0.0
 10
106.0226833246845
 20
26.10054459127898
 30
0.0
 10
105.9778231829344
 20
26.13549653837348
 30
0.0
 10
105.9552469135802
 20
26.15308641975309
 30
0.0
  0
SPLINE
  5
78
330
1F
100
AcDbEntity
  8
0
  6
Continuous
 62
     7
370
    25
100
AcDbSpline
210
0.0
220
0.0
230
1.0
 70
     8
 71
     3
 72
    11
 73
     7
 74
     0
 42
0.000000001
 43
0.00000001
 40
0.0
 40
0.0
 40
0.0
 40
0.0
 40
0.2082558556774557
 40
0.5023563276825965
 40
0.7917441443225443
 40
1.0
 40
1.0
 40
1.0
 40
1.0
 10
106.4780092592592
 20
26.05084876543211
 30
0.0
 10
106.4638568130246
 20
26.05030702105858
 30
0.0
 10
106.4297181767061
 20
26.04900022124187
 30
0.0
 10
106.3760884668606
 20
26.04415475830026
 30
0.0
 10
106.3224713365784
 20
26.0391560359455
 30
0.0
 10
106.2886515093612
 20
26.03787977404606
 30
0.0
 10
106.2744984567901
 20
26.03734567901236
 30
0.0
  0
SPLINE
  5
7A
330
1F
100
AcDbEntity
  8
0
  6
Continuous
 62
     7
370
    25
100
AcDbSpline
210
0.0
220
0.0
230
1.0
 70
     8
 71
     3
 72
    15
 73
    11
 74
     0
 42
0.000000001
 43
0.00000001
 40
0.0
 40
0.0
 40
0.0
 40
0.0
 40
0.1591883202282189
 40
0.3093105737188294
 40
0.4491235011631592
 40
0.5787308415214918
 40
0.6981351203773899
 40
0.808539656162247
 40
0.9087183453621804
 40
1.0
 40
1.0
 40
1.0
 40
1.0
 10
108.5246913580246
 20
26.09907407407408
 30
0.0
 10
108.4845121184024
 20
26.09512580304645
 30
0.0
 10
108.4064419205305
 20
26.08745412226608
 30
0.0
 10
108.2929427654441
 20
26.07779891719372
 30
0.0
 10
108.1868051501406
 20
26.07027823491146
 30
0.0
 10
108.0884246597011
 20
26.06354184730805
 30
0.0
 10
107.9974742781211
 20
26.0574335943375
 30
0.0
 10
107.9138675283577
 20
26.05352575191188
 30
0.0
 10
107.837327397835
 20
26.05171172536955
 30
0.0
 10
107.7887737134955
 20
26.05112736716584
 30
0.0
 10
107.7656249999999
 20
26.0508487654321
 30
0.0
  0
SPLINE
  5
7B
330
1F
100
AcDbEntity
  8
0
  6
Continuous
 62
     7
370
    25
100
AcDbSpline
210
0.0
220
0.0
230
1.0
 70
     8
 71
     3
 72
    15
 73
    11
 74
     0
 42
0.000000001
 43
0.00000001
 40
0.0
 40
0.0
 40
0.0
 40
0.0
 40
0.1428526908306143
 40
0.2803330326257141
 40
0.4133365629577346
 40
0.5407248689548346
 40
0.6629577641273827
 40
0.7800824552186281
 40
0.8921447191290266
 40
1.0
 40
1.0
 40
1.0
 40
1.0
 10
107.3557098765431
 20
24.76323302469136
 30
0.0
 10
107.4068435693345
 20
24.8306653383357
 30
0.0
 10
107.5071879386719
 20
24.9629939971168
 30
0.0
 10
107.6603638386757
 20
25.15404508180497
 30
0.0
 10
107.81008622195
 20
25.33608466983219
 30
0.0
 10
107.957937500825
 20
25.50790891366156
 30
0.0
 10
108.1026182615115
 20
25.66998917842652
 30
0.0
 10
108.2440550770207
 20
25.82276917233874
 30
0.0
 10
108.3843283501609
 20
25.96490498046812
 30
0.0
 10
108.4785042111588
 20
26.05492506554577
 30
0.0
 10
108.5246913580246
 20
26.09907407407408
 30
0.0
  0
SPLINE
  5
7C
330
1F
100
AcDbEntity
  8
0
  6
Continuous
 62
     7
370
    25
100
AcDbSpline
210
0.0
220
0.0
230
1.0
 70
     8
 71
     3
 72
     9
 73
     5
 74
     0
 42
0.000000001
 43
0.00000001
 40
0.0
 40
0.0
 40
0.0
 40
0.0
 40
0.5000585649813133
 40
1.0
 40
1.0
 40
1.0
 40
1.0
 10
106.3072916666666
 20
23.33287037037038
 30
0.0
 10
106.4817766537755
 20
23.57149132666669
 30
0.0
 10
106.8307057579403
 20
24.04867734647864
 30
0.0
 10
107.1807221694786
 20
24.52506639843108
 30
0.0
 10
107.3557098765432
 20
24.76323302469137
 30
0.0
  0
SPLINE
  5
7D
330
1F
100
AcDbEntity
  8
0
  6
Continuous
 62
     7
370
    25
100
AcDbSpline
210
0.0
220
0.0
230
1.0
 70
     8
 71
     3
 72
    15
 73
    11
 74
     0
 42
0.000000001
 43
0.00000001
 40
0.0
 40
0.0
 40
0.0
 40
0.0
 40
0.0581545404467345
 40
0.1351220955155237
 40
0.2313315393515145
 40
0.3476940195779096
 40
0.4829487527970727
 40
0.6361719456393883
 40
0.8086300067053506
 40
1.0
 40
1.0
 40
1.0
 40
1.0
 10
105.9475308641975
 20
22.83807870370371
 30
0.0
 10
105.953874101426
 20
22.84810364805467
 30
0.0
 10
105.9686126153939
 20
22.87139660983757
 30
0.0
 10
105.996252106043
 20
22.90965582950785
 30
0.0
 10
106.029780436169
 20
22.95826277308427
 30
0.0
 10
106.0711617888869
 20
23.01589116198315
 30
0.0
 10
106.1204131289987
 20
23.08216259396532
 30
0.0
 10
106.1766436789251
 20
23.15750079357108
 30
0.0
 10
106.2389497806584
 20
23.24258318526356
 30
0.0
 10
106.2837350523695
 20
23.30174947921909
 30
0.0
 10
106.3072916666666
 20
23.33287037037038
 30
0.0
  0
SPLINE
  5
7E
330
1F
100
AcDbEntity
  8
0
  6
Continuous
 62
     7
370
    25
100
AcDbSpline
210
0.0
220
0.0
230
1.0
 70
     8
 71
     3
 72
    11
 73
     7
 74
     0
 42
0.000000001
 43
0.00000001
 40
0.0
 40
0.0
 40
0.0
 40
0.0
 40
0.2064378569239154
 40
0.4380816566401449
 40
0.7018616606994904
 40
1.0
 40
1.0
 40
1.0
 40
1.0
 10
105.7469135802469
 20
22.2786651234568
 30
0.0
 10
105.7495969633628
 20
22.32006513287153
 30
0.0
 10
105.7552913691192
 20
22.40792006887778
 30
0.0
 10
105.7967979203495
 20
22.54331231664288
 30
0.0
 10
105.8596299309386
 20
22.68961793590706
 30
0.0
 10
105.9170600373402
 20
22.78661483201416
 30
0.0
 10
105.9475308641975
 20
22.83807870370371
 30
0.0
  0
SPLINE
  5
7F
330
1F
100
AcDbEntity
  8
0
  6
Continuous
 62
     7
370
    25
100
AcDbSpline
210
0.0
220
0.0
230
1.0
 70
     8
 71
     3
 72
    11
 73
     7
 74
     0
 42
0.000000001
 43
0.00000001
 40
0.0
 40
0.0
 40
0.0
 40
0.0
 40
0.2458271495888338
 40
0.4856137936654472
 40
0.7329511312508751
 40
1.0
 40
1.0
 40
1.0
 40
1.0
 10
105.8993055555555
 20
21.94783950617285
 30
0.0
 10
105.8758418263062
 20
21.96826506616494
 30
0.0
 10
105.8294909224564
 20
22.00861428589958
 30
0.0
 10
105.7821508207059
 20
22.0892175655976
 30
0.0
 10
105.7516838371763
 20
22.18004364288715
 30
0.0
 10
105.7485437754573
 20
22.24496206141077
 30
0.0
 10
105.7469135802469
 20
22.2786651234568
 30
0.0
  0
SPLINE
  5
80
330
1F
100
AcDbEntity
  8
0
  6
Continuous
 62
     7
370
    25
100
AcDbSpline
210
0.0
220
0.0
230
1.0
 70
     8
 71
     3
 72
    11
 73
     7
 74
     0
 42
0.000000001
 43
0.00000001
 40
0.0
 40
0.0
 40
0.0
 40
0.0
 40
0.2715314496989409
 40
0.5249792481057649
 40
0.7644396061072647
 40
1.0
 40
1.0
 40
1.0
 40
1.0
 10
106.2465277777777
 20
21.83981481481483
 30
0.0
 10
106.2129713386506
 20
21.84100140620029
 30
0.0
 10
106.1480932768216
 20
21.84329556348497
 30
0.0
 10
106.055585376734
 20
21.86400922880989
 30
0.0
 10
105.9713341401647
 20
21.89734688547962
 30
0.0
 10
105.9231833095076
 20
21.93110100742475
 30
0.0
 10
105.8993055555555
 20
21.94783950617285
 30
0.0
  0
SPLINE
  5
81
330
1F
100
AcDbEntity
  8
0
  6
Continuous
 62
     7
370
    25
100
AcDbSpline
210
0.0
220
0.0
230
1.0
 70
     8
 71
     3
 72
    23
 73
    19
 74
     0
 42
0.000000001
 43
0.00000001
 40
0.0
 40
0.0
 40
0.0
 40
0.0
 40
0.0442404478605236
 40
0.093686724338564
 40
0.1483376574812233
 40
0.2081932650110533
 40
0.2732560000516701
 40
0.3438485362512151
 40
0.4193203397786247
 40
0.4999999999999999
 40
0.5806796602213752
 40
0.6561514637487801
 40
0.7267439999483251
 40
0.7918067349889419
 40
0.8516623425187766
 40
0.9063132756614313
 40
0.9557595521394764
 40
1.0
 40
1.0
 40
1.0
 40
1.0
 10
109.2114197530864
 20
21.86296296296297
 30
0.0
 10
109.1676952315185
 20
21.86303629995476
 30
0.0
 10
109.0751010694549
 20
21.86319160359352
 30
0.0
 10
108.9284984555352
 20
21.86187530823112
 30
0.0
 10
108.7664615096088
 20
21.86095770405132
 30
0.0
 10
108.5889876552114
 20
21.8602770732327
 30
0.0
 10
108.3957703739899
 20
21.85798608742122
 30
0.0
 10
108.1871151191108
 20
21.85611796296837
 30
0.0
 10
107.9630222363797
 20
21.85444583946043
 30
0.0
 10
107.7289737654321
 20
21.8513888888889
 30
0.0
 10
107.4949252944844
 20
21.84833193831736
 30
0.0
 10
107.2708324117532
 20
21.84665981480941
 30
0.0
 10
107.0621771568742
 20
21.84479169035657
 30
0.0
 10
106.8689598756527
 20
21.84250070454509
 30
0.0
 10
106.6914860212553
 20
21.84182007372648
 30
0.0
 10
106.5294490753289
 20
21.84090246954668
 30
0.0
 10
106.3828464614091
 20
21.83958617418427
 30
0.0
 10
106.2902522993456
 20
21.83974147782303
 30
0.0
 10
106.2465277777777
 20
21.83981481481482
 30
0.0
  0
SPLINE
  5
82
330
1F
100
AcDbEntity
  8
0
  6
Continuous
 62
     7
370
    25
100
AcDbSpline
210
0.0
220
0.0
230
1.0
 70
     8
 71
     3
 72
    15
 73
    11
 74
     0
 42
0.000000001
 43
0.00000001
 40
0.0
 40
0.0
 40
0.0
 40
0.0
 40
0.093943779754294
 40
0.2084164404176461
 40
0.3435044010424437
 40
0.5008526211578478
 40
0.6564955989575316
 40
0.791583559582329
 40
0.9060562202457059
 40
0.9999999999999999
 40
0.9999999999999999
 40
0.9999999999999999
 40
0.9999999999999999
 10
109.7756558641975
 20
21.83981481481482
 30
0.0
 10
109.757972882706
 20
21.84010733177616
 30
0.0
 10
109.7187427807442
 20
21.84075628739624
 30
0.0
 10
109.6540941162362
 20
21.84253125421475
 30
0.0
 10
109.5776065054294
 20
21.84683160856403
 30
0.0
 10
109.4933750212368
 20
21.85135167732411
 30
0.0
 10
109.4091497211219
 20
21.85598509125717
 30
0.0
 10
109.3329812605164
 20
21.86024214320622
 30
0.0
 10
109.2683328808759
 20
21.86202229779674
 30
0.0
 10
109.2291027483532
 20
21.86267069686675
 30
0.0
 10
109.2114197530864
 20
21.86296296296297
 30
0.0
  0
SPLINE
  5
83
330
1F
100
AcDbEntity
  8
0
  6
Continuous
 62
     7
370
    25
100
AcDbSpline
210
0.0
220
0.0
230
1.0
 70
     8
 71
     3
 72
    11
 73
     7
 74
     0
 42
0.000000001
 43
0.00000001
 40
0.0
 40
0.0
 40
0.0
 40
0.0
 40
0.2433643838527239
 40
0.4853189357497535
 40
0.7360635876784892
 40
1.0
 40
1.0
 40
1.0
 40
1.0
 10
110.1035879629629
 20
21.94783950617285
 30
0.0
 10
110.0803421135617
 20
21.9311541909894
 30
0.0
 10
110.0339850800738
 20
21.89788022016718
 30
0.0
 10
109.9538101882667
 20
21.86427396497228
 30
0.0
 10
109.8670761756682
 20
21.84339218387567
 30
0.0
 10
109.8066455988861
 20
21.84102747441197
 30
0.0
 10
109.7756558641975
 20
21.83981481481482
 30
0.0
  0
SPLINE
  5
84
330
1F
100
AcDbEntity
  8
0
  6
Continuous
 62
     7
370
    25
100
AcDbSpline
210
0.0
220
0.0
230
1.0
 70
     8
 71
     3
 72
    11
 73
     7
 74
     0
 42
0.000000001
 43
0.00000001
 40
0.0
 40
0.0
 40
0.0
 40
0.0
 40
0.2660888217250799
 40
0.509616689715199
 40
0.7489311756363538
 40
0.9999999999999999
 40
0.9999999999999999
 40
0.9999999999999999
 40
0.9999999999999999
 10
110.253086419753
 20
22.29023919753087
 30
0.0
 10
110.252916280113
 20
22.25560439221783
 30
0.0
 10
110.2525904265143
 20
22.18927137334791
 30
0.0
 10
110.2236677308342
 20
22.0955741017907
 30
0.0
 10
110.1761339447576
 20
22.01168193480768
 30
0.0
 10
110.1281533172324
 20
21.96945768319714
 30
0.0
 10
110.1035879629629
 20
21.94783950617285
 30
0.0
  0
SPLINE
  5
85
330
1F
100
AcDbEntity
  8
0
  6
Continuous
 62
     7
370
    25
100
AcDbSpline
210
0.0
220
0.0
230
1.0
 70
     8
 71
     3
 72
    15
 73
    11
 74
     0
 42
0.000000001
 43
0.00000001
 40
0.0
 40
0.0
 40
0.0
 40
0.0
 40
0.1593485127528275
 40
0.3018687522372205
 40
0.4316536243809118
 40
0.5505378037009657
 40
0.66297475932268
 40
0.7720746985152307
 40
0.8835371630347607
 40
1.0
 40
1.0
 40
1.0
 40
1.0
 10
109.8470293209876
 20
22.66832561728395
 30
0.0
 10
109.8780776109259
 20
22.66061111712807
 30
0.0
 10
109.9368952828381
 20
22.64599681984997
 30
0.0
 10
110.0181668151235
 20
22.61517640186731
 30
0.0
 10
110.0871591212557
 20
22.57737101140753
 30
0.0
 10
110.1459105321492
 20
22.5342150848035
 30
0.0
 10
110.1907228997092
 20
22.48194869451056
 30
0.0
 10
110.2244445562715
 20
22.42388096167305
 30
0.0
 10
110.2461891501383
 20
22.35916651474145
 30
0.0
 10
110.2507539480534
 20
22.31354856858783
 30
0.0
 10
110.253086419753
 20
22.29023919753087
 30
0.0
  0
SPLINE
  5
86
330
1F
100
AcDbEntity
  8
0
  6
Continuous
 62
     7
370
    25
100
AcDbSpline
210
0.0
220
0.0
230
1.0
 70
     8
 71
     3
 72
    15
 73
    11
 74
     0
 42
0.000000001
 43
0.00000001
 40
0.0
 40
0.0
 40
0.0
 40
0.0
 40
0.1757837811398192
 40
0.3379302215663405
 40
0.4849866516260195
 40
0.6169588552180248
 40
0.7338843162363885
 40
0.8374706747961363
 40
0.9259970781167938
 40
1.0
 40
1.0
 40
1.0
 40
1.0
 10
109.2123842592592
 20
22.70401234567902
 30
0.0
 10
109.2496777523628
 20
22.703645812558
 30
0.0
 10
109.3213715019555
 20
22.7029411820284
 30
0.0
 10
109.4242759431334
 20
22.7026464460021
 30
0.0
 10
109.5178397998656
 20
22.69950422058911
 30
0.0
 10
109.6017488294011
 20
22.69562669313214
 30
0.0
 10
109.6764498619726
 20
22.69143160207744
 30
0.0
 10
109.7415869594183
 20
22.68394744255083
 30
0.0
 10
109.7978222772028
 20
22.67833650766199
 30
0.0
 10
109.8316341050619
 20
22.67145768552307
 30
0.0
 10
109.8470293209876
 20
22.66832561728395
 30
0.0
  0
SPLINE
  5
87
330
1F
100
AcDbEntity
  8
0
  6
Continuous
 62
     7
370
    25
100
AcDbSpline
210
0.0
220
0.0
230
1.0
 70
     8
 71
     3
 72
    15
 73
    11
 74
     0
 42
0.000000001
 43
0.00000001
 40
0.0
 40
0.0
 40
0.0
 40
0.0
 40
0.1530372084610717
 40
0.2984734029971141
 40
0.4354124610216124
 40
0.5639038104425628
 40
0.6847718734718322
 40
0.7980205515756785
 40
0.9028197939412292
 40
1.0
 40
1.0
 40
1.0
 40
1.0
 10
108.0713734567901
 20
22.67797067901235
 30
0.0
 10
108.1295676926087
 20
22.67982394485284
 30
0.0
 10
108.2430657874464
 20
22.68343842898797
 30
0.0
 10
108.4085972599756
 20
22.68997217729597
 30
0.0
 10
108.5648876264097
 20
22.69309375455104
 30
0.0
 10
108.7117945725661
 20
22.69736743769765
 30
0.0
 10
108.8497218534555
 20
22.70033313742944
 30
0.0
 10
108.9786555646976
 20
22.70179540088493
 30
0.0
 10
109.0985632561512
 20
22.70450321150092
 30
0.0
 10
109.1754101941736
 20
22.70417180047516
 30
0.0
 10
109.2123842592592
 20
22.70401234567902
 30
0.0
  0
SPLINE
  5
88
330
1F
100
AcDbEntity
  8
0
  6
Continuous
 62
     7
370
    25
100
AcDbSpline
210
0.0
220
0.0
230
1.0
 70
     8
 71
     3
 72
    15
 73
    11
 74
     0
 42
0.000000001
 43
0.00000001
 40
0.0
 40
0.0
 40
0.0
 40
0.0
 40
0.0611321662859837
 40
0.1406755058310065
 40
0.2378383079252172
 40
0.3542451593380922
 40
0.4882485943038881
 40
0.6406858967638563
 40
0.8106940101347393
 40
1.0
 40
1.0
 40
1.0
 40
1.0
 10
106.9197530864197
 20
22.64228395061729
 30
0.0
 10
106.943221341762
 20
22.64298135432164
 30
0.0
 10
106.9972257864239
 20
22.64458619878957
 30
0.0
 10
107.0885678855635
 20
22.64583839703489
 30
0.0
 10
107.2010483676104
 20
22.65062613220598
 30
0.0
 10
107.3345004892729
 20
22.65385177023213
 30
0.0
 10
107.4891381800025
 20
22.65885266274925
 30
0.0
 10
107.6643371910944
 20
22.66493199558619
 30
0.0
 10
107.8608150743376
 20
22.67011190050221
 30
0.0
 10
107.9987185111988
 20
22.67525894121109
 30
0.0
 10
108.0713734567901
 20
22.67797067901235
 30
0.0
  0
SPLINE
  5
8A
330
1F
100
AcDbEntity
  8
0
  6
Continuous
 62
     7
370
    25
100
AcDbSpline
210
0.0
220
0.0
230
1.0
 70
     8
 71
     3
 72
     9
 73
     5
 74
     0
 42
0.000000001
 43
0.00000001
 40
0.0
 40
0.0
 40
0.0
 40
0.0
 40
0.499799819594863
 40
1.0
 40
1.0
 40
1.0
 40
1.0
 10
108.083912037037
 20
24.21635802469137
 30
0.0
 10
107.8919369174229
 20
23.95693424755786
 30
0.0
 10
107.5078328979982
 20
23.43787888386488
 30
0.0
 10
107.124189942312
 20
22.91848264695808
 30
0.0
 10
106.9322916666666
 20
22.65868055555556
 30
0.0
  0
SPLINE
  5
8B
330
1F
100
AcDbEntity
  8
0
  6
Continuous
 62
     7
370
    25
100
AcDbSpline
210
0.0
220
0.0
230
1.0
 70
     8
 71
     3
 72
    15
 73
    11
 74
     0
 42
0.000000001
 43
0.00000001
 40
0.0
 40
0.0
 40
0.0
 40
0.0
 40
0.0933538520506621
 40
0.1954694860658787
 40
0.3063064642453375
 40
0.4260282984385865
 40
0.5555092094638051
 40
0.6944953273293412
 40
0.8423684233513041
 40
0.9999999999999999
 40
0.9999999999999999
 40
0.9999999999999999
 40
0.9999999999999999
 10
109.3850308641975
 20
25.62067901234569
 30
0.0
 10
109.3375953211114
 20
25.58430724466888
 30
0.0
 10
109.2382721434961
 20
25.50815001517143
 30
0.0
 10
109.092857676533
 20
25.37642301799496
 30
0.0
 10
108.9390697956511
 20
25.22913639046185
 30
0.0
 10
108.7798919707256
 20
25.06238916935665
 30
0.0
 10
108.614353104012
 20
24.87706414370149
 30
0.0
 10
108.4421861310499
 20
24.67363762722197
 30
0.0
 10
108.2630332298055
 20
24.45257605156671
 30
0.0
 10
108.144877154902
 20
24.29675643890301
 30
0.0
 10
108.083912037037
 20
24.21635802469136
 30
0.0
  0
SPLINE
  5
8C
330
1F
100
AcDbEntity
  8
0
  6
Continuous
 62
     7
370
    25
100
AcDbSpline
210
0.0
220
0.0
230
1.0
 70
     8
 71
     3
 72
    11
 73
     7
 74
     0
 42
0.000000001
 43
0.00000001
 40
0.0
 40
0.0
 40
0.0
 40
0.0
 40
0.2138429008020936
 40
0.4517288251294371
 40
0.7141052906498152
 40
1.0
 40
1.0
 40
1.0
 40
1.0
 10
109.8238811728394
 20
25.90520833333334
 30
0.0
 10
109.7923907474069
 20
25.88524910323209
 30
0.0
 10
109.7258693299078
 20
25.84308656461002
 30
0.0
 10
109.6203554219924
 20
25.77698727026888
 30
0.0
 10
109.5059628965929
 20
25.70146555061945
 30
0.0
 10
109.4264780498315
 20
25.64836708292743
 30
0.0
 10
109.3850308641975
 20
25.62067901234569
 30
0.0
  0
SPLINE
  5
8D
330
1F
100
AcDbEntity
  8
0
  6
Continuous
 62
     7
370
    25
100
AcDbSpline
210
0.0
220
0.0
230
1.0
 70
     8
 71
     3
 72
    15
 73
    11
 74
     0
 42
0.000000001
 43
0.00000001
 40
0.0
 40
0.0
 40
0.0
 40
0.0
 40
0.0929235223832883
 40
0.1893588784488731
 40
0.2948024217125372
 40
0.4096856341923497
 40
0.5362664102225293
 40
0.6762558781479932
 40
0.830679272783894
 40
1.0
 40
1.0
 40
1.0
 40
1.0
 10
110.253086419753
 20
26.47716049382717
 30
0.0
 10
110.2517584785275
 20
26.45418583476559
 30
0.0
 10
110.2490524095511
 20
26.40736824153336
 30
0.0
 10
110.2269463021037
 20
26.33735119677916
 30
0.0
 10
110.1925934762615
 20
26.26700027929084
 30
0.0
 10
110.1460711292115
 20
26.19473130279608
 30
0.0
 10
110.0836549289267
 20
26.12398931115553
 30
0.0
 10
110.0106601968796
 20
26.04989801239938
 30
0.0
 10
109.9218740294806
 20
25.97736974148346
 30
0.0
 10
109.8575323685793
 20
25.9299888913634
 30
0.0
 10
109.8238811728394
 20
25.90520833333334
 30
0.0
  0
SPLINE
  5
8E
330
1F
100
AcDbEntity
  8
0
  6
Continuous
 62
     7
370
    25
100
AcDbSpline
210
0.0
220
0.0
230
1.0
 70
     8
 71
     3
 72
    23
 73
    19
 74
     0
 42
0.000000001
 43
0.00000001
 40
0.0
 40
0.0
 40
0.0
 40
0.0
 40
0.100611595681165
 40
0.1946502751756652
 40
0.2830279498630803
 40
0.3642872799736849
 40
0.44028535018069
 40
0.5102652435127323
 40
0.5744491991096853
 40
0.6334249752558136
 40
0.6880819676527171
 40
0.7385848926392691
 40
0.7845749617408606
 40
0.828701186460356
 40
0.8709140491791768
 40
0.9130613639349761
 40
0.9558111626562926
 40
1.0
 40
1.0
 40
1.0
 40
1.0
 10
109.2895447530864
 20
26.90154320987655
 30
0.0
 10
109.3284526410295
 20
26.90113591732068
 30
0.0
 10
109.403726579817
 20
26.90034794047229
 30
0.0
 10
109.5130771493065
 20
26.89535370560814
 30
0.0
 10
109.614814072901
 20
26.88818733132415
 30
0.0
 10
109.7091432771795
 20
26.87661253067943
 30
0.0
 10
109.7957050694654
 20
26.86123389797918
 30
0.0
 10
109.874922664947
 20
26.84298901388869
 30
0.0
 10
109.9467802445619
 20
26.82229565528629
 30
0.0
 10
110.0107282413396
 20
26.79679593296549
 30
0.0
 10
110.0680320096578
 20
26.76934857201522
 30
0.0
 10
110.1175216612637
 20
26.737809960699
 30
0.0
 10
110.1585428392314
 20
26.70197743240689
 30
0.0
 10
110.1942040377813
 20
26.66500667256081
 30
0.0
 10
110.2206674976732
 20
26.6224896655276
 30
0.0
 10
110.2387098189914
 20
26.57662764184419
 30
0.0
 10
110.2510485710244
 20
26.52795271325969
 30
0.0
 10
110.2523996821559
 20
26.49427703748109
 30
0.0
 10
110.253086419753
 20
26.47716049382717
 30
0.0
  0
CIRCLE
  5
8F
330
1F
100
AcDbEntity
  8
0
  6
Continuous
 62
     7
370
    25
100
AcDbCircle
 10
0.0
 20
53.675
 30
0.0
 40
3.400000000000011
  0
CIRCLE
  5
90
330
1F
100
AcDbEntity
  8
0
  6
Continuous
 62
     7
370
    25
100
AcDbCircle
 10
0.0
 20
19.675
 30
0.0
 40
3.400000000000001
  0
CIRCLE
  5
95
330
1F
100
AcDbEntity
  8
0
  6
Continuous
 62
     7
370
    25
100
AcDbCircle
 10
118.0
 20
22.025
 30
0.0
 40
3.400000000000006
  0
CIRCLE
  5
96
330
1F
100
AcDbEntity
  8
0
  6
Continuous
 62
     7
370
    25
100
AcDbCircle
 10
-6.0
 20
2.175
 30
0.0
 40
1.181100000000002
  0
LINE
  5
EB
330
1F
100
AcDbEntity
  8
0
  6
Continuous
 62
     7
370
    25
100
AcDbLine
 10
107.7984182099
 20
26.9015432099
 30
0.0
 11
109.2895447531
 21
26.9015432099
 31
0.0
  0
LINE
  5
EC
330
1F
100
AcDbEntity
  8
0
  6
Continuous
 62
     7
370
    25
100
AcDbLine
 10
107.765625
 20
26.0508487654
 30
0.0
 11
106.4780092593
 21
26.0508487654
 31
0.0
  0
LINE
  5
ED
330
1F
100
AcDbEntity
  8
0
  6
Continuous
 62
     7
370
    25
100
AcDbLine
 10
106.9322916667
 20
22.6586805556
 30
0.0
 11
106.9197530864
 21
22.6422839506
 31
0.0
  0
LINE
  5
EE
330
1F
100
AcDbEntity
  8
0
  6
Continuous
 62
     7
370
    25
100
AcDbLine
 10
-7.5
 20
-58.675
 30
0.0
 11
7.5
 21
-58.675
 31
0.0
  0
LINE
  5
EF
330
1F
100
AcDbEntity
  8
0
  6
Continuous
 62
     7
370
    25
100
AcDbLine
 10
7.5
 20
-58.675
 30
0.0
 11
7.5
 21
-51.675
 31
0.0
  0
LINE
  5
F0
330
1F
100
AcDbEntity
  8
0
  6
Continuous
 62
     7
370
    25
100
AcDbLine
 10
7.5
 20
-51.675
 30
0.0
 11
-7.5
 21
-51.675
 31
0.0
  0
LINE
  5
F1
330
1F
100
AcDbEntity
  8
0
  6
Continuous
 62
     7
370
    25
100
AcDbLine
 10
-7.5
 20
-51.675
 30
0.0
 11
-7.5
 21
-58.675
 31
0.0
  0
LINE
  5
F2
330
1F
100
AcDbEntity
  8
0
  6
Continuous
 62
     7
370
    25
100
AcDbLine
 10
-18.5
 20
-5.175
 30
0.0
 11
-18.5
 21
-7.675
 31
0.0
  0
LINE
  5
F3
330
1F
100
AcDbEntity
  8
0
  6
Continuous
 62
     7
370
    25
100
AcDbLine
 10
-12.5
 20
-7.675
 30
0.0
 11
-12.5
 21
-5.175
 31
0.0
  0
LINE
  5
F4
330
1F
100
AcDbEntity
  8
0
  6
Continuous
 62
     7
370
    25
100
AcDbLine
 10
12.5
 20
-5.175
 30
0.0
 11
12.5
 21
-7.675
 31
0.0
  0
LINE
  5
F5
330
1F
100
AcDbEntity
  8
0
  6
Continuous
 62
     7
370
    25
100
AcDbLine
 10
18.5
 20
-7.675
 30
0.0
 11
18.5
 21
-5.175
 31
0.0
  0
LINE
  5
F6
330
1F
100
AcDbEntity
  8
0
  6
Continuous
 62
     7
370
    25
100
AcDbLine
 10
12.5
 20
-36.175
 30
0.0
 11
12.5
 21
-38.675
 31
0.0
  0
LINE
  5
F7
330
1F
100
AcDbEntity
  8
0
  6
Continuous
 62
     7
370
    25
100
AcDbLine
 10
18.5
 20
-38.675
 30
0.0
 11
18.5
 21
-36.175
 31
0.0
  0
LINE
  5
F8
330
1F
100
AcDbEntity
  8
0
  6
Continuous
 62
     7
370
    25
100
AcDbLine
 10
-18.5
 20
-36.175
 30
0.0
 11
-18.5
 21
-38.675
 31
0.0
  0
LINE
  5
F9
330
1F
100
AcDbEntity
  8
0
  6
Continuous
 62
     7
370
    25
100
AcDbLine
 10
-12.5
 20
-38.675
 30
0.0
 11
-12.5
 21
-36.175
 31
0.0
  0
LINE
  5
FA
330
1F
100
AcDbEntity
  8
0
  6
Continuous
 62
     7
370
    25
100
AcDbLine
 10
1.5
 20
-3.5
 30
0.0
 11
1.5
 21
-10.5
 31
0.0
  0
LINE
  5
FB
330
1F
100
AcDbEntity
  8
0
  6
Continuous
 62
     7
370
    25
100
AcDbLine
 10
5.5
 20
-10.5
 30
0.0
 11
5.5
 21
-3.5
 31
0.0
  0
LINE
  5
FC
330
1F
100
AcDbEntity
  8
0
  6
Continuous
 62
     7
370
    25
100
AcDbLine
 10
-5.5
 20
-3.5
 30
0.0
 11
-5.5
 21
-10.5
 31
0.0
  0
LINE
  5
FD
330
1F
100
AcDbEntity
  8
0
  6
Continuous
 62
     7
370
    25
100
AcDbLine
 10
-1.5
 20
-10.5
 30
0.0
 11
-1.5
 21
-3.5
 31
0.0
  0
LINE
  5
FE
330
1F
100
AcDbEntity
  8
0
  6
Continuous
 62
     7
370
    25
100
AcDbLine
 10
-25.6120580695
 20
41.1929419305
 30
0.0
 11
-25.5894736842
 21
41.170416276
 31
0.0
  0
LINE
  5
FF
330
1F
100
AcDbEntity
  8
0
  6
Continuous
 62
     7
370
    25
100
AcDbLine
 10
-25.6120580695
 20
41.1929419305
 30
0.0
 11
-36.2186597873
 21
51.7995436483
 31
0.0
  0
LINE
  5
100
330
1F
100
AcDbEntity
  8
0
  6
Continuous
 62
     7
370
    25
100
AcDbLine
 10
-18.8945436483
 20
69.1236597873
 30
0.0
 11
-16.0316702986
 21
66.2607864376
 31
0.0
  0
LINE
  5
101
330
1F
100
AcDbEntity
  8
0
  6
Continuous
 62
     7
370
    25
100
AcDbLine
 10
9.8715728753
 20
65.675
 30
0.0
 11
-14.6174567362
 21
65.675
 31
0.0
  0
LINE
  5
102
330
1F
100
AcDbEntity
  8
0
  6
Continuous
 62
     7
370
    25
100
AcDbLine
 10
12.1142135624
 20
64.2607864376
 30
0.0
 11
11.2857864376
 21
65.0892135624
 31
0.0
  0
LINE
  5
103
330
1F
100
AcDbEntity
  8
0
  6
Continuous
 62
     7
370
    25
100
AcDbLine
 10
12.7
 20
62.8465728753
 30
0.0
 11
12.7
 21
51.4334271247
 31
0.0
  0
LINE
  5
104
330
1F
100
AcDbEntity
  8
0
  6
Continuous
 62
     7
370
    25
100
AcDbLine
 10
17.1142135624
 20
46.1907864376
 30
0.0
 11
13.2857864376
 21
50.0192135624
 31
0.0
  0
LINE
  5
105
330
1F
100
AcDbEntity
  8
0
  6
Continuous
 62
     7
370
    25
100
AcDbLine
 10
18.5284271247
 20
45.605
 30
0.0
 11
52.1715728753
 21
45.605
 31
0.0
  0
LINE
  5
106
330
1F
100
AcDbEntity
  8
0
  6
Continuous
 62
     7
370
    25
100
AcDbLine
 10
54.4142135624
 20
44.1907864376
 30
0.0
 11
53.5857864376
 21
45.0192135624
 31
0.0
  0
LINE
  5
107
330
1F
100
AcDbEntity
  8
0
  6
Continuous
 62
     7
370
    25
100
AcDbLine
 10
55.0
 20
35.225
 30
0.0
 11
55.0
 21
42.7765728753
 31
0.0
  0
LINE
  5
108
330
1F
100
AcDbEntity
  8
0
  6
Continuous
 62
     7
370
    25
100
AcDbLine
 10
115.0
 20
34.725
 30
0.0
 11
55.5
 21
34.725
 31
0.0
  0
LINE
  5
109
330
1F
100
AcDbEntity
  8
0
  6
Continuous
 62
     7
370
    25
100
AcDbLine
 10
115.0
 20
38.7765728753
 30
0.0
 11
115.0
 21
34.725
 31
0.0
  0
LINE
  5
10A
330
1F
100
AcDbEntity
  8
0
  6
Continuous
 62
     7
370
    25
100
AcDbLine
 10
116.4142135624
 20
41.0192135624
 30
0.0
 11
115.5857864376
 21
40.1907864376
 31
0.0
  0
LINE
  5
10B
330
1F
100
AcDbEntity
  8
0
  6
Continuous
 62
     7
370
    25
100
AcDbLine
 10
127.1715728753
 20
41.605
 30
0.0
 11
117.8284271247
 21
41.605
 31
0.0
  0
LINE
  5
10C
330
1F
100
AcDbEntity
  8
0
  6
Continuous
 62
     7
370
    25
100
AcDbLine
 10
129.4142135624
 20
40.1907864376
 30
0.0
 11
128.5857864376
 21
41.0192135624
 31
0.0
  0
LINE
  5
10D
330
1F
100
AcDbEntity
  8
0
  6
Continuous
 62
     7
370
    25
100
AcDbLine
 10
130.0
 20
12.1534271247
 30
0.0
 11
130.0
 21
38.7765728753
 31
0.0
  0
LINE
  5
10E
330
1F
100
AcDbEntity
  8
0
  6
Continuous
 62
     7
370
    25
100
AcDbLine
 10
128.5857864376
 20
9.9107864376
 30
0.0
 11
129.4142135624
 21
10.7392135624
 31
0.0
  0
LINE
  5
10F
330
1F
100
AcDbEntity
  8
0
  6
Continuous
 62
     7
370
    25
100
AcDbLine
 10
118.0
 20
9.325
 30
0.0
 11
127.1715728753
 21
9.325
 31
0.0
  0
LINE
  5
110
330
1F
100
AcDbEntity
  8
0
  6
Continuous
 62
     7
370
    25
100
AcDbLine
 10
118.0
 20
5.2734271247
 30
0.0
 11
118.0
 21
9.325
 31
0.0
  0
LINE
  5
111
330
1F
100
AcDbEntity
  8
0
  6
Continuous
 62
     7
370
    25
100
AcDbLine
 10
116.5857864376
 20
3.0307864376
 30
0.0
 11
117.4142135624
 21
3.8592135624
 31
0.0
  0
LINE
  5
112
330
1F
100
AcDbEntity
  8
0
  6
Continuous
 62
     7
370
    25
100
AcDbLine
 10
86.8284271247
 20
2.445
 30
0.0
 11
115.1715728753
 21
2.445
 31
0.0
  0
LINE
  5
113
330
1F
100
AcDbEntity
  8
0
  6
Continuous
 62
     7
370
    25
100
AcDbLine
 10
84.5857864376
 20
3.8592135624
 30
0.0
 11
85.4142135624
 21
3.0307864376
 31
0.0
  0
LINE
  5
114
330
1F
100
AcDbEntity
  8
0
  6
Continuous
 62
     7
370
    25
100
AcDbLine
 10
84.0
 20
9.325
 30
0.0
 11
84.0
 21
5.2734271247
 31
0.0
  0
LINE
  5
115
330
1F
100
AcDbEntity
  8
0
  6
Continuous
 62
     7
370
    25
100
AcDbLine
 10
46.8284271247
 20
9.325
 30
0.0
 11
84.0
 21
9.325
 31
0.0
  0
LINE
  5
116
330
1F
100
AcDbEntity
  8
0
  6
Continuous
 62
     7
370
    25
100
AcDbLine
 10
25.5857864376
 20
-11.0892135624
 30
0.0
 11
45.4142135624
 21
8.7392135624
 31
0.0
  0
LINE
  5
117
330
1F
100
AcDbEntity
  8
0
  6
Continuous
 62
     7
370
    25
100
AcDbLine
 10
25.0
 20
-62.8465728753
 30
0.0
 11
25.0
 21
-12.5034271247
 31
0.0
  0
LINE
  5
118
330
1F
100
AcDbEntity
  8
0
  6
Continuous
 62
     7
370
    25
100
AcDbLine
 10
23.5857864376
 20
-65.0892135624
 30
0.0
 11
24.4142135624
 21
-64.2607864376
 31
0.0
  0
LINE
  5
119
330
1F
100
AcDbEntity
  8
0
  6
Continuous
 62
     7
370
    25
100
AcDbLine
 10
-22.1715728753
 20
-65.675
 30
0.0
 11
22.1715728753
 21
-65.675
 31
0.0
  0
LINE
  5
11A
330
1F
100
AcDbEntity
  8
0
  6
Continuous
 62
     7
370
    25
100
AcDbLine
 10
-24.4142135624
 20
-64.2607864376
 30
0.0
 11
-23.5857864376
 21
-65.0892135624
 31
0.0
  0
LINE
  5
11B
330
1F
100
AcDbEntity
  8
0
  6
Continuous
 62
     7
370
    25
100
AcDbLine
 10
-25.0
 20
39.7525250557
 30
0.0
 11
-25.0
 21
-62.8465728753
 31
0.0
  0
LINE
  5
11C
330
1F
100
AcDbEntity
  8
0
  6
Continuous
 62
     7
370
    25
100
AcDbLine
 10
-19.95520382
 20
46.84979618
 30
0.0
 11
-30.5618055378
 21
57.4563978978
 31
0.0
  0
LINE
  5
11D
330
1F
100
AcDbEntity
  8
0
  6
Continuous
 62
     7
370
    25
100
AcDbLine
 10
-24.5513978978
 20
63.4668055378
 30
0.0
 11
-13.94479618
 21
52.86020382
 31
0.0
  0
ARC
  5
11E
330
1F
100
AcDbEntity
  8
0
  6
Continuous
 62
     7
370
    25
100
AcDbCircle
 10
-15.5
 20
-5.175
 30
0.0
 40
3.000000000000002
100
AcDbArc
 50
0.0
 51
180.0
  0
ARC
  5
11F
330
1F
100
AcDbEntity
  8
0
  6
Continuous
 62
     7
370
    25
100
AcDbCircle
 10
-15.5
 20
-7.675
 30
0.0
 40
3.000000000000002
100
AcDbArc
 50
180.0
 51
0.0
  0
ARC
  5
120
330
1F
100
AcDbEntity
  8
0
  6
Continuous
 62
     7
370
    25
100
AcDbCircle
 10
15.5
 20
-5.175
 30
0.0
 40
3.000000000000002
100
AcDbArc
 50
0.0
 51
180.0
  0
ARC
  5
121
330
1F
100
AcDbEntity
  8
0
  6
Continuous
 62
     7
370
    25
100
AcDbCircle
 10
15.5
 20
-7.675
 30
0.0
 40
3.000000000000002
100
AcDbArc
 50
180.0
 51
0.0
  0
ARC
  5
122
330
1F
100
AcDbEntity
  8
0
  6
Continuous
 62
     7
370
    25
100
AcDbCircle
 10
15.5
 20
-36.175
 30
0.0
 40
2.999999999999995
100
AcDbArc
 50
0.0
 51
180.0
  0
ARC
  5
123
330
1F
100
AcDbEntity
  8
0
  6
Continuous
 62
     7
370
    25
100
AcDbCircle
 10
15.5
 20
-38.675
 30
0.0
 40
2.999999999999998
100
AcDbArc
 50
180.0
 51
0.0
  0
ARC
  5
124
330
1F
100
AcDbEntity
  8
0
  6
Continuous
 62
     7
370
    25
100
AcDbCircle
 10
-15.5
 20
-36.175
 30
0.0
 40
3.000000000000002
100
AcDbArc
 50
0.0
 51
180.0
  0
ARC
  5
125
330
1F
100
AcDbEntity
  8
0
  6
Continuous
 62
     7
370
    25
100
AcDbCircle
 10
-15.5
 20
-38.675
 30
0.0
 40
3.000000000000004
100
AcDbArc
 50
180.0
 51
0.0
  0
ARC
  5
126
330
1F
100
AcDbEntity
  8
0
  6
Continuous
 62
     7
370
    25
100
AcDbCircle
 10
3.5
 20
-10.5
 30
0.0
 40
1.999999999999999
100
AcDbArc
 50
180.0
 51
0.0
  0
ARC
  5
127
330
1F
100
AcDbEntity
  8
0
  6
Continuous
 62
     7
370
    25
100
AcDbCircle
 10
3.5
 20
-3.5
 30
0.0
 40
1.999999999999999
100
AcDbArc
 50
0.0
 51
180.0
  0
ARC
  5
128
330
1F
100
AcDbEntity
  8
0
  6
Continuous
 62
     7
370
    25
100
AcDbCircle
 10
-3.5
 20
-10.5
 30
0.0
 40
1.999999999999999
100
AcDbArc
 50
180.0
 51
0.0
  0
ARC
  5
129
330
1F
100
AcDbEntity
  8
0
  6
Continuous
 62
     7
370
    25
100
AcDbCircle
 10
-3.5
 20
-3.5
 30
0.0
 40
1.999999999999999
100
AcDbArc
 50
0.0
 51
180.0
  0
ARC
  5
12A
330
1F
100
AcDbEntity
  8
0
  6
Continuous
 62
     7
370
    25
100
AcDbCircle
 10
-27.0
 20
39.7525250557
 30
0.0
 40
1.999999999999999
100
AcDbArc
 50
0.0
 51
45.1491919008
  0
ARC
  5
12B
330
1F
100
AcDbEntity
  8
0
  6
Continuous
 62
     7
370
    25
100
AcDbCircle
 10
-27.5566017178
 20
60.4616017178
 30
0.0
 40
12.25
100
AcDbArc
 50
45.0
 51
225.0
  0
ARC
  5
12C
330
1F
100
AcDbEntity
  8
0
  6
Continuous
 62
     7
370
    25
100
AcDbCircle
 10
-14.6174567362
 20
67.675
 30
0.0
 40
2.000000000000014
100
AcDbArc
 50
225.0
 51
270.0
  0
ARC
  5
12D
330
1F
100
AcDbEntity
  8
0
  6
Continuous
 62
     7
370
    25
100
AcDbCircle
 10
9.8715728753
 20
63.675
 30
0.0
 40
2.000000000000114
100
AcDbArc
 50
45.0
 51
90.0
  0
ARC
  5
12E
330
1F
100
AcDbEntity
  8
0
  6
Continuous
 62
     7
370
    25
100
AcDbCircle
 10
10.7
 20
62.8465728753
 30
0.0
 40
1.999999999999859
100
AcDbArc
 50
0.0
 51
45.0
  0
ARC
  5
12F
330
1F
100
AcDbEntity
  8
0
  6
Continuous
 62
     7
370
    25
100
AcDbCircle
 10
14.7
 20
51.4334271247
 30
0.0
 40
2.00000000000002
100
AcDbArc
 50
180.0
 51
225.0
  0
ARC
  5
130
330
1F
100
AcDbEntity
  8
0
  6
Continuous
 62
     7
370
    25
100
AcDbCircle
 10
18.5284271247
 20
47.605
 30
0.0
 40
1.999999999999951
100
AcDbArc
 50
225.0
 51
270.0
  0
ARC
  5
131
330
1F
100
AcDbEntity
  8
0
  6
Continuous
 62
     7
370
    25
100
AcDbCircle
 10
52.1715728753
 20
43.605
 30
0.0
 40
2.000000000000021
100
AcDbArc
 50
45.0
 51
90.0
  0
ARC
  5
132
330
1F
100
AcDbEntity
  8
0
  6
Continuous
 62
     7
370
    25
100
AcDbCircle
 10
53.0
 20
42.7765728753
 30
0.0
 40
1.999999999999996
100
AcDbArc
 50
0.0
 51
45.0
  0
ARC
  5
133
330
1F
100
AcDbEntity
  8
0
  6
Continuous
 62
     7
370
    25
100
AcDbCircle
 10
55.5
 20
35.225
 30
0.0
 40
0.4999999999999929
100
AcDbArc
 50
180.0
 51
270.0
  0
ARC
  5
134
330
1F
100
AcDbEntity
  8
0
  6
Continuous
 62
     7
370
    25
100
AcDbCircle
 10
117.0
 20
38.7765728753
 30
0.0
 40
2.000000000000142
100
AcDbArc
 50
135.0
 51
180.0
  0
ARC
  5
135
330
1F
100
AcDbEntity
  8
0
  6
Continuous
 62
     7
370
    25
100
AcDbCircle
 10
117.8284271247
 20
39.605
 30
0.0
 40
1.999999999999901
100
AcDbArc
 50
90.0
 51
135.0
  0
ARC
  5
136
330
1F
100
AcDbEntity
  8
0
  6
Continuous
 62
     7
370
    25
100
AcDbCircle
 10
127.1715728753
 20
39.605
 30
0.0
 40
1.999999999999993
100
AcDbArc
 50
45.0
 51
90.0
  0
ARC
  5
137
330
1F
100
AcDbEntity
  8
0
  6
Continuous
 62
     7
370
    25
100
AcDbCircle
 10
128.0
 20
38.7765728753
 30
0.0
 40
2.000000000000102
100
AcDbArc
 50
0.0
 51
45.0
  0
ARC
  5
138
330
1F
100
AcDbEntity
  8
0
  6
Continuous
 62
     7
370
    25
100
AcDbCircle
 10
128.0
 20
12.1534271247
 30
0.0
 40
2.000000000000139
100
AcDbArc
 50
315.0
 51
0.0
  0
ARC
  5
139
330
1F
100
AcDbEntity
  8
0
  6
Continuous
 62
     7
370
    25
100
AcDbCircle
 10
127.1715728753
 20
11.325
 30
0.0
 40
2.000000000000087
100
AcDbArc
 50
270.0
 51
315.0
  0
ARC
  5
13A
330
1F
100
AcDbEntity
  8
0
  6
Continuous
 62
     7
370
    25
100
AcDbCircle
 10
116.0
 20
5.2734271247
 30
0.0
 40
2.0
100
AcDbArc
 50
315.0
 51
0.0
  0
ARC
  5
13B
330
1F
100
AcDbEntity
  8
0
  6
Continuous
 62
     7
370
    25
100
AcDbCircle
 10
115.1715728753
 20
4.445
 30
0.0
 40
2.000000000000036
100
AcDbArc
 50
270.0
 51
315.0
  0
ARC
  5
13C
330
1F
100
AcDbEntity
  8
0
  6
Continuous
 62
     7
370
    25
100
AcDbCircle
 10
86.8284271247
 20
4.445
 30
0.0
 40
2.000000000000032
100
AcDbArc
 50
225.0
 51
270.0
  0
ARC
  5
13D
330
1F
100
AcDbEntity
  8
0
  6
Continuous
 62
     7
370
    25
100
AcDbCircle
 10
86.0
 20
5.2734271247
 30
0.0
 40
1.999999999999906
100
AcDbArc
 50
180.0
 51
225.0
  0
ARC
  5
13E
330
1F
100
AcDbEntity
  8
0
  6
Continuous
 62
     7
370
    25
100
AcDbCircle
 10
46.8284271247
 20
7.325
 30
0.0
 40
1.999999999999992
100
AcDbArc
 50
90.0
 51
135.0
  0
ARC
  5
13F
330
1F
100
AcDbEntity
  8
0
  6
Continuous
 62
     7
370
    25
100
AcDbCircle
 10
27.0
 20
-12.5034271247
 30
0.0
 40
2.000000000000021
100
AcDbArc
 50
135.0
 51
180.0
  0
ARC
  5
140
330
1F
100
AcDbEntity
  8
0
  6
Continuous
 62
     7
370
    25
100
AcDbCircle
 10
23.0
 20
-62.8465728753
 30
0.0
 40
1.999999999999984
100
AcDbArc
 50
315.0
 51
0.0
  0
ARC
  5
141
330
1F
100
AcDbEntity
  8
0
  6
Continuous
 62
     7
370
    25
100
AcDbCircle
 10
22.1715728753
 20
-63.675
 30
0.0
 40
2.000000000000006
100
AcDbArc
 50
270.0
 51
315.0
  0
ARC
  5
142
330
1F
100
AcDbEntity
  8
0
  6
Continuous
 62
     7
370
    25
100
AcDbCircle
 10
-22.1715728753
 20
-63.675
 30
0.0
 40
2.000000000000206
100
AcDbArc
 50
225.0
 51
270.0
  0
ARC
  5
143
330
1F
100
AcDbEntity
  8
0
  6
Continuous
 62
     7
370
    25
100
AcDbCircle
 10
-23.0
 20
-62.8465728753
 30
0.0
 40
1.999999999999897
100
AcDbArc
 50
180.0
 51
225.0
  0
ARC
  5
144
330
1F
100
AcDbEntity
  8
0
  6
Continuous
 62
     7
370
    25
100
AcDbCircle
 10
-27.5566017178
 20
60.4616017178
 30
0.0
 40
4.250000000000004
100
AcDbArc
 50
45.0
 51
225.0
  0
ARC
  5
145
330
1F
100
AcDbEntity
  8
0
  6
Continuous
 62
     7
370
    25
100
AcDbCircle
 10
-16.95
 20
49.855
 30
0.0
 40
4.250000000000004
100
AcDbArc
 50
225.0
 51
45.0
  0
ENDSEC
  0
SECTION
  2
OBJECTS
  0
DICTIONARY
  5
C
330
0
100
AcDbDictionary
281
     1
  3
ACAD_GROUP
350
D
  3
ACAD_LAYOUT
350
1A
  3
ACAD_MLINESTYLE
350
17
  3
ACAD_PLOTSETTINGS
350
19
  3
ACAD_PLOTSTYLENAME
350
E
  3
ACAD_SCALELIST
350
47
  0
DICTIONARY
  5
D
102
{ACAD_REACTORS
330
C
102
}
330
C
100
AcDbDictionary
281
     1
  0
DICTIONARY
  5
1A
102
{ACAD_REACTORS
330
C
102
}
330
C
100
AcDbDictionary
281
     1
  3
Layout1
350
1E
  3
Layout2
350
26
  3
Model
350
22
  0
DICTIONARY
  5
17
102
{ACAD_REACTORS
330
C
102
}
330
C
100
AcDbDictionary
281
     1
  3
Standard
350
18
  0
DICTIONARY
  5
19
102
{ACAD_REACTORS
330
C
102
}
330
C
100
AcDbDictionary
281
     1
  0
ACDBDICTIONARYWDFLT
  5
E
102
{ACAD_REACTORS
330
C
102
}
330
C
100
AcDbDictionary
281
     1
  3
Normal
350
F
100
AcDbDictionaryWithDefault
340
F
  0
DICTIONARY
  5
47
102
{ACAD_REACTORS
330
C
102
}
330
C
100
AcDbDictionary
281
     1
  3
A0
350
48
  3
A1
350
49
  3
A2
350
4A
  3
A3
350
4B
  3
A4
350
4C
  3
A5
350
4D
  3
A6
350
4E
  3
A7
350
4F
  3
A8
350
50
  3
A9
350
51
  3
B0
350
52
  3
B1
350
53
  3
B2
350
54
  3
B3
350
55
  3
B4
350
56
  3
B5
350
57
  3
B6
350
58
  3
B7
350
59
  3
B8
350
5A
  3
B9
350
5B
  3
C0
350
5C
  3
C1
350
5D
  3
C2
350
5E
  3
C3
350
5F
  3
C4
350
60
  3
C5
350
61
  3
C6
350
62
  3
C7
350
63
  3
C8
350
64
  3
C9
350
65
  3
D0
350
66
  3
D1
350
67
  3
D2
350
68
  0
LAYOUT
  5
1E
102
{ACAD_REACTORS
330
1A
102
}
330
1A
100
AcDbPlotSettings
  1

  2
none_device
  4

  6

 40
0.0
 41
0.0
 42
0.0
 43
0.0
 44
0.0
 45
0.0
 46
0.0
 47
0.0
 48
0.0
 49
0.0
140
0.0
141
0.0
142
1.0
143
1.0
 70
   688
 72
     1
 73
     0
 74
     5
  7

 75
    16
147
1.0
148
0.0
149
0.0
100
AcDbLayout
  1
Layout1
 70
     1
 71
     1
 10
0.0
 20
0.0
 11
420.0
 21
297.0
 12
0.0
 22
0.0
 32
0.0
 14
1.0000000000E+20
 24
1.0000000000E+20
 34
1.0000000000E+20
 15
-1.0000000000E+20
 25
-1.0000000000E+20
 35
-1.0000000000E+20
146
0.0
 13
0.0
 23
0.0
 33
0.0
 16
1.0
 26
0.0
 36
0.0
 17
0.0
 27
1.0
 37
0.0
 76
     0
330
1B
  0
LAYOUT
  5
26
102
{ACAD_REACTORS
330
1A
102
}
330
1A
100
AcDbPlotSettings
  1

  2
none_device
  4

  6

 40
0.0
 41
0.0
 42
0.0
 43
0.0
 44
0.0
 45
0.0
 46
0.0
 47
0.0
 48
0.0
 49
0.0
140
0.0
141
0.0
142
1.0
143
1.0
 70
   688
 72
     1
 73
     0
 74
     5
  7

 75
    16
147
1.0
148
0.0
149
0.0
100
AcDbLayout
  1
Layout2
 70
     1
 71
     2
 10
0.0
 20
0.0
 11
0.0
 21
0.0
 12
0.0
 22
0.0
 32
0.0
 14
0.0
 24
0.0
 34
0.0
 15
0.0
 25
0.0
 35
0.0
146
0.0
 13
0.0
 23
0.0
 33
0.0
 16
1.0
 26
0.0
 36
0.0
 17
0.0
 27
1.0
 37
0.0
 76
     0
330
23
  0
LAYOUT
  5
22
102
{ACAD_REACTORS
330
1A
102
}
330
1A
100
AcDbPlotSettings
  1

  2
none_device
  4
ANSI_A_(11.00_x_8.50_Inches)
  6

 40
6.35
 41
19.05
 42
6.35000508
 43
19.05000254
 44
279.4
 45
215.9
 46
63.6972026701
 47
83.4659094862
 48
0.0
 49
0.0
140
0.0
141
0.0
142
0.0608079098
143
1.0
 70
  1696
 72
     0
 73
     0
 74
     0
  7

 75
     0
147
0.0179189148
148
-1300.4909072572
149
0.0
100
AcDbLayout
  1
Model
 70
     1
 71
     0
 10
0.0
 20
0.0
 11
420.0
 21
297.0
 12
0.0
 22
0.0
 32
0.0
 14
-39.8066017178
 24
-65.675
 34
0.0
 15
130.0
 25
72.7116017178
 35
0.0
146
0.0
 13
0.0
 23
0.0
 33
0.0
 16
1.0
 26
0.0
 36
0.0
 17
0.0
 27
1.0
 37
0.0
 76
     0
330
1F
331
29
  0
MLINESTYLE
  5
18
102
{ACAD_REACTORS
330
17
102
}
330
17
100
AcDbMlineStyle
  2
Standard
 70
     0
  3

 62
   256
 51
90.0
 52
90.0
 71
     2
 49
0.5
 62
   256
  6
BYLAYER
 49
-0.5
 62
   256
  6
BYLAYER
  0
ACDBPLACEHOLDER
  5
F
102
{ACAD_REACTORS
330
E
102
}
330
E
  0
SCALE
  5
48
102
{ACAD_REACTORS
330
47
102
}
330
47
100
AcDbScale
 70
     0
300
1:1
140
1.0
141
1.0
290
     1
  0
SCALE
  5
49
102
{ACAD_REACTORS
330
47
102
}
330
47
100
AcDbScale
 70
     0
300
1:2
140
1.0
141
2.0
290
     0
  0
SCALE
  5
4A
102
{ACAD_REACTORS
330
47
102
}
330
47
100
AcDbScale
 70
     0
300
1:4
140
1.0
141
4.0
290
     0
  0
SCALE
  5
4B
102
{ACAD_REACTORS
330
47
102
}
330
47
100
AcDbScale
 70
     0
300
1:5
140
1.0
141
5.0
290
     0
  0
SCALE
  5
4C
102
{ACAD_REACTORS
330
47
102
}
330
47
100
AcDbScale
 70
     0
300
1:8
140
1.0
141
8.0
290
     0
  0
SCALE
  5
4D
102
{ACAD_REACTORS
330
47
102
}
330
47
100
AcDbScale
 70
     0
300
1:10
140
1.0
141
10.0
290
     0
  0
SCALE
  5
4E
102
{ACAD_REACTORS
330
47
102
}
330
47
100
AcDbScale
 70
     0
300
1:16
140
1.0
141
16.0
290
     0
  0
SCALE
  5
4F
102
{ACAD_REACTORS
330
47
102
}
330
47
100
AcDbScale
 70
     0
300
1:20
140
1.0
141
20.0
290
     0
  0
SCALE
  5
50
102
{ACAD_REACTORS
330
47
102
}
330
47
100
AcDbScale
 70
     0
300
1:30
140
1.0
141
30.0
290
     0
  0
SCALE
  5
51
102
{ACAD_REACTORS
330
47
102
}
330
47
100
AcDbScale
 70
     0
300
1:40
140
1.0
141
40.0
290
     0
  0
SCALE
  5
52
102
{ACAD_REACTORS
330
47
102
}
330
47
100
AcDbScale
 70
     0
300
1:50
140
1.0
141
50.0
290
     0
  0
SCALE
  5
53
102
{ACAD_REACTORS
330
47
102
}
330
47
100
AcDbScale
 70
     0
300
1:100
140
1.0
141
100.0
290
     0
  0
SCALE
  5
54
102
{ACAD_REACTORS
330
47
102
}
330
47
100
AcDbScale
 70
     0
300
2:1
140
2.0
141
1.0
290
     0
  0
SCALE
  5
55
102
{ACAD_REACTORS
330
47
102
}
330
47
100
AcDbScale
 70
     0
300
4:1
140
4.0
141
1.0
290
     0
  0
SCALE
  5
56
102
{ACAD_REACTORS
330
47
102
}
330
47
100
AcDbScale
 70
     0
300
8:1
140
8.0
141
1.0
290
     0
  0
SCALE
  5
57
102
{ACAD_REACTORS
330
47
102
}
330
47
100
AcDbScale
 70
     0
300
10:1
140
10.0
141
1.0
290
     0
  0
SCALE
  5
58
102
{ACAD_REACTORS
330
47
102
}
330
47
100
AcDbScale
 70
     0
300
100:1
140
100.0
141
1.0
290
     0
  0
SCALE
  5
59
102
{ACAD_REACTORS
330
47
102
}
330
47
100
AcDbScale
 70
     0
300
1/128" = 1'-0"
140
0.0078125
141
12.0
290
     0
  0
SCALE
  5
5A
102
{ACAD_REACTORS
330
47
102
}
330
47
100
AcDbScale
 70
     0
300
1/64" = 1'-0"
140
0.015625
141
12.0
290
     0
  0
SCALE
  5
5B
102
{ACAD_REACTORS
330
47
102
}
330
47
100
AcDbScale
 70
     0
300
1/32" = 1'-0"
140
0.03125
141
12.0
290
     0
  0
SCALE
  5
5C
102
{ACAD_REACTORS
330
47
102
}
330
47
100
AcDbScale
 70
     0
300
1/16" = 1'-0"
140
0.0625
141
12.0
290
     0
  0
SCALE
  5
5D
102
{ACAD_REACTORS
330
47
102
}
330
47
100
AcDbScale
 70
     0
300
3/32" = 1'-0"
140
0.09375
141
12.0
290
     0
  0
SCALE
  5
5E
102
{ACAD_REACTORS
330
47
102
}
330
47
100
AcDbScale
 70
     0
300
1/8" = 1'-0"
140
0.125
141
12.0
290
     0
  0
SCALE
  5
5F
102
{ACAD_REACTORS
330
47
102
}
330
47
100
AcDbScale
 70
     0
300
3/16" = 1'-0"
140
0.1875
141
12.0
290
     0
  0
SCALE
  5
60
102
{ACAD_REACTORS
330
47
102
}
330
47
100
AcDbScale
 70
     0
300
1/4" = 1'-0"
140
0.25
141
12.0
290
     0
  0
SCALE
  5
61
102
{ACAD_REACTORS
330
47
102
}
330
47
100
AcDbScale
 70
     0
300
3/8" = 1'-0"
140
0.375
141
12.0
290
     0
  0
SCALE
  5
62
102
{ACAD_REACTORS
330
47
102
}
330
47
100
AcDbScale
 70
     0
300
1/2" = 1'-0"
140
0.5
141
12.0
290
     0
  0
SCALE
  5
63
102
{ACAD_REACTORS
330
47
102
}
330
47
100
AcDbScale
 70
     0
300
3/4" = 1'-0"
140
0.75
141
12.0
290
     0
  0
SCALE
  5
64
102
{ACAD_REACTORS
330
47
102
}
330
47
100
AcDbScale
 70
     0
300
1" = 1'-0"
140
1.0
141
12.0
290
     0
  0
SCALE
  5
65
102
{ACAD_REACTORS
330
47
102
}
330
47
100
AcDbScale
 70
     0
300
1-1/2" = 1'-0"
140
1.5
141
12.0
290
     0
  0
SCALE
  5
66
102
{ACAD_REACTORS
330
47
102
}
330
47
100
AcDbScale
 70
     0
300
3" = 1'-0"
140
3.0
141
12.0
290
     0
  0
SCALE
  5
67
102
{ACAD_REACTORS
330
47
102
}
330
47
100
AcDbScale
 70
     0
300
6" = 1'-0"
140
6.0
141
12.0
290
     0
  0
SCALE
  5
68
102
{ACAD_REACTORS
330
47
102
}
330
47
100
AcDbScale
 70
     0
300
1'-0" = 1'-0"
140
12.0
141
12.0
290
     0
  0
ENDSEC
  0
EOF
