  0
SECTION
  2
HEADER
  9
$ACADVER
  1
AC1015
  9
$ACADMAINTVER
 70
     6
  9
$DWGCODEPAGE
  3
ANSI_1252
  9
$INSBASE
 10
0.0
 20
0.0
 30
0.0
  9
$EXTMIN
 10
-117.7
 20
-45.0
 30
0.0
  9
$EXTMAX
 10
25.0
 20
45.0
 30
0.0
  9
$LIMMIN
 10
0.0
 20
0.0
  9
$LIMMAX
 10
420.0
 20
297.0
  9
$ORTHOMODE
 70
     0
  9
$REGENMODE
 70
     1
  9
$FILLMODE
 70
     1
  9
$QTEXTMODE
 70
     0
  9
$MIRRTEXT
 70
     1
  9
$LTSCALE
 40
1.0
  9
$ATTMODE
 70
     1
  9
$TEXTSIZE
 40
3.175
  9
$TRACEWID
 40
1.0
  9
$TEXTSTYLE
  7
Standard
  9
$CLAYER
  8
0
  9
$CELTYPE
  6
ByLayer
  9
$CECOLOR
 62
   256
  9
$CELTSCALE
 40
1.0
  9
$DISPSILH
 70
     0
  9
$DIMSCALE
 40
1.0
  9
$DIMASZ
 40
3.302
  9
$DIMEXO
 40
1.27
  9
$DIMDLI
 40
3.75
  9
$DIMRND
 40
0.0
  9
$DIMDLE
 40
0.0
  9
$DIMEXE
 40
3.175
  9
$DIMTP
 40
0.0
  9
$DIMTM
 40
0.0
  9
$DIMTXT
 40
3.175
  9
$DIMCEN
 40
2.5
  9
$DIMTSZ
 40
0.0
  9
$DIMTOL
 70
     0
  9
$DIMLIM
 70
     0
  9
$DIMTIH
 70
     1
  9
$DIMTOH
 70
     1
  9
$DIMSE1
 70
     0
  9
$DIMSE2
 70
     0
  9
$DIMTAD
 70
     0
  9
$DIMZIN
 70
     0
  9
$DIMBLK
  1

  9
$DIMASO
 70
     1
  9
$DIMSHO
 70
     1
  9
$DIMPOST
  1

  9
$DIMAPOST
  1

  9
$DIMALT
 70
     0
  9
$DIMALTD
 70
     3
  9
$DIMALTF
 40
0.0393700787
  9
$DIMLFAC
 40
1.0
  9
$DIMTOFL
 70
     1
  9
$DIMTVP
 40
0.0
  9
$DIMTIX
 70
     0
  9
$DIMSOXD
 70
     0
  9
$DIMSAH
 70
     0
  9
$DIMBLK1
  1

  9
$DIMBLK2
  1

  9
$DIMSTYLE
  2
ISO-25
  9
$DIMCLRD
 70
     0
  9
$DIMCLRE
 70
     0
  9
$DIMCLRT
 70
     0
  9
$DIMTFAC
 40
1.0
  9
$DIMGAP
 40
1.524
  9
$DIMJUST
 70
     0
  9
$DIMSD1
 70
     0
  9
$DIMSD2
 70
     0
  9
$DIMTOLJ
 70
     0
  9
$DIMTZIN
 70
     0
  9
$DIMALTZ
 70
     0
  9
$DIMALTTZ
 70
     0
  9
$DIMUPT
 70
     0
  9
$DIMDEC
 70
     2
  9
$DIMTDEC
 70
     2
  9
$DIMALTU
 70
     2
  9
$DIMALTTD
 70
     3
  9
$DIMTXSTY
  7
Standard
  9
$DIMAUNIT
 70
     0
  9
$DIMADEC
 70
     2
  9
$DIMALTRND
 40
0.0
  9
$DIMAZIN
 70
     0
  9
$DIMDSEP
 70
    44
  9
$DIMATFIT
 70
     3
  9
$DIMFRAC
 70
     0
  9
$DIMLDRBLK
  1

  9
$DIMLUNIT
 70
     2
  9
$DIMLWD
 70
    -2
  9
$DIMLWE
 70
    -2
  9
$DIMTMOVE
 70
     0
  9
$LUNITS
 70
     2
  9
$LUPREC
 70
     2
  9
$SKETCHINC
 40
1.0
  9
$FILLETRAD
 40
10.0
  9
$AUNITS
 70
     0
  9
$AUPREC
 70
     2
  9
$MENU
  1
.
  9
$ELEVATION
 40
0.0
  9
$PELEVATION
 40
0.0
  9
$THICKNESS
 40
0.0
  9
$LIMCHECK
 70
     0
  9
$CHAMFERA
 40
0.0
  9
$CHAMFERB
 40
0.0
  9
$CHAMFERC
 40
0.0
  9
$CHAMFERD
 40
0.0
  9
$SKPOLY
 70
     0
  9
$TDCREATE
 40
2457743.694220486
  9
$TDUCREATE
 40
2457743.90255382
  9
$TDUPDATE
 40
2457743.694249595
  9
$TDUUPDATE
 40
2457743.902582928
  9
$TDINDWG
 40
0.0000000116
  9
$TDUSRTIMER
 40
0.0000000116
  9
$USRTIMER
 70
     1
  9
$ANGBASE
 50
0.0
  9
$ANGDIR
 70
     0
  9
$PDMODE
 70
     0
  9
$PDSIZE
 40
-1.0
  9
$PLINEWID
 40
0.0
  9
$SPLFRAME
 70
     0
  9
$SPLINETYPE
 70
     6
  9
$SPLINESEGS
 70
     8
  9
$HANDSEED
  5
19E
  9
$SURFTAB1
 70
     6
  9
$SURFTAB2
 70
     6
  9
$SURFTYPE
 70
     6
  9
$SURFU
 70
     6
  9
$SURFV
 70
     6
  9
$UCSBASE
  2

  9
$UCSNAME
  2

  9
$UCSORG
 10
0.0
 20
0.0
 30
0.0
  9
$UCSXDIR
 10
1.0
 20
0.0
 30
0.0
  9
$UCSYDIR
 10
0.0
 20
1.0
 30
0.0
  9
$UCSORTHOREF
  2

  9
$UCSORTHOVIEW
 70
     0
  9
$UCSORGTOP
 10
0.0
 20
0.0
 30
0.0
  9
$UCSORGBOTTOM
 10
0.0
 20
0.0
 30
0.0
  9
$UCSORGLEFT
 10
0.0
 20
0.0
 30
0.0
  9
$UCSORGRIGHT
 10
0.0
 20
0.0
 30
0.0
  9
$UCSORGFRONT
 10
0.0
 20
0.0
 30
0.0
  9
$UCSORGBACK
 10
0.0
 20
0.0
 30
0.0
  9
$PUCSBASE
  2

  9
$PUCSNAME
  2

  9
$PUCSORG
 10
0.0
 20
0.0
 30
0.0
  9
$PUCSXDIR
 10
1.0
 20
0.0
 30
0.0
  9
$PUCSYDIR
 10
0.0
 20
1.0
 30
0.0
  9
$PUCSORTHOREF
  2

  9
$PUCSORTHOVIEW
 70
     0
  9
$PUCSORGTOP
 10
0.0
 20
0.0
 30
0.0
  9
$PUCSORGBOTTOM
 10
0.0
 20
0.0
 30
0.0
  9
$PUCSORGLEFT
 10
0.0
 20
0.0
 30
0.0
  9
$PUCSORGRIGHT
 10
0.0
 20
0.0
 30
0.0
  9
$PUCSORGFRONT
 10
0.0
 20
0.0
 30
0.0
  9
$PUCSORGBACK
 10
0.0
 20
0.0
 30
0.0
  9
$USERI1
 70
     0
  9
$USERI2
 70
     0
  9
$USERI3
 70
     0
  9
$USERI4
 70
     0
  9
$USERI5
 70
     0
  9
$USERR1
 40
0.0
  9
$USERR2
 40
0.0
  9
$USERR3
 40
0.0
  9
$USERR4
 40
0.0
  9
$USERR5
 40
0.0
  9
$WORLDVIEW
 70
     1
  9
$SHADEDGE
 70
     3
  9
$SHADEDIF
 70
    70
  9
$TILEMODE
 70
     1
  9
$MAXACTVP
 70
    64
  9
$PINSBASE
 10
0.0
 20
0.0
 30
0.0
  9
$PLIMCHECK
 70
     0
  9
$PEXTMIN
 10
1.0000000000E+20
 20
1.0000000000E+20
 30
1.0000000000E+20
  9
$PEXTMAX
 10
-1.0000000000E+20
 20
-1.0000000000E+20
 30
-1.0000000000E+20
  9
$PLIMMIN
 10
0.0
 20
0.0
  9
$PLIMMAX
 10
420.0
 20
297.0
  9
$UNITMODE
 70
     0
  9
$VISRETAIN
 70
     1
  9
$PLINEGEN
 70
     0
  9
$PSLTSCALE
 70
     1
  9
$TREEDEPTH
 70
  3020
  9
$CMLSTYLE
  2
Standard
  9
$CMLJUST
 70
     0
  9
$CMLSCALE
 40
20.0
  9
$PROXYGRAPHICS
 70
     1
  9
$MEASUREMENT
 70
     1
  9
$CELWEIGHT
370
    -1
  9
$ENDCAPS
280
     0
  9
$JOINSTYLE
280
     0
  9
$LWDISPLAY
290
     1
  9
$INSUNITS
 70
     4
  9
$HYPERLINKBASE
  1

  9
$STYLESHEET
  1

  9
$XEDIT
290
     1
  9
$CEPSNTYPE
380
     0
  9
$PSTYLEMODE
290
     1
  9
$FINGERPRINTGUID
  2
{6CD27241-FFD7-4FC9-BA5D-827042F18214}
  9
$VERSIONGUID
  2
{FAEB1C32-E019-11D5-929B-00C0DF256EC4}
  9
$EXTNAMES
290
     1
  9
$PSVPSCALE
 40
0.0
  9
$OLESTARTUP
290
     0
  0
ENDSEC
  0
SECTION
  2
CLASSES
  0
CLASS
  1
ACDBDICTIONARYWDFLT
  2
AcDbDictionaryWithDefault
  3
ObjectDBX Classes
 90
        0
280
     0
281
     0
  0
CLASS
  1
VISUALSTYLE
  2
AcDbVisualStyle
  3
ObjectDBX Classes
 90
     4095
280
     0
281
     0
  0
CLASS
  1
MATERIAL
  2
AcDbMaterial
  3
ObjectDBX Classes
 90
     1153
280
     0
281
     0
  0
CLASS
  1
SCALE
  2
AcDbScale
  3
ObjectDBX Classes
 90
     1153
280
     0
281
     0
  0
CLASS
  1
TABLESTYLE
  2
AcDbTableStyle
  3
ObjectDBX Classes
 90
     4095
280
     0
281
     0
  0
CLASS
  1
MLEADERSTYLE
  2
AcDbMLeaderStyle
  3
ACDB_MLEADERSTYLE_CLASS
 90
     4095
280
     0
281
     0
  0
CLASS
  1
SUN
  2
AcDbSun
  3
SCENEOE
 90
     1153
280
     0
281
     0
  0
CLASS
  1
ACDBPLACEHOLDER
  2
AcDbPlaceHolder
  3
ObjectDBX Classes
 90
        0
280
     0
281
     0
  0
CLASS
  1
LAYOUT
  2
AcDbLayout
  3
ObjectDBX Classes
 90
        0
280
     0
281
     0
  0
ENDSEC
  0
SECTION
  2
TABLES
  0
TABLE
  2
VPORT
  5
8
330
0
100
AcDbSymbolTable
 70
     1
  0
VPORT
  5
29
330
8
100
AcDbSymbolTableRecord
100
AcDbViewportTableRecord
  2
*Active
 70
     0
 10
0.0
 20
0.0
 11
1.0
 21
1.0
 12
-46.35
 22
0.0
 13
0.0
 23
0.0
 14
10.0
 24
10.0
 15
10.0
 25
10.0
 16
0.0
 26
0.0
 36
1.0
 17
0.0
 27
0.0
 37
0.0
 40
91.8
 41
1.5855555556
 42
50.0
 43
0.0
 44
0.0
 50
0.0
 51
0.0
 71
     0
 72
   100
 73
     1
 74
     3
 75
     0
 76
     0
 77
     0
 78
     0
281
     0
 65
     1
110
0.0
120
0.0
130
0.0
111
1.0
121
0.0
131
0.0
112
0.0
122
1.0
132
0.0
 79
     0
146
0.0
  0
ENDTAB
  0
TABLE
  2
LTYPE
  5
5
330
0
100
AcDbSymbolTable
 70
     6
  0
LTYPE
  5
14
330
5
100
AcDbSymbolTableRecord
100
AcDbLinetypeTableRecord
  2
ByBlock
 70
     0
  3

 72
    65
 73
     0
 40
0.0
  0
LTYPE
  5
15
330
5
100
AcDbSymbolTableRecord
100
AcDbLinetypeTableRecord
  2
ByLayer
 70
     0
  3

 72
    65
 73
     0
 40
0.0
  0
LTYPE
  5
16
330
5
100
AcDbSymbolTableRecord
100
AcDbLinetypeTableRecord
  2
Continuous
 70
     0
  3
Solid line
 72
    65
 73
     0
 40
0.0
  0
LTYPE
  5
6E
330
5
100
AcDbSymbolTableRecord
100
AcDbLinetypeTableRecord
  2
HIDDEN
 70
     0
  3
Hidden __ __ __ __ __ __ __ __ __ __ __ __ __ __
 72
    65
 73
     2
 40
1.905
 49
1.27
 74
     0
 49
-0.635
 74
     0
  0
LTYPE
  5
6F
330
5
100
AcDbSymbolTableRecord
100
AcDbLinetypeTableRecord
  2
PHANTOM
 70
     0
  3
Phantom ______  __  __  ______  __  __  ______
 72
    65
 73
     6
 40
12.7
 49
6.35
 74
     0
 49
-1.27
 74
     0
 49
1.27
 74
     0
 49
-1.27
 74
     0
 49
1.27
 74
     0
 49
-1.27
 74
     0
  0
LTYPE
  5
70
330
5
100
AcDbSymbolTableRecord
100
AcDbLinetypeTableRecord
  2
CENTER
 70
     0
  3
Center ____ _ ____ _ ____ _ ____ _ ____ _ ____
 72
    65
 73
     4
 40
10.16
 49
6.35
 74
     0
 49
-1.27
 74
     0
 49
1.27
 74
     0
 49
-1.27
 74
     0
  0
LTYPE
  5
71
330
5
100
AcDbSymbolTableRecord
100
AcDbLinetypeTableRecord
  2
CENTERX2
 70
     0
  3
Center (2x) ________  __  ________  __  _____
 72
    65
 73
     4
 40
20.32
 49
12.7
 74
     0
 49
-2.54
 74
     0
 49
2.54
 74
     0
 49
-2.54
 74
     0
  0
LTYPE
  5
72
330
5
100
AcDbSymbolTableRecord
100
AcDbLinetypeTableRecord
  2
DOT2
 70
     0
  3
Dot (.5x) ........................................
 72
    65
 73
     2
 40
0.635
 49
0.0
 74
     0
 49
-0.635
 74
     0
  0
ENDTAB
  0
TABLE
  2
LAYER
  5
2
330
0
100
AcDbSymbolTable
 70
     1
  0
LAYER
  5
10
330
2
100
AcDbSymbolTableRecord
100
AcDbLayerTableRecord
  2
0
 70
     0
 62
     7
  6
Continuous
370
    -3
390
F
  0
ENDTAB
  0
TABLE
  2
STYLE
  5
3
330
0
100
AcDbSymbolTable
 70
     1
  0
STYLE
  5
11
330
3
100
AcDbSymbolTableRecord
100
AcDbTextStyleTableRecord
  2
Standard
 70
     0
 40
0.0
 41
1.0
 50
0.0
 71
     0
 42
3.175
  3
txt
  4

  0
ENDTAB
  0
TABLE
  2
VIEW
  5
6
330
0
100
AcDbSymbolTable
 70
     0
  0
ENDTAB
  0
TABLE
  2
UCS
  5
7
330
0
100
AcDbSymbolTable
 70
     0
  0
ENDTAB
  0
TABLE
  2
APPID
  5
9
330
0
100
AcDbSymbolTable
 70
     1
  0
APPID
  5
12
330
9
100
AcDbSymbolTableRecord
100
AcDbRegAppTableRecord
  2
ACAD
 70
     0
  0
ENDTAB
  0
TABLE
  2
DIMSTYLE
  5
A
330
0
100
AcDbSymbolTable
 70
     1
100
AcDbDimStyleTable
  0
DIMSTYLE
105
27
330
A
100
AcDbSymbolTableRecord
100
AcDbDimStyleTableRecord
  2
ISO-25
 70
     0
 41
2.5
 42
0.625
 43
3.75
 44
1.25
 73
     0
 74
     0
 77
     1
 78
     8
140
2.5
141
2.5
143
0.0393700787
147
0.625
171
     3
172
     1
178
     0
271
     2
272
     2
274
     3
278
    44
283
     0
284
     8
340
11
  0
ENDTAB
  0
TABLE
  2
BLOCK_RECORD
  5
1
330
0
100
AcDbSymbolTable
 70
     1
  0
BLOCK_RECORD
  5
1F
330
1
100
AcDbSymbolTableRecord
100
AcDbBlockTableRecord
  2
*Model_Space
340
22
  0
BLOCK_RECORD
  5
1B
330
1
100
AcDbSymbolTableRecord
100
AcDbBlockTableRecord
  2
*Paper_Space
340
1E
  0
BLOCK_RECORD
  5
23
330
1
100
AcDbSymbolTableRecord
100
AcDbBlockTableRecord
  2
*Paper_Space0
340
26
  0
ENDTAB
  0
ENDSEC
  0
SECTION
  2
BLOCKS
  0
BLOCK
  5
20
330
1F
100
AcDbEntity
  8
0
100
AcDbBlockBegin
  2
*Model_Space
 70
     0
 10
0.0
 20
0.0
 30
0.0
  3
*Model_Space
  1

  0
ENDBLK
  5
21
330
1F
100
AcDbEntity
  8
0
100
AcDbBlockEnd
  0
BLOCK
  5
1C
330
1B
100
AcDbEntity
 67
     1
  8
0
100
AcDbBlockBegin
  2
*Paper_Space
 70
     0
 10
0.0
 20
0.0
 30
0.0
  3
*Paper_Space
  1

  0
ENDBLK
  5
1D
330
1B
100
AcDbEntity
 67
     1
  8
0
100
AcDbBlockEnd
  0
BLOCK
  5
24
330
23
100
AcDbEntity
  8
0
100
AcDbBlockBegin
  2
*Paper_Space0
 70
     0
 10
0.0
 20
0.0
 30
0.0
  3
*Paper_Space0
  1

  0
ENDBLK
  5
25
330
23
100
AcDbEntity
  8
0
100
AcDbBlockEnd
  0
ENDSEC
  0
SECTION
  2
ENTITIES
  0
SPLINE
  5
73
330
1F
100
AcDbEntity
  8
0
  6
Continuous
 62
     7
370
    25
100
AcDbSpline
210
0.0
220
0.0
230
1.0
 70
     8
 71
     3
 72
    11
 73
     7
 74
     0
 42
0.000000001
 43
0.00000001
 40
0.0
 40
0.0
 40
0.0
 40
0.0
 40
0.2525888393789998
 40
0.4985134887925345
 40
0.7449939874661263
 40
0.9999999999999999
 40
0.9999999999999999
 40
0.9999999999999999
 40
0.9999999999999999
 10
21.68820064245024
 20
-16.04138385415656
 30
0.0
 10
21.68667915344662
 20
-16.07842746488838
 30
0.0
 10
21.68367631771874
 20
-16.15153734444124
 30
0.0
 10
21.65859749126738
 20
-16.25843443823252
 30
0.0
 10
21.61625884528141
 20
-16.36007115257864
 30
0.0
 10
21.57622673388664
 20
-16.42182575808613
 30
0.0
 10
21.55587039553665
 20
-16.45322798995903
 30
0.0
  0
SPLINE
  5
74
330
1F
100
AcDbEntity
  8
0
  6
Continuous
 62
     7
370
    25
100
AcDbSpline
210
0.0
220
0.0
230
1.0
 70
     8
 71
     3
 72
    11
 73
     7
 74
     0
 42
0.000000001
 43
0.00000001
 40
0.0
 40
0.0
 40
0.0
 40
0.0
 40
0.2254236262558995
 40
0.4658310488981158
 40
0.7247883062604815
 40
1.0
 40
1.0
 40
1.0
 40
1.0
 10
21.61123304985764
 20
-15.1528807677368
 30
0.0
 10
21.62322749844961
 20
-15.21893098622688
 30
0.0
 10
21.64801366066942
 20
-15.35542174839859
 30
0.0
 10
21.67179108241689
 20
-15.57007859046659
 30
0.0
 10
21.6845784208856
 20
-15.80041867601265
 30
0.0
 10
21.6869689874332
 20
-15.95944906212527
 30
0.0
 10
21.68820064245024
 20
-16.04138385415656
 30
0.0
  0
SPLINE
  5
75
330
1F
100
AcDbEntity
  8
0
  6
Continuous
 62
     7
370
    25
100
AcDbSpline
210
0.0
220
0.0
230
1.0
 70
     8
 71
     3
 72
    15
 73
    11
 74
     0
 42
0.000000001
 43
0.00000001
 40
0.0
 40
0.0
 40
0.0
 40
0.0
 40
0.1292142338163719
 40
0.2489023428491495
 40
0.362078062570481
 40
0.47554801459542
 40
0.5913129152720483
 40
0.7147596454060444
 40
0.8501712830451968
 40
1.0
 40
1.0
 40
1.0
 40
1.0
 10
21.03600156837616
 20
-14.62355978008248
 30
0.0
 10
21.07303194638297
 20
-14.62502958594784
 30
0.0
 10
21.14436269354804
 20
-14.62786083845476
 30
0.0
 10
21.24615285757388
 20
-14.65191019174386
 30
0.0
 10
21.33600694146652
 20
-14.6953187693385
 30
0.0
 10
21.41568934776451
 20
-14.75365449783127
 30
0.0
 10
21.48258135423676
 20
-14.83023238535232
 30
0.0
 10
21.53877965705921
 20
-14.92222383371224
 30
0.0
 10
21.58121011457022
 20
-15.03189568627067
 30
0.0
 10
21.6008937769295
 20
-15.11121602824564
 30
0.0
 10
21.61123304985764
 20
-15.1528807677368
 30
0.0
  0
SPLINE
  5
76
330
1F
100
AcDbEntity
  8
0
  6
Continuous
 62
     7
370
    25
100
AcDbSpline
210
0.0
220
0.0
230
1.0
 70
     8
 71
     3
 72
    11
 73
     7
 74
     0
 42
0.000000001
 43
0.00000001
 40
0.0
 40
0.0
 40
0.0
 40
0.0
 40
0.2628053959024135
 40
0.5097285781626749
 40
0.7516653685547704
 40
1.0
 40
1.0
 40
1.0
 40
1.0
 10
20.55124076590702
 20
-14.85176194057631
 30
0.0
 10
20.58498302146101
 20
-14.81684847186536
 30
0.0
 10
20.65042837462235
 20
-14.74913147273888
 30
0.0
 10
20.76966630010654
 20
-14.67599868776823
 30
0.0
 10
20.89981382230727
 20
-14.63240430502158
 30
0.0
 10
20.9902124314241
 20
-14.62653349229523
 30
0.0
 10
21.03600156837616
 20
-14.62355978008248
 30
0.0
  0
SPLINE
  5
77
330
1F
100
AcDbEntity
  8
0
  6
Continuous
 62
     7
370
    25
100
AcDbSpline
210
0.0
220
0.0
230
1.0
 70
     8
 71
     3
 72
    11
 73
     7
 74
     0
 42
0.000000001
 43
0.00000001
 40
0.0
 40
0.0
 40
0.0
 40
0.0
 40
0.2928656679448077
 40
0.5571155058463225
 40
0.7930897736163759
 40
1.0
 40
1.0
 40
1.0
 40
1.0
 10
19.90444292640085
 20
-14.79639928625532
 30
0.0
 10
19.96793512859339
 20
-14.79712045554103
 30
0.0
 10
20.08871572602576
 20
-14.79849232884468
 30
0.0
 10
20.26022665369961
 20
-14.81016824501877
 30
0.0
 10
20.41306915473354
 20
-14.8239634076694
 30
0.0
 10
20.5072436104299
 20
-14.84291022086374
 30
0.0
 10
20.55124076590702
 20
-14.85176194057631
 30
0.0
  0
SPLINE
  5
78
330
1F
100
AcDbEntity
  8
0
  6
Continuous
 62
     7
370
    25
100
AcDbSpline
210
0.0
220
0.0
230
1.0
 70
     8
 71
     3
 72
    15
 73
    11
 74
     0
 42
0.000000001
 43
0.00000001
 40
0.0
 40
0.0
 40
0.0
 40
0.0
 40
0.1533428477926642
 40
0.29652794736175
 40
0.4298423077045197
 40
0.5545651086445456
 40
0.672313350867826
 40
0.7847026579913546
 40
0.8931340637909869
 40
1.0
 40
1.0
 40
1.0
 40
1.0
 10
17.58056175356133
 20
-16.14670792823063
 30
0.0
 10
17.67407112503172
 20
-16.0400417356318
 30
0.0
 10
17.85489561329667
 20
-15.83377514022469
 30
0.0
 10
18.14079622554123
 20
-15.55659956880569
 30
0.0
 10
18.43136548272745
 20
-15.3251407981201
 30
0.0
 10
18.72053985009185
 20
-15.13119192640118
 30
0.0
 10
19.0144510450313
 20
-14.98335561884842
 30
0.0
 10
19.30864618638659
 20
-14.8741695425615
 30
0.0
 10
19.60640465614984
 20
-14.80988364638384
 30
0.0
 10
19.80557958309027
 20
-14.80087223170486
 30
0.0
 10
19.90444292640085
 20
-14.79639928625532
 30
0.0
  0
SPLINE
  5
79
330
1F
100
AcDbEntity
  8
0
  6
Continuous
 62
     7
370
    25
100
AcDbSpline
210
0.0
220
0.0
230
1.0
 70
     8
 71
     3
 72
    15
 73
    11
 74
     0
 42
0.000000001
 43
0.00000001
 40
0.0
 40
0.0
 40
0.0
 40
0.0
 40
0.110874935813518
 40
0.2234861543471113
 40
0.3389568583901728
 40
0.4593741527838336
 40
0.5843987264552282
 40
0.7157889251354745
 40
0.8539918687049041
 40
1.0
 40
1.0
 40
1.0
 40
1.0
 10
16.24375619800579
 20
-19.26592089119359
 30
0.0
 10
16.24746272364892
 20
-19.13782093632301
 30
0.0
 10
16.25493381849914
 20
-18.87961500298007
 30
0.0
 10
16.32255612362378
 20
-18.49300428493639
 30
0.0
 10
16.42649149067675
 20
-18.10384289534432
 30
0.0
 10
16.57520313686797
 20
-17.71384757536576
 30
0.0
 10
16.76445899202707
 20
-17.32158642844429
 30
0.0
 10
16.99542606801056
 20
-16.92839249502964
 30
0.0
 10
17.26748801384868
 20
-16.5325161280529
 30
0.0
 10
17.47431054246116
 20
-16.27764381739564
 30
0.0
 10
17.58056175356133
 20
-16.14670792823063
 30
0.0
  0
SPLINE
  5
7A
330
1F
100
AcDbEntity
  8
0
  6
Continuous
 62
     7
370
    25
100
AcDbSpline
210
0.0
220
0.0
230
1.0
 70
     8
 71
     3
 72
    15
 73
    11
 74
     0
 42
0.000000001
 43
0.00000001
 40
0.0
 40
0.0
 40
0.0
 40
0.0
 40
0.1294966674736334
 40
0.2552786623377699
 40
0.3788351760455445
 40
0.501598466186554
 40
0.6230410745964389
 40
0.7461265007762001
 40
0.8713854740575353
 40
0.9999999999999999
 40
0.9999999999999999
 40
0.9999999999999999
 40
0.9999999999999999
 10
16.91756021035147
 20
-20.96190854551458
 30
0.0
 10
16.86364637708858
 20
-20.90170925481471
 30
0.0
 10
16.75736525414266
 20
-20.78303751828779
 30
0.0
 10
16.62130059511306
 20
-20.58937264904201
 30
0.0
 10
16.50343889437274
 20
-20.38910906552026
 30
0.0
 10
16.40996746941269
 20
-20.17928303848762
 30
0.0
 10
16.33395249125916
 20
-19.96287971472769
 30
0.0
 10
16.28185533837502
 20
-19.73784796461952
 30
0.0
 10
16.25009216570335
 20
-19.50448626817588
 30
0.0
 10
16.24588671563822
 20
-19.3461403251315
 30
0.0
 10
16.24375619800579
 20
-19.26592089119359
 30
0.0
  0
SPLINE
  5
7B
330
1F
100
AcDbEntity
  8
0
  6
Continuous
 62
     7
370
    25
100
AcDbSpline
210
0.0
220
0.0
230
1.0
 70
     8
 71
     3
 72
    15
 73
    11
 74
     0
 42
0.000000001
 43
0.00000001
 40
0.0
 40
0.0
 40
0.0
 40
0.0
 40
0.1296621917608162
 40
0.2549177064083613
 40
0.3776907324640704
 40
0.4995262510959338
 40
0.6206593808528248
 40
0.7440763722766268
 40
0.8700035858738364
 40
1.0
 40
1.0
 40
1.0
 40
1.0
 10
18.64595527207986
 20
-21.7099795331689
 30
0.0
 10
18.56210329570455
 20
-21.7076536989581
 30
0.0
 10
18.39724912190785
 20
-21.70308107594094
 30
0.0
 10
18.15528040683488
 20
-21.66666859235973
 30
0.0
 10
17.92272844757888
 20
-21.60931435032615
 30
0.0
 10
17.70108468576899
 20
-21.52581045952235
 30
0.0
 10
17.48762952517506
 20
-21.42198854221104
 30
0.0
 10
17.28711132843418
 20
-21.29031562664831
 30
0.0
 10
17.09282101965944
 20
-21.13981553079793
 30
0.0
 10
16.9765964724686
 20
-21.02183616685291
 30
0.0
 10
16.91756021035147
 20
-20.96190854551458
 30
0.0
  0
SPLINE
  5
7C
330
1F
100
AcDbEntity
  8
0
  6
Continuous
 62
     7
370
    25
100
AcDbSpline
210
0.0
220
0.0
230
1.0
 70
     8
 71
     3
 72
    15
 73
    11
 74
     0
 42
0.000000001
 43
0.00000001
 40
0.0
 40
0.0
 40
0.0
 40
0.0
 40
0.1419345917167364
 40
0.2771457898845904
 40
0.4066377745591134
 40
0.5312147550221746
 40
0.6520648532999799
 40
0.7693694791927327
 40
0.885294929865894
 40
1.0
 40
1.0
 40
1.0
 40
1.0
 10
21.1926373708453
 20
-20.64998724921828
 30
0.0
 10
21.08944779445766
 20
-20.73442657676463
 30
0.0
 10
20.88795669697464
 20
-20.8993053695036
 30
0.0
 10
20.57160737292526
 20
-21.11402659126871
 30
0.0
 10
20.25515452128222
 20
-21.29758114939126
 30
0.0
 10
19.93681393974174
 20
-21.44900591384413
 30
0.0
 10
19.61619950473627
 20
-21.56572481872097
 30
0.0
 10
19.29376435485101
 20
-21.64836497882587
 30
0.0
 10
18.97040477322584
 20
-21.70083660956053
 30
0.0
 10
18.75372291538148
 20
-21.70694266201736
 30
0.0
 10
18.64595527207986
 20
-21.7099795331689
 30
0.0
  0
SPLINE
  5
7D
330
1F
100
AcDbEntity
  8
0
  6
Continuous
 62
     7
370
    25
100
AcDbSpline
210
0.0
220
0.0
230
1.0
 70
     8
 71
     3
 72
    11
 73
     7
 74
     0
 42
0.000000001
 43
0.00000001
 40
0.0
 40
0.0
 40
0.0
 40
0.0
 40
0.2403977475396617
 40
0.4788826223878935
 40
0.7273205224254919
 40
1.0
 40
1.0
 40
1.0
 40
1.0
 10
21.42894138319097
 20
-20.18007984181088
 30
0.0
 10
21.42619947308827
 20
-20.22372400206146
 30
0.0
 10
21.42073747057881
 20
-20.31066504092983
 30
0.0
 10
21.37249756809434
 20
-20.43485777196999
 30
0.0
 10
21.29851070161926
 20
-20.55207011479622
 30
0.0
 10
21.22900622811134
 20
-20.61635144821285
 30
0.0
 10
21.1926373708453
 20
-20.64998724921828
 30
0.0
  0
SPLINE
  5
7E
330
1F
100
AcDbEntity
  8
0
  6
Continuous
 62
     7
370
    25
100
AcDbSpline
210
0.0
220
0.0
230
1.0
 70
     8
 71
     3
 72
    11
 73
     7
 74
     0
 42
0.000000001
 43
0.00000001
 40
0.0
 40
0.0
 40
0.0
 40
0.0
 40
0.2607660124199126
 40
0.5084809888714998
 40
0.751910966646349
 40
1.0
 40
1.0
 40
1.0
 40
1.0
 10
21.25205095109221
 20
-19.75068169366273
 30
0.0
 10
21.27902345898501
 20
-19.78216604981831
 30
0.0
 10
21.33161853208673
 20
-19.84355900668184
 30
0.0
 10
21.38718396494606
 20
-19.949913117117
 30
0.0
 10
21.42335556697968
 20
-20.06251194308974
 30
0.0
 10
21.42706771543589
 20
-20.14064367482385
 30
0.0
 10
21.42894138319097
 20
-20.18007984181088
 30
0.0
  0
SPLINE
  5
7F
330
1F
100
AcDbEntity
  8
0
  6
Continuous
 62
     7
370
    25
100
AcDbSpline
210
0.0
220
0.0
230
1.0
 70
     8
 71
     3
 72
    11
 73
     7
 74
     0
 42
0.000000001
 43
0.00000001
 40
0.0
 40
0.0
 40
0.0
 40
0.0
 40
0.2544450881954358
 40
0.498139378103893
 40
0.7427418052481342
 40
1.0
 40
1.0
 40
1.0
 40
1.0
 10
20.79159570417863
 20
-19.54948570600841
 30
0.0
 10
20.83556148032052
 20
-19.55156841141662
 30
0.0
 10
20.92163539332276
 20
-19.55564582389166
 30
0.0
 10
21.04473166497978
 20
-19.59546930273955
 30
0.0
 10
21.15708792225554
 20
-19.66012684204215
 30
0.0
 10
21.21986887783711
 20
-19.71999351001738
 30
0.0
 10
21.25205095109221
 20
-19.75068169366273
 30
0.0
  0
SPLINE
  5
80
330
1F
100
AcDbEntity
  8
0
  6
Continuous
 62
     7
370
    25
100
AcDbSpline
210
0.0
220
0.0
230
1.0
 70
     8
 71
     3
 72
    11
 73
     7
 74
     0
 42
0.000000001
 43
0.00000001
 40
0.0
 40
0.0
 40
0.0
 40
0.0
 40
0.3326274968148551
 40
0.6064790044675195
 40
0.827520018359161
 40
1.0
 40
1.0
 40
1.0
 40
1.0
 10
20.25822379059837
 20
-19.79389157020594
 30
0.0
 10
20.31306122320013
 20
-19.75741894153895
 30
0.0
 10
20.41304619693302
 20
-19.69091847559405
 30
0.0
 10
20.55661959863596
 20
-19.61262551917146
 30
0.0
 10
20.67972861122436
 20
-19.56102535184165
 30
0.0
 10
20.75750595006667
 20
-19.55300223333209
 30
0.0
 10
20.79159570417863
 20
-19.54948570600841
 30
0.0
  0
SPLINE
  5
81
330
1F
100
AcDbEntity
  8
0
  6
Continuous
 62
     7
370
    25
100
AcDbSpline
210
0.0
220
0.0
230
1.0
 70
     8
 71
     3
 72
    15
 73
    11
 74
     0
 42
0.000000001
 43
0.00000001
 40
0.0
 40
0.0
 40
0.0
 40
0.0
 40
0.0643057612832573
 40
0.1462230894630048
 40
0.245251149374912
 40
0.3614547767644583
 40
0.4952914201242233
 40
0.645412961119546
 40
0.8140910637348442
 40
0.9999999999999999
 40
0.9999999999999999
 40
0.9999999999999999
 40
0.9999999999999999
 10
19.57091669183295
 20
-20.25569712576149
 30
0.0
 10
19.58623278487341
 20
-20.24671696212942
 30
0.0
 10
19.6210596246182
 20
-20.22629721677592
 30
0.0
 10
19.67914489769883
 20
-20.19147880791894
 30
0.0
 10
19.74790364407228
 20
-20.14668758041247
 30
0.0
 10
19.82735002248007
 20
-20.09212560343889
 30
0.0
 10
19.91907399930405
 20
-20.03053040059697
 30
0.0
 10
20.02213843566701
 20
-19.95984724016418
 30
0.0
 10
20.13674343140601
 20
-19.88056945065899
 30
0.0
 10
20.21643941958899
 20
-19.82370528444942
 30
0.0
 10
20.25822379059837
 20
-19.79389157020594
 30
0.0
  0
SPLINE
  5
82
330
1F
100
AcDbEntity
  8
0
  6
Continuous
 62
     7
370
    25
100
AcDbSpline
210
0.0
220
0.0
230
1.0
 70
     8
 71
     3
 72
    11
 73
     7
 74
     0
 42
0.000000001
 43
0.00000001
 40
0.0
 40
0.0
 40
0.0
 40
0.0
 40
0.2364526680915197
 40
0.4800713604396699
 40
0.7335646963026733
 40
1.0
 40
1.0
 40
1.0
 40
1.0
 10
18.66215897578356
 20
-20.50010298995903
 30
0.0
 10
18.73710838625116
 20
-20.49726613197879
 30
0.0
 10
18.88927865245178
 20
-20.49150644112423
 30
0.0
 10
19.11740955916784
 20
-20.4427534712926
 30
0.0
 10
19.34733998524035
 20
-20.36597437924837
 30
0.0
 10
19.49516458209878
 20
-20.29306119080492
 30
0.0
 10
19.57091669183295
 20
-20.25569712576149
 30
0.0
  0
SPLINE
  5
83
330
1F
100
AcDbEntity
  8
0
  6
Continuous
 62
     7
370
    25
100
AcDbSpline
210
0.0
220
0.0
230
1.0
 70
     8
 71
     3
 72
    23
 73
    19
 74
     0
 42
0.000000001
 43
0.00000001
 40
0.0
 40
0.0
 40
0.0
 40
0.0
 40
0.0667415635144172
 40
0.1317223846178368
 40
0.1955402466158482
 40
0.2587961979932263
 40
0.3211416983079123
 40
0.384125470065361
 40
0.4483542258997791
 40
0.513368086700823
 40
0.5781337389316613
 40
0.6406168674498463
 40
0.7007710430992533
 40
0.7600848658902815
 40
0.8192718334308263
 40
0.8782725565501937
 40
0.9383820908757158
 40
0.9999999999999999
 40
0.9999999999999999
 40
0.9999999999999999
 40
0.9999999999999999
 10
17.54005249430208
 20
-19.27807366897137
 30
0.0
 10
17.54118255267385
 20
-19.31907485207526
 30
0.0
 10
17.54341285678493
 20
-19.39999554566118
 30
0.0
 10
17.55835232811113
 20
-19.51939584383934
 30
0.0
 10
17.58395661271339
 20
-19.63475182800622
 30
0.0
 10
17.62062472659025
 20
-19.7453678387503
 30
0.0
 10
17.66672334752588
 20
-19.85183211603861
 30
0.0
 10
17.72384435418665
 20
-19.95354492532255
 30
0.0
 10
17.7914818567816
 20
-20.05053005213321
 30
0.0
 10
17.86797973787326
 20
-20.1421292469017
 30
0.0
 10
17.95235014292965
 20
-20.2250792729229
 30
0.0
 10
18.04166862280815
 20
-20.29783688428669
 30
0.0
 10
18.13375545357774
 20
-20.36170854359992
 30
0.0
 10
18.23218318998154
 20
-20.41066420909306
 30
0.0
 10
18.33301115391163
 20
-20.45292649523647
 30
0.0
 10
18.43980740336892
 20
-20.47835904657964
 30
0.0
 10
18.54938803562567
 20
-20.49762586231595
 30
0.0
 10
18.62425940841
 20
-20.49927048766836
 30
0.0
 10
18.66215897578356
 20
-20.50010298995903
 30
0.0
  0
SPLINE
  5
84
330
1F
100
AcDbEntity
  8
0
  6
Continuous
 62
     7
370
    25
100
AcDbSpline
210
0.0
220
0.0
230
1.0
 70
     8
 71
     3
 72
    15
 73
    11
 74
     0
 42
0.000000001
 43
0.00000001
 40
0.0
 40
0.0
 40
0.0
 40
0.0
 40
0.1508039396464635
 40
0.2930916518184465
 40
0.4263228138164957
 40
0.5525746424538589
 40
0.6722407003572162
 40
0.785413877111542
 40
0.8944676236641633
 40
0.9999999999999999
 40
0.9999999999999999
 40
0.9999999999999999
 40
0.9999999999999999
 10
18.58924230911689
 20
-16.91098261958865
 30
0.0
 10
18.5059657522877
 20
-17.01437364545009
 30
0.0
 10
18.34411544747447
 20
-17.2153169803787
 30
0.0
 10
18.13107381772516
 20
-17.52462786944991
 30
0.0
 10
17.94992602698385
 20
-17.82857079854235
 30
0.0
 10
17.79985692009661
 20
-18.12700250103113
 30
0.0
 10
17.68410965942606
 20
-18.42170183751929
 30
0.0
 10
17.60292082485518
 20
-18.71173254462414
 30
0.0
 10
17.54939934181224
 20
-18.99613235855502
 30
0.0
 10
17.54313383771518
 20
-19.18512703656001
 30
0.0
 10
17.54005249430208
 20
-19.27807366897137
 30
0.0
  0
SPLINE
  5
85
330
1F
100
AcDbEntity
  8
0
  6
Continuous
 62
     7
370
    25
100
AcDbSpline
210
0.0
220
0.0
230
1.0
 70
     8
 71
     3
 72
    15
 73
    11
 74
     0
 42
0.000000001
 43
0.00000001
 40
0.0
 40
0.0
 40
0.0
 40
0.0
 40
0.0888812143323871
 40
0.1843343916151796
 40
0.2885069067310128
 40
0.4043103583256774
 40
0.5323181142228702
 40
0.6739369441762518
 40
0.8292473789878433
 40
1.0
 40
1.0
 40
1.0
 40
1.0
 10
19.91119446961072
 20
-16.0062758294652
 30
0.0
 10
19.86227520072237
 20
-16.00883823810969
 30
0.0
 10
19.7608195248911
 20
-16.01415252237213
 30
0.0
 10
19.6082519451479
 20
-16.06162229635191
 30
0.0
 10
19.45018064832528
 20
-16.13288028144229
 30
0.0
 10
19.28624553359026
 20
-16.23231623507982
 30
0.0
 10
19.11944411693167
 20
-16.36311374241474
 30
0.0
 10
18.94484927215502
 20
-16.51823950582333
 30
0.0
 10
18.76654377226362
 20
-16.70351619629754
 30
0.0
 10
18.65017977738361
 20
-16.83967763224488
 30
0.0
 10
18.58924230911689
 20
-16.91098261958865
 30
0.0
  0
SPLINE
  5
86
330
1F
100
AcDbEntity
  8
0
  6
Continuous
 62
     7
370
    25
100
AcDbSpline
210
0.0
220
0.0
230
1.0
 70
     8
 71
     3
 72
    11
 73
     7
 74
     0
 42
0.000000001
 43
0.00000001
 40
0.0
 40
0.0
 40
0.0
 40
0.0
 40
0.1358211098360801
 40
0.3463996225971429
 40
0.6343142641199833
 40
1.0
 40
1.0
 40
1.0
 40
1.0
 10
20.27037656837616
 20
-16.03733292823063
 30
0.0
 10
20.25472500045769
 20
-16.0323489868185
 30
0.0
 10
20.21480707292377
 20
-16.01963788891707
 30
0.0
 10
20.13806489604819
 20
-16.01361767428202
 30
0.0
 10
20.03426182820578
 20
-16.00566859133064
 30
0.0
 10
19.9553469180785
 20
-16.00605797275039
 30
0.0
 10
19.91119446961072
 20
-16.0062758294652
 30
0.0
  0
SPLINE
  5
87
330
1F
100
AcDbEntity
  8
0
  6
Continuous
 62
     7
370
    25
100
AcDbSpline
210
0.0
220
0.0
230
1.0
 70
     8
 71
     3
 72
    11
 73
     7
 74
     0
 42
0.000000001
 43
0.00000001
 40
0.0
 40
0.0
 40
0.0
 40
0.0
 40
0.3278598741714521
 40
0.6022239941190017
 40
0.8211637364816504
 40
1.0
 40
1.0
 40
1.0
 40
1.0
 10
20.45266823504283
 20
-16.27633755786026
 30
0.0
 10
20.43803208385738
 20
-16.24622401391888
 30
0.0
 10
20.41114791131961
 20
-16.19091044816068
 30
0.0
 10
20.36527942513393
 20
-16.12110141805863
 30
0.0
 10
20.3218490917047
 20
-16.06665461352969
 30
0.0
 10
20.28634076864461
 20
-16.04642704730723
 30
0.0
 10
20.27037656837616
 20
-16.03733292823063
 30
0.0
  0
SPLINE
  5
88
330
1F
100
AcDbEntity
  8
0
  6
Continuous
 62
     7
370
    25
100
AcDbSpline
210
0.0
220
0.0
230
1.0
 70
     8
 71
     3
 72
    15
 73
    11
 74
     0
 42
0.000000001
 43
0.00000001
 40
0.0
 40
0.0
 40
0.0
 40
0.0
 40
0.1262705287800091
 40
0.2481242938892855
 40
0.36446448141997
 40
0.4804842602245711
 40
0.600689448171605
 40
0.7253698138129497
 40
0.8579787425566978
 40
0.9999999999999999
 40
0.9999999999999999
 40
0.9999999999999999
 40
0.9999999999999999
 10
21.05625619800579
 20
-16.69763385415655
 30
0.0
 10
21.02328318733303
 20
-16.69640630573254
 30
0.0
 10
20.95849051504735
 20
-16.69399414678407
 30
0.0
 10
20.86528322451752
 20
-16.67304481897722
 30
0.0
 10
20.77832937516705
 20
-16.64075079285906
 30
0.0
 10
20.69899616104331
 20
-16.59346768661322
 30
0.0
 10
20.62530479918394
 20
-16.53417711063319
 30
0.0
 10
20.56095640790856
 20
-16.45926267635463
 30
0.0
 10
20.50006407346185
 20
-16.37435765820443
 30
0.0
 10
20.46882374505667
 20
-16.3097490295314
 30
0.0
 10
20.45266823504283
 20
-16.27633755786026
 30
0.0
  0
SPLINE
  5
89
330
1F
100
AcDbEntity
  8
0
  6
Continuous
 62
     7
370
    25
100
AcDbSpline
210
0.0
220
0.0
230
1.0
 70
     8
 71
     3
 72
    11
 73
     7
 74
     0
 42
0.000000001
 43
0.00000001
 40
0.0
 40
0.0
 40
0.0
 40
0.0
 40
0.2477585569062527
 40
0.4864802576345836
 40
0.7328514173769295
 40
1.0
 40
1.0
 40
1.0
 40
1.0
 10
21.55587039553665
 20
-16.45322798995903
 30
0.0
 10
21.52566561907769
 20
-16.49060001814446
 30
0.0
 10
21.46635776865656
 20
-16.56398095048034
 30
0.0
 10
21.34647842879818
 20
-16.64291943337268
 30
0.0
 10
21.20737137228095
 20
-16.69048639414041
 30
0.0
 10
21.10796856205109
 20
-16.69518795779885
 30
0.0
 10
21.05625619800579
 20
-16.69763385415655
 30
0.0
  0
SPLINE
  5
8A
330
1F
100
AcDbEntity
  8
0
  6
Continuous
 62
     7
370
    25
100
AcDbSpline
210
0.0
220
0.0
230
1.0
 70
     8
 71
     3
 72
    11
 73
     7
 74
     0
 42
0.000000001
 43
0.00000001
 40
0.0
 40
0.0
 40
0.0
 40
0.0
 40
0.2525888393790068
 40
0.498513488792534
 40
0.7449939874661251
 40
1.0
 40
1.0
 40
1.0
 40
1.0
 10
8.29313891405517
 20
-16.04138385415656
 30
0.0
 10
8.291617425051557
 20
-16.07842746488839
 30
0.0
 10
8.28861458932368
 20
-16.15153734444126
 30
0.0
 10
8.263535762872316
 20
-16.25843443823252
 30
0.0
 10
8.221197116886367
 20
-16.36007115257864
 30
0.0
 10
8.181165005491584
 20
-16.42182575808613
 30
0.0
 10
8.160808667141591
 20
-16.45322798995903
 30
0.0
  0
SPLINE
  5
8B
330
1F
100
AcDbEntity
  8
0
  6
Continuous
 62
     7
370
    25
100
AcDbSpline
210
0.0
220
0.0
230
1.0
 70
     8
 71
     3
 72
    11
 73
     7
 74
     0
 42
0.000000001
 43
0.00000001
 40
0.0
 40
0.0
 40
0.0
 40
0.0
 40
0.2254236262558989
 40
0.4658310488981154
 40
0.7247883062604813
 40
1.0
 40
1.0
 40
1.0
 40
1.0
 10
8.21617132146258
 20
-15.15288076773681
 30
0.0
 10
8.228165770054558
 20
-15.21893098622688
 30
0.0
 10
8.25295193227435
 20
-15.35542174839859
 30
0.0
 10
8.276729354021816
 20
-15.57007859046659
 30
0.0
 10
8.289516692490562
 20
-15.80041867601266
 30
0.0
 10
8.291907259038153
 20
-15.95944906212528
 30
0.0
 10
8.29313891405517
 20
-16.04138385415656
 30
0.0
  0
SPLINE
  5
8C
330
1F
100
AcDbEntity
  8
0
  6
Continuous
 62
     7
370
    25
100
AcDbSpline
210
0.0
220
0.0
230
1.0
 70
     8
 71
     3
 72
    15
 73
    11
 74
     0
 42
0.000000001
 43
0.00000001
 40
0.0
 40
0.0
 40
0.0
 40
0.0
 40
0.1292142338163746
 40
0.2489023428491489
 40
0.3620780625704819
 40
0.4755480145954205
 40
0.5913129152720484
 40
0.7147596454060453
 40
0.8501712830451966
 40
0.9999999999999999
 40
0.9999999999999999
 40
0.9999999999999999
 40
0.9999999999999999
 10
7.640939839981097
 20
-14.62355978008249
 30
0.0
 10
7.677970217987904
 20
-14.62502958594785
 30
0.0
 10
7.749300965152965
 20
-14.62786083845476
 30
0.0
 10
7.851091129178818
 20
-14.65191019174387
 30
0.0
 10
7.940945213071461
 20
-14.6953187693385
 30
0.0
 10
8.020627619369462
 20
-14.75365449783129
 30
0.0
 10
8.087519625841713
 20
-14.83023238535233
 30
0.0
 10
8.143717928664161
 20
-14.92222383371224
 30
0.0
 10
8.186148386175166
 20
-15.03189568627068
 30
0.0
 10
8.20583204853445
 20
-15.11121602824564
 30
0.0
 10
8.21617132146258
 20
-15.15288076773681
 30
0.0
  0
SPLINE
  5
8D
330
1F
100
AcDbEntity
  8
0
  6
Continuous
 62
     7
370
    25
100
AcDbSpline
210
0.0
220
0.0
230
1.0
 70
     8
 71
     3
 72
    11
 73
     7
 74
     0
 42
0.000000001
 43
0.00000001
 40
0.0
 40
0.0
 40
0.0
 40
0.0
 40
0.2628053959024153
 40
0.5097285781626798
 40
0.751665368554773
 40
1.0
 40
1.0
 40
1.0
 40
1.0
 10
7.156179037511964
 20
-14.85176194057631
 30
0.0
 10
7.189921293065948
 20
-14.81684847186537
 30
0.0
 10
7.255366646227279
 20
-14.74913147273889
 30
0.0
 10
7.374604571711483
 20
-14.67599868776822
 30
0.0
 10
7.504752093912201
 20
-14.63240430502158
 30
0.0
 10
7.59515070302904
 20
-14.62653349229524
 30
0.0
 10
7.640939839981097
 20
-14.62355978008249
 30
0.0
  0
SPLINE
  5
8E
330
1F
100
AcDbEntity
  8
0
  6
Continuous
 62
     7
370
    25
100
AcDbSpline
210
0.0
220
0.0
230
1.0
 70
     8
 71
     3
 72
    11
 73
     7
 74
     0
 42
0.000000001
 43
0.00000001
 40
0.0
 40
0.0
 40
0.0
 40
0.0
 40
0.2928656679448108
 40
0.557115505846322
 40
0.7930897736163757
 40
1.0
 40
1.0
 40
1.0
 40
1.0
 10
6.509381198005787
 20
-14.79639928625532
 30
0.0
 10
6.57287340019834
 20
-14.79712045554104
 30
0.0
 10
6.693653997630694
 20
-14.79849232884469
 30
0.0
 10
6.865164925304562
 20
-14.81016824501877
 30
0.0
 10
7.018007426338471
 20
-14.8239634076694
 30
0.0
 10
7.112181882034836
 20
-14.84291022086375
 30
0.0
 10
7.156179037511964
 20
-14.85176194057632
 30
0.0
  0
SPLINE
  5
8F
330
1F
100
AcDbEntity
  8
0
  6
Continuous
 62
     7
370
    25
100
AcDbSpline
210
0.0
220
0.0
230
1.0
 70
     8
 71
     3
 72
    15
 73
    11
 74
     0
 42
0.000000001
 43
0.00000001
 40
0.0
 40
0.0
 40
0.0
 40
0.0
 40
0.1533428477926651
 40
0.2965279473617495
 40
0.4298423077045197
 40
0.5545651086445461
 40
0.6723133508678253
 40
0.7847026579913552
 40
0.8931340637909875
 40
1.0
 40
1.0
 40
1.0
 40
1.0
 10
4.185500025166281
 20
-16.14670792823063
 30
0.0
 10
4.279009396636662
 20
-16.04004173563181
 30
0.0
 10
4.45983388490162
 20
-15.83377514022469
 30
0.0
 10
4.745734497146159
 20
-15.55659956880569
 30
0.0
 10
5.036303754332394
 20
-15.3251407981201
 30
0.0
 10
5.325478121696807
 20
-15.13119192640118
 30
0.0
 10
5.619389316636241
 20
-14.98335561884842
 30
0.0
 10
5.913584457991533
 20
-14.8741695425615
 30
0.0
 10
6.211342927754777
 20
-14.80988364638384
 30
0.0
 10
6.410517854695222
 20
-14.80087223170487
 30
0.0
 10
6.509381198005787
 20
-14.79639928625532
 30
0.0
  0
SPLINE
  5
90
330
1F
100
AcDbEntity
  8
0
  6
Continuous
 62
     7
370
    25
100
AcDbSpline
210
0.0
220
0.0
230
1.0
 70
     8
 71
     3
 72
    15
 73
    11
 74
     0
 42
0.000000001
 43
0.00000001
 40
0.0
 40
0.0
 40
0.0
 40
0.0
 40
0.110874935813518
 40
0.2234861543471113
 40
0.3389568583901727
 40
0.4593741527838336
 40
0.5843987264552278
 40
0.7157889251354737
 40
0.8539918687049037
 40
1.0
 40
1.0
 40
1.0
 40
1.0
 10
2.848694469610724
 20
-19.2659208911936
 30
0.0
 10
2.852400995253864
 20
-19.137820936323
 30
0.0
 10
2.859872090104076
 20
-18.87961500298008
 30
0.0
 10
2.927494395228734
 20
-18.4930042849364
 30
0.0
 10
3.031429762281684
 20
-18.10384289534432
 30
0.0
 10
3.180141408472913
 20
-17.71384757536577
 30
0.0
 10
3.369397263632015
 20
-17.32158642844428
 30
0.0
 10
3.600364339615518
 20
-16.92839249502964
 30
0.0
 10
3.872426285453617
 20
-16.53251612805291
 30
0.0
 10
4.079248814066114
 20
-16.27764381739565
 30
0.0
 10
4.185500025166281
 20
-16.14670792823063
 30
0.0
  0
SPLINE
  5
91
330
1F
100
AcDbEntity
  8
0
  6
Continuous
 62
     7
370
    25
100
AcDbSpline
210
0.0
220
0.0
230
1.0
 70
     8
 71
     3
 72
    15
 73
    11
 74
     0
 42
0.000000001
 43
0.00000001
 40
0.0
 40
0.0
 40
0.0
 40
0.0
 40
0.129496667473633
 40
0.2552786623377701
 40
0.3788351760455445
 40
0.5015984661865545
 40
0.623041074596439
 40
0.7461265007762001
 40
0.8713854740575353
 40
0.9999999999999999
 40
0.9999999999999999
 40
0.9999999999999999
 40
0.9999999999999999
 10
3.522498481956404
 20
-20.96190854551458
 30
0.0
 10
3.468584648693519
 20
-20.90170925481472
 30
0.0
 10
3.362303525747609
 20
-20.78303751828779
 30
0.0
 10
3.226238866718016
 20
-20.58937264904201
 30
0.0
 10
3.108377165977679
 20
-20.38910906552026
 30
0.0
 10
3.014905741017635
 20
-20.17928303848763
 30
0.0
 10
2.938890762864091
 20
-19.96287971472768
 30
0.0
 10
2.886793609979968
 20
-19.73784796461953
 30
0.0
 10
2.855030437308288
 20
-19.50448626817588
 30
0.0
 10
2.850824987243157
 20
-19.3461403251315
 30
0.0
 10
2.848694469610724
 20
-19.2659208911936
 30
0.0
  0
SPLINE
  5
92
330
1F
100
AcDbEntity
  8
0
  6
Continuous
 62
     7
370
    25
100
AcDbSpline
210
0.0
220
0.0
230
1.0
 70
     8
 71
     3
 72
    15
 73
    11
 74
     0
 42
0.000000001
 43
0.00000001
 40
0.0
 40
0.0
 40
0.0
 40
0.0
 40
0.1296621917608174
 40
0.2549177064083611
 40
0.377690732464072
 40
0.4995262510959349
 40
0.6206593808528245
 40
0.7440763722766267
 40
0.870003585873836
 40
1.0
 40
1.0
 40
1.0
 40
1.0
 10
5.250893543684798
 20
-21.70997953316891
 30
0.0
 10
5.167041567309502
 20
-21.70765369895811
 30
0.0
 10
5.002187393512797
 20
-21.70308107594094
 30
0.0
 10
4.760218678439815
 20
-21.66666859235973
 30
0.0
 10
4.527666719183824
 20
-21.60931435032616
 30
0.0
 10
4.306022957373937
 20
-21.52581045952235
 30
0.0
 10
4.092567796780015
 20
-21.42198854221105
 30
0.0
 10
3.892049600039117
 20
-21.29031562664831
 30
0.0
 10
3.697759291264382
 20
-21.13981553079794
 30
0.0
 10
3.581534744073543
 20
-21.02183616685292
 30
0.0
 10
3.522498481956404
 20
-20.96190854551459
 30
0.0
  0
SPLINE
  5
93
330
1F
100
AcDbEntity
  8
0
  6
Continuous
 62
     7
370
    25
100
AcDbSpline
210
0.0
220
0.0
230
1.0
 70
     8
 71
     3
 72
    15
 73
    11
 74
     0
 42
0.000000001
 43
0.00000001
 40
0.0
 40
0.0
 40
0.0
 40
0.0
 40
0.141934591716736
 40
0.2771457898845901
 40
0.4066377745591135
 40
0.5312147550221749
 40
0.6520648532999795
 40
0.7693694791927336
 40
0.8852949298658945
 40
1.0
 40
1.0
 40
1.0
 40
1.0
 10
7.797575642450233
 20
-20.64998724921829
 30
0.0
 10
7.694386066062597
 20
-20.73442657676463
 30
0.0
 10
7.492894968579591
 20
-20.89930536950361
 30
0.0
 10
7.176545644530213
 20
-21.11402659126873
 30
0.0
 10
6.860092792887178
 20
-21.29758114939126
 30
0.0
 10
6.541752211346681
 20
-21.44900591384413
 30
0.0
 10
6.221137776341215
 20
-21.56572481872098
 30
0.0
 10
5.898702626455949
 20
-21.64836497882587
 30
0.0
 10
5.575343044830795
 20
-21.70083660956054
 30
0.0
 10
5.358661186986427
 20
-21.70694266201737
 30
0.0
 10
5.250893543684798
 20
-21.70997953316891
 30
0.0
  0
SPLINE
  5
94
330
1F
100
AcDbEntity
  8
0
  6
Continuous
 62
     7
370
    25
100
AcDbSpline
210
0.0
220
0.0
230
1.0
 70
     8
 71
     3
 72
    11
 73
     7
 74
     0
 42
0.000000001
 43
0.00000001
 40
0.0
 40
0.0
 40
0.0
 40
0.0
 40
0.2403977475396617
 40
0.4788826223878935
 40
0.7273205224254885
 40
1.0
 40
1.0
 40
1.0
 40
1.0
 10
8.033879654795912
 20
-20.18007984181088
 30
0.0
 10
8.031137744693211
 20
-20.22372400206146
 30
0.0
 10
8.025675742183742
 20
-20.31066504092982
 30
0.0
 10
7.977435839699274
 20
-20.43485777196999
 30
0.0
 10
7.903448973224203
 20
-20.55207011479624
 30
0.0
 10
7.833944499716278
 20
-20.61635144821285
 30
0.0
 10
7.797575642450233
 20
-20.64998724921829
 30
0.0
  0
SPLINE
  5
95
330
1F
100
AcDbEntity
  8
0
  6
Continuous
 62
     7
370
    25
100
AcDbSpline
210
0.0
220
0.0
230
1.0
 70
     8
 71
     3
 72
    11
 73
     7
 74
     0
 42
0.000000001
 43
0.00000001
 40
0.0
 40
0.0
 40
0.0
 40
0.0
 40
0.260766012419919
 40
0.5084809888715031
 40
0.7519109666463577
 40
1.0
 40
1.0
 40
1.0
 40
1.0
 10
7.856989222697147
 20
-19.75068169366273
 30
0.0
 10
7.883961730589944
 20
-19.78216604981831
 30
0.0
 10
7.93655680369168
 20
-19.84355900668184
 30
0.0
 10
7.992122236551019
 20
-19.94991311711702
 30
0.0
 10
8.028293838584617
 20
-20.06251194308974
 30
0.0
 10
8.032005987040826
 20
-20.14064367482386
 30
0.0
 10
8.033879654795912
 20
-20.18007984181088
 30
0.0
  0
SPLINE
  5
96
330
1F
100
AcDbEntity
  8
0
  6
Continuous
 62
     7
370
    25
100
AcDbSpline
210
0.0
220
0.0
230
1.0
 70
     8
 71
     3
 72
    11
 73
     7
 74
     0
 42
0.000000001
 43
0.00000001
 40
0.0
 40
0.0
 40
0.0
 40
0.0
 40
0.2544450881954352
 40
0.498139378103894
 40
0.7427418052481402
 40
1.0
 40
1.0
 40
1.0
 40
1.0
 10
7.396533975783568
 20
-19.54948570600841
 30
0.0
 10
7.440499751925462
 20
-19.55156841141662
 30
0.0
 10
7.526573664927691
 20
-19.55564582389166
 30
0.0
 10
7.649669936584724
 20
-19.59546930273957
 30
0.0
 10
7.762026193860475
 20
-19.66012684204214
 30
0.0
 10
7.824807149442045
 20
-19.71999351001738
 30
0.0
 10
7.856989222697147
 20
-19.75068169366273
 30
0.0
  0
SPLINE
  5
97
330
1F
100
AcDbEntity
  8
0
  6
Continuous
 62
     7
370
    25
100
AcDbSpline
210
0.0
220
0.0
230
1.0
 70
     8
 71
     3
 72
    11
 73
     7
 74
     0
 42
0.000000001
 43
0.00000001
 40
0.0
 40
0.0
 40
0.0
 40
0.0
 40
0.3326274968148576
 40
0.6064790044675207
 40
0.8275200183591624
 40
1.0
 40
1.0
 40
1.0
 40
1.0
 10
6.863162062203318
 20
-19.79389157020594
 30
0.0
 10
6.91799949480508
 20
-19.75741894153895
 30
0.0
 10
7.017984468537963
 20
-19.69091847559406
 30
0.0
 10
7.161557870240899
 20
-19.61262551917146
 30
0.0
 10
7.284666882829304
 20
-19.56102535184165
 30
0.0
 10
7.362444221671614
 20
-19.55300223333209
 30
0.0
 10
7.396533975783568
 20
-19.54948570600841
 30
0.0
  0
SPLINE
  5
98
330
1F
100
AcDbEntity
  8
0
  6
Continuous
 62
     7
370
    25
100
AcDbSpline
210
0.0
220
0.0
230
1.0
 70
     8
 71
     3
 72
    15
 73
    11
 74
     0
 42
0.000000001
 43
0.00000001
 40
0.0
 40
0.0
 40
0.0
 40
0.0
 40
0.0643057612832582
 40
0.146223089463003
 40
0.2452511493749104
 40
0.3614547767644584
 40
0.4952914201242225
 40
0.6454129611195462
 40
0.8140910637348452
 40
1.0
 40
1.0
 40
1.0
 40
1.0
 10
6.175854963437886
 20
-20.2556971257615
 30
0.0
 10
6.191171056478352
 20
-20.24671696212942
 30
0.0
 10
6.225997896223149
 20
-20.22629721677593
 30
0.0
 10
6.284083169303761
 20
-20.19147880791894
 30
0.0
 10
6.352841915677219
 20
-20.14668758041247
 30
0.0
 10
6.432288294085008
 20
-20.09212560343889
 30
0.0
 10
6.524012270909006
 20
-20.03053040059698
 30
0.0
 10
6.627076707271945
 20
-19.95984724016418
 30
0.0
 10
6.741681703010947
 20
-19.880569450659
 30
0.0
 10
6.821377691193939
 20
-19.82370528444943
 30
0.0
 10
6.863162062203318
 20
-19.79389157020594
 30
0.0
  0
SPLINE
  5
99
330
1F
100
AcDbEntity
  8
0
  6
Continuous
 62
     7
370
    25
100
AcDbSpline
210
0.0
220
0.0
230
1.0
 70
     8
 71
     3
 72
    11
 73
     7
 74
     0
 42
0.000000001
 43
0.00000001
 40
0.0
 40
0.0
 40
0.0
 40
0.0
 40
0.2364526680915179
 40
0.4800713604396706
 40
0.733564696302675
 40
1.0
 40
1.0
 40
1.0
 40
1.0
 10
5.267097247388504
 20
-20.50010298995903
 30
0.0
 10
5.342046657856106
 20
-20.4972661319788
 30
0.0
 10
5.49421692405673
 20
-20.49150644112423
 30
0.0
 10
5.722347830772787
 20
-20.44275347129261
 30
0.0
 10
5.952278256845286
 20
-20.36597437924837
 30
0.0
 10
6.100102853703722
 20
-20.29306119080492
 30
0.0
 10
6.175854963437886
 20
-20.2556971257615
 30
0.0
  0
SPLINE
  5
9A
330
1F
100
AcDbEntity
  8
0
  6
Continuous
 62
     7
370
    25
100
AcDbSpline
210
0.0
220
0.0
230
1.0
 70
     8
 71
     3
 72
    23
 73
    19
 74
     0
 42
0.000000001
 43
0.00000001
 40
0.0
 40
0.0
 40
0.0
 40
0.0
 40
0.0667415635144173
 40
0.131722384617835
 40
0.1955402466158481
 40
0.2587961979932265
 40
0.3211416983079126
 40
0.3841254700653614
 40
0.448354225899779
 40
0.5133680867008223
 40
0.5781337389316612
 40
0.6406168674498455
 40
0.7007710430992538
 40
0.7600848658902807
 40
0.8192718334308255
 40
0.8782725565501929
 40
0.938382090875716
 40
1.0
 40
1.0
 40
1.0
 40
1.0
 10
4.144990765907027
 20
-19.27807366897137
 30
0.0
 10
4.146120824278787
 20
-19.31907485207526
 30
0.0
 10
4.148351128389876
 20
-19.39999554566118
 30
0.0
 10
4.163290599716089
 20
-19.51939584383935
 30
0.0
 10
4.188894884318333
 20
-19.63475182800622
 30
0.0
 10
4.225562998195189
 20
-19.74536783875031
 30
0.0
 10
4.271661619130819
 20
-19.85183211603862
 30
0.0
 10
4.328782625791596
 20
-19.95354492532256
 30
0.0
 10
4.396420128386542
 20
-20.05053005213322
 30
0.0
 10
4.472918009478189
 20
-20.14212924690169
 30
0.0
 10
4.557288414534594
 20
-20.2250792729229
 30
0.0
 10
4.64660689441309
 20
-20.2978368842867
 30
0.0
 10
4.738693725182694
 20
-20.36170854359992
 30
0.0
 10
4.837121461586484
 20
-20.41066420909307
 30
0.0
 10
4.937949425516564
 20
-20.45292649523648
 30
0.0
 10
5.044745674973865
 20
-20.47835904657964
 30
0.0
 10
5.154326307230603
 20
-20.49762586231595
 30
0.0
 10
5.229197680014952
 20
-20.49927048766837
 30
0.0
 10
5.267097247388504
 20
-20.50010298995903
 30
0.0
  0
SPLINE
  5
9B
330
1F
100
AcDbEntity
  8
0
  6
Continuous
 62
     7
370
    25
100
AcDbSpline
210
0.0
220
0.0
230
1.0
 70
     8
 71
     3
 72
    15
 73
    11
 74
     0
 42
0.000000001
 43
0.00000001
 40
0.0
 40
0.0
 40
0.0
 40
0.0
 40
0.1508039396464644
 40
0.2930916518184466
 40
0.4263228138164964
 40
0.5525746424538579
 40
0.6722407003572165
 40
0.7854138771115422
 40
0.8944676236641635
 40
1.0
 40
1.0
 40
1.0
 40
1.0
 10
5.194180580721838
 20
-16.91098261958865
 30
0.0
 10
5.110904023892658
 20
-17.01437364545009
 30
0.0
 10
4.949053719079416
 20
-17.2153169803787
 30
0.0
 10
4.736012089330104
 20
-17.52462786944992
 30
0.0
 10
4.554864298588784
 20
-17.82857079854235
 30
0.0
 10
4.404795191701553
 20
-18.12700250103113
 30
0.0
 10
4.289047931031006
 20
-18.4217018375193
 30
0.0
 10
4.207859096460119
 20
-18.71173254462414
 30
0.0
 10
4.154337613417179
 20
-18.99613235855502
 30
0.0
 10
4.148072109320125
 20
-19.18512703656001
 30
0.0
 10
4.144990765907027
 20
-19.27807366897138
 30
0.0
  0
SPLINE
  5
9C
330
1F
100
AcDbEntity
  8
0
  6
Continuous
 62
     7
370
    25
100
AcDbSpline
210
0.0
220
0.0
230
1.0
 70
     8
 71
     3
 72
    15
 73
    11
 74
     0
 42
0.000000001
 43
0.00000001
 40
0.0
 40
0.0
 40
0.0
 40
0.0
 40
0.0888812143323884
 40
0.1843343916151794
 40
0.288506906731013
 40
0.4043103583256786
 40
0.5323181142228712
 40
0.6739369441762532
 40
0.8292473789878438
 40
1.0
 40
1.0
 40
1.0
 40
1.0
 10
6.516132741215666
 20
-16.00627582946521
 30
0.0
 10
6.467213472327309
 20
-16.0088382381097
 30
0.0
 10
6.365757796496049
 20
-16.01415252237214
 30
0.0
 10
6.213190216752845
 20
-16.06162229635191
 30
0.0
 10
6.05511891993022
 20
-16.1328802814423
 30
0.0
 10
5.891183805195197
 20
-16.23231623507982
 30
0.0
 10
5.724382388536613
 20
-16.36311374241475
 30
0.0
 10
5.549787543759955
 20
-16.51823950582333
 30
0.0
 10
5.371482043868572
 20
-16.70351619629755
 30
0.0
 10
5.255118048988552
 20
-16.83967763224488
 30
0.0
 10
5.194180580721838
 20
-16.91098261958865
 30
0.0
  0
SPLINE
  5
9D
330
1F
100
AcDbEntity
  8
0
  6
Continuous
 62
     7
370
    25
100
AcDbSpline
210
0.0
220
0.0
230
1.0
 70
     8
 71
     3
 72
    11
 73
     7
 74
     0
 42
0.000000001
 43
0.00000001
 40
0.0
 40
0.0
 40
0.0
 40
0.0
 40
0.135821109836078
 40
0.3463996225971412
 40
0.6343142641199898
 40
1.0
 40
1.0
 40
1.0
 40
1.0
 10
6.875314839981099
 20
-16.03733292823063
 30
0.0
 10
6.859663272062624
 20
-16.0323489868185
 30
0.0
 10
6.81974534452872
 20
-16.01963788891707
 30
0.0
 10
6.743003167653132
 20
-16.01361767428203
 30
0.0
 10
6.63920009981072
 20
-16.00566859133064
 30
0.0
 10
6.560285189683442
 20
-16.00605797275039
 30
0.0
 10
6.516132741215666
 20
-16.00627582946521
 30
0.0
  0
SPLINE
  5
9E
330
1F
100
AcDbEntity
  8
0
  6
Continuous
 62
     7
370
    25
100
AcDbSpline
210
0.0
220
0.0
230
1.0
 70
     8
 71
     3
 72
    11
 73
     7
 74
     0
 42
0.000000001
 43
0.00000001
 40
0.0
 40
0.0
 40
0.0
 40
0.0
 40
0.3278598741714545
 40
0.6022239941189992
 40
0.8211637364816459
 40
1.0
 40
1.0
 40
1.0
 40
1.0
 10
7.057606506647766
 20
-16.27633755786026
 30
0.0
 10
7.042970355462308
 20
-16.24622401391888
 30
0.0
 10
7.016086182924548
 20
-16.19091044816068
 30
0.0
 10
6.970217696738869
 20
-16.12110141805863
 30
0.0
 10
6.926787363309643
 20
-16.0666546135297
 30
0.0
 10
6.891279040249547
 20
-16.04642704730723
 30
0.0
 10
6.875314839981099
 20
-16.03733292823063
 30
0.0
  0
SPLINE
  5
9F
330
1F
100
AcDbEntity
  8
0
  6
Continuous
 62
     7
370
    25
100
AcDbSpline
210
0.0
220
0.0
230
1.0
 70
     8
 71
     3
 72
    15
 73
    11
 74
     0
 42
0.000000001
 43
0.00000001
 40
0.0
 40
0.0
 40
0.0
 40
0.0
 40
0.1262705287800093
 40
0.2481242938892866
 40
0.3644644814199716
 40
0.4804842602245726
 40
0.6006894481716101
 40
0.7253698138129507
 40
0.8579787425566981
 40
1.0
 40
1.0
 40
1.0
 40
1.0
 10
7.661194469610728
 20
-16.69763385415656
 30
0.0
 10
7.628221458937968
 20
-16.69640630573254
 30
0.0
 10
7.563428786652282
 20
-16.69399414678408
 30
0.0
 10
7.470221496122448
 20
-16.67304481897722
 30
0.0
 10
7.383267646771989
 20
-16.64075079285907
 30
0.0
 10
7.303934432648249
 20
-16.59346768661323
 30
0.0
 10
7.230243070788893
 20
-16.5341771106332
 30
0.0
 10
7.165894679513493
 20
-16.45926267635462
 30
0.0
 10
7.105002345066801
 20
-16.37435765820443
 30
0.0
 10
7.0737620166616
 20
-16.30974902953141
 30
0.0
 10
7.057606506647766
 20
-16.27633755786026
 30
0.0
  0
SPLINE
  5
A0
330
1F
100
AcDbEntity
  8
0
  6
Continuous
 62
     7
370
    25
100
AcDbSpline
210
0.0
220
0.0
230
1.0
 70
     8
 71
     3
 72
    11
 73
     7
 74
     0
 42
0.000000001
 43
0.00000001
 40
0.0
 40
0.0
 40
0.0
 40
0.0
 40
0.2477585569062574
 40
0.4864802576345852
 40
0.7328514173769277
 40
0.9999999999999999
 40
0.9999999999999999
 40
0.9999999999999999
 40
0.9999999999999999
 10
8.160808667141591
 20
-16.45322798995903
 30
0.0
 10
8.130603890682632
 20
-16.49060001814447
 30
0.0
 10
8.071296040261515
 20
-16.56398095048036
 30
0.0
 10
7.951416700403113
 20
-16.64291943337268
 30
0.0
 10
7.812309643885886
 20
-16.69048639414042
 30
0.0
 10
7.712906833656039
 20
-16.69518795779885
 30
0.0
 10
7.661194469610728
 20
-16.69763385415656
 30
0.0
  0
SPLINE
  5
A2
330
1F
100
AcDbEntity
  8
0
  6
Continuous
 62
     7
370
    25
100
AcDbSpline
210
0.0
220
0.0
230
1.0
 70
     8
 71
     3
 72
    15
 73
    11
 74
     0
 42
0.000000001
 43
0.00000001
 40
0.0
 40
0.0
 40
0.0
 40
0.0
 40
0.1175163833693655
 40
0.2300270441287734
 40
0.3426244016151733
 40
0.4587205952538431
 40
0.5792296780935863
 40
0.7080268408783295
 40
0.8484237414340913
 40
0.9999999999999999
 40
0.9999999999999999
 40
0.9999999999999999
 40
0.9999999999999999
 10
-6.882979913105325
 20
-21.79639928625533
 30
0.0
 10
-6.91687111146333
 20
-21.79481362300915
 30
0.0
 10
-6.983209880209916
 20
-21.7917098393575
 30
0.0
 10
-7.07973591124985
 20
-21.76799796787456
 30
0.0
 10
-7.170177573484795
 20
-21.72823372508822
 30
0.0
 10
-7.254203414783874
 20
-21.67205272733555
 30
0.0
 10
-7.332329817594213
 20
-21.60080788646067
 30
0.0
 10
-7.40243255375328
 20
-21.51265360506877
 30
0.0
 10
-7.467553411506795
 20
-21.41001002344413
 30
0.0
 10
-7.503180364302871
 20
-21.33370026337753
 30
0.0
 10
-7.521675900759639
 20
-21.29408447144051
 30
0.0
  0
SPLINE
  5
A3
330
1F
100
AcDbEntity
  8
0
  6
Continuous
 62
     7
370
    25
100
AcDbSpline
210
0.0
220
0.0
230
1.0
 70
     8
 71
     3
 72
    15
 73
    11
 74
     0
 42
0.000000001
 43
0.00000001
 40
0.0
 40
0.0
 40
0.0
 40
0.0
 40
0.1416471353226496
 40
0.2736836403914248
 40
0.3990509200922991
 40
0.5198753800032956
 40
0.6373982475285723
 40
0.7542311509647125
 40
0.8749663591849239
 40
1.0
 40
1.0
 40
1.0
 40
1.0
 10
-6.225379604463344
 20
-21.37510298995903
 30
0.0
 10
-6.245321865471332
 20
-21.40847844271597
 30
0.0
 10
-6.283853323081602
 20
-21.47296485389136
 30
0.0
 10
-6.352486091415463
 20
-21.55853285954283
 30
0.0
 10
-6.4252223516729
 20
-21.63283419476204
 30
0.0
 10
-6.505593102474686
 20
-21.69251966258068
 30
0.0
 10
-6.591451061658593
 20
-21.73928653090222
 30
0.0
 10
-6.683588031846995
 20
-21.77163137009263
 30
0.0
 10
-6.781200039998033
 20
-21.79277829230501
 30
0.0
 10
-6.848660003059851
 20
-21.79517829645787
 30
0.0
 10
-6.882979913105325
 20
-21.79639928625533
 30
0.0
  0
SPLINE
  5
A4
330
1F
100
AcDbEntity
  8
0
  6
Continuous
 62
     7
370
    25
100
AcDbSpline
210
0.0
220
0.0
230
1.0
 70
     8
 71
     3
 72
    11
 73
     7
 74
     0
 42
0.000000001
 43
0.00000001
 40
0.0
 40
0.0
 40
0.0
 40
0.0
 40
0.2832893838145709
 40
0.5436145596170174
 40
0.782323714498398
 40
1.0
 40
1.0
 40
1.0
 40
1.0
 10
-5.867547814339888
 20
-20.56356749613187
 30
0.0
 10
-5.895558270986166
 20
-20.64264226918225
 30
0.0
 10
-5.949308580473247
 20
-20.79438179909252
 30
0.0
 10
-6.039318156242611
 20
-21.00787542545594
 30
0.0
 10
-6.128548700748221
 20
-21.20053912423874
 30
0.0
 10
-6.194109780598457
 20
-21.31873068396149
 30
0.0
 10
-6.225379604463344
 20
-21.37510298995903
 30
0.0
  0
SPLINE
  5
A6
330
1F
100
AcDbEntity
  8
0
  6
Continuous
 62
     7
370
    25
100
AcDbSpline
210
0.0
220
0.0
230
1.0
 70
     8
 71
     3
 72
    15
 73
    11
 74
     0
 42
0.000000001
 43
0.00000001
 40
0.0
 40
0.0
 40
0.0
 40
0.0
 40
0.0852021208699485
 40
0.1811408487560434
 40
0.2892951338442348
 40
0.4081901730222831
 40
0.5390771119620167
 40
0.6815590433277865
 40
0.8347840116934638
 40
1.0
 40
1.0
 40
1.0
 40
1.0
 10
-4.895325592117667
 20
-17.822440952922
 30
0.0
 10
-4.914175389835976
 20
-17.87692240005663
 30
0.0
 10
-4.954250311947198
 20
-17.99275068548733
 30
0.0
 10
-5.01943363770041
 20
-18.17732546398059
 30
0.0
 10
-5.093441234010225
 20
-18.38295656829314
 30
0.0
 10
-5.176430615909784
 20
-18.61048357972796
 30
0.0
 10
-5.266262697595517
 20
-18.86023746238196
 30
0.0
 10
-5.366356304989953
 20
-19.13097443155269
 30
0.0
 10
-5.474820725600099
 20
-19.42337809087578
 30
0.0
 10
-5.54936058291576
 20
-19.62553991191969
 30
0.0
 10
-5.588033925451
 20
-19.7304270640331
 30
0.0
  0
SPLINE
  5
A7
330
1F
100
AcDbEntity
  8
0
  6
Continuous
 62
     7
370
    25
100
AcDbSpline
210
0.0
220
0.0
230
1.0
 70
     8
 71
     3
 72
    15
 73
    11
 74
     0
 42
0.000000001
 43
0.00000001
 40
0.0
 40
0.0
 40
0.0
 40
0.0
 40
0.0927981793348878
 40
0.1949004264277452
 40
0.3060510300412716
 40
0.4265710855372599
 40
0.5560488375164456
 40
0.6944957856521372
 40
0.8424764413871758
 40
0.9999999999999999
 40
0.9999999999999999
 40
0.9999999999999999
 40
0.9999999999999999
 10
-4.411915098290503
 20
-20.16522644674915
 30
0.0
 10
-4.431235736733257
 20
-20.09376490505074
 30
0.0
 10
-4.471814126291523
 20
-19.94367699330473
 30
0.0
 10
-4.526882995256207
 20
-19.70581669946031
 30
0.0
 10
-4.587528049634152
 20
-19.44657537122974
 30
0.0
 10
-4.645893641436319
 20
-19.1644540813516
 30
0.0
 10
-4.706813381457314
 20
-18.86065946456663
 30
0.0
 10
-4.768884695603097
 20
-18.53476204092522
 30
0.0
 10
-4.832384684245198
 20
-18.18637712158015
 30
0.0
 10
-4.873912889965921
 20
-17.94625322454532
 30
0.0
 10
-4.895325592117667
 20
-17.82244095292199
 30
0.0
  0
SPLINE
  5
A9
330
1F
100
AcDbEntity
  8
0
  6
Continuous
 62
     7
370
    25
100
AcDbSpline
210
0.0
220
0.0
230
1.0
 70
     8
 71
     3
 72
    15
 73
    11
 74
     0
 42
0.000000001
 43
0.00000001
 40
0.0
 40
0.0
 40
0.0
 40
0.0
 40
0.1095682848856299
 40
0.215867261862171
 40
0.322944468420166
 40
0.4348797819606413
 40
0.557010022789955
 40
0.6897748546797037
 40
0.8367269669562719
 40
1.0
 40
1.0
 40
1.0
 40
1.0
 10
-3.423489172364583
 20
-21.96923879242816
 30
0.0
 10
-3.463364800011706
 20
-21.96738152215441
 30
0.0
 10
-3.541926242898251
 20
-21.96372239899706
 30
0.0
 10
-3.654812810998477
 20
-21.92787428249954
 30
0.0
 10
-3.759317448926339
 20
-21.87160140097872
 30
0.0
 10
-3.855277283311489
 20
-21.79222081446931
 30
0.0
 10
-3.943229972708566
 20
-21.69148037374845
 30
0.0
 10
-4.020876342167321
 20
-21.56755835383791
 30
0.0
 10
-4.093394416086596
 20
-21.42366787061771
 30
0.0
 10
-4.131336449807358
 20
-21.31753520990316
 30
0.0
 10
-4.151305530389275
 20
-21.2616770640331
 30
0.0
  0
SPLINE
  5
AA
330
1F
100
AcDbEntity
  8
0
  6
Continuous
 62
     7
370
    25
100
AcDbSpline
210
0.0
220
0.0
230
1.0
 70
     8
 71
     3
 72
    11
 73
     7
 74
     0
 42
0.000000001
 43
0.00000001
 40
0.0
 40
0.0
 40
0.0
 40
0.0
 40
0.2592382215246015
 40
0.5070361526485518
 40
0.7499848397930552
 40
1.0
 40
1.0
 40
1.0
 40
1.0
 10
-2.979237629154703
 20
-21.80585144674916
 30
0.0
 10
-3.012672972699574
 20
-21.8309229847541
 30
0.0
 10
-3.078068144189996
 20
-21.87995964337739
 30
0.0
 10
-3.187910625706294
 20
-21.93184916342867
 30
0.0
 10
-3.303891030727986
 20
-21.96264526626733
 30
0.0
 10
-3.383243959192289
 20
-21.96702004669961
 30
0.0
 10
-3.423489172364583
 20
-21.96923879242816
 30
0.0
  0
SPLINE
  5
AB
330
1F
100
AcDbEntity
  8
0
  6
Continuous
 62
     7
370
    25
100
AcDbSpline
210
0.0
220
0.0
230
1.0
 70
     8
 71
     3
 72
    11
 73
     7
 74
     0
 42
0.000000001
 43
0.00000001
 40
0.0
 40
0.0
 40
0.0
 40
0.0
 40
0.2518084422314629
 40
0.4935502957564957
 40
0.7408478722308554
 40
1.0
 40
1.0
 40
1.0
 40
1.0
 10
-2.768589481006556
 20
-21.35619866897137
 30
0.0
 10
-2.771119025863945
 20
-21.39929785789868
 30
0.0
 10
-2.776076991535911
 20
-21.48377325218422
 30
0.0
 10
-2.817625470376186
 20
-21.60470394484935
 30
0.0
 10
-2.884239800895749
 20
-21.71529894036606
 30
0.0
 10
-2.947081372080405
 20
-21.77519990736828
 30
0.0
 10
-2.979237629154703
 20
-21.80585144674915
 30
0.0
  0
SPLINE
  5
AC
330
1F
100
AcDbEntity
  8
0
  6
Continuous
 62
     7
370
    25
100
AcDbSpline
210
0.0
220
0.0
230
1.0
 70
     8
 71
     3
 72
    23
 73
    19
 74
     0
 42
0.000000001
 43
0.00000001
 40
0.0
 40
0.0
 40
0.0
 40
0.0
 40
0.1120961989120778
 40
0.2177405167406984
 40
0.3171704629323396
 40
0.4095655690159217
 40
0.4946914619803324
 40
0.5744251779496453
 40
0.6460724708273389
 40
0.7123303930202272
 40
0.7715502313963865
 40
0.8235153585647725
 40
0.8692691512403156
 40
0.9088125637947717
 40
0.9419607643442558
 40
0.9672397174128147
 40
0.9871674340023904
 40
1.0
 40
1.0
 40
1.0
 40
1.0
 10
-3.177732999525076
 20
-19.8289995948973
 30
0.0
 10
-3.160969601410039
 20
-19.8856807946145
 30
0.0
 10
-3.128407650127812
 20
-19.99578081438043
 30
0.0
 10
-3.082783432008365
 20
-20.15668108726604
 30
0.0
 10
-3.039837809747051
 20
-20.30754099241305
 30
0.0
 10
-2.99893562792157
 20
-20.44773236555875
 30
0.0
 10
-2.962439631173597
 20
-20.57838085301436
 30
0.0
 10
-2.928935270341437
 20
-20.69850428240256
 30
0.0
 10
-2.898809538640031
 20
-20.8092407243596
 30
0.0
 10
-2.87234721615267
 20
-20.90975881712295
 30
0.0
 10
-2.847566091711502
 20
-20.99998574369281
 30
0.0
 10
-2.827412152194828
 20
-21.08025167153387
 30
0.0
 10
-2.809975058136009
 20
-21.15049328538457
 30
0.0
 10
-2.794506645168393
 20
-21.21101412756693
 30
0.0
 10
-2.784325852985214
 20
-21.26168543317989
 30
0.0
 10
-2.77591168977704
 20
-21.30209676966305
 30
0.0
 10
-2.769695463679445
 20
-21.33215470678895
 30
0.0
 10
-2.768900770958434
 20
-21.34943125388047
 30
0.0
 10
-2.768589481006556
 20
-21.35619866897137
 30
0.0
  0
SPLINE
  5
AD
330
1F
100
AcDbEntity
  8
0
  6
Continuous
 62
     7
370
    25
100
AcDbSpline
210
0.0
220
0.0
230
1.0
 70
     8
 71
     3
 72
    15
 73
    11
 74
     0
 42
0.000000001
 43
0.00000001
 40
0.0
 40
0.0
 40
0.0
 40
0.0
 40
0.1418717770399643
 40
0.2787968565469607
 40
0.410804413605302
 40
0.5380027076784094
 40
0.660667197712163
 40
0.7782238136352738
 40
0.8915127303784703
 40
1.0
 40
1.0
 40
1.0
 40
1.0
 10
-3.848836394586802
 20
-16.51399187884792
 30
0.0
 10
-3.82636523979972
 20
-16.67250075308981
 30
0.0
 10
-3.782206440577432
 20
-16.9839917120068
 30
0.0
 10
-3.708875077983967
 20
-17.44173019858808
 30
0.0
 10
-3.632803129701913
 20
-17.88224147404681
 30
0.0
 10
-3.549284156129366
 20
-18.30499858714858
 30
0.0
 10
-3.465663118908925
 20
-18.71110240829451
 30
0.0
 10
-3.374752527128745
 20
-19.09955903481783
 30
0.0
 10
-3.279112465555241
 20
-19.47036932248144
 30
0.0
 10
-3.211034841633091
 20
-19.71119419332226
 30
0.0
 10
-3.177732999525076
 20
-19.8289995948973
 30
0.0
  0
SPLINE
  5
AE
330
1F
100
AcDbEntity
  8
0
  6
Continuous
 62
     7
370
    25
100
AcDbSpline
210
0.0
220
0.0
230
1.0
 70
     8
 71
     3
 72
    15
 73
    11
 74
     0
 42
0.000000001
 43
0.00000001
 40
0.0
 40
0.0
 40
0.0
 40
0.0
 40
0.0766973148316807
 40
0.1657467272296189
 40
0.2697957785484885
 40
0.3875177659172112
 40
0.5201259914094722
 40
0.6653732540684751
 40
0.8257686142043242
 40
1.0
 40
1.0
 40
1.0
 40
1.0
 10
-4.064885777302852
 20
-15.37703200230471
 30
0.0
 10
-4.056074847831923
 20
-15.40531518577717
 30
0.0
 10
-4.037033989271708
 20
-15.46643655758118
 30
0.0
 10
-4.011946122558833
 20
-15.56759904296992
 30
0.0
 10
-3.984807984565769
 20
-15.68451877424294
 30
0.0
 10
-3.95797610487443
 20
-15.81873587727615
 30
0.0
 10
-3.931300975517096
 20
-15.96915518757596
 30
0.0
 10
-3.904533777247448
 20
-16.1362657935736
 30
0.0
 10
-3.875852654331165
 20
-16.31934928991539
 30
0.0
 10
-3.858086674931739
 20
-16.44734688314064
 30
0.0
 10
-3.848836394586802
 20
-16.51399187884792
 30
0.0
  0
SPLINE
  5
AF
330
1F
100
AcDbEntity
  8
0
  6
Continuous
 62
     7
370
    25
100
AcDbSpline
210
0.0
220
0.0
230
1.0
 70
     8
 71
     3
 72
    15
 73
    11
 74
     0
 42
0.000000001
 43
0.00000001
 40
0.0
 40
0.0
 40
0.0
 40
0.0
 40
0.1052446942446409
 40
0.2087554198631232
 40
0.3138280049259713
 40
0.4255524781650308
 40
0.547891992277278
 40
0.6828534665605328
 40
0.8325310476290266
 40
1.0
 40
1.0
 40
1.0
 40
1.0
 10
-4.788651209401619
 20
-14.62355978008249
 30
0.0
 10
-4.749219255521166
 20
-14.62592830036544
 30
0.0
 10
-4.671005012538018
 20
-14.63062631815787
 30
0.0
 10
-4.558267455769649
 20
-14.66754150343686
 30
0.0
 10
-4.453307019879261
 20
-14.72681142924358
 30
0.0
 10
-4.357752428508145
 20
-14.81156411265274
 30
0.0
 10
-4.271495823866426
 20
-14.91998790752089
 30
0.0
 10
-4.193426343224019
 20
-15.05109035010829
 30
0.0
 10
-4.123069910312554
 20
-15.20525767322623
 30
0.0
 10
-4.084992513643422
 20
-15.31767181308811
 30
0.0
 10
-4.064885777302852
 20
-15.37703200230471
 30
0.0
  0
SPLINE
  5
B0
330
1F
100
AcDbEntity
  8
0
  6
Continuous
 62
     7
370
    25
100
AcDbSpline
210
0.0
220
0.0
230
1.0
 70
     8
 71
     3
 72
    15
 73
    11
 74
     0
 42
0.000000001
 43
0.00000001
 40
0.0
 40
0.0
 40
0.0
 40
0.0
 40
0.1564753537100324
 40
0.2990847879017602
 40
0.4296156285792973
 40
0.5503926349223028
 40
0.6635882342745503
 40
0.774170605313741
 40
0.8848410781098676
 40
1.0
 40
1.0
 40
1.0
 40
1.0
 10
-5.534021579771988
 20
-15.27440854551459
 30
0.0
 10
-5.513490527062008
 20
-15.22306227591862
 30
0.0
 10
-5.474247761990251
 20
-15.12491973917055
 30
0.0
 10
-5.400971296928334
 20
-14.99157447709618
 30
0.0
 10
-5.319917113505602
 20
-14.87813350654459
 30
0.0
 10
-5.230729731671782
 20
-14.78441692913131
 30
0.0
 10
-5.131371845987331
 20
-14.71312255403679
 30
0.0
 10
-5.025061173860903
 20
-14.66026798723818
 30
0.0
 10
-4.909092011985389
 20
-14.63015460127323
 30
0.0
 10
-4.829326600031964
 20
-14.62578698981803
 30
0.0
 10
-4.788651209401619
 20
-14.62355978008249
 30
0.0
  0
SPLINE
  5
B2
330
1F
100
AcDbEntity
  8
0
  6
Continuous
 62
     7
370
    25
100
AcDbSpline
210
0.0
220
0.0
230
1.0
 70
     8
 71
     3
 72
    11
 73
     7
 74
     0
 42
0.000000001
 43
0.00000001
 40
0.0
 40
0.0
 40
0.0
 40
0.0
 40
0.2367588656806646
 40
0.4822416301175541
 40
0.7366076092077759
 40
1.0
 40
1.0
 40
1.0
 40
1.0
 10
-6.780356456315195
 20
-19.28617552082323
 30
0.0
 10
-6.692180287324025
 20
-19.05575092698745
 30
0.0
 10
-6.512578905345887
 20
-18.58641124067381
 30
0.0
 10
-6.26307851748286
 20
-17.86042005657786
 30
0.0
 10
-6.020397111013522
 20
-17.10296393113137
 30
0.0
 10
-5.870756064702491
 20
-16.58459880231319
 30
0.0
 10
-5.794631147673222
 20
-16.32089774304545
 30
0.0
  0
SPLINE
  5
B3
330
1F
100
AcDbEntity
  8
0
  6
Continuous
 62
     7
370
    25
100
AcDbSpline
210
0.0
220
0.0
230
1.0
 70
     8
 71
     3
 72
    11
 73
     7
 74
     0
 42
0.000000001
 43
0.00000001
 40
0.0
 40
0.0
 40
0.0
 40
0.0
 40
0.2340296092486724
 40
0.4786185072443158
 40
0.7338804630997893
 40
0.9999999999999999
 40
0.9999999999999999
 40
0.9999999999999999
 40
0.9999999999999999
 10
-7.383944419278158
 20
-16.73949342205779
 30
0.0
 10
-7.34755583589726
 20
-16.94052391167848
 30
0.0
 10
-7.273136836034734
 20
-17.35165527732808
 30
0.0
 10
-7.131706637316472
 20
-17.97657996918789
 30
0.0
 10
-6.969200733907714
 20
-18.62519827854769
 30
0.0
 10
-6.84417243852558
 20
-19.06281205716807
 30
0.0
 10
-6.780356456315195
 20
-19.28617552082323
 30
0.0
  0
SPLINE
  5
B4
330
1F
100
AcDbEntity
  8
0
  6
Continuous
 62
     7
370
    25
100
AcDbSpline
210
0.0
220
0.0
230
1.0
 70
     8
 71
     3
 72
    15
 73
    11
 74
     0
 42
0.000000001
 43
0.00000001
 40
0.0
 40
0.0
 40
0.0
 40
0.0
 40
0.0731042750717375
 40
0.1598548542592879
 40
0.2623087695039716
 40
0.378838839850373
 40
0.5113260270636041
 40
0.6590404431026676
 40
0.8218666851949393
 40
1.0
 40
1.0
 40
1.0
 40
1.0
 10
-7.780935160018903
 20
-15.12722490353928
 30
0.0
 10
-7.764659727382939
 20
-15.16437866579123
 30
0.0
 10
-7.729070742888172
 20
-15.24562164705522
 30
0.0
 10
-7.682955136438713
 20
-15.38375483921084
 30
0.0
 10
-7.634567653704496
 20
-15.54626526775757
 30
0.0
 10
-7.586325379519081
 20
-15.73518234363347
 30
0.0
 10
-7.536786715603289
 20
-15.94956647158707
 30
0.0
 10
-7.485299046653168
 20
-16.18983756437151
 30
0.0
 10
-7.434507725715009
 20
-16.45607526736868
 30
0.0
 10
-7.401295860367231
 20
-16.6422348810088
 30
0.0
 10
-7.383944419278164
 20
-16.73949342205779
 30
0.0
  0
SPLINE
  5
B5
330
1F
100
AcDbEntity
  8
0
  6
Continuous
 62
     7
370
    25
100
AcDbSpline
210
0.0
220
0.0
230
1.0
 70
     8
 71
     3
 72
    15
 73
    11
 74
     0
 42
0.000000001
 43
0.00000001
 40
0.0
 40
0.0
 40
0.0
 40
0.0
 40
0.1283017093639729
 40
0.2501509784120468
 40
0.3684208353817051
 40
0.4846531179500751
 40
0.604877577134668
 40
0.7280822217287567
 40
0.8602320453787226
 40
1.0
 40
1.0
 40
1.0
 40
1.0
 10
-8.398026209401618
 20
-14.70997953316891
 30
0.0
 10
-8.364178499752448
 20
-14.71131925608011
 30
0.0
 10
-8.298185320645795
 20
-14.71393132569868
 30
0.0
 10
-8.202502490624235
 20
-14.73307591034669
 30
0.0
 10
-8.113749694652354
 20
-14.76527206370151
 30
0.0
 10
-8.032651931244882
 20
-14.81270401273046
 30
0.0
 10
-7.958159693679648
 20
-14.87202030596695
 30
0.0
 10
-7.891435464059557
 20
-14.94558830899944
 30
0.0
 10
-7.830122469890274
 20
-15.03027681656589
 30
0.0
 10
-7.79763432917821
 20
-15.09431087534231
 30
0.0
 10
-7.780935160018903
 20
-15.12722490353928
 30
0.0
  0
SPLINE
  5
B6
330
1F
100
AcDbEntity
  8
0
  6
Continuous
 62
     7
370
    25
100
AcDbSpline
210
0.0
220
0.0
230
1.0
 70
     8
 71
     3
 72
    23
 73
    19
 74
     0
 42
0.000000001
 43
0.00000001
 40
0.0
 40
0.0
 40
0.0
 40
0.0
 40
0.1132062861142447
 40
0.2172380746888067
 40
0.312487283242479
 40
0.3985984121316578
 40
0.4751190185331127
 40
0.5432171660996412
 40
0.6036945608282209
 40
0.655244538930487
 40
0.7023418905849673
 40
0.7469192092516962
 40
0.7895546011678174
 40
0.832130515642404
 40
0.8728454706025451
 40
0.9141781339857117
 40
0.9563804153548491
 40
1.0
 40
1.0
 40
1.0
 40
1.0
 10
-9.455317876068285
 20
-16.3073946566257
 30
0.0
 10
-9.438811470216773
 20
-16.23073559794105
 30
0.0
 10
-9.407136375570557
 20
-16.08363010682633
 30
0.0
 10
-9.352078294934785
 20
-15.87427507588504
 30
0.0
 10
-9.29897190336712
 20
-15.68387829400959
 30
0.0
 10
-9.244334679494996
 20
-15.51373719083576
 30
0.0
 10
-9.186928457979151
 20
-15.36455710984797
 30
0.0
 10
-9.131203780902215
 20
-15.23380713328347
 30
0.0
 10
-9.072573227546481
 20
-15.1234683333551
 30
0.0
 10
-9.011576140604799
 20
-15.03146900259395
 30
0.0
 10
-8.948679719808526
 20
-14.95455341167551
 30
0.0
 10
-8.882362327515013
 20
-14.88900477673376
 30
0.0
 10
-8.81077504392009
 20
-14.8342842919131
 30
0.0
 10
-8.736171331258252
 20
-14.7888603545604
 30
0.0
 10
-8.657668148223427
 20
-14.75225903507777
 30
0.0
 10
-8.57465405806597
 20
-14.72867730720383
 30
0.0
 10
-8.487719509818497
 20
-14.71319781974683
 30
0.0
 10
-8.42825133813515
 20
-14.7110640414395
 30
0.0
 10
-8.398026209401618
 20
-14.70997953316891
 30
0.0
  0
SPLINE
  5
B7
330
1F
100
AcDbEntity
  8
0
  6
Continuous
 62
     7
370
    25
100
AcDbSpline
210
0.0
220
0.0
230
1.0
 70
     8
 71
     3
 72
     9
 73
     5
 74
     0
 42
0.000000001
 43
0.00000001
 40
0.0
 40
0.0
 40
0.0
 40
0.0
 40
0.499819009087365
 40
1.0
 40
1.0
 40
1.0
 40
1.0
 10
-9.725379604463347
 20
-17.70091317514422
 30
0.0
 10
-9.681036167290873
 20
-17.46861808344769
 30
0.0
 10
-9.592317178284341
 20
-17.00385966595438
 30
0.0
 10
-9.500995329090191
 20
-16.53960567690403
 30
0.0
 10
-9.455317876068285
 20
-16.30739465662569
 30
0.0
  0
SPLINE
  5
B8
330
1F
100
AcDbEntity
  8
0
  6
Continuous
 62
     7
370
    25
100
AcDbSpline
210
0.0
220
0.0
230
1.0
 70
     8
 71
     3
 72
    23
 73
    19
 74
     0
 42
0.000000001
 43
0.00000001
 40
0.0
 40
0.0
 40
0.0
 40
0.0
 40
0.1096712533929581
 40
0.2132410944889135
 40
0.3104989960485696
 40
0.4009452043459017
 40
0.485790234134896
 40
0.5638225231801515
 40
0.6362554080675127
 40
0.7018741838944239
 40
0.7611836364779301
 40
0.8143895893169251
 40
0.8605757930761232
 40
0.9011748115164133
 40
0.9351544962955315
 40
0.963356326711083
 40
0.9847318027962849
 40
1.0
 40
1.0
 40
1.0
 40
1.0
 10
-10.23174534520409
 20
-19.45226348378619
 30
0.0
 10
-10.21291757958229
 20
-19.38832616487748
 30
0.0
 10
-10.17630950569089
 20
-19.26400859358168
 30
0.0
 10
-10.12174044563895
 20
-19.08336561487866
 30
0.0
 10
-10.07267085368859
 20
-18.91327955392506
 30
0.0
 10
-10.02424245067379
 20
-18.75487109838473
 30
0.0
 10
-9.982219053727057
 20
-18.60675558616365
 30
0.0
 10
-9.940516667759885
 20
-18.4699554331018
 30
0.0
 10
-9.905181653290747
 20
-18.34346774433191
 30
0.0
 10
-9.870586759504093
 20
-18.22861561409072
 30
0.0
 10
-9.841335448308008
 20
-18.12437846886801
 30
0.0
 10
-9.814374834419958
 20
-18.03177760165793
 30
0.0
 10
-9.790432384016924
 20
-17.95012467079463
 30
0.0
 10
-9.773303871414168
 20
-17.87872057226875
 30
0.0
 10
-9.753727243169516
 20
-17.81932747161497
 30
0.0
 10
-9.742804128229213
 20
-17.76969634004104
 30
0.0
 10
-9.732999532410338
 20
-17.73152853855322
 30
0.0
 10
-9.727620759741873
 20
-17.70991769379392
 30
0.0
 10
-9.725379604463347
 20
-17.70091317514422
 30
0.0
  0
SPLINE
  5
B9
330
1F
100
AcDbEntity
  8
0
  6
Continuous
 62
     7
370
    25
100
AcDbSpline
210
0.0
220
0.0
230
1.0
 70
     8
 71
     3
 72
    15
 73
    11
 74
     0
 42
0.000000001
 43
0.00000001
 40
0.0
 40
0.0
 40
0.0
 40
0.0
 40
0.1031019667664646
 40
0.2123974625579434
 40
0.3280920298610461
 40
0.4496261309087672
 40
0.5772949232195698
 40
0.7111150014662164
 40
0.851919123708446
 40
0.9999999999999999
 40
0.9999999999999999
 40
0.9999999999999999
 40
0.9999999999999999
 10
-10.54636725878433
 20
-21.2400721257615
 30
0.0
 10
-10.54517252957761
 20
-21.1774816701109
 30
0.0
 10
-10.54271130153406
 20
-21.04854083243857
 30
0.0
 10
-10.52699762706491
 20
-20.84987929527532
 30
0.0
 10
-10.50262478101521
 20
-20.64090472149505
 30
0.0
 10
-10.46901520592712
 20
-20.42188282155127
 30
0.0
 10
-10.42384316401902
 20
-20.19373257591617
 30
0.0
 10
-10.36943179301394
 20
-19.95563503694748
 30
0.0
 10
-10.30642821639602
 20
-19.70682424917774
 30
0.0
 10
-10.25705419801666
 20
-19.53853013155061
 30
0.0
 10
-10.23174534520409
 20
-19.45226348378619
 30
0.0
  0
SPLINE
  5
BA
330
1F
100
AcDbEntity
  8
0
  6
Continuous
 62
     7
370
    25
100
AcDbSpline
210
0.0
220
0.0
230
1.0
 70
     8
 71
     3
 72
    11
 73
     7
 74
     0
 42
0.000000001
 43
0.00000001
 40
0.0
 40
0.0
 40
0.0
 40
0.0
 40
0.2515602261581843
 40
0.4967711695120974
 40
0.7424568026364857
 40
1.0
 40
1.0
 40
1.0
 40
1.0
 10
-10.38703083903125
 20
-21.66947027390965
 30
0.0
 10
-10.41197221475732
 20
-21.63892243989983
 30
0.0
 10
-10.46122545553352
 20
-21.57859778739466
 30
0.0
 10
-10.50798025893721
 20
-21.47166415943095
 30
0.0
 10
-10.54232670377021
 20
-21.35923946491991
 30
0.0
 10
-10.54499941477934
 20
-21.28041369514706
 30
0.0
 10
-10.54636725878433
 20
-21.2400721257615
 30
0.0
  0
SPLINE
  5
BB
330
1F
100
AcDbEntity
  8
0
  6
Continuous
 62
     7
370
    25
100
AcDbSpline
210
0.0
220
0.0
230
1.0
 70
     8
 71
     3
 72
    11
 73
     7
 74
     0
 42
0.000000001
 43
0.00000001
 40
0.0
 40
0.0
 40
0.0
 40
0.0
 40
0.2698709789411537
 40
0.5183375133687317
 40
0.7579275636110002
 40
1.0
 40
1.0
 40
1.0
 40
1.0
 10
-9.873913555080632
 20
-21.88281903934174
 30
0.0
 10
-9.925574062436597
 20
-21.8805637113687
 30
0.0
 10
-10.024797695253
 20
-21.87623193365045
 30
0.0
 10
-10.16424109508894
 20
-21.83355653147166
 30
0.0
 10
-10.28907919350058
 20
-21.76791465046249
 30
0.0
 10
-10.35426830025121
 20
-21.70239761971395
 30
0.0
 10
-10.38703083903125
 20
-21.66947027390965
 30
0.0
  0
SPLINE
  5
BC
330
1F
100
AcDbEntity
  8
0
  6
Continuous
 62
     7
370
    25
100
AcDbSpline
210
0.0
220
0.0
230
1.0
 70
     8
 71
     3
 72
    15
 73
    11
 74
     0
 42
0.000000001
 43
0.00000001
 40
0.0
 40
0.0
 40
0.0
 40
0.0
 40
0.1534357809353094
 40
0.294005867312432
 40
0.4216926481563508
 40
0.5407422415778587
 40
0.6534210204176095
 40
0.7648322981830941
 40
0.8796714890701002
 40
1.0
 40
1.0
 40
1.0
 40
1.0
 10
-9.163651209401616
 20
-21.24142243440347
 30
0.0
 10
-9.180073894461682
 20
-21.29180417130351
 30
0.0
 10
-9.211542211273127
 20
-21.38834310220807
 30
0.0
 10
-9.274550665707856
 20
-21.52016845792146
 30
0.0
 10
-9.349783561255029
 20
-21.63120538839861
 30
0.0
 10
-9.433650515182066
 20
-21.72325916327244
 30
0.0
 10
-9.528456912235777
 20
-21.79566784422782
 30
0.0
 10
-9.634830028138378
 20
-21.84573087408123
 30
0.0
 10
-9.750898947680497
 20
-21.87851035335305
 30
0.0
 10
-9.832275517879859
 20
-21.88136063345585
 30
0.0
 10
-9.873913555080632
 20
-21.88281903934174
 30
0.0
  0
SPLINE
  5
BD
330
1F
100
AcDbEntity
  8
0
  6
Continuous
 62
     7
370
    25
100
AcDbSpline
210
0.0
220
0.0
230
1.0
 70
     8
 71
     3
 72
     9
 73
     5
 74
     0
 42
0.000000001
 43
0.00000001
 40
0.0
 40
0.0
 40
0.0
 40
0.0
 40
0.5013961411931881
 40
1.0
 40
1.0
 40
1.0
 40
1.0
 10
-9.002964481006556
 20
-20.22328971835409
 30
0.0
 10
-9.030046210113392
 20
-20.39341668277159
 30
0.0
 10
-9.084058849784665
 20
-20.73272317207291
 30
0.0
 10
-9.1371698565055
 20
-21.0721719592498
 30
0.0
 10
-9.163651209401616
 20
-21.24142243440347
 30
0.0
  0
SPLINE
  5
BE
330
1F
100
AcDbEntity
  8
0
  6
Continuous
 62
     7
370
    25
100
AcDbSpline
210
0.0
220
0.0
230
1.0
 70
     8
 71
     3
 72
    15
 73
    11
 74
     0
 42
0.000000001
 43
0.00000001
 40
0.0
 40
0.0
 40
0.0
 40
0.0
 40
0.0882871730418781
 40
0.1874977302660509
 40
0.2963380413885539
 40
0.4161050991693742
 40
0.546799599813222
 40
0.6871295604277494
 40
0.8383883693559305
 40
1.0
 40
1.0
 40
1.0
 40
1.0
 10
-8.453388863722607
 20
-18.01283447144051
 30
0.0
 10
-8.470540849099887
 20
-18.07763659546099
 30
0.0
 10
-8.506966959677356
 20
-18.21525852571006
 30
0.0
 10
-8.563509911475025
 20
-18.43303982221418
 30
0.0
 10
-8.624265101082148
 20
-18.6744138339604
 30
0.0
 10
-8.690421360164082
 20
-18.93907668812856
 30
0.0
 10
-8.761919933111963
 20
-19.22704987520883
 30
0.0
 10
-8.837517694762113
 20
-19.5386370694787
 30
0.0
 10
-8.918415501665715
 20
-19.87309262232492
 30
0.0
 10
-8.974166557379357
 20
-20.10401034556285
 30
0.0
 10
-9.002964481006556
 20
-20.22328971835409
 30
0.0
  0
SPLINE
  5
BF
330
1F
100
AcDbEntity
  8
0
  6
Continuous
 62
     7
370
    25
100
AcDbSpline
210
0.0
220
0.0
230
1.0
 70
     8
 71
     3
 72
    11
 73
     7
 74
     0
 42
0.000000001
 43
0.00000001
 40
0.0
 40
0.0
 40
0.0
 40
0.0
 40
0.243196300614942
 40
0.4909651343160081
 40
0.7427637557397965
 40
1.0
 40
1.0
 40
1.0
 40
1.0
 10
-7.787686703228776
 20
-20.45014157020594
 30
0.0
 10
-7.848872782733607
 20
-20.25460970184534
 30
0.0
 10
-7.972395351400978
 20
-19.85986961011705
 30
0.0
 10
-8.143133181691159
 20
-19.25781865038524
 30
0.0
 10
-8.30422926342357
 20
-18.64090570753265
 30
0.0
 10
-8.403316174202743
 20
-18.22367719251343
 30
0.0
 10
-8.453388863722607
 20
-18.01283447144051
 30
0.0
  0
SPLINE
  5
C0
330
1F
100
AcDbEntity
  8
0
  6
Continuous
 62
     7
370
    25
100
AcDbSpline
210
0.0
220
0.0
230
1.0
 70
     8
 71
     3
 72
    15
 73
    11
 74
     0
 42
0.000000001
 43
0.00000001
 40
0.0
 40
0.0
 40
0.0
 40
0.0
 40
0.1052173976095508
 40
0.2085497889127019
 40
0.3153343785999265
 40
0.4284228634349121
 40
0.5510912367304629
 40
0.6864587209433857
 40
0.8357733023540767
 40
1.0
 40
1.0
 40
1.0
 40
1.0
 10
-16.33649071557445
 20
-20.6931971257615
 30
0.0
 10
-16.33885781492516
 20
-20.73531180288563
 30
0.0
 10
-16.34354960621768
 20
-20.81878665803227
 30
0.0
 10
-16.38065089251236
 20
-20.94045722931538
 30
0.0
 10
-16.44098202154395
 20
-21.05548328159119
 30
0.0
 10
-16.52711368721009
 20
-21.16278825222147
 30
0.0
 10
-16.63534270078219
 20
-21.26478996537467
 30
0.0
 10
-16.76754289203534
 20
-21.36051986139143
 30
0.0
 10
-16.92384496045997
 20
-21.44932125036863
 30
0.0
 10
-17.03817892745754
 20
-21.50075033363925
 30
0.0
 10
-17.09806478964852
 20
-21.52768786650224
 30
0.0
  0
SPLINE
  5
C1
330
1F
100
AcDbEntity
  8
0
  6
Continuous
 62
     7
370
    25
100
AcDbSpline
210
0.0
220
0.0
230
1.0
 70
     8
 71
     3
 72
    15
 73
    11
 74
     0
 42
0.000000001
 43
0.00000001
 40
0.0
 40
0.0
 40
0.0
 40
0.0
 40
0.1491561492079556
 40
0.2797105336524451
 40
0.3986578663545197
 40
0.5102351642711136
 40
0.6186531441849186
 40
0.732570681032187
 40
0.8578808703085115
 40
1.0
 40
1.0
 40
1.0
 40
1.0
 10
-16.81314966619174
 20
-20.24084373069978
 30
0.0
 10
-16.77565053738781
 20
-20.24177174587926
 30
0.0
 10
-16.70532892218827
 20
-20.24351204034563
 30
0.0
 10
-16.60721691609676
 20
-20.26587821821422
 30
0.0
 10
-16.52280258974625
 20
-20.30025279416936
 30
0.0
 10
-16.45324822358448
 20
-20.351041385632
 30
0.0
 10
-16.40076365646747
 20
-20.41733159756805
 30
0.0
 10
-16.36175805101918
 20
-20.49617467654043
 30
0.0
 10
-16.34119423916455
 20
-20.59046997342219
 30
0.0
 10
-16.33812290507803
 20
-20.6575493445675
 30
0.0
 10
-16.33649071557445
 20
-20.6931971257615
 30
0.0
  0
SPLINE
  5
C2
330
1F
100
AcDbEntity
  8
0
  6
Continuous
 62
     7
370
    25
100
AcDbSpline
210
0.0
220
0.0
230
1.0
 70
     8
 71
     3
 72
    11
 73
     7
 74
     0
 42
0.000000001
 43
0.00000001
 40
0.0
 40
0.0
 40
0.0
 40
0.0
 40
0.311439385643289
 40
0.5801445577494322
 40
0.8072651203850847
 40
1.0
 40
1.0
 40
1.0
 40
1.0
 10
-17.4221388637226
 20
-20.44474033563804
 30
0.0
 10
-17.36234760456407
 20
-20.41383625493644
 30
0.0
 10
-17.25096935505283
 20
-20.35626860274546
 30
0.0
 10
-17.0884187363006
 20
-20.29350689065424
 30
0.0
 10
-16.94558665298821
 20
-20.24887109500801
 30
0.0
 10
-16.85481736121677
 20
-20.24336932249963
 30
0.0
 10
-16.81314966619173
 20
-20.24084373069977
 30
0.0
  0
SPLINE
  5
C3
330
1F
100
AcDbEntity
  8
0
  6
Continuous
 62
     7
370
    25
100
AcDbSpline
210
0.0
220
0.0
230
1.0
 70
     8
 71
     3
 72
    11
 73
     7
 74
     0
 42
0.000000001
 43
0.00000001
 40
0.0
 40
0.0
 40
0.0
 40
0.0
 40
0.2755137477419628
 40
0.5310501508782249
 40
0.7716403086845642
 40
1.0
 40
1.0
 40
1.0
 40
1.0
 10
-18.46187651804359
 20
-20.67294249613187
 30
0.0
 10
-18.36313245084927
 20
-20.67011026539143
 30
0.0
 10
-18.17280419241702
 20
-20.66465116734512
 30
0.0
 10
-17.89902653152652
 20
-20.6224029142525
 30
0.0
 10
-17.64761173644975
 20
-20.55325955334879
 30
0.0
 10
-17.49597826018875
 20
-20.48027895030074
 30
0.0
 10
-17.4221388637226
 20
-20.44474033563804
 30
0.0
  0
SPLINE
  5
C4
330
1F
100
AcDbEntity
  8
0
  6
Continuous
 62
     7
370
    25
100
AcDbSpline
210
0.0
220
0.0
230
1.0
 70
     8
 71
     3
 72
    15
 73
    11
 74
     0
 42
0.000000001
 43
0.00000001
 40
0.0
 40
0.0
 40
0.0
 40
0.0
 40
0.1139521006089622
 40
0.2280790951902415
 40
0.3438027131538814
 40
0.4634121868015374
 40
0.588239659865519
 40
0.7184782111150656
 40
0.8551140689090582
 40
1.0
 40
1.0
 40
1.0
 40
1.0
 10
-19.70686108594482
 20
-20.24084373069978
 30
0.0
 10
-19.66892532168625
 20
-20.2755497244159
 30
0.0
 10
-19.59299556926212
 20
-20.34501497869509
 30
0.0
 10
-19.46453482496593
 20
-20.43254641523864
 30
0.0
 10
-19.32578373696174
 20
-20.5076243318477
 30
0.0
 10
-19.17485673200186
 20
-20.5683205503659
 30
0.0
 10
-19.01238293079714
 20
-20.61530914430444
 30
0.0
 10
-18.83882851886102
 20
-20.64871149514467
 30
0.0
 10
-18.65412063014889
 20
-20.66937966492884
 30
0.0
 10
-18.52719772559749
 20
-20.67173190802104
 30
0.0
 10
-18.46187651804359
 20
-20.67294249613187
 30
0.0
  0
SPLINE
  5
C6
330
1F
100
AcDbEntity
  8
0
  6
Continuous
 62
     7
370
    25
100
AcDbSpline
210
0.0
220
0.0
230
1.0
 70
     8
 71
     3
 72
    15
 73
    11
 74
     0
 42
0.000000001
 43
0.00000001
 40
0.0
 40
0.0
 40
0.0
 40
0.0
 40
0.0749012448237877
 40
0.163693342694885
 40
0.266094947196038
 40
0.3842420430116559
 40
0.5160908167838959
 40
0.6632803535002236
 40
0.8242222924919363
 40
1.0
 40
1.0
 40
1.0
 40
1.0
 10
-17.15477775261149
 20
-19.04987150847755
 30
0.0
 10
-17.17844650735942
 20
-19.06592357943884
 30
0.0
 10
-17.23017351925663
 20
-19.10100466733013
 30
0.0
 10
-17.31860799402332
 20
-19.15107939157529
 30
0.0
 10
-17.42163382121631
 20
-19.2087351596804
 30
0.0
 10
-17.54157775870364
 20
-19.26964667148062
 30
0.0
 10
-17.67677249166035
 20
-19.33824885339788
 30
0.0
 10
-17.82932475207828
 20
-19.40850412249616
 30
0.0
 10
-17.99693203602125
 20
-19.48608240624733
 30
0.0
 10
-18.11432726949257
 20
-19.53838558763148
 30
0.0
 10
-18.17561108594482
 20
-19.56568940971212
 30
0.0
  0
SPLINE
  5
C7
330
1F
100
AcDbEntity
  8
0
  6
Continuous
 62
     7
370
    25
100
AcDbSpline
210
0.0
220
0.0
230
1.0
 70
     8
 71
     3
 72
    15
 73
    11
 74
     0
 42
0.000000001
 43
0.00000001
 40
0.0
 40
0.0
 40
0.0
 40
0.0
 40
0.1129409739430011
 40
0.2259091036868128
 40
0.3395472716485088
 40
0.4564714946795471
 40
0.5795744920439287
 40
0.710197051027044
 40
0.8496555315685864
 40
1.0
 40
1.0
 40
1.0
 40
1.0
 10
-16.59574997483371
 20
-18.16541934798373
 30
0.0
 10
-16.59706456664777
 20
-18.20654221139518
 30
0.0
 10
-16.59969406635951
 20
-18.28879782589881
 30
0.0
 10
-16.62865107303228
 20
-18.40948048949199
 30
0.0
 10
-16.67175845168054
 20
-18.52689755545136
 30
0.0
 10
-16.73332395035199
 20
-18.64037217976402
 30
0.0
 10
-16.81465761836954
 20
-18.74815128477179
 30
0.0
 10
-16.91076063880233
 20
-18.8541689528747
 30
0.0
 10
-17.02530770848131
 20
-18.95581511197564
 30
0.0
 10
-17.11055369450538
 20
-19.01774395671762
 30
0.0
 10
-17.15477775261149
 20
-19.04987150847755
 30
0.0
  0
SPLINE
  5
C8
330
1F
100
AcDbEntity
  8
0
  6
Continuous
 62
     7
370
    25
100
AcDbSpline
210
0.0
220
0.0
230
1.0
 70
     8
 71
     3
 72
    15
 73
    11
 74
     0
 42
0.000000001
 43
0.00000001
 40
0.0
 40
0.0
 40
0.0
 40
0.0
 40
0.1390492406403998
 40
0.2692447721851126
 40
0.3928199504358611
 40
0.5115691258138428
 40
0.6286847609762505
 40
0.747942838654183
 40
0.8709887845875901
 40
1.0
 40
1.0
 40
1.0
 40
1.0
 10
-17.28035645631519
 20
-17.12433138502076
 30
0.0
 10
-17.22598104405653
 20
-17.15267473358834
 30
0.0
 10
-17.12069247564272
 20
-17.20755671922809
 30
0.0
 10
-16.98042426012031
 20
-17.31000278343538
 30
0.0
 10
-16.86150157649921
 20
-17.42386080217174
 30
0.0
 10
-16.76472221735404
 20
-17.54977708632291
 30
0.0
 10
-16.6866683142953
 20
-17.6862384142165
 30
0.0
 10
-16.63543571693866
 20
-17.83670750302085
 30
0.0
 10
-16.60138549431147
 20
-17.99735850799732
 30
0.0
 10
-16.5976578875907
 20
-18.10852212283394
 30
0.0
 10
-16.59574997483371
 20
-18.16541934798373
 30
0.0
  0
SPLINE
  5
C9
330
1F
100
AcDbEntity
  8
0
  6
Continuous
 62
     7
370
    25
100
AcDbSpline
210
0.0
220
0.0
230
1.0
 70
     8
 71
     3
 72
    15
 73
    11
 74
     0
 42
0.000000001
 43
0.00000001
 40
0.0
 40
0.0
 40
0.0
 40
0.0
 40
0.1434154265825529
 40
0.2810792918024099
 40
0.4131789255870256
 40
0.539282192901298
 40
0.6614164036434959
 40
0.7784902802766434
 40
0.8904547156605968
 40
1.0
 40
1.0
 40
1.0
 40
1.0
 10
-18.59150614767321
 20
-16.8704733603294
 30
0.0
 10
-18.52711513136392
 20
-16.8711659011834
 30
0.0
 10
-18.40091544912655
 20
-16.87252320909249
 30
0.0
 10
-18.21585092228306
 20
-16.88566056819259
 30
0.0
 10
-18.03888458419075
 20
-16.90297846969222
 30
0.0
 10
-17.87069120733842
 20
-16.93278902505597
 30
0.0
 10
-17.710026577657
 20
-16.96619927718455
 30
0.0
 10
-17.55897748885745
 20
-17.01174079627236
 30
0.0
 10
-17.41554955215701
 20
-17.06245427813493
 30
0.0
 10
-17.32509151829271
 20
-17.10385640296424
 30
0.0
 10
-17.28035645631519
 20
-17.12433138502076
 30
0.0
  0
SPLINE
  5
CA
330
1F
100
AcDbEntity
  8
0
  6
Continuous
 62
     7
370
    25
100
AcDbSpline
210
0.0
220
0.0
230
1.0
 70
     8
 71
     3
 72
    15
 73
    11
 74
     0
 42
0.000000001
 43
0.00000001
 40
0.0
 40
0.0
 40
0.0
 40
0.0
 40
0.1294131050389275
 40
0.2539127797705631
 40
0.3751723898635005
 40
0.4957152085687557
 40
0.6167121421940679
 40
0.7400835713010937
 40
0.8672004800588676
 40
1.0
 40
1.0
 40
1.0
 40
1.0
 10
-20.39956941927815
 20
-17.74682366897138
 30
0.0
 10
-20.34253491035841
 20
-17.67708147118538
 30
0.0
 10
-20.23063132301843
 20
-17.54024497922559
 30
0.0
 10
-20.04005128474183
 20
-17.3606966843731
 30
0.0
 10
-19.83411844141835
 20
-17.20972792788976
 30
0.0
 10
-19.61448777590304
 20
-17.08418227352209
 30
0.0
 10
-19.37887980959024
 20
-16.98753118593027
 30
0.0
 10
-19.12862973500996
 20
-16.92132864658389
 30
0.0
 10
-18.86491849438823
 20
-16.87724429276879
 30
0.0
 10
-18.68396235811099
 20
-16.87276299633889
 30
0.0
 10
-18.59150614767321
 20
-16.8704733603294
 30
0.0
  0
SPLINE
  5
CB
330
1F
100
AcDbEntity
  8
0
  6
Continuous
 62
     7
370
    25
100
AcDbSpline
210
0.0
220
0.0
230
1.0
 70
     8
 71
     3
 72
    15
 73
    11
 74
     0
 42
0.000000001
 43
0.00000001
 40
0.0
 40
0.0
 40
0.0
 40
0.0
 40
0.1356633930568986
 40
0.2673844162213238
 40
0.394573366820407
 40
0.5186616802098388
 40
0.640488958829211
 40
0.7600734442501391
 40
0.880069803360025
 40
1.0
 40
1.0
 40
1.0
 40
1.0
 10
-21.00315738224112
 20
-19.67911533563804
 30
0.0
 10
-21.00138809471437
 20
-19.58587166936611
 30
0.0
 10
-20.99790093504804
 20
-19.40209399205266
 30
0.0
 10
-20.96899812539366
 20
-19.13214183794933
 30
0.0
 10
-20.9219833794191
 20
-18.87295827018308
 30
0.0
 10
-20.85581324767937
 20
-18.62493695041933
 30
0.0
 10
-20.77062288006615
 20
-18.38833545041165
 30
0.0
 10
-20.6673001363322
 20
-18.16224042059099
 30
0.0
 10
-20.5453185047259
 20
-17.9467940824462
 30
0.0
 10
-20.44814351539212
 20
-17.81346821808972
 30
0.0
 10
-20.39956941927815
 20
-17.74682366897138
 30
0.0
  0
SPLINE
  5
CC
330
1F
100
AcDbEntity
  8
0
  6
Continuous
 62
     7
370
    25
100
AcDbSpline
210
0.0
220
0.0
230
1.0
 70
     8
 71
     3
 72
    15
 73
    11
 74
     0
 42
0.000000001
 43
0.00000001
 40
0.0
 40
0.0
 40
0.0
 40
0.0
 40
0.1265876729879402
 40
0.2485696688967818
 40
0.3687035129490653
 40
0.4884388872594028
 40
0.6097492846436636
 40
0.7345334921526617
 40
0.8639247383752132
 40
1.0
 40
1.0
 40
1.0
 40
1.0
 10
-20.23618207359915
 20
-21.28193169366274
 30
0.0
 10
-20.2973188653009
 20
-21.23339904562772
 30
0.0
 10
-20.41736809056919
 20
-21.13809952737289
 30
0.0
 10
-20.57359331139526
 20
-20.9722269995015
 30
0.0
 10
-20.70738026766973
 20
-20.79333100342133
 30
0.0
 10
-20.81607419575685
 20
-20.59847101250945
 30
0.0
 10
-20.90041622521098
 20
-20.38882786755147
 30
0.0
 10
-20.95883727457857
 20
-20.16460375033334
 30
0.0
 10
-20.99678690138589
 20
-19.92660583847741
 30
0.0
 10
-21.00099854120649
 20
-19.7629854021763
 30
0.0
 10
-21.00315738224112
 20
-19.67911533563804
 30
0.0
  0
SPLINE
  5
CD
330
1F
100
AcDbEntity
  8
0
  6
Continuous
 62
     7
370
    25
100
AcDbSpline
210
0.0
220
0.0
230
1.0
 70
     8
 71
     3
 72
    15
 73
    11
 74
     0
 42
0.000000001
 43
0.00000001
 40
0.0
 40
0.0
 40
0.0
 40
0.0
 40
0.1410208850432638
 40
0.2761519663806463
 40
0.4060146168840466
 40
0.5304434784343981
 40
0.6519475725320306
 40
0.7695745017136852
 40
0.885495998934406
 40
0.9999999999999999
 40
0.9999999999999999
 40
0.9999999999999999
 40
0.9999999999999999
 10
-18.45377466619173
 20
-21.79639928625533
 30
0.0
 10
-18.54250050925794
 20
-21.7949043095518
 30
0.0
 10
-18.71624651875149
 20
-21.79197679455114
 30
0.0
 10
-18.97075796534533
 20
-21.76728048787516
 30
0.0
 10
-19.21251205481022
 20
-21.72681958225305
 30
0.0
 10
-19.44276574291773
 20
-21.67206474456301
 30
0.0
 10
-19.65970779464184
 20
-21.59877268431851
 30
0.0
 10
-19.86541532261902
 20
-21.51116310306403
 30
0.0
 10
-20.05792448123007
 20
-21.4058401288332
 30
0.0
 10
-20.17700706077789
 20
-21.3230647704783
 30
0.0
 10
-20.23618207359914
 20
-21.28193169366273
 30
0.0
  0
SPLINE
  5
CE
330
1F
100
AcDbEntity
  8
0
  6
Continuous
 62
     7
370
    25
100
AcDbSpline
210
0.0
220
0.0
230
1.0
 70
     8
 71
     3
 72
    11
 73
     7
 74
     0
 42
0.000000001
 43
0.00000001
 40
0.0
 40
0.0
 40
0.0
 40
0.0
 40
0.24783832090348
 40
0.4950750361462367
 40
0.7453731068900127
 40
1.0
 40
1.0
 40
1.0
 40
1.0
 10
-17.09806478964852
 20
-21.52768786650224
 30
0.0
 10
-17.20530890473982
 20
-21.56926631934838
 30
0.0
 10
-17.41953680929367
 20
-21.65232229701427
 30
0.0
 10
-17.75614159803452
 20
-21.73376249624902
 30
0.0
 10
-18.10135869062213
 20
-21.78812411594006
 30
0.0
 10
-18.33563318036834
 20
-21.79362517558992
 30
0.0
 10
-18.45377466619173
 20
-21.79639928625533
 30
0.0
  0
CIRCLE
  5
FA
330
1F
100
AcDbEntity
  8
0
  6
Continuous
 62
     7
370
    25
100
AcDbCircle
 10
-105.7
 20
2.9
 30
0.0
 40
3.40000000000002
  0
CIRCLE
  5
FB
330
1F
100
AcDbEntity
  8
0
  6
Continuous
 62
     7
370
    25
100
AcDbCircle
 10
12.3
 20
-33.0
 30
0.0
 40
3.399999999999999
  0
CIRCLE
  5
FC
330
1F
100
AcDbEntity
  8
0
  6
Continuous
 62
     7
370
    25
100
AcDbCircle
 10
12.3
 20
-3.0
 30
0.0
 40
3.4
  0
CIRCLE
  5
FD
330
1F
100
AcDbEntity
  8
0
  6
Continuous
 62
     7
370
    25
100
AcDbCircle
 10
12.3
 20
31.5
 30
0.0
 40
1.774999999999991
  0
CIRCLE
  5
FE
330
1F
100
AcDbEntity
  8
0
  6
Continuous
 62
     7
370
    25
100
AcDbCircle
 10
-15.95
 20
-40.0
 30
0.0
 40
1.180000000000001
  0
CIRCLE
  5
FF
330
1F
100
AcDbEntity
  8
0
  6
Continuous
 62
     7
370
    25
100
AcDbCircle
 10
-6.6
 20
-40.0
 30
0.0
 40
1.179999999999997
  0
CIRCLE
  5
100
330
1F
100
AcDbEntity
  8
0
  6
Continuous
 62
     7
370
    25
100
AcDbCircle
 10
18.3
 20
14.5
 30
0.0
 40
1.181100000000001
  0
SPLINE
  5
109
330
1F
100
AcDbEntity
  8
0
  6
Continuous
 62
     7
370
    25
100
AcDbSpline
210
0.0
220
0.0
230
1.0
 70
     8
 71
     3
 72
    23
 73
    19
 74
     0
 42
0.000000001
 43
0.00000001
 40
0.0
 40
0.0
 40
0.0
 40
0.0
 40
0.0610325662794119
 40
0.1206431957605419
 40
0.1787719842481701
 40
0.2367132284225934
 40
0.2938867806977535
 40
0.3504978207391006
 40
0.4079802453432554
 40
0.4661649000508784
 40
0.5257210009535633
 40
0.5866150020242407
 40
0.6491515251883719
 40
0.7140464316004191
 40
0.7812435663817628
 40
0.8513349863876327
 40
0.9240295001012117
 40
1.0
 40
1.0
 40
1.0
 40
1.0
 10
-21.3488363945868
 20
-19.64265700230472
 30
0.0
 10
-21.3500241855224
 20
-19.69084249508195
 30
0.0
 10
-21.35237209423905
 20
-19.78609085497112
 30
0.0
 10
-21.3664925127861
 20
-19.92680686463368
 30
0.0
 10
-21.39481340990555
 20
-20.06275461063047
 30
0.0
 10
-21.43020141430112
 20
-20.19505049012792
 30
0.0
 10
-21.47821780056469
 20
-20.32204495855355
 30
0.0
 10
-21.53469811830508
 20
-20.44513089247012
 30
0.0
 10
-21.60450536394654
 20
-20.56210727268374
 30
0.0
 10
-21.68270838815866
 20
-20.67639966839311
 30
0.0
 10
-21.77247756970699
 20
-20.78538566151483
 30
0.0
 10
-21.87082217444129
 20
-20.89142419351073
 30
0.0
 10
-21.98122875419375
 20
-20.99127562445829
 30
0.0
 10
-22.10125827676774
 20
-21.08742655775976
 30
0.0
 10
-22.23304860078417
 20
-21.1777810182111
 30
0.0
 10
-22.37487879633486
 20
-21.26376658882926
 30
0.0
 10
-22.52645012537673
 20
-21.34683682982864
 30
0.0
 10
-22.63269778887101
 20
-21.39682098748679
 30
0.0
 10
-22.68699225878432
 20
-21.42236379242817
 30
0.0
  0
SPLINE
  5
10A
330
1F
100
AcDbEntity
  8
0
  6
Continuous
 62
     7
370
    25
100
AcDbSpline
210
0.0
220
0.0
230
1.0
 70
     8
 71
     3
 72
    15
 73
    11
 74
     0
 42
0.000000001
 43
0.00000001
 40
0.0
 40
0.0
 40
0.0
 40
0.0
 40
0.1224631323730418
 40
0.2425471034921784
 40
0.3612683605158525
 40
0.4813103093350746
 40
0.6036420503702594
 40
0.7301928798662705
 40
0.861707112920748
 40
1.0
 40
1.0
 40
1.0
 40
1.0
 10
-21.99428392545099
 20
-18.13031132329236
 30
0.0
 10
-21.94264925148081
 20
-18.17681177333739
 30
0.0
 10
-21.8403830398582
 20
-18.26890928261185
 30
0.0
 10
-21.70949946093181
 20
-18.42730348020554
 30
0.0
 10
-21.5976994095475
 20
-18.59758463607722
 30
0.0
 10
-21.50497645450657
 20
-18.78061866377247
 30
0.0
 10
-21.43480752353033
 20
-18.97818322308261
 30
0.0
 10
-21.38584562564051
 20
-19.18841384566651
 30
0.0
 10
-21.35310322540444
 20
-19.41118219522763
 30
0.0
 10
-21.35028229593946
 20
-19.56421711308389
 30
0.0
 10
-21.3488363945868
 20
-19.64265700230471
 30
0.0
  0
SPLINE
  5
10B
330
1F
100
AcDbEntity
  8
0
  6
Continuous
 62
     7
370
    25
100
AcDbSpline
210
0.0
220
0.0
230
1.0
 70
     8
 71
     3
 72
    15
 73
    11
 74
     0
 42
0.000000001
 43
0.00000001
 40
0.0
 40
0.0
 40
0.0
 40
0.0
 40
0.1436257966856894
 40
0.280531831589703
 40
0.4111348133238049
 40
0.536993638633976
 40
0.6570916542619761
 40
0.7739792669370521
 40
0.8885432404875898
 40
1.0
 40
1.0
 40
1.0
 40
1.0
 10
-23.58899843162384
 20
-17.56183138502077
 30
0.0
 10
-23.50694070909525
 20
-17.56926364761756
 30
0.0
 10
-23.34666446535471
 20
-17.58378044256142
 30
0.0
 10
-23.11410230567937
 20
-17.62383671859082
 30
0.0
 10
-22.89412922099852
 20
-17.67448742735608
 30
0.0
 10
-22.68787463363093
 20
-17.73916443985705
 30
0.0
 10
-22.49433089505487
 20
-17.8162401169292
 30
0.0
 10
-22.31420350092242
 20
-17.90719518478016
 30
0.0
 10
-22.14602150599065
 20
-18.00994119478157
 30
0.0
 10
-22.04439742752232
 20
-18.09055737003307
 30
0.0
 10
-21.99428392545099
 20
-18.13031132329236
 30
0.0
  0
SPLINE
  5
10C
330
1F
100
AcDbEntity
  8
0
  6
Continuous
 62
     7
370
    25
100
AcDbSpline
210
0.0
220
0.0
230
1.0
 70
     8
 71
     3
 72
     9
 73
     5
 74
     0
 42
0.000000001
 43
0.00000001
 40
0.0
 40
0.0
 40
0.0
 40
0.0
 40
0.501193839775081
 40
1.0
 40
1.0
 40
1.0
 40
1.0
 10
-24.74756324643865
 20
-17.49836687884792
 30
0.0
 10
-24.55402450596825
 20
-17.50926972415241
 30
0.0
 10
-24.16786904053544
 20
-17.53102347377827
 30
0.0
 10
-23.78164791049635
 20
-17.55157844083142
 30
0.0
 10
-23.58899843162384
 20
-17.56183138502076
 30
0.0
  0
SPLINE
  5
10D
330
1F
100
AcDbEntity
  8
0
  6
Continuous
 62
     7
370
    25
100
AcDbSpline
210
0.0
220
0.0
230
1.0
 70
     8
 71
     3
 72
    15
 73
    11
 74
     0
 42
0.000000001
 43
0.00000001
 40
0.0
 40
0.0
 40
0.0
 40
0.0
 40
0.0946146896195341
 40
0.1877983032533343
 40
0.2847217854109235
 40
0.3936000606766646
 40
0.5159802367726918
 40
0.6579453026557706
 40
0.8175478052264867
 40
0.9999999999999999
 40
0.9999999999999999
 40
0.9999999999999999
 40
0.9999999999999999
 10
-25.41056478964853
 20
-17.06356749613187
 30
0.0
 10
-25.40845653044386
 20
-17.09088350383527
 30
0.0
 10
-25.40427190009685
 20
-17.14510235630927
 30
0.0
 10
-25.37118214636395
 20
-17.22175181754977
 30
0.0
 10
-25.31737591057193
 20
-17.28985615960353
 30
0.0
 10
-25.24297392560832
 20
-17.34940553486492
 30
0.0
 10
-25.14701617033896
 20
-17.39875165918931
 30
0.0
 10
-25.03243466289736
 20
-17.4415665186729
 30
0.0
 10
-24.89674834621668
 20
-17.47464287330811
 30
0.0
 10
-24.79945798660518
 20
-17.49011437169385
 30
0.0
 10
-24.74756324643865
 20
-17.49836687884792
 30
0.0
  0
SPLINE
  5
10E
330
1F
100
AcDbEntity
  8
0
  6
Continuous
 62
     7
370
    25
100
AcDbSpline
210
0.0
220
0.0
230
1.0
 70
     8
 71
     3
 72
    15
 73
    11
 74
     0
 42
0.000000001
 43
0.00000001
 40
0.0
 40
0.0
 40
0.0
 40
0.0
 40
0.1700493370884025
 40
0.323278642974515
 40
0.4629570387694108
 40
0.5883416668325677
 40
0.7023263297364593
 40
0.8064297731240174
 40
0.9045482321963576
 40
1.0
 40
1.0
 40
1.0
 40
1.0
 10
-24.86909102421642
 20
-16.45727891588496
 30
0.0
 10
-24.91175588911635
 20
-16.48005574873994
 30
0.0
 10
-24.99286552390645
 20
-16.52335649746786
 30
0.0
 10
-25.10350492779942
 20
-16.59512513602846
 30
0.0
 10
-25.19643414119899
 20
-16.66954786912019
 30
0.0
 10
-25.27527161511246
 20
-16.743359822507
 30
0.0
 10
-25.3356819113784
 20
-16.82078480239151
 30
0.0
 10
-25.37817414692297
 20
-16.90029399106604
 30
0.0
 10
-25.40611536564618
 20
-16.98115229755915
 30
0.0
 10
-25.40909533267104
 20
-17.03634923405333
 30
0.0
 10
-25.41056478964853
 20
-17.06356749613187
 30
0.0
  0
SPLINE
  5
10F
330
1F
100
AcDbEntity
  8
0
  6
Continuous
 62
     7
370
    25
100
AcDbSpline
210
0.0
220
0.0
230
1.0
 70
     8
 71
     3
 72
    11
 73
     7
 74
     0
 42
0.000000001
 43
0.00000001
 40
0.0
 40
0.0
 40
0.0
 40
0.0
 40
0.2507578223896409
 40
0.4982055767043688
 40
0.747126826541088
 40
1.0
 40
1.0
 40
1.0
 40
1.0
 10
-23.76453855508062
 20
-16.17911533563804
 30
0.0
 10
-23.86067292657184
 20
-16.1829356581204
 30
0.0
 10
-24.05167267100047
 20
-16.19052587384081
 30
0.0
 10
-24.33344173580501
 20
-16.24597026699099
 30
0.0
 10
-24.60861166208552
 20
-16.33085202004421
 30
0.0
 10
-24.78180989116412
 20
-16.41491593316343
 30
0.0
 10
-24.86909102421642
 20
-16.45727891588496
 30
0.0
  0
SPLINE
  5
110
330
1F
100
AcDbEntity
  8
0
  6
Continuous
 62
     7
370
    25
100
AcDbSpline
210
0.0
220
0.0
230
1.0
 70
     8
 71
     3
 72
    15
 73
    11
 74
     0
 42
0.000000001
 43
0.00000001
 40
0.0
 40
0.0
 40
0.0
 40
0.0
 40
0.0926347288421894
 40
0.2069044443681614
 40
0.3421011981327977
 40
0.4984300401083906
 40
0.6547588820839804
 40
0.7909945136468846
 40
0.9052642291728566
 40
1.0
 40
1.0
 40
1.0
 40
1.0
 10
-22.49389812298186
 20
-16.35195484181088
 30
0.0
 10
-22.53354456134689
 20
-16.35068598468315
 30
0.0
 10
-22.62209692614159
 20
-16.34785192684894
 30
0.0
 10
-22.76758660187046
 20
-16.33001238900819
 30
0.0
 10
-22.93917129470519
 20
-16.30300761502819
 30
0.0
 10
-23.12719661323436
 20
-16.26555961343565
 30
0.0
 10
-23.31563662752948
 20
-16.22788390069984
 30
0.0
 10
-23.48771829785949
 20
-16.20118486666637
 30
0.0
 10
-23.63453059965929
 20
-16.18308025352169
 30
0.0
 10
-23.72398955628856
 20
-16.18035197881079
 30
0.0
 10
-23.76453855508062
 20
-16.17911533563804
 30
0.0
  0
SPLINE
  5
111
330
1F
100
AcDbEntity
  8
0
  6
Continuous
 62
     7
370
    25
100
AcDbSpline
210
0.0
220
0.0
230
1.0
 70
     8
 71
     3
 72
    11
 73
     7
 74
     0
 42
0.000000001
 43
0.00000001
 40
0.0
 40
0.0
 40
0.0
 40
0.0
 40
0.251448490587393
 40
0.4929178874891834
 40
0.739727007121478
 40
1.0
 40
1.0
 40
1.0
 40
1.0
 10
-22.02939195014235
 20
-16.15210916279853
 30
0.0
 10
-22.06052376669838
 20
-16.18299388763209
 30
0.0
 10
-22.12155188905716
 20
-16.243537632735
 30
0.0
 10
-22.2352063253672
 20
-16.30622971053936
 30
0.0
 10
-22.3602666738592
 20
-16.3459511782715
 30
0.0
 10
-22.44857274889941
 20
-16.3499185075679
 30
0.0
 10
-22.49389812298186
 20
-16.35195484181088
 30
0.0
  0
SPLINE
  5
112
330
1F
100
AcDbEntity
  8
0
  6
Continuous
 62
     7
370
    25
100
AcDbSpline
210
0.0
220
0.0
230
1.0
 70
     8
 71
     3
 72
    11
 73
     7
 74
     0
 42
0.000000001
 43
0.00000001
 40
0.0
 40
0.0
 40
0.0
 40
0.0
 40
0.2497108922701376
 40
0.4935029764042438
 40
0.7415346050405776
 40
1.0
 40
1.0
 40
1.0
 40
1.0
 10
-21.86735491310531
 20
-15.74296564428002
 30
0.0
 10
-21.86881908998338
 20
-15.78059843948605
 30
0.0
 10
-21.87171273887765
 20
-15.85497203318773
 30
0.0
 10
-21.90575446321224
 20
-15.96189671937723
 30
0.0
 10
-21.95450494471442
 20
-16.06437134918584
 30
0.0
 10
-22.00408913922542
 20
-16.12246432261003
 30
0.0
 10
-22.02939195014235
 20
-16.15210916279853
 30
0.0
  0
SPLINE
  5
113
330
1F
100
AcDbEntity
  8
0
  6
Continuous
 62
     7
370
    25
100
AcDbSpline
210
0.0
220
0.0
230
1.0
 70
     8
 71
     3
 72
    15
 73
    11
 74
     0
 42
0.000000001
 43
0.00000001
 40
0.0
 40
0.0
 40
0.0
 40
0.0
 40
0.192068493737856
 40
0.3608903655257284
 40
0.509067404645113
 40
0.6376940868345942
 40
0.7471958102101153
 40
0.8400947758225459
 40
0.9233625621813993
 40
1.0
 40
1.0
 40
1.0
 40
1.0
 10
-22.6829413328584
 20
-15.16908447144051
 30
0.0
 10
-22.61870159327997
 20
-15.18933275500882
 30
0.0
 10
-22.49799724116806
 20
-15.22737861206756
 30
0.0
 10
-22.33259075262166
 20
-15.29458978300795
 30
0.0
 10
-22.19065783570804
 20
-15.36035704844701
 30
0.0
 10
-22.07539496071912
 20
-15.43191748269678
 30
0.0
 10
-21.98407197850403
 20
-15.50436608303082
 30
0.0
 10
-21.91799029103805
 20
-15.57996870947238
 30
0.0
 10
-21.8744981376237
 20
-15.65957831338276
 30
0.0
 10
-21.86966924583596
 20
-15.71594898972574
 30
0.0
 10
-21.86735491310531
 20
-15.74296564428002
 30
0.0
  0
SPLINE
  5
114
330
1F
100
AcDbEntity
  8
0
  6
Continuous
 62
     7
370
    25
100
AcDbSpline
210
0.0
220
0.0
230
1.0
 70
     8
 71
     3
 72
    11
 73
     7
 74
     0
 42
0.000000001
 43
0.00000001
 40
0.0
 40
0.0
 40
0.0
 40
0.0
 40
0.2103576231729271
 40
0.4468476651951369
 40
0.709613430643995
 40
1.0
 40
1.0
 40
1.0
 40
1.0
 10
-23.78614349335223
 20
-14.96923879242817
 30
0.0
 10
-23.70724373562703
 20
-14.97175581058683
 30
0.0
 10
-23.53964261905146
 20
-14.97710253237654
 30
0.0
 10
-23.27631715350545
 20
-15.01856839643898
 30
0.0
 10
-22.98654861277746
 20
-15.0799874739325
 30
0.0
 10
-22.78745752768039
 20
-15.13841300943841
 30
0.0
 10
-22.6829413328584
 20
-15.16908447144051
 30
0.0
  0
SPLINE
  5
115
330
1F
100
AcDbEntity
  8
0
  6
Continuous
 62
     7
370
    25
100
AcDbSpline
210
0.0
220
0.0
230
1.0
 70
     8
 71
     3
 72
    23
 73
    19
 74
     0
 42
0.000000001
 43
0.00000001
 40
0.0
 40
0.0
 40
0.0
 40
0.0
 40
0.0523619261113521
 40
0.1048231033228837
 40
0.1581396741071148
 40
0.2132350004577367
 40
0.2705075254140545
 40
0.3315220881776443
 40
0.3961637755412919
 40
0.4649414604583307
 40
0.5352275012679771
 40
0.6036121435452326
 40
0.670593173965555
 40
0.7363294544397404
 40
0.801848760441043
 40
0.8671463477038105
 40
0.9331697571952017
 40
1.0
 40
1.0
 40
1.0
 40
1.0
 10
-26.79328083903124
 20
-17.31742552082323
 30
0.0
 10
-26.7896021033611
 20
-17.2446790555697
 30
0.0
 10
-26.78223765904275
 20
-17.09904823543087
 30
0.0
 10
-26.73172089623528
 20
-16.88442149652103
 30
0.0
 10
-26.65851646597229
 20
-16.67285312629795
 30
0.0
 10
-26.55072727293686
 20
-16.46877523233968
 30
0.0
 10
-26.41695051557303
 20
-16.26821682904453
 30
0.0
 10
-26.25408491383405
 20
-16.07272394845538
 30
0.0
 10
-26.06255729180865
 20
-15.88194845159729
 30
0.0
 10
-25.845523711383
 20
-15.70023802732061
 30
0.0
 10
-25.61372862094288
 20
-15.52874700041426
 30
0.0
 10
-25.36925582782362
 20
-15.38063135822654
 30
0.0
 10
-25.12097883676444
 20
-15.25216623519847
 30
0.0
 10
-24.86513095366875
 20
-15.14976902894137
 30
0.0
 10
-24.60452357964767
 20
-15.06748815186578
 30
0.0
 10
-24.33664097977076
 20
-15.01188164599847
 30
0.0
 10
-24.06356069873551
 20
-14.97459555906459
 30
0.0
 10
-23.87898953476492
 20
-14.97103159607305
 30
0.0
 10
-23.78614349335223
 20
-14.96923879242817
 30
0.0
  0
SPLINE
  5
116
330
1F
100
AcDbEntity
  8
0
  6
Continuous
 62
     7
370
    25
100
AcDbSpline
210
0.0
220
0.0
230
1.0
 70
     8
 71
     3
 72
    15
 73
    11
 74
     0
 42
0.000000001
 43
0.00000001
 40
0.0
 40
0.0
 40
0.0
 40
0.0
 40
0.1523964463310462
 40
0.2922422282892198
 40
0.4215838819973121
 40
0.5419149964390969
 40
0.6566317077593491
 40
0.7691698612018063
 40
0.8821833423052114
 40
0.9999999999999999
 40
0.9999999999999999
 40
0.9999999999999999
 40
0.9999999999999999
 10
-25.96554164150038
 20
-18.39227119983557
 30
0.0
 10
-26.03208419439256
 20
-18.36093539562738
 30
0.0
 10
-26.15968916420282
 20
-18.30084445868293
 30
0.0
 10
-26.33060008554773
 20
-18.18994075045436
 30
0.0
 10
-26.47761238710882
 20
-18.07217161164588
 30
0.0
 10
-26.59499423797307
 20
-17.94051459878636
 30
0.0
 10
-26.68796148666776
 20
-17.80015036740444
 30
0.0
 10
-26.75171668159115
 20
-17.64813628183511
 30
0.0
 10
-26.79001885824057
 20
-17.48588377508576
 30
0.0
 10
-26.79217853240434
 20
-17.37435186771054
 30
0.0
 10
-26.79328083903124
 20
-17.31742552082323
 30
0.0
  0
SPLINE
  5
117
330
1F
100
AcDbEntity
  8
0
  6
Continuous
 62
     7
370
    25
100
AcDbSpline
210
0.0
220
0.0
230
1.0
 70
     8
 71
     3
 72
    11
 73
     7
 74
     0
 42
0.000000001
 43
0.00000001
 40
0.0
 40
0.0
 40
0.0
 40
0.0
 40
0.2643193603457022
 40
0.5182394472408803
 40
0.7619547231405414
 40
0.9999999999999999
 40
0.9999999999999999
 40
0.9999999999999999
 40
0.9999999999999999
 10
-24.55581941927815
 20
-18.68528817514422
 30
0.0
 10
-24.68345338232965
 20
-18.67982021755508
 30
0.0
 10
-24.93369972968182
 20
-18.66909943147712
 30
0.0
 10
-25.29730958914356
 20
-18.60867666034634
 30
0.0
 10
-25.64276217157004
 20
-18.52224153606511
 30
0.0
 10
-25.8587960093834
 20
-18.4352533811381
 30
0.0
 10
-25.96554164150038
 20
-18.39227119983557
 30
0.0
  0
SPLINE
  5
118
330
1F
100
AcDbEntity
  8
0
  6
Continuous
 62
     7
370
    25
100
AcDbSpline
210
0.0
220
0.0
230
1.0
 70
     8
 71
     3
 72
    15
 73
    11
 74
     0
 42
0.000000001
 43
0.00000001
 40
0.0
 40
0.0
 40
0.0
 40
0.0
 40
0.0728934678791565
 40
0.1602438092373693
 40
0.262711765377186
 40
0.3794074216674378
 40
0.511611575432336
 40
0.659418657407739
 40
0.821857032023328
 40
1.0
 40
1.0
 40
1.0
 40
1.0
 10
-23.20416046866087
 20
-18.83787305168743
 30
0.0
 10
-23.23549209971111
 20
-18.82691319746535
 30
0.0
 10
-23.30436932637063
 20
-18.80281983436534
 30
0.0
 10
-23.42146319701357
 20
-18.77775914113589
 30
0.0
 10
-23.55871716406221
 20
-18.75316033255938
 30
0.0
 10
-23.71747877799494
 20
-18.73377809898392
 30
0.0
 10
-23.89712352100717
 20
-18.71636143027651
 30
0.0
 10
-24.0979032176901
 20
-18.70153785207678
 30
0.0
 10
-24.31987339790192
 20
-18.69082164601
 30
0.0
 10
-24.47478962431029
 20
-18.68718850814031
 30
0.0
 10
-24.55581941927815
 20
-18.68528817514422
 30
0.0
  0
SPLINE
  5
119
330
1F
100
AcDbEntity
  8
0
  6
Continuous
 62
     7
370
    25
100
AcDbSpline
210
0.0
220
0.0
230
1.0
 70
     8
 71
     3
 72
    15
 73
    11
 74
     0
 42
0.000000001
 43
0.00000001
 40
0.0
 40
0.0
 40
0.0
 40
0.0
 40
0.1430490059665088
 40
0.2753103904820821
 40
0.3986516032173227
 40
0.5175006494535541
 40
0.6335340385086092
 40
0.749822224242162
 40
0.8714720964155638
 40
1.0
 40
1.0
 40
1.0
 40
1.0
 10
-22.73155244396951
 20
-19.58054280477385
 30
0.0
 10
-22.73247187880123
 20
-19.53541291101682
 30
0.0
 10
-22.73424141198209
 20
-19.44855646214663
 30
0.0
 10
-22.7582213542062
 20
-19.32471215057693
 30
0.0
 10
-22.7944311491595
 20
-19.21217644892265
 30
0.0
 10
-22.84533643159443
 20
-19.11068918860133
 30
0.0
 10
-22.91446750858351
 20
-19.02342930190624
 30
0.0
 10
-22.99714376443422
 20
-18.94813719869117
 30
0.0
 10
-23.09351812152855
 20
-18.88322088963985
 30
0.0
 10
-23.16660985957236
 20
-18.85326353263885
 30
0.0
 10
-23.20416046866087
 20
-18.83787305168743
 30
0.0
  0
SPLINE
  5
11A
330
1F
100
AcDbEntity
  8
0
  6
Continuous
 62
     7
370
    25
100
AcDbSpline
210
0.0
220
0.0
230
1.0
 70
     8
 71
     3
 72
    15
 73
    11
 74
     0
 42
0.000000001
 43
0.00000001
 40
0.0
 40
0.0
 40
0.0
 40
0.0
 40
0.175037694873995
 40
0.3325648159816048
 40
0.4724415851848569
 40
0.599438229604677
 40
0.7111557908570566
 40
0.8138187340809665
 40
0.9084669639924998
 40
1.0
 40
1.0
 40
1.0
 40
1.0
 10
-23.47422219705593
 20
-20.33671564428002
 30
0.0
 10
-23.41575094223086
 20
-20.30823864497737
 30
0.0
 10
-23.30465783102922
 20
-20.25413345329502
 30
0.0
 10
-23.15311555980067
 20
-20.16527653203691
 30
0.0
 10
-23.02381852420256
 20
-20.07461278626878
 30
0.0
 10
-22.91867303987549
 20
-19.98079068862266
 30
0.0
 10
-22.83455009716672
 20
-19.88521978900391
 30
0.0
 10
-22.77542366155549
 20
-19.78610588183036
 30
0.0
 10
-22.7394782864399
 20
-19.68375103115113
 30
0.0
 10
-22.73416475604418
 20
-19.61455964235019
 30
0.0
 10
-22.73155244396951
 20
-19.58054280477385
 30
0.0
  0
SPLINE
  5
11B
330
1F
100
AcDbEntity
  8
0
  6
Continuous
 62
     7
370
    25
100
AcDbSpline
210
0.0
220
0.0
230
1.0
 70
     8
 71
     3
 72
    15
 73
    11
 74
     0
 42
0.000000001
 43
0.00000001
 40
0.0
 40
0.0
 40
0.0
 40
0.0
 40
0.1244952012841646
 40
0.2485108195986503
 40
0.3714571682480287
 40
0.4955638302538127
 40
0.6195071939493914
 40
0.7453961577417009
 40
0.8719393190052516
 40
1.0
 40
1.0
 40
1.0
 40
1.0
 10
-24.95416046866087
 20
-20.67294249613187
 30
0.0
 10
-24.89065858052955
 20
-20.67193354735236
 30
0.0
 10
-24.76389942754377
 20
-20.66991953648652
 30
0.0
 10
-24.57509634922413
 20
-20.65276746399326
 30
0.0
 10
-24.38750890875567
 20
-20.62740753162803
 30
0.0
 10
-24.20169012881932
 20
-20.59110695764459
 30
0.0
 10
-24.01698831661743
 20
-20.543271421927
 30
0.0
 10
-23.83382072664255
 20
-20.48558917969773
 30
0.0
 10
-23.65237972541259
 20
-20.41642651902044
 30
0.0
 10
-23.53384354426561
 20
-20.363391304765
 30
0.0
 10
-23.47422219705593
 20
-20.33671564428002
 30
0.0
  0
SPLINE
  5
11C
330
1F
100
AcDbEntity
  8
0
  6
Continuous
 62
     7
370
    25
100
AcDbSpline
210
0.0
220
0.0
230
1.0
 70
     8
 71
     3
 72
    15
 73
    11
 74
     0
 42
0.000000001
 43
0.00000001
 40
0.0
 40
0.0
 40
0.0
 40
0.0
 40
0.1088583776045101
 40
0.2171223022868526
 40
0.3269214374055631
 40
0.4411363351049325
 40
0.5629058232383694
 40
0.6963694084071423
 40
0.8412272487620533
 40
1.0
 40
1.0
 40
1.0
 40
1.0
 10
-26.10192281433988
 20
-20.12876811341582
 30
0.0
 10
-26.07926382408727
 20
-20.17216478221215
 30
0.0
 10
-26.03406957960738
 20
-20.25872113963709
 30
0.0
 10
-25.93643193076761
 20
-20.36951596844208
 30
0.0
 10
-25.82232174096423
 20
-20.46621880776313
 30
0.0
 10
-25.6857143723309
 20
-20.54121816986785
 30
0.0
 10
-25.5309301803854
 20
-20.60117820500992
 30
0.0
 10
-25.35617055345427
 20
-20.64334783297581
 30
0.0
 10
-25.16153128947274
 20
-20.66918763264264
 30
0.0
 10
-25.02536418346364
 20
-20.6716532104553
 30
0.0
 10
-24.95416046866087
 20
-20.67294249613187
 30
0.0
  0
SPLINE
  5
11D
330
1F
100
AcDbEntity
  8
0
  6
Continuous
 62
     7
370
    25
100
AcDbSpline
210
0.0
220
0.0
230
1.0
 70
     8
 71
     3
 72
    15
 73
    11
 74
     0
 42
0.000000001
 43
0.00000001
 40
0.0
 40
0.0
 40
0.0
 40
0.0
 40
0.13041813279435
 40
0.2543342601435537
 40
0.3723978907109819
 40
0.4896516192595357
 40
0.6091960388498022
 40
0.7314925892474166
 40
0.8612909943738896
 40
1.0
 40
1.0
 40
1.0
 40
1.0
 10
-26.7244150982905
 20
-19.72232521218125
 30
0.0
 10
-26.69011561938262
 20
-19.72365154166207
 30
0.0
 10
-26.62322666456911
 20
-19.72623807637148
 30
0.0
 10
-26.52681863686301
 20
-19.74546419394712
 30
0.0
 10
-26.43730709887893
 20
-19.7765484527106
 30
0.0
 10
-26.3551414526929
 20
-19.82174989197032
 30
0.0
 10
-26.28102137017039
 20
-19.88072778852232
 30
0.0
 10
-26.21232901316521
 20
-19.95048189839332
 30
0.0
 10
-26.15085184478674
 20
-20.03340755770741
 30
0.0
 10
-26.118589375133
 20
-20.09628571013775
 30
0.0
 10
-26.10192281433988
 20
-20.12876811341582
 30
0.0
  0
SPLINE
  5
11E
330
1F
100
AcDbEntity
  8
0
  6
Continuous
 62
     7
370
    25
100
AcDbSpline
210
0.0
220
0.0
230
1.0
 70
     8
 71
     3
 72
    15
 73
    11
 74
     0
 42
0.000000001
 43
0.00000001
 40
0.0
 40
0.0
 40
0.0
 40
0.0
 40
0.128604596051225
 40
0.250843812815473
 40
0.3683518098759477
 40
0.4876965121177383
 40
0.6084504500055686
 40
0.7299426662102058
 40
0.858641191376365
 40
1.0
 40
1.0
 40
1.0
 40
1.0
 10
-27.39821911063618
 20
-20.38532675539113
 30
0.0
 10
-27.39638257041106
 20
-20.33963906961315
 30
0.0
 10
-27.39280039087312
 20
-20.25052504374505
 30
0.0
 10
-27.35797072472162
 20
-20.12347494224226
 30
0.0
 10
-27.30175155079376
 20
-20.00839817544563
 30
0.0
 10
-27.22280609430264
 20
-19.907933270025
 30
0.0
 10
-27.12384872625578
 20
-19.82487441065746
 30
0.0
 10
-27.00603183030602
 20
-19.76404368318422
 30
0.0
 10
-26.87044737560654
 20
-19.72877443172632
 30
0.0
 10
-26.7745904478062
 20
-19.72454110479572
 30
0.0
 10
-26.7244150982905
 20
-19.72232521218125
 30
0.0
  0
SPLINE
  5
11F
330
1F
100
AcDbEntity
  8
0
  6
Continuous
 62
     7
370
    25
100
AcDbSpline
210
0.0
220
0.0
230
1.0
 70
     8
 71
     3
 72
    15
 73
    11
 74
     0
 42
0.000000001
 43
0.00000001
 40
0.0
 40
0.0
 40
0.0
 40
0.0
 40
0.1451149827225214
 40
0.2815371211796971
 40
0.4104859314944876
 40
0.5324720964732303
 40
0.6516146251943908
 40
0.7678156008999452
 40
0.8826697365767042
 40
1.0
 40
1.0
 40
1.0
 40
1.0
 10
-26.83784102421642
 20
-21.36970175539113
 30
0.0
 10
-26.88203812317421
 20
-21.33388017638336
 30
0.0
 10
-26.96778477573634
 20
-21.26438284371136
 30
0.0
 10
-27.08396181883578
 20
-21.15257113510905
 30
0.0
 10
-27.17989659101397
 20
-21.03444241834065
 30
0.0
 10
-27.25953365078804
 20
-20.91295568351141
 30
0.0
 10
-27.3227708554719
 20
-20.78740045897927
 30
0.0
 10
-27.36506207480077
 20
-20.65652017905413
 30
0.0
 10
-27.39453397076256
 20
-20.52257136600185
 30
0.0
 10
-27.39698202825171
 20
-20.43139906091367
 30
0.0
 10
-27.39821911063618
 20
-20.38532675539113
 30
0.0
  0
SPLINE
  5
120
330
1F
100
AcDbEntity
  8
0
  6
Continuous
 62
     7
370
    25
100
AcDbSpline
210
0.0
220
0.0
230
1.0
 70
     8
 71
     3
 72
    15
 73
    11
 74
     0
 42
0.000000001
 43
0.00000001
 40
0.0
 40
0.0
 40
0.0
 40
0.0
 40
0.1459389750451787
 40
0.2846780885171354
 40
0.4167029796112605
 40
0.5422405147698622
 40
0.6624499223550853
 40
0.778026076704022
 40
0.8900844323462652
 40
0.9999999999999999
 40
0.9999999999999999
 40
0.9999999999999999
 40
0.9999999999999999
 10
-25.01762497483371
 20
-21.88281903934175
 30
0.0
 10
-25.11131116748717
 20
-21.88139978293825
 30
0.0
 10
-25.29406156872014
 20
-21.87863128877869
 30
0.0
 10
-25.56048329647832
 20
-21.85316815697265
 30
0.0
 10
-25.81232205125513
 20
-21.81587214991396
 30
0.0
 10
-26.04799139668729
 20
-21.75794151333518
 30
0.0
 10
-26.26943164267364
 20
-21.68797019356719
 30
0.0
 10
-26.47375809202545
 20
-21.59734083455854
 30
0.0
 10
-26.66504033899015
 20
-21.49460268631591
 30
0.0
 10
-26.78061268187497
 20
-21.41106659850139
 30
0.0
 10
-26.83784102421642
 20
-21.36970175539113
 30
0.0
  0
SPLINE
  5
121
330
1F
100
AcDbEntity
  8
0
  6
Continuous
 62
     7
370
    25
100
AcDbSpline
210
0.0
220
0.0
230
1.0
 70
     8
 71
     3
 72
    15
 73
    11
 74
     0
 42
0.000000001
 43
0.00000001
 40
0.0
 40
0.0
 40
0.0
 40
0.0
 40
0.1173428724500353
 40
0.2361654417632988
 40
0.3570525901136122
 40
0.4796793053207788
 40
0.6049786899020684
 40
0.7333828868917321
 40
0.8651390239244431
 40
1.0
 40
1.0
 40
1.0
 40
1.0
 10
-22.68699225878432
 20
-21.42236379242817
 30
0.0
 10
-22.77295931067849
 20
-21.45952241275878
 30
0.0
 10
-22.94597746136607
 20
-21.53430822464887
 30
0.0
 10
-23.21587627554552
 20
-21.62624005315174
 30
0.0
 10
-23.49375118517588
 20
-21.70631405341433
 30
0.0
 10
-23.78095290821583
 20
-21.77121603166996
 30
0.0
 10
-24.07723660029637
 20
-21.82067010157854
 30
0.0
 10
-24.38268459406545
 20
-21.85725995561512
 30
0.0
 10
-24.69727308785984
 20
-21.87930428975987
 30
0.0
 10
-24.91001519654476
 20
-21.88163839568511
 30
0.0
 10
-25.01762497483371
 20
-21.88281903934175
 30
0.0
  0
SPLINE
  5
122
330
1F
100
AcDbEntity
  8
0
  6
Continuous
 62
     7
370
    25
100
AcDbSpline
210
0.0
220
0.0
230
1.0
 70
     8
 71
     3
 72
    15
 73
    11
 74
     0
 42
0.000000001
 43
0.00000001
 40
0.0
 40
0.0
 40
0.0
 40
0.0
 40
0.1052173976095508
 40
0.2085497889127019
 40
0.3153343785999265
 40
0.4284228634349121
 40
0.5510912367304629
 40
0.6864587209433857
 40
0.8357733023540767
 40
1.0
 40
1.0
 40
1.0
 40
1.0
 10
-11.15130553038927
 20
-20.6931971257615
 30
0.0
 10
-11.15367262973998
 20
-20.73531180288563
 30
0.0
 10
-11.1583644210325
 20
-20.81878665803227
 30
0.0
 10
-11.19546570732718
 20
-20.94045722931538
 30
0.0
 10
-11.25579683635877
 20
-21.05548328159119
 30
0.0
 10
-11.34192850202492
 20
-21.16278825222147
 30
0.0
 10
-11.45015751559701
 20
-21.26478996537467
 30
0.0
 10
-11.58235770685016
 20
-21.36051986139143
 30
0.0
 10
-11.73865977527479
 20
-21.44932125036863
 30
0.0
 10
-11.85299374227236
 20
-21.50075033363925
 30
0.0
 10
-11.91287960446334
 20
-21.52768786650224
 30
0.0
  0
SPLINE
  5
123
330
1F
100
AcDbEntity
  8
0
  6
Continuous
 62
     7
370
    25
100
AcDbSpline
210
0.0
220
0.0
230
1.0
 70
     8
 71
     3
 72
    15
 73
    11
 74
     0
 42
0.000000001
 43
0.00000001
 40
0.0
 40
0.0
 40
0.0
 40
0.0
 40
0.1491561492079557
 40
0.2797105336524452
 40
0.3986578663545176
 40
0.5102351642711134
 40
0.6186531441849185
 40
0.7325706810321869
 40
0.8578808703085113
 40
0.9999999999999999
 40
0.9999999999999999
 40
0.9999999999999999
 40
0.9999999999999999
 10
-11.62796448100656
 20
-20.24084373069977
 30
0.0
 10
-11.59046535220263
 20
-20.24177174587926
 30
0.0
 10
-11.52014373700309
 20
-20.24351204034563
 30
0.0
 10
-11.42203173091158
 20
-20.26587821821421
 30
0.0
 10
-11.33761740456108
 20
-20.30025279416937
 30
0.0
 10
-11.2680630383993
 20
-20.351041385632
 30
0.0
 10
-11.2155784712823
 20
-20.41733159756805
 30
0.0
 10
-11.176572865834
 20
-20.49617467654043
 30
0.0
 10
-11.15600905397939
 20
-20.59046997342219
 30
0.0
 10
-11.15293771989286
 20
-20.6575493445675
 30
0.0
 10
-11.15130553038927
 20
-20.6931971257615
 30
0.0
  0
SPLINE
  5
124
330
1F
100
AcDbEntity
  8
0
  6
Continuous
 62
     7
370
    25
100
AcDbSpline
210
0.0
220
0.0
230
1.0
 70
     8
 71
     3
 72
    11
 73
     7
 74
     0
 42
0.000000001
 43
0.00000001
 40
0.0
 40
0.0
 40
0.0
 40
0.0
 40
0.311439385643289
 40
0.5801445577494322
 40
0.8072651203850847
 40
1.0
 40
1.0
 40
1.0
 40
1.0
 10
-12.23695367853742
 20
-20.44474033563804
 30
0.0
 10
-12.17716241937889
 20
-20.41383625493644
 30
0.0
 10
-12.06578416986766
 20
-20.35626860274546
 30
0.0
 10
-11.90323355111543
 20
-20.29350689065424
 30
0.0
 10
-11.76040146780303
 20
-20.24887109500801
 30
0.0
 10
-11.66963217603159
 20
-20.24336932249963
 30
0.0
 10
-11.62796448100656
 20
-20.24084373069977
 30
0.0
  0
SPLINE
  5
125
330
1F
100
AcDbEntity
  8
0
  6
Continuous
 62
     7
370
    25
100
AcDbSpline
210
0.0
220
0.0
230
1.0
 70
     8
 71
     3
 72
    11
 73
     7
 74
     0
 42
0.000000001
 43
0.00000001
 40
0.0
 40
0.0
 40
0.0
 40
0.0
 40
0.2755137477419612
 40
0.5310501508782249
 40
0.7716403086845642
 40
1.0
 40
1.0
 40
1.0
 40
1.0
 10
-13.27669133285841
 20
-20.67294249613187
 30
0.0
 10
-13.1779472656641
 20
-20.67011026539144
 30
0.0
 10
-12.98761900723185
 20
-20.66465116734513
 30
0.0
 10
-12.71384134634134
 20
-20.62240291425249
 30
0.0
 10
-12.46242655126457
 20
-20.55325955334879
 30
0.0
 10
-12.31079307500357
 20
-20.48027895030074
 30
0.0
 10
-12.23695367853742
 20
-20.44474033563804
 30
0.0
  0
SPLINE
  5
126
330
1F
100
AcDbEntity
  8
0
  6
Continuous
 62
     7
370
    25
100
AcDbSpline
210
0.0
220
0.0
230
1.0
 70
     8
 71
     3
 72
    15
 73
    11
 74
     0
 42
0.000000001
 43
0.00000001
 40
0.0
 40
0.0
 40
0.0
 40
0.0
 40
0.1139521006089613
 40
0.2280790951902415
 40
0.3438027131538814
 40
0.4634121868015374
 40
0.5882396598655188
 40
0.7184782111150644
 40
0.8551140689090582
 40
1.0
 40
1.0
 40
1.0
 40
1.0
 10
-14.52167590075964
 20
-20.24084373069978
 30
0.0
 10
-14.48374013650107
 20
-20.2755497244159
 30
0.0
 10
-14.40781038407695
 20
-20.34501497869509
 30
0.0
 10
-14.27934963978077
 20
-20.43254641523865
 30
0.0
 10
-14.14059855177656
 20
-20.5076243318477
 30
0.0
 10
-13.98967154681668
 20
-20.56832055036591
 30
0.0
 10
-13.82719774561196
 20
-20.61530914430443
 30
0.0
 10
-13.65364333367584
 20
-20.64871149514468
 30
0.0
 10
-13.46893544496371
 20
-20.66937966492884
 30
0.0
 10
-13.34201254041231
 20
-20.67173190802104
 30
0.0
 10
-13.27669133285841
 20
-20.67294249613187
 30
0.0
  0
SPLINE
  5
128
330
1F
100
AcDbEntity
  8
0
  6
Continuous
 62
     7
370
    25
100
AcDbSpline
210
0.0
220
0.0
230
1.0
 70
     8
 71
     3
 72
    15
 73
    11
 74
     0
 42
0.000000001
 43
0.00000001
 40
0.0
 40
0.0
 40
0.0
 40
0.0
 40
0.0749012448237878
 40
0.1636933426948852
 40
0.2660949471960398
 40
0.3842420430116552
 40
0.5160908167838953
 40
0.663280353500226
 40
0.8242222924919376
 40
1.0
 40
1.0
 40
1.0
 40
1.0
 10
-11.96959256742631
 20
-19.04987150847755
 30
0.0
 10
-11.99326132217425
 20
-19.06592357943885
 30
0.0
 10
-12.04498833407146
 20
-19.10100466733013
 30
0.0
 10
-12.13342280883815
 20
-19.15107939157529
 30
0.0
 10
-12.23644863603113
 20
-19.2087351596804
 30
0.0
 10
-12.35639257351846
 20
-19.26964667148063
 30
0.0
 10
-12.49158730647518
 20
-19.33824885339789
 30
0.0
 10
-12.6441395668931
 20
-19.40850412249615
 30
0.0
 10
-12.81174685083607
 20
-19.48608240624733
 30
0.0
 10
-12.92914208430738
 20
-19.53838558763149
 30
0.0
 10
-12.99042590075965
 20
-19.56568940971212
 30
0.0
  0
SPLINE
  5
129
330
1F
100
AcDbEntity
  8
0
  6
Continuous
 62
     7
370
    25
100
AcDbSpline
210
0.0
220
0.0
230
1.0
 70
     8
 71
     3
 72
    15
 73
    11
 74
     0
 42
0.000000001
 43
0.00000001
 40
0.0
 40
0.0
 40
0.0
 40
0.0
 40
0.1129409739430011
 40
0.2259091036868134
 40
0.339547271648509
 40
0.4564714946795472
 40
0.5795744920439289
 40
0.7101970510270441
 40
0.8496555315685878
 40
1.0
 40
1.0
 40
1.0
 40
1.0
 10
-11.41056478964853
 20
-18.16541934798373
 30
0.0
 10
-11.41187938146258
 20
-18.20654221139519
 30
0.0
 10
-11.41450888117433
 20
-18.28879782589881
 30
0.0
 10
-11.44346588784711
 20
-18.40948048949199
 30
0.0
 10
-11.48657326649537
 20
-18.52689755545137
 30
0.0
 10
-11.5481387651668
 20
-18.64037217976401
 30
0.0
 10
-11.62947243318436
 20
-18.74815128477179
 30
0.0
 10
-11.72557545361715
 20
-18.8541689528747
 30
0.0
 10
-11.84012252329614
 20
-18.95581511197564
 30
0.0
 10
-11.9253685093202
 20
-19.01774395671763
 30
0.0
 10
-11.96959256742631
 20
-19.04987150847755
 30
0.0
  0
SPLINE
  5
12A
330
1F
100
AcDbEntity
  8
0
  6
Continuous
 62
     7
370
    25
100
AcDbSpline
210
0.0
220
0.0
230
1.0
 70
     8
 71
     3
 72
    15
 73
    11
 74
     0
 42
0.000000001
 43
0.00000001
 40
0.0
 40
0.0
 40
0.0
 40
0.0
 40
0.1390492406404009
 40
0.2692447721851126
 40
0.3928199504358612
 40
0.5115691258138428
 40
0.6286847609762505
 40
0.7479428386541831
 40
0.8709887845875901
 40
1.0
 40
1.0
 40
1.0
 40
1.0
 10
-12.09517127113001
 20
-17.12433138502076
 30
0.0
 10
-12.04079585887135
 20
-17.15267473358834
 30
0.0
 10
-11.93550729045755
 20
-17.20755671922809
 30
0.0
 10
-11.79523907493513
 20
-17.31000278343538
 30
0.0
 10
-11.67631639131403
 20
-17.42386080217175
 30
0.0
 10
-11.57953703216886
 20
-17.54977708632291
 30
0.0
 10
-11.50148312911013
 20
-17.6862384142165
 30
0.0
 10
-11.45025053175348
 20
-17.83670750302084
 30
0.0
 10
-11.41620030912629
 20
-17.99735850799732
 30
0.0
 10
-11.41247270240553
 20
-18.10852212283394
 30
0.0
 10
-11.41056478964853
 20
-18.16541934798373
 30
0.0
  0
SPLINE
  5
12B
330
1F
100
AcDbEntity
  8
0
  6
Continuous
 62
     7
370
    25
100
AcDbSpline
210
0.0
220
0.0
230
1.0
 70
     8
 71
     3
 72
    15
 73
    11
 74
     0
 42
0.000000001
 43
0.00000001
 40
0.0
 40
0.0
 40
0.0
 40
0.0
 40
0.1434154265825529
 40
0.2810792918024099
 40
0.4131789255870256
 40
0.5392821929012968
 40
0.6614164036434959
 40
0.778490280276642
 40
0.8904547156605968
 40
1.0
 40
1.0
 40
1.0
 40
1.0
 10
-13.40632096248803
 20
-16.8704733603294
 30
0.0
 10
-13.34192994617874
 20
-16.8711659011834
 30
0.0
 10
-13.21573026394138
 20
-16.87252320909249
 30
0.0
 10
-13.03066573709789
 20
-16.88566056819259
 30
0.0
 10
-12.85369939900557
 20
-16.90297846969221
 30
0.0
 10
-12.68550602215324
 20
-16.93278902505598
 30
0.0
 10
-12.52484139247181
 20
-16.96619927718454
 30
0.0
 10
-12.37379230367227
 20
-17.01174079627236
 30
0.0
 10
-12.23036436697183
 20
-17.06245427813494
 30
0.0
 10
-12.13990633310753
 20
-17.10385640296424
 30
0.0
 10
-12.09517127113002
 20
-17.12433138502076
 30
0.0
  0
SPLINE
  5
12C
330
1F
100
AcDbEntity
  8
0
  6
Continuous
 62
     7
370
    25
100
AcDbSpline
210
0.0
220
0.0
230
1.0
 70
     8
 71
     3
 72
    15
 73
    11
 74
     0
 42
0.000000001
 43
0.00000001
 40
0.0
 40
0.0
 40
0.0
 40
0.0
 40
0.1294131050389281
 40
0.2539127797705638
 40
0.3751723898635012
 40
0.4957152085687564
 40
0.6167121421940687
 40
0.7400835713010937
 40
0.8672004800588684
 40
1.0
 40
1.0
 40
1.0
 40
1.0
 10
-15.21438423409298
 20
-17.74682366897138
 30
0.0
 10
-15.15734972517323
 20
-17.67708147118537
 30
0.0
 10
-15.04544613783324
 20
-17.54024497922559
 30
0.0
 10
-14.85486609955665
 20
-17.3606966843731
 30
0.0
 10
-14.64893325623317
 20
-17.20972792788976
 30
0.0
 10
-14.42930259071787
 20
-17.08418227352209
 30
0.0
 10
-14.19369462440507
 20
-16.98753118593028
 30
0.0
 10
-13.94344454982478
 20
-16.92132864658388
 30
0.0
 10
-13.67973330920305
 20
-16.87724429276879
 30
0.0
 10
-13.49877717292581
 20
-16.87276299633889
 30
0.0
 10
-13.40632096248803
 20
-16.8704733603294
 30
0.0
  0
SPLINE
  5
12D
330
1F
100
AcDbEntity
  8
0
  6
Continuous
 62
     7
370
    25
100
AcDbSpline
210
0.0
220
0.0
230
1.0
 70
     8
 71
     3
 72
    15
 73
    11
 74
     0
 42
0.000000001
 43
0.00000001
 40
0.0
 40
0.0
 40
0.0
 40
0.0
 40
0.1356633930568986
 40
0.2673844162213238
 40
0.3945733668204069
 40
0.5186616802098387
 40
0.6404889588292112
 40
0.7600734442501387
 40
0.8800698033600247
 40
1.0
 40
1.0
 40
1.0
 40
1.0
 10
-15.81797219705594
 20
-19.67911533563805
 30
0.0
 10
-15.81620290952919
 20
-19.58587166936611
 30
0.0
 10
-15.81271574986285
 20
-19.40209399205266
 30
0.0
 10
-15.78381294020849
 20
-19.13214183794933
 30
0.0
 10
-15.73679819423391
 20
-18.87295827018307
 30
0.0
 10
-15.6706280624942
 20
-18.62493695041934
 30
0.0
 10
-15.58543769488095
 20
-18.38833545041163
 30
0.0
 10
-15.48211495114703
 20
-18.162240420591
 30
0.0
 10
-15.36013331954072
 20
-17.94679408244619
 30
0.0
 10
-15.26295833020694
 20
-17.81346821808972
 30
0.0
 10
-15.21438423409298
 20
-17.74682366897138
 30
0.0
  0
SPLINE
  5
12E
330
1F
100
AcDbEntity
  8
0
  6
Continuous
 62
     7
370
    25
100
AcDbSpline
210
0.0
220
0.0
230
1.0
 70
     8
 71
     3
 72
    15
 73
    11
 74
     0
 42
0.000000001
 43
0.00000001
 40
0.0
 40
0.0
 40
0.0
 40
0.0
 40
0.1265876729879401
 40
0.2485696688967829
 40
0.3687035129490663
 40
0.4884388872594034
 40
0.6097492846436641
 40
0.734533492152662
 40
0.8639247383752134
 40
1.0
 40
1.0
 40
1.0
 40
1.0
 10
-15.05099688841396
 20
-21.28193169366273
 30
0.0
 10
-15.11213368011572
 20
-21.23339904562771
 30
0.0
 10
-15.23218290538401
 20
-21.13809952737289
 30
0.0
 10
-15.38840812621008
 20
-20.97222699950149
 30
0.0
 10
-15.52219508248456
 20
-20.79333100342134
 30
0.0
 10
-15.63088901057166
 20
-20.59847101250943
 30
0.0
 10
-15.7152310400258
 20
-20.38882786755148
 30
0.0
 10
-15.77365208939339
 20
-20.16460375033333
 30
0.0
 10
-15.81160171620071
 20
-19.92660583847741
 30
0.0
 10
-15.81581335602132
 20
-19.76298540217631
 30
0.0
 10
-15.81797219705594
 20
-19.67911533563804
 30
0.0
  0
SPLINE
  5
12F
330
1F
100
AcDbEntity
  8
0
  6
Continuous
 62
     7
370
    25
100
AcDbSpline
210
0.0
220
0.0
230
1.0
 70
     8
 71
     3
 72
    15
 73
    11
 74
     0
 42
0.000000001
 43
0.00000001
 40
0.0
 40
0.0
 40
0.0
 40
0.0
 40
0.1410208850432639
 40
0.2761519663806455
 40
0.4060146168840468
 40
0.5304434784343992
 40
0.6519475725320311
 40
0.7695745017136858
 40
0.8854959989344067
 40
0.9999999999999999
 40
0.9999999999999999
 40
0.9999999999999999
 40
0.9999999999999999
 10
-13.26858948100655
 20
-21.79639928625533
 30
0.0
 10
-13.35731532407277
 20
-21.79490430955181
 30
0.0
 10
-13.53106133356632
 20
-21.79197679455115
 30
0.0
 10
-13.78557278016015
 20
-21.76728048787516
 30
0.0
 10
-14.02732686962505
 20
-21.72681958225306
 30
0.0
 10
-14.25758055773255
 20
-21.672064744563
 30
0.0
 10
-14.47452260945667
 20
-21.59877268431852
 30
0.0
 10
-14.68023013743384
 20
-21.51116310306402
 30
0.0
 10
-14.87273929604489
 20
-21.4058401288332
 30
0.0
 10
-14.99182187559271
 20
-21.3230647704783
 30
0.0
 10
-15.05099688841396
 20
-21.28193169366273
 30
0.0
  0
SPLINE
  5
130
330
1F
100
AcDbEntity
  8
0
  6
Continuous
 62
     7
370
    25
100
AcDbSpline
210
0.0
220
0.0
230
1.0
 70
     8
 71
     3
 72
    11
 73
     7
 74
     0
 42
0.000000001
 43
0.00000001
 40
0.0
 40
0.0
 40
0.0
 40
0.0
 40
0.24783832090348
 40
0.4950750361462379
 40
0.7453731068900139
 40
1.0
 40
1.0
 40
1.0
 40
1.0
 10
-11.91287960446334
 20
-21.52768786650224
 30
0.0
 10
-12.02012371955465
 20
-21.56926631934838
 30
0.0
 10
-12.23435162410849
 20
-21.65232229701427
 30
0.0
 10
-12.57095641284935
 20
-21.73376249624903
 30
0.0
 10
-12.91617350543694
 20
-21.78812411594006
 30
0.0
 10
-13.15044799518316
 20
-21.79362517558992
 30
0.0
 10
-13.26858948100655
 20
-21.79639928625533
 30
0.0
  0
SPLINE
  5
131
330
1F
100
AcDbEntity
  8
0
  6
Continuous
 62
     7
370
    25
100
AcDbSpline
210
0.0
220
0.0
230
1.0
 70
     8
 71
     3
 72
    15
 73
    11
 74
     0
 42
0.000000001
 43
0.00000001
 40
0.0
 40
0.0
 40
0.0
 40
0.0
 40
0.1052173976095508
 40
0.2085497889127015
 40
0.3153343785999258
 40
0.4284228634349114
 40
0.5510912367304632
 40
0.6864587209433851
 40
0.8357733023540754
 40
1.0
 40
1.0
 40
1.0
 40
1.0
 10
2.243756198005792
 20
-20.69319712576149
 30
0.0
 10
2.24138909865508
 20
-20.73531180288563
 30
0.0
 10
2.236697307362562
 20
-20.81878665803226
 30
0.0
 10
2.199596021067882
 20
-20.94045722931538
 30
0.0
 10
2.139264892036301
 20
-21.05548328159118
 30
0.0
 10
2.05313322637015
 20
-21.16278825222146
 30
0.0
 10
1.944904212798047
 20
-21.26478996537466
 30
0.0
 10
1.812704021544903
 20
-21.36051986139142
 30
0.0
 10
1.656401953120272
 20
-21.44932125036862
 30
0.0
 10
1.542067986122698
 20
-21.50075033363924
 30
0.0
 10
1.482182123931718
 20
-21.52768786650223
 30
0.0
  0
SPLINE
  5
132
330
1F
100
AcDbEntity
  8
0
  6
Continuous
 62
     7
370
    25
100
AcDbSpline
210
0.0
220
0.0
230
1.0
 70
     8
 71
     3
 72
    15
 73
    11
 74
     0
 42
0.000000001
 43
0.00000001
 40
0.0
 40
0.0
 40
0.0
 40
0.0
 40
0.1491561492079578
 40
0.2797105336524461
 40
0.3986578663545184
 40
0.510235164271114
 40
0.6186531441849197
 40
0.732570681032187
 40
0.8578808703085117
 40
1.0
 40
1.0
 40
1.0
 40
1.0
 10
1.767097247388508
 20
-20.24084373069977
 30
0.0
 10
1.80459637619243
 20
-20.24177174587926
 30
0.0
 10
1.874917991391965
 20
-20.24351204034563
 30
0.0
 10
1.973029997483486
 20
-20.2658782182142
 30
0.0
 10
2.057444323833986
 20
-20.30025279416937
 30
0.0
 10
2.12699868999576
 20
-20.35104138563199
 30
0.0
 10
2.179483257112771
 20
-20.41733159756805
 30
0.0
 10
2.218488862561062
 20
-20.49617467654042
 30
0.0
 10
2.239052674415682
 20
-20.59046997342219
 30
0.0
 10
2.242124008502211
 20
-20.6575493445675
 30
0.0
 10
2.243756198005792
 20
-20.69319712576149
 30
0.0
  0
SPLINE
  5
133
330
1F
100
AcDbEntity
  8
0
  6
Continuous
 62
     7
370
    25
100
AcDbSpline
210
0.0
220
0.0
230
1.0
 70
     8
 71
     3
 72
    11
 73
     7
 74
     0
 42
0.000000001
 43
0.00000001
 40
0.0
 40
0.0
 40
0.0
 40
0.0
 40
0.3114393856432903
 40
0.5801445577494335
 40
0.8072651203850872
 40
0.9999999999999999
 40
0.9999999999999999
 40
0.9999999999999999
 40
0.9999999999999999
 10
1.158108049857644
 20
-20.44474033563804
 30
0.0
 10
1.217899309016168
 20
-20.41383625493643
 30
0.0
 10
1.329277558527409
 20
-20.35626860274545
 30
0.0
 10
1.491828177279629
 20
-20.29350689065423
 30
0.0
 10
1.634660260592037
 20
-20.248871095008
 30
0.0
 10
1.725429552363468
 20
-20.24336932249961
 30
0.0
 10
1.767097247388508
 20
-20.24084373069977
 30
0.0
  0
SPLINE
  5
134
330
1F
100
AcDbEntity
  8
0
  6
Continuous
 62
     7
370
    25
100
AcDbSpline
210
0.0
220
0.0
230
1.0
 70
     8
 71
     3
 72
    11
 73
     7
 74
     0
 42
0.000000001
 43
0.00000001
 40
0.0
 40
0.0
 40
0.0
 40
0.0
 40
0.2755137477419618
 40
0.5310501508782256
 40
0.7716403086845648
 40
1.0
 40
1.0
 40
1.0
 40
1.0
 10
0.1183703955366516
 20
-20.67294249613186
 30
0.0
 10
0.217114462730969
 20
-20.67011026539143
 30
0.0
 10
0.4074427211632203
 20
-20.66465116734512
 30
0.0
 10
0.6812203820537183
 20
-20.62240291425249
 30
0.0
 10
0.9326351771304919
 20
-20.55325955334879
 30
0.0
 10
1.084268653391486
 20
-20.48027895030074
 30
0.0
 10
1.158108049857644
 20
-20.44474033563804
 30
0.0
  0
SPLINE
  5
135
330
1F
100
AcDbEntity
  8
0
  6
Continuous
 62
     7
370
    25
100
AcDbSpline
210
0.0
220
0.0
230
1.0
 70
     8
 71
     3
 72
    15
 73
    11
 74
     0
 42
0.000000001
 43
0.00000001
 40
0.0
 40
0.0
 40
0.0
 40
0.0
 40
0.1139521006089617
 40
0.2280790951902416
 40
0.3438027131538813
 40
0.4634121868015373
 40
0.5882396598655187
 40
0.7184782111150645
 40
0.8551140689090576
 40
1.0
 40
1.0
 40
1.0
 40
1.0
 10
-1.126614172364579
 20
-20.24084373069977
 30
0.0
 10
-1.088678408106003
 20
-20.27554972441589
 30
0.0
 10
-1.012748655681885
 20
-20.34501497869508
 30
0.0
 10
-0.8842879113857005
 20
-20.43254641523865
 30
0.0
 10
-0.7455368233814998
 20
-20.5076243318477
 30
0.0
 10
-0.5946098184216181
 20
-20.56832055036589
 30
0.0
 10
-0.4321360172169011
 20
-20.61530914430443
 30
0.0
 10
-0.2585816052807846
 20
-20.64871149514467
 30
0.0
 10
-0.0738737165686537
 20
-20.66937966492883
 30
0.0
 10
0.0530491879827538
 20
-20.67173190802103
 30
0.0
 10
0.1183703955366516
 20
-20.67294249613186
 30
0.0
  0
SPLINE
  5
137
330
1F
100
AcDbEntity
  8
0
  6
Continuous
 62
     7
370
    25
100
AcDbSpline
210
0.0
220
0.0
230
1.0
 70
     8
 71
     3
 72
    15
 73
    11
 74
     0
 42
0.000000001
 43
0.00000001
 40
0.0
 40
0.0
 40
0.0
 40
0.0
 40
0.0749012448237872
 40
0.1636933426948853
 40
0.2660949471960393
 40
0.3842420430116548
 40
0.5160908167838953
 40
0.6632803535002256
 40
0.824222292491938
 40
1.0
 40
1.0
 40
1.0
 40
1.0
 10
1.425469160968751
 20
-19.04987150847754
 30
0.0
 10
1.401800406220816
 20
-19.06592357943884
 30
0.0
 10
1.350073394323609
 20
-19.10100466733012
 30
0.0
 10
1.261638919556919
 20
-19.15107939157528
 30
0.0
 10
1.158613092363925
 20
-19.20873515968039
 30
0.0
 10
1.038669154876604
 20
-19.26964667148061
 30
0.0
 10
0.9034744219198823
 20
-19.33824885339787
 30
0.0
 10
0.7509221615019657
 20
-19.40850412249615
 30
0.0
 10
0.5833148775589853
 20
-19.48608240624732
 30
0.0
 10
0.4659196440876742
 20
-19.53838558763147
 30
0.0
 10
0.4046358276354189
 20
-19.56568940971211
 30
0.0
  0
SPLINE
  5
138
330
1F
100
AcDbEntity
  8
0
  6
Continuous
 62
     7
370
    25
100
AcDbSpline
210
0.0
220
0.0
230
1.0
 70
     8
 71
     3
 72
    15
 73
    11
 74
     0
 42
0.000000001
 43
0.00000001
 40
0.0
 40
0.0
 40
0.0
 40
0.0
 40
0.112940973943001
 40
0.2259091036868132
 40
0.3395472716485085
 40
0.4564714946795469
 40
0.5795744920439281
 40
0.7101970510270432
 40
0.8496555315685873
 40
1.0
 40
1.0
 40
1.0
 40
1.0
 10
1.984496938746534
 20
-18.16541934798372
 30
0.0
 10
1.983182346932476
 20
-18.20654221139518
 30
0.0
 10
1.980552847220735
 20
-18.2887978258988
 30
0.0
 10
1.951595840547958
 20
-18.40948048949198
 30
0.0
 10
1.908488461899699
 20
-18.52689755545136
 30
0.0
 10
1.846922963228255
 20
-18.64037217976401
 30
0.0
 10
1.765589295210701
 20
-18.74815128477178
 30
0.0
 10
1.669486274777907
 20
-18.85416895287469
 30
0.0
 10
1.554939205098922
 20
-18.95581511197563
 30
0.0
 10
1.469693219074857
 20
-19.01774395671762
 30
0.0
 10
1.425469160968751
 20
-19.04987150847754
 30
0.0
  0
SPLINE
  5
139
330
1F
100
AcDbEntity
  8
0
  6
Continuous
 62
     7
370
    25
100
AcDbSpline
210
0.0
220
0.0
230
1.0
 70
     8
 71
     3
 72
    15
 73
    11
 74
     0
 42
0.000000001
 43
0.00000001
 40
0.0
 40
0.0
 40
0.0
 40
0.0
 40
0.1390492406404009
 40
0.2692447721851126
 40
0.3928199504358612
 40
0.5115691258138428
 40
0.6286847609762508
 40
0.7479428386541829
 40
0.87098878458759
 40
1.0
 40
1.0
 40
1.0
 40
1.0
 10
1.29989045726505
 20
-17.12433138502075
 30
0.0
 10
1.35426586952371
 20
-17.15267473358834
 30
0.0
 10
1.459554437937521
 20
-17.20755671922809
 30
0.0
 10
1.599822653459926
 20
-17.31000278343537
 30
0.0
 10
1.718745337081037
 20
-17.42386080217174
 30
0.0
 10
1.815524696226201
 20
-17.5497770863229
 30
0.0
 10
1.893578599284941
 20
-17.68623841421649
 30
0.0
 10
1.94481119664159
 20
-17.83670750302083
 30
0.0
 10
1.978861419268778
 20
-17.99735850799731
 30
0.0
 10
1.982589025989537
 20
-18.10852212283393
 30
0.0
 10
1.984496938746534
 20
-18.16541934798372
 30
0.0
  0
SPLINE
  5
13A
330
1F
100
AcDbEntity
  8
0
  6
Continuous
 62
     7
370
    25
100
AcDbSpline
210
0.0
220
0.0
230
1.0
 70
     8
 71
     3
 72
    15
 73
    11
 74
     0
 42
0.000000001
 43
0.00000001
 40
0.0
 40
0.0
 40
0.0
 40
0.0
 40
0.1434154265825538
 40
0.28107929180241
 40
0.4131789255870256
 40
0.5392821929012973
 40
0.6614164036434966
 40
0.7784902802766424
 40
0.8904547156605966
 40
1.0
 40
1.0
 40
1.0
 40
1.0
 10
-0.0112592340929737
 20
-16.8704733603294
 30
0.0
 10
0.0531317822163174
 20
-16.87116590118339
 30
0.0
 10
0.1793314644536817
 20
-16.87252320909248
 30
0.0
 10
0.3643959912971728
 20
-16.88566056819259
 30
0.0
 10
0.5413623293894915
 20
-16.90297846969221
 30
0.0
 10
0.7095557062418156
 20
-16.93278902505597
 30
0.0
 10
0.8702203359232454
 20
-16.96619927718454
 30
0.0
 10
1.021269424722797
 20
-17.01174079627236
 30
0.0
 10
1.164697361423231
 20
-17.06245427813492
 30
0.0
 10
1.255155395287526
 20
-17.10385640296423
 30
0.0
 10
1.29989045726505
 20
-17.12433138502075
 30
0.0
  0
SPLINE
  5
13B
330
1F
100
AcDbEntity
  8
0
  6
Continuous
 62
     7
370
    25
100
AcDbSpline
210
0.0
220
0.0
230
1.0
 70
     8
 71
     3
 72
    15
 73
    11
 74
     0
 42
0.000000001
 43
0.00000001
 40
0.0
 40
0.0
 40
0.0
 40
0.0
 40
0.1294131050389283
 40
0.2539127797705639
 40
0.3751723898635014
 40
0.4957152085687566
 40
0.6167121421940687
 40
0.7400835713010943
 40
0.8672004800588689
 40
1.0
 40
1.0
 40
1.0
 40
1.0
 10
-1.819322505697912
 20
-17.74682366897137
 30
0.0
 10
-1.762287996778168
 20
-17.67708147118537
 30
0.0
 10
-1.650384409438183
 20
-17.54024497922558
 30
0.0
 10
-1.45980437116159
 20
-17.36069668437309
 30
0.0
 10
-1.25387152783811
 20
-17.20972792788975
 30
0.0
 10
-1.034240862322802
 20
-17.08418227352208
 30
0.0
 10
-0.7986328960100029
 20
-16.98753118593027
 30
0.0
 10
-0.548382821429716
 20
-16.92132864658388
 30
0.0
 10
-0.2846715808079922
 20
-16.87724429276879
 30
0.0
 10
-0.1037154445307498
 20
-16.87276299633887
 30
0.0
 10
-0.0112592340929737
 20
-16.8704733603294
 30
0.0
  0
SPLINE
  5
13C
330
1F
100
AcDbEntity
  8
0
  6
Continuous
 62
     7
370
    25
100
AcDbSpline
210
0.0
220
0.0
230
1.0
 70
     8
 71
     3
 72
    15
 73
    11
 74
     0
 42
0.000000001
 43
0.00000001
 40
0.0
 40
0.0
 40
0.0
 40
0.0
 40
0.1356633930568986
 40
0.2673844162213239
 40
0.394573366820407
 40
0.5186616802098388
 40
0.6404889588292112
 40
0.7600734442501389
 40
0.8800698033600248
 40
1.0
 40
1.0
 40
1.0
 40
1.0
 10
-2.422910468660874
 20
-19.67911533563804
 30
0.0
 10
-2.42114118113413
 20
-19.5858716693661
 30
0.0
 10
-2.417654021467791
 20
-19.40209399205265
 30
0.0
 10
-2.38875121181343
 20
-19.13214183794932
 30
0.0
 10
-2.341736465838844
 20
-18.87295827018307
 30
0.0
 10
-2.27556633409913
 20
-18.62493695041933
 30
0.0
 10
-2.190375966485893
 20
-18.38833545041164
 30
0.0
 10
-2.087053222751975
 20
-18.16224042059099
 30
0.0
 10
-1.965071591145652
 20
-17.94679408244619
 30
0.0
 10
-1.867896601811879
 20
-17.81346821808971
 30
0.0
 10
-1.819322505697912
 20
-17.74682366897137
 30
0.0
  0
SPLINE
  5
13D
330
1F
100
AcDbEntity
  8
0
  6
Continuous
 62
     7
370
    25
100
AcDbSpline
210
0.0
220
0.0
230
1.0
 70
     8
 71
     3
 72
    15
 73
    11
 74
     0
 42
0.000000001
 43
0.00000001
 40
0.0
 40
0.0
 40
0.0
 40
0.0
 40
0.1265876729879399
 40
0.2485696688967823
 40
0.3687035129490659
 40
0.4884388872594034
 40
0.6097492846436642
 40
0.734533492152662
 40
0.8639247383752134
 40
1.0
 40
1.0
 40
1.0
 40
1.0
 10
-1.655935160018898
 20
-21.28193169366273
 30
0.0
 10
-1.717071951720661
 20
-21.23339904562771
 30
0.0
 10
-1.837121176988955
 20
-21.1380995273729
 30
0.0
 10
-1.993346397815017
 20
-20.97222699950148
 30
0.0
 10
-2.127133354089497
 20
-20.79333100342133
 30
0.0
 10
-2.235827282176604
 20
-20.59847101250943
 30
0.0
 10
-2.320169311630739
 20
-20.38882786755147
 30
0.0
 10
-2.378590360998335
 20
-20.16460375033332
 30
0.0
 10
-2.416539987805652
 20
-19.92660583847741
 30
0.0
 10
-2.420751627626255
 20
-19.76298540217629
 30
0.0
 10
-2.422910468660874
 20
-19.67911533563804
 30
0.0
  0
SPLINE
  5
13E
330
1F
100
AcDbEntity
  8
0
  6
Continuous
 62
     7
370
    25
100
AcDbSpline
210
0.0
220
0.0
230
1.0
 70
     8
 71
     3
 72
    15
 73
    11
 74
     0
 42
0.000000001
 43
0.00000001
 40
0.0
 40
0.0
 40
0.0
 40
0.0
 40
0.1410208850432635
 40
0.2761519663806453
 40
0.4060146168840469
 40
0.5304434784343987
 40
0.6519475725320305
 40
0.7695745017136852
 40
0.8854959989344061
 40
1.0
 40
1.0
 40
1.0
 40
1.0
 10
0.126472247388508
 20
-21.79639928625532
 30
0.0
 10
0.0377464043222892
 20
-21.7949043095518
 30
0.0
 10
-0.1359996051712581
 20
-21.79197679455114
 30
0.0
 10
-0.3905110517650814
 20
-21.76728048787514
 30
0.0
 10
-0.632265141229986
 20
-21.72681958225305
 30
0.0
 10
-0.8625188293374872
 20
-21.672064744563
 30
0.0
 10
-1.079460881061603
 20
-21.5987726843185
 30
0.0
 10
-1.285168409038778
 20
-21.51116310306402
 30
0.0
 10
-1.477677567649827
 20
-21.40584012883319
 30
0.0
 10
-1.596760147197646
 20
-21.32306477047828
 30
0.0
 10
-1.655935160018898
 20
-21.28193169366273
 30
0.0
  0
SPLINE
  5
13F
330
1F
100
AcDbEntity
  8
0
  6
Continuous
 62
     7
370
    25
100
AcDbSpline
210
0.0
220
0.0
230
1.0
 70
     8
 71
     3
 72
    11
 73
     7
 74
     0
 42
0.000000001
 43
0.00000001
 40
0.0
 40
0.0
 40
0.0
 40
0.0
 40
0.2478383209034799
 40
0.4950750361462373
 40
0.745373106890013
 40
1.0
 40
1.0
 40
1.0
 40
1.0
 10
1.482182123931718
 20
-21.52768786650223
 30
0.0
 10
1.374938008840421
 20
-21.56926631934838
 30
0.0
 10
1.160710104286575
 20
-21.65232229701425
 30
0.0
 10
0.8241053155457132
 20
-21.73376249624903
 30
0.0
 10
0.478888222958114
 20
-21.78812411594005
 30
0.0
 10
0.2446137332118986
 20
-21.79362517558992
 30
0.0
 10
0.126472247388508
 20
-21.79639928625532
 30
0.0
  0
SPLINE
  5
140
330
1F
100
AcDbEntity
  8
0
  6
Continuous
 62
     7
370
    25
100
AcDbSpline
210
0.0
220
0.0
230
1.0
 70
     8
 71
     3
 72
    15
 73
    11
 74
     0
 42
0.000000001
 43
0.00000001
 40
0.0
 40
0.0
 40
0.0
 40
0.0
 40
0.030128753510881
 40
0.08850321343822
 40
0.1732612528506507
 40
0.2843769883023334
 40
0.4237351960005316
 40
0.5894540390962196
 40
0.7815340731293108
 40
1.0
 40
1.0
 40
1.0
 40
1.0
 10
15.64827008689468
 20
-16.90693169366273
 30
0.0
 10
15.64826335565495
 20
-16.91413326219097
 30
0.0
 10
15.64824358263825
 20
-16.93528786974267
 30
0.0
 10
15.64854599906271
 20
-16.97670581995365
 30
0.0
 10
15.64653497177785
 20
-17.0374553509896
 30
0.0
 10
15.64549504885666
 20
-17.11757863405462
 30
0.0
 10
15.64409261025403
 20
-17.21705100735439
 30
0.0
 10
15.64271196058116
 20
-17.33587795087533
 30
0.0
 10
15.64173991378693
 20
-17.47362025360035
 30
0.0
 10
15.63983277953004
 20
-17.57173518246256
 30
0.0
 10
15.63881792640086
 20
-17.62394558255162
 30
0.0
  0
SPLINE
  5
141
330
1F
100
AcDbEntity
  8
0
  6
Continuous
 62
     7
370
    25
100
AcDbSpline
210
0.0
220
0.0
230
1.0
 70
     8
 71
     3
 72
    23
 73
    19
 74
     0
 42
0.000000001
 43
0.00000001
 40
0.0
 40
0.0
 40
0.0
 40
0.0
 40
0.0347429510761013
 40
0.0686880241926411
 40
0.1031657429132731
 40
0.140247395171259
 40
0.1803946873330895
 40
0.2252853029432997
 40
0.2749352136511826
 40
0.3300789947401671
 40
0.3910539746447899
 40
0.458620447300076
 40
0.5318560814446567
 40
0.6120430928843148
 40
0.6987722094822777
 40
0.7926505215109032
 40
0.8926830609851812
 40
0.9999999999999999
 40
0.9999999999999999
 40
0.9999999999999999
 40
0.9999999999999999
 10
14.91370218566011
 20
-14.62355978008248
 30
0.0
 10
14.94357687595546
 20
-14.62556312030602
 30
0.0
 10
15.00264017904852
 20
-14.6295237936938
 30
0.0
 10
15.08839307647222
 20
-14.65567996909478
 30
0.0
 10
15.16726485830434
 20
-14.70199379645635
 30
0.0
 10
15.2386086611786
 20
-14.76701641360011
 30
0.0
 10
15.30579972013146
 20
-14.84811774546125
 30
0.0
 10
15.36605520979326
 20
-14.94746505594102
 30
0.0
 10
15.4195270620486
 20
-15.06474668553699
 30
0.0
 10
15.46783973346814
 20
-15.19898365186122
 30
0.0
 10
15.51076753402143
 20
-15.35108692225027
 30
0.0
 10
15.54823301988935
 20
-15.5205862894082
 30
0.0
 10
15.57881197575768
 20
-15.70819950931308
 30
0.0
 10
15.60416749088336
 20
-15.9131693148317
 30
0.0
 10
15.62413921601544
 20
-16.13655434994507
 30
0.0
 10
15.63904391767468
 20
-16.37743386980486
 30
0.0
 10
15.6467609753386
 20
-16.63636820033675
 30
0.0
 10
15.64775540460314
 20
-16.81465605095758
 30
0.0
 10
15.64827008689468
 20
-16.90693169366273
 30
0.0
  0
SPLINE
  5
142
330
1F
100
AcDbEntity
  8
0
  6
Continuous
 62
     7
370
    25
100
AcDbSpline
210
0.0
220
0.0
230
1.0
 70
     8
 71
     3
 72
    15
 73
    11
 74
     0
 42
0.000000001
 43
0.00000001
 40
0.0
 40
0.0
 40
0.0
 40
0.0
 40
0.1419353513567522
 40
0.2673087665610277
 40
0.3811552016767099
 40
0.4908982493153342
 40
0.6012848668385029
 40
0.7199690220827718
 40
0.8516732292027185
 40
1.0
 40
1.0
 40
1.0
 40
1.0
 10
14.25610187701813
 20
-15.24875268131705
 30
0.0
 10
14.25816432685464
 20
-15.19954000622711
 30
0.0
 10
14.26204856652166
 20
-15.1068571097414
 30
0.0
 10
14.2909279589133
 20
-14.97699872839973
 30
0.0
 10
14.34291242053096
 20
-14.86643828548119
 30
0.0
 10
14.41800968553442
 20
-14.77691592579622
 30
0.0
 10
14.51261553366246
 20
-14.70533869675308
 30
0.0
 10
14.629372356166
 20
-14.65786663116408
 30
0.0
 10
14.76498299839612
 20
-14.62764894959722
 30
0.0
 10
14.86220542420625
 20
-14.62497573044449
 30
0.0
 10
14.91370218566011
 20
-14.62355978008248
 30
0.0
  0
SPLINE
  5
143
330
1F
100
AcDbEntity
  8
0
  6
Continuous
 62
     7
370
    25
100
AcDbSpline
210
0.0
220
0.0
230
1.0
 70
     8
 71
     3
 72
    11
 73
     7
 74
     0
 42
0.000000001
 43
0.00000001
 40
0.0
 40
0.0
 40
0.0
 40
0.0
 40
0.3004602042932182
 40
0.568051775993662
 40
0.8003301621904695
 40
1.0
 40
1.0
 40
1.0
 40
1.0
 10
14.28310804985764
 20
-15.74836687884791
 30
0.0
 10
14.27878931794609
 20
-15.69842394566345
 30
0.0
 10
14.27062429876105
 20
-15.60400155132173
 30
0.0
 10
14.26316656351668
 20
-15.47069021154775
 30
0.0
 10
14.25672575202255
 20
-15.35413819272742
 30
0.0
 10
14.2562990990871
 20
-15.28206760570393
 30
0.0
 10
14.25610187701813
 20
-15.24875268131705
 30
0.0
  0
SPLINE
  5
144
330
1F
100
AcDbEntity
  8
0
  6
Continuous
 62
     7
370
    25
100
AcDbSpline
210
0.0
220
0.0
230
1.0
 70
     8
 71
     3
 72
    11
 73
     7
 74
     0
 42
0.000000001
 43
0.00000001
 40
0.0
 40
0.0
 40
0.0
 40
0.0
 40
0.1627633322229774
 40
0.3836046983482817
 40
0.6627455093075609
 40
1.0
 40
1.0
 40
1.0
 40
1.0
 10
14.318216074549
 20
-16.23717860724298
 30
0.0
 10
14.31691316992233
 20
-16.21062016511048
 30
0.0
 10
14.31384245166252
 20
-16.14802656344545
 30
0.0
 10
14.30717248572556
 20
-16.03995325118334
 30
0.0
 10
14.29577998910803
 20
-15.90364569487964
 30
0.0
 10
14.28758943123295
 20
-15.80328062017782
 30
0.0
 10
14.28310804985764
 20
-15.74836687884791
 30
0.0
  0
SPLINE
  5
145
330
1F
100
AcDbEntity
  8
0
  6
Continuous
 62
     7
370
    25
100
AcDbSpline
210
0.0
220
0.0
230
1.0
 70
     8
 71
     3
 72
    23
 73
    19
 74
     0
 42
0.000000001
 43
0.00000001
 40
0.0
 40
0.0
 40
0.0
 40
0.0
 40
0.0909012326726184
 40
0.177772361433643
 40
0.261062379332627
 40
0.3403210895939748
 40
0.4159988100761262
 40
0.488094281797967
 40
0.5561597319468117
 40
0.6206429493376099
 40
0.6811011415634621
 40
0.7379721485720552
 40
0.7912666034094045
 40
0.8405315699468667
 40
0.885767157867668
 40
0.9278688806320561
 40
0.9659415078919242
 40
1.0
 40
1.0
 40
1.0
 40
1.0
 10
14.34657255603048
 20
-19.25241780477384
 30
0.0
 10
14.34652256231803
 20
-19.16104705537183
 30
0.0
 10
14.34642479136312
 20
-18.98235647649204
 30
0.0
 10
14.34712358801259
 20
-18.71994339493985
 30
0.0
 10
14.34463834166552
 20
-18.46924160995219
 30
0.0
 10
14.34574819173862
 20
-18.2297811827298
 30
0.0
 10
14.3437674657756
 20
-18.0015822073788
 30
0.0
 10
14.34264027338248
 20
-17.78463142857049
 30
0.0
 10
14.34103296754134
 20
-17.57893693538512
 30
0.0
 10
14.34043641297669
 20
-17.38492926264688
 30
0.0
 10
14.33658045086934
 20
-17.20221046872253
 30
0.0
 10
14.33633568525576
 20
-17.03069765733669
 30
0.0
 10
14.33306339194197
 20
-16.87047276329119
 30
0.0
 10
14.33050371837607
 20
-16.72193720791084
 30
0.0
 10
14.32779173844224
 20
-16.58465495748423
 30
0.0
 10
14.32497391457693
 20
-16.45863049158093
 30
0.0
 10
14.32284244556048
 20
-16.343820559837
 30
0.0
 10
14.31969990350734
 20
-16.27138217998732
 30
0.0
 10
14.318216074549
 20
-16.23717860724298
 30
0.0
  0
SPLINE
  5
146
330
1F
100
AcDbEntity
  8
0
  6
Continuous
 62
     7
370
    25
100
AcDbSpline
210
0.0
220
0.0
230
1.0
 70
     8
 71
     3
 72
    15
 73
    11
 74
     0
 42
0.000000001
 43
0.00000001
 40
0.0
 40
0.0
 40
0.0
 40
0.0
 40
0.0608119393623608
 40
0.1411988196330536
 40
0.239251205046877
 40
0.3549298864120208
 40
0.4882688841304504
 40
0.6412000222064065
 40
0.8117770608295879
 40
1.0
 40
1.0
 40
1.0
 40
1.0
 10
14.34252163010456
 20
-19.94107521218125
 30
0.0
 10
14.34309612311221
 20
-19.92712390193308
 30
0.0
 10
14.34443003443652
 20
-19.8947304515674
 30
0.0
 10
14.34328134774801
 20
-19.83979059348983
 30
0.0
 10
14.34597694536061
 20
-19.77229883040042
 30
0.0
 10
14.34458133520904
 20
-19.6926096833719
 30
0.0
 10
14.34722781577665
 20
-19.60035569467968
 30
0.0
 10
14.34636464680066
 20
-19.49547175680884
 30
0.0
 10
14.34663344943349
 20
-19.37799697812395
 30
0.0
 10
14.34659350859926
 20
-19.29562784291582
 30
0.0
 10
14.34657255603048
 20
-19.25241780477384
 30
0.0
  0
SPLINE
  5
147
330
1F
100
AcDbEntity
  8
0
  6
Continuous
 62
     7
370
    25
100
AcDbSpline
210
0.0
220
0.0
230
1.0
 70
     8
 71
     3
 72
    15
 73
    11
 74
     0
 42
0.000000001
 43
0.00000001
 40
0.0
 40
0.0
 40
0.0
 40
0.0
 40
0.1404929787137697
 40
0.2762145108061378
 40
0.4075304740267219
 40
0.5345148036484234
 40
0.6572492633256812
 40
0.7755214398677948
 40
0.889734429397214
 40
0.9999999999999999
 40
0.9999999999999999
 40
0.9999999999999999
 40
0.9999999999999999
 10
10.31050002516629
 20
-15.1204733603294
 30
0.0
 10
10.4795740339671
 20
-15.36203976323284
 30
0.0
 10
10.81197993110516
 20
-15.83696844946358
 30
0.0
 10
11.32063468615119
 20
-16.52465843961183
 30
0.0
 10
11.82670494639514
 20
-17.17871697463824
 30
0.0
 10
12.33167739628646
 20
-17.79887583138068
 30
0.0
 10
12.83477484104591
 20
-18.38494765031789
 30
0.0
 10
13.33634543350384
 20
-18.93656349562107
 30
0.0
 10
13.83493020306842
 20
-19.45531331823877
 30
0.0
 10
14.17531971916341
 20
-19.78106400512872
 30
0.0
 10
14.34252163010455
 20
-19.94107521218125
 30
0.0
  0
SPLINE
  5
148
330
1F
100
AcDbEntity
  8
0
  6
Continuous
 62
     7
370
    25
100
AcDbSpline
210
0.0
220
0.0
230
1.0
 70
     8
 71
     3
 72
    15
 73
    11
 74
     0
 42
0.000000001
 43
0.00000001
 40
0.0
 40
0.0
 40
0.0
 40
0.0
 40
0.0879505995039584
 40
0.180985733868738
 40
0.2839978816848565
 40
0.3975529203526522
 40
0.5253388309192444
 40
0.6676305986833097
 40
0.8262738012543257
 40
1.0
 40
1.0
 40
1.0
 40
1.0
 10
9.571881198005789
 20
-14.53714002699606
 30
0.0
 10
9.60043317091925
 20
-14.5391519408547
 30
0.0
 10
9.659187742238693
 20
-14.54329207984454
 30
0.0
 10
9.747486810777751
 20
-14.57249008946679
 30
0.0
 10
9.836633103732408
 20
-14.61928522026806
 30
0.0
 10
9.92800822906692
 20
-14.68410335960719
 30
0.0
 10
10.02068335979035
 20
-14.76743507677876
 30
0.0
 10
10.11683069049056
 20
-14.86806308757542
 30
0.0
 10
10.2151043028221
 20
-14.98681052432827
 30
0.0
 10
10.27775376889097
 20
-15.07459124554875
 30
0.0
 10
10.31050002516629
 20
-15.1204733603294
 30
0.0
  0
SPLINE
  5
149
330
1F
100
AcDbEntity
  8
0
  6
Continuous
 62
     7
370
    25
100
AcDbSpline
210
0.0
220
0.0
230
1.0
 70
     8
 71
     3
 72
    15
 73
    11
 74
     0
 42
0.000000001
 43
0.00000001
 40
0.0
 40
0.0
 40
0.0
 40
0.0
 40
0.1180331414418909
 40
0.2345758074012
 40
0.3552907932531914
 40
0.4869709242628283
 40
0.6211439781345784
 40
0.7478074723309719
 40
0.8726565694463859
 40
1.0
 40
1.0
 40
1.0
 40
1.0
 10
8.811657432573686
 20
-15.23930052082322
 30
0.0
 10
8.814525801456773
 20
-15.19437177211056
 30
0.0
 10
8.820226318603526
 20
-15.10508161702319
 30
0.0
 10
8.86623874291432
 20
-14.97645631853022
 30
0.0
 10
8.939941122832252
 20
-14.8562596263164
 30
0.0
 10
9.040843813122187
 20
-14.74861419865664
 30
0.0
 10
9.157544666149917
 20
-14.65454240736856
 30
0.0
 10
9.288757353085035
 20
-14.58767292323885
 30
0.0
 10
9.427401039400943
 20
-14.54452118628437
 30
0.0
 10
9.523404634336222
 20
-14.53961658323499
 30
0.0
 10
9.571881198005789
 20
-14.53714002699606
 30
0.0
  0
SPLINE
  5
14A
330
1F
100
AcDbEntity
  8
0
  6
Continuous
 62
     7
370
    25
100
AcDbSpline
210
0.0
220
0.0
230
1.0
 70
     8
 71
     3
 72
    15
 73
    11
 74
     0
 42
0.000000001
 43
0.00000001
 40
0.0
 40
0.0
 40
0.0
 40
0.0
 40
0.0942109976937287
 40
0.2091121741674644
 40
0.3440017948846186
 40
0.4996090740167719
 40
0.6560412349345935
 40
0.7908878258325355
 40
0.9057890023062724
 40
1.0
 40
1.0
 40
1.0
 40
1.0
 10
8.880523173314433
 20
-16.87182366897137
 30
0.0
 10
8.879683836247112
 20
-16.82051197345407
 30
0.0
 10
8.87782083083051
 20
-16.70661974778501
 30
0.0
 10
8.873276110528835
 20
-16.51925955523595
 30
0.0
 10
8.859338312321496
 20
-16.29883842363391
 30
0.0
 10
8.845527815953186
 20
-16.05578162221919
 30
0.0
 10
8.830923004839244
 20
-15.81278868077859
 30
0.0
 10
8.819312612892885
 20
-15.59181992858964
 30
0.0
 10
8.814284329280275
 20
-15.40450836854122
 30
0.0
 10
8.812473336475946
 20
-15.29061343590598
 30
0.0
 10
8.811657432573693
 20
-15.23930052082322
 30
0.0
  0
SPLINE
  5
14B
330
1F
100
AcDbEntity
  8
0
  6
Continuous
 62
     7
370
    25
100
AcDbSpline
210
0.0
220
0.0
230
1.0
 70
     8
 71
     3
 72
    15
 73
    11
 74
     0
 42
0.000000001
 43
0.00000001
 40
0.0
 40
0.0
 40
0.0
 40
0.0
 40
0.0935244878294284
 40
0.2081025886132438
 40
0.3429427349992404
 40
0.4996136997403739
 40
0.6562846644815095
 40
0.7918974113867561
 40
0.9064755121705715
 40
0.9999999999999999
 40
0.9999999999999999
 40
0.9999999999999999
 40
0.9999999999999999
 10
8.89807718566011
 20
-18.60426965662569
 30
0.0
 10
8.898262777830887
 20
-18.55025599566954
 30
0.0
 10
8.898675741452088
 20
-18.43006947632765
 30
0.0
 10
8.894813425358521
 20
-18.2320402538757
 30
0.0
 10
8.892824108953173
 20
-17.99752341982865
 30
0.0
 10
8.888795504321214
 20
-17.73872034261271
 30
0.0
 10
8.883782908399272
 20
-17.47947957730767
 30
0.0
 10
8.884212515888896
 20
-17.24449559560077
 30
0.0
 10
8.879848367105799
 20
-17.04602450908722
 30
0.0
 10
8.880313938434755
 20
-16.92583753451499
 30
0.0
 10
8.880523173314433
 20
-16.87182366897137
 30
0.0
  0
SPLINE
  5
14C
330
1F
100
AcDbEntity
  8
0
  6
Continuous
 62
     7
370
    25
100
AcDbSpline
210
0.0
220
0.0
230
1.0
 70
     8
 71
     3
 72
    15
 73
    11
 74
     0
 42
0.000000001
 43
0.00000001
 40
0.0
 40
0.0
 40
0.0
 40
0.0
 40
0.0937063465514315
 40
0.2083369326857329
 40
0.3430760022459111
 40
0.4995818130180481
 40
0.6560876237901873
 40
0.7916630673142672
 40
0.9062936534485665
 40
1.0
 40
1.0
 40
1.0
 40
1.0
 10
8.865669778252705
 20
-20.21788848378618
 30
0.0
 10
8.866080191092141
 20
-20.16747671898905
 30
0.0
 10
8.866992660260454
 20
-20.05539645083617
 30
0.0
 10
8.869464474257924
 20
-19.87083571154824
 30
0.0
 10
8.8754783153564
 20
-19.65255604174148
 30
0.0
 10
8.881869405295935
 20
-19.41175412362316
 30
0.0
 10
8.888295803019405
 20
-19.17050297903878
 30
0.0
 10
8.894264774115396
 20
-18.95177207920851
 30
0.0
 10
8.896756446232306
 20
-18.76676174169451
 30
0.0
 10
8.897667437537796
 20
-18.65468143759225
 30
0.0
 10
8.89807718566011
 20
-18.60426965662569
 30
0.0
  0
SPLINE
  5
14D
330
1F
100
AcDbEntity
  8
0
  6
Continuous
 62
     7
370
    25
100
AcDbSpline
210
0.0
220
0.0
230
1.0
 70
     8
 71
     3
 72
    15
 73
    11
 74
     0
 42
0.000000001
 43
0.00000001
 40
0.0
 40
0.0
 40
0.0
 40
0.0
 40
0.0940089246280117
 40
0.2076475630820746
 40
0.3433533167931017
 40
0.5000005056754169
 40
0.656647694557729
 40
0.7923534482687561
 40
0.9072117632582474
 40
1.0
 40
1.0
 40
1.0
 40
1.0
 10
8.811657432573693
 20
-21.32244095292199
 30
0.0
 10
8.81187031744976
 20
-21.28777659054586
 30
0.0
 10
8.81234053903679
 20
-21.2112097071177
 30
0.0
 10
8.818859217721437
 20
-21.08475926375722
 30
0.0
 10
8.826321818116662
 20
-20.93525857119435
 30
0.0
 10
8.838665896450562
 20
-20.7701648140417
 30
0.0
 10
8.850996841116551
 20
-20.60507050834742
 30
0.0
 10
8.858514409774303
 20
-20.455122046497
 30
0.0
 10
8.864941637952025
 20
-20.32866803910755
 30
0.0
 10
8.865444894660012
 20
-20.25210236313601
 30
0.0
 10
8.865669778252705
 20
-20.21788848378618
 30
0.0
  0
SPLINE
  5
14E
330
1F
100
AcDbEntity
  8
0
  6
Continuous
 62
     7
370
    25
100
AcDbSpline
210
0.0
220
0.0
230
1.0
 70
     8
 71
     3
 72
    11
 73
     7
 74
     0
 42
0.000000001
 43
0.00000001
 40
0.0
 40
0.0
 40
0.0
 40
0.0
 40
0.2531339938880968
 40
0.4977366167693648
 40
0.7450205333638495
 40
1.0
 40
1.0
 40
1.0
 40
1.0
 10
8.991248481956406
 20
-21.76399187884791
 30
0.0
 10
8.96380199827504
 20
-21.7330136648021
 30
0.0
 10
8.909834059319277
 20
-21.67210129497028
 30
0.0
 10
8.852327368558962
 20
-21.56392812140353
 30
0.0
 10
8.817294488679247
 20
-21.44614437028869
 30
0.0
 10
8.813555546975751
 20
-21.36409447449275
 30
0.0
 10
8.811657432573686
 20
-21.32244095292199
 30
0.0
  0
SPLINE
  5
14F
330
1F
100
AcDbEntity
  8
0
  6
Continuous
 62
     7
370
    25
100
AcDbSpline
210
0.0
220
0.0
230
1.0
 70
     8
 71
     3
 72
    11
 73
     7
 74
     0
 42
0.000000001
 43
0.00000001
 40
0.0
 40
0.0
 40
0.0
 40
0.0
 40
0.2703169184101867
 40
0.5205758062230484
 40
0.7614996989967067
 40
1.0
 40
1.0
 40
1.0
 40
1.0
 10
9.530021630104551
 20
-21.96923879242816
 30
0.0
 10
9.476661287029398
 20
-21.96664593388074
 30
0.0
 10
9.373900040045458
 20
-21.96165261183238
 30
0.0
 10
9.227620186009526
 20
-21.92329235824087
 30
0.0
 10
9.097326637917451
 20
-21.85852213357336
 30
0.0
 10
9.026488499967392
 20
-21.79539559103472
 30
0.0
 10
8.991248481956406
 20
-21.76399187884791
 30
0.0
  0
SPLINE
  5
150
330
1F
100
AcDbEntity
  8
0
  6
Continuous
 62
     7
370
    25
100
AcDbSpline
210
0.0
220
0.0
230
1.0
 70
     8
 71
     3
 72
    23
 73
    19
 74
     0
 42
0.000000001
 43
0.00000001
 40
0.0
 40
0.0
 40
0.0
 40
0.0
 40
0.0980155127233946
 40
0.1888582995100922
 40
0.2742132987142892
 40
0.3543927658977872
 40
0.4277802005419491
 40
0.4963382140755875
 40
0.5596013390264041
 40
0.6179897271820328
 40
0.6720373348838292
 40
0.7225982971731155
 40
0.7707196115150351
 40
0.8162563976466198
 40
0.8608616841493382
 40
0.9057016597379866
 40
0.9512960327229737
 40
0.9999999999999999
 40
0.9999999999999999
 40
0.9999999999999999
 40
0.9999999999999999
 10
10.1943734819564
 20
-20.62433138502075
 30
0.0
 10
10.19395343881302
 20
-20.67880988674313
 30
0.0
 10
10.19314409107227
 20
-20.78378018082486
 30
0.0
 10
10.18420390114993
 20
-20.9359324648269
 30
0.0
 10
10.17336022340959
 20
-21.07805580887336
 30
0.0
 10
10.15390092296508
 20
-21.20947580389128
 30
0.0
 10
10.13138539564799
 20
-21.33088273297622
 30
0.0
 10
10.10335240098183
 20
-21.44153510615717
 30
0.0
 10
10.06975649058339
 20
-21.54185128404237
 30
0.0
 10
10.03097426809538
 20
-21.63168078156811
 30
0.0
 10
9.985692660027926
 20
-21.71024168042763
 30
0.0
 10
9.93780096422188
 20
-21.78061443212435
 30
0.0
 10
9.881879455825693
 20
-21.83847584962306
 30
0.0
 10
9.821972070725618
 20
-21.88693572407654
 30
0.0
 10
9.756266180596732
 20
-21.92402051594785
 30
0.0
 10
9.685328076995361
 20
-21.94911279634674
 30
0.0
 10
9.609625661057699
 20
-21.96658841443356
 30
0.0
 10
9.557133305331215
 20
-21.96833612221716
 30
0.0
 10
9.530021630104551
 20
-21.96923879242816
 30
0.0
  0
SPLINE
  5
151
330
1F
100
AcDbEntity
  8
0
  6
Continuous
 62
     7
370
    25
100
AcDbSpline
210
0.0
220
0.0
230
1.0
 70
     8
 71
     3
 72
    23
 73
    19
 74
     0
 42
0.000000001
 43
0.00000001
 40
0.0
 40
0.0
 40
0.0
 40
0.0
 40
0.0441769708665401
 40
0.0933355664769467
 40
0.1480901219171643
 40
0.2078353255355385
 40
0.2731704283910963
 40
0.3434912669824285
 40
0.419411191062773
 40
0.5003081744169253
 40
0.5812171210641089
 40
0.6565149185690409
 40
0.7268357571603731
 40
0.792170860015931
 40
0.8519063429079965
 40
0.9066644335230533
 40
0.9558230291334598
 40
1.0
 40
1.0
 40
1.0
 40
1.0
 10
10.16601700047493
 20
-18.45438539736643
 30
0.0
 10
10.16587561939997
 20
-18.48634365709989
 30
0.0
 10
10.16557691438556
 20
-18.55386395596445
 30
0.0
 10
10.16810693496389
 20
-18.66097419673321
 30
0.0
 10
10.16637070942642
 20
-18.77937927086558
 30
0.0
 10
10.1709440046119
 20
-18.90942100757889
 30
0.0
 10
10.17088786870544
 20
-19.0507849355617
 30
0.0
 10
10.17438350795977
 20
-19.20380287988863
 30
0.0
 10
10.17697990309899
 20
-19.36809117238258
 30
0.0
 10
10.17902764527966
 20
-19.5400517095196
 30
0.0
 10
10.18395747393859
 20
-19.71150647523956
 30
0.0
 10
10.18594780050356
 20
-19.87536557804629
 30
0.0
 10
10.18931887999373
 20
-20.02793409491325
 30
0.0
 10
10.19015621271547
 20
-20.16927935043988
 30
0.0
 10
10.19167686460704
 20
-20.29935714866284
 30
0.0
 10
10.19281871318013
 20
-20.41773598073004
 30
0.0
 10
10.19470086654261
 20
-20.52485367880458
 30
0.0
 10
10.19447865679796
 20
-20.59237339912159
 30
0.0
 10
10.1943734819564
 20
-20.62433138502075
 30
0.0
  0
SPLINE
  5
152
330
1F
100
AcDbEntity
  8
0
  6
Continuous
 62
     7
370
    25
100
AcDbSpline
210
0.0
220
0.0
230
1.0
 70
     8
 71
     3
 72
    15
 73
    11
 74
     0
 42
0.000000001
 43
0.00000001
 40
0.0
 40
0.0
 40
0.0
 40
0.0
 40
0.194072870717422
 40
0.368635159452421
 40
0.5227798017147152
 40
0.657413952101639
 40
0.7725397006501618
 40
0.868173934149521
 40
0.9443012370630146
 40
1.0
 40
1.0
 40
1.0
 40
1.0
 10
10.1943734819564
 20
-17.00010298995903
 30
0.0
 10
10.19202771170567
 20
-17.09417232456248
 30
0.0
 10
10.18757199676097
 20
-17.27285399208734
 30
0.0
 10
10.1827152995361
 20
-17.5262845966716
 30
0.0
 10
10.17688679916982
 20
-17.75086559848891
 30
0.0
 10
10.17268024188611
 20
-17.94665955488414
 30
0.0
 10
10.17047022845999
 20
-18.11411514272525
 30
0.0
 10
10.16736823168179
 20
-18.25318085575706
 30
0.0
 10
10.165805851851
 20
-18.36346098441409
 30
0.0
 10
10.16595428495493
 20
-18.42737896117895
 30
0.0
 10
10.16601700047493
 20
-18.45438539736643
 30
0.0
  0
SPLINE
  5
153
330
1F
100
AcDbEntity
  8
0
  6
Continuous
 62
     7
370
    25
100
AcDbSpline
210
0.0
220
0.0
230
1.0
 70
     8
 71
     3
 72
    23
 73
    19
 74
     0
 42
0.000000001
 43
0.00000001
 40
0.0
 40
0.0
 40
0.0
 40
0.0
 40
0.0504270880757594
 40
0.1022681691436847
 40
0.1556956698324402
 40
0.210885803284242
 40
0.2676884582795804
 40
0.3259536172560237
 40
0.3859988685183748
 40
0.4475383197422007
 40
0.5108674396657267
 40
0.5756905098712414
 40
0.6423348082839164
 40
0.7104872538913077
 40
0.7802979380637474
 40
0.8518047286725264
 40
0.9249781665669116
 40
1.0
 40
1.0
 40
1.0
 40
1.0
 10
14.15077780294406
 20
-21.43586687884791
 30
0.0
 10
14.07674458346221
 20
-21.36858711213473
 30
0.0
 10
13.92660222741645
 20
-21.23214103077794
 30
0.0
 10
13.70208574680914
 20
-21.0199850683963
 30
0.0
 10
13.47574500169718
 20
-20.79615580085331
 30
0.0
 10
13.24298936487145
 20
-20.56481783454738
 30
0.0
 10
13.00851462360274
 20
-20.32167635728808
 30
0.0
 10
12.77102914579418
 20
-20.06815183854749
 30
0.0
 10
12.52724324234124
 20
-19.80761799464593
 30
0.0
 10
12.28369450957645
 20
-19.53327843449329
 30
0.0
 10
12.03353958242089
 20
-19.25215705562881
 30
0.0
 10
11.7809148325676
 20
-18.95971722633044
 30
0.0
 10
11.52459571863672
 20
-18.65785097970018
 30
0.0
 10
11.26557257971919
 20
-18.34534191519762
 30
0.0
 10
11.00161961122911
 20
-18.02438801179725
 30
0.0
 10
10.73632650591771
 20
-17.69170271381104
 30
0.0
 10
10.46558242463284
 20
-17.35015059895122
 30
0.0
 10
10.28552506348445
 20
-17.11775174023573
 30
0.0
 10
10.1943734819564
 20
-17.00010298995903
 30
0.0
  0
SPLINE
  5
154
330
1F
100
AcDbEntity
  8
0
  6
Continuous
 62
     7
370
    25
100
AcDbSpline
210
0.0
220
0.0
230
1.0
 70
     8
 71
     3
 72
    15
 73
    11
 74
     0
 42
0.000000001
 43
0.00000001
 40
0.0
 40
0.0
 40
0.0
 40
0.0
 40
0.098918432743019
 40
0.2031256013144208
 40
0.3123657570585483
 40
0.4309533828651703
 40
0.5568568528093502
 40
0.6946437137285275
 40
0.8413800579660514
 40
1.0
 40
1.0
 40
1.0
 40
1.0
 10
14.86914200047493
 20
-21.79639928625532
 30
0.0
 10
14.84204477042674
 20
-21.79540623940271
 30
0.0
 10
14.78640153999068
 20
-21.79336705182687
 30
0.0
 10
14.70260496707922
 20
-21.77452523215997
 30
0.0
 10
14.61646360429908
 20
-21.74545921822038
 30
0.0
 10
14.52770705860278
 20
-21.70645799590282
 30
0.0
 10
14.43625263492587
 20
-21.65543012717479
 30
0.0
 10
14.34249016290726
 20
-21.59348171881257
 30
0.0
 10
14.24581981956885
 20
-21.52008992620434
 30
0.0
 10
14.18326989682325
 20
-21.46466028263584
 30
0.0
 10
14.15077780294406
 20
-21.43586687884791
 30
0.0
  0
SPLINE
  5
155
330
1F
100
AcDbEntity
  8
0
  6
Continuous
 62
     7
370
    25
100
AcDbSpline
210
0.0
220
0.0
230
1.0
 70
     8
 71
     3
 72
    15
 73
    11
 74
     0
 42
0.000000001
 43
0.00000001
 40
0.0
 40
0.0
 40
0.0
 40
0.0
 40
0.1432900463137973
 40
0.2728399129592476
 40
0.3917726872747712
 40
0.5045612689425619
 40
0.618861183686269
 40
0.7357064842472995
 40
0.8609714799828968
 40
1.0
 40
1.0
 40
1.0
 40
1.0
 10
15.53349385232677
 20
-21.21036533563804
 30
0.0
 10
15.52509857795815
 20
-21.25665597142968
 30
0.0
 10
15.50911305777073
 20
-21.34479840256939
 30
0.0
 10
15.46262286935498
 20
-21.46542558196952
 30
0.0
 10
15.40110409920667
 20
-21.56719067413604
 30
0.0
 10
15.32548760142517
 20
-21.65290031288697
 30
0.0
 10
15.23207935665985
 20
-21.71776891683165
 30
0.0
 10
15.1242730687681
 20
-21.76444384578034
 30
0.0
 10
15.00142239560211
 20
-21.79137526961992
 30
0.0
 10
14.91474017248333
 20
-21.79466746519073
 30
0.0
 10
14.86914200047493
 20
-21.79639928625532
 30
0.0
  0
SPLINE
  5
156
330
1F
100
AcDbEntity
  8
0
  6
Continuous
 62
     7
370
    25
100
AcDbSpline
210
0.0
220
0.0
230
1.0
 70
     8
 71
     3
 72
    11
 73
     7
 74
     0
 42
0.000000001
 43
0.00000001
 40
0.0
 40
0.0
 40
0.0
 40
0.0
 40
0.1797379144973095
 40
0.4068578590260117
 40
0.6804203701354883
 40
1.0
 40
1.0
 40
1.0
 40
1.0
 10
15.61181175356134
 20
-20.49335144674915
 30
0.0
 10
15.61032009279054
 20
-20.53657596588097
 30
0.0
 10
15.6069435436117
 20
-20.63441973668795
 30
0.0
 10
15.59335942802412
 20
-20.79767513744956
 30
0.0
 10
15.56600281775104
 20
-20.99318063729187
 30
0.0
 10
15.54487651402007
 20
-21.13432046881522
 30
0.0
 10
15.53349385232677
 20
-21.21036533563804
 30
0.0
  0
SPLINE
  5
157
330
1F
100
AcDbEntity
  8
0
  6
Continuous
 62
     7
370
    25
100
AcDbSpline
210
0.0
220
0.0
230
1.0
 70
     8
 71
     3
 72
    23
 73
    19
 74
     0
 42
0.000000001
 43
0.00000001
 40
0.0
 40
0.0
 40
0.0
 40
0.0
 40
0.0978817817196116
 40
0.1915346055488163
 40
0.2800055938490987
 40
0.3637712259958638
 40
0.442831535463194
 40
0.5171820949265035
 40
0.5868318865940237
 40
0.6517713871370292
 40
0.7120053835088102
 40
0.7675338982833001
 40
0.8178864169269141
 40
0.8640040638678016
 40
0.9049431089353028
 40
0.9416500966854
 40
0.9731778670247401
 40
1.0
 40
1.0
 40
1.0
 40
1.0
 10
15.63881792640085
 20
-17.62394558255162
 30
0.0
 10
15.63808870708457
 20
-17.71756911080827
 30
0.0
 10
15.63666177419013
 20
-17.90077118620669
 30
0.0
 10
15.63170433590722
 20
-18.16855965012701
 30
0.0
 10
15.62950224669914
 20
-18.42287993573378
 30
0.0
 10
15.62688179323458
 20
-18.66323527936264
 30
0.0
 10
15.62348626137598
 20
-18.89007637821122
 30
0.0
 10
15.62328035808955
 20
-19.10344480429948
 30
0.0
 10
15.61948551508788
 20
-19.30327039960456
 30
0.0
 10
15.61872339109911
 20
-19.48962352916173
 30
0.0
 10
15.61725655347221
 20
-19.66246178618906
 30
0.0
 10
15.61587966855991
 20
-19.82134818492429
 30
0.0
 10
15.61475504467023
 20
-19.96673269747346
 30
0.0
 10
15.61263340063702
 20
-20.09815586192455
 30
0.0
 10
15.61380569261243
 20
-20.21654508874813
 30
0.0
 10
15.6113816823737
 20
-20.32095642251639
 30
0.0
 10
15.61189497672273
 20
-20.41188335475213
 30
0.0
 10
15.61183796196024
 20
-20.46769574926942
 30
0.0
 10
15.61181175356134
 20
-20.49335144674915
 30
0.0
  0
SPLINE
  5
158
330
1F
100
AcDbEntity
  8
0
  6
Continuous
 62
     7
370
    25
100
AcDbSpline
210
0.0
220
0.0
230
1.0
 70
     8
 71
     3
 72
    15
 73
    11
 74
     0
 42
0.000000001
 43
0.00000001
 40
0.0
 40
0.0
 40
0.0
 40
0.0
 40
0.1149064084028486
 40
0.2250851390911471
 40
0.334646275589991
 40
0.4471657958137224
 40
0.5671432355834193
 40
0.6973278433013973
 40
0.8413590957370087
 40
1.0
 40
1.0
 40
1.0
 40
1.0
 10
-18.59555707359914
 20
-17.99393015045286
 30
0.0
 10
-18.66344409211384
 20
-17.99710632263593
 30
0.0
 10
-18.79642500429494
 20
-18.00332798744592
 30
0.0
 10
-18.9877753982335
 20
-18.05836233268962
 30
0.0
 10
-19.16373384197134
 20
-18.14717963448314
 30
0.0
 10
-19.32253346098617
 20
-18.27359641583846
 30
0.0
 10
-19.46560165594521
 20
-18.43397095166763
 30
0.0
 10
-19.59012715771376
 20
-18.63104456197918
 30
0.0
 10
-19.7050131696749
 20
-18.85972166741
 30
0.0
 10
-19.76292647868712
 20
-19.02877845451465
 30
0.0
 10
-19.79328083903124
 20
-19.11738694057631
 30
0.0
  0
SPLINE
  5
159
330
1F
100
AcDbEntity
  8
0
  6
Continuous
 62
     7
370
    25
100
AcDbSpline
210
0.0
220
0.0
230
1.0
 70
     8
 71
     3
 72
     9
 73
     5
 74
     0
 42
0.000000001
 43
0.00000001
 40
0.0
 40
0.0
 40
0.0
 40
0.0
 40
0.5010433885237168
 40
1.0
 40
1.0
 40
1.0
 40
1.0
 10
-19.79328083903124
 20
-19.11738694057631
 30
0.0
 10
-19.62365661270089
 20
-19.04342094567872
 30
0.0
 10
-19.28511462169661
 20
-18.89579701411557
 30
0.0
 10
-18.94580113778473
 20
-18.74995510705203
 30
0.0
 10
-18.77649843162383
 20
-18.67718632329236
 30
0.0
  0
SPLINE
  5
15A
330
1F
100
AcDbEntity
  8
0
  6
Continuous
 62
     7
370
    25
100
AcDbSpline
210
0.0
220
0.0
230
1.0
 70
     8
 71
     3
 72
    11
 73
     7
 74
     0
 42
0.000000001
 43
0.00000001
 40
0.0
 40
0.0
 40
0.0
 40
0.0
 40
0.2903771344239509
 40
0.5537190019855166
 40
0.79085130399482
 40
1.0
 40
1.0
 40
1.0
 40
1.0
 10
-18.77649843162383
 20
-18.67718632329236
 30
0.0
 10
-18.67982440461525
 20
-18.63290150891159
 30
0.0
 10
-18.49547708725741
 20
-18.54845497261431
 30
0.0
 10
-18.23766681042841
 20
-18.41654065643493
 30
0.0
 10
-18.00890042804406
 20
-18.29308805937821
 30
0.0
 10
-17.87049155787377
 20
-18.20615864428423
 30
0.0
 10
-17.80562651804359
 20
-18.16541934798373
 30
0.0
  0
SPLINE
  5
15B
330
1F
100
AcDbEntity
  8
0
  6
Continuous
 62
     7
370
    25
100
AcDbSpline
210
0.0
220
0.0
230
1.0
 70
     8
 71
     3
 72
    11
 73
     7
 74
     0
 42
0.000000001
 43
0.00000001
 40
0.0
 40
0.0
 40
0.0
 40
0.0
 40
0.2204514009610369
 40
0.4559696969087922
 40
0.7153040245457544
 40
0.9999999999999999
 40
0.9999999999999999
 40
0.9999999999999999
 40
0.9999999999999999
 10
-17.80562651804359
 20
-18.16541934798373
 30
0.0
 10
-17.85934056937765
 20
-18.1383194455328
 30
0.0
 10
-17.97043979396759
 20
-18.08226748009763
 30
0.0
 10
-18.15979503938375
 20
-18.03247171233371
 30
0.0
 10
-18.3697434824551
 20
-17.99913934364069
 30
0.0
 10
-18.51798233961771
 20
-17.99571968744997
 30
0.0
 10
-18.59555707359914
 20
-17.99393015045286
 30
0.0
  0
SPLINE
  5
15C
330
1F
100
AcDbEntity
  8
0
  6
Continuous
 62
     7
370
    25
100
AcDbSpline
210
0.0
220
0.0
230
1.0
 70
     8
 71
     3
 72
    15
 73
    11
 74
     0
 42
0.000000001
 43
0.00000001
 40
0.0
 40
0.0
 40
0.0
 40
0.0
 40
0.114906408402848
 40
0.2250851390911456
 40
0.334646275589991
 40
0.4471657958137212
 40
0.5671432355834186
 40
0.6973278433013966
 40
0.8413590957370091
 40
1.0
 40
1.0
 40
1.0
 40
1.0
 10
-0.0153101600188985
 20
-17.99393015045285
 30
0.0
 10
-0.0831971785336047
 20
-17.99710632263592
 30
0.0
 10
-0.2161780907147109
 20
-18.00332798744592
 30
0.0
 10
-0.4075284846532592
 20
-18.05836233268962
 30
0.0
 10
-0.5834869283911013
 20
-18.14717963448314
 30
0.0
 10
-0.7422865474059279
 20
-18.27359641583845
 30
0.0
 10
-0.885354742364966
 20
-18.43397095166761
 30
0.0
 10
-1.009880244133524
 20
-18.63104456197917
 30
0.0
 10
-1.124766256094659
 20
-18.85972166740998
 30
0.0
 10
-1.182679565106884
 20
-19.02877845451465
 30
0.0
 10
-1.213033925451003
 20
-19.11738694057631
 30
0.0
  0
SPLINE
  5
15D
330
1F
100
AcDbEntity
  8
0
  6
Continuous
 62
     7
370
    25
100
AcDbSpline
210
0.0
220
0.0
230
1.0
 70
     8
 71
     3
 72
     9
 73
     5
 74
     0
 42
0.000000001
 43
0.00000001
 40
0.0
 40
0.0
 40
0.0
 40
0.0
 40
0.501043388523716
 40
1.0
 40
1.0
 40
1.0
 40
1.0
 10
-1.213033925451003
 20
-19.11738694057631
 30
0.0
 10
-1.043409699120652
 20
-19.04342094567872
 30
0.0
 10
-0.704867708116369
 20
-18.89579701411557
 30
0.0
 10
-0.3655542242044785
 20
-18.74995510705202
 30
0.0
 10
-0.1962515180435886
 20
-18.67718632329236
 30
0.0
  0
SPLINE
  5
15E
330
1F
100
AcDbEntity
  8
0
  6
Continuous
 62
     7
370
    25
100
AcDbSpline
210
0.0
220
0.0
230
1.0
 70
     8
 71
     3
 72
    11
 73
     7
 74
     0
 42
0.000000001
 43
0.00000001
 40
0.0
 40
0.0
 40
0.0
 40
0.0
 40
0.2903771344239494
 40
0.553719001985518
 40
0.7908513039948188
 40
0.9999999999999999
 40
0.9999999999999999
 40
0.9999999999999999
 40
0.9999999999999999
 10
-0.1962515180435956
 20
-18.67718632329236
 30
0.0
 10
-0.0995774910350078
 20
-18.63290150891159
 30
0.0
 10
0.084769826322835
 20
-18.54845497261431
 30
0.0
 10
0.3425801031518294
 20
-18.41654065643491
 30
0.0
 10
0.5713464855361741
 20
-18.29308805937821
 30
0.0
 10
0.7097553557064638
 20
-18.20615864428423
 30
0.0
 10
0.7746203955366557
 20
-18.16541934798372
 30
0.0
  0
SPLINE
  5
15F
330
1F
100
AcDbEntity
  8
0
  6
Continuous
 62
     7
370
    25
100
AcDbSpline
210
0.0
220
0.0
230
1.0
 70
     8
 71
     3
 72
    11
 73
     7
 74
     0
 42
0.000000001
 43
0.00000001
 40
0.0
 40
0.0
 40
0.0
 40
0.0
 40
0.2204514009610346
 40
0.4559696969087926
 40
0.7153040245457534
 40
1.0
 40
1.0
 40
1.0
 40
1.0
 10
0.7746203955366557
 20
-18.16541934798372
 30
0.0
 10
0.7209063442025904
 20
-18.1383194455328
 30
0.0
 10
0.609807119612657
 20
-18.08226748009763
 30
0.0
 10
0.4204518741964883
 20
-18.03247171233371
 30
0.0
 10
0.2105034311251433
 20
-17.99913934364069
 30
0.0
 10
0.0622645739625227
 20
-17.99571968744997
 30
0.0
 10
-0.0153101600188985
 20
-17.99393015045285
 30
0.0
  0
SPLINE
  5
160
330
1F
100
AcDbEntity
  8
0
  6
Continuous
 62
     7
370
    25
100
AcDbSpline
210
0.0
220
0.0
230
1.0
 70
     8
 71
     3
 72
    15
 73
    11
 74
     0
 42
0.000000001
 43
0.00000001
 40
0.0
 40
0.0
 40
0.0
 40
0.0
 40
0.1149064084028477
 40
0.2250851390911454
 40
0.3346462755899912
 40
0.4471657958137211
 40
0.5671432355834187
 40
0.6973278433013964
 40
0.8413590957370088
 40
0.9999999999999999
 40
0.9999999999999999
 40
0.9999999999999999
 40
0.9999999999999999
 10
-13.41037188841396
 20
-17.99393015045287
 30
0.0
 10
-13.47825890692866
 20
-17.99710632263593
 30
0.0
 10
-13.61123981910977
 20
-18.00332798744593
 30
0.0
 10
-13.80259021304832
 20
-18.05836233268962
 30
0.0
 10
-13.97854865678617
 20
-18.14717963448316
 30
0.0
 10
-14.13734827580099
 20
-18.27359641583845
 30
0.0
 10
-14.28041647076003
 20
-18.43397095166762
 30
0.0
 10
-14.40494197252858
 20
-18.63104456197918
 30
0.0
 10
-14.51982798448972
 20
-18.85972166740998
 30
0.0
 10
-14.57774129350194
 20
-19.02877845451465
 30
0.0
 10
-14.60809565384606
 20
-19.11738694057631
 30
0.0
  0
SPLINE
  5
161
330
1F
100
AcDbEntity
  8
0
  6
Continuous
 62
     7
370
    25
100
AcDbSpline
210
0.0
220
0.0
230
1.0
 70
     8
 71
     3
 72
     9
 73
     5
 74
     0
 42
0.000000001
 43
0.00000001
 40
0.0
 40
0.0
 40
0.0
 40
0.0
 40
0.5010433885237168
 40
1.0
 40
1.0
 40
1.0
 40
1.0
 10
-14.60809565384606
 20
-19.11738694057631
 30
0.0
 10
-14.43847142751571
 20
-19.04342094567872
 30
0.0
 10
-14.09992943651143
 20
-18.89579701411557
 30
0.0
 10
-13.76061595259955
 20
-18.74995510705203
 30
0.0
 10
-13.59131324643866
 20
-18.67718632329236
 30
0.0
  0
SPLINE
  5
162
330
1F
100
AcDbEntity
  8
0
  6
Continuous
 62
     7
370
    25
100
AcDbSpline
210
0.0
220
0.0
230
1.0
 70
     8
 71
     3
 72
    11
 73
     7
 74
     0
 42
0.000000001
 43
0.00000001
 40
0.0
 40
0.0
 40
0.0
 40
0.0
 40
0.2903771344239495
 40
0.553719001985518
 40
0.7908513039948186
 40
1.0
 40
1.0
 40
1.0
 40
1.0
 10
-13.59131324643866
 20
-18.67718632329236
 30
0.0
 10
-13.49463921943007
 20
-18.63290150891159
 30
0.0
 10
-13.31029190207222
 20
-18.5484549726143
 30
0.0
 10
-13.05248162524324
 20
-18.41654065643494
 30
0.0
 10
-12.82371524285888
 20
-18.29308805937821
 30
0.0
 10
-12.6853063726886
 20
-18.20615864428423
 30
0.0
 10
-12.6204413328584
 20
-18.16541934798373
 30
0.0
  0
SPLINE
  5
163
330
1F
100
AcDbEntity
  8
0
  6
Continuous
 62
     7
370
    25
100
AcDbSpline
210
0.0
220
0.0
230
1.0
 70
     8
 71
     3
 72
    11
 73
     7
 74
     0
 42
0.000000001
 43
0.00000001
 40
0.0
 40
0.0
 40
0.0
 40
0.0
 40
0.2204514009610345
 40
0.4559696969087934
 40
0.7153040245457529
 40
1.0
 40
1.0
 40
1.0
 40
1.0
 10
-12.6204413328584
 20
-18.16541934798373
 30
0.0
 10
-12.67415538419247
 20
-18.1383194455328
 30
0.0
 10
-12.7852546087824
 20
-18.08226748009762
 30
0.0
 10
-12.97460985419857
 20
-18.03247171233371
 30
0.0
 10
-13.18455829726992
 20
-17.99913934364069
 30
0.0
 10
-13.33279715443254
 20
-17.99571968744997
 30
0.0
 10
-13.41037188841396
 20
-17.99393015045286
 30
0.0
  0
LINE
  5
164
330
1F
100
AcDbEntity
  8
0
  6
Continuous
 62
     7
370
    25
100
AcDbLine
 10
-7.5216759008
 20
-21.2940844714
 30
0.0
 11
-7.7876867032
 21
-20.4501415702
 31
0.0
  0
LINE
  5
165
330
1F
100
AcDbEntity
  8
0
  6
Continuous
 62
     7
370
    25
100
AcDbLine
 10
-5.5880339255
 20
-19.730427064
 30
0.0
 11
-5.8675478143
 21
-20.5635674961
 31
0.0
  0
LINE
  5
166
330
1F
100
AcDbEntity
  8
0
  6
Continuous
 62
     7
370
    25
100
AcDbLine
 10
-4.1513055304
 20
-21.261677064
 30
0.0
 11
-4.4119150983
 21
-20.1652264467
 31
0.0
  0
LINE
  5
167
330
1F
100
AcDbEntity
  8
0
  6
Continuous
 62
     7
370
    25
100
AcDbLine
 10
-5.7946311477
 20
-16.320897743
 30
0.0
 11
-5.5340215798
 21
-15.2744085455
 31
0.0
  0
LINE
  5
168
330
1F
100
AcDbEntity
  8
0
  6
Continuous
 62
     7
370
    25
100
AcDbLine
 10
-18.1756110859
 20
-19.5656894097
 30
0.0
 11
-19.7068610859
 21
-20.2408437307
 31
0.0
  0
LINE
  5
169
330
1F
100
AcDbEntity
  8
0
  6
Continuous
 62
     7
370
    25
100
AcDbLine
 10
-105.5284271247
 20
-16.68
 30
0.0
 11
-114.8715728753
 21
-16.68
 31
0.0
  0
LINE
  5
16A
330
1F
100
AcDbEntity
  8
0
  6
Continuous
 62
     7
370
    25
100
AcDbLine
 10
-117.1142135624
 20
-15.2657864376
 30
0.0
 11
-116.2857864376
 21
-16.0942135624
 31
0.0
  0
LINE
  5
16B
330
1F
100
AcDbEntity
  8
0
  6
Continuous
 62
     7
370
    25
100
AcDbLine
 10
-117.7
 20
-13.8515728753
 30
0.0
 11
-117.7
 21
12.7715728753
 31
0.0
  0
LINE
  5
16C
330
1F
100
AcDbEntity
  8
0
  6
Continuous
 62
     7
370
    25
100
AcDbLine
 10
-116.2857864376
 20
15.0142135624
 30
0.0
 11
-117.1142135624
 21
14.1857864376
 31
0.0
  0
LINE
  5
16D
330
1F
100
AcDbEntity
  8
0
  6
Continuous
 62
     7
370
    25
100
AcDbLine
 10
-105.7
 20
15.6
 30
0.0
 11
-114.8715728753
 21
15.6
 31
0.0
  0
LINE
  5
16E
330
1F
100
AcDbEntity
  8
0
  6
Continuous
 62
     7
370
    25
100
AcDbLine
 10
-105.7
 20
15.6
 30
0.0
 11
-105.7
 21
19.6515728753
 31
0.0
  0
LINE
  5
16F
330
1F
100
AcDbEntity
  8
0
  6
Continuous
 62
     7
370
    25
100
AcDbLine
 10
-104.2857864376
 20
21.8942135624
 30
0.0
 11
-105.1142135624
 21
21.0657864376
 31
0.0
  0
LINE
  5
170
330
1F
100
AcDbEntity
  8
0
  6
Continuous
 62
     7
370
    25
100
AcDbLine
 10
-102.8715728753
 20
22.48
 30
0.0
 11
-74.5284271247
 21
22.48
 31
0.0
  0
LINE
  5
171
330
1F
100
AcDbEntity
  8
0
  6
Continuous
 62
     7
370
    25
100
AcDbLine
 10
-72.2857864376
 20
21.0657864376
 30
0.0
 11
-73.1142135624
 21
21.8942135624
 31
0.0
  0
LINE
  5
172
330
1F
100
AcDbEntity
  8
0
  6
Continuous
 62
     7
370
    25
100
AcDbLine
 10
-71.7
 20
19.6515728753
 30
0.0
 11
-71.7
 21
15.6
 31
0.0
  0
LINE
  5
173
330
1F
100
AcDbEntity
  8
0
  6
Continuous
 62
     7
370
    25
100
AcDbLine
 10
-31.2284271247
 20
15.6
 30
0.0
 11
-71.7
 21
15.6
 31
0.0
  0
LINE
  5
174
330
1F
100
AcDbEntity
  8
0
  6
Continuous
 62
     7
370
    25
100
AcDbLine
 10
-1.5857864376
 20
44.4142135624
 30
0.0
 11
-29.8142135624
 21
16.1857864376
 31
0.0
  0
LINE
  5
175
330
1F
100
AcDbEntity
  8
0
  6
Continuous
 62
     7
370
    25
100
AcDbLine
 10
-0.1715728753
 20
45.0
 30
0.0
 11
22.1715728753
 21
45.0
 31
0.0
  0
LINE
  5
176
330
1F
100
AcDbEntity
  8
0
  6
Continuous
 62
     7
370
    25
100
AcDbLine
 10
24.4142135624
 20
43.5857864376
 30
0.0
 11
23.5857864376
 21
44.4142135624
 31
0.0
  0
LINE
  5
177
330
1F
100
AcDbEntity
  8
0
  6
Continuous
 62
     7
370
    25
100
AcDbLine
 10
25.0
 20
42.1715728753
 30
0.0
 11
25.0
 21
-42.1715728753
 31
0.0
  0
LINE
  5
178
330
1F
100
AcDbEntity
  8
0
  6
Continuous
 62
     7
370
    25
100
AcDbLine
 10
23.5857864376
 20
-44.4142135624
 30
0.0
 11
24.4142135624
 21
-43.5857864376
 31
0.0
  0
LINE
  5
179
330
1F
100
AcDbEntity
  8
0
  6
Continuous
 62
     7
370
    25
100
AcDbLine
 10
22.1715728753
 20
-45.0
 30
0.0
 11
-22.1715728753
 21
-45.0
 31
0.0
  0
LINE
  5
17A
330
1F
100
AcDbEntity
  8
0
  6
Continuous
 62
     7
370
    25
100
AcDbLine
 10
-24.4142135624
 20
-43.5857864376
 30
0.0
 11
-23.5857864376
 21
-44.4142135624
 31
0.0
  0
LINE
  5
17B
330
1F
100
AcDbEntity
  8
0
  6
Continuous
 62
     7
370
    25
100
AcDbLine
 10
-25.0
 20
-42.1715728753
 30
0.0
 11
-25.0
 21
-28.6284271247
 31
0.0
  0
LINE
  5
17C
330
1F
100
AcDbEntity
  8
0
  6
Continuous
 62
     7
370
    25
100
AcDbLine
 10
-42.4142135624
 20
-10.3857864376
 30
0.0
 11
-25.5857864376
 21
-27.2142135624
 31
0.0
  0
LINE
  5
17D
330
1F
100
AcDbEntity
  8
0
  6
Continuous
 62
     7
370
    25
100
AcDbLine
 10
-43.8284271247
 20
-9.8
 30
0.0
 11
-102.7
 21
-9.8
 31
0.0
  0
LINE
  5
17E
330
1F
100
AcDbEntity
  8
0
  6
Continuous
 62
     7
370
    25
100
AcDbLine
 10
-102.7
 20
-9.8
 30
0.0
 11
-102.7
 21
-13.8515728753
 31
0.0
  0
LINE
  5
17F
330
1F
100
AcDbEntity
  8
0
  6
Continuous
 62
     7
370
    25
100
AcDbLine
 10
-104.1142135624
 20
-16.0942135624
 30
0.0
 11
-103.2857864376
 21
-15.2657864376
 31
0.0
  0
LINE
  5
180
330
1F
100
AcDbEntity
  8
0
  6
Continuous
 62
     7
370
    25
100
AcDbLine
 10
-8.7
 20
16.5
 30
0.0
 11
-3.7
 21
16.5
 31
0.0
  0
LINE
  5
181
330
1F
100
AcDbEntity
  8
0
  6
Continuous
 62
     7
370
    25
100
AcDbLine
 10
-3.7
 20
12.5
 30
0.0
 11
-8.7
 21
12.5
 31
0.0
  0
LINE
  5
182
330
1F
100
AcDbEntity
  8
0
  6
Continuous
 62
     7
370
    25
100
AcDbLine
 10
6.3
 20
16.5
 30
0.0
 11
11.3
 21
16.5
 31
0.0
  0
LINE
  5
183
330
1F
100
AcDbEntity
  8
0
  6
Continuous
 62
     7
370
    25
100
AcDbLine
 10
11.3
 20
12.5
 30
0.0
 11
6.3
 21
12.5
 31
0.0
  0
LINE
  5
184
330
1F
100
AcDbEntity
  8
0
  6
Continuous
 62
     7
370
    25
100
AcDbLine
 10
-12.9904259008
 20
-19.5656894097
 30
0.0
 11
-14.5216759008
 21
-20.2408437307
 31
0.0
  0
LINE
  5
185
330
1F
100
AcDbEntity
  8
0
  6
Continuous
 62
     7
370
    25
100
AcDbLine
 10
0.4046358276
 20
-19.5656894097
 30
0.0
 11
-1.1266141724
 21
-20.2408437307
 31
0.0
  0
ARC
  5
186
330
1F
100
AcDbEntity
  8
0
  6
Continuous
 62
     7
370
    25
100
AcDbCircle
 10
-105.5284271247
 20
-14.68
 30
0.0
 40
2.000000000000032
100
AcDbArc
 50
270.0
 51
315.0
  0
ARC
  5
187
330
1F
100
AcDbEntity
  8
0
  6
Continuous
 62
     7
370
    25
100
AcDbCircle
 10
-114.8715728753
 20
-14.68
 30
0.0
 40
2.000000000000065
100
AcDbArc
 50
225.0
 51
270.0
  0
ARC
  5
188
330
1F
100
AcDbEntity
  8
0
  6
Continuous
 62
     7
370
    25
100
AcDbCircle
 10
-115.7
 20
-13.8515728753
 30
0.0
 40
1.999999999999934
100
AcDbArc
 50
180.0
 51
225.0
  0
ARC
  5
189
330
1F
100
AcDbEntity
  8
0
  6
Continuous
 62
     7
370
    25
100
AcDbCircle
 10
-115.7
 20
12.7715728753
 30
0.0
 40
1.999999999999931
100
AcDbArc
 50
135.0
 51
180.0
  0
ARC
  5
18A
330
1F
100
AcDbEntity
  8
0
  6
Continuous
 62
     7
370
    25
100
AcDbCircle
 10
-114.8715728753
 20
13.6
 30
0.0
 40
2.000000000000011
100
AcDbArc
 50
90.0
 51
135.0
  0
ARC
  5
18B
330
1F
100
AcDbEntity
  8
0
  6
Continuous
 62
     7
370
    25
100
AcDbCircle
 10
-103.7
 20
19.6515728753
 30
0.0
 40
2.000000000000044
100
AcDbArc
 50
135.0
 51
180.0
  0
ARC
  5
18C
330
1F
100
AcDbEntity
  8
0
  6
Continuous
 62
     7
370
    25
100
AcDbCircle
 10
-102.8715728753
 20
20.48
 30
0.0
 40
2.000000000000018
100
AcDbArc
 50
90.0
 51
135.0
  0
ARC
  5
18D
330
1F
100
AcDbEntity
  8
0
  6
Continuous
 62
     7
370
    25
100
AcDbCircle
 10
-74.5284271247
 20
20.48
 30
0.0
 40
2.000000000000018
100
AcDbArc
 50
45.0
 51
90.0
  0
ARC
  5
18E
330
1F
100
AcDbEntity
  8
0
  6
Continuous
 62
     7
370
    25
100
AcDbCircle
 10
-73.7
 20
19.6515728753
 30
0.0
 40
2.000000000000043
100
AcDbArc
 50
0.0
 51
45.0
  0
ARC
  5
18F
330
1F
100
AcDbEntity
  8
0
  6
Continuous
 62
     7
370
    25
100
AcDbCircle
 10
-31.2284271247
 20
17.6
 30
0.0
 40
1.999999999999986
100
AcDbArc
 50
270.0
 51
315.0
  0
ARC
  5
190
330
1F
100
AcDbEntity
  8
0
  6
Continuous
 62
     7
370
    25
100
AcDbCircle
 10
-0.1715728753
 20
43.0
 30
0.0
 40
1.999999999999986
100
AcDbArc
 50
90.0
 51
135.0
  0
ARC
  5
191
330
1F
100
AcDbEntity
  8
0
  6
Continuous
 62
     7
370
    25
100
AcDbCircle
 10
22.1715728753
 20
43.0
 30
0.0
 40
1.999999999999979
100
AcDbArc
 50
45.0
 51
90.0
  0
ARC
  5
192
330
1F
100
AcDbEntity
  8
0
  6
Continuous
 62
     7
370
    25
100
AcDbCircle
 10
23.0
 20
42.1715728753
 30
0.0
 40
2.000000000000007
100
AcDbArc
 50
0.0
 51
45.0
  0
ARC
  5
193
330
1F
100
AcDbEntity
  8
0
  6
Continuous
 62
     7
370
    25
100
AcDbCircle
 10
23.0
 20
-42.1715728753
 30
0.0
 40
2.000000000000068
100
AcDbArc
 50
315.0
 51
0.0
  0
ARC
  5
194
330
1F
100
AcDbEntity
  8
0
  6
Continuous
 62
     7
370
    25
100
AcDbCircle
 10
22.1715728753
 20
-43.0
 30
0.0
 40
1.999999999999979
100
AcDbArc
 50
270.0
 51
315.0
  0
ARC
  5
195
330
1F
100
AcDbEntity
  8
0
  6
Continuous
 62
     7
370
    25
100
AcDbCircle
 10
-22.1715728753
 20
-43.0
 30
0.0
 40
2.000000000000019
100
AcDbArc
 50
225.0
 51
270.0
  0
ARC
  5
196
330
1F
100
AcDbEntity
  8
0
  6
Continuous
 62
     7
370
    25
100
AcDbCircle
 10
-23.0
 20
-42.1715728753
 30
0.0
 40
1.999999999999961
100
AcDbArc
 50
180.0
 51
225.0
  0
ARC
  5
197
330
1F
100
AcDbEntity
  8
0
  6
Continuous
 62
     7
370
    25
100
AcDbCircle
 10
-27.0
 20
-28.6284271247
 30
0.0
 40
2.000000000000007
100
AcDbArc
 50
0.0
 51
45.0
  0
ARC
  5
198
330
1F
100
AcDbEntity
  8
0
  6
Continuous
 62
     7
370
    25
100
AcDbCircle
 10
-43.8284271247
 20
-11.8
 30
0.0
 40
1.999999999999998
100
AcDbArc
 50
45.0
 51
90.0
  0
ARC
  5
199
330
1F
100
AcDbEntity
  8
0
  6
Continuous
 62
     7
370
    25
100
AcDbCircle
 10
-104.7
 20
-13.8515728753
 30
0.0
 40
2.000000000000014
100
AcDbArc
 50
315.0
 51
0.0
  0
ARC
  5
19A
330
1F
100
AcDbEntity
  8
0
  6
Continuous
 62
     7
370
    25
100
AcDbCircle
 10
-3.7
 20
14.5
 30
0.0
 40
2.000000000000002
100
AcDbArc
 50
270.0
 51
90.0
  0
ARC
  5
19B
330
1F
100
AcDbEntity
  8
0
  6
Continuous
 62
     7
370
    25
100
AcDbCircle
 10
-8.7
 20
14.5
 30
0.0
 40
2.000000000000002
100
AcDbArc
 50
90.0
 51
270.0
  0
ARC
  5
19C
330
1F
100
AcDbEntity
  8
0
  6
Continuous
 62
     7
370
    25
100
AcDbCircle
 10
11.3
 20
14.5
 30
0.0
 40
2.0
100
AcDbArc
 50
270.0
 51
90.0
  0
ARC
  5
19D
330
1F
100
AcDbEntity
  8
0
  6
Continuous
 62
     7
370
    25
100
AcDbCircle
 10
6.3
 20
14.5
 30
0.0
 40
1.999999999999995
100
AcDbArc
 50
90.0
 51
270.0
  0
ENDSEC
  0
SECTION
  2
OBJECTS
  0
DICTIONARY
  5
C
330
0
100
AcDbDictionary
281
     1
  3
ACAD_GROUP
350
D
  3
ACAD_LAYOUT
350
1A
  3
ACAD_MLINESTYLE
350
17
  3
ACAD_PLOTSETTINGS
350
19
  3
ACAD_PLOTSTYLENAME
350
E
  3
ACAD_SCALELIST
350
47
  0
DICTIONARY
  5
D
102
{ACAD_REACTORS
330
C
102
}
330
C
100
AcDbDictionary
281
     1
  0
DICTIONARY
  5
1A
102
{ACAD_REACTORS
330
C
102
}
330
C
100
AcDbDictionary
281
     1
  3
Layout1
350
1E
  3
Layout2
350
26
  3
Model
350
22
  0
DICTIONARY
  5
17
102
{ACAD_REACTORS
330
C
102
}
330
C
100
AcDbDictionary
281
     1
  3
Standard
350
18
  0
DICTIONARY
  5
19
102
{ACAD_REACTORS
330
C
102
}
330
C
100
AcDbDictionary
281
     1
  0
ACDBDICTIONARYWDFLT
  5
E
102
{ACAD_REACTORS
330
C
102
}
330
C
100
AcDbDictionary
281
     1
  3
Normal
350
F
100
AcDbDictionaryWithDefault
340
F
  0
DICTIONARY
  5
47
102
{ACAD_REACTORS
330
C
102
}
330
C
100
AcDbDictionary
281
     1
  3
A0
350
48
  3
A1
350
49
  3
A2
350
4A
  3
A3
350
4B
  3
A4
350
4C
  3
A5
350
4D
  3
A6
350
4E
  3
A7
350
4F
  3
A8
350
50
  3
A9
350
51
  3
B0
350
52
  3
B1
350
53
  3
B2
350
54
  3
B3
350
55
  3
B4
350
56
  3
B5
350
57
  3
B6
350
58
  3
B7
350
59
  3
B8
350
5A
  3
B9
350
5B
  3
C0
350
5C
  3
C1
350
5D
  3
C2
350
5E
  3
C3
350
5F
  3
C4
350
60
  3
C5
350
61
  3
C6
350
62
  3
C7
350
63
  3
C8
350
64
  3
C9
350
65
  3
D0
350
66
  3
D1
350
67
  3
D2
350
68
  0
LAYOUT
  5
1E
102
{ACAD_REACTORS
330
1A
102
}
330
1A
100
AcDbPlotSettings
  1

  2
none_device
  4

  6

 40
0.0
 41
0.0
 42
0.0
 43
0.0
 44
0.0
 45
0.0
 46
0.0
 47
0.0
 48
0.0
 49
0.0
140
0.0
141
0.0
142
1.0
143
1.0
 70
   688
 72
     1
 73
     0
 74
     5
  7

 75
    16
147
1.0
148
0.0
149
0.0
100
AcDbLayout
  1
Layout1
 70
     1
 71
     1
 10
0.0
 20
0.0
 11
420.0
 21
297.0
 12
0.0
 22
0.0
 32
0.0
 14
1.0000000000E+20
 24
1.0000000000E+20
 34
1.0000000000E+20
 15
-1.0000000000E+20
 25
-1.0000000000E+20
 35
-1.0000000000E+20
146
0.0
 13
0.0
 23
0.0
 33
0.0
 16
1.0
 26
0.0
 36
0.0
 17
0.0
 27
1.0
 37
0.0
 76
     0
330
1B
  0
LAYOUT
  5
26
102
{ACAD_REACTORS
330
1A
102
}
330
1A
100
AcDbPlotSettings
  1

  2
none_device
  4

  6

 40
0.0
 41
0.0
 42
0.0
 43
0.0
 44
0.0
 45
0.0
 46
0.0
 47
0.0
 48
0.0
 49
0.0
140
0.0
141
0.0
142
1.0
143
1.0
 70
   688
 72
     1
 73
     0
 74
     5
  7

 75
    16
147
1.0
148
0.0
149
0.0
100
AcDbLayout
  1
Layout2
 70
     1
 71
     2
 10
0.0
 20
0.0
 11
0.0
 21
0.0
 12
0.0
 22
0.0
 32
0.0
 14
0.0
 24
0.0
 34
0.0
 15
0.0
 25
0.0
 35
0.0
146
0.0
 13
0.0
 23
0.0
 33
0.0
 16
1.0
 26
0.0
 36
0.0
 17
0.0
 27
1.0
 37
0.0
 76
     0
330
23
  0
LAYOUT
  5
22
102
{ACAD_REACTORS
330
1A
102
}
330
1A
100
AcDbPlotSettings
  1

  2
none_device
  4
ANSI_A_(11.00_x_8.50_Inches)
  6

 40
6.35
 41
19.05
 42
6.35000508
 43
19.05000254
 44
279.4
 45
215.9
 46
223.1936421692
 47
88.89999873
 48
0.0
 49
0.0
140
0.0
141
0.0
142
0.0763139453
143
1.0
 70
  1696
 72
     0
 73
     0
 74
     0
  7

 75
     0
147
0.0179189148
148
-1300.4909072572
149
0.0
100
AcDbLayout
  1
Model
 70
     1
 71
     0
 10
0.0
 20
0.0
 11
420.0
 21
297.0
 12
0.0
 22
0.0
 32
0.0
 14
-117.7
 24
-45.0
 34
0.0
 15
25.0
 25
45.0
 35
0.0
146
0.0
 13
0.0
 23
0.0
 33
0.0
 16
1.0
 26
0.0
 36
0.0
 17
0.0
 27
1.0
 37
0.0
 76
     0
330
1F
331
29
  0
MLINESTYLE
  5
18
102
{ACAD_REACTORS
330
17
102
}
330
17
100
AcDbMlineStyle
  2
Standard
 70
     0
  3

 62
   256
 51
90.0
 52
90.0
 71
     2
 49
0.5
 62
   256
  6
BYLAYER
 49
-0.5
 62
   256
  6
BYLAYER
  0
ACDBPLACEHOLDER
  5
F
102
{ACAD_REACTORS
330
E
102
}
330
E
  0
SCALE
  5
48
102
{ACAD_REACTORS
330
47
102
}
330
47
100
AcDbScale
 70
     0
300
1:1
140
1.0
141
1.0
290
     1
  0
SCALE
  5
49
102
{ACAD_REACTORS
330
47
102
}
330
47
100
AcDbScale
 70
     0
300
1:2
140
1.0
141
2.0
290
     0
  0
SCALE
  5
4A
102
{ACAD_REACTORS
330
47
102
}
330
47
100
AcDbScale
 70
     0
300
1:4
140
1.0
141
4.0
290
     0
  0
SCALE
  5
4B
102
{ACAD_REACTORS
330
47
102
}
330
47
100
AcDbScale
 70
     0
300
1:5
140
1.0
141
5.0
290
     0
  0
SCALE
  5
4C
102
{ACAD_REACTORS
330
47
102
}
330
47
100
AcDbScale
 70
     0
300
1:8
140
1.0
141
8.0
290
     0
  0
SCALE
  5
4D
102
{ACAD_REACTORS
330
47
102
}
330
47
100
AcDbScale
 70
     0
300
1:10
140
1.0
141
10.0
290
     0
  0
SCALE
  5
4E
102
{ACAD_REACTORS
330
47
102
}
330
47
100
AcDbScale
 70
     0
300
1:16
140
1.0
141
16.0
290
     0
  0
SCALE
  5
4F
102
{ACAD_REACTORS
330
47
102
}
330
47
100
AcDbScale
 70
     0
300
1:20
140
1.0
141
20.0
290
     0
  0
SCALE
  5
50
102
{ACAD_REACTORS
330
47
102
}
330
47
100
AcDbScale
 70
     0
300
1:30
140
1.0
141
30.0
290
     0
  0
SCALE
  5
51
102
{ACAD_REACTORS
330
47
102
}
330
47
100
AcDbScale
 70
     0
300
1:40
140
1.0
141
40.0
290
     0
  0
SCALE
  5
52
102
{ACAD_REACTORS
330
47
102
}
330
47
100
AcDbScale
 70
     0
300
1:50
140
1.0
141
50.0
290
     0
  0
SCALE
  5
53
102
{ACAD_REACTORS
330
47
102
}
330
47
100
AcDbScale
 70
     0
300
1:100
140
1.0
141
100.0
290
     0
  0
SCALE
  5
54
102
{ACAD_REACTORS
330
47
102
}
330
47
100
AcDbScale
 70
     0
300
2:1
140
2.0
141
1.0
290
     0
  0
SCALE
  5
55
102
{ACAD_REACTORS
330
47
102
}
330
47
100
AcDbScale
 70
     0
300
4:1
140
4.0
141
1.0
290
     0
  0
SCALE
  5
56
102
{ACAD_REACTORS
330
47
102
}
330
47
100
AcDbScale
 70
     0
300
8:1
140
8.0
141
1.0
290
     0
  0
SCALE
  5
57
102
{ACAD_REACTORS
330
47
102
}
330
47
100
AcDbScale
 70
     0
300
10:1
140
10.0
141
1.0
290
     0
  0
SCALE
  5
58
102
{ACAD_REACTORS
330
47
102
}
330
47
100
AcDbScale
 70
     0
300
100:1
140
100.0
141
1.0
290
     0
  0
SCALE
  5
59
102
{ACAD_REACTORS
330
47
102
}
330
47
100
AcDbScale
 70
     0
300
1/128" = 1'-0"
140
0.0078125
141
12.0
290
     0
  0
SCALE
  5
5A
102
{ACAD_REACTORS
330
47
102
}
330
47
100
AcDbScale
 70
     0
300
1/64" = 1'-0"
140
0.015625
141
12.0
290
     0
  0
SCALE
  5
5B
102
{ACAD_REACTORS
330
47
102
}
330
47
100
AcDbScale
 70
     0
300
1/32" = 1'-0"
140
0.03125
141
12.0
290
     0
  0
SCALE
  5
5C
102
{ACAD_REACTORS
330
47
102
}
330
47
100
AcDbScale
 70
     0
300
1/16" = 1'-0"
140
0.0625
141
12.0
290
     0
  0
SCALE
  5
5D
102
{ACAD_REACTORS
330
47
102
}
330
47
100
AcDbScale
 70
     0
300
3/32" = 1'-0"
140
0.09375
141
12.0
290
     0
  0
SCALE
  5
5E
102
{ACAD_REACTORS
330
47
102
}
330
47
100
AcDbScale
 70
     0
300
1/8" = 1'-0"
140
0.125
141
12.0
290
     0
  0
SCALE
  5
5F
102
{ACAD_REACTORS
330
47
102
}
330
47
100
AcDbScale
 70
     0
300
3/16" = 1'-0"
140
0.1875
141
12.0
290
     0
  0
SCALE
  5
60
102
{ACAD_REACTORS
330
47
102
}
330
47
100
AcDbScale
 70
     0
300
1/4" = 1'-0"
140
0.25
141
12.0
290
     0
  0
SCALE
  5
61
102
{ACAD_REACTORS
330
47
102
}
330
47
100
AcDbScale
 70
     0
300
3/8" = 1'-0"
140
0.375
141
12.0
290
     0
  0
SCALE
  5
62
102
{ACAD_REACTORS
330
47
102
}
330
47
100
AcDbScale
 70
     0
300
1/2" = 1'-0"
140
0.5
141
12.0
290
     0
  0
SCALE
  5
63
102
{ACAD_REACTORS
330
47
102
}
330
47
100
AcDbScale
 70
     0
300
3/4" = 1'-0"
140
0.75
141
12.0
290
     0
  0
SCALE
  5
64
102
{ACAD_REACTORS
330
47
102
}
330
47
100
AcDbScale
 70
     0
300
1" = 1'-0"
140
1.0
141
12.0
290
     0
  0
SCALE
  5
65
102
{ACAD_REACTORS
330
47
102
}
330
47
100
AcDbScale
 70
     0
300
1-1/2" = 1'-0"
140
1.5
141
12.0
290
     0
  0
SCALE
  5
66
102
{ACAD_REACTORS
330
47
102
}
330
47
100
AcDbScale
 70
     0
300
3" = 1'-0"
140
3.0
141
12.0
290
     0
  0
SCALE
  5
67
102
{ACAD_REACTORS
330
47
102
}
330
47
100
AcDbScale
 70
     0
300
6" = 1'-0"
140
6.0
141
12.0
290
     0
  0
SCALE
  5
68
102
{ACAD_REACTORS
330
47
102
}
330
47
100
AcDbScale
 70
     0
300
1'-0" = 1'-0"
140
12.0
141
12.0
290
     0
  0
ENDSEC
  0
EOF
