  0
SECTION
  2
HEADER
  9
$ACADVER
  1
AC1015
  9
$ACADMAINTVER
 70
     6
  9
$DWGCODEPAGE
  3
ANSI_1252
  9
$INSBASE
 10
0.0
 20
0.0
 30
0.0
  9
$EXTMIN
 10
-25.0
 20
-65.675
 30
0.0
  9
$EXTMAX
 10
130.0
 20
65.675
 30
0.0
  9
$LIMMIN
 10
0.0
 20
0.0
  9
$LIMMAX
 10
420.0
 20
297.0
  9
$ORTHOMODE
 70
     0
  9
$REGENMODE
 70
     1
  9
$FILLMODE
 70
     1
  9
$QTEXTMODE
 70
     0
  9
$MIRRTEXT
 70
     1
  9
$LTSCALE
 40
1.0
  9
$ATTMODE
 70
     1
  9
$TEXTSIZE
 40
3.175
  9
$TRACEWID
 40
1.0
  9
$TEXTSTYLE
  7
Standard
  9
$CLAYER
  8
0
  9
$CELTYPE
  6
ByLayer
  9
$CECOLOR
 62
   256
  9
$CELTSCALE
 40
1.0
  9
$DISPSILH
 70
     0
  9
$DIMSCALE
 40
1.0
  9
$DIMASZ
 40
3.302
  9
$DIMEXO
 40
1.27
  9
$DIMDLI
 40
3.75
  9
$DIMRND
 40
0.0
  9
$DIMDLE
 40
0.0
  9
$DIMEXE
 40
3.175
  9
$DIMTP
 40
0.0
  9
$DIMTM
 40
0.0
  9
$DIMTXT
 40
3.175
  9
$DIMCEN
 40
2.5
  9
$DIMTSZ
 40
0.0
  9
$DIMTOL
 70
     0
  9
$DIMLIM
 70
     0
  9
$DIMTIH
 70
     1
  9
$DIMTOH
 70
     1
  9
$DIMSE1
 70
     0
  9
$DIMSE2
 70
     0
  9
$DIMTAD
 70
     0
  9
$DIMZIN
 70
     0
  9
$DIMBLK
  1

  9
$DIMASO
 70
     1
  9
$DIMSHO
 70
     1
  9
$DIMPOST
  1

  9
$DIMAPOST
  1

  9
$DIMALT
 70
     0
  9
$DIMALTD
 70
     3
  9
$DIMALTF
 40
0.0393700787
  9
$DIMLFAC
 40
1.0
  9
$DIMTOFL
 70
     1
  9
$DIMTVP
 40
0.0
  9
$DIMTIX
 70
     0
  9
$DIMSOXD
 70
     0
  9
$DIMSAH
 70
     0
  9
$DIMBLK1
  1

  9
$DIMBLK2
  1

  9
$DIMSTYLE
  2
ISO-25
  9
$DIMCLRD
 70
     0
  9
$DIMCLRE
 70
     0
  9
$DIMCLRT
 70
     0
  9
$DIMTFAC
 40
1.0
  9
$DIMGAP
 40
1.524
  9
$DIMJUST
 70
     0
  9
$DIMSD1
 70
     0
  9
$DIMSD2
 70
     0
  9
$DIMTOLJ
 70
     0
  9
$DIMTZIN
 70
     0
  9
$DIMALTZ
 70
     0
  9
$DIMALTTZ
 70
     0
  9
$DIMUPT
 70
     0
  9
$DIMDEC
 70
     2
  9
$DIMTDEC
 70
     2
  9
$DIMALTU
 70
     2
  9
$DIMALTTD
 70
     3
  9
$DIMTXSTY
  7
Standard
  9
$DIMAUNIT
 70
     0
  9
$DIMADEC
 70
     2
  9
$DIMALTRND
 40
0.0
  9
$DIMAZIN
 70
     0
  9
$DIMDSEP
 70
    44
  9
$DIMATFIT
 70
     3
  9
$DIMFRAC
 70
     0
  9
$DIMLDRBLK
  1

  9
$DIMLUNIT
 70
     2
  9
$DIMLWD
 70
    -2
  9
$DIMLWE
 70
    -2
  9
$DIMTMOVE
 70
     0
  9
$LUNITS
 70
     2
  9
$LUPREC
 70
     2
  9
$SKETCHINC
 40
1.0
  9
$FILLETRAD
 40
10.0
  9
$AUNITS
 70
     0
  9
$AUPREC
 70
     2
  9
$MENU
  1
.
  9
$ELEVATION
 40
0.0
  9
$PELEVATION
 40
0.0
  9
$THICKNESS
 40
0.0
  9
$LIMCHECK
 70
     0
  9
$CHAMFERA
 40
0.0
  9
$CHAMFERB
 40
0.0
  9
$CHAMFERC
 40
0.0
  9
$CHAMFERD
 40
0.0
  9
$SKPOLY
 70
     0
  9
$TDCREATE
 40
2457745.633024884
  9
$TDUCREATE
 40
2457745.841358217
  9
$TDUPDATE
 40
2457745.633052512
  9
$TDUUPDATE
 40
2457745.841385845
  9
$TDINDWG
 40
0.0000000116
  9
$TDUSRTIMER
 40
0.0000000116
  9
$USRTIMER
 70
     1
  9
$ANGBASE
 50
0.0
  9
$ANGDIR
 70
     0
  9
$PDMODE
 70
     0
  9
$PDSIZE
 40
-1.0
  9
$PLINEWID
 40
0.0
  9
$SPLFRAME
 70
     0
  9
$SPLINETYPE
 70
     6
  9
$SPLINESEGS
 70
     8
  9
$HANDSEED
  5
15B
  9
$SURFTAB1
 70
     6
  9
$SURFTAB2
 70
     6
  9
$SURFTYPE
 70
     6
  9
$SURFU
 70
     6
  9
$SURFV
 70
     6
  9
$UCSBASE
  2

  9
$UCSNAME
  2

  9
$UCSORG
 10
0.0
 20
0.0
 30
0.0
  9
$UCSXDIR
 10
1.0
 20
0.0
 30
0.0
  9
$UCSYDIR
 10
0.0
 20
1.0
 30
0.0
  9
$UCSORTHOREF
  2

  9
$UCSORTHOVIEW
 70
     0
  9
$UCSORGTOP
 10
0.0
 20
0.0
 30
0.0
  9
$UCSORGBOTTOM
 10
0.0
 20
0.0
 30
0.0
  9
$UCSORGLEFT
 10
0.0
 20
0.0
 30
0.0
  9
$UCSORGRIGHT
 10
0.0
 20
0.0
 30
0.0
  9
$UCSORGFRONT
 10
0.0
 20
0.0
 30
0.0
  9
$UCSORGBACK
 10
0.0
 20
0.0
 30
0.0
  9
$PUCSBASE
  2

  9
$PUCSNAME
  2

  9
$PUCSORG
 10
0.0
 20
0.0
 30
0.0
  9
$PUCSXDIR
 10
1.0
 20
0.0
 30
0.0
  9
$PUCSYDIR
 10
0.0
 20
1.0
 30
0.0
  9
$PUCSORTHOREF
  2

  9
$PUCSORTHOVIEW
 70
     0
  9
$PUCSORGTOP
 10
0.0
 20
0.0
 30
0.0
  9
$PUCSORGBOTTOM
 10
0.0
 20
0.0
 30
0.0
  9
$PUCSORGLEFT
 10
0.0
 20
0.0
 30
0.0
  9
$PUCSORGRIGHT
 10
0.0
 20
0.0
 30
0.0
  9
$PUCSORGFRONT
 10
0.0
 20
0.0
 30
0.0
  9
$PUCSORGBACK
 10
0.0
 20
0.0
 30
0.0
  9
$USERI1
 70
     0
  9
$USERI2
 70
     0
  9
$USERI3
 70
     0
  9
$USERI4
 70
     0
  9
$USERI5
 70
     0
  9
$USERR1
 40
0.0
  9
$USERR2
 40
0.0
  9
$USERR3
 40
0.0
  9
$USERR4
 40
0.0
  9
$USERR5
 40
0.0
  9
$WORLDVIEW
 70
     1
  9
$SHADEDGE
 70
     3
  9
$SHADEDIF
 70
    70
  9
$TILEMODE
 70
     1
  9
$MAXACTVP
 70
    64
  9
$PINSBASE
 10
0.0
 20
0.0
 30
0.0
  9
$PLIMCHECK
 70
     0
  9
$PEXTMIN
 10
1.0000000000E+20
 20
1.0000000000E+20
 30
1.0000000000E+20
  9
$PEXTMAX
 10
-1.0000000000E+20
 20
-1.0000000000E+20
 30
-1.0000000000E+20
  9
$PLIMMIN
 10
0.0
 20
0.0
  9
$PLIMMAX
 10
420.0
 20
297.0
  9
$UNITMODE
 70
     0
  9
$VISRETAIN
 70
     1
  9
$PLINEGEN
 70
     0
  9
$PSLTSCALE
 70
     1
  9
$TREEDEPTH
 70
  3020
  9
$CMLSTYLE
  2
Standard
  9
$CMLJUST
 70
     0
  9
$CMLSCALE
 40
20.0
  9
$PROXYGRAPHICS
 70
     1
  9
$MEASUREMENT
 70
     1
  9
$CELWEIGHT
370
    -1
  9
$ENDCAPS
280
     0
  9
$JOINSTYLE
280
     0
  9
$LWDISPLAY
290
     1
  9
$INSUNITS
 70
     4
  9
$HYPERLINKBASE
  1

  9
$STYLESHEET
  1

  9
$XEDIT
290
     1
  9
$CEPSNTYPE
380
     0
  9
$PSTYLEMODE
290
     1
  9
$FINGERPRINTGUID
  2
{B080028A-FB6A-41EA-A8A0-4138880C692A}
  9
$VERSIONGUID
  2
{FAEB1C32-E019-11D5-929B-00C0DF256EC4}
  9
$EXTNAMES
290
     1
  9
$PSVPSCALE
 40
0.0
  9
$OLESTARTUP
290
     0
  0
ENDSEC
  0
SECTION
  2
CLASSES
  0
CLASS
  1
ACDBDICTIONARYWDFLT
  2
AcDbDictionaryWithDefault
  3
ObjectDBX Classes
 90
        0
280
     0
281
     0
  0
CLASS
  1
VISUALSTYLE
  2
AcDbVisualStyle
  3
ObjectDBX Classes
 90
     4095
280
     0
281
     0
  0
CLASS
  1
MATERIAL
  2
AcDbMaterial
  3
ObjectDBX Classes
 90
     1153
280
     0
281
     0
  0
CLASS
  1
SCALE
  2
AcDbScale
  3
ObjectDBX Classes
 90
     1153
280
     0
281
     0
  0
CLASS
  1
TABLESTYLE
  2
AcDbTableStyle
  3
ObjectDBX Classes
 90
     4095
280
     0
281
     0
  0
CLASS
  1
MLEADERSTYLE
  2
AcDbMLeaderStyle
  3
ACDB_MLEADERSTYLE_CLASS
 90
     4095
280
     0
281
     0
  0
CLASS
  1
SUN
  2
AcDbSun
  3
SCENEOE
 90
     1153
280
     0
281
     0
  0
CLASS
  1
ACDBPLACEHOLDER
  2
AcDbPlaceHolder
  3
ObjectDBX Classes
 90
        0
280
     0
281
     0
  0
CLASS
  1
LAYOUT
  2
AcDbLayout
  3
ObjectDBX Classes
 90
        0
280
     0
281
     0
  0
ENDSEC
  0
SECTION
  2
TABLES
  0
TABLE
  2
VPORT
  5
8
330
0
100
AcDbSymbolTable
 70
     1
  0
VPORT
  5
29
330
8
100
AcDbSymbolTableRecord
100
AcDbViewportTableRecord
  2
*Active
 70
     0
 10
0.0
 20
0.0
 11
1.0
 21
1.0
 12
52.5
 22
0.0
 13
0.0
 23
0.0
 14
10.0
 24
10.0
 15
10.0
 25
10.0
 16
0.0
 26
0.0
 36
1.0
 17
0.0
 27
0.0
 37
0.0
 40
133.977
 41
1.1800532927
 42
50.0
 43
0.0
 44
0.0
 50
0.0
 51
0.0
 71
     0
 72
   100
 73
     1
 74
     3
 75
     0
 76
     0
 77
     0
 78
     0
281
     0
 65
     1
110
0.0
120
0.0
130
0.0
111
1.0
121
0.0
131
0.0
112
0.0
122
1.0
132
0.0
 79
     0
146
0.0
  0
ENDTAB
  0
TABLE
  2
LTYPE
  5
5
330
0
100
AcDbSymbolTable
 70
     6
  0
LTYPE
  5
14
330
5
100
AcDbSymbolTableRecord
100
AcDbLinetypeTableRecord
  2
ByBlock
 70
     0
  3

 72
    65
 73
     0
 40
0.0
  0
LTYPE
  5
15
330
5
100
AcDbSymbolTableRecord
100
AcDbLinetypeTableRecord
  2
ByLayer
 70
     0
  3

 72
    65
 73
     0
 40
0.0
  0
LTYPE
  5
16
330
5
100
AcDbSymbolTableRecord
100
AcDbLinetypeTableRecord
  2
Continuous
 70
     0
  3
Solid line
 72
    65
 73
     0
 40
0.0
  0
LTYPE
  5
6E
330
5
100
AcDbSymbolTableRecord
100
AcDbLinetypeTableRecord
  2
HIDDEN
 70
     0
  3
Hidden __ __ __ __ __ __ __ __ __ __ __ __ __ __
 72
    65
 73
     2
 40
1.905
 49
1.27
 74
     0
 49
-0.635
 74
     0
  0
LTYPE
  5
6F
330
5
100
AcDbSymbolTableRecord
100
AcDbLinetypeTableRecord
  2
PHANTOM
 70
     0
  3
Phantom ______  __  __  ______  __  __  ______
 72
    65
 73
     6
 40
12.7
 49
6.35
 74
     0
 49
-1.27
 74
     0
 49
1.27
 74
     0
 49
-1.27
 74
     0
 49
1.27
 74
     0
 49
-1.27
 74
     0
  0
LTYPE
  5
70
330
5
100
AcDbSymbolTableRecord
100
AcDbLinetypeTableRecord
  2
CENTER
 70
     0
  3
Center ____ _ ____ _ ____ _ ____ _ ____ _ ____
 72
    65
 73
     4
 40
10.16
 49
6.35
 74
     0
 49
-1.27
 74
     0
 49
1.27
 74
     0
 49
-1.27
 74
     0
  0
LTYPE
  5
71
330
5
100
AcDbSymbolTableRecord
100
AcDbLinetypeTableRecord
  2
CENTERX2
 70
     0
  3
Center (2x) ________  __  ________  __  _____
 72
    65
 73
     4
 40
20.32
 49
12.7
 74
     0
 49
-2.54
 74
     0
 49
2.54
 74
     0
 49
-2.54
 74
     0
  0
LTYPE
  5
72
330
5
100
AcDbSymbolTableRecord
100
AcDbLinetypeTableRecord
  2
DOT2
 70
     0
  3
Dot (.5x) ........................................
 72
    65
 73
     2
 40
0.635
 49
0.0
 74
     0
 49
-0.635
 74
     0
  0
ENDTAB
  0
TABLE
  2
LAYER
  5
2
330
0
100
AcDbSymbolTable
 70
     1
  0
LAYER
  5
10
330
2
100
AcDbSymbolTableRecord
100
AcDbLayerTableRecord
  2
0
 70
     0
 62
     7
  6
Continuous
370
    -3
390
F
  0
ENDTAB
  0
TABLE
  2
STYLE
  5
3
330
0
100
AcDbSymbolTable
 70
     1
  0
STYLE
  5
11
330
3
100
AcDbSymbolTableRecord
100
AcDbTextStyleTableRecord
  2
Standard
 70
     0
 40
0.0
 41
1.0
 50
0.0
 71
     0
 42
3.175
  3
txt
  4

  0
ENDTAB
  0
TABLE
  2
VIEW
  5
6
330
0
100
AcDbSymbolTable
 70
     0
  0
ENDTAB
  0
TABLE
  2
UCS
  5
7
330
0
100
AcDbSymbolTable
 70
     0
  0
ENDTAB
  0
TABLE
  2
APPID
  5
9
330
0
100
AcDbSymbolTable
 70
     1
  0
APPID
  5
12
330
9
100
AcDbSymbolTableRecord
100
AcDbRegAppTableRecord
  2
ACAD
 70
     0
  0
ENDTAB
  0
TABLE
  2
DIMSTYLE
  5
A
330
0
100
AcDbSymbolTable
 70
     1
100
AcDbDimStyleTable
  0
DIMSTYLE
105
27
330
A
100
AcDbSymbolTableRecord
100
AcDbDimStyleTableRecord
  2
ISO-25
 70
     0
 41
2.5
 42
0.625
 43
3.75
 44
1.25
 73
     0
 74
     0
 77
     1
 78
     8
140
2.5
141
2.5
143
0.0393700787
147
0.625
171
     3
172
     1
178
     0
271
     2
272
     2
274
     3
278
    44
283
     0
284
     8
340
11
  0
ENDTAB
  0
TABLE
  2
BLOCK_RECORD
  5
1
330
0
100
AcDbSymbolTable
 70
     1
  0
BLOCK_RECORD
  5
1F
330
1
100
AcDbSymbolTableRecord
100
AcDbBlockTableRecord
  2
*Model_Space
340
22
  0
BLOCK_RECORD
  5
1B
330
1
100
AcDbSymbolTableRecord
100
AcDbBlockTableRecord
  2
*Paper_Space
340
1E
  0
BLOCK_RECORD
  5
23
330
1
100
AcDbSymbolTableRecord
100
AcDbBlockTableRecord
  2
*Paper_Space0
340
26
  0
ENDTAB
  0
ENDSEC
  0
SECTION
  2
BLOCKS
  0
BLOCK
  5
20
330
1F
100
AcDbEntity
  8
0
100
AcDbBlockBegin
  2
*Model_Space
 70
     0
 10
0.0
 20
0.0
 30
0.0
  3
*Model_Space
  1

  0
ENDBLK
  5
21
330
1F
100
AcDbEntity
  8
0
100
AcDbBlockEnd
  0
BLOCK
  5
1C
330
1B
100
AcDbEntity
 67
     1
  8
0
100
AcDbBlockBegin
  2
*Paper_Space
 70
     0
 10
0.0
 20
0.0
 30
0.0
  3
*Paper_Space
  1

  0
ENDBLK
  5
1D
330
1B
100
AcDbEntity
 67
     1
  8
0
100
AcDbBlockEnd
  0
BLOCK
  5
24
330
23
100
AcDbEntity
  8
0
100
AcDbBlockBegin
  2
*Paper_Space0
 70
     0
 10
0.0
 20
0.0
 30
0.0
  3
*Paper_Space0
  1

  0
ENDBLK
  5
25
330
23
100
AcDbEntity
  8
0
100
AcDbBlockEnd
  0
ENDSEC
  0
SECTION
  2
ENTITIES
  0
SPLINE
  5
74
330
1F
100
AcDbEntity
  8
0
  6
Continuous
 62
     7
370
    25
100
AcDbSpline
210
0.0
220
0.0
230
1.0
 70
     8
 71
     3
 72
    11
 73
     7
 74
     0
 42
0.000000001
 43
0.00000001
 40
0.0
 40
0.0
 40
0.0
 40
0.0
 40
0.2552698297333552
 40
0.4995461907060443
 40
0.7465367315845607
 40
1.0
 40
1.0
 40
1.0
 40
1.0
 10
108.3636188271605
 20
26.84270833333334
 30
0.0
 10
108.3871073657831
 20
26.86133701946704
 30
0.0
 10
108.4330728839426
 20
26.89779212740387
 30
0.0
 10
108.5124806694987
 20
26.93602844792997
 30
0.0
 10
108.5973697032408
 20
26.95873654112486
 30
0.0
 10
108.6560461919886
 20
26.96174693845889
 30
0.0
 10
108.6857638888889
 20
26.96327160493828
 30
0.0
  0
SPLINE
  5
75
330
1F
100
AcDbEntity
  8
0
  6
Continuous
 62
     7
370
    25
100
AcDbSpline
210
0.0
220
0.0
230
1.0
 70
     8
 71
     3
 72
     9
 73
     5
 74
     0
 42
0.000000001
 43
0.00000001
 40
0.0
 40
0.0
 40
0.0
 40
0.0
 40
0.5015923660222329
 40
0.9999999999999999
 40
0.9999999999999999
 40
0.9999999999999999
 40
0.9999999999999999
 10
105.3717206790123
 20
25.81550925925927
 30
0.0
 10
105.4724401992443
 20
25.69650788929117
 30
0.0
 10
105.6732397469542
 20
25.45926071802378
 30
0.0
 10
105.8653064430501
 20
25.2148902450509
 30
0.0
 10
105.9610339506172
 20
25.09309413580247
 30
0.0
  0
SPLINE
  5
76
330
1F
100
AcDbEntity
  8
0
  6
Continuous
 62
     7
370
    25
100
AcDbSpline
210
0.0
220
0.0
230
1.0
 70
     8
 71
     3
 72
     9
 73
     5
 74
     0
 42
0.000000001
 43
0.00000001
 40
0.0
 40
0.0
 40
0.0
 40
0.0
 40
0.4946357140693544
 40
1.0
 40
1.0
 40
1.0
 40
1.0
 10
105.3543595679012
 20
24.40636574074074
 30
0.0
 10
105.2440144808686
 20
24.54663023275652
 30
0.0
 10
105.0209309389934
 20
24.8302015318482
 30
0.0
 10
104.7868777843689
 20
25.10478992934143
 30
0.0
 10
104.6685956790123
 20
25.24355709876543
 30
0.0
  0
SPLINE
  5
77
330
1F
100
AcDbEntity
  8
0
  6
Continuous
 62
     7
370
    25
100
AcDbSpline
210
0.0
220
0.0
230
1.0
 70
     8
 71
     3
 72
    11
 73
     7
 74
     0
 42
0.000000001
 43
0.00000001
 40
0.0
 40
0.0
 40
0.0
 40
0.0
 40
0.2821538841314261
 40
0.5434983960596929
 40
0.7823389038246217
 40
1.0
 40
1.0
 40
1.0
 40
1.0
 10
107.1965663580246
 20
23.38688271604939
 30
0.0
 10
107.2608324045057
 20
23.2975647561824
 30
0.0
 10
107.3846247573601
 20
23.12551620162692
 30
0.0
 10
107.568519730508
 20
22.88205711419331
 30
0.0
 10
107.7416883743939
 20
22.66203455447935
 30
0.0
 10
107.8571686545032
 20
22.52653013794221
 30
0.0
 10
107.9122299382715
 20
22.4619212962963
 30
0.0
  0
CIRCLE
  5
78
330
1F
100
AcDbEntity
  8
0
  6
Continuous
 62
     7
370
    25
100
AcDbCircle
 10
0.0
 20
53.675
 30
0.0
 40
3.400000000000011
  0
CIRCLE
  5
79
330
1F
100
AcDbEntity
  8
0
  6
Continuous
 62
     7
370
    25
100
AcDbCircle
 10
0.0
 20
19.675
 30
0.0
 40
3.400000000000003
  0
CIRCLE
  5
7E
330
1F
100
AcDbEntity
  8
0
  6
Continuous
 62
     7
370
    25
100
AcDbCircle
 10
118.0
 20
22.025
 30
0.0
 40
3.400000000000006
  0
CIRCLE
  5
7F
330
1F
100
AcDbEntity
  8
0
  6
Continuous
 62
     7
370
    25
100
AcDbCircle
 10
-6.0
 20
2.175
 30
0.0
 40
1.181100000000002
  0
SPLINE
  5
D5
330
1F
100
AcDbEntity
  8
0
  6
Continuous
 62
     7
370
    25
100
AcDbSpline
210
0.0
220
0.0
230
1.0
 70
     8
 71
     3
 72
    15
 73
    11
 74
     0
 42
0.000000001
 43
0.00000001
 40
0.0
 40
0.0
 40
0.0
 40
0.0
 40
0.0886515987574079
 40
0.1877503732184841
 40
0.2972976048641179
 40
0.4170248137870317
 40
0.5470557921013255
 40
0.6879532331369252
 40
0.8386171267756783
 40
0.9999999999999999
 40
0.9999999999999999
 40
0.9999999999999999
 40
0.9999999999999999
 10
109.3416280864197
 20
24.6590663580247
 30
0.0
 10
109.3097551437897
 20
24.70694091592319
 30
0.0
 10
109.2422531815211
 20
24.80833182414255
 30
0.0
 10
109.1363082563899
 20
24.96950476605804
 30
0.0
 10
109.0193912951063
 20
25.147593894939
 30
0.0
 10
108.8936932135569
 20
25.34390742775689
 30
0.0
 10
108.7549373566198
 20
25.55599485537538
 30
0.0
 10
108.6070129235789
 20
25.78605749944717
 30
0.0
 10
108.4487048275707
 20
26.03362189483284
 30
0.0
 10
108.3392220793349
 20
26.20390770007372
 30
0.0
 10
108.2826003086419
 20
26.29197530864199
 30
0.0
  0
SPLINE
  5
D6
330
1F
100
AcDbEntity
  8
0
  6
Continuous
 62
     7
370
    25
100
AcDbSpline
210
0.0
220
0.0
230
1.0
 70
     8
 71
     3
 72
    15
 73
    11
 74
     0
 42
0.000000001
 43
0.00000001
 40
0.0
 40
0.0
 40
0.0
 40
0.0
 40
0.0745132945779736
 40
0.1581800078649994
 40
0.2564550406090069
 40
0.3686147545344268
 40
0.4991344174002419
 40
0.6471967144007714
 40
0.814009832849182
 40
0.9999999999999999
 40
0.9999999999999999
 40
0.9999999999999999
 40
0.9999999999999999
 10
107.5563271604938
 20
21.71635802469136
 30
0.0
 10
107.5277278866865
 20
21.71883333278158
 30
0.0
 10
107.4670161253642
 20
21.7240880226379
 30
0.0
 10
107.3753160943786
 20
21.76291485137791
 30
0.0
 10
107.2794194161819
 20
21.82235593302742
 30
0.0
 10
107.1783056745484
 20
21.90567501158905
 30
0.0
 10
107.0717872573401
 20
22.01110553695089
 30
0.0
 10
106.960294790234
 20
22.14050911243888
 30
0.0
 10
106.8425484755805
 20
22.29219342851056
 30
0.0
 10
106.7655269181248
 20
22.40333165616891
 30
0.0
 10
106.7249228395061
 20
22.4619212962963
 30
0.0
  0
SPLINE
  5
D7
330
1F
100
AcDbEntity
  8
0
  6
Continuous
 62
     7
370
    25
100
AcDbSpline
210
0.0
220
0.0
230
1.0
 70
     8
 71
     3
 72
     9
 73
     5
 74
     0
 42
0.000000001
 43
0.00000001
 40
0.0
 40
0.0
 40
0.0
 40
0.0
 40
0.499426304569647
 40
1.0
 40
1.0
 40
1.0
 40
1.0
 10
106.5223765432098
 20
24.34463734567902
 30
0.0
 10
106.634564885545
 20
24.18516114971609
 30
0.0
 10
106.8591993137053
 20
23.86584237434571
 30
0.0
 10
107.0840246890579
 20
23.54665801188828
 30
0.0
 10
107.1965663580246
 20
23.38688271604939
 30
0.0
  0
SPLINE
  5
D8
330
1F
100
AcDbEntity
  8
0
  6
Continuous
 62
     7
370
    25
100
AcDbSpline
210
0.0
220
0.0
230
1.0
 70
     8
 71
     3
 72
    11
 73
     7
 74
     0
 42
0.000000001
 43
0.00000001
 40
0.0
 40
0.0
 40
0.0
 40
0.0
 40
0.2514200120175752
 40
0.494500166378722
 40
0.7403581391353272
 40
1.0
 40
1.0
 40
1.0
 40
1.0
 10
108.216049382716
 20
26.52345679012347
 30
0.0
 10
108.2179837910904
 20
26.55388383936856
 30
0.0
 10
108.2217884415449
 20
26.61372864167117
 30
0.0
 10
108.2497356023191
 20
26.69975058416372
 30
0.0
 10
108.2970088724155
 20
26.7780841338648
 30
0.0
 10
108.3410155201825
 20
26.82077886912061
 30
0.0
 10
108.3636188271605
 20
26.84270833333334
 30
0.0
  0
SPLINE
  5
D9
330
1F
100
AcDbEntity
  8
0
  6
Continuous
 62
     7
370
    25
100
AcDbSpline
210
0.0
220
0.0
230
1.0
 70
     8
 71
     3
 72
    15
 73
    11
 74
     0
 42
0.000000001
 43
0.00000001
 40
0.0
 40
0.0
 40
0.0
 40
0.0
 40
0.0889024496514255
 40
0.1876024355531314
 40
0.2966094429014579
 40
0.4169597921556573
 40
0.5471178745730387
 40
0.6873343895876516
 40
0.8383768634138693
 40
1.0
 40
1.0
 40
1.0
 40
1.0
 10
110.5289351851851
 20
24.47966820987655
 30
0.0
 10
110.5512409415287
 20
24.52397525089897
 30
0.0
 10
110.598310670578
 20
24.61747221122511
 30
0.0
 10
110.6701512252751
 20
24.76656828443728
 30
0.0
 10
110.7507926337504
 20
24.9308898185203
 30
0.0
 10
110.8382912734451
 20
25.11139900789277
 30
0.0
 10
110.9316548451289
 20
25.3084065537239
 30
0.0
 10
111.032041967209
 20
25.52103394109684
 30
0.0
 10
111.1402653610066
 20
25.74937726122872
 30
0.0
 10
111.2141317790758
 20
25.90742323224597
 30
0.0
 10
111.2523148148148
 20
25.98912037037038
 30
0.0
  0
SPLINE
  5
DA
330
1F
100
AcDbEntity
  8
0
  6
Continuous
 62
     7
370
    25
100
AcDbSpline
210
0.0
220
0.0
230
1.0
 70
     8
 71
     3
 72
    15
 73
    11
 74
     0
 42
0.000000001
 43
0.00000001
 40
0.0
 40
0.0
 40
0.0
 40
0.0
 40
0.0307815726273894
 40
0.0900929356552425
 40
0.174703385832129
 40
0.2865751233910527
 40
0.4237486649301608
 40
0.5894505329660505
 40
0.7804619727503779
 40
1.0
 40
1.0
 40
1.0
 40
1.0
 10
104.6685956790123
 20
25.24355709876543
 30
0.0
 10
104.6647384645415
 20
25.24838018370471
 30
0.0
 10
104.6534489901756
 20
25.26249661259398
 30
0.0
 10
104.6315166702657
 20
25.28984282175735
 30
0.0
 10
104.6009241746289
 20
25.33106036934253
 30
0.0
 10
104.5590889625239
 20
25.38333197407581
 30
0.0
 10
104.5090552527476
 20
25.44982917355339
 30
0.0
 10
104.4482729101698
 20
25.52809057087428
 30
0.0
 10
104.3788067468558
 20
25.62051432532492
 30
0.0
 10
104.328815663369
 20
25.68598026782449
 30
0.0
 10
104.3020833333333
 20
25.72098765432099
 30
0.0
  0
SPLINE
  5
DB
330
1F
100
AcDbEntity
  8
0
  6
Continuous
 62
     7
370
    25
100
AcDbSpline
210
0.0
220
0.0
230
1.0
 70
     8
 71
     3
 72
    11
 73
     7
 74
     0
 42
0.000000001
 43
0.00000001
 40
0.0
 40
0.0
 40
0.0
 40
0.0
 40
0.2435602463050548
 40
0.486538971096796
 40
0.736500989664288
 40
1.0
 40
1.0
 40
1.0
 40
1.0
 10
103.5246913580246
 20
22.22368827160494
 30
0.0
 10
103.5258737637635
 20
22.24925583885005
 30
0.0
 10
103.5282357521436
 20
22.30032992852438
 30
0.0
 10
103.5511671907918
 20
22.37458276348534
 30
0.0
 10
103.5855339308653
 20
22.44647527495921
 30
0.0
 10
103.6192642684937
 20
22.48855304595334
 30
0.0
 10
103.636574074074
 20
22.51014660493827
 30
0.0
  0
SPLINE
  5
DC
330
1F
100
AcDbEntity
  8
0
  6
Continuous
 62
     7
370
    25
100
AcDbSpline
210
0.0
220
0.0
230
1.0
 70
     8
 71
     3
 72
    15
 73
    11
 74
     0
 42
0.000000001
 43
0.00000001
 40
0.0
 40
0.0
 40
0.0
 40
0.0
 40
0.122899880048301
 40
0.2414735382500817
 40
0.3630139285253245
 40
0.4920871367416534
 40
0.6216524187001475
 40
0.7459324762439055
 40
0.8704824764999312
 40
1.0
 40
1.0
 40
1.0
 40
1.0
 10
108.0308641975308
 20
22.16774691358025
 30
0.0
 10
108.0292758159632
 20
22.13796868760168
 30
0.0
 10
108.0261549657471
 20
22.07946046459096
 30
0.0
 10
107.9987402211613
 20
21.99498615338983
 30
0.0
 10
107.953064598764
 20
21.91760475715558
 30
0.0
 10
107.8916983581596
 20
21.84855990196071
 30
0.0
 10
107.8195967723053
 20
21.78956995189614
 30
0.0
 10
107.7377170026167
 20
21.74749122272431
 30
0.0
 10
107.6492305740643
 20
21.72123190555897
 30
0.0
 10
107.5876960059074
 20
21.71800369097664
 30
0.0
 10
107.5563271604938
 20
21.71635802469136
 30
0.0
  0
SPLINE
  5
DD
330
1F
100
AcDbEntity
  8
0
  6
Continuous
 62
     7
370
    25
100
AcDbSpline
210
0.0
220
0.0
230
1.0
 70
     8
 71
     3
 72
     9
 73
     5
 74
     0
 42
0.000000001
 43
0.00000001
 40
0.0
 40
0.0
 40
0.0
 40
0.0
 40
0.5004968722625157
 40
1.0
 40
1.0
 40
1.0
 40
1.0
 10
105.9610339506172
 20
25.09309413580247
 30
0.0
 10
106.0976849136665
 20
25.27409029407205
 30
0.0
 10
106.3707155170976
 20
25.63572323985126
 30
0.0
 10
106.6435953575536
 20
25.99746996138969
 30
0.0
 10
106.7798996913579
 20
26.17816358024692
 30
0.0
  0
SPLINE
  5
DE
330
1F
100
AcDbEntity
  8
0
  6
Continuous
 62
     7
370
    25
100
AcDbSpline
210
0.0
220
0.0
230
1.0
 70
     8
 71
     3
 72
    15
 73
    11
 74
     0
 42
0.000000001
 43
0.00000001
 40
0.0
 40
0.0
 40
0.0
 40
0.0
 40
0.0882356849371661
 40
0.1868360355586374
 40
0.2962347698281371
 40
0.4160103720842458
 40
0.5460173322196471
 40
0.6868518127999305
 40
0.8385198922621021
 40
0.9999999999999999
 40
0.9999999999999999
 40
0.9999999999999999
 40
0.9999999999999999
 10
107.3123070987654
 20
25.40077160493827
 30
0.0
 10
107.2901654670846
 20
25.36891371838255
 30
0.0
 10
107.2432813216624
 20
25.30145573661943
 30
0.0
 10
107.1680489915819
 20
25.19512123736348
 30
0.0
 10
107.0829366180021
 20
25.0788150239246
 30
0.0
 10
106.9897858756393
 20
24.95127836414886
 30
0.0
 10
106.8861140899208
 20
24.81433755800556
 30
0.0
 10
106.7733084052734
 20
24.66673365644751
 30
0.0
 10
106.6510338847196
 20
24.50895173958985
 30
0.0
 10
106.5661489048449
 20
24.40054110513583
 30
0.0
 10
106.5223765432098
 20
24.34463734567901
 30
0.0
  0
SPLINE
  5
DF
330
1F
100
AcDbEntity
  8
0
  6
Continuous
 62
     7
370
    25
100
AcDbSpline
210
0.0
220
0.0
230
1.0
 70
     8
 71
     3
 72
    15
 73
    11
 74
     0
 42
0.000000001
 43
0.00000001
 40
0.0
 40
0.0
 40
0.0
 40
0.0
 40
0.1033201952839764
 40
0.2126140825738165
 40
0.3283088970286062
 40
0.4504060709802565
 40
0.5784239723308083
 40
0.7128476375056052
 40
0.8536778684728785
 40
1.0
 40
1.0
 40
1.0
 40
1.0
 10
105.9060570987654
 20
23.66755401234568
 30
0.0
 10
105.8722852927865
 20
23.62898611143729
 30
0.0
 10
105.8027890870802
 20
23.54962041873899
 30
0.0
 10
105.6957526371014
 20
23.42682537517569
 30
0.0
 10
105.5818379066672
 20
23.29767098450768
 30
0.0
 10
105.4616014854199
 20
23.16170378427652
 30
0.0
 10
105.3339267251465
 20
23.01991943305322
 30
0.0
 10
105.1999055038044
 20
22.87134461014462
 30
0.0
 10
105.0593706615871
 20
22.71641454851168
 30
0.0
 10
104.9634316793633
 20
22.61108130087819
 30
0.0
 10
104.9145447530863
 20
22.55740740740741
 30
0.0
  0
SPLINE
  5
E0
330
1F
100
AcDbEntity
  8
0
  6
Continuous
 62
     7
370
    25
100
AcDbSpline
210
0.0
220
0.0
230
1.0
 70
     8
 71
     3
 72
    11
 73
     7
 74
     0
 42
0.000000001
 43
0.00000001
 40
0.0
 40
0.0
 40
0.0
 40
0.0
 40
0.2510119625092764
 40
0.4977118236063028
 40
0.7431369148554452
 40
1.0
 40
1.0
 40
1.0
 40
1.0
 10
111.9612268518518
 20
26.96327160493828
 30
0.0
 10
111.9893048351161
 20
26.96161019342536
 30
0.0
 10
112.0449784536718
 20
26.95831591156886
 30
0.0
 10
112.1262153985935
 20
26.93736071067179
 30
0.0
 10
112.2010553693368
 20
26.89814199522711
 30
0.0
 10
112.245309087733
 20
26.863379103903
 30
0.0
 10
112.2679398148148
 20
26.84560185185186
 30
0.0
  0
SPLINE
  5
E1
330
1F
100
AcDbEntity
  8
0
  6
Continuous
 62
     7
370
    25
100
AcDbSpline
210
0.0
220
0.0
230
1.0
 70
     8
 71
     3
 72
    15
 73
    11
 74
     0
 42
0.000000001
 43
0.00000001
 40
0.0
 40
0.0
 40
0.0
 40
0.0
 40
0.0670503159084979
 40
0.1503418808761665
 40
0.2504166252666037
 40
0.3670330073529467
 40
0.5006804367335801
 40
0.650330809048851
 40
0.8167705274148958
 40
1.0
 40
1.0
 40
1.0
 40
1.0
 10
112.2255015432098
 20
26.02770061728396
 30
0.0
 10
112.2100373073798
 20
25.9949224362041
 30
0.0
 10
112.1753630143584
 20
25.92142638583544
 30
0.0
 10
112.1184152171605
 20
25.79863028934427
 30
0.0
 10
112.0507304212056
 20
25.65127881079891
 30
0.0
 10
111.9741190644705
 20
25.47809490144324
 30
0.0
 10
111.8850480835584
 20
25.28113082664889
 30
0.0
 10
111.7868528319281
 20
25.0587460208971
 30
0.0
 10
111.6777660469527
 20
24.81187578850464
 30
0.0
 10
111.6017528327908
 20
24.63882707034318
 30
0.0
 10
111.5619212962963
 20
24.54814814814816
 30
0.0
  0
SPLINE
  5
E2
330
1F
100
AcDbEntity
  8
0
  6
Continuous
 62
     7
370
    25
100
AcDbSpline
210
0.0
220
0.0
230
1.0
 70
     8
 71
     3
 72
    15
 73
    11
 74
     0
 42
0.000000001
 43
0.00000001
 40
0.0
 40
0.0
 40
0.0
 40
0.0
 40
0.0884671217801849
 40
0.1870847359776317
 40
0.2965324883159852
 40
0.4168128997873067
 40
0.5468752548180108
 40
0.687080296356212
 40
0.8381215235028145
 40
1.0
 40
1.0
 40
1.0
 40
1.0
 10
106.7249228395061
 20
22.4619212962963
 30
0.0
 10
106.7126734943907
 20
22.48086925631887
 30
0.0
 10
106.6867693454742
 20
22.52093921707724
 30
0.0
 10
106.6463969893466
 20
22.584890153272
 30
0.0
 10
106.600926595603
 20
22.65521078652711
 30
0.0
 10
106.5511279759194
 20
22.73228461962627
 30
0.0
 10
106.4956823807038
 20
22.81503400772337
 30
0.0
 10
106.4370615127764
 20
22.90508566627737
 30
0.0
 10
106.3733104876918
 20
23.00147527443614
 30
0.0
 10
106.3291645668088
 20
23.06795984183892
 30
0.0
 10
106.3063271604938
 20
23.10235339506173
 30
0.0
  0
SPLINE
  5
E3
330
1F
100
AcDbEntity
  8
0
  6
Continuous
 62
     7
370
    25
100
AcDbSpline
210
0.0
220
0.0
230
1.0
 70
     8
 71
     3
 72
    15
 73
    11
 74
     0
 42
0.000000001
 43
0.00000001
 40
0.0
 40
0.0
 40
0.0
 40
0.0
 40
0.2025177818598936
 40
0.381439888339985
 40
0.5380838095573115
 40
0.6726998482253976
 40
0.7845328329794138
 40
0.8749577110987258
 40
0.9458435841981049
 40
1.0
 40
1.0
 40
1.0
 40
1.0
 10
106.7798996913579
 20
26.17816358024692
 30
0.0
 10
106.8303620094485
 20
26.2398519929986
 30
0.0
 10
106.9254071990662
 20
26.35604140143362
 30
0.0
 10
107.064513599469
 20
26.51571921589596
 30
0.0
 10
107.1905388375608
 20
26.65129162956207
 30
0.0
 10
107.3037866133749
 20
26.76233043137202
 30
0.0
 10
107.4037225681219
 20
26.84995307978794
 30
0.0
 10
107.4917221674824
 20
26.91126549445317
 30
0.0
 10
107.5671087986251
 20
26.95295920353267
 30
0.0
 10
107.6161190875301
 20
26.96015504949574
 30
0.0
 10
107.6373456790123
 20
26.96327160493827
 30
0.0
  0
SPLINE
  5
E4
330
1F
100
AcDbEntity
  8
0
  6
Continuous
 62
     7
370
    25
100
AcDbSpline
210
0.0
220
0.0
230
1.0
 70
     8
 71
     3
 72
    11
 73
     7
 74
     0
 42
0.000000001
 43
0.00000001
 40
0.0
 40
0.0
 40
0.0
 40
0.0
 40
0.2616174076610148
 40
0.5054947059680011
 40
0.7494002226491919
 40
1.0
 40
1.0
 40
1.0
 40
1.0
 10
109.5412808641975
 20
21.89575617283952
 30
0.0
 10
109.5179918121182
 20
21.91797148761148
 30
0.0
 10
109.4729929237094
 20
21.9608957108466
 30
0.0
 10
109.42463615655
 20
22.04002020679166
 30
0.0
 10
109.3941350064131
 20
22.1263345326924
 30
0.0
 10
109.3906533056591
 20
22.18710477916308
 30
0.0
 10
109.3888888888889
 20
22.21790123456791
 30
0.0
  0
SPLINE
  5
E5
330
1F
100
AcDbEntity
  8
0
  6
Continuous
 62
     7
370
    25
100
AcDbSpline
210
0.0
220
0.0
230
1.0
 70
     8
 71
     3
 72
    15
 73
    11
 74
     0
 42
0.000000001
 43
0.00000001
 40
0.0
 40
0.0
 40
0.0
 40
0.0
 40
0.1404928945866172
 40
0.2721737595471363
 40
0.3949030629813929
 40
0.5125981450731395
 40
0.6286032146699585
 40
0.7472551283118453
 40
0.8694121427704481
 40
1.0
 40
1.0
 40
1.0
 40
1.0
 10
111.5493827160494
 20
26.67006172839507
 30
0.0
 10
111.5597172921632
 20
26.69319552099354
 30
0.0
 10
111.5797382365852
 20
26.73801210280454
 30
0.0
 10
111.6185314810366
 20
26.7980199083622
 30
0.0
 10
111.6624300848824
 20
26.84889045812068
 30
0.0
 10
111.7109364400143
 20
26.89145470088099
 30
0.0
 10
111.7661273358638
 20
26.92350128680272
 30
0.0
 10
111.8262720174243
 20
26.94685285095434
 30
0.0
 10
111.8921451137544
 20
26.96050222543127
 30
0.0
 10
111.9376931552189
 20
26.96232817561854
 30
0.0
 10
111.9612268518518
 20
26.96327160493828
 30
0.0
  0
SPLINE
  5
E6
330
1F
100
AcDbEntity
  8
0
  6
Continuous
 62
     7
370
    25
100
AcDbSpline
210
0.0
220
0.0
230
1.0
 70
     8
 71
     3
 72
    15
 73
    11
 74
     0
 42
0.000000001
 43
0.00000001
 40
0.0
 40
0.0
 40
0.0
 40
0.0
 40
0.0889600237647434
 40
0.1884283638791276
 40
0.2979917847589031
 40
0.4176552844135317
 40
0.5480290821358414
 40
0.687903402130102
 40
0.8388964348100483
 40
1.0
 40
1.0
 40
1.0
 40
1.0
 10
110.0794753086419
 20
23.56049382716051
 30
0.0
 10
110.056963864077
 20
23.59263954773535
 30
0.0
 10
110.0092818324361
 20
23.6607281708865
 30
0.0
 10
109.9340087504003
 20
23.76850302490061
 30
0.0
 10
109.8521578124549
 20
23.88819633836293
 30
0.0
 10
109.7631084342838
 20
24.01948350124799
 30
0.0
 10
109.6682560666808
 20
24.16297718067434
 30
0.0
 10
109.5654974171468
 20
24.31780856376089
 30
0.0
 10
109.4557618272941
 20
24.48428020800734
 30
0.0
 10
109.3804855382947
 20
24.59955946408887
 30
0.0
 10
109.3416280864197
 20
24.6590663580247
 30
0.0
  0
SPLINE
  5
E7
330
1F
100
AcDbEntity
  8
0
  6
Continuous
 62
     7
370
    25
100
AcDbSpline
210
0.0
220
0.0
230
1.0
 70
     8
 71
     3
 72
    11
 73
     7
 74
     0
 42
0.000000001
 43
0.00000001
 40
0.0
 40
0.0
 40
0.0
 40
0.0
 40
0.2601882570329237
 40
0.5074352961691715
 40
0.7514675358576608
 40
0.9999999999999999
 40
0.9999999999999999
 40
0.9999999999999999
 40
0.9999999999999999
 10
104.3271604938271
 20
21.91408179012346
 30
0.0
 10
104.3031591822568
 20
21.89309659726984
 30
0.0
 10
104.2563503339867
 20
21.85216997101746
 30
0.0
 10
104.174283505
 20
21.80933905636375
 30
0.0
 10
104.0869916804808
 20
21.78315580068719
 30
0.0
 10
104.0267373120774
 20
21.77978647446882
 30
0.0
 10
103.9963348765431
 20
21.77808641975309
 30
0.0
  0
SPLINE
  5
E8
330
1F
100
AcDbEntity
  8
0
  6
Continuous
 62
     7
370
    25
100
AcDbSpline
210
0.0
220
0.0
230
1.0
 70
     8
 71
     3
 72
    11
 73
     7
 74
     0
 42
0.000000001
 43
0.00000001
 40
0.0
 40
0.0
 40
0.0
 40
0.0
 40
0.2705338406544789
 40
0.5210324152154715
 40
0.7604606085196695
 40
1.0
 40
1.0
 40
1.0
 40
1.0
 10
107.9122299382715
 20
22.4619212962963
 30
0.0
 10
107.9304856230422
 20
22.43904033894293
 30
0.0
 10
107.965645008295
 20
22.39497294817427
 30
0.0
 10
108.0024320653082
 20
22.32109431491429
 30
0.0
 10
108.0263113603259
 20
22.24541731069954
 30
0.0
 10
108.0293463502592
 20
22.19364105278362
 30
0.0
 10
108.0308641975308
 20
22.16774691358025
 30
0.0
  0
SPLINE
  5
E9
330
1F
100
AcDbEntity
  8
0
  6
Continuous
 62
     7
370
    25
100
AcDbSpline
210
0.0
220
0.0
230
1.0
 70
     8
 71
     3
 72
    11
 73
     7
 74
     0
 42
0.000000001
 43
0.00000001
 40
0.0
 40
0.0
 40
0.0
 40
0.0
 40
0.2562808891825819
 40
0.4988638999216942
 40
0.743152132304029
 40
1.0
 40
1.0
 40
1.0
 40
1.0
 10
112.2679398148148
 20
26.84560185185186
 30
0.0
 10
112.2902739146812
 20
26.82400983517383
 30
0.0
 10
112.3337483859777
 20
26.78197986687797
 30
0.0
 10
112.3796315076962
 20
26.70390577055433
 30
0.0
 10
112.4095684183268
 20
26.6182037765739
 30
0.0
 10
112.412220812332
 20
26.55747546218325
 30
0.0
 10
112.4135802469136
 20
26.52635030864198
 30
0.0
  0
SPLINE
  5
EA
330
1F
100
AcDbEntity
  8
0
  6
Continuous
 62
     7
370
    25
100
AcDbSpline
210
0.0
220
0.0
230
1.0
 70
     8
 71
     3
 72
    11
 73
     7
 74
     0
 42
0.000000001
 43
0.00000001
 40
0.0
 40
0.0
 40
0.0
 40
0.0
 40
0.2546264062178916
 40
0.5000856998424055
 40
0.7467807938202771
 40
1.0
 40
1.0
 40
1.0
 40
1.0
 10
109.8634259259259
 20
21.77808641975309
 30
0.0
 10
109.8336870992234
 20
21.77954655515955
 30
0.0
 10
109.7752801092143
 20
21.78241425787526
 30
0.0
 10
109.6908364886723
 20
21.80591028240368
 30
0.0
 10
109.6112255763395
 20
21.84223762941224
 30
0.0
 10
109.5647977364865
 20
21.8777621213619
 30
0.0
 10
109.5412808641975
 20
21.89575617283952
 30
0.0
  0
SPLINE
  5
EB
330
1F
100
AcDbEntity
  8
0
  6
Continuous
 62
     7
370
    25
100
AcDbSpline
210
0.0
220
0.0
230
1.0
 70
     8
 71
     3
 72
    15
 73
    11
 74
     0
 42
0.000000001
 43
0.00000001
 40
0.0
 40
0.0
 40
0.0
 40
0.0
 40
0.0959324319034317
 40
0.2007144143061309
 40
0.3131252758517362
 40
0.4340085198409031
 40
0.563321293480102
 40
0.7006861085270871
 40
0.8465288078368747
 40
1.0
 40
1.0
 40
1.0
 40
1.0
 10
104.2210648148147
 20
23.13804012345679
 30
0.0
 10
104.2577591136582
 20
23.17818879806297
 30
0.0
 10
104.3345326776616
 20
23.26218977196572
 30
0.0
 10
104.4534212890984
 20
23.39403650789432
 30
0.0
 10
104.582402329236
 20
23.53583078944079
 30
0.0
 10
104.7189120340337
 20
23.68955922408011
 30
0.0
 10
104.8655983855568
 20
23.85316447381522
 30
0.0
 10
105.0211435200255
 20
24.02783441300681
 30
0.0
 10
105.1844874683125
 20
24.21389101498603
 30
0.0
 10
105.2967815367748
 20
24.34112656504698
 30
0.0
 10
105.3543595679012
 20
24.40636574074074
 30
0.0
  0
SPLINE
  5
EC
330
1F
100
AcDbEntity
  8
0
  6
Continuous
 62
     7
370
    25
100
AcDbSpline
210
0.0
220
0.0
230
1.0
 70
     8
 71
     3
 72
    15
 73
    11
 74
     0
 42
0.000000001
 43
0.00000001
 40
0.0
 40
0.0
 40
0.0
 40
0.0
 40
0.0877930214244514
 40
0.1871836084507671
 40
0.2964607489863764
 40
0.4156245505824093
 40
0.5458646469902337
 40
0.6871835458196565
 40
0.8383896395771703
 40
1.0
 40
1.0
 40
1.0
 40
1.0
 10
111.2523148148148
 20
25.98912037037038
 30
0.0
 10
111.260963003057
 20
26.00906771614079
 30
0.0
 10
111.2794018157948
 20
26.05159747647638
 30
0.0
 10
111.3093042492163
 20
26.11864886246179
 30
0.0
 10
111.3420186039922
 20
26.19295053971132
 30
0.0
 10
111.3779306214393
 20
26.27419193035552
 30
0.0
 10
111.4164638226352
 20
26.36294836632434
 30
0.0
 10
111.4577856744447
 20
26.45914281985085
 30
0.0
 10
111.5019797573767
 20
26.56255990479901
 30
0.0
 10
111.5332352113123
 20
26.63344194232332
 30
0.0
 10
111.5493827160494
 20
26.67006172839508
 30
0.0
  0
SPLINE
  5
ED
330
1F
100
AcDbEntity
  8
0
  6
Continuous
 62
     7
370
    25
100
AcDbSpline
210
0.0
220
0.0
230
1.0
 70
     8
 71
     3
 72
    15
 73
    11
 74
     0
 42
0.000000001
 43
0.00000001
 40
0.0
 40
0.0
 40
0.0
 40
0.0
 40
0.1491971628402011
 40
0.2923057413788863
 40
0.4274162136380601
 40
0.5552832552068636
 40
0.6771341951327717
 40
0.7917915930286693
 40
0.899103492072704
 40
1.0
 40
1.0
 40
1.0
 40
1.0
 10
109.910686728395
 20
25.40173611111112
 30
0.0
 10
109.9391923172393
 20
25.35440966116226
 30
0.0
 10
109.9950402108719
 20
25.2616881054987
 30
0.0
 10
110.0785223752245
 20
25.12721386999951
 30
0.0
 10
110.1597982372165
 20
25.00069368298852
 30
0.0
 10
110.2379857178408
 20
24.88154832789498
 30
0.0
 10
110.3141062411398
 20
24.77014096605197
 30
0.0
 10
110.3868653351892
 20
24.66564269903222
 30
0.0
 10
110.4587989301243
 20
24.57012292841586
 30
0.0
 10
110.5060416533335
 20
24.50919399476793
 30
0.0
 10
110.5289351851851
 20
24.47966820987655
 30
0.0
  0
SPLINE
  5
EE
330
1F
100
AcDbEntity
  8
0
  6
Continuous
 62
     7
370
    25
100
AcDbSpline
210
0.0
220
0.0
230
1.0
 70
     8
 71
     3
 72
    11
 73
     7
 74
     0
 42
0.000000001
 43
0.00000001
 40
0.0
 40
0.0
 40
0.0
 40
0.0
 40
0.2583792842950838
 40
0.5112461698661854
 40
0.7541655485357686
 40
1.0
 40
1.0
 40
1.0
 40
1.0
 10
108.2826003086419
 20
26.29197530864199
 30
0.0
 10
108.2724483523639
 20
26.31038580027391
 30
0.0
 10
108.2523610269501
 20
26.34681400448483
 30
0.0
 10
108.2315117212818
 20
26.40465097662896
 30
0.0
 10
108.2179629228628
 20
26.46367182558624
 30
0.0
 10
108.2166897606041
 20
26.50344938688687
 30
0.0
 10
108.216049382716
 20
26.52345679012347
 30
0.0
  0
SPLINE
  5
EF
330
1F
100
AcDbEntity
  8
0
  6
Continuous
 62
     7
370
    25
100
AcDbSpline
210
0.0
220
0.0
230
1.0
 70
     8
 71
     3
 72
    11
 73
     7
 74
     0
 42
0.000000001
 43
0.00000001
 40
0.0
 40
0.0
 40
0.0
 40
0.0
 40
0.2382058419454627
 40
0.4764116838909113
 40
0.7300070822413184
 40
1.0
 40
1.0
 40
1.0
 40
1.0
 10
108.0925925925925
 20
26.51574074074074
 30
0.0
 10
108.0910660264041
 20
26.49017029409161
 30
0.0
 10
108.0880128940273
 20
26.43902940079334
 30
0.0
 10
108.064111210085
 20
26.36382475696079
 30
0.0
 10
108.026477097724
 20
26.29083961790021
 30
0.0
 10
107.991189953347
 20
26.24704365156734
 30
0.0
 10
107.9729938271604
 20
26.22445987654321
 30
0.0
  0
SPLINE
  5
F0
330
1F
100
AcDbEntity
  8
0
  6
Continuous
 62
     7
370
    25
100
AcDbSpline
210
0.0
220
0.0
230
1.0
 70
     8
 71
     3
 72
    15
 73
    11
 74
     0
 42
0.000000001
 43
0.00000001
 40
0.0
 40
0.0
 40
0.0
 40
0.0
 40
0.153024633812493
 40
0.2983967889638282
 40
0.435114020653493
 40
0.564203310816995
 40
0.6851790246215709
 40
0.7980338357765955
 40
0.9027912915397047
 40
1.0
 40
1.0
 40
1.0
 40
1.0
 10
111.5619212962963
 20
24.54814814814816
 30
0.0
 10
111.5283627857897
 20
24.47089919242967
 30
0.0
 10
111.4629239637644
 20
24.32026435826663
 30
0.0
 10
111.3641892887143
 20
24.10208424295291
 30
0.0
 10
111.2711229237322
 20
23.89579289461064
 30
0.0
 10
111.1798108034359
 20
23.70349078690197
 30
0.0
 10
111.0949626903261
 20
23.52264900268544
 30
0.0
 10
111.0111654742644
 20
23.35619122777345
 30
0.0
 10
110.9337764394746
 20
23.20114953663258
 30
0.0
 10
110.88120569847
 20
23.10320092593883
 30
0.0
 10
110.8559027777778
 20
23.05605709876545
 30
0.0
  0
SPLINE
  5
F1
330
1F
100
AcDbEntity
  8
0
  6
Continuous
 62
     7
370
    25
100
AcDbSpline
210
0.0
220
0.0
230
1.0
 70
     8
 71
     3
 72
    15
 73
    11
 74
     0
 42
0.000000001
 43
0.00000001
 40
0.0
 40
0.0
 40
0.0
 40
0.0
 40
0.0596947538212022
 40
0.1370755476493343
 40
0.2345733173838686
 40
0.3497004961310147
 40
0.4831820235753417
 40
0.6364686543476167
 40
0.8082266395847381
 40
1.0
 40
1.0
 40
1.0
 40
1.0
 10
112.4135802469136
 20
26.52635030864199
 30
0.0
 10
112.4128809839212
 20
26.51570274934667
 30
0.0
 10
112.4112752840651
 20
26.49125302926062
 30
0.0
 10
112.4013473767621
 20
26.45044137405276
 30
0.0
 10
112.3874419227409
 20
26.4005865497025
 30
0.0
 10
112.3650506762236
 20
26.34295170921355
 30
0.0
 10
112.339663349678
 20
26.27587230002011
 30
0.0
 10
112.3060003447061
 20
26.20125074016646
 30
0.0
 10
112.2689739083952
 20
26.11677399621518
 30
0.0
 10
112.2405146368604
 20
26.05846192907285
 30
0.0
 10
112.2255015432098
 20
26.02770061728396
 30
0.0
  0
SPLINE
  5
F2
330
1F
100
AcDbEntity
  8
0
  6
Continuous
 62
     7
370
    25
100
AcDbSpline
210
0.0
220
0.0
230
1.0
 70
     8
 71
     3
 72
    15
 73
    11
 74
     0
 42
0.000000001
 43
0.00000001
 40
0.0
 40
0.0
 40
0.0
 40
0.0
 40
0.1281083286201004
 40
0.2522149596195329
 40
0.3777079771915664
 40
0.5068741150252201
 40
0.6362006168066114
 40
0.7570925137851328
 40
0.8772366803284388
 40
1.0
 40
1.0
 40
1.0
 40
1.0
 10
103.9963348765431
 20
21.77808641975309
 30
0.0
 10
103.965641447904
 20
21.77985929954409
 30
0.0
 10
103.9052133559275
 20
21.78334967998784
 30
0.0
 10
103.8173432737837
 20
21.80809132456727
 30
0.0
 10
103.7365922833913
 20
21.85057421120955
 30
0.0
 10
103.6636470415507
 20
21.90724793882725
 30
0.0
 10
103.6023429377448
 20
21.97520426165344
 30
0.0
 10
103.558015640456
 20
22.05256302884207
 30
0.0
 10
103.5291854437207
 20
22.13584674981883
 30
0.0
 10
103.526200116367
 20
22.19419803982851
 30
0.0
 10
103.5246913580246
 20
22.22368827160494
 30
0.0
  0
SPLINE
  5
F3
330
1F
100
AcDbEntity
  8
0
  6
Continuous
 62
     7
370
    25
100
AcDbSpline
210
0.0
220
0.0
230
1.0
 70
     8
 71
     3
 72
    11
 73
     7
 74
     0
 42
0.000000001
 43
0.00000001
 40
0.0
 40
0.0
 40
0.0
 40
0.0
 40
0.2295749705544023
 40
0.4637070399675289
 40
0.7159324424179399
 40
0.9999999999999999
 40
0.9999999999999999
 40
0.9999999999999999
 40
0.9999999999999999
 10
108.6857638888889
 20
26.96327160493829
 30
0.0
 10
108.7215166591588
 20
26.96065120780823
 30
0.0
 10
108.793731897747
 20
26.95535839825767
 30
0.0
 10
108.8979040287477
 20
26.91164876506296
 30
0.0
 10
108.9953867151371
 20
26.84072826235641
 30
0.0
 10
109.0508622360024
 20
26.77833965919191
 30
0.0
 10
109.0802469135802
 20
26.74529320987655
 30
0.0
  0
SPLINE
  5
F4
330
1F
100
AcDbEntity
  8
0
  6
Continuous
 62
     7
370
    25
100
AcDbSpline
210
0.0
220
0.0
230
1.0
 70
     8
 71
     3
 72
    15
 73
    11
 74
     0
 42
0.000000001
 43
0.00000001
 40
0.0
 40
0.0
 40
0.0
 40
0.0
 40
0.1261803162015037
 40
0.2484305887519118
 40
0.3718639560232299
 40
0.5019057108773507
 40
0.631603135679156
 40
0.7538457873541741
 40
0.8751781372257513
 40
1.0
 40
1.0
 40
1.0
 40
1.0
 10
107.6373456790123
 20
26.96327160493827
 30
0.0
 10
107.6670609954733
 20
26.96146518534499
 30
0.0
 10
107.7255661077254
 20
26.95790860935436
 30
0.0
 10
107.8107526428045
 20
26.93366166669512
 30
0.0
 10
107.8878440047217
 20
26.88902478058536
 30
0.0
 10
107.9584035606807
 20
26.83222143334156
 30
0.0
 10
108.0177740950539
 20
26.76385691951651
 30
0.0
 10
108.0616121802641
 20
26.68700252946769
 30
0.0
 10
108.0875583687987
 20
26.60321789853039
 30
0.0
 10
108.0908987335186
 20
26.54517407218438
 30
0.0
 10
108.0925925925925
 20
26.51574074074074
 30
0.0
  0
SPLINE
  5
F5
330
1F
100
AcDbEntity
  8
0
  6
Continuous
 62
     7
370
    25
100
AcDbSpline
210
0.0
220
0.0
230
1.0
 70
     8
 71
     3
 72
    15
 73
    11
 74
     0
 42
0.000000001
 43
0.00000001
 40
0.0
 40
0.0
 40
0.0
 40
0.0
 40
0.0894622703741467
 40
0.1882976615694797
 40
0.2972491423983797
 40
0.4171476612140122
 40
0.5472485202517864
 40
0.6874824762284425
 40
0.838668309999304
 40
1.0
 40
1.0
 40
1.0
 40
1.0
 10
104.9145447530863
 20
22.55740740740741
 30
0.0
 10
104.8975236510685
 20
22.53777981908029
 30
0.0
 10
104.8616981159699
 20
22.49646822516715
 30
0.0
 10
104.8047551804657
 20
22.43158810560379
 30
0.0
 10
104.7407756776572
 20
22.36114153778455
 30
0.0
 10
104.6703429378262
 20
22.28429668456203
 30
0.0
 10
104.5945108973123
 20
22.20007858167153
 30
0.0
 10
104.5111024139619
 20
22.11047945772496
 30
0.0
 10
104.4217869624245
 20
22.01399129944981
 30
0.0
 10
104.3593780171529
 20
21.94809803309333
 30
0.0
 10
104.3271604938271
 20
21.91408179012346
 30
0.0
  0
SPLINE
  5
F6
330
1F
100
AcDbEntity
  8
0
  6
Continuous
 62
     7
370
    25
100
AcDbSpline
210
0.0
220
0.0
230
1.0
 70
     8
 71
     3
 72
    23
 73
    19
 74
     0
 42
0.000000001
 43
0.00000001
 40
0.0
 40
0.0
 40
0.0
 40
0.0
 40
0.0089132061618073
 40
0.0245203236500559
 40
0.0478307395663219
 40
0.0781188184774549
 40
0.1153853289738885
 40
0.1600773120759323
 40
0.2117460646693394
 40
0.2708442271272997
 40
0.3364683981014117
 40
0.4095185319505597
 40
0.4902867423802381
 40
0.5777423222569076
 40
0.6729132595691071
 40
0.7743216527529339
 40
0.8834479204186505
 40
1.0
 40
1.0
 40
1.0
 40
1.0
 10
109.3319830246913
 20
26.35370370370371
 30
0.0
 10
109.3335412144852
 20
26.35077997863024
 30
0.0
 10
109.3378278109534
 20
26.34273678028342
 30
0.0
 10
109.3483737990638
 20
26.32838504926946
 30
0.0
 10
109.3611479355298
 20
26.30606192968358
 30
0.0
 10
109.3787600346391
 20
26.27728338714898
 30
0.0
 10
109.3997509591747
 20
26.24126301196121
 30
0.0
 10
109.4260935154079
 20
26.19920260564483
 30
0.0
 10
109.4556708429224
 20
26.14961889533775
 30
0.0
 10
109.4908259484893
 20
26.09433518349399
 30
0.0
 10
109.5279275070341
 20
26.0309378392531
 30
0.0
 10
109.5710647604495
 20
25.96179082707254
 30
0.0
 10
109.6164348055613
 20
25.88451556420209
 30
0.0
 10
109.6684814082764
 20
25.80168587360865
 30
0.0
 10
109.7226383965016
 20
25.71116548500327
 30
0.0
 10
109.7822172830245
 20
25.6145235149901
 30
0.0
 10
109.8443911421123
 20
25.51016908060774
 30
0.0
 10
109.8881086995508
 20
25.43866470395172
 30
0.0
 10
109.910686728395
 20
25.40173611111112
 30
0.0
  0
SPLINE
  5
F7
330
1F
100
AcDbEntity
  8
0
  6
Continuous
 62
     7
370
    25
100
AcDbSpline
210
0.0
220
0.0
230
1.0
 70
     8
 71
     3
 72
    15
 73
    11
 74
     0
 42
0.000000001
 43
0.00000001
 40
0.0
 40
0.0
 40
0.0
 40
0.0
 40
0.0882804670055656
 40
0.187738589023799
 40
0.2967301054029675
 40
0.4168453113036159
 40
0.5473173313731915
 40
0.6873237579973853
 40
0.8385131476871343
 40
1.0
 40
1.0
 40
1.0
 40
1.0
 10
103.636574074074
 20
22.51014660493827
 30
0.0
 10
103.6539982172349
 20
22.5284133109593
 30
0.0
 10
103.6910526661175
 20
22.56725956688458
 30
0.0
 10
103.7482673877731
 20
22.62992128866636
 30
0.0
 10
103.812303042075
 20
22.69867060651329
 30
0.0
 10
103.8827305588879
 20
22.7735849226668
 30
0.0
 10
103.9585005239298
 20
22.85564322713446
 30
0.0
 10
104.0412307402755
 20
22.94336296518671
 30
0.0
 10
104.1282738468087
 20
23.03917758446287
 30
0.0
 10
104.1894627742384
 20
23.10437027351448
 30
0.0
 10
104.2210648148147
 20
23.13804012345679
 30
0.0
  0
SPLINE
  5
F8
330
1F
100
AcDbEntity
  8
0
  6
Continuous
 62
     7
370
    25
100
AcDbSpline
210
0.0
220
0.0
230
1.0
 70
     8
 71
     3
 72
    15
 73
    11
 74
     0
 42
0.000000001
 43
0.00000001
 40
0.0
 40
0.0
 40
0.0
 40
0.0
 40
0.0868103675750621
 40
0.1812379296136846
 40
0.2850229950834769
 40
0.4027258834779965
 40
0.5313097538420037
 40
0.6742721964131603
 40
0.8310828418656622
 40
1.0
 40
1.0
 40
1.0
 40
1.0
 10
104.1728395061728
 20
26.96327160493827
 30
0.0
 10
104.188333180978
 20
26.96246104090337
 30
0.0
 10
104.2206800264326
 20
26.96076878971717
 30
0.0
 10
104.2702838958108
 20
26.94833045638099
 30
0.0
 10
104.3229484022236
 20
26.92822839244955
 30
0.0
 10
104.3797283777823
 20
26.9018885725811
 30
0.0
 10
104.4383737152725
 20
26.86454591427237
 30
0.0
 10
104.5025051362192
 20
26.82296712890196
 30
0.0
 10
104.568380236694
 20
26.77133380370977
 30
0.0
 10
104.6127783350992
 20
26.733861527352
 30
0.0
 10
104.6358024691357
 20
26.71442901234568
 30
0.0
  0
SPLINE
  5
F9
330
1F
100
AcDbEntity
  8
0
  6
Continuous
 62
     7
370
    25
100
AcDbSpline
210
0.0
220
0.0
230
1.0
 70
     8
 71
     3
 72
    15
 73
    11
 74
     0
 42
0.000000001
 43
0.00000001
 40
0.0
 40
0.0
 40
0.0
 40
0.0
 40
0.1148894915603447
 40
0.2244662193761129
 40
0.3289925043956876
 40
0.4294254726642373
 40
0.5384714834162043
 40
0.6705492222207837
 40
0.8238370136336842
 40
1.0
 40
1.0
 40
1.0
 40
1.0
 10
104.6358024691357
 20
26.71442901234568
 30
0.0
 10
104.6685869438886
 20
26.68420840216583
 30
0.0
 10
104.7326398611926
 20
26.62516465480318
 30
0.0
 10
104.8212705374817
 20
26.53322033567136
 30
0.0
 10
104.9021985462543
 20
26.44174892274771
 30
0.0
 10
104.9756530331054
 20
26.34446018151433
 30
0.0
 10
105.0537184014855
 20
26.23738235156191
 30
0.0
 10
105.145118073294
 20
26.11462809026035
 30
0.0
 10
105.252345084719
 20
25.97119869168377
 30
0.0
 10
105.3301285336214
 20
25.86975365944471
 30
0.0
 10
105.3717206790123
 20
25.81550925925927
 30
0.0
  0
SPLINE
  5
FA
330
1F
100
AcDbEntity
  8
0
  6
Continuous
 62
     7
370
    25
100
AcDbSpline
210
0.0
220
0.0
230
1.0
 70
     8
 71
     3
 72
    15
 73
    11
 74
     0
 42
0.000000001
 43
0.00000001
 40
0.0
 40
0.0
 40
0.0
 40
0.0
 40
0.1508373180688015
 40
0.2940532626577527
 40
0.4302541694196905
 40
0.5587442257007009
 40
0.6803913749742975
 40
0.7936296275540252
 40
0.9006447449718907
 40
1.0
 40
1.0
 40
1.0
 40
1.0
 10
107.9729938271604
 20
26.22445987654321
 30
0.0
 10
107.9381566539692
 20
26.18437081841571
 30
0.0
 10
107.8702425292035
 20
26.10621828633548
 30
0.0
 10
107.7727892773705
 20
25.99022019146588
 30
0.0
 10
107.6815739784052
 20
25.87928539623317
 30
0.0
 10
107.5948194402164
 20
25.77448828900135
 30
0.0
 10
107.5168553403379
 20
25.67302619811882
 30
0.0
 10
107.4424255080793
 20
25.57840194788438
 30
0.0
 10
107.3754844658902
 20
25.48792746523212
 30
0.0
 10
107.3328385912495
 20
25.42909567053341
 30
0.0
 10
107.3123070987654
 20
25.40077160493827
 30
0.0
  0
SPLINE
  5
FB
330
1F
100
AcDbEntity
  8
0
  6
Continuous
 62
     7
370
    25
100
AcDbSpline
210
0.0
220
0.0
230
1.0
 70
     8
 71
     3
 72
    23
 73
    19
 74
     0
 42
0.000000001
 43
0.00000001
 40
0.0
 40
0.0
 40
0.0
 40
0.0
 40
0.1143612771970479
 40
0.2214534258995603
 40
0.3220816567546351
 40
0.4162492919033138
 40
0.5023949239942773
 40
0.5828286002008215
 40
0.6552422653340532
 40
0.7211936233304961
 40
0.7802782018482266
 40
0.8321617920332643
 40
0.8775143227966676
 40
0.915661182500526
 40
0.9469397280169856
 40
0.9713500316877337
 40
0.9888922508257374
 40
1.0
 40
1.0
 40
1.0
 40
1.0
 10
110.8559027777778
 20
23.05605709876544
 30
0.0
 10
110.8352288997867
 20
23.01817227420781
 30
0.0
 10
110.7951952343717
 20
22.94481069244237
 30
0.0
 10
110.7385695425539
 20
22.83725605771058
 30
0.0
 10
110.6845941755904
 20
22.73692411961213
 30
0.0
 10
110.6333754325428
 20
22.6440919584067
 30
0.0
 10
110.5870282287072
 20
22.55728702385031
 30
0.0
 10
110.5436256115384
 20
22.47822271730377
 30
0.0
 10
110.5052816718979
 20
22.4050889097354
 30
0.0
 10
110.4691622382178
 20
22.33991189481607
 30
0.0
 10
110.4381471211994
 20
22.28077323232814
 30
0.0
 10
110.4080491827937
 20
22.23000561870568
 30
0.0
 10
110.3849935795659
 20
22.18438369209376
 30
0.0
 10
110.3632490819749
 20
22.14691220214246
 30
0.0
 10
110.3460438637986
 20
22.11595922044771
 30
0.0
 10
110.3323246761126
 20
22.09197357293255
 30
0.0
 10
110.3230321587542
 20
22.07421300803097
 30
0.0
 10
110.3171106255688
 20
22.06516081805593
 30
0.0
 10
110.3148148148148
 20
22.06165123456791
 30
0.0
  0
SPLINE
  5
FC
330
1F
100
AcDbEntity
  8
0
  6
Continuous
 62
     7
370
    25
100
AcDbSpline
210
0.0
220
0.0
230
1.0
 70
     8
 71
     3
 72
    15
 73
    11
 74
     0
 42
0.000000001
 43
0.00000001
 40
0.0
 40
0.0
 40
0.0
 40
0.0
 40
0.0888773174557189
 40
0.1877928100857202
 40
0.2967472475401975
 40
0.4176811878320578
 40
0.5475167287995177
 40
0.6873904953313473
 40
0.8392439443032897
 40
1.0
 40
1.0
 40
1.0
 40
1.0
 10
106.3063271604938
 20
23.10235339506173
 30
0.0
 10
106.2944210713678
 20
23.11906403403933
 30
0.0
 10
106.2692641697183
 20
23.15437268130464
 30
0.0
 10
106.229734129789
 20
23.21032490666734
 30
0.0
 10
106.1861031892202
 20
23.27244041859759
 30
0.0
 10
106.1383698447544
 20
23.34039813040929
 30
0.0
 10
106.0859747496843
 20
23.41380137425519
 30
0.0
 10
106.0298583764133
 20
23.49331613342792
 30
0.0
 10
105.9695575208317
 20
23.57861481848022
 30
0.0
 10
105.9276219911892
 20
23.63735005329209
 30
0.0
 10
105.9060570987654
 20
23.66755401234568
 30
0.0
  0
SPLINE
  5
FD
330
1F
100
AcDbEntity
  8
0
  6
Continuous
 62
     7
370
    25
100
AcDbSpline
210
0.0
220
0.0
230
1.0
 70
     8
 71
     3
 72
    23
 73
    19
 74
     0
 42
0.000000001
 43
0.00000001
 40
0.0
 40
0.0
 40
0.0
 40
0.0
 40
0.0160418833720715
 40
0.0376753132039362
 40
0.0658811352353753
 40
0.0995995602121316
 40
0.1398381492494235
 40
0.1868718310623099
 40
0.239300544476326
 40
0.2985649698047969
 40
0.3641124735190959
 40
0.4362179645154333
 40
0.5137591144101075
 40
0.598474860055109
 40
0.6897499581901148
 40
0.7864745197095705
 40
0.8900740714072339
 40
0.9999999999999999
 40
0.9999999999999999
 40
0.9999999999999999
 40
0.9999999999999999
 10
109.3888888888889
 20
22.21790123456791
 30
0.0
 10
109.3896668659744
 20
22.22596991107531
 30
0.0
 10
109.3914939912368
 20
22.24491967573243
 30
0.0
 10
109.4000862848004
 20
22.27715566749887
 30
0.0
 10
109.4133807392519
 20
22.31717625315358
 30
0.0
 10
109.4335945678776
 20
22.3646439738276
 30
0.0
 10
109.4574326905149
 20
22.42084494222162
 30
0.0
 10
109.4872947075597
 20
22.48472369908361
 30
0.0
 10
109.5223835266029
 20
22.55672490314182
 30
0.0
 10
109.5626730346971
 20
22.63658613058779
 30
0.0
 10
109.6094695838271
 20
22.72425178468593
 30
0.0
 10
109.6600626616045
 20
22.82033825881984
 30
0.0
 10
109.716281383337
 20
22.92439598293767
 30
0.0
 10
109.7793674524536
 20
23.03570479945683
 30
0.0
 10
109.8462209564923
 20
23.15599699044438
 30
0.0
 10
109.9191199258713
 20
23.28382204260105
 30
0.0
 10
109.9969278337979
 20
23.41968139162723
 30
0.0
 10
110.0514213024574
 20
23.51263829984391
 30
0.0
 10
110.0794753086419
 20
23.56049382716051
 30
0.0
  0
SPLINE
  5
FE
330
1F
100
AcDbEntity
  8
0
  6
Continuous
 62
     7
370
    25
100
AcDbSpline
210
0.0
220
0.0
230
1.0
 70
     8
 71
     3
 72
    15
 73
    11
 74
     0
 42
0.000000001
 43
0.00000001
 40
0.0
 40
0.0
 40
0.0
 40
0.0
 40
0.1500235808332118
 40
0.2890315686880294
 40
0.4193872948857679
 40
0.5413053653815724
 40
0.6602061546610548
 40
0.7734042413141103
 40
0.8868019133469262
 40
1.0
 40
1.0
 40
1.0
 40
1.0
 10
110.3148148148148
 20
22.06165123456791
 30
0.0
 10
110.2984130236786
 20
22.03923001519719
 30
0.0
 10
110.2668137551166
 20
21.99603387116019
 30
0.0
 10
110.2158522051718
 20
21.93719445009543
 30
0.0
 10
110.1614378513137
 20
21.88911288637597
 30
0.0
 10
110.1057688095111
 20
21.84861907419756
 30
0.0
 10
110.0482922007331
 20
21.81670761086344
 30
0.0
 10
109.9883178366352
 20
21.79371851470986
 30
0.0
 10
109.9262973812527
 20
21.78141841850996
 30
0.0
 10
109.8843707680581
 20
21.77919643363117
 30
0.0
 10
109.8634259259259
 20
21.7780864197531
 30
0.0
  0
SPLINE
  5
FF
330
1F
100
AcDbEntity
  8
0
  6
Continuous
 62
     7
370
    25
100
AcDbSpline
210
0.0
220
0.0
230
1.0
 70
     8
 71
     3
 72
    15
 73
    11
 74
     0
 42
0.000000001
 43
0.00000001
 40
0.0
 40
0.0
 40
0.0
 40
0.0
 40
0.1731046854980235
 40
0.328613254409212
 40
0.4695841424650582
 40
0.593954715942296
 40
0.7052646421716958
 40
0.8060738777724871
 40
0.9029806359187784
 40
1.0
 40
1.0
 40
1.0
 40
1.0
 10
104.3020833333333
 20
25.72098765432099
 30
0.0
 10
104.2661516476255
 20
25.76696747314799
 30
0.0
 10
104.1979407373149
 20
25.8542532554965
 30
0.0
 10
104.09431876828
 20
25.97393899308744
 30
0.0
 10
103.9951623591459
 20
26.07572148587781
 30
0.0
 10
103.8980319958402
 20
26.15735324513376
 30
0.0
 10
103.8132979470793
 20
26.23345222763205
 30
0.0
 10
103.7534124620621
 20
26.31974345601629
 30
0.0
 10
103.7164614030208
 20
26.41354899509445
 30
0.0
 10
103.7120723460027
 20
26.47909212288423
 30
0.0
 10
103.7098765432098
 20
26.51188271604939
 30
0.0
  0
SPLINE
  5
100
330
1F
100
AcDbEntity
  8
0
  6
Continuous
 62
     7
370
    25
100
AcDbSpline
210
0.0
220
0.0
230
1.0
 70
     8
 71
     3
 72
    15
 73
    11
 74
     0
 42
0.000000001
 43
0.00000001
 40
0.0
 40
0.0
 40
0.0
 40
0.0
 40
0.1190865963840495
 40
0.2357826864443261
 40
0.3568689757862629
 40
0.4851221000413716
 40
0.6149342912121953
 40
0.739677281859872
 40
0.8661731873426495
 40
1.0
 40
1.0
 40
1.0
 40
1.0
 10
103.7098765432098
 20
26.51188271604939
 30
0.0
 10
103.7116533828048
 20
26.54034259110845
 30
0.0
 10
103.7151713942839
 20
26.59669104677893
 30
0.0
 10
103.7403727925005
 20
26.6789923467008
 30
0.0
 10
103.7828835964629
 20
26.75595149392116
 30
0.0
 10
103.8404082779934
 20
26.82641306000736
 30
0.0
 10
103.9095514544949
 20
26.88710034972403
 30
0.0
 10
103.9896350663028
 20
26.93163712835912
 30
0.0
 10
104.0785276304274
 20
26.9587199931443
 30
0.0
 10
104.1408175024901
 20
26.96172618206892
 30
0.0
 10
104.1728395061728
 20
26.96327160493827
 30
0.0
  0
LINE
  5
101
330
1F
100
AcDbEntity
  8
0
  6
Continuous
 62
     7
370
    25
100
AcDbLine
 10
109.0802469136
 20
26.7452932099
 30
0.0
 11
109.3319830247
 21
26.3537037037
 31
0.0
  0
LINE
  5
102
330
1F
100
AcDbEntity
  8
0
  6
Continuous
 62
     7
370
    25
100
AcDbLine
 10
-7.5
 20
-58.675
 30
0.0
 11
7.5
 21
-58.675
 31
0.0
  0
LINE
  5
103
330
1F
100
AcDbEntity
  8
0
  6
Continuous
 62
     7
370
    25
100
AcDbLine
 10
7.5
 20
-58.675
 30
0.0
 11
7.5
 21
-51.675
 31
0.0
  0
LINE
  5
104
330
1F
100
AcDbEntity
  8
0
  6
Continuous
 62
     7
370
    25
100
AcDbLine
 10
7.5
 20
-51.675
 30
0.0
 11
-7.5
 21
-51.675
 31
0.0
  0
LINE
  5
105
330
1F
100
AcDbEntity
  8
0
  6
Continuous
 62
     7
370
    25
100
AcDbLine
 10
-7.5
 20
-51.675
 30
0.0
 11
-7.5
 21
-58.675
 31
0.0
  0
LINE
  5
106
330
1F
100
AcDbEntity
  8
0
  6
Continuous
 62
     7
370
    25
100
AcDbLine
 10
17.1142135624
 20
46.1907864376
 30
0.0
 11
13.2857864376
 21
50.0192135624
 31
0.0
  0
LINE
  5
107
330
1F
100
AcDbEntity
  8
0
  6
Continuous
 62
     7
370
    25
100
AcDbLine
 10
18.5284271247
 20
45.605
 30
0.0
 11
52.1715728753
 21
45.605
 31
0.0
  0
LINE
  5
108
330
1F
100
AcDbEntity
  8
0
  6
Continuous
 62
     7
370
    25
100
AcDbLine
 10
54.4142135624
 20
44.1907864376
 30
0.0
 11
53.5857864376
 21
45.0192135624
 31
0.0
  0
LINE
  5
109
330
1F
100
AcDbEntity
  8
0
  6
Continuous
 62
     7
370
    25
100
AcDbLine
 10
55.0
 20
35.225
 30
0.0
 11
55.0
 21
42.7765728753
 31
0.0
  0
LINE
  5
10A
330
1F
100
AcDbEntity
  8
0
  6
Continuous
 62
     7
370
    25
100
AcDbLine
 10
115.0
 20
34.725
 30
0.0
 11
55.5
 21
34.725
 31
0.0
  0
LINE
  5
10B
330
1F
100
AcDbEntity
  8
0
  6
Continuous
 62
     7
370
    25
100
AcDbLine
 10
115.0
 20
38.7765728753
 30
0.0
 11
115.0
 21
34.725
 31
0.0
  0
LINE
  5
10C
330
1F
100
AcDbEntity
  8
0
  6
Continuous
 62
     7
370
    25
100
AcDbLine
 10
116.4142135624
 20
41.0192135624
 30
0.0
 11
115.5857864376
 21
40.1907864376
 31
0.0
  0
LINE
  5
10D
330
1F
100
AcDbEntity
  8
0
  6
Continuous
 62
     7
370
    25
100
AcDbLine
 10
127.1715728753
 20
41.605
 30
0.0
 11
117.8284271247
 21
41.605
 31
0.0
  0
LINE
  5
10E
330
1F
100
AcDbEntity
  8
0
  6
Continuous
 62
     7
370
    25
100
AcDbLine
 10
129.4142135624
 20
40.1907864376
 30
0.0
 11
128.5857864376
 21
41.0192135624
 31
0.0
  0
LINE
  5
10F
330
1F
100
AcDbEntity
  8
0
  6
Continuous
 62
     7
370
    25
100
AcDbLine
 10
130.0
 20
12.1534271247
 30
0.0
 11
130.0
 21
38.7765728753
 31
0.0
  0
LINE
  5
110
330
1F
100
AcDbEntity
  8
0
  6
Continuous
 62
     7
370
    25
100
AcDbLine
 10
128.5857864376
 20
9.9107864376
 30
0.0
 11
129.4142135624
 21
10.7392135624
 31
0.0
  0
LINE
  5
111
330
1F
100
AcDbEntity
  8
0
  6
Continuous
 62
     7
370
    25
100
AcDbLine
 10
118.0
 20
9.325
 30
0.0
 11
127.1715728753
 21
9.325
 31
0.0
  0
LINE
  5
112
330
1F
100
AcDbEntity
  8
0
  6
Continuous
 62
     7
370
    25
100
AcDbLine
 10
118.0
 20
5.2734271247
 30
0.0
 11
118.0
 21
9.325
 31
0.0
  0
LINE
  5
113
330
1F
100
AcDbEntity
  8
0
  6
Continuous
 62
     7
370
    25
100
AcDbLine
 10
116.5857864376
 20
3.0307864376
 30
0.0
 11
117.4142135624
 21
3.8592135624
 31
0.0
  0
LINE
  5
114
330
1F
100
AcDbEntity
  8
0
  6
Continuous
 62
     7
370
    25
100
AcDbLine
 10
86.8284271247
 20
2.445
 30
0.0
 11
115.1715728753
 21
2.445
 31
0.0
  0
LINE
  5
115
330
1F
100
AcDbEntity
  8
0
  6
Continuous
 62
     7
370
    25
100
AcDbLine
 10
84.5857864376
 20
3.8592135624
 30
0.0
 11
85.4142135624
 21
3.0307864376
 31
0.0
  0
LINE
  5
116
330
1F
100
AcDbEntity
  8
0
  6
Continuous
 62
     7
370
    25
100
AcDbLine
 10
84.0
 20
9.325
 30
0.0
 11
84.0
 21
5.2734271247
 31
0.0
  0
LINE
  5
117
330
1F
100
AcDbEntity
  8
0
  6
Continuous
 62
     7
370
    25
100
AcDbLine
 10
46.8284271247
 20
9.325
 30
0.0
 11
84.0
 21
9.325
 31
0.0
  0
LINE
  5
118
330
1F
100
AcDbEntity
  8
0
  6
Continuous
 62
     7
370
    25
100
AcDbLine
 10
25.5857864376
 20
-11.0892135624
 30
0.0
 11
45.4142135624
 21
8.7392135624
 31
0.0
  0
LINE
  5
119
330
1F
100
AcDbEntity
  8
0
  6
Continuous
 62
     7
370
    25
100
AcDbLine
 10
25.0
 20
-62.8465728753
 30
0.0
 11
25.0
 21
-12.5034271247
 31
0.0
  0
LINE
  5
11A
330
1F
100
AcDbEntity
  8
0
  6
Continuous
 62
     7
370
    25
100
AcDbLine
 10
23.5857864376
 20
-65.0892135624
 30
0.0
 11
24.4142135624
 21
-64.2607864376
 31
0.0
  0
LINE
  5
11B
330
1F
100
AcDbEntity
  8
0
  6
Continuous
 62
     7
370
    25
100
AcDbLine
 10
-22.1715728753
 20
-65.675
 30
0.0
 11
22.1715728753
 21
-65.675
 31
0.0
  0
LINE
  5
11C
330
1F
100
AcDbEntity
  8
0
  6
Continuous
 62
     7
370
    25
100
AcDbLine
 10
-24.4142135624
 20
-64.2607864376
 30
0.0
 11
-23.5857864376
 21
-65.0892135624
 31
0.0
  0
LINE
  5
11D
330
1F
100
AcDbEntity
  8
0
  6
Continuous
 62
     7
370
    25
100
AcDbLine
 10
-25.0
 20
42.7765728753
 30
0.0
 11
-25.0
 21
-62.8465728753
 31
0.0
  0
LINE
  5
11E
330
1F
100
AcDbEntity
  8
0
  6
Continuous
 62
     7
370
    25
100
AcDbLine
 10
-23.5857864376
 20
45.0192135624
 30
0.0
 11
-24.4142135624
 21
44.1907864376
 31
0.0
  0
LINE
  5
11F
330
1F
100
AcDbEntity
  8
0
  6
Continuous
 62
     7
370
    25
100
AcDbLine
 10
-22.1715728753
 20
45.605
 30
0.0
 11
-18.5284271247
 21
45.605
 31
0.0
  0
LINE
  5
120
330
1F
100
AcDbEntity
  8
0
  6
Continuous
 62
     7
370
    25
100
AcDbLine
 10
-13.2857864376
 20
50.0192135624
 30
0.0
 11
-17.1142135624
 21
46.1907864376
 31
0.0
  0
LINE
  5
121
330
1F
100
AcDbEntity
  8
0
  6
Continuous
 62
     7
370
    25
100
AcDbLine
 10
-12.7
 20
51.4334271247
 30
0.0
 11
-12.7
 21
62.8465728753
 31
0.0
  0
LINE
  5
122
330
1F
100
AcDbEntity
  8
0
  6
Continuous
 62
     7
370
    25
100
AcDbLine
 10
-11.2857864376
 20
65.0892135624
 30
0.0
 11
-12.1142135624
 21
64.2607864376
 31
0.0
  0
LINE
  5
123
330
1F
100
AcDbEntity
  8
0
  6
Continuous
 62
     7
370
    25
100
AcDbLine
 10
12.1142135624
 20
64.2607864376
 30
0.0
 11
11.2857864376
 21
65.0892135624
 31
0.0
  0
LINE
  5
124
330
1F
100
AcDbEntity
  8
0
  6
Continuous
 62
     7
370
    25
100
AcDbLine
 10
12.7
 20
62.8465728753
 30
0.0
 11
12.7
 21
51.4334271247
 31
0.0
  0
LINE
  5
125
330
1F
100
AcDbEntity
  8
0
  6
Continuous
 62
     7
370
    25
100
AcDbLine
 10
-18.5
 20
-5.175
 30
0.0
 11
-18.5
 21
-7.675
 31
0.0
  0
LINE
  5
126
330
1F
100
AcDbEntity
  8
0
  6
Continuous
 62
     7
370
    25
100
AcDbLine
 10
-12.5
 20
-7.675
 30
0.0
 11
-12.5
 21
-5.175
 31
0.0
  0
LINE
  5
127
330
1F
100
AcDbEntity
  8
0
  6
Continuous
 62
     7
370
    25
100
AcDbLine
 10
12.5
 20
-5.175
 30
0.0
 11
12.5
 21
-7.675
 31
0.0
  0
LINE
  5
128
330
1F
100
AcDbEntity
  8
0
  6
Continuous
 62
     7
370
    25
100
AcDbLine
 10
18.5
 20
-7.675
 30
0.0
 11
18.5
 21
-5.175
 31
0.0
  0
LINE
  5
129
330
1F
100
AcDbEntity
  8
0
  6
Continuous
 62
     7
370
    25
100
AcDbLine
 10
12.5
 20
-36.175
 30
0.0
 11
12.5
 21
-38.675
 31
0.0
  0
LINE
  5
12A
330
1F
100
AcDbEntity
  8
0
  6
Continuous
 62
     7
370
    25
100
AcDbLine
 10
18.5
 20
-38.675
 30
0.0
 11
18.5
 21
-36.175
 31
0.0
  0
LINE
  5
12B
330
1F
100
AcDbEntity
  8
0
  6
Continuous
 62
     7
370
    25
100
AcDbLine
 10
-18.5
 20
-36.175
 30
0.0
 11
-18.5
 21
-38.675
 31
0.0
  0
LINE
  5
12C
330
1F
100
AcDbEntity
  8
0
  6
Continuous
 62
     7
370
    25
100
AcDbLine
 10
-12.5
 20
-38.675
 30
0.0
 11
-12.5
 21
-36.175
 31
0.0
  0
LINE
  5
12D
330
1F
100
AcDbEntity
  8
0
  6
Continuous
 62
     7
370
    25
100
AcDbLine
 10
5.5
 20
-10.5
 30
0.0
 11
5.5
 21
-3.5
 31
0.0
  0
LINE
  5
12E
330
1F
100
AcDbEntity
  8
0
  6
Continuous
 62
     7
370
    25
100
AcDbLine
 10
1.5
 20
-3.5
 30
0.0
 11
1.5
 21
-10.5
 31
0.0
  0
LINE
  5
12F
330
1F
100
AcDbEntity
  8
0
  6
Continuous
 62
     7
370
    25
100
AcDbLine
 10
-1.5
 20
-10.5
 30
0.0
 11
-1.5
 21
-3.5
 31
0.0
  0
LINE
  5
130
330
1F
100
AcDbEntity
  8
0
  6
Continuous
 62
     7
370
    25
100
AcDbLine
 10
-5.5
 20
-3.5
 30
0.0
 11
-5.5
 21
-10.5
 31
0.0
  0
LINE
  5
131
330
1F
100
AcDbEntity
  8
0
  6
Continuous
 62
     7
370
    25
100
AcDbLine
 10
9.8715728753
 20
65.675
 30
0.0
 11
-9.8715728753
 21
65.675
 31
0.0
  0
ARC
  5
132
330
1F
100
AcDbEntity
  8
0
  6
Continuous
 62
     7
370
    25
100
AcDbCircle
 10
14.7
 20
51.4334271247
 30
0.0
 40
2.00000000000002
100
AcDbArc
 50
180.0
 51
225.0
  0
ARC
  5
133
330
1F
100
AcDbEntity
  8
0
  6
Continuous
 62
     7
370
    25
100
AcDbCircle
 10
18.5284271247
 20
47.605
 30
0.0
 40
1.999999999999951
100
AcDbArc
 50
225.0
 51
270.0
  0
ARC
  5
134
330
1F
100
AcDbEntity
  8
0
  6
Continuous
 62
     7
370
    25
100
AcDbCircle
 10
52.1715728753
 20
43.605
 30
0.0
 40
2.000000000000021
100
AcDbArc
 50
45.0
 51
90.0
  0
ARC
  5
135
330
1F
100
AcDbEntity
  8
0
  6
Continuous
 62
     7
370
    25
100
AcDbCircle
 10
53.0
 20
42.7765728753
 30
0.0
 40
1.999999999999996
100
AcDbArc
 50
0.0
 51
45.0
  0
ARC
  5
136
330
1F
100
AcDbEntity
  8
0
  6
Continuous
 62
     7
370
    25
100
AcDbCircle
 10
55.5
 20
35.225
 30
0.0
 40
0.4999999999999929
100
AcDbArc
 50
180.0
 51
270.0
  0
ARC
  5
137
330
1F
100
AcDbEntity
  8
0
  6
Continuous
 62
     7
370
    25
100
AcDbCircle
 10
117.0
 20
38.7765728753
 30
0.0
 40
2.000000000000142
100
AcDbArc
 50
135.0
 51
180.0
  0
ARC
  5
138
330
1F
100
AcDbEntity
  8
0
  6
Continuous
 62
     7
370
    25
100
AcDbCircle
 10
117.8284271247
 20
39.605
 30
0.0
 40
1.999999999999901
100
AcDbArc
 50
90.0
 51
135.0
  0
ARC
  5
139
330
1F
100
AcDbEntity
  8
0
  6
Continuous
 62
     7
370
    25
100
AcDbCircle
 10
127.1715728753
 20
39.605
 30
0.0
 40
1.999999999999993
100
AcDbArc
 50
45.0
 51
90.0
  0
ARC
  5
13A
330
1F
100
AcDbEntity
  8
0
  6
Continuous
 62
     7
370
    25
100
AcDbCircle
 10
128.0
 20
38.7765728753
 30
0.0
 40
2.000000000000102
100
AcDbArc
 50
0.0
 51
45.0
  0
ARC
  5
13B
330
1F
100
AcDbEntity
  8
0
  6
Continuous
 62
     7
370
    25
100
AcDbCircle
 10
128.0
 20
12.1534271247
 30
0.0
 40
2.000000000000139
100
AcDbArc
 50
315.0
 51
0.0
  0
ARC
  5
13C
330
1F
100
AcDbEntity
  8
0
  6
Continuous
 62
     7
370
    25
100
AcDbCircle
 10
127.1715728753
 20
11.325
 30
0.0
 40
2.000000000000087
100
AcDbArc
 50
270.0
 51
315.0
  0
ARC
  5
13D
330
1F
100
AcDbEntity
  8
0
  6
Continuous
 62
     7
370
    25
100
AcDbCircle
 10
116.0
 20
5.2734271247
 30
0.0
 40
2.0
100
AcDbArc
 50
315.0
 51
0.0
  0
ARC
  5
13E
330
1F
100
AcDbEntity
  8
0
  6
Continuous
 62
     7
370
    25
100
AcDbCircle
 10
115.1715728753
 20
4.445
 30
0.0
 40
2.000000000000036
100
AcDbArc
 50
270.0
 51
315.0
  0
ARC
  5
13F
330
1F
100
AcDbEntity
  8
0
  6
Continuous
 62
     7
370
    25
100
AcDbCircle
 10
86.8284271247
 20
4.445
 30
0.0
 40
2.000000000000032
100
AcDbArc
 50
225.0
 51
270.0
  0
ARC
  5
140
330
1F
100
AcDbEntity
  8
0
  6
Continuous
 62
     7
370
    25
100
AcDbCircle
 10
86.0
 20
5.2734271247
 30
0.0
 40
1.999999999999906
100
AcDbArc
 50
180.0
 51
225.0
  0
ARC
  5
141
330
1F
100
AcDbEntity
  8
0
  6
Continuous
 62
     7
370
    25
100
AcDbCircle
 10
46.8284271247
 20
7.325
 30
0.0
 40
1.999999999999992
100
AcDbArc
 50
90.0
 51
135.0
  0
ARC
  5
142
330
1F
100
AcDbEntity
  8
0
  6
Continuous
 62
     7
370
    25
100
AcDbCircle
 10
27.0
 20
-12.5034271247
 30
0.0
 40
2.000000000000021
100
AcDbArc
 50
135.0
 51
180.0
  0
ARC
  5
143
330
1F
100
AcDbEntity
  8
0
  6
Continuous
 62
     7
370
    25
100
AcDbCircle
 10
23.0
 20
-62.8465728753
 30
0.0
 40
1.999999999999984
100
AcDbArc
 50
315.0
 51
0.0
  0
ARC
  5
144
330
1F
100
AcDbEntity
  8
0
  6
Continuous
 62
     7
370
    25
100
AcDbCircle
 10
22.1715728753
 20
-63.675
 30
0.0
 40
2.000000000000006
100
AcDbArc
 50
270.0
 51
315.0
  0
ARC
  5
145
330
1F
100
AcDbEntity
  8
0
  6
Continuous
 62
     7
370
    25
100
AcDbCircle
 10
-22.1715728753
 20
-63.675
 30
0.0
 40
2.000000000000171
100
AcDbArc
 50
225.0
 51
270.0
  0
ARC
  5
146
330
1F
100
AcDbEntity
  8
0
  6
Continuous
 62
     7
370
    25
100
AcDbCircle
 10
-23.0
 20
-62.8465728753
 30
0.0
 40
1.999999999999838
100
AcDbArc
 50
180.0
 51
225.0
  0
ARC
  5
147
330
1F
100
AcDbEntity
  8
0
  6
Continuous
 62
     7
370
    25
100
AcDbCircle
 10
-23.0
 20
42.7765728753
 30
0.0
 40
1.999999999999979
100
AcDbArc
 50
135.0
 51
180.0
  0
ARC
  5
148
330
1F
100
AcDbEntity
  8
0
  6
Continuous
 62
     7
370
    25
100
AcDbCircle
 10
-22.1715728753
 20
43.605
 30
0.0
 40
1.999999999999958
100
AcDbArc
 50
90.0
 51
135.0
  0
ARC
  5
149
330
1F
100
AcDbEntity
  8
0
  6
Continuous
 62
     7
370
    25
100
AcDbCircle
 10
-18.5284271247
 20
47.605
 30
0.0
 40
1.999999999999957
100
AcDbArc
 50
270.0
 51
315.0
  0
ARC
  5
14A
330
1F
100
AcDbEntity
  8
0
  6
Continuous
 62
     7
370
    25
100
AcDbCircle
 10
-14.7
 20
51.4334271247
 30
0.0
 40
2.000000000000083
100
AcDbArc
 50
315.0
 51
0.0
  0
ARC
  5
14B
330
1F
100
AcDbEntity
  8
0
  6
Continuous
 62
     7
370
    25
100
AcDbCircle
 10
-10.7
 20
62.8465728753
 30
0.0
 40
2.000000000000087
100
AcDbArc
 50
135.0
 51
180.0
  0
ARC
  5
14C
330
1F
100
AcDbEntity
  8
0
  6
Continuous
 62
     7
370
    25
100
AcDbCircle
 10
-9.8715728753
 20
63.675
 30
0.0
 40
1.999999999999922
100
AcDbArc
 50
90.0
 51
135.0
  0
ARC
  5
14D
330
1F
100
AcDbEntity
  8
0
  6
Continuous
 62
     7
370
    25
100
AcDbCircle
 10
9.8715728753
 20
63.675
 30
0.0
 40
2.000000000000114
100
AcDbArc
 50
45.0
 51
90.0
  0
ARC
  5
14E
330
1F
100
AcDbEntity
  8
0
  6
Continuous
 62
     7
370
    25
100
AcDbCircle
 10
10.7
 20
62.8465728753
 30
0.0
 40
1.999999999999859
100
AcDbArc
 50
0.0
 51
45.0
  0
ARC
  5
14F
330
1F
100
AcDbEntity
  8
0
  6
Continuous
 62
     7
370
    25
100
AcDbCircle
 10
-15.5
 20
-5.175
 30
0.0
 40
3.000000000000004
100
AcDbArc
 50
0.0
 51
180.0
  0
ARC
  5
150
330
1F
100
AcDbEntity
  8
0
  6
Continuous
 62
     7
370
    25
100
AcDbCircle
 10
-15.5
 20
-7.675
 30
0.0
 40
3.000000000000004
100
AcDbArc
 50
180.0
 51
0.0
  0
ARC
  5
151
330
1F
100
AcDbEntity
  8
0
  6
Continuous
 62
     7
370
    25
100
AcDbCircle
 10
15.5
 20
-5.175
 30
0.0
 40
3.000000000000002
100
AcDbArc
 50
0.0
 51
180.0
  0
ARC
  5
152
330
1F
100
AcDbEntity
  8
0
  6
Continuous
 62
     7
370
    25
100
AcDbCircle
 10
15.5
 20
-7.675
 30
0.0
 40
3.000000000000004
100
AcDbArc
 50
180.0
 51
0.0
  0
ARC
  5
153
330
1F
100
AcDbEntity
  8
0
  6
Continuous
 62
     7
370
    25
100
AcDbCircle
 10
15.5
 20
-38.675
 30
0.0
 40
3.000000000000002
100
AcDbArc
 50
180.0
 51
0.0
  0
ARC
  5
154
330
1F
100
AcDbEntity
  8
0
  6
Continuous
 62
     7
370
    25
100
AcDbCircle
 10
-15.5
 20
-36.175
 30
0.0
 40
2.999999999999996
100
AcDbArc
 50
0.0
 51
180.0
  0
ARC
  5
155
330
1F
100
AcDbEntity
  8
0
  6
Continuous
 62
     7
370
    25
100
AcDbCircle
 10
-15.5
 20
-38.675
 30
0.0
 40
2.999999999999996
100
AcDbArc
 50
180.0
 51
0.0
  0
ARC
  5
156
330
1F
100
AcDbEntity
  8
0
  6
Continuous
 62
     7
370
    25
100
AcDbCircle
 10
3.5
 20
-3.5
 30
0.0
 40
1.999999999999999
100
AcDbArc
 50
0.0
 51
180.0
  0
ARC
  5
157
330
1F
100
AcDbEntity
  8
0
  6
Continuous
 62
     7
370
    25
100
AcDbCircle
 10
3.5
 20
-10.5
 30
0.0
 40
1.999999999999999
100
AcDbArc
 50
180.0
 51
0.0
  0
ARC
  5
158
330
1F
100
AcDbEntity
  8
0
  6
Continuous
 62
     7
370
    25
100
AcDbCircle
 10
-3.5
 20
-3.5
 30
0.0
 40
1.999999999999999
100
AcDbArc
 50
0.0
 51
180.0
  0
ARC
  5
159
330
1F
100
AcDbEntity
  8
0
  6
Continuous
 62
     7
370
    25
100
AcDbCircle
 10
-3.5
 20
-10.5
 30
0.0
 40
1.999999999999999
100
AcDbArc
 50
180.0
 51
0.0
  0
ARC
  5
15A
330
1F
100
AcDbEntity
  8
0
  6
Continuous
 62
     7
370
    25
100
AcDbCircle
 10
15.5
 20
-36.175
 30
0.0
 40
2.999999999999995
100
AcDbArc
 50
0.0
 51
180.0
  0
ENDSEC
  0
SECTION
  2
OBJECTS
  0
DICTIONARY
  5
C
330
0
100
AcDbDictionary
281
     1
  3
ACAD_GROUP
350
D
  3
ACAD_LAYOUT
350
1A
  3
ACAD_MLINESTYLE
350
17
  3
ACAD_PLOTSETTINGS
350
19
  3
ACAD_PLOTSTYLENAME
350
E
  3
ACAD_SCALELIST
350
47
  0
DICTIONARY
  5
D
102
{ACAD_REACTORS
330
C
102
}
330
C
100
AcDbDictionary
281
     1
  0
DICTIONARY
  5
1A
102
{ACAD_REACTORS
330
C
102
}
330
C
100
AcDbDictionary
281
     1
  3
Layout1
350
1E
  3
Layout2
350
26
  3
Model
350
22
  0
DICTIONARY
  5
17
102
{ACAD_REACTORS
330
C
102
}
330
C
100
AcDbDictionary
281
     1
  3
Standard
350
18
  0
DICTIONARY
  5
19
102
{ACAD_REACTORS
330
C
102
}
330
C
100
AcDbDictionary
281
     1
  0
ACDBDICTIONARYWDFLT
  5
E
102
{ACAD_REACTORS
330
C
102
}
330
C
100
AcDbDictionary
281
     1
  3
Normal
350
F
100
AcDbDictionaryWithDefault
340
F
  0
DICTIONARY
  5
47
102
{ACAD_REACTORS
330
C
102
}
330
C
100
AcDbDictionary
281
     1
  3
A0
350
48
  3
A1
350
49
  3
A2
350
4A
  3
A3
350
4B
  3
A4
350
4C
  3
A5
350
4D
  3
A6
350
4E
  3
A7
350
4F
  3
A8
350
50
  3
A9
350
51
  3
B0
350
52
  3
B1
350
53
  3
B2
350
54
  3
B3
350
55
  3
B4
350
56
  3
B5
350
57
  3
B6
350
58
  3
B7
350
59
  3
B8
350
5A
  3
B9
350
5B
  3
C0
350
5C
  3
C1
350
5D
  3
C2
350
5E
  3
C3
350
5F
  3
C4
350
60
  3
C5
350
61
  3
C6
350
62
  3
C7
350
63
  3
C8
350
64
  3
C9
350
65
  3
D0
350
66
  3
D1
350
67
  3
D2
350
68
  0
LAYOUT
  5
1E
102
{ACAD_REACTORS
330
1A
102
}
330
1A
100
AcDbPlotSettings
  1

  2
none_device
  4

  6

 40
0.0
 41
0.0
 42
0.0
 43
0.0
 44
0.0
 45
0.0
 46
0.0
 47
0.0
 48
0.0
 49
0.0
140
0.0
141
0.0
142
1.0
143
1.0
 70
   688
 72
     1
 73
     0
 74
     5
  7

 75
    16
147
1.0
148
0.0
149
0.0
100
AcDbLayout
  1
Layout1
 70
     1
 71
     1
 10
0.0
 20
0.0
 11
420.0
 21
297.0
 12
0.0
 22
0.0
 32
0.0
 14
1.0000000000E+20
 24
1.0000000000E+20
 34
1.0000000000E+20
 15
-1.0000000000E+20
 25
-1.0000000000E+20
 35
-1.0000000000E+20
146
0.0
 13
0.0
 23
0.0
 33
0.0
 16
1.0
 26
0.0
 36
0.0
 17
0.0
 27
1.0
 37
0.0
 76
     0
330
1B
  0
LAYOUT
  5
26
102
{ACAD_REACTORS
330
1A
102
}
330
1A
100
AcDbPlotSettings
  1

  2
none_device
  4

  6

 40
0.0
 41
0.0
 42
0.0
 43
0.0
 44
0.0
 45
0.0
 46
0.0
 47
0.0
 48
0.0
 49
0.0
140
0.0
141
0.0
142
1.0
143
1.0
 70
   688
 72
     1
 73
     0
 74
     5
  7

 75
    16
147
1.0
148
0.0
149
0.0
100
AcDbLayout
  1
Layout2
 70
     1
 71
     2
 10
0.0
 20
0.0
 11
0.0
 21
0.0
 12
0.0
 22
0.0
 32
0.0
 14
0.0
 24
0.0
 34
0.0
 15
0.0
 25
0.0
 35
0.0
146
0.0
 13
0.0
 23
0.0
 33
0.0
 16
1.0
 26
0.0
 36
0.0
 17
0.0
 27
1.0
 37
0.0
 76
     0
330
23
  0
LAYOUT
  5
22
102
{ACAD_REACTORS
330
1A
102
}
330
1A
100
AcDbPlotSettings
  1

  2
none_device
  4
ANSI_A_(11.00_x_8.50_Inches)
  6

 40
6.35
 41
19.05
 42
6.35000508
 43
19.05000254
 44
279.4
 45
215.9
 46
47.9186879815
 47
88.89999873
 48
0.0
 49
0.0
140
0.0
141
0.0
142
0.0640654739
143
1.0
 70
  1696
 72
     0
 73
     0
 74
     0
  7

 75
     0
147
0.0179189148
148
-1300.4909072572
149
0.0
100
AcDbLayout
  1
Model
 70
     1
 71
     0
 10
0.0
 20
0.0
 11
420.0
 21
297.0
 12
0.0
 22
0.0
 32
0.0
 14
-25.0
 24
-65.675
 34
0.0
 15
130.0
 25
65.675
 35
0.0
146
0.0
 13
0.0
 23
0.0
 33
0.0
 16
1.0
 26
0.0
 36
0.0
 17
0.0
 27
1.0
 37
0.0
 76
     0
330
1F
331
29
  0
MLINESTYLE
  5
18
102
{ACAD_REACTORS
330
17
102
}
330
17
100
AcDbMlineStyle
  2
Standard
 70
     0
  3

 62
   256
 51
90.0
 52
90.0
 71
     2
 49
0.5
 62
   256
  6
BYLAYER
 49
-0.5
 62
   256
  6
BYLAYER
  0
ACDBPLACEHOLDER
  5
F
102
{ACAD_REACTORS
330
E
102
}
330
E
  0
SCALE
  5
48
102
{ACAD_REACTORS
330
47
102
}
330
47
100
AcDbScale
 70
     0
300
1:1
140
1.0
141
1.0
290
     1
  0
SCALE
  5
49
102
{ACAD_REACTORS
330
47
102
}
330
47
100
AcDbScale
 70
     0
300
1:2
140
1.0
141
2.0
290
     0
  0
SCALE
  5
4A
102
{ACAD_REACTORS
330
47
102
}
330
47
100
AcDbScale
 70
     0
300
1:4
140
1.0
141
4.0
290
     0
  0
SCALE
  5
4B
102
{ACAD_REACTORS
330
47
102
}
330
47
100
AcDbScale
 70
     0
300
1:5
140
1.0
141
5.0
290
     0
  0
SCALE
  5
4C
102
{ACAD_REACTORS
330
47
102
}
330
47
100
AcDbScale
 70
     0
300
1:8
140
1.0
141
8.0
290
     0
  0
SCALE
  5
4D
102
{ACAD_REACTORS
330
47
102
}
330
47
100
AcDbScale
 70
     0
300
1:10
140
1.0
141
10.0
290
     0
  0
SCALE
  5
4E
102
{ACAD_REACTORS
330
47
102
}
330
47
100
AcDbScale
 70
     0
300
1:16
140
1.0
141
16.0
290
     0
  0
SCALE
  5
4F
102
{ACAD_REACTORS
330
47
102
}
330
47
100
AcDbScale
 70
     0
300
1:20
140
1.0
141
20.0
290
     0
  0
SCALE
  5
50
102
{ACAD_REACTORS
330
47
102
}
330
47
100
AcDbScale
 70
     0
300
1:30
140
1.0
141
30.0
290
     0
  0
SCALE
  5
51
102
{ACAD_REACTORS
330
47
102
}
330
47
100
AcDbScale
 70
     0
300
1:40
140
1.0
141
40.0
290
     0
  0
SCALE
  5
52
102
{ACAD_REACTORS
330
47
102
}
330
47
100
AcDbScale
 70
     0
300
1:50
140
1.0
141
50.0
290
     0
  0
SCALE
  5
53
102
{ACAD_REACTORS
330
47
102
}
330
47
100
AcDbScale
 70
     0
300
1:100
140
1.0
141
100.0
290
     0
  0
SCALE
  5
54
102
{ACAD_REACTORS
330
47
102
}
330
47
100
AcDbScale
 70
     0
300
2:1
140
2.0
141
1.0
290
     0
  0
SCALE
  5
55
102
{ACAD_REACTORS
330
47
102
}
330
47
100
AcDbScale
 70
     0
300
4:1
140
4.0
141
1.0
290
     0
  0
SCALE
  5
56
102
{ACAD_REACTORS
330
47
102
}
330
47
100
AcDbScale
 70
     0
300
8:1
140
8.0
141
1.0
290
     0
  0
SCALE
  5
57
102
{ACAD_REACTORS
330
47
102
}
330
47
100
AcDbScale
 70
     0
300
10:1
140
10.0
141
1.0
290
     0
  0
SCALE
  5
58
102
{ACAD_REACTORS
330
47
102
}
330
47
100
AcDbScale
 70
     0
300
100:1
140
100.0
141
1.0
290
     0
  0
SCALE
  5
59
102
{ACAD_REACTORS
330
47
102
}
330
47
100
AcDbScale
 70
     0
300
1/128" = 1'-0"
140
0.0078125
141
12.0
290
     0
  0
SCALE
  5
5A
102
{ACAD_REACTORS
330
47
102
}
330
47
100
AcDbScale
 70
     0
300
1/64" = 1'-0"
140
0.015625
141
12.0
290
     0
  0
SCALE
  5
5B
102
{ACAD_REACTORS
330
47
102
}
330
47
100
AcDbScale
 70
     0
300
1/32" = 1'-0"
140
0.03125
141
12.0
290
     0
  0
SCALE
  5
5C
102
{ACAD_REACTORS
330
47
102
}
330
47
100
AcDbScale
 70
     0
300
1/16" = 1'-0"
140
0.0625
141
12.0
290
     0
  0
SCALE
  5
5D
102
{ACAD_REACTORS
330
47
102
}
330
47
100
AcDbScale
 70
     0
300
3/32" = 1'-0"
140
0.09375
141
12.0
290
     0
  0
SCALE
  5
5E
102
{ACAD_REACTORS
330
47
102
}
330
47
100
AcDbScale
 70
     0
300
1/8" = 1'-0"
140
0.125
141
12.0
290
     0
  0
SCALE
  5
5F
102
{ACAD_REACTORS
330
47
102
}
330
47
100
AcDbScale
 70
     0
300
3/16" = 1'-0"
140
0.1875
141
12.0
290
     0
  0
SCALE
  5
60
102
{ACAD_REACTORS
330
47
102
}
330
47
100
AcDbScale
 70
     0
300
1/4" = 1'-0"
140
0.25
141
12.0
290
     0
  0
SCALE
  5
61
102
{ACAD_REACTORS
330
47
102
}
330
47
100
AcDbScale
 70
     0
300
3/8" = 1'-0"
140
0.375
141
12.0
290
     0
  0
SCALE
  5
62
102
{ACAD_REACTORS
330
47
102
}
330
47
100
AcDbScale
 70
     0
300
1/2" = 1'-0"
140
0.5
141
12.0
290
     0
  0
SCALE
  5
63
102
{ACAD_REACTORS
330
47
102
}
330
47
100
AcDbScale
 70
     0
300
3/4" = 1'-0"
140
0.75
141
12.0
290
     0
  0
SCALE
  5
64
102
{ACAD_REACTORS
330
47
102
}
330
47
100
AcDbScale
 70
     0
300
1" = 1'-0"
140
1.0
141
12.0
290
     0
  0
SCALE
  5
65
102
{ACAD_REACTORS
330
47
102
}
330
47
100
AcDbScale
 70
     0
300
1-1/2" = 1'-0"
140
1.5
141
12.0
290
     0
  0
SCALE
  5
66
102
{ACAD_REACTORS
330
47
102
}
330
47
100
AcDbScale
 70
     0
300
3" = 1'-0"
140
3.0
141
12.0
290
     0
  0
SCALE
  5
67
102
{ACAD_REACTORS
330
47
102
}
330
47
100
AcDbScale
 70
     0
300
6" = 1'-0"
140
6.0
141
12.0
290
     0
  0
SCALE
  5
68
102
{ACAD_REACTORS
330
47
102
}
330
47
100
AcDbScale
 70
     0
300
1'-0" = 1'-0"
140
12.0
141
12.0
290
     0
  0
ENDSEC
  0
EOF
